<?xml version="1.0" encoding="UTF-8" standalone="no"?>
<!DOCTYPE svg PUBLIC "-//W3C//DTD SVG 1.1//EN"
 "http://www.w3.org/Graphics/SVG/1.1/DTD/svg11.dtd">
<!-- Generated by graphviz version 14.0.2 (0)
 -->
<!-- Title: systems/animation/src/Animation.hpp Pages: 1 -->
<svg width="935pt" height="332pt"
 viewBox="0.00 0.00 935.00 332.00" xmlns="http://www.w3.org/2000/svg" xmlns:xlink="http://www.w3.org/1999/xlink">
<g id="graph0" class="graph" transform="scale(1 1) rotate(0) translate(4 328)">
<title>systems/animation/src/Animation.hpp</title>
<!-- Node1 -->
<g id="Node000001" class="node">
<title>Node1</title>
<g id="a_Node000001"><a xlink:title=" ">
<polygon fill="#999999" stroke="#666666" points="334.12,-324 219.12,-324 219.12,-292 334.12,-292 334.12,-324"/>
<text xml:space="preserve" text-anchor="start" x="227.12" y="-310.5" font-family="Helvetica,sans-Serif" font-size="10.00">systems/animation/src</text>
<text xml:space="preserve" text-anchor="middle" x="276.62" y="-298.5" font-family="Helvetica,sans-Serif" font-size="10.00">/Animation.hpp</text>
</a>
</g>
</g>
<!-- Node2 -->
<g id="Node000002" class="node">
<title>Node2</title>
<g id="a_Node000002"><a xlink:title=" ">
<polygon fill="#e0e0e0" stroke="#999999" points="130.25,-250 85,-250 85,-230 130.25,-230 130.25,-250"/>
<text xml:space="preserve" text-anchor="middle" x="107.62" y="-236.5" font-family="Helvetica,sans-Serif" font-size="10.00">chrono</text>
</a>
</g>
</g>
<!-- Node1&#45;&gt;Node2 -->
<g id="edge1_Node000001_Node000002" class="edge">
<title>Node1&#45;&gt;Node2</title>
<g id="a_edge1_Node000001_Node000002"><a xlink:title=" ">
<path fill="none" stroke="#63b8ff" d="M232.46,-291.6C205.44,-281.92 170.28,-268.87 139.62,-256 138.86,-255.68 138.09,-255.35 137.31,-255.02"/>
<polygon fill="#63b8ff" stroke="#63b8ff" points="139.08,-251.97 128.52,-251.08 136.22,-258.36 139.08,-251.97"/>
</a>
</g>
</g>
<!-- Node3 -->
<g id="Node000003" class="node">
<title>Node3</title>
<g id="a_Node000003"><a xlink:title=" ">
<polygon fill="#e0e0e0" stroke="#999999" points="183,-250 148.25,-250 148.25,-230 183,-230 183,-250"/>
<text xml:space="preserve" text-anchor="middle" x="165.62" y="-236.5" font-family="Helvetica,sans-Serif" font-size="10.00">ratio</text>
</a>
</g>
</g>
<!-- Node1&#45;&gt;Node3 -->
<g id="edge2_Node000001_Node000003" class="edge">
<title>Node1&#45;&gt;Node3</title>
<g id="a_edge2_Node000001_Node000003"><a xlink:title=" ">
<path fill="none" stroke="#63b8ff" d="M250.6,-291.53C232.71,-280.89 209.06,-266.83 191.26,-256.24"/>
<polygon fill="#63b8ff" stroke="#63b8ff" points="193.22,-253.34 182.84,-251.23 189.64,-259.35 193.22,-253.34"/>
</a>
</g>
</g>
<!-- Node4 -->
<g id="Node000004" class="node">
<title>Node4</title>
<g id="a_Node000004"><a xlink:href="Renderable_8hpp.html" target="_top" xlink:title=" ">
<polygon fill="white" stroke="#666666" points="352.5,-256 200.75,-256 200.75,-224 352.5,-224 352.5,-256"/>
<text xml:space="preserve" text-anchor="start" x="208.75" y="-242.5" font-family="Helvetica,sans-Serif" font-size="10.00">../../../components</text>
<text xml:space="preserve" text-anchor="middle" x="276.62" y="-230.5" font-family="Helvetica,sans-Serif" font-size="10.00">/renderable/src/Renderable.hpp</text>
</a>
</g>
</g>
<!-- Node1&#45;&gt;Node4 -->
<g id="edge3_Node000001_Node000004" class="edge">
<title>Node1&#45;&gt;Node4</title>
<g id="a_edge3_Node000001_Node000004"><a xlink:title=" ">
<path fill="none" stroke="#63b8ff" d="M276.62,-291.69C276.62,-284.53 276.62,-275.79 276.62,-267.59"/>
<polygon fill="#63b8ff" stroke="#63b8ff" points="280.13,-267.74 276.63,-257.74 273.13,-267.74 280.13,-267.74"/>
</a>
</g>
</g>
<!-- Node16 -->
<g id="Node000016" class="node">
<title>Node16</title>
<g id="a_Node000016"><a xlink:href="Registry_8hpp.html" target="_top" xlink:title=" ">
<polygon fill="white" stroke="#666666" points="531.88,-250 415.38,-250 415.38,-230 531.88,-230 531.88,-250"/>
<text xml:space="preserve" text-anchor="middle" x="473.62" y="-236.5" font-family="Helvetica,sans-Serif" font-size="10.00">../../../ecs/Registry.hpp</text>
</a>
</g>
</g>
<!-- Node1&#45;&gt;Node16 -->
<g id="edge15_Node000001_Node000016" class="edge">
<title>Node1&#45;&gt;Node16</title>
<g id="a_edge15_Node000001_Node000016"><a xlink:title=" ">
<path fill="none" stroke="#63b8ff" d="M322.81,-291.53C356.79,-280.14 402.47,-264.84 434.62,-254.07"/>
<polygon fill="#63b8ff" stroke="#63b8ff" points="435.58,-257.44 443.95,-250.94 433.36,-250.8 435.58,-257.44"/>
</a>
</g>
</g>
<!-- Node24 -->
<g id="Node000024" class="node">
<title>Node24</title>
<g id="a_Node000024"><a xlink:href="System_8hpp.html" target="_top" xlink:title=" ">
<polygon fill="white" stroke="#666666" points="829.88,-188 761.38,-188 761.38,-168 829.88,-168 829.88,-188"/>
<text xml:space="preserve" text-anchor="middle" x="795.62" y="-174.5" font-family="Helvetica,sans-Serif" font-size="10.00">System.hpp</text>
</a>
</g>
</g>
<!-- Node1&#45;&gt;Node24 -->
<g id="edge39_Node000001_Node000024" class="edge">
<title>Node1&#45;&gt;Node24</title>
<g id="a_edge39_Node000001_Node000024"><a xlink:title=" ">
<path fill="none" stroke="#63b8ff" d="M334.42,-297.59C388.15,-288.43 470.27,-273.37 540.62,-256 618.1,-236.87 706.99,-208.55 756.7,-192.11"/>
<polygon fill="#63b8ff" stroke="#63b8ff" points="757.76,-195.45 766.15,-188.98 755.56,-188.81 757.76,-195.45"/>
</a>
</g>
</g>
<!-- Node5 -->
<g id="Node000005" class="node">
<title>Node5</title>
<g id="a_Node000005"><a xlink:title=" ">
<polygon fill="#e0e0e0" stroke="#999999" points="221.75,-188 173.5,-188 173.5,-168 221.75,-168 221.75,-188"/>
<text xml:space="preserve" text-anchor="middle" x="197.62" y="-174.5" font-family="Helvetica,sans-Serif" font-size="10.00">cstddef</text>
</a>
</g>
</g>
<!-- Node4&#45;&gt;Node5 -->
<g id="edge4_Node000004_Node000005" class="edge">
<title>Node4&#45;&gt;Node5</title>
<g id="a_edge4_Node000004_Node000005"><a xlink:title=" ">
<path fill="none" stroke="#63b8ff" d="M256.28,-223.55C244.85,-214.87 230.6,-204.04 219.01,-195.24"/>
<polygon fill="#63b8ff" stroke="#63b8ff" points="221.3,-192.58 211.22,-189.32 217.06,-198.16 221.3,-192.58"/>
</a>
</g>
</g>
<!-- Node6 -->
<g id="Node000006" class="node">
<title>Node6</title>
<g id="a_Node000006"><a xlink:title=" ">
<polygon fill="#e0e0e0" stroke="#999999" points="331.38,-188 277.88,-188 277.88,-168 331.38,-168 331.38,-188"/>
<text xml:space="preserve" text-anchor="middle" x="304.62" y="-174.5" font-family="Helvetica,sans-Serif" font-size="10.00">iostream</text>
</a>
</g>
</g>
<!-- Node4&#45;&gt;Node6 -->
<g id="edge5_Node000004_Node000006" class="edge">
<title>Node4&#45;&gt;Node6</title>
<g id="a_edge5_Node000004_Node000006"><a xlink:title=" ">
<path fill="none" stroke="#63b8ff" d="M283.84,-223.55C287.36,-216 291.64,-206.82 295.4,-198.77"/>
<polygon fill="#63b8ff" stroke="#63b8ff" points="298.54,-200.32 299.59,-189.78 292.19,-197.36 298.54,-200.32"/>
</a>
</g>
</g>
<!-- Node7 -->
<g id="Node000007" class="node">
<title>Node7</title>
<g id="a_Node000007"><a xlink:title=" ">
<polygon fill="#e0e0e0" stroke="#999999" points="39.25,-188 0,-188 0,-168 39.25,-168 39.25,-188"/>
<text xml:space="preserve" text-anchor="middle" x="19.62" y="-174.5" font-family="Helvetica,sans-Serif" font-size="10.00">utility</text>
</a>
</g>
</g>
<!-- Node4&#45;&gt;Node7 -->
<g id="edge6_Node000004_Node000007" class="edge">
<title>Node4&#45;&gt;Node7</title>
<g id="a_edge6_Node000004_Node000007"><a xlink:title=" ">
<path fill="none" stroke="#63b8ff" d="M200.25,-223.53C158.57,-214.71 105.87,-202.95 50.61,-188.37"/>
<polygon fill="#63b8ff" stroke="#63b8ff" points="51.56,-184.99 40.99,-185.8 49.75,-191.76 51.56,-184.99"/>
</a>
</g>
</g>
<!-- Node8 -->
<g id="Node000008" class="node">
<title>Node8</title>
<g id="a_Node000008"><a xlink:title=" ">
<polygon fill="#e0e0e0" stroke="#999999" points="489.12,-76 446.12,-76 446.12,-56 489.12,-56 489.12,-76"/>
<text xml:space="preserve" text-anchor="middle" x="467.62" y="-62.5" font-family="Helvetica,sans-Serif" font-size="10.00">vector</text>
</a>
</g>
</g>
<!-- Node4&#45;&gt;Node8 -->
<g id="edge7_Node000004_Node000008" class="edge">
<title>Node4&#45;&gt;Node8</title>
<g id="a_edge7_Node000004_Node000008"><a xlink:title=" ">
<path fill="none" stroke="#63b8ff" d="M269.74,-223.75C259.17,-197.73 242.7,-144.45 268.62,-112 288.99,-86.51 383.11,-74.4 434.28,-69.62"/>
<polygon fill="#63b8ff" stroke="#63b8ff" points="434.53,-73.11 444.19,-68.74 433.92,-66.14 434.53,-73.11"/>
</a>
</g>
</g>
<!-- Node9 -->
<g id="Node000009" class="node">
<title>Node9</title>
<g id="a_Node000009"><a xlink:href="Component_8hpp.html" target="_top" xlink:title=" ">
<polygon fill="white" stroke="#666666" points="670,-188 539.25,-188 539.25,-168 670,-168 670,-188"/>
<text xml:space="preserve" text-anchor="middle" x="604.62" y="-174.5" font-family="Helvetica,sans-Serif" font-size="10.00">../../../ecs/Component.hpp</text>
</a>
</g>
</g>
<!-- Node4&#45;&gt;Node9 -->
<g id="edge8_Node000004_Node000009" class="edge">
<title>Node4&#45;&gt;Node9</title>
<g id="a_edge8_Node000004_Node000009"><a xlink:title=" ">
<path fill="none" stroke="#63b8ff" d="M352.7,-225.08C410.12,-214.58 487.96,-200.34 541.85,-190.48"/>
<polygon fill="#63b8ff" stroke="#63b8ff" points="542.27,-193.96 551.48,-188.72 541.01,-187.08 542.27,-193.96"/>
</a>
</g>
</g>
<!-- Node15 -->
<g id="Node000015" class="node">
<title>Node15</title>
<g id="a_Node000015"><a xlink:href="utils_8hpp.html" target="_top" xlink:title=" ">
<polygon fill="white" stroke="#666666" points="155.88,-188 57.38,-188 57.38,-168 155.88,-168 155.88,-188"/>
<text xml:space="preserve" text-anchor="middle" x="106.62" y="-174.5" font-family="Helvetica,sans-Serif" font-size="10.00">../../../ecs/utils.hpp</text>
</a>
</g>
</g>
<!-- Node4&#45;&gt;Node15 -->
<g id="edge14_Node000004_Node000015" class="edge">
<title>Node4&#45;&gt;Node15</title>
<g id="a_edge14_Node000004_Node000015"><a xlink:title=" ">
<path fill="none" stroke="#63b8ff" d="M232.85,-223.55C205.39,-213.86 170.35,-201.49 144.17,-192.25"/>
<polygon fill="#63b8ff" stroke="#63b8ff" points="145.55,-189.03 134.96,-189 143.22,-195.63 145.55,-189.03"/>
</a>
</g>
</g>
<!-- Node10 -->
<g id="Node000010" class="node">
<title>Node10</title>
<g id="a_Node000010"><a xlink:title=" ">
<polygon fill="#e0e0e0" stroke="#999999" points="581.25,-132 530,-132 530,-112 581.25,-112 581.25,-132"/>
<text xml:space="preserve" text-anchor="middle" x="555.62" y="-118.5" font-family="Helvetica,sans-Serif" font-size="10.00">memory</text>
</a>
</g>
</g>
<!-- Node9&#45;&gt;Node10 -->
<g id="edge9_Node000009_Node000010" class="edge">
<title>Node9&#45;&gt;Node10</title>
<g id="a_edge9_Node000009_Node000010"><a xlink:title=" ">
<path fill="none" stroke="#63b8ff" d="M596.09,-167.59C589.34,-160.16 579.74,-149.58 571.58,-140.58"/>
<polygon fill="#63b8ff" stroke="#63b8ff" points="574.39,-138.47 565.08,-133.42 569.21,-143.18 574.39,-138.47"/>
</a>
</g>
</g>
<!-- Node11 -->
<g id="Node000011" class="node">
<title>Node11</title>
<g id="a_Node000011"><a xlink:title=" ">
<polygon fill="#e0e0e0" stroke="#999999" points="671.62,-76 631.62,-76 631.62,-56 671.62,-56 671.62,-76"/>
<text xml:space="preserve" text-anchor="middle" x="651.62" y="-62.5" font-family="Helvetica,sans-Serif" font-size="10.00">string</text>
</a>
</g>
</g>
<!-- Node9&#45;&gt;Node11 -->
<g id="edge10_Node000009_Node000011" class="edge">
<title>Node9&#45;&gt;Node11</title>
<g id="a_edge10_Node000009_Node000011"><a xlink:title=" ">
<path fill="none" stroke="#63b8ff" d="M608.63,-167.62C616.26,-149.76 633.03,-110.53 643.22,-86.67"/>
<polygon fill="#63b8ff" stroke="#63b8ff" points="646.32,-88.32 647.03,-77.75 639.89,-85.57 646.32,-88.32"/>
</a>
</g>
</g>
<!-- Node12 -->
<g id="Node000012" class="node">
<title>Node12</title>
<g id="a_Node000012"><a xlink:href="Types_8hpp.html" target="_top" xlink:title="Core type definitions used throughout the ECS (Entity Component System).">
<polygon fill="white" stroke="#666666" points="927.12,-76 866.12,-76 866.12,-56 927.12,-56 927.12,-76"/>
<text xml:space="preserve" text-anchor="middle" x="896.62" y="-62.5" font-family="Helvetica,sans-Serif" font-size="10.00">Types.hpp</text>
</a>
</g>
</g>
<!-- Node9&#45;&gt;Node12 -->
<g id="edge11_Node000009_Node000012" class="edge">
<title>Node9&#45;&gt;Node12</title>
<g id="a_edge11_Node000009_Node000012"><a xlink:title=" ">
<path fill="none" stroke="#63b8ff" d="M667.46,-167.54C733.4,-157.24 829.56,-141.04 844.62,-132 862.97,-120.99 877.49,-100.97 886.47,-86.05"/>
<polygon fill="#63b8ff" stroke="#63b8ff" points="889.37,-88.03 891.26,-77.6 883.28,-84.57 889.37,-88.03"/>
</a>
</g>
</g>
<!-- Node13 -->
<g id="Node000013" class="node">
<title>Node13</title>
<g id="a_Node000013"><a xlink:title=" ">
<polygon fill="#e0e0e0" stroke="#999999" points="916.62,-20 876.62,-20 876.62,0 916.62,0 916.62,-20"/>
<text xml:space="preserve" text-anchor="middle" x="896.62" y="-6.5" font-family="Helvetica,sans-Serif" font-size="10.00">bitset</text>
</a>
</g>
</g>
<!-- Node12&#45;&gt;Node13 -->
<g id="edge12_Node000012_Node000013" class="edge">
<title>Node12&#45;&gt;Node13</title>
<g id="a_edge12_Node000012_Node000013"><a xlink:title=" ">
<path fill="none" stroke="#63b8ff" d="M896.62,-55.59C896.62,-49.01 896.62,-39.96 896.62,-31.73"/>
<polygon fill="#63b8ff" stroke="#63b8ff" points="900.13,-31.81 896.63,-21.81 893.13,-31.81 900.13,-31.81"/>
</a>
</g>
</g>
<!-- Node14 -->
<g id="Node000014" class="node">
<title>Node14</title>
<g id="a_Node000014"><a xlink:title=" ">
<polygon fill="#e0e0e0" stroke="#999999" points="349.25,-20 304,-20 304,0 349.25,0 349.25,-20"/>
<text xml:space="preserve" text-anchor="middle" x="326.62" y="-6.5" font-family="Helvetica,sans-Serif" font-size="10.00">cstdint</text>
</a>
</g>
</g>
<!-- Node12&#45;&gt;Node14 -->
<g id="edge13_Node000012_Node000014" class="edge">
<title>Node12&#45;&gt;Node14</title>
<g id="a_edge13_Node000012_Node000014"><a xlink:title=" ">
<path fill="none" stroke="#63b8ff" d="M865.7,-57.6C862.64,-57 859.58,-56.46 856.62,-56 671.12,-27.39 446.09,-15.84 361.23,-12.3"/>
<polygon fill="#63b8ff" stroke="#63b8ff" points="361.39,-8.8 351.26,-11.9 361.11,-15.8 361.39,-8.8"/>
</a>
</g>
</g>
<!-- Node16&#45;&gt;Node6 -->
<g id="edge17_Node000016_Node000006" class="edge">
<title>Node16&#45;&gt;Node6</title>
<g id="a_edge17_Node000016_Node000006"><a xlink:title=" ">
<path fill="none" stroke="#63b8ff" d="M447.22,-229.62C418.9,-219.57 373.71,-203.53 341.81,-192.2"/>
<polygon fill="#63b8ff" stroke="#63b8ff" points="343.15,-188.96 332.55,-188.91 340.8,-195.56 343.15,-188.96"/>
</a>
</g>
</g>
<!-- Node16&#45;&gt;Node8 -->
<g id="edge19_Node000016_Node000008" class="edge">
<title>Node16&#45;&gt;Node8</title>
<g id="a_edge19_Node000016_Node000008"><a xlink:title=" ">
<path fill="none" stroke="#63b8ff" d="M475.75,-229.69C480.23,-208.61 489.71,-155.64 482.62,-112 481.27,-103.68 478.61,-94.82 475.89,-87.18"/>
<polygon fill="#63b8ff" stroke="#63b8ff" points="479.16,-85.92 472.3,-77.84 472.62,-88.43 479.16,-85.92"/>
</a>
</g>
</g>
<!-- Node16&#45;&gt;Node10 -->
<g id="edge18_Node000016_Node000010" class="edge">
<title>Node16&#45;&gt;Node10</title>
<g id="a_edge18_Node000016_Node000010"><a xlink:title=" ">
<path fill="none" stroke="#63b8ff" d="M480.34,-229.51C493.92,-210.29 524.87,-166.5 542.57,-141.47"/>
<polygon fill="#63b8ff" stroke="#63b8ff" points="545.26,-143.72 548.18,-133.54 539.55,-139.68 545.26,-143.72"/>
</a>
</g>
</g>
<!-- Node16&#45;&gt;Node12 -->
<g id="edge38_Node000016_Node000012" class="edge">
<title>Node16&#45;&gt;Node12</title>
<g id="a_edge38_Node000016_Node000012"><a xlink:title=" ">
<path fill="none" stroke="#63b8ff" d="M532.25,-236.65C625.17,-232.02 801.23,-219.3 854.62,-188 881.47,-172.27 886.79,-161.51 896.62,-132 901.44,-117.56 901.18,-100.29 899.86,-87.18"/>
<polygon fill="#63b8ff" stroke="#63b8ff" points="903.37,-87.07 898.59,-77.62 896.43,-87.99 903.37,-87.07"/>
</a>
</g>
</g>
<!-- Node17 -->
<g id="Node000017" class="node">
<title>Node17</title>
<g id="a_Node000017"><a xlink:title=" ">
<polygon fill="#e0e0e0" stroke="#999999" points="743.5,-188 687.75,-188 687.75,-168 743.5,-168 743.5,-188"/>
<text xml:space="preserve" text-anchor="middle" x="715.62" y="-174.5" font-family="Helvetica,sans-Serif" font-size="10.00">algorithm</text>
</a>
</g>
</g>
<!-- Node16&#45;&gt;Node17 -->
<g id="edge16_Node000016_Node000017" class="edge">
<title>Node16&#45;&gt;Node17</title>
<g id="a_edge16_Node000016_Node000017"><a xlink:title=" ">
<path fill="none" stroke="#63b8ff" d="M511.7,-229.56C556.64,-218.42 630.98,-199.99 676.41,-188.72"/>
<polygon fill="#63b8ff" stroke="#63b8ff" points="677.24,-192.12 686.11,-186.32 675.56,-185.33 677.24,-192.12"/>
</a>
</g>
</g>
<!-- Node18 -->
<g id="Node000018" class="node">
<title>Node18</title>
<g id="a_Node000018"><a xlink:href="Clock_8hpp.html" target="_top" xlink:title=" ">
<polygon fill="white" stroke="#666666" points="221.75,-132 161.5,-132 161.5,-112 221.75,-112 221.75,-132"/>
<text xml:space="preserve" text-anchor="middle" x="191.62" y="-118.5" font-family="Helvetica,sans-Serif" font-size="10.00">Clock.hpp</text>
</a>
</g>
</g>
<!-- Node16&#45;&gt;Node18 -->
<g id="edge20_Node000016_Node000018" class="edge">
<title>Node16&#45;&gt;Node18</title>
<g id="a_edge20_Node000016_Node000018"><a xlink:title=" ">
<path fill="none" stroke="#63b8ff" d="M457.2,-229.71C427.05,-212.74 363.85,-177.6 340.62,-168 305.3,-153.41 263.53,-141.2 233.22,-133.2"/>
<polygon fill="#63b8ff" stroke="#63b8ff" points="234.22,-129.85 223.66,-130.73 232.47,-136.62 234.22,-129.85"/>
</a>
</g>
</g>
<!-- Node19 -->
<g id="Node000019" class="node">
<title>Node19</title>
<g id="a_Node000019"><a xlink:href="ComponentRegistry_8hpp.html" target="_top" xlink:title=" ">
<polygon fill="white" stroke="#666666" points="835.12,-132 714.12,-132 714.12,-112 835.12,-112 835.12,-132"/>
<text xml:space="preserve" text-anchor="middle" x="774.62" y="-118.5" font-family="Helvetica,sans-Serif" font-size="10.00">ComponentRegistry.hpp</text>
</a>
</g>
</g>
<!-- Node16&#45;&gt;Node19 -->
<g id="edge22_Node000016_Node000019" class="edge">
<title>Node16&#45;&gt;Node19</title>
<g id="a_edge22_Node000016_Node000019"><a xlink:title=" ">
<path fill="none" stroke="#63b8ff" d="M532.19,-239.71C625.06,-239.46 799.62,-232.83 838.62,-188 854.38,-169.89 829.04,-150.44 805.75,-137.58"/>
<polygon fill="#63b8ff" stroke="#63b8ff" points="807.51,-134.55 797.03,-133.04 804.28,-140.76 807.51,-134.55"/>
</a>
</g>
</g>
<!-- Node22 -->
<g id="Node000022" class="node">
<title>Node22</title>
<g id="a_Node000022"><a xlink:href="EntityManager_8hpp.html" target="_top" xlink:title=" ">
<polygon fill="white" stroke="#666666" points="375.5,-132 277.75,-132 277.75,-112 375.5,-112 375.5,-132"/>
<text xml:space="preserve" text-anchor="middle" x="326.62" y="-118.5" font-family="Helvetica,sans-Serif" font-size="10.00">EntityManager.hpp</text>
</a>
</g>
</g>
<!-- Node16&#45;&gt;Node22 -->
<g id="edge28_Node000016_Node000022" class="edge">
<title>Node16&#45;&gt;Node22</title>
<g id="a_edge28_Node000016_Node000022"><a xlink:title=" ">
<path fill="none" stroke="#63b8ff" d="M461.6,-229.51C436.49,-209.7 378.27,-163.76 347.14,-139.19"/>
<polygon fill="#63b8ff" stroke="#63b8ff" points="349.62,-136.68 339.6,-133.24 345.28,-142.18 349.62,-136.68"/>
</a>
</g>
</g>
<!-- Node23 -->
<g id="Node000023" class="node">
<title>Node23</title>
<g id="a_Node000023"><a xlink:href="SparseSet_8hpp.html" target="_top" xlink:title=" ">
<polygon fill="white" stroke="#666666" points="473.88,-132 393.38,-132 393.38,-112 473.88,-112 473.88,-132"/>
<text xml:space="preserve" text-anchor="middle" x="433.62" y="-118.5" font-family="Helvetica,sans-Serif" font-size="10.00">SparseSet.hpp</text>
</a>
</g>
</g>
<!-- Node16&#45;&gt;Node23 -->
<g id="edge31_Node000016_Node000023" class="edge">
<title>Node16&#45;&gt;Node23</title>
<g id="a_edge31_Node000016_Node000023"><a xlink:title=" ">
<path fill="none" stroke="#63b8ff" d="M470.35,-229.51C463.87,-210.72 449.29,-168.44 440.58,-143.16"/>
<polygon fill="#63b8ff" stroke="#63b8ff" points="443.89,-142.04 437.33,-133.73 437.28,-144.33 443.89,-142.04"/>
</a>
</g>
</g>
<!-- Node16&#45;&gt;Node24 -->
<g id="edge33_Node000016_Node000024" class="edge">
<title>Node16&#45;&gt;Node24</title>
<g id="a_edge33_Node000016_Node000024"><a xlink:title=" ">
<path fill="none" stroke="#63b8ff" d="M527.71,-229.54C581.56,-220.02 666.86,-204.69 749.76,-188.53"/>
<polygon fill="#63b8ff" stroke="#63b8ff" points="750.28,-191.99 759.42,-186.64 748.94,-185.12 750.28,-191.99"/>
</a>
</g>
</g>
<!-- Node18&#45;&gt;Node14 -->
<g id="edge21_Node000018_Node000014" class="edge">
<title>Node18&#45;&gt;Node14</title>
<g id="a_edge21_Node000018_Node000014"><a xlink:title=" ">
<path fill="none" stroke="#63b8ff" d="M203.14,-111.62C226.05,-92.95 277.64,-50.92 306.36,-27.52"/>
<polygon fill="#63b8ff" stroke="#63b8ff" points="308.43,-30.34 313.97,-21.31 304.01,-24.91 308.43,-30.34"/>
</a>
</g>
</g>
<!-- Node19&#45;&gt;Node8 -->
<g id="edge26_Node000019_Node000008" class="edge">
<title>Node19&#45;&gt;Node8</title>
<g id="a_edge26_Node000019_Node000008"><a xlink:title=" ">
<path fill="none" stroke="#63b8ff" d="M720.8,-111.53C657.17,-100.34 553.28,-82.07 500.56,-72.79"/>
<polygon fill="#63b8ff" stroke="#63b8ff" points="501.46,-69.4 491,-71.11 500.24,-76.29 501.46,-69.4"/>
</a>
</g>
</g>
<!-- Node19&#45;&gt;Node11 -->
<g id="edge23_Node000019_Node000011" class="edge">
<title>Node19&#45;&gt;Node11</title>
<g id="a_edge23_Node000019_Node000011"><a xlink:title=" ">
<path fill="none" stroke="#63b8ff" d="M753.2,-111.59C733.65,-103.01 704.54,-90.23 682.48,-80.55"/>
<polygon fill="#63b8ff" stroke="#63b8ff" points="683.94,-77.36 673.37,-76.55 681.12,-83.77 683.94,-77.36"/>
</a>
</g>
</g>
<!-- Node19&#45;&gt;Node12 -->
<g id="edge27_Node000019_Node000012" class="edge">
<title>Node19&#45;&gt;Node12</title>
<g id="a_edge27_Node000019_Node000012"><a xlink:title=" ">
<path fill="none" stroke="#63b8ff" d="M795.88,-111.59C814.91,-103.17 843.1,-90.69 864.83,-81.07"/>
<polygon fill="#63b8ff" stroke="#63b8ff" points="866.1,-84.34 873.82,-77.09 863.26,-77.94 866.1,-84.34"/>
</a>
</g>
</g>
<!-- Node20 -->
<g id="Node000020" class="node">
<title>Node20</title>
<g id="a_Node000020"><a xlink:title=" ">
<polygon fill="#e0e0e0" stroke="#999999" points="747.62,-76 689.62,-76 689.62,-56 747.62,-56 747.62,-76"/>
<text xml:space="preserve" text-anchor="middle" x="718.62" y="-62.5" font-family="Helvetica,sans-Serif" font-size="10.00">typeindex</text>
</a>
</g>
</g>
<!-- Node19&#45;&gt;Node20 -->
<g id="edge24_Node000019_Node000020" class="edge">
<title>Node19&#45;&gt;Node20</title>
<g id="a_edge24_Node000019_Node000020"><a xlink:title=" ">
<path fill="none" stroke="#63b8ff" d="M764.87,-111.59C757,-104.01 745.73,-93.13 736.28,-84.02"/>
<polygon fill="#63b8ff" stroke="#63b8ff" points="738.99,-81.77 729.36,-77.35 734.13,-86.81 738.99,-81.77"/>
</a>
</g>
</g>
<!-- Node21 -->
<g id="Node000021" class="node">
<title>Node21</title>
<g id="a_Node000021"><a xlink:title=" ">
<polygon fill="#e0e0e0" stroke="#999999" points="848,-76 765.25,-76 765.25,-56 848,-56 848,-76"/>
<text xml:space="preserve" text-anchor="middle" x="806.62" y="-62.5" font-family="Helvetica,sans-Serif" font-size="10.00">unordered_map</text>
</a>
</g>
</g>
<!-- Node19&#45;&gt;Node21 -->
<g id="edge25_Node000019_Node000021" class="edge">
<title>Node19&#45;&gt;Node21</title>
<g id="a_edge25_Node000019_Node000021"><a xlink:title=" ">
<path fill="none" stroke="#63b8ff" d="M780.2,-111.59C784.37,-104.55 790.23,-94.67 795.37,-86"/>
<polygon fill="#63b8ff" stroke="#63b8ff" points="798.26,-87.99 800.34,-77.6 792.23,-84.42 798.26,-87.99"/>
</a>
</g>
</g>
<!-- Node22&#45;&gt;Node8 -->
<g id="edge30_Node000022_Node000008" class="edge">
<title>Node22&#45;&gt;Node8</title>
<g id="a_edge30_Node000022_Node000008"><a xlink:title=" ">
<path fill="none" stroke="#63b8ff" d="M351.19,-111.59C374.42,-102.7 409.43,-89.29 435,-79.49"/>
<polygon fill="#63b8ff" stroke="#63b8ff" points="436.16,-82.8 444.25,-75.95 433.66,-76.26 436.16,-82.8"/>
</a>
</g>
</g>
<!-- Node22&#45;&gt;Node14 -->
<g id="edge29_Node000022_Node000014" class="edge">
<title>Node22&#45;&gt;Node14</title>
<g id="a_edge29_Node000022_Node000014"><a xlink:title=" ">
<path fill="none" stroke="#63b8ff" d="M326.62,-111.62C326.62,-94.01 326.62,-55.59 326.62,-31.65"/>
<polygon fill="#63b8ff" stroke="#63b8ff" points="330.13,-31.87 326.63,-21.87 323.13,-31.87 330.13,-31.87"/>
</a>
</g>
</g>
<!-- Node23&#45;&gt;Node8 -->
<g id="edge32_Node000023_Node000008" class="edge">
<title>Node23&#45;&gt;Node8</title>
<g id="a_edge32_Node000023_Node000008"><a xlink:title=" ">
<path fill="none" stroke="#63b8ff" d="M439.55,-111.59C443.98,-104.55 450.2,-94.67 455.66,-86"/>
<polygon fill="#63b8ff" stroke="#63b8ff" points="458.6,-87.91 460.96,-77.58 452.67,-84.18 458.6,-87.91"/>
</a>
</g>
</g>
<!-- Node24&#45;&gt;Node8 -->
<g id="edge35_Node000024_Node000008" class="edge">
<title>Node24&#45;&gt;Node8</title>
<g id="a_edge35_Node000024_Node000008"><a xlink:title=" ">
<path fill="none" stroke="#63b8ff" d="M767.38,-167.53C706.69,-147.17 564.17,-99.38 499.98,-77.85"/>
<polygon fill="#63b8ff" stroke="#63b8ff" points="501.32,-74.61 490.73,-74.75 499.1,-81.25 501.32,-74.61"/>
</a>
</g>
</g>
<!-- Node24&#45;&gt;Node11 -->
<g id="edge34_Node000024_Node000011" class="edge">
<title>Node24&#45;&gt;Node11</title>
<g id="a_edge34_Node000024_Node000011"><a xlink:title=" ">
<path fill="none" stroke="#63b8ff" d="M769.94,-167.51C750.99,-159.75 725.2,-147.52 705.62,-132 688.98,-118.79 673.88,-99.72 663.91,-85.65"/>
<polygon fill="#63b8ff" stroke="#63b8ff" points="667,-83.97 658.46,-77.69 661.22,-87.92 667,-83.97"/>
</a>
</g>
</g>
<!-- Node24&#45;&gt;Node12 -->
<g id="edge37_Node000024_Node000012" class="edge">
<title>Node24&#45;&gt;Node12</title>
<g id="a_edge37_Node000024_Node000012"><a xlink:title=" ">
<path fill="none" stroke="#63b8ff" d="M824.46,-167.64C842.17,-160.5 864,-148.97 877.62,-132 887.77,-119.37 892.5,-101.5 894.7,-87.69"/>
<polygon fill="#63b8ff" stroke="#63b8ff" points="898.16,-88.28 895.91,-77.92 891.21,-87.42 898.16,-88.28"/>
</a>
</g>
</g>
<!-- Node24&#45;&gt;Node19 -->
<g id="edge36_Node000024_Node000019" class="edge">
<title>Node24&#45;&gt;Node19</title>
<g id="a_edge36_Node000024_Node000019"><a xlink:title=" ">
<path fill="none" stroke="#63b8ff" d="M791.97,-167.59C789.32,-160.78 785.64,-151.32 782.35,-142.86"/>
<polygon fill="#63b8ff" stroke="#63b8ff" points="785.68,-141.76 778.79,-133.71 779.15,-144.3 785.68,-141.76"/>
</a>
</g>
</g>
</g>
</svg>
