<?xml version="1.0" encoding="UTF-8" standalone="no"?>
<!DOCTYPE svg PUBLIC "-//W3C//DTD SVG 1.1//EN"
 "http://www.w3.org/Graphics/SVG/1.1/DTD/svg11.dtd">
<!-- Generated by graphviz version 14.0.2 (0)
 -->
<!-- Title: components/audio/src/Audio.hpp Pages: 1 -->
<svg width="230pt" height="208pt"
 viewBox="0.00 0.00 230.00 208.00" xmlns="http://www.w3.org/2000/svg" xmlns:xlink="http://www.w3.org/1999/xlink">
<g id="graph0" class="graph" transform="scale(1 1) rotate(0) translate(4 204)">
<title>components/audio/src/Audio.hpp</title>
<!-- Node1 -->
<g id="Node000001" class="node">
<title>Node1</title>
<g id="a_Node000001"><a xlink:title=" ">
<polygon fill="#999999" stroke="#666666" points="112,-200 0,-200 0,-168 112,-168 112,-200"/>
<text xml:space="preserve" text-anchor="start" x="8" y="-186.5" font-family="Helvetica,sans-Serif" font-size="10.00">components/audio/src</text>
<text xml:space="preserve" text-anchor="middle" x="56" y="-174.5" font-family="Helvetica,sans-Serif" font-size="10.00">/Audio.hpp</text>
</a>
</g>
</g>
<!-- Node2 -->
<g id="Node000002" class="node">
<title>Node2</title>
<g id="a_Node000002"><a xlink:title=" ">
<polygon fill="#e0e0e0" stroke="#999999" points="44,-76 4,-76 4,-56 44,-56 44,-76"/>
<text xml:space="preserve" text-anchor="middle" x="24" y="-62.5" font-family="Helvetica,sans-Serif" font-size="10.00">string</text>
</a>
</g>
</g>
<!-- Node1&#45;&gt;Node2 -->
<g id="edge1_Node000001_Node000002" class="edge">
<title>Node1&#45;&gt;Node2</title>
<g id="a_edge1_Node000001_Node000002"><a xlink:title=" ">
<path fill="none" stroke="#63b8ff" d="M45.72,-167.64C39.74,-157.86 32.68,-144.7 29,-132 24.84,-117.65 23.65,-100.82 23.46,-87.88"/>
<polygon fill="#63b8ff" stroke="#63b8ff" points="26.96,-88.01 23.53,-77.98 19.96,-87.96 26.96,-88.01"/>
</a>
</g>
</g>
<!-- Node3 -->
<g id="Node000003" class="node">
<title>Node3</title>
<g id="a_Node000003"><a xlink:href="Component_8hpp.html" target="_top" xlink:title=" ">
<polygon fill="white" stroke="#666666" points="168.38,-132 37.62,-132 37.62,-112 168.38,-112 168.38,-132"/>
<text xml:space="preserve" text-anchor="middle" x="103" y="-118.5" font-family="Helvetica,sans-Serif" font-size="10.00">../../../ecs/Component.hpp</text>
</a>
</g>
</g>
<!-- Node1&#45;&gt;Node3 -->
<g id="edge2_Node000001_Node000003" class="edge">
<title>Node1&#45;&gt;Node3</title>
<g id="a_edge2_Node000001_Node000003"><a xlink:title=" ">
<path fill="none" stroke="#63b8ff" d="M68.1,-167.55C74.36,-159.56 82.04,-149.76 88.6,-141.39"/>
<polygon fill="#63b8ff" stroke="#63b8ff" points="91.29,-143.63 94.7,-133.6 85.78,-139.31 91.29,-143.63"/>
</a>
</g>
</g>
<!-- Node3&#45;&gt;Node2 -->
<g id="edge4_Node000003_Node000002" class="edge">
<title>Node3&#45;&gt;Node2</title>
<g id="a_edge4_Node000003_Node000002"><a xlink:title=" ">
<path fill="none" stroke="#63b8ff" d="M89.24,-111.59C77.64,-103.67 60.8,-92.16 47.14,-82.82"/>
<polygon fill="#63b8ff" stroke="#63b8ff" points="49.35,-80.09 39.12,-77.33 45.4,-85.87 49.35,-80.09"/>
</a>
</g>
</g>
<!-- Node4 -->
<g id="Node000004" class="node">
<title>Node4</title>
<g id="a_Node000004"><a xlink:title=" ">
<polygon fill="#e0e0e0" stroke="#999999" points="120.62,-76 69.38,-76 69.38,-56 120.62,-56 120.62,-76"/>
<text xml:space="preserve" text-anchor="middle" x="95" y="-62.5" font-family="Helvetica,sans-Serif" font-size="10.00">memory</text>
</a>
</g>
</g>
<!-- Node3&#45;&gt;Node4 -->
<g id="edge3_Node000003_Node000004" class="edge">
<title>Node3&#45;&gt;Node4</title>
<g id="a_edge3_Node000003_Node000004"><a xlink:title=" ">
<path fill="none" stroke="#63b8ff" d="M101.61,-111.59C100.62,-104.93 99.26,-95.75 98.03,-87.44"/>
<polygon fill="#63b8ff" stroke="#63b8ff" points="101.53,-87.17 96.6,-77.8 94.6,-88.2 101.53,-87.17"/>
</a>
</g>
</g>
<!-- Node5 -->
<g id="Node000005" class="node">
<title>Node5</title>
<g id="a_Node000005"><a xlink:href="Types_8hpp.html" target="_top" xlink:title="Core type definitions used throughout the ECS (Entity Component System).">
<polygon fill="white" stroke="#666666" points="199.5,-76 138.5,-76 138.5,-56 199.5,-56 199.5,-76"/>
<text xml:space="preserve" text-anchor="middle" x="169" y="-62.5" font-family="Helvetica,sans-Serif" font-size="10.00">Types.hpp</text>
</a>
</g>
</g>
<!-- Node3&#45;&gt;Node5 -->
<g id="edge5_Node000003_Node000005" class="edge">
<title>Node3&#45;&gt;Node5</title>
<g id="a_edge5_Node000003_Node000005"><a xlink:title=" ">
<path fill="none" stroke="#63b8ff" d="M114.5,-111.59C123.96,-103.85 137.6,-92.69 148.87,-83.47"/>
<polygon fill="#63b8ff" stroke="#63b8ff" points="150.94,-86.3 156.46,-77.26 146.51,-80.88 150.94,-86.3"/>
</a>
</g>
</g>
<!-- Node6 -->
<g id="Node000006" class="node">
<title>Node6</title>
<g id="a_Node000006"><a xlink:title=" ">
<polygon fill="#e0e0e0" stroke="#999999" points="158,-20 118,-20 118,0 158,0 158,-20"/>
<text xml:space="preserve" text-anchor="middle" x="138" y="-6.5" font-family="Helvetica,sans-Serif" font-size="10.00">bitset</text>
</a>
</g>
</g>
<!-- Node5&#45;&gt;Node6 -->
<g id="edge6_Node000005_Node000006" class="edge">
<title>Node5&#45;&gt;Node6</title>
<g id="a_edge6_Node000005_Node000006"><a xlink:title=" ">
<path fill="none" stroke="#63b8ff" d="M163.6,-55.59C159.56,-48.55 153.88,-38.67 148.91,-30"/>
<polygon fill="#63b8ff" stroke="#63b8ff" points="152.11,-28.54 144.09,-21.61 146.03,-32.03 152.11,-28.54"/>
</a>
</g>
</g>
<!-- Node7 -->
<g id="Node000007" class="node">
<title>Node7</title>
<g id="a_Node000007"><a xlink:title=" ">
<polygon fill="#e0e0e0" stroke="#999999" points="221.62,-20 176.38,-20 176.38,0 221.62,0 221.62,-20"/>
<text xml:space="preserve" text-anchor="middle" x="199" y="-6.5" font-family="Helvetica,sans-Serif" font-size="10.00">cstdint</text>
</a>
</g>
</g>
<!-- Node5&#45;&gt;Node7 -->
<g id="edge7_Node000005_Node000007" class="edge">
<title>Node5&#45;&gt;Node7</title>
<g id="a_edge7_Node000005_Node000007"><a xlink:title=" ">
<path fill="none" stroke="#63b8ff" d="M174.23,-55.59C178.1,-48.63 183.51,-38.89 188.28,-30.29"/>
<polygon fill="#63b8ff" stroke="#63b8ff" points="191.3,-32.06 193.1,-21.62 185.18,-28.66 191.3,-32.06"/>
</a>
</g>
</g>
</g>
</svg>
