<?xml version="1.0" encoding="UTF-8" standalone="no"?>
<!DOCTYPE svg PUBLIC "-//W3C//DTD SVG 1.1//EN"
 "http://www.w3.org/Graphics/SVG/1.1/DTD/svg11.dtd">
<!-- Generated by graphviz version 14.0.1 (0)
 -->
<!-- Title: Registry::addSystem Pages: 1 -->
<svg width="321pt" height="66pt"
 viewBox="0.00 0.00 321.00 66.00" xmlns="http://www.w3.org/2000/svg" xmlns:xlink="http://www.w3.org/1999/xlink">
<g id="graph0" class="graph" transform="scale(1 1) rotate(0) translate(4 62)">
<title>Registry::addSystem</title>
<!-- Node1 -->
<g id="Node000001" class="node">
<title>Node1</title>
<g id="a_Node000001"><a xlink:title="Adds a system of type SystemType to the registry.">
<polygon fill="#999999" stroke="#666666" points="108.25,-39 0,-39 0,-19 108.25,-19 108.25,-39"/>
<text xml:space="preserve" text-anchor="middle" x="54.12" y="-25.5" font-family="Helvetica,sans-Serif" font-size="10.00">Registry::addSystem</text>
</a>
</g>
</g>
<!-- Node2 -->
<g id="Node000002" class="node">
<title>Node2</title>
<g id="a_Node000002"><a xlink:href="classRegistry.html#ae90736c3327063202e3e04ff5860cb36" target="_top" xlink:title="Sorts systems by priority (ascending order).">
<polygon fill="white" stroke="#666666" points="285.88,-58 171.62,-58 171.62,-38 285.88,-38 285.88,-58"/>
<text xml:space="preserve" text-anchor="middle" x="228.75" y="-44.5" font-family="Helvetica,sans-Serif" font-size="10.00">Registry::sortSystems</text>
</a>
</g>
</g>
<!-- Node1&#45;&gt;Node2 -->
<g id="edge1_Node000001_Node000002" class="edge">
<title>Node1&#45;&gt;Node2</title>
<g id="a_edge1_Node000001_Node000002"><a xlink:title=" ">
<path fill="none" stroke="#63b8ff" d="M108.33,-34.86C124.66,-36.65 142.86,-38.66 160.03,-40.55"/>
<polygon fill="#63b8ff" stroke="#63b8ff" points="159.3,-43.99 169.63,-41.6 160.07,-37.03 159.3,-43.99"/>
</a>
</g>
</g>
<!-- Node3 -->
<g id="Node000003" class="node">
<title>Node3</title>
<g id="a_Node000003"><a xlink:href="classRegistry.html#a45f5c5548ea374a04a46308b2e1c5455" target="_top" xlink:title="Updates which systems are active based on available component types.">
<polygon fill="white" stroke="#666666" points="313.25,-20 144.25,-20 144.25,0 313.25,0 313.25,-20"/>
<text xml:space="preserve" text-anchor="middle" x="228.75" y="-6.5" font-family="Helvetica,sans-Serif" font-size="10.00">Registry::updateSystemAvailability</text>
</a>
</g>
</g>
<!-- Node1&#45;&gt;Node3 -->
<g id="edge2_Node000001_Node000003" class="edge">
<title>Node1&#45;&gt;Node3</title>
<g id="a_edge2_Node000001_Node000003"><a xlink:title=" ">
<path fill="none" stroke="#63b8ff" d="M108.33,-23.14C116.09,-22.29 124.28,-21.39 132.57,-20.48"/>
<polygon fill="#63b8ff" stroke="#63b8ff" points="132.86,-23.96 142.42,-19.39 132.1,-17.01 132.86,-23.96"/>
</a>
</g>
</g>
</g>
</svg>
