<?xml version="1.0" encoding="UTF-8" standalone="no"?>
<!DOCTYPE svg PUBLIC "-//W3C//DTD SVG 1.1//EN"
 "http://www.w3.org/Graphics/SVG/1.1/DTD/svg11.dtd">
<!-- Generated by graphviz version 14.0.1 (0)
 -->
<!-- Title: Registry::each Pages: 1 -->
<svg width="265pt" height="90pt"
 viewBox="0.00 0.00 265.00 90.00" xmlns="http://www.w3.org/2000/svg" xmlns:xlink="http://www.w3.org/1999/xlink">
<g id="graph0" class="graph" transform="scale(1 1) rotate(0) translate(4 86)">
<title>Registry::each</title>
<!-- Node1 -->
<g id="Node000001" class="node">
<title>Node1</title>
<g id="a_Node000001"><a xlink:title="Iterates through all entities that have all the specified components.">
<polygon fill="#999999" stroke="#666666" points="257,-51 177.25,-51 177.25,-31 257,-31 257,-51"/>
<text xml:space="preserve" text-anchor="middle" x="217.12" y="-37.5" font-family="Helvetica,sans-Serif" font-size="10.00">Registry::each</text>
</a>
</g>
</g>
<!-- Node2 -->
<g id="Node000002" class="node">
<title>Node2</title>
<g id="a_Node000002"><a xlink:href="classGameEngine_1_1InputHandlerSystem.html#a56d9f3bab8680fee7d15423028e046b9" target="_top" xlink:title=" ">
<polygon fill="white" stroke="#666666" points="137.5,-82 3.75,-82 3.75,-50 137.5,-50 137.5,-82"/>
<text xml:space="preserve" text-anchor="start" x="11.75" y="-68.5" font-family="Helvetica,sans-Serif" font-size="10.00">GameEngine::InputHandler</text>
<text xml:space="preserve" text-anchor="middle" x="70.62" y="-56.5" font-family="Helvetica,sans-Serif" font-size="10.00">System::onUpdate</text>
</a>
</g>
</g>
<!-- Node1&#45;&gt;Node2 -->
<g id="edge1_Node000001_Node000002" class="edge">
<title>Node1&#45;&gt;Node2</title>
<g id="a_edge1_Node000001_Node000002"><a xlink:title=" ">
<path fill="none" stroke="#63b8ff" d="M165.86,-49.7C156.79,-51.27 147.21,-52.92 137.77,-54.56"/>
<polygon fill="#63b8ff" stroke="#63b8ff" points="166.27,-53.18 175.53,-48.02 165.08,-46.28 166.27,-53.18"/>
</a>
</g>
</g>
<!-- Node3 -->
<g id="Node000003" class="node">
<title>Node3</title>
<g id="a_Node000003"><a xlink:href="classGameEngine_1_1MotionSystem.html#a5c82b0f76ecf7fdef391014a16bd06fb" target="_top" xlink:title=" ">
<polygon fill="white" stroke="#666666" points="141.25,-32 0,-32 0,0 141.25,0 141.25,-32"/>
<text xml:space="preserve" text-anchor="start" x="8" y="-18.5" font-family="Helvetica,sans-Serif" font-size="10.00">GameEngine::MotionSystem</text>
<text xml:space="preserve" text-anchor="middle" x="70.62" y="-6.5" font-family="Helvetica,sans-Serif" font-size="10.00">::onUpdate</text>
</a>
</g>
</g>
<!-- Node1&#45;&gt;Node3 -->
<g id="edge2_Node000001_Node000003" class="edge">
<title>Node1&#45;&gt;Node3</title>
<g id="a_edge2_Node000001_Node000003"><a xlink:title=" ">
<path fill="none" stroke="#63b8ff" d="M165.87,-32.31C158.04,-30.95 149.84,-29.53 141.66,-28.12"/>
<polygon fill="#63b8ff" stroke="#63b8ff" points="165.08,-35.72 175.53,-33.98 166.27,-28.82 165.08,-35.72"/>
</a>
</g>
</g>
</g>
</svg>
