<?xml version="1.0" encoding="UTF-8" standalone="no"?>
<!DOCTYPE svg PUBLIC "-//W3C//DTD SVG 1.1//EN"
 "http://www.w3.org/Graphics/SVG/1.1/DTD/svg11.dtd">
<!-- Generated by graphviz version 14.0.1 (0)
 -->
<!-- Title: ComponentRegistry::ComponentRegistry Pages: 1 -->
<svg width="793pt" height="394pt"
 viewBox="0.00 0.00 793.00 394.00" xmlns="http://www.w3.org/2000/svg" xmlns:xlink="http://www.w3.org/1999/xlink">
<g id="graph0" class="graph" transform="scale(1 1) rotate(0) translate(4 390)">
<title>ComponentRegistry::ComponentRegistry</title>
<!-- Node1 -->
<g id="Node000001" class="node">
<title>Node1</title>
<g id="a_Node000001"><a xlink:title="Private constructor for singleton pattern. Initializes internal containers with reserved capacity.">
<polygon fill="#999999" stroke="#666666" points="785,-209 676,-209 676,-177 785,-177 785,-209"/>
<text xml:space="preserve" text-anchor="start" x="684" y="-195.5" font-family="Helvetica,sans-Serif" font-size="10.00">ComponentRegistry::</text>
<text xml:space="preserve" text-anchor="middle" x="730.5" y="-183.5" font-family="Helvetica,sans-Serif" font-size="10.00">ComponentRegistry</text>
</a>
</g>
</g>
<!-- Node2 -->
<g id="Node000002" class="node">
<title>Node2</title>
<g id="a_Node000002"><a xlink:href="classComponentRegistry.html#a18cad5dda10f4bb28fb6933f5aa85fce" target="_top" xlink:title="Provides access to the global ComponentRegistry instance.">
<polygon fill="white" stroke="#666666" points="640,-209 531,-209 531,-177 640,-177 640,-209"/>
<text xml:space="preserve" text-anchor="start" x="539" y="-195.5" font-family="Helvetica,sans-Serif" font-size="10.00">ComponentRegistry::</text>
<text xml:space="preserve" text-anchor="middle" x="585.5" y="-183.5" font-family="Helvetica,sans-Serif" font-size="10.00">instance</text>
</a>
</g>
</g>
<!-- Node1&#45;&gt;Node2 -->
<g id="edge1_Node000001_Node000002" class="edge">
<title>Node1&#45;&gt;Node2</title>
<g id="a_edge1_Node000001_Node000002"><a xlink:title=" ">
<path fill="none" stroke="#63b8ff" d="M664.56,-193C656.5,-193 648.33,-193 640.46,-193"/>
<polygon fill="#63b8ff" stroke="#63b8ff" points="664.33,-196.5 674.33,-193 664.33,-189.5 664.33,-196.5"/>
</a>
</g>
</g>
<!-- Node3 -->
<g id="Node000003" class="node">
<title>Node3</title>
<g id="a_Node000003"><a xlink:href="classRegistry.html#a7a17141d6ad949dbc4792cb638665226" target="_top" xlink:title="Counts how many components of type Component currently exist.">
<polygon fill="white" stroke="#666666" points="466.12,-374 383.38,-374 383.38,-354 466.12,-354 466.12,-374"/>
<text xml:space="preserve" text-anchor="middle" x="424.75" y="-360.5" font-family="Helvetica,sans-Serif" font-size="10.00">Registry::count</text>
</a>
</g>
</g>
<!-- Node2&#45;&gt;Node3 -->
<g id="edge2_Node000002_Node000003" class="edge">
<title>Node2&#45;&gt;Node3</title>
<g id="a_edge2_Node000002_Node000003"><a xlink:title=" ">
<path fill="none" stroke="#63b8ff" d="M575.92,-219.65C563.54,-253.83 537.39,-312.56 495,-345 486.78,-351.29 476.61,-355.5 466.62,-358.31"/>
<polygon fill="#63b8ff" stroke="#63b8ff" points="579.13,-221.1 579.1,-210.5 572.51,-218.8 579.13,-221.1"/>
</a>
</g>
</g>
<!-- Node4 -->
<g id="Node000004" class="node">
<title>Node4</title>
<g id="a_Node000004"><a xlink:href="classRegistry.html#a31cfb49fd633086383bf646b39a8daa2" target="_top" xlink:title="Iterates through all entities that have all the specified components.">
<polygon fill="white" stroke="#666666" points="287.75,-260 208,-260 208,-240 287.75,-240 287.75,-260"/>
<text xml:space="preserve" text-anchor="middle" x="247.88" y="-246.5" font-family="Helvetica,sans-Serif" font-size="10.00">Registry::each</text>
</a>
</g>
</g>
<!-- Node2&#45;&gt;Node4 -->
<g id="edge3_Node000002_Node000004" class="edge">
<title>Node2&#45;&gt;Node4</title>
<g id="a_edge3_Node000002_Node000004"><a xlink:title=" ">
<path fill="none" stroke="#63b8ff" d="M519.62,-210.6C511.37,-212.56 503.01,-214.42 495,-216 422.42,-230.29 336.62,-240.69 287.9,-246"/>
<polygon fill="#63b8ff" stroke="#63b8ff" points="520.42,-214.01 529.3,-208.23 518.76,-207.21 520.42,-214.01"/>
</a>
</g>
</g>
<!-- Node7 -->
<g id="Node000007" class="node">
<title>Node7</title>
<g id="a_Node000007"><a xlink:href="classRegistry.html#ab12b0e856e109cd94af4aeb5e969de24" target="_top" xlink:title="Adds a new component of type Component to entity e.">
<polygon fill="white" stroke="#666666" points="295.62,-222 200.12,-222 200.12,-202 295.62,-202 295.62,-222"/>
<text xml:space="preserve" text-anchor="middle" x="247.88" y="-208.5" font-family="Helvetica,sans-Serif" font-size="10.00">Registry::emplace</text>
</a>
</g>
</g>
<!-- Node2&#45;&gt;Node7 -->
<g id="edge6_Node000002_Node000007" class="edge">
<title>Node2&#45;&gt;Node7</title>
<g id="a_edge6_Node000002_Node000007"><a xlink:title=" ">
<path fill="none" stroke="#63b8ff" d="M519.14,-196.7C453.54,-200.41 354.09,-206.04 295.89,-209.34"/>
<polygon fill="#63b8ff" stroke="#63b8ff" points="519.28,-200.2 529.06,-196.14 518.88,-193.21 519.28,-200.2"/>
</a>
</g>
</g>
<!-- Node8 -->
<g id="Node000008" class="node">
<title>Node8</title>
<g id="a_Node000008"><a xlink:href="classRegistry.html#a11f1e4d7d7ef1a84640adddf32c1f862" target="_top" xlink:title="Gets a reference to a component of type Component for entity e.">
<polygon fill="white" stroke="#666666" points="460.88,-336 388.62,-336 388.62,-316 460.88,-316 460.88,-336"/>
<text xml:space="preserve" text-anchor="middle" x="424.75" y="-322.5" font-family="Helvetica,sans-Serif" font-size="10.00">Registry::get</text>
</a>
</g>
</g>
<!-- Node2&#45;&gt;Node8 -->
<g id="edge8_Node000002_Node000008" class="edge">
<title>Node2&#45;&gt;Node8</title>
<g id="a_edge8_Node000002_Node000008"><a xlink:title=" ">
<path fill="none" stroke="#63b8ff" d="M570.57,-219.26C555.39,-245.35 528.71,-284.6 495,-307 484.93,-313.69 472.55,-318.04 461.05,-320.86"/>
<polygon fill="#63b8ff" stroke="#63b8ff" points="573.57,-221.06 575.43,-210.62 567.47,-217.62 573.57,-221.06"/>
</a>
</g>
</g>
<!-- Node10 -->
<g id="Node000010" class="node">
<title>Node10</title>
<g id="a_Node000010"><a xlink:href="classRegistry.html#ac846fa6831fe9b792391b36fa8572d1d" target="_top" xlink:title="Const version of get().">
<polygon fill="white" stroke="#666666" points="460.88,-184 388.62,-184 388.62,-164 460.88,-164 460.88,-184"/>
<text xml:space="preserve" text-anchor="middle" x="424.75" y="-170.5" font-family="Helvetica,sans-Serif" font-size="10.00">Registry::get</text>
</a>
</g>
</g>
<!-- Node2&#45;&gt;Node10 -->
<g id="edge14_Node000002_Node000010" class="edge">
<title>Node2&#45;&gt;Node10</title>
<g id="a_edge14_Node000002_Node000010"><a xlink:title=" ">
<path fill="none" stroke="#63b8ff" d="M519.48,-185.22C499.47,-182.82 478.19,-180.28 460.98,-178.22"/>
<polygon fill="#63b8ff" stroke="#63b8ff" points="518.91,-188.67 529.25,-186.39 519.74,-181.72 518.91,-188.67"/>
</a>
</g>
</g>
<!-- Node11 -->
<g id="Node000011" class="node">
<title>Node11</title>
<g id="a_Node000011"><a xlink:href="classRegistry.html#acac1f1c8a740cfeb2b33a32cfd6ad83f" target="_top" xlink:title="Checks if entity e has a component of type Component.">
<polygon fill="white" stroke="#666666" points="462,-298 387.5,-298 387.5,-278 462,-278 462,-298"/>
<text xml:space="preserve" text-anchor="middle" x="424.75" y="-284.5" font-family="Helvetica,sans-Serif" font-size="10.00">Registry::has</text>
</a>
</g>
</g>
<!-- Node2&#45;&gt;Node11 -->
<g id="edge15_Node000002_Node000011" class="edge">
<title>Node2&#45;&gt;Node11</title>
<g id="a_edge15_Node000002_Node000011"><a xlink:title=" ">
<path fill="none" stroke="#63b8ff" d="M559.3,-216.82C542.22,-231.96 518.54,-251.08 495,-264 484.85,-269.57 473.17,-274.22 462.32,-277.89"/>
<polygon fill="#63b8ff" stroke="#63b8ff" points="561.4,-219.64 566.47,-210.33 556.71,-214.44 561.4,-219.64"/>
</a>
</g>
</g>
<!-- Node12 -->
<g id="Node000012" class="node">
<title>Node12</title>
<g id="a_Node000012"><a xlink:href="classRegistry.html#a629e3280396e2e8cc06434895e746639" target="_top" xlink:title="Removes a component of type Component from entity e.">
<polygon fill="white" stroke="#666666" points="470.25,-146 379.25,-146 379.25,-126 470.25,-126 470.25,-146"/>
<text xml:space="preserve" text-anchor="middle" x="424.75" y="-132.5" font-family="Helvetica,sans-Serif" font-size="10.00">Registry::remove</text>
</a>
</g>
</g>
<!-- Node2&#45;&gt;Node12 -->
<g id="edge17_Node000002_Node000012" class="edge">
<title>Node2&#45;&gt;Node12</title>
<g id="a_edge17_Node000002_Node000012"><a xlink:title=" ">
<path fill="none" stroke="#63b8ff" d="M538.53,-172.09C524.69,-166.17 509.36,-159.99 495,-155 486.17,-151.93 476.57,-149.03 467.41,-146.46"/>
<polygon fill="#63b8ff" stroke="#63b8ff" points="536.83,-175.17 547.4,-175.94 539.62,-168.75 536.83,-175.17"/>
</a>
</g>
</g>
<!-- Node13 -->
<g id="Node000013" class="node">
<title>Node13</title>
<g id="a_Node000013"><a xlink:href="classSystem.html#ab96f7a0f109eac8621f869efcf40a916" target="_top" xlink:title="Declares which components this system requires.">
<polygon fill="white" stroke="#666666" points="495,-108 354.5,-108 354.5,-88 495,-88 495,-108"/>
<text xml:space="preserve" text-anchor="middle" x="424.75" y="-94.5" font-family="Helvetica,sans-Serif" font-size="10.00">System::requireComponents</text>
</a>
</g>
</g>
<!-- Node2&#45;&gt;Node13 -->
<g id="edge18_Node000002_Node000013" class="edge">
<title>Node2&#45;&gt;Node13</title>
<g id="a_edge18_Node000002_Node000013"><a xlink:title=" ">
<path fill="none" stroke="#63b8ff" d="M561.91,-168.87C544.96,-152.1 520.4,-130.42 495,-117 488.61,-113.62 481.55,-110.8 474.47,-108.46"/>
<polygon fill="#63b8ff" stroke="#63b8ff" points="559.01,-170.92 568.52,-175.58 563.99,-166 559.01,-170.92"/>
</a>
</g>
</g>
<!-- Node14 -->
<g id="Node000014" class="node">
<title>Node14</title>
<g id="a_Node000014"><a xlink:href="classSystem.html#a3debf9a0bb97844f19da1c818d4dd3e3" target="_top" xlink:title="Declares required components using their names as strings.">
<polygon fill="white" stroke="#666666" points="495,-70 354.5,-70 354.5,-38 495,-38 495,-70"/>
<text xml:space="preserve" text-anchor="start" x="362.5" y="-56.5" font-family="Helvetica,sans-Serif" font-size="10.00">System::requireComponents</text>
<text xml:space="preserve" text-anchor="middle" x="424.75" y="-44.5" font-family="Helvetica,sans-Serif" font-size="10.00">ByName</text>
</a>
</g>
</g>
<!-- Node2&#45;&gt;Node14 -->
<g id="edge19_Node000002_Node000014" class="edge">
<title>Node2&#45;&gt;Node14</title>
<g id="a_edge19_Node000002_Node000014"><a xlink:title=" ">
<path fill="none" stroke="#63b8ff" d="M569.94,-166.86C554.42,-141.2 527.62,-102.58 495,-79 490.55,-75.78 485.63,-72.94 480.54,-70.43"/>
<polygon fill="#63b8ff" stroke="#63b8ff" points="566.84,-168.5 574.93,-175.35 572.88,-164.96 566.84,-168.5"/>
</a>
</g>
</g>
<!-- Node15 -->
<g id="Node000015" class="node">
<title>Node15</title>
<g id="a_Node000015"><a xlink:href="classRegistry.html#a864a9feb3c9cffc43296ae8bb1aa2e3a" target="_top" xlink:title="Returns a reference to the SparseSet storing all components of type Component.">
<polygon fill="white" stroke="#666666" points="464.25,-20 385.25,-20 385.25,0 464.25,0 464.25,-20"/>
<text xml:space="preserve" text-anchor="middle" x="424.75" y="-6.5" font-family="Helvetica,sans-Serif" font-size="10.00">Registry::view</text>
</a>
</g>
</g>
<!-- Node2&#45;&gt;Node15 -->
<g id="edge20_Node000002_Node000015" class="edge">
<title>Node2&#45;&gt;Node15</title>
<g id="a_edge20_Node000002_Node000015"><a xlink:title=" ">
<path fill="none" stroke="#63b8ff" d="M577.02,-165.88C565.53,-129.29 539.98,-64.6 495,-29 486.3,-22.11 475.28,-17.72 464.6,-14.92"/>
<polygon fill="#63b8ff" stroke="#63b8ff" points="573.61,-166.68 579.84,-175.25 580.32,-164.66 573.61,-166.68"/>
</a>
</g>
</g>
<!-- Node5 -->
<g id="Node000005" class="node">
<title>Node5</title>
<g id="a_Node000005"><a xlink:href="classGameEngine_1_1InputHandlerSystem.html#a56d9f3bab8680fee7d15423028e046b9" target="_top" xlink:title=" ">
<polygon fill="white" stroke="#666666" points="137.5,-266 3.75,-266 3.75,-234 137.5,-234 137.5,-266"/>
<text xml:space="preserve" text-anchor="start" x="11.75" y="-252.5" font-family="Helvetica,sans-Serif" font-size="10.00">GameEngine::InputHandler</text>
<text xml:space="preserve" text-anchor="middle" x="70.62" y="-240.5" font-family="Helvetica,sans-Serif" font-size="10.00">System::onUpdate</text>
</a>
</g>
</g>
<!-- Node4&#45;&gt;Node5 -->
<g id="edge4_Node000004_Node000005" class="edge">
<title>Node4&#45;&gt;Node5</title>
<g id="a_edge4_Node000004_Node000005"><a xlink:title=" ">
<path fill="none" stroke="#63b8ff" d="M196.25,-250C177.97,-250 157.06,-250 137.66,-250"/>
<polygon fill="#63b8ff" stroke="#63b8ff" points="196.03,-253.5 206.03,-250 196.03,-246.5 196.03,-253.5"/>
</a>
</g>
</g>
<!-- Node6 -->
<g id="Node000006" class="node">
<title>Node6</title>
<g id="a_Node000006"><a xlink:href="classGameEngine_1_1MotionSystem.html#a5c82b0f76ecf7fdef391014a16bd06fb" target="_top" xlink:title=" ">
<polygon fill="white" stroke="#666666" points="141.25,-342 0,-342 0,-310 141.25,-310 141.25,-342"/>
<text xml:space="preserve" text-anchor="start" x="8" y="-328.5" font-family="Helvetica,sans-Serif" font-size="10.00">GameEngine::MotionSystem</text>
<text xml:space="preserve" text-anchor="middle" x="70.62" y="-316.5" font-family="Helvetica,sans-Serif" font-size="10.00">::onUpdate</text>
</a>
</g>
</g>
<!-- Node4&#45;&gt;Node6 -->
<g id="edge5_Node000004_Node000006" class="edge">
<title>Node4&#45;&gt;Node6</title>
<g id="a_edge5_Node000004_Node000006"><a xlink:title=" ">
<path fill="none" stroke="#63b8ff" d="M212.59,-264.87C182.92,-277.73 140.1,-296.31 109.44,-309.6"/>
<polygon fill="#63b8ff" stroke="#63b8ff" points="213.7,-268.2 221.49,-261.01 210.92,-261.78 213.7,-268.2"/>
</a>
</g>
</g>
<!-- Node7&#45;&gt;Node5 -->
<g id="edge7_Node000007_Node000005" class="edge">
<title>Node7&#45;&gt;Node5</title>
<g id="a_edge7_Node000007_Node000005"><a xlink:title=" ">
<path fill="none" stroke="#63b8ff" d="M188.87,-224.58C172.52,-228.12 154.62,-232 137.82,-235.65"/>
<polygon fill="#63b8ff" stroke="#63b8ff" points="189.4,-228.04 198.43,-222.5 187.92,-221.2 189.4,-228.04"/>
</a>
</g>
</g>
<!-- Node8&#45;&gt;Node4 -->
<g id="edge11_Node000008_Node000004" class="edge">
<title>Node8&#45;&gt;Node4</title>
<g id="a_edge11_Node000008_Node000004"><a xlink:title=" ">
<path fill="none" stroke="#63b8ff" d="M377.31,-316.55C369.44,-314.03 361.55,-310.89 354.5,-307 335.5,-296.5 337.15,-285.1 318.5,-274 309.16,-268.44 298.35,-263.93 288.07,-260.38"/>
<polygon fill="#63b8ff" stroke="#63b8ff" points="376.3,-319.9 386.88,-319.29 378.23,-313.17 376.3,-319.9"/>
</a>
</g>
</g>
<!-- Node8&#45;&gt;Node5 -->
<g id="edge12_Node000008_Node000005" class="edge">
<title>Node8&#45;&gt;Node5</title>
<g id="a_edge12_Node000008_Node000005"><a xlink:title=" ">
<path fill="none" stroke="#63b8ff" d="M377.5,-316.02C316.2,-302.79 207.67,-279.36 137.74,-264.27"/>
<polygon fill="#63b8ff" stroke="#63b8ff" points="376.38,-319.36 386.9,-318.05 377.86,-312.51 376.38,-319.36"/>
</a>
</g>
</g>
<!-- Node8&#45;&gt;Node6 -->
<g id="edge13_Node000008_Node000006" class="edge">
<title>Node8&#45;&gt;Node6</title>
<g id="a_edge13_Node000008_Node000006"><a xlink:title=" ">
<path fill="none" stroke="#63b8ff" d="M376.93,-326C316.61,-326 211.22,-326 141.43,-326"/>
<polygon fill="#63b8ff" stroke="#63b8ff" points="376.86,-329.5 386.86,-326 376.86,-322.5 376.86,-329.5"/>
</a>
</g>
</g>
<!-- Node9 -->
<g id="Node000009" class="node">
<title>Node9</title>
<g id="a_Node000009"><a xlink:href="classGameEngine_1_1MotionSystem.html#a2bde704857c323ba1547d6ee0cebb6f4" target="_top" xlink:title="Checks and resolves a collision between two entities.">
<polygon fill="white" stroke="#666666" points="318.5,-386 177.25,-386 177.25,-354 318.5,-354 318.5,-386"/>
<text xml:space="preserve" text-anchor="start" x="185.25" y="-372.5" font-family="Helvetica,sans-Serif" font-size="10.00">GameEngine::MotionSystem</text>
<text xml:space="preserve" text-anchor="middle" x="247.88" y="-360.5" font-family="Helvetica,sans-Serif" font-size="10.00">::collide</text>
</a>
</g>
</g>
<!-- Node8&#45;&gt;Node9 -->
<g id="edge9_Node000008_Node000009" class="edge">
<title>Node8&#45;&gt;Node9</title>
<g id="a_edge9_Node000008_Node000009"><a xlink:title=" ">
<path fill="none" stroke="#63b8ff" d="M377.42,-337.66C358.08,-342.52 335.27,-348.26 314.28,-353.54"/>
<polygon fill="#63b8ff" stroke="#63b8ff" points="378.05,-341.11 386.89,-335.27 376.34,-334.32 378.05,-341.11"/>
</a>
</g>
</g>
<!-- Node9&#45;&gt;Node6 -->
<g id="edge10_Node000009_Node000006" class="edge">
<title>Node9&#45;&gt;Node6</title>
<g id="a_edge10_Node000009_Node000006"><a xlink:title=" ">
<path fill="none" stroke="#63b8ff" d="M170.61,-350.85C159.48,-348.06 148.11,-345.2 137.23,-342.47"/>
<polygon fill="#63b8ff" stroke="#63b8ff" points="169.6,-354.21 180.15,-353.25 171.3,-347.42 169.6,-354.21"/>
</a>
</g>
</g>
<!-- Node11&#45;&gt;Node4 -->
<g id="edge16_Node000011_Node000004" class="edge">
<title>Node11&#45;&gt;Node4</title>
<g id="a_edge16_Node000011_Node000004"><a xlink:title=" ">
<path fill="none" stroke="#63b8ff" d="M376.11,-277.65C348.54,-271.66 314.25,-264.21 288.22,-258.55"/>
<polygon fill="#63b8ff" stroke="#63b8ff" points="375.1,-281.01 385.61,-279.71 376.58,-274.17 375.1,-281.01"/>
</a>
</g>
</g>
</g>
</svg>
