<?xml version="1.0" encoding="UTF-8" standalone="no"?>
<!DOCTYPE svg PUBLIC "-//W3C//DTD SVG 1.1//EN"
 "http://www.w3.org/Graphics/SVG/1.1/DTD/svg11.dtd">
<!-- Generated by graphviz version 14.0.1 (0)
 -->
<!-- Title: Registry::addSystemDynamic Pages: 1 -->
<svg width="360pt" height="66pt"
 viewBox="0.00 0.00 360.00 66.00" xmlns="http://www.w3.org/2000/svg" xmlns:xlink="http://www.w3.org/1999/xlink">
<g id="graph0" class="graph" transform="scale(1 1) rotate(0) translate(4 62)">
<title>Registry::addSystemDynamic</title>
<!-- Node1 -->
<g id="Node000001" class="node">
<title>Node1</title>
<g id="a_Node000001"><a xlink:title="Adds a dynamically created system (type&#45;erased).">
<polygon fill="#999999" stroke="#666666" points="147.25,-39 0,-39 0,-19 147.25,-19 147.25,-39"/>
<text xml:space="preserve" text-anchor="middle" x="73.62" y="-25.5" font-family="Helvetica,sans-Serif" font-size="10.00">Registry::addSystemDynamic</text>
</a>
</g>
</g>
<!-- Node2 -->
<g id="Node000002" class="node">
<title>Node2</title>
<g id="a_Node000002"><a xlink:href="classRegistry.html#ae90736c3327063202e3e04ff5860cb36" target="_top" xlink:title="Sorts systems by priority (ascending order).">
<polygon fill="white" stroke="#666666" points="324.88,-58 210.62,-58 210.62,-38 324.88,-38 324.88,-58"/>
<text xml:space="preserve" text-anchor="middle" x="267.75" y="-44.5" font-family="Helvetica,sans-Serif" font-size="10.00">Registry::sortSystems</text>
</a>
</g>
</g>
<!-- Node1&#45;&gt;Node2 -->
<g id="edge1_Node000001_Node000002" class="edge">
<title>Node1&#45;&gt;Node2</title>
<g id="a_edge1_Node000001_Node000002"><a xlink:title=" ">
<path fill="none" stroke="#63b8ff" d="M147.53,-36.21C164.44,-37.88 182.36,-39.65 199.03,-41.3"/>
<polygon fill="#63b8ff" stroke="#63b8ff" points="198.54,-44.77 208.84,-42.27 199.23,-37.81 198.54,-44.77"/>
</a>
</g>
</g>
<!-- Node3 -->
<g id="Node000003" class="node">
<title>Node3</title>
<g id="a_Node000003"><a xlink:href="classRegistry.html#a45f5c5548ea374a04a46308b2e1c5455" target="_top" xlink:title="Updates which systems are active based on available component types.">
<polygon fill="white" stroke="#666666" points="352.25,-20 183.25,-20 183.25,0 352.25,0 352.25,-20"/>
<text xml:space="preserve" text-anchor="middle" x="267.75" y="-6.5" font-family="Helvetica,sans-Serif" font-size="10.00">Registry::updateSystemAvailability</text>
</a>
</g>
</g>
<!-- Node1&#45;&gt;Node3 -->
<g id="edge2_Node000001_Node000003" class="edge">
<title>Node1&#45;&gt;Node3</title>
<g id="a_edge2_Node000001_Node000003"><a xlink:title=" ">
<path fill="none" stroke="#63b8ff" d="M147.53,-21.79C155.4,-21.01 163.48,-20.21 171.56,-19.41"/>
<polygon fill="#63b8ff" stroke="#63b8ff" points="171.83,-22.9 181.44,-18.44 171.15,-15.94 171.83,-22.9"/>
</a>
</g>
</g>
</g>
</svg>
