<?xml version="1.0" encoding="UTF-8" standalone="no"?>
<!DOCTYPE svg PUBLIC "-//W3C//DTD SVG 1.1//EN"
 "http://www.w3.org/Graphics/SVG/1.1/DTD/svg11.dtd">
<!-- Generated by graphviz version 14.0.2 (0)
 -->
<!-- Title: GameEngine::Animation::onUpdate Pages: 1 -->
<svg width="734pt" height="280pt"
 viewBox="0.00 0.00 734.00 280.00" xmlns="http://www.w3.org/2000/svg" xmlns:xlink="http://www.w3.org/1999/xlink">
<g id="graph0" class="graph" transform="scale(1 1) rotate(0) translate(4 276)">
<title>GameEngine::Animation::onUpdate</title>
<!-- Node1 -->
<g id="Node000001" class="node">
<title>Node1</title>
<g id="a_Node000001"><a xlink:title=" ">
<polygon fill="#999999" stroke="#666666" points="121.75,-142 0,-142 0,-110 121.75,-110 121.75,-142"/>
<text xml:space="preserve" text-anchor="start" x="8" y="-128.5" font-family="Helvetica,sans-Serif" font-size="10.00">GameEngine::Animation</text>
<text xml:space="preserve" text-anchor="middle" x="60.88" y="-116.5" font-family="Helvetica,sans-Serif" font-size="10.00">::onUpdate</text>
</a>
</g>
</g>
<!-- Node2 -->
<g id="Node000002" class="node">
<title>Node2</title>
<g id="a_Node000002"><a xlink:href="classRegistry.html#a31cfb49fd633086383bf646b39a8daa2" target="_top" xlink:title="Iterates through all entities that have all the specified components.">
<polygon fill="white" stroke="#666666" points="252.88,-158 173.12,-158 173.12,-138 252.88,-138 252.88,-158"/>
<text xml:space="preserve" text-anchor="middle" x="213" y="-144.5" font-family="Helvetica,sans-Serif" font-size="10.00">Registry::each</text>
</a>
</g>
</g>
<!-- Node1&#45;&gt;Node2 -->
<g id="edge1_Node000001_Node000002" class="edge">
<title>Node1&#45;&gt;Node2</title>
<g id="a_edge1_Node000001_Node000002"><a xlink:title=" ">
<path fill="none" stroke="#63b8ff" d="M122.07,-134.82C135.19,-136.74 148.93,-138.76 161.62,-140.62"/>
<polygon fill="#63b8ff" stroke="#63b8ff" points="161.03,-144.07 171.43,-142.05 162.04,-137.14 161.03,-144.07"/>
</a>
</g>
</g>
<!-- Node12 -->
<g id="Node000012" class="node">
<title>Node12</title>
<g id="a_Node000012"><a xlink:href="classSystem.html#ac7b716e6d41ff508ad2d8e5dad655d72" target="_top" xlink:title=" ">
<polygon fill="white" stroke="#666666" points="268.25,-120 157.75,-120 157.75,-88 268.25,-88 268.25,-120"/>
<text xml:space="preserve" text-anchor="start" x="165.75" y="-106.5" font-family="Helvetica,sans-Serif" font-size="10.00">System&lt; Animation &gt;</text>
<text xml:space="preserve" text-anchor="middle" x="213" y="-94.5" font-family="Helvetica,sans-Serif" font-size="10.00">::Registry</text>
</a>
</g>
</g>
<!-- Node1&#45;&gt;Node12 -->
<g id="edge15_Node000001_Node000012" class="edge">
<title>Node1&#45;&gt;Node12</title>
<g id="a_edge15_Node000001_Node000012"><a xlink:title=" ">
<path fill="none" stroke="#63b8ff" d="M122.07,-117.18C130.06,-116.01 138.27,-114.8 146.34,-113.62"/>
<polygon fill="#63b8ff" stroke="#63b8ff" points="146.73,-117.1 156.12,-112.19 145.72,-110.18 146.73,-117.1"/>
</a>
</g>
</g>
<!-- Node3 -->
<g id="Node000003" class="node">
<title>Node3</title>
<g id="a_Node000003"><a xlink:href="classRegistry.html#acd4bfce3db63792e03b353900dc89f76" target="_top" xlink:title="Ensures that a component pool exists for the given component ID. Creates it if necessary.">
<polygon fill="white" stroke="#666666" points="423.75,-272 316.25,-272 316.25,-252 423.75,-252 423.75,-272"/>
<text xml:space="preserve" text-anchor="middle" x="370" y="-258.5" font-family="Helvetica,sans-Serif" font-size="10.00">Registry::assurePool</text>
</a>
</g>
</g>
<!-- Node2&#45;&gt;Node3 -->
<g id="edge2_Node000002_Node000003" class="edge">
<title>Node2&#45;&gt;Node3</title>
<g id="a_edge2_Node000002_Node000003"><a xlink:title=" ">
<path fill="none" stroke="#63b8ff" d="M221.84,-158.34C236.28,-176.74 268.84,-215.33 304.25,-238 309.75,-241.52 315.84,-244.63 322.02,-247.34"/>
<polygon fill="#63b8ff" stroke="#63b8ff" points="320.43,-250.47 331.01,-250.97 323.04,-243.98 320.43,-250.47"/>
</a>
</g>
</g>
<!-- Node4 -->
<g id="Node000004" class="node">
<title>Node4</title>
<g id="a_Node000004"><a xlink:href="classRegistry.html#a11f1e4d7d7ef1a84640adddf32c1f862" target="_top" xlink:title="Gets a reference to a component of type Component for entity e.">
<polygon fill="white" stroke="#666666" points="406.12,-158 333.88,-158 333.88,-138 406.12,-138 406.12,-158"/>
<text xml:space="preserve" text-anchor="middle" x="370" y="-144.5" font-family="Helvetica,sans-Serif" font-size="10.00">Registry::get</text>
</a>
</g>
</g>
<!-- Node2&#45;&gt;Node4 -->
<g id="edge3_Node000002_Node000004" class="edge">
<title>Node2&#45;&gt;Node4</title>
<g id="a_edge3_Node000002_Node000004"><a xlink:title=" ">
<path fill="none" stroke="#63b8ff" d="M253.11,-148C274.09,-148 300.1,-148 322.15,-148"/>
<polygon fill="#63b8ff" stroke="#63b8ff" points="322.1,-151.5 332.1,-148 322.1,-144.5 322.1,-151.5"/>
</a>
</g>
</g>
<!-- Node5 -->
<g id="Node000005" class="node">
<title>Node5</title>
<g id="a_Node000005"><a xlink:href="classComponentRegistry.html#a4d993c2bab87c6bdac36ba8f589eca5f" target="_top" xlink:title="Retrieves or creates a unique ID for the given component type T.">
<polygon fill="white" stroke="#666666" points="580.75,-208 471.75,-208 471.75,-176 580.75,-176 580.75,-208"/>
<text xml:space="preserve" text-anchor="start" x="479.75" y="-194.5" font-family="Helvetica,sans-Serif" font-size="10.00">ComponentRegistry::</text>
<text xml:space="preserve" text-anchor="middle" x="526.25" y="-182.5" font-family="Helvetica,sans-Serif" font-size="10.00">getOrCreateID</text>
</a>
</g>
</g>
<!-- Node2&#45;&gt;Node5 -->
<g id="edge9_Node000002_Node000005" class="edge">
<title>Node2&#45;&gt;Node5</title>
<g id="a_edge9_Node000002_Node000005"><a xlink:title=" ">
<path fill="none" stroke="#63b8ff" d="M225.48,-158.33C241.66,-172.12 272.74,-195.88 304.25,-205 355.2,-219.74 415.43,-214.81 460.14,-207.14"/>
<polygon fill="#63b8ff" stroke="#63b8ff" points="460.74,-210.59 469.95,-205.35 459.49,-203.7 460.74,-210.59"/>
</a>
</g>
</g>
<!-- Node7 -->
<g id="Node000007" class="node">
<title>Node7</title>
<g id="a_Node000007"><a xlink:href="classComponentRegistry.html#a18cad5dda10f4bb28fb6933f5aa85fce" target="_top" xlink:title="Provides access to the global ComponentRegistry instance.">
<polygon fill="white" stroke="#666666" points="580.75,-158 471.75,-158 471.75,-126 580.75,-126 580.75,-158"/>
<text xml:space="preserve" text-anchor="start" x="479.75" y="-144.5" font-family="Helvetica,sans-Serif" font-size="10.00">ComponentRegistry::</text>
<text xml:space="preserve" text-anchor="middle" x="526.25" y="-132.5" font-family="Helvetica,sans-Serif" font-size="10.00">instance</text>
</a>
</g>
</g>
<!-- Node2&#45;&gt;Node7 -->
<g id="edge13_Node000002_Node000007" class="edge">
<title>Node2&#45;&gt;Node7</title>
<g id="a_edge13_Node000002_Node000007"><a xlink:title=" ">
<path fill="none" stroke="#63b8ff" d="M253.26,-137.89C268.99,-134.32 287.37,-130.76 304.25,-129 362.38,-122.95 377.46,-124.79 435.75,-129 443.72,-129.58 452.05,-130.44 460.29,-131.44"/>
<polygon fill="#63b8ff" stroke="#63b8ff" points="459.56,-134.88 469.93,-132.7 460.47,-127.94 459.56,-134.88"/>
</a>
</g>
</g>
<!-- Node9 -->
<g id="Node000009" class="node">
<title>Node9</title>
<g id="a_Node000009"><a xlink:href="structRegistry_1_1IComponentPool.html#ad4a1001874d3ea8f343fbbcf4988c507" target="_top" xlink:title=" ">
<polygon fill="white" stroke="#666666" points="435.75,-82 304.25,-82 304.25,-50 435.75,-50 435.75,-82"/>
<text xml:space="preserve" text-anchor="start" x="312.25" y="-68.5" font-family="Helvetica,sans-Serif" font-size="10.00">Registry::IComponentPool</text>
<text xml:space="preserve" text-anchor="middle" x="370" y="-56.5" font-family="Helvetica,sans-Serif" font-size="10.00">::getEntityAt</text>
</a>
</g>
</g>
<!-- Node2&#45;&gt;Node9 -->
<g id="edge8_Node000002_Node000009" class="edge">
<title>Node2&#45;&gt;Node9</title>
<g id="a_edge8_Node000002_Node000009"><a xlink:title=" ">
<path fill="none" stroke="#63b8ff" d="M250.53,-137.5C256.64,-135.11 262.77,-132.28 268.25,-129 286.87,-117.85 286.19,-108.04 304.25,-96 308.72,-93.02 313.53,-90.19 318.44,-87.55"/>
<polygon fill="#63b8ff" stroke="#63b8ff" points="319.91,-90.73 327.23,-83.07 316.73,-84.49 319.91,-90.73"/>
</a>
</g>
</g>
<!-- Node10 -->
<g id="Node000010" class="node">
<title>Node10</title>
<g id="a_Node000010"><a xlink:href="classRegistry.html#acac1f1c8a740cfeb2b33a32cfd6ad83f" target="_top" xlink:title="Checks if entity e has a component of type Component.">
<polygon fill="white" stroke="#666666" points="407.25,-196 332.75,-196 332.75,-176 407.25,-176 407.25,-196"/>
<text xml:space="preserve" text-anchor="middle" x="370" y="-182.5" font-family="Helvetica,sans-Serif" font-size="10.00">Registry::has</text>
</a>
</g>
</g>
<!-- Node2&#45;&gt;Node10 -->
<g id="edge10_Node000002_Node000010" class="edge">
<title>Node2&#45;&gt;Node10</title>
<g id="a_edge10_Node000002_Node000010"><a xlink:title=" ">
<path fill="none" stroke="#63b8ff" d="M253.11,-157.59C273.81,-162.66 299.39,-168.93 321.25,-174.29"/>
<polygon fill="#63b8ff" stroke="#63b8ff" points="320.28,-177.66 330.83,-176.64 321.95,-170.86 320.28,-177.66"/>
</a>
</g>
</g>
<!-- Node11 -->
<g id="Node000011" class="node">
<title>Node11</title>
<g id="a_Node000011"><a xlink:href="structRegistry_1_1IComponentPool.html#af60edba4f576e1c34ed07f6dd4e9348b" target="_top" xlink:title=" ">
<polygon fill="white" stroke="#666666" points="435.75,-32 304.25,-32 304.25,0 435.75,0 435.75,-32"/>
<text xml:space="preserve" text-anchor="start" x="312.25" y="-18.5" font-family="Helvetica,sans-Serif" font-size="10.00">Registry::IComponentPool</text>
<text xml:space="preserve" text-anchor="middle" x="370" y="-6.5" font-family="Helvetica,sans-Serif" font-size="10.00">::size</text>
</a>
</g>
</g>
<!-- Node2&#45;&gt;Node11 -->
<g id="edge14_Node000002_Node000011" class="edge">
<title>Node2&#45;&gt;Node11</title>
<g id="a_edge14_Node000002_Node000011"><a xlink:title=" ">
<path fill="none" stroke="#63b8ff" d="M253.35,-138.77C258.8,-136.25 263.98,-133.05 268.25,-129 298.89,-99.9 274.07,-70.58 304.25,-41 304.98,-40.28 305.74,-39.58 306.52,-38.9"/>
<polygon fill="#63b8ff" stroke="#63b8ff" points="308.28,-41.95 314.31,-33.23 304.16,-36.29 308.28,-41.95"/>
</a>
</g>
</g>
<!-- Node4&#45;&gt;Node5 -->
<g id="edge4_Node000004_Node000005" class="edge">
<title>Node4&#45;&gt;Node5</title>
<g id="a_edge4_Node000004_Node000005"><a xlink:title=" ">
<path fill="none" stroke="#63b8ff" d="M406.39,-158.09C422.37,-162.65 441.78,-168.19 460.24,-173.46"/>
<polygon fill="#63b8ff" stroke="#63b8ff" points="459.23,-176.81 469.81,-176.19 461.16,-170.08 459.23,-176.81"/>
</a>
</g>
</g>
<!-- Node4&#45;&gt;Node7 -->
<g id="edge6_Node000004_Node000007" class="edge">
<title>Node4&#45;&gt;Node7</title>
<g id="a_edge6_Node000004_Node000007"><a xlink:title=" ">
<path fill="none" stroke="#63b8ff" d="M406.39,-146.62C422.3,-146 441.6,-145.25 459.98,-144.54"/>
<polygon fill="#63b8ff" stroke="#63b8ff" points="459.9,-148.04 469.75,-144.16 459.63,-141.05 459.9,-148.04"/>
</a>
</g>
</g>
<!-- Node6 -->
<g id="Node000006" class="node">
<title>Node6</title>
<g id="a_Node000006"><a xlink:href="classComponentRegistry.html#ab1cc8a486cae16a19268264c69f9af80" target="_top" xlink:title="Computes a new unique ID for a type T, or returns the existing one.">
<polygon fill="white" stroke="#666666" points="725.75,-208 616.75,-208 616.75,-176 725.75,-176 725.75,-208"/>
<text xml:space="preserve" text-anchor="start" x="624.75" y="-194.5" font-family="Helvetica,sans-Serif" font-size="10.00">ComponentRegistry::</text>
<text xml:space="preserve" text-anchor="middle" x="671.25" y="-182.5" font-family="Helvetica,sans-Serif" font-size="10.00">computeID</text>
</a>
</g>
</g>
<!-- Node5&#45;&gt;Node6 -->
<g id="edge5_Node000005_Node000006" class="edge">
<title>Node5&#45;&gt;Node6</title>
<g id="a_edge5_Node000005_Node000006"><a xlink:title=" ">
<path fill="none" stroke="#63b8ff" d="M580.9,-192C588.77,-192 596.94,-192 605.01,-192"/>
<polygon fill="#63b8ff" stroke="#63b8ff" points="604.78,-195.5 614.78,-192 604.78,-188.5 604.78,-195.5"/>
</a>
</g>
</g>
<!-- Node8 -->
<g id="Node000008" class="node">
<title>Node8</title>
<g id="a_Node000008"><a xlink:href="classComponentRegistry.html#a3bbfefb19e284845afb80ce0a4dd739a" target="_top" xlink:title="Private constructor for singleton pattern. Initializes internal containers with reserved capacity.">
<polygon fill="white" stroke="#666666" points="725.75,-158 616.75,-158 616.75,-126 725.75,-126 725.75,-158"/>
<text xml:space="preserve" text-anchor="start" x="624.75" y="-144.5" font-family="Helvetica,sans-Serif" font-size="10.00">ComponentRegistry::</text>
<text xml:space="preserve" text-anchor="middle" x="671.25" y="-132.5" font-family="Helvetica,sans-Serif" font-size="10.00">ComponentRegistry</text>
</a>
</g>
</g>
<!-- Node7&#45;&gt;Node8 -->
<g id="edge7_Node000007_Node000008" class="edge">
<title>Node7&#45;&gt;Node8</title>
<g id="a_edge7_Node000007_Node000008"><a xlink:title=" ">
<path fill="none" stroke="#63b8ff" d="M580.9,-142C588.77,-142 596.94,-142 605.01,-142"/>
<polygon fill="#63b8ff" stroke="#63b8ff" points="604.78,-145.5 614.78,-142 604.78,-138.5 604.78,-145.5"/>
</a>
</g>
</g>
<!-- Node10&#45;&gt;Node5 -->
<g id="edge11_Node000010_Node000005" class="edge">
<title>Node10&#45;&gt;Node5</title>
<g id="a_edge11_Node000010_Node000005"><a xlink:title=" ">
<path fill="none" stroke="#63b8ff" d="M407.56,-187.42C423.27,-188.03 442.12,-188.77 460.09,-189.47"/>
<polygon fill="#63b8ff" stroke="#63b8ff" points="459.79,-192.96 469.91,-189.85 460.06,-185.96 459.79,-192.96"/>
</a>
</g>
</g>
<!-- Node10&#45;&gt;Node7 -->
<g id="edge12_Node000010_Node000007" class="edge">
<title>Node10&#45;&gt;Node7</title>
<g id="a_edge12_Node000010_Node000007"><a xlink:title=" ">
<path fill="none" stroke="#63b8ff" d="M407.56,-175.57C423.42,-171.05 442.48,-165.61 460.6,-160.44"/>
<polygon fill="#63b8ff" stroke="#63b8ff" points="461.31,-163.88 469.97,-157.77 459.39,-157.15 461.31,-163.88"/>
</a>
</g>
</g>
</g>
</svg>
