<?xml version="1.0" encoding="UTF-8" standalone="no"?>
<!DOCTYPE svg PUBLIC "-//W3C//DTD SVG 1.1//EN"
 "http://www.w3.org/Graphics/SVG/1.1/DTD/svg11.dtd">
<!-- Generated by graphviz version 14.0.1 (0)
 -->
<!-- Title: GameEngine::Death::onUpdate Pages: 1 -->
<svg width="749pt" height="280pt"
 viewBox="0.00 0.00 749.00 280.00" xmlns="http://www.w3.org/2000/svg" xmlns:xlink="http://www.w3.org/1999/xlink">
<g id="graph0" class="graph" transform="scale(1 1) rotate(0) translate(4 276)">
<title>GameEngine::Death::onUpdate</title>
<!-- Node1 -->
<g id="Node000001" class="node">
<title>Node1</title>
<g id="a_Node000001"><a xlink:title=" ">
<polygon fill="#999999" stroke="#666666" points="110.5,-164 0,-164 0,-132 110.5,-132 110.5,-164"/>
<text xml:space="preserve" text-anchor="start" x="8" y="-150.5" font-family="Helvetica,sans-Serif" font-size="10.00">GameEngine::Death::</text>
<text xml:space="preserve" text-anchor="middle" x="55.25" y="-138.5" font-family="Helvetica,sans-Serif" font-size="10.00">onUpdate</text>
</a>
</g>
</g>
<!-- Node2 -->
<g id="Node000002" class="node">
<title>Node2</title>
<g id="a_Node000002"><a xlink:href="classRegistry.html#ae620740b0c598d102a93703b3a8062fc" target="_top" xlink:title="Destroys an entity and removes all its components.">
<polygon fill="white" stroke="#666666" points="260.38,-196 169.38,-196 169.38,-176 260.38,-176 260.38,-196"/>
<text xml:space="preserve" text-anchor="middle" x="214.88" y="-182.5" font-family="Helvetica,sans-Serif" font-size="10.00">Registry::destroy</text>
</a>
</g>
</g>
<!-- Node1&#45;&gt;Node2 -->
<g id="edge1_Node000001_Node000002" class="edge">
<title>Node1&#45;&gt;Node2</title>
<g id="a_edge1_Node000001_Node000002"><a xlink:title=" ">
<path fill="none" stroke="#63b8ff" d="M110.94,-161.18C126.61,-164.96 143.68,-169.08 159.34,-172.85"/>
<polygon fill="#63b8ff" stroke="#63b8ff" points="158.44,-176.24 168.99,-175.18 160.08,-169.43 158.44,-176.24"/>
</a>
</g>
</g>
<!-- Node3 -->
<g id="Node000003" class="node">
<title>Node3</title>
<g id="a_Node000003"><a xlink:href="classRegistry.html#a31cfb49fd633086383bf646b39a8daa2" target="_top" xlink:title="Iterates through all entities that have all the specified components.">
<polygon fill="white" stroke="#666666" points="254.75,-158 175,-158 175,-138 254.75,-138 254.75,-158"/>
<text xml:space="preserve" text-anchor="middle" x="214.88" y="-144.5" font-family="Helvetica,sans-Serif" font-size="10.00">Registry::each</text>
</a>
</g>
</g>
<!-- Node1&#45;&gt;Node3 -->
<g id="edge2_Node000001_Node000003" class="edge">
<title>Node1&#45;&gt;Node3</title>
<g id="a_edge2_Node000001_Node000003"><a xlink:title=" ">
<path fill="none" stroke="#63b8ff" d="M110.94,-148C127.99,-148 146.7,-148 163.45,-148"/>
<polygon fill="#63b8ff" stroke="#63b8ff" points="163.17,-151.5 173.17,-148 163.17,-144.5 163.17,-151.5"/>
</a>
</g>
</g>
<!-- Node13 -->
<g id="Node000013" class="node">
<title>Node13</title>
<g id="a_Node000013"><a xlink:href="classSystem.html#ac7b716e6d41ff508ad2d8e5dad655d72" target="_top" xlink:title=" ">
<polygon fill="white" stroke="#666666" points="283.25,-120 146.5,-120 146.5,-100 283.25,-100 283.25,-120"/>
<text xml:space="preserve" text-anchor="middle" x="214.88" y="-106.5" font-family="Helvetica,sans-Serif" font-size="10.00">System&lt; Death &gt;::Registry</text>
</a>
</g>
</g>
<!-- Node1&#45;&gt;Node13 -->
<g id="edge16_Node000001_Node000013" class="edge">
<title>Node1&#45;&gt;Node13</title>
<g id="a_edge16_Node000001_Node000013"><a xlink:title=" ">
<path fill="none" stroke="#63b8ff" d="M110.94,-134.82C126.61,-131.04 143.68,-126.92 159.34,-123.15"/>
<polygon fill="#63b8ff" stroke="#63b8ff" points="160.08,-126.57 168.99,-120.82 158.44,-119.76 160.08,-126.57"/>
</a>
</g>
</g>
<!-- Node4 -->
<g id="Node000004" class="node">
<title>Node4</title>
<g id="a_Node000004"><a xlink:href="classRegistry.html#acd4bfce3db63792e03b353900dc89f76" target="_top" xlink:title="Ensures that a component pool exists for the given component ID. Creates it if necessary.">
<polygon fill="white" stroke="#666666" points="438.75,-272 331.25,-272 331.25,-252 438.75,-252 438.75,-272"/>
<text xml:space="preserve" text-anchor="middle" x="385" y="-258.5" font-family="Helvetica,sans-Serif" font-size="10.00">Registry::assurePool</text>
</a>
</g>
</g>
<!-- Node3&#45;&gt;Node4 -->
<g id="edge3_Node000003_Node000004" class="edge">
<title>Node3&#45;&gt;Node4</title>
<g id="a_edge3_Node000003_Node000004"><a xlink:title=" ">
<path fill="none" stroke="#63b8ff" d="M255.22,-153.32C265.16,-156.14 275.27,-160.44 283.25,-167 310.58,-189.47 292.84,-214.45 319.25,-238 322.97,-241.32 327.2,-244.2 331.66,-246.68"/>
<polygon fill="#63b8ff" stroke="#63b8ff" points="329.83,-249.68 340.36,-250.87 332.87,-243.38 329.83,-249.68"/>
</a>
</g>
</g>
<!-- Node5 -->
<g id="Node000005" class="node">
<title>Node5</title>
<g id="a_Node000005"><a xlink:href="classRegistry.html#a11f1e4d7d7ef1a84640adddf32c1f862" target="_top" xlink:title="Gets a reference to a component of type Component for entity e.">
<polygon fill="white" stroke="#666666" points="421.12,-158 348.88,-158 348.88,-138 421.12,-138 421.12,-158"/>
<text xml:space="preserve" text-anchor="middle" x="385" y="-144.5" font-family="Helvetica,sans-Serif" font-size="10.00">Registry::get</text>
</a>
</g>
</g>
<!-- Node3&#45;&gt;Node5 -->
<g id="edge4_Node000003_Node000005" class="edge">
<title>Node3&#45;&gt;Node5</title>
<g id="a_edge4_Node000003_Node000005"><a xlink:title=" ">
<path fill="none" stroke="#63b8ff" d="M254.87,-148C279.43,-148 311.28,-148 337.21,-148"/>
<polygon fill="#63b8ff" stroke="#63b8ff" points="337.14,-151.5 347.14,-148 337.14,-144.5 337.14,-151.5"/>
</a>
</g>
</g>
<!-- Node6 -->
<g id="Node000006" class="node">
<title>Node6</title>
<g id="a_Node000006"><a xlink:href="classComponentRegistry.html#a4d993c2bab87c6bdac36ba8f589eca5f" target="_top" xlink:title="Retrieves or creates a unique ID for the given component type T.">
<polygon fill="white" stroke="#666666" points="595.75,-208 486.75,-208 486.75,-176 595.75,-176 595.75,-208"/>
<text xml:space="preserve" text-anchor="start" x="494.75" y="-194.5" font-family="Helvetica,sans-Serif" font-size="10.00">ComponentRegistry::</text>
<text xml:space="preserve" text-anchor="middle" x="541.25" y="-182.5" font-family="Helvetica,sans-Serif" font-size="10.00">getOrCreateID</text>
</a>
</g>
</g>
<!-- Node3&#45;&gt;Node6 -->
<g id="edge10_Node000003_Node000006" class="edge">
<title>Node3&#45;&gt;Node6</title>
<g id="a_edge10_Node000003_Node000006"><a xlink:title=" ">
<path fill="none" stroke="#63b8ff" d="M255.12,-155.26C264.74,-158.04 274.72,-161.85 283.25,-167 303.16,-179.03 297.88,-195.81 319.25,-205 368.56,-226.21 429.85,-220.41 475.36,-210.75"/>
<polygon fill="#63b8ff" stroke="#63b8ff" points="476.11,-214.17 485.1,-208.56 474.58,-207.34 476.11,-214.17"/>
</a>
</g>
</g>
<!-- Node8 -->
<g id="Node000008" class="node">
<title>Node8</title>
<g id="a_Node000008"><a xlink:href="classComponentRegistry.html#a18cad5dda10f4bb28fb6933f5aa85fce" target="_top" xlink:title="Provides access to the global ComponentRegistry instance.">
<polygon fill="white" stroke="#666666" points="595.75,-158 486.75,-158 486.75,-126 595.75,-126 595.75,-158"/>
<text xml:space="preserve" text-anchor="start" x="494.75" y="-144.5" font-family="Helvetica,sans-Serif" font-size="10.00">ComponentRegistry::</text>
<text xml:space="preserve" text-anchor="middle" x="541.25" y="-132.5" font-family="Helvetica,sans-Serif" font-size="10.00">instance</text>
</a>
</g>
</g>
<!-- Node3&#45;&gt;Node8 -->
<g id="edge14_Node000003_Node000008" class="edge">
<title>Node3&#45;&gt;Node8</title>
<g id="a_edge14_Node000003_Node000008"><a xlink:title=" ">
<path fill="none" stroke="#63b8ff" d="M254.91,-139.09C274.17,-135.14 297.81,-130.95 319.25,-129 377.45,-123.7 392.46,-124.79 450.75,-129 458.72,-129.58 467.05,-130.44 475.29,-131.44"/>
<polygon fill="#63b8ff" stroke="#63b8ff" points="474.56,-134.88 484.93,-132.7 475.47,-127.94 474.56,-134.88"/>
</a>
</g>
</g>
<!-- Node10 -->
<g id="Node000010" class="node">
<title>Node10</title>
<g id="a_Node000010"><a xlink:href="structRegistry_1_1IComponentPool.html#ad4a1001874d3ea8f343fbbcf4988c507" target="_top" xlink:title=" ">
<polygon fill="white" stroke="#666666" points="450.75,-82 319.25,-82 319.25,-50 450.75,-50 450.75,-82"/>
<text xml:space="preserve" text-anchor="start" x="327.25" y="-68.5" font-family="Helvetica,sans-Serif" font-size="10.00">Registry::IComponentPool</text>
<text xml:space="preserve" text-anchor="middle" x="385" y="-56.5" font-family="Helvetica,sans-Serif" font-size="10.00">::getEntityAt</text>
</a>
</g>
</g>
<!-- Node3&#45;&gt;Node10 -->
<g id="edge9_Node000003_Node000010" class="edge">
<title>Node3&#45;&gt;Node10</title>
<g id="a_edge9_Node000003_Node000010"><a xlink:title=" ">
<path fill="none" stroke="#63b8ff" d="M255.23,-140.22C264.75,-137.45 274.65,-133.79 283.25,-129 302.21,-118.43 301.19,-108.04 319.25,-96 323.72,-93.02 328.53,-90.19 333.44,-87.55"/>
<polygon fill="#63b8ff" stroke="#63b8ff" points="334.91,-90.73 342.23,-83.07 331.73,-84.49 334.91,-90.73"/>
</a>
</g>
</g>
<!-- Node11 -->
<g id="Node000011" class="node">
<title>Node11</title>
<g id="a_Node000011"><a xlink:href="classRegistry.html#acac1f1c8a740cfeb2b33a32cfd6ad83f" target="_top" xlink:title="Checks if entity e has a component of type Component.">
<polygon fill="white" stroke="#666666" points="422.25,-196 347.75,-196 347.75,-176 422.25,-176 422.25,-196"/>
<text xml:space="preserve" text-anchor="middle" x="385" y="-182.5" font-family="Helvetica,sans-Serif" font-size="10.00">Registry::has</text>
</a>
</g>
</g>
<!-- Node3&#45;&gt;Node11 -->
<g id="edge11_Node000003_Node000011" class="edge">
<title>Node3&#45;&gt;Node11</title>
<g id="a_edge11_Node000003_Node000011"><a xlink:title=" ">
<path fill="none" stroke="#63b8ff" d="M254.87,-156.81C279.2,-162.31 310.69,-169.43 336.49,-175.26"/>
<polygon fill="#63b8ff" stroke="#63b8ff" points="335.52,-178.63 346.04,-177.42 337.06,-171.8 335.52,-178.63"/>
</a>
</g>
</g>
<!-- Node12 -->
<g id="Node000012" class="node">
<title>Node12</title>
<g id="a_Node000012"><a xlink:href="structRegistry_1_1IComponentPool.html#af60edba4f576e1c34ed07f6dd4e9348b" target="_top" xlink:title=" ">
<polygon fill="white" stroke="#666666" points="450.75,-32 319.25,-32 319.25,0 450.75,0 450.75,-32"/>
<text xml:space="preserve" text-anchor="start" x="327.25" y="-18.5" font-family="Helvetica,sans-Serif" font-size="10.00">Registry::IComponentPool</text>
<text xml:space="preserve" text-anchor="middle" x="385" y="-6.5" font-family="Helvetica,sans-Serif" font-size="10.00">::size</text>
</a>
</g>
</g>
<!-- Node3&#45;&gt;Node12 -->
<g id="edge15_Node000003_Node000012" class="edge">
<title>Node3&#45;&gt;Node12</title>
<g id="a_edge15_Node000003_Node000012"><a xlink:title=" ">
<path fill="none" stroke="#63b8ff" d="M255.23,-143.2C265.29,-140.39 275.45,-135.96 283.25,-129 314.78,-100.86 289.07,-70.58 319.25,-41 319.98,-40.28 320.74,-39.58 321.52,-38.9"/>
<polygon fill="#63b8ff" stroke="#63b8ff" points="323.28,-41.95 329.31,-33.23 319.16,-36.29 323.28,-41.95"/>
</a>
</g>
</g>
<!-- Node5&#45;&gt;Node6 -->
<g id="edge5_Node000005_Node000006" class="edge">
<title>Node5&#45;&gt;Node6</title>
<g id="a_edge5_Node000005_Node000006"><a xlink:title=" ">
<path fill="none" stroke="#63b8ff" d="M421.39,-158.09C437.37,-162.65 456.78,-168.19 475.24,-173.46"/>
<polygon fill="#63b8ff" stroke="#63b8ff" points="474.23,-176.81 484.81,-176.19 476.16,-170.08 474.23,-176.81"/>
</a>
</g>
</g>
<!-- Node5&#45;&gt;Node8 -->
<g id="edge7_Node000005_Node000008" class="edge">
<title>Node5&#45;&gt;Node8</title>
<g id="a_edge7_Node000005_Node000008"><a xlink:title=" ">
<path fill="none" stroke="#63b8ff" d="M421.39,-146.62C437.3,-146 456.6,-145.25 474.98,-144.54"/>
<polygon fill="#63b8ff" stroke="#63b8ff" points="474.9,-148.04 484.75,-144.16 474.63,-141.05 474.9,-148.04"/>
</a>
</g>
</g>
<!-- Node7 -->
<g id="Node000007" class="node">
<title>Node7</title>
<g id="a_Node000007"><a xlink:href="classComponentRegistry.html#ab1cc8a486cae16a19268264c69f9af80" target="_top" xlink:title="Computes a new unique ID for a type T, or returns the existing one.">
<polygon fill="white" stroke="#666666" points="740.75,-208 631.75,-208 631.75,-176 740.75,-176 740.75,-208"/>
<text xml:space="preserve" text-anchor="start" x="639.75" y="-194.5" font-family="Helvetica,sans-Serif" font-size="10.00">ComponentRegistry::</text>
<text xml:space="preserve" text-anchor="middle" x="686.25" y="-182.5" font-family="Helvetica,sans-Serif" font-size="10.00">computeID</text>
</a>
</g>
</g>
<!-- Node6&#45;&gt;Node7 -->
<g id="edge6_Node000006_Node000007" class="edge">
<title>Node6&#45;&gt;Node7</title>
<g id="a_edge6_Node000006_Node000007"><a xlink:title=" ">
<path fill="none" stroke="#63b8ff" d="M595.9,-192C603.77,-192 611.94,-192 620.01,-192"/>
<polygon fill="#63b8ff" stroke="#63b8ff" points="619.78,-195.5 629.78,-192 619.78,-188.5 619.78,-195.5"/>
</a>
</g>
</g>
<!-- Node9 -->
<g id="Node000009" class="node">
<title>Node9</title>
<g id="a_Node000009"><a xlink:href="classComponentRegistry.html#a3bbfefb19e284845afb80ce0a4dd739a" target="_top" xlink:title="Private constructor for singleton pattern. Initializes internal containers with reserved capacity.">
<polygon fill="white" stroke="#666666" points="740.75,-158 631.75,-158 631.75,-126 740.75,-126 740.75,-158"/>
<text xml:space="preserve" text-anchor="start" x="639.75" y="-144.5" font-family="Helvetica,sans-Serif" font-size="10.00">ComponentRegistry::</text>
<text xml:space="preserve" text-anchor="middle" x="686.25" y="-132.5" font-family="Helvetica,sans-Serif" font-size="10.00">ComponentRegistry</text>
</a>
</g>
</g>
<!-- Node8&#45;&gt;Node9 -->
<g id="edge8_Node000008_Node000009" class="edge">
<title>Node8&#45;&gt;Node9</title>
<g id="a_edge8_Node000008_Node000009"><a xlink:title=" ">
<path fill="none" stroke="#63b8ff" d="M595.9,-142C603.77,-142 611.94,-142 620.01,-142"/>
<polygon fill="#63b8ff" stroke="#63b8ff" points="619.78,-145.5 629.78,-142 619.78,-138.5 619.78,-145.5"/>
</a>
</g>
</g>
<!-- Node11&#45;&gt;Node6 -->
<g id="edge12_Node000011_Node000006" class="edge">
<title>Node11&#45;&gt;Node6</title>
<g id="a_edge12_Node000011_Node000006"><a xlink:title=" ">
<path fill="none" stroke="#63b8ff" d="M422.56,-187.42C438.27,-188.03 457.12,-188.77 475.09,-189.47"/>
<polygon fill="#63b8ff" stroke="#63b8ff" points="474.79,-192.96 484.91,-189.85 475.06,-185.96 474.79,-192.96"/>
</a>
</g>
</g>
<!-- Node11&#45;&gt;Node8 -->
<g id="edge13_Node000011_Node000008" class="edge">
<title>Node11&#45;&gt;Node8</title>
<g id="a_edge13_Node000011_Node000008"><a xlink:title=" ">
<path fill="none" stroke="#63b8ff" d="M422.56,-175.57C438.42,-171.05 457.48,-165.61 475.6,-160.44"/>
<polygon fill="#63b8ff" stroke="#63b8ff" points="476.31,-163.88 484.97,-157.77 474.39,-157.15 476.31,-163.88"/>
</a>
</g>
</g>
</g>
</svg>
