<?xml version="1.0" encoding="UTF-8" standalone="no"?>
<!DOCTYPE svg PUBLIC "-//W3C//DTD SVG 1.1//EN"
 "http://www.w3.org/Graphics/SVG/1.1/DTD/svg11.dtd">
<!-- Generated by graphviz version 14.0.1 (0)
 -->
<!-- Title: Registry::remove Pages: 1 -->
<svg width="449pt" height="128pt"
 viewBox="0.00 0.00 449.00 128.00" xmlns="http://www.w3.org/2000/svg" xmlns:xlink="http://www.w3.org/1999/xlink">
<g id="graph0" class="graph" transform="scale(1 1) rotate(0) translate(4 124)">
<title>Registry::remove</title>
<!-- Node1 -->
<g id="Node000001" class="node">
<title>Node1</title>
<g id="a_Node000001"><a xlink:title="Removes a component of type Component from entity e.">
<polygon fill="#999999" stroke="#666666" points="91,-64 0,-64 0,-44 91,-44 91,-64"/>
<text xml:space="preserve" text-anchor="middle" x="45.5" y="-50.5" font-family="Helvetica,sans-Serif" font-size="10.00">Registry::remove</text>
</a>
</g>
</g>
<!-- Node2 -->
<g id="Node000002" class="node">
<title>Node2</title>
<g id="a_Node000002"><a xlink:href="classComponentRegistry.html#a4d993c2bab87c6bdac36ba8f589eca5f" target="_top" xlink:title="Retrieves or creates a unique ID for the given component type T.">
<polygon fill="white" stroke="#666666" points="266,-120 157,-120 157,-88 266,-88 266,-120"/>
<text xml:space="preserve" text-anchor="start" x="165" y="-106.5" font-family="Helvetica,sans-Serif" font-size="10.00">ComponentRegistry::</text>
<text xml:space="preserve" text-anchor="middle" x="211.5" y="-94.5" font-family="Helvetica,sans-Serif" font-size="10.00">getOrCreateID</text>
</a>
</g>
</g>
<!-- Node1&#45;&gt;Node2 -->
<g id="edge1_Node000001_Node000002" class="edge">
<title>Node1&#45;&gt;Node2</title>
<g id="a_edge1_Node000001_Node000002"><a xlink:title=" ">
<path fill="none" stroke="#63b8ff" d="M79.77,-64.42C94.26,-68.93 111.46,-74.26 127,-79 133.12,-80.87 139.5,-82.8 145.88,-84.72"/>
<polygon fill="#63b8ff" stroke="#63b8ff" points="144.54,-87.98 155.13,-87.51 146.56,-81.27 144.54,-87.98"/>
</a>
</g>
</g>
<!-- Node4 -->
<g id="Node000004" class="node">
<title>Node4</title>
<g id="a_Node000004"><a xlink:href="classComponentRegistry.html#a18cad5dda10f4bb28fb6933f5aa85fce" target="_top" xlink:title="Provides access to the global ComponentRegistry instance.">
<polygon fill="white" stroke="#666666" points="266,-70 157,-70 157,-38 266,-38 266,-70"/>
<text xml:space="preserve" text-anchor="start" x="165" y="-56.5" font-family="Helvetica,sans-Serif" font-size="10.00">ComponentRegistry::</text>
<text xml:space="preserve" text-anchor="middle" x="211.5" y="-44.5" font-family="Helvetica,sans-Serif" font-size="10.00">instance</text>
</a>
</g>
</g>
<!-- Node1&#45;&gt;Node4 -->
<g id="edge3_Node000001_Node000004" class="edge">
<title>Node1&#45;&gt;Node4</title>
<g id="a_edge3_Node000001_Node000004"><a xlink:title=" ">
<path fill="none" stroke="#63b8ff" d="M91.31,-54C107.96,-54 127.21,-54 145.31,-54"/>
<polygon fill="#63b8ff" stroke="#63b8ff" points="145.19,-57.5 155.19,-54 145.19,-50.5 145.19,-57.5"/>
</a>
</g>
</g>
<!-- Node6 -->
<g id="Node000006" class="node">
<title>Node6</title>
<g id="a_Node000006"><a xlink:href="classRegistry.html#a45f5c5548ea374a04a46308b2e1c5455" target="_top" xlink:title="Updates which systems are active based on available component types.">
<polygon fill="white" stroke="#666666" points="296,-20 127,-20 127,0 296,0 296,-20"/>
<text xml:space="preserve" text-anchor="middle" x="211.5" y="-6.5" font-family="Helvetica,sans-Serif" font-size="10.00">Registry::updateSystemAvailability</text>
</a>
</g>
</g>
<!-- Node1&#45;&gt;Node6 -->
<g id="edge5_Node000001_Node000006" class="edge">
<title>Node1&#45;&gt;Node6</title>
<g id="a_edge5_Node000001_Node000006"><a xlink:title=" ">
<path fill="none" stroke="#63b8ff" d="M78.07,-43.58C92.85,-38.85 110.75,-33.37 127,-29 134.61,-26.96 142.65,-24.94 150.62,-23.04"/>
<polygon fill="#63b8ff" stroke="#63b8ff" points="151.36,-26.46 160.3,-20.77 149.77,-19.64 151.36,-26.46"/>
</a>
</g>
</g>
<!-- Node3 -->
<g id="Node000003" class="node">
<title>Node3</title>
<g id="a_Node000003"><a xlink:href="classComponentRegistry.html#ab1cc8a486cae16a19268264c69f9af80" target="_top" xlink:title="Computes a new unique ID for a type T, or returns the existing one.">
<polygon fill="white" stroke="#666666" points="441,-120 332,-120 332,-88 441,-88 441,-120"/>
<text xml:space="preserve" text-anchor="start" x="340" y="-106.5" font-family="Helvetica,sans-Serif" font-size="10.00">ComponentRegistry::</text>
<text xml:space="preserve" text-anchor="middle" x="386.5" y="-94.5" font-family="Helvetica,sans-Serif" font-size="10.00">computeID</text>
</a>
</g>
</g>
<!-- Node2&#45;&gt;Node3 -->
<g id="edge2_Node000002_Node000003" class="edge">
<title>Node2&#45;&gt;Node3</title>
<g id="a_edge2_Node000002_Node000003"><a xlink:title=" ">
<path fill="none" stroke="#63b8ff" d="M266.29,-104C283.38,-104 302.46,-104 320.26,-104"/>
<polygon fill="#63b8ff" stroke="#63b8ff" points="320.23,-107.5 330.23,-104 320.23,-100.5 320.23,-107.5"/>
</a>
</g>
</g>
<!-- Node5 -->
<g id="Node000005" class="node">
<title>Node5</title>
<g id="a_Node000005"><a xlink:href="classComponentRegistry.html#a3bbfefb19e284845afb80ce0a4dd739a" target="_top" xlink:title="Private constructor for singleton pattern. Initializes internal containers with reserved capacity.">
<polygon fill="white" stroke="#666666" points="441,-70 332,-70 332,-38 441,-38 441,-70"/>
<text xml:space="preserve" text-anchor="start" x="340" y="-56.5" font-family="Helvetica,sans-Serif" font-size="10.00">ComponentRegistry::</text>
<text xml:space="preserve" text-anchor="middle" x="386.5" y="-44.5" font-family="Helvetica,sans-Serif" font-size="10.00">ComponentRegistry</text>
</a>
</g>
</g>
<!-- Node4&#45;&gt;Node5 -->
<g id="edge4_Node000004_Node000005" class="edge">
<title>Node4&#45;&gt;Node5</title>
<g id="a_edge4_Node000004_Node000005"><a xlink:title=" ">
<path fill="none" stroke="#63b8ff" d="M266.29,-54C283.38,-54 302.46,-54 320.26,-54"/>
<polygon fill="#63b8ff" stroke="#63b8ff" points="320.23,-57.5 330.23,-54 320.23,-50.5 320.23,-57.5"/>
</a>
</g>
</g>
</g>
</svg>
