<?xml version="1.0" encoding="UTF-8" standalone="no"?>
<!DOCTYPE svg PUBLIC "-//W3C//DTD SVG 1.1//EN"
 "http://www.w3.org/Graphics/SVG/1.1/DTD/svg11.dtd">
<!-- Generated by graphviz version 14.0.1 (0)
 -->
<!-- Title: Registry::count Pages: 1 -->
<svg width="381pt" height="90pt"
 viewBox="0.00 0.00 381.00 90.00" xmlns="http://www.w3.org/2000/svg" xmlns:xlink="http://www.w3.org/1999/xlink">
<g id="graph0" class="graph" transform="scale(1 1) rotate(0) translate(4 86)">
<title>Registry::count</title>
<!-- Node1 -->
<g id="Node000001" class="node">
<title>Node1</title>
<g id="a_Node000001"><a xlink:title="Counts how many components of type Component currently exist.">
<polygon fill="#999999" stroke="#666666" points="82.75,-51 0,-51 0,-31 82.75,-31 82.75,-51"/>
<text xml:space="preserve" text-anchor="middle" x="41.38" y="-37.5" font-family="Helvetica,sans-Serif" font-size="10.00">Registry::count</text>
</a>
</g>
</g>
<!-- Node2 -->
<g id="Node000002" class="node">
<title>Node2</title>
<g id="a_Node000002"><a xlink:href="classComponentRegistry.html#a4d993c2bab87c6bdac36ba8f589eca5f" target="_top" xlink:title="Retrieves or creates a unique ID for the given component type T.">
<polygon fill="white" stroke="#666666" points="227.75,-82 118.75,-82 118.75,-50 227.75,-50 227.75,-82"/>
<text xml:space="preserve" text-anchor="start" x="126.75" y="-68.5" font-family="Helvetica,sans-Serif" font-size="10.00">ComponentRegistry::</text>
<text xml:space="preserve" text-anchor="middle" x="173.25" y="-56.5" font-family="Helvetica,sans-Serif" font-size="10.00">getOrCreateID</text>
</a>
</g>
</g>
<!-- Node1&#45;&gt;Node2 -->
<g id="edge1_Node000001_Node000002" class="edge">
<title>Node1&#45;&gt;Node2</title>
<g id="a_edge1_Node000001_Node000002"><a xlink:title=" ">
<path fill="none" stroke="#63b8ff" d="M83.11,-48.84C90.78,-50.32 98.98,-51.9 107.18,-53.47"/>
<polygon fill="#63b8ff" stroke="#63b8ff" points="106.35,-56.88 116.83,-55.33 107.67,-50 106.35,-56.88"/>
</a>
</g>
</g>
<!-- Node4 -->
<g id="Node000004" class="node">
<title>Node4</title>
<g id="a_Node000004"><a xlink:href="classComponentRegistry.html#a18cad5dda10f4bb28fb6933f5aa85fce" target="_top" xlink:title="Provides access to the global ComponentRegistry instance.">
<polygon fill="white" stroke="#666666" points="227.75,-32 118.75,-32 118.75,0 227.75,0 227.75,-32"/>
<text xml:space="preserve" text-anchor="start" x="126.75" y="-18.5" font-family="Helvetica,sans-Serif" font-size="10.00">ComponentRegistry::</text>
<text xml:space="preserve" text-anchor="middle" x="173.25" y="-6.5" font-family="Helvetica,sans-Serif" font-size="10.00">instance</text>
</a>
</g>
</g>
<!-- Node1&#45;&gt;Node4 -->
<g id="edge3_Node000001_Node000004" class="edge">
<title>Node1&#45;&gt;Node4</title>
<g id="a_edge3_Node000001_Node000004"><a xlink:title=" ">
<path fill="none" stroke="#63b8ff" d="M83.11,-33.16C90.78,-31.68 98.98,-30.1 107.18,-28.53"/>
<polygon fill="#63b8ff" stroke="#63b8ff" points="107.67,-32 116.83,-26.67 106.35,-25.12 107.67,-32"/>
</a>
</g>
</g>
<!-- Node3 -->
<g id="Node000003" class="node">
<title>Node3</title>
<g id="a_Node000003"><a xlink:href="classComponentRegistry.html#ab1cc8a486cae16a19268264c69f9af80" target="_top" xlink:title="Computes a new unique ID for a type T, or returns the existing one.">
<polygon fill="white" stroke="#666666" points="372.75,-82 263.75,-82 263.75,-50 372.75,-50 372.75,-82"/>
<text xml:space="preserve" text-anchor="start" x="271.75" y="-68.5" font-family="Helvetica,sans-Serif" font-size="10.00">ComponentRegistry::</text>
<text xml:space="preserve" text-anchor="middle" x="318.25" y="-56.5" font-family="Helvetica,sans-Serif" font-size="10.00">computeID</text>
</a>
</g>
</g>
<!-- Node2&#45;&gt;Node3 -->
<g id="edge2_Node000002_Node000003" class="edge">
<title>Node2&#45;&gt;Node3</title>
<g id="a_edge2_Node000002_Node000003"><a xlink:title=" ">
<path fill="none" stroke="#63b8ff" d="M227.9,-66C235.77,-66 243.94,-66 252.01,-66"/>
<polygon fill="#63b8ff" stroke="#63b8ff" points="251.78,-69.5 261.78,-66 251.78,-62.5 251.78,-69.5"/>
</a>
</g>
</g>
<!-- Node5 -->
<g id="Node000005" class="node">
<title>Node5</title>
<g id="a_Node000005"><a xlink:href="classComponentRegistry.html#a3bbfefb19e284845afb80ce0a4dd739a" target="_top" xlink:title="Private constructor for singleton pattern. Initializes internal containers with reserved capacity.">
<polygon fill="white" stroke="#666666" points="372.75,-32 263.75,-32 263.75,0 372.75,0 372.75,-32"/>
<text xml:space="preserve" text-anchor="start" x="271.75" y="-18.5" font-family="Helvetica,sans-Serif" font-size="10.00">ComponentRegistry::</text>
<text xml:space="preserve" text-anchor="middle" x="318.25" y="-6.5" font-family="Helvetica,sans-Serif" font-size="10.00">ComponentRegistry</text>
</a>
</g>
</g>
<!-- Node4&#45;&gt;Node5 -->
<g id="edge4_Node000004_Node000005" class="edge">
<title>Node4&#45;&gt;Node5</title>
<g id="a_edge4_Node000004_Node000005"><a xlink:title=" ">
<path fill="none" stroke="#63b8ff" d="M227.9,-16C235.77,-16 243.94,-16 252.01,-16"/>
<polygon fill="#63b8ff" stroke="#63b8ff" points="251.78,-19.5 261.78,-16 251.78,-12.5 251.78,-19.5"/>
</a>
</g>
</g>
</g>
</svg>
