<?xml version="1.0" encoding="UTF-8" standalone="no"?>
<!DOCTYPE svg PUBLIC "-//W3C//DTD SVG 1.1//EN"
 "http://www.w3.org/Graphics/SVG/1.1/DTD/svg11.dtd">
<!-- Generated by graphviz version 14.0.1 (0)
 -->
<!-- Title: ComponentRegistry::computeID Pages: 1 -->
<svg width="793pt" height="356pt"
 viewBox="0.00 0.00 793.00 356.00" xmlns="http://www.w3.org/2000/svg" xmlns:xlink="http://www.w3.org/1999/xlink">
<g id="graph0" class="graph" transform="scale(1 1) rotate(0) translate(4 352)">
<title>ComponentRegistry::computeID</title>
<!-- Node1 -->
<g id="Node000001" class="node">
<title>Node1</title>
<g id="a_Node000001"><a xlink:title="Computes a new unique ID for a type T, or returns the existing one.">
<polygon fill="#999999" stroke="#666666" points="785,-190 676,-190 676,-158 785,-158 785,-190"/>
<text xml:space="preserve" text-anchor="start" x="684" y="-176.5" font-family="Helvetica,sans-Serif" font-size="10.00">ComponentRegistry::</text>
<text xml:space="preserve" text-anchor="middle" x="730.5" y="-164.5" font-family="Helvetica,sans-Serif" font-size="10.00">computeID</text>
</a>
</g>
</g>
<!-- Node2 -->
<g id="Node000002" class="node">
<title>Node2</title>
<g id="a_Node000002"><a xlink:href="classComponentRegistry.html#a4d993c2bab87c6bdac36ba8f589eca5f" target="_top" xlink:title="Retrieves or creates a unique ID for the given component type T.">
<polygon fill="white" stroke="#666666" points="640,-190 531,-190 531,-158 640,-158 640,-190"/>
<text xml:space="preserve" text-anchor="start" x="539" y="-176.5" font-family="Helvetica,sans-Serif" font-size="10.00">ComponentRegistry::</text>
<text xml:space="preserve" text-anchor="middle" x="585.5" y="-164.5" font-family="Helvetica,sans-Serif" font-size="10.00">getOrCreateID</text>
</a>
</g>
</g>
<!-- Node1&#45;&gt;Node2 -->
<g id="edge1_Node000001_Node000002" class="edge">
<title>Node1&#45;&gt;Node2</title>
<g id="a_edge1_Node000001_Node000002"><a xlink:title=" ">
<path fill="none" stroke="#63b8ff" d="M664.56,-174C656.5,-174 648.33,-174 640.46,-174"/>
<polygon fill="#63b8ff" stroke="#63b8ff" points="664.33,-177.5 674.33,-174 664.33,-170.5 664.33,-177.5"/>
</a>
</g>
</g>
<!-- Node3 -->
<g id="Node000003" class="node">
<title>Node3</title>
<g id="a_Node000003"><a xlink:href="classRegistry.html#a7a17141d6ad949dbc4792cb638665226" target="_top" xlink:title="Counts how many components of type Component currently exist.">
<polygon fill="white" stroke="#666666" points="466.12,-336 383.38,-336 383.38,-316 466.12,-316 466.12,-336"/>
<text xml:space="preserve" text-anchor="middle" x="424.75" y="-322.5" font-family="Helvetica,sans-Serif" font-size="10.00">Registry::count</text>
</a>
</g>
</g>
<!-- Node2&#45;&gt;Node3 -->
<g id="edge2_Node000002_Node000003" class="edge">
<title>Node2&#45;&gt;Node3</title>
<g id="a_edge2_Node000002_Node000003"><a xlink:title=" ">
<path fill="none" stroke="#63b8ff" d="M573.58,-200.49C559.75,-230.77 533.04,-279.66 495,-307 486.6,-313.04 476.36,-317.16 466.37,-319.97"/>
<polygon fill="#63b8ff" stroke="#63b8ff" points="576.66,-202.2 577.49,-191.64 570.25,-199.38 576.66,-202.2"/>
</a>
</g>
</g>
<!-- Node4 -->
<g id="Node000004" class="node">
<title>Node4</title>
<g id="a_Node000004"><a xlink:href="classRegistry.html#a31cfb49fd633086383bf646b39a8daa2" target="_top" xlink:title="Iterates through all entities that have all the specified components.">
<polygon fill="white" stroke="#666666" points="287.75,-222 208,-222 208,-202 287.75,-202 287.75,-222"/>
<text xml:space="preserve" text-anchor="middle" x="247.88" y="-208.5" font-family="Helvetica,sans-Serif" font-size="10.00">Registry::each</text>
</a>
</g>
</g>
<!-- Node2&#45;&gt;Node4 -->
<g id="edge3_Node000002_Node000004" class="edge">
<title>Node2&#45;&gt;Node4</title>
<g id="a_edge3_Node000002_Node000004"><a xlink:title=" ">
<path fill="none" stroke="#63b8ff" d="M557.16,-197.23C540.4,-209.91 517.83,-224.35 495,-231 422.38,-252.16 332.9,-235.11 284.33,-222.48"/>
<polygon fill="#63b8ff" stroke="#63b8ff" points="558.93,-200.28 564.64,-191.36 554.61,-194.78 558.93,-200.28"/>
</a>
</g>
</g>
<!-- Node7 -->
<g id="Node000007" class="node">
<title>Node7</title>
<g id="a_Node000007"><a xlink:href="classRegistry.html#ab12b0e856e109cd94af4aeb5e969de24" target="_top" xlink:title="Adds a new component of type Component to entity e.">
<polygon fill="white" stroke="#666666" points="295.62,-184 200.12,-184 200.12,-164 295.62,-164 295.62,-184"/>
<text xml:space="preserve" text-anchor="middle" x="247.88" y="-170.5" font-family="Helvetica,sans-Serif" font-size="10.00">Registry::emplace</text>
</a>
</g>
</g>
<!-- Node2&#45;&gt;Node7 -->
<g id="edge6_Node000002_Node000007" class="edge">
<title>Node2&#45;&gt;Node7</title>
<g id="a_edge6_Node000002_Node000007"><a xlink:title=" ">
<path fill="none" stroke="#63b8ff" d="M519.14,-174C453.54,-174 354.09,-174 295.89,-174"/>
<polygon fill="#63b8ff" stroke="#63b8ff" points="519.06,-177.5 529.06,-174 519.06,-170.5 519.06,-177.5"/>
</a>
</g>
</g>
<!-- Node8 -->
<g id="Node000008" class="node">
<title>Node8</title>
<g id="a_Node000008"><a xlink:href="classRegistry.html#a11f1e4d7d7ef1a84640adddf32c1f862" target="_top" xlink:title="Gets a reference to a component of type Component for entity e.">
<polygon fill="white" stroke="#666666" points="460.88,-298 388.62,-298 388.62,-278 460.88,-278 460.88,-298"/>
<text xml:space="preserve" text-anchor="middle" x="424.75" y="-284.5" font-family="Helvetica,sans-Serif" font-size="10.00">Registry::get</text>
</a>
</g>
</g>
<!-- Node2&#45;&gt;Node8 -->
<g id="edge8_Node000002_Node000008" class="edge">
<title>Node2&#45;&gt;Node8</title>
<g id="a_edge8_Node000002_Node000008"><a xlink:title=" ">
<path fill="none" stroke="#63b8ff" d="M565.06,-199.08C548.38,-219.1 522.71,-246.59 495,-264 484.76,-270.43 472.59,-275.39 461.32,-279.09"/>
<polygon fill="#63b8ff" stroke="#63b8ff" points="567.73,-201.34 571.33,-191.37 562.3,-196.92 567.73,-201.34"/>
</a>
</g>
</g>
<!-- Node10 -->
<g id="Node000010" class="node">
<title>Node10</title>
<g id="a_Node000010"><a xlink:href="classRegistry.html#ac846fa6831fe9b792391b36fa8572d1d" target="_top" xlink:title="Const version of get().">
<polygon fill="white" stroke="#666666" points="460.88,-146 388.62,-146 388.62,-126 460.88,-126 460.88,-146"/>
<text xml:space="preserve" text-anchor="middle" x="424.75" y="-132.5" font-family="Helvetica,sans-Serif" font-size="10.00">Registry::get</text>
</a>
</g>
</g>
<!-- Node2&#45;&gt;Node10 -->
<g id="edge14_Node000002_Node000010" class="edge">
<title>Node2&#45;&gt;Node10</title>
<g id="a_edge14_Node000002_Node000010"><a xlink:title=" ">
<path fill="none" stroke="#63b8ff" d="M519.76,-158.5C499.66,-153.69 478.27,-148.57 460.98,-144.43"/>
<polygon fill="#63b8ff" stroke="#63b8ff" points="518.74,-161.86 529.28,-160.78 520.37,-155.05 518.74,-161.86"/>
</a>
</g>
</g>
<!-- Node11 -->
<g id="Node000011" class="node">
<title>Node11</title>
<g id="a_Node000011"><a xlink:href="classRegistry.html#acac1f1c8a740cfeb2b33a32cfd6ad83f" target="_top" xlink:title="Checks if entity e has a component of type Component.">
<polygon fill="white" stroke="#666666" points="462,-222 387.5,-222 387.5,-202 462,-202 462,-222"/>
<text xml:space="preserve" text-anchor="middle" x="424.75" y="-208.5" font-family="Helvetica,sans-Serif" font-size="10.00">Registry::has</text>
</a>
</g>
</g>
<!-- Node2&#45;&gt;Node11 -->
<g id="edge15_Node000002_Node000011" class="edge">
<title>Node2&#45;&gt;Node11</title>
<g id="a_edge15_Node000002_Node000011"><a xlink:title=" ">
<path fill="none" stroke="#63b8ff" d="M519.75,-189.5C500.21,-194.18 479.46,-199.14 462.43,-203.22"/>
<polygon fill="#63b8ff" stroke="#63b8ff" points="520.37,-192.95 529.28,-187.22 518.74,-186.14 520.37,-192.95"/>
</a>
</g>
</g>
<!-- Node12 -->
<g id="Node000012" class="node">
<title>Node12</title>
<g id="a_Node000012"><a xlink:href="classRegistry.html#a629e3280396e2e8cc06434895e746639" target="_top" xlink:title="Removes a component of type Component from entity e.">
<polygon fill="white" stroke="#666666" points="470.25,-108 379.25,-108 379.25,-88 470.25,-88 470.25,-108"/>
<text xml:space="preserve" text-anchor="middle" x="424.75" y="-94.5" font-family="Helvetica,sans-Serif" font-size="10.00">Registry::remove</text>
</a>
</g>
</g>
<!-- Node2&#45;&gt;Node12 -->
<g id="edge17_Node000002_Node000012" class="edge">
<title>Node2&#45;&gt;Node12</title>
<g id="a_edge17_Node000002_Node000012"><a xlink:title=" ">
<path fill="none" stroke="#63b8ff" d="M553.51,-151C536.85,-139.49 515.55,-126.12 495,-117 487.25,-113.56 478.73,-110.61 470.4,-108.13"/>
<polygon fill="#63b8ff" stroke="#63b8ff" points="551.32,-153.74 561.51,-156.64 555.35,-148.02 551.32,-153.74"/>
</a>
</g>
</g>
<!-- Node13 -->
<g id="Node000013" class="node">
<title>Node13</title>
<g id="a_Node000013"><a xlink:href="classSystem.html#a3debf9a0bb97844f19da1c818d4dd3e3" target="_top" xlink:title="Declares required components using their names as strings.">
<polygon fill="white" stroke="#666666" points="495,-70 354.5,-70 354.5,-38 495,-38 495,-70"/>
<text xml:space="preserve" text-anchor="start" x="362.5" y="-56.5" font-family="Helvetica,sans-Serif" font-size="10.00">System::requireComponents</text>
<text xml:space="preserve" text-anchor="middle" x="424.75" y="-44.5" font-family="Helvetica,sans-Serif" font-size="10.00">ByName</text>
</a>
</g>
</g>
<!-- Node2&#45;&gt;Node13 -->
<g id="edge18_Node000002_Node000013" class="edge">
<title>Node2&#45;&gt;Node13</title>
<g id="a_edge18_Node000002_Node000013"><a xlink:title=" ">
<path fill="none" stroke="#63b8ff" d="M566.08,-148.59C549.57,-127.41 523.58,-97.76 495,-79 490.08,-75.77 484.7,-72.9 479.17,-70.36"/>
<polygon fill="#63b8ff" stroke="#63b8ff" points="563.22,-150.62 572.06,-156.46 568.8,-146.38 563.22,-150.62"/>
</a>
</g>
</g>
<!-- Node14 -->
<g id="Node000014" class="node">
<title>Node14</title>
<g id="a_Node000014"><a xlink:href="classRegistry.html#a864a9feb3c9cffc43296ae8bb1aa2e3a" target="_top" xlink:title="Returns a reference to the SparseSet storing all components of type Component.">
<polygon fill="white" stroke="#666666" points="464.25,-20 385.25,-20 385.25,0 464.25,0 464.25,-20"/>
<text xml:space="preserve" text-anchor="middle" x="424.75" y="-6.5" font-family="Helvetica,sans-Serif" font-size="10.00">Registry::view</text>
</a>
</g>
</g>
<!-- Node2&#45;&gt;Node14 -->
<g id="edge19_Node000002_Node000014" class="edge">
<title>Node2&#45;&gt;Node14</title>
<g id="a_edge19_Node000002_Node000014"><a xlink:title=" ">
<path fill="none" stroke="#63b8ff" d="M575.01,-147.12C562.05,-114.31 535.67,-59.46 495,-29 486.22,-22.42 475.29,-18.12 464.73,-15.31"/>
<polygon fill="#63b8ff" stroke="#63b8ff" points="571.68,-148.21 578.5,-156.31 578.23,-145.72 571.68,-148.21"/>
</a>
</g>
</g>
<!-- Node5 -->
<g id="Node000005" class="node">
<title>Node5</title>
<g id="a_Node000005"><a xlink:href="classGameEngine_1_1InputHandlerSystem.html#a56d9f3bab8680fee7d15423028e046b9" target="_top" xlink:title=" ">
<polygon fill="white" stroke="#666666" points="137.5,-228 3.75,-228 3.75,-196 137.5,-196 137.5,-228"/>
<text xml:space="preserve" text-anchor="start" x="11.75" y="-214.5" font-family="Helvetica,sans-Serif" font-size="10.00">GameEngine::InputHandler</text>
<text xml:space="preserve" text-anchor="middle" x="70.62" y="-202.5" font-family="Helvetica,sans-Serif" font-size="10.00">System::onUpdate</text>
</a>
</g>
</g>
<!-- Node4&#45;&gt;Node5 -->
<g id="edge4_Node000004_Node000005" class="edge">
<title>Node4&#45;&gt;Node5</title>
<g id="a_edge4_Node000004_Node000005"><a xlink:title=" ">
<path fill="none" stroke="#63b8ff" d="M196.25,-212C177.97,-212 157.06,-212 137.66,-212"/>
<polygon fill="#63b8ff" stroke="#63b8ff" points="196.03,-215.5 206.03,-212 196.03,-208.5 196.03,-215.5"/>
</a>
</g>
</g>
<!-- Node6 -->
<g id="Node000006" class="node">
<title>Node6</title>
<g id="a_Node000006"><a xlink:href="classGameEngine_1_1MotionSystem.html#a5c82b0f76ecf7fdef391014a16bd06fb" target="_top" xlink:title=" ">
<polygon fill="white" stroke="#666666" points="141.25,-304 0,-304 0,-272 141.25,-272 141.25,-304"/>
<text xml:space="preserve" text-anchor="start" x="8" y="-290.5" font-family="Helvetica,sans-Serif" font-size="10.00">GameEngine::MotionSystem</text>
<text xml:space="preserve" text-anchor="middle" x="70.62" y="-278.5" font-family="Helvetica,sans-Serif" font-size="10.00">::onUpdate</text>
</a>
</g>
</g>
<!-- Node4&#45;&gt;Node6 -->
<g id="edge5_Node000004_Node000006" class="edge">
<title>Node4&#45;&gt;Node6</title>
<g id="a_edge5_Node000004_Node000006"><a xlink:title=" ">
<path fill="none" stroke="#63b8ff" d="M212.59,-226.87C182.92,-239.73 140.1,-258.31 109.44,-271.6"/>
<polygon fill="#63b8ff" stroke="#63b8ff" points="213.7,-230.2 221.49,-223.01 210.92,-223.78 213.7,-230.2"/>
</a>
</g>
</g>
<!-- Node7&#45;&gt;Node5 -->
<g id="edge7_Node000007_Node000005" class="edge">
<title>Node7&#45;&gt;Node5</title>
<g id="a_edge7_Node000007_Node000005"><a xlink:title=" ">
<path fill="none" stroke="#63b8ff" d="M188.87,-186.58C172.52,-190.12 154.62,-194 137.82,-197.65"/>
<polygon fill="#63b8ff" stroke="#63b8ff" points="189.4,-190.04 198.43,-184.5 187.92,-183.2 189.4,-190.04"/>
</a>
</g>
</g>
<!-- Node8&#45;&gt;Node4 -->
<g id="edge11_Node000008_Node000004" class="edge">
<title>Node8&#45;&gt;Node4</title>
<g id="a_edge11_Node000008_Node000004"><a xlink:title=" ">
<path fill="none" stroke="#63b8ff" d="M377.63,-274.39C369.72,-271.39 361.73,-267.92 354.5,-264 336.69,-254.33 336.32,-245.66 318.5,-236 308.49,-230.58 297.03,-226.03 286.33,-222.39"/>
<polygon fill="#63b8ff" stroke="#63b8ff" points="376.26,-277.62 386.86,-277.68 378.61,-271.03 376.26,-277.62"/>
</a>
</g>
</g>
<!-- Node8&#45;&gt;Node5 -->
<g id="edge12_Node000008_Node000005" class="edge">
<title>Node8&#45;&gt;Node5</title>
<g id="a_edge12_Node000008_Node000005"><a xlink:title=" ">
<path fill="none" stroke="#63b8ff" d="M377.5,-278.02C316.2,-264.79 207.67,-241.36 137.74,-226.27"/>
<polygon fill="#63b8ff" stroke="#63b8ff" points="376.38,-281.36 386.9,-280.05 377.86,-274.51 376.38,-281.36"/>
</a>
</g>
</g>
<!-- Node8&#45;&gt;Node6 -->
<g id="edge13_Node000008_Node000006" class="edge">
<title>Node8&#45;&gt;Node6</title>
<g id="a_edge13_Node000008_Node000006"><a xlink:title=" ">
<path fill="none" stroke="#63b8ff" d="M376.93,-288C316.61,-288 211.22,-288 141.43,-288"/>
<polygon fill="#63b8ff" stroke="#63b8ff" points="376.86,-291.5 386.86,-288 376.86,-284.5 376.86,-291.5"/>
</a>
</g>
</g>
<!-- Node9 -->
<g id="Node000009" class="node">
<title>Node9</title>
<g id="a_Node000009"><a xlink:href="classGameEngine_1_1MotionSystem.html#a2bde704857c323ba1547d6ee0cebb6f4" target="_top" xlink:title="Checks and resolves a collision between two entities.">
<polygon fill="white" stroke="#666666" points="318.5,-348 177.25,-348 177.25,-316 318.5,-316 318.5,-348"/>
<text xml:space="preserve" text-anchor="start" x="185.25" y="-334.5" font-family="Helvetica,sans-Serif" font-size="10.00">GameEngine::MotionSystem</text>
<text xml:space="preserve" text-anchor="middle" x="247.88" y="-322.5" font-family="Helvetica,sans-Serif" font-size="10.00">::collide</text>
</a>
</g>
</g>
<!-- Node8&#45;&gt;Node9 -->
<g id="edge9_Node000008_Node000009" class="edge">
<title>Node8&#45;&gt;Node9</title>
<g id="a_edge9_Node000008_Node000009"><a xlink:title=" ">
<path fill="none" stroke="#63b8ff" d="M377.42,-299.66C358.08,-304.52 335.27,-310.26 314.28,-315.54"/>
<polygon fill="#63b8ff" stroke="#63b8ff" points="378.05,-303.11 386.89,-297.27 376.34,-296.32 378.05,-303.11"/>
</a>
</g>
</g>
<!-- Node9&#45;&gt;Node6 -->
<g id="edge10_Node000009_Node000006" class="edge">
<title>Node9&#45;&gt;Node6</title>
<g id="a_edge10_Node000009_Node000006"><a xlink:title=" ">
<path fill="none" stroke="#63b8ff" d="M170.61,-312.85C159.48,-310.06 148.11,-307.2 137.23,-304.47"/>
<polygon fill="#63b8ff" stroke="#63b8ff" points="169.6,-316.21 180.15,-315.25 171.3,-309.42 169.6,-316.21"/>
</a>
</g>
</g>
<!-- Node11&#45;&gt;Node4 -->
<g id="edge16_Node000011_Node000004" class="edge">
<title>Node11&#45;&gt;Node4</title>
<g id="a_edge16_Node000011_Node000004"><a xlink:title=" ">
<path fill="none" stroke="#63b8ff" d="M375.75,-212C348.24,-212 314.14,-212 288.22,-212"/>
<polygon fill="#63b8ff" stroke="#63b8ff" points="375.58,-215.5 385.58,-212 375.58,-208.5 375.58,-215.5"/>
</a>
</g>
</g>
</g>
</svg>
