<?xml version="1.0" encoding="UTF-8" standalone="no"?>
<!DOCTYPE svg PUBLIC "-//W3C//DTD SVG 1.1//EN"
 "http://www.w3.org/Graphics/SVG/1.1/DTD/svg11.dtd">
<!-- Generated by graphviz version 14.0.1 (0)
 -->
<!-- Title: Registry::emplace Pages: 1 -->
<svg width="454pt" height="166pt"
 viewBox="0.00 0.00 454.00 166.00" xmlns="http://www.w3.org/2000/svg" xmlns:xlink="http://www.w3.org/1999/xlink">
<g id="graph0" class="graph" transform="scale(1 1) rotate(0) translate(4 162)">
<title>Registry::emplace</title>
<!-- Node1 -->
<g id="Node000001" class="node">
<title>Node1</title>
<g id="a_Node000001"><a xlink:title="Adds a new component of type Component to entity e.">
<polygon fill="#999999" stroke="#666666" points="95.5,-89 0,-89 0,-69 95.5,-69 95.5,-89"/>
<text xml:space="preserve" text-anchor="middle" x="47.75" y="-75.5" font-family="Helvetica,sans-Serif" font-size="10.00">Registry::emplace</text>
</a>
</g>
</g>
<!-- Node2 -->
<g id="Node000002" class="node">
<title>Node2</title>
<g id="a_Node000002"><a xlink:href="classRegistry.html#acd4bfce3db63792e03b353900dc89f76" target="_top" xlink:title="Ensures that a component pool exists for the given component ID. Creates it if necessary.">
<polygon fill="white" stroke="#666666" points="269.75,-158 162.25,-158 162.25,-138 269.75,-138 269.75,-158"/>
<text xml:space="preserve" text-anchor="middle" x="216" y="-144.5" font-family="Helvetica,sans-Serif" font-size="10.00">Registry::assurePool</text>
</a>
</g>
</g>
<!-- Node1&#45;&gt;Node2 -->
<g id="edge1_Node000001_Node000002" class="edge">
<title>Node1&#45;&gt;Node2</title>
<g id="a_edge1_Node000001_Node000002"><a xlink:title=" ">
<path fill="none" stroke="#63b8ff" d="M62.66,-89.33C78.54,-100.64 105.66,-118.57 131.5,-129 137.83,-131.56 144.58,-133.81 151.39,-135.78"/>
<polygon fill="#63b8ff" stroke="#63b8ff" points="150.07,-139.05 160.64,-138.26 151.89,-132.29 150.07,-139.05"/>
</a>
</g>
</g>
<!-- Node3 -->
<g id="Node000003" class="node">
<title>Node3</title>
<g id="a_Node000003"><a xlink:href="classComponentRegistry.html#a4d993c2bab87c6bdac36ba8f589eca5f" target="_top" xlink:title="Retrieves or creates a unique ID for the given component type T.">
<polygon fill="white" stroke="#666666" points="270.5,-120 161.5,-120 161.5,-88 270.5,-88 270.5,-120"/>
<text xml:space="preserve" text-anchor="start" x="169.5" y="-106.5" font-family="Helvetica,sans-Serif" font-size="10.00">ComponentRegistry::</text>
<text xml:space="preserve" text-anchor="middle" x="216" y="-94.5" font-family="Helvetica,sans-Serif" font-size="10.00">getOrCreateID</text>
</a>
</g>
</g>
<!-- Node1&#45;&gt;Node3 -->
<g id="edge2_Node000001_Node000003" class="edge">
<title>Node1&#45;&gt;Node3</title>
<g id="a_edge2_Node000001_Node000003"><a xlink:title=" ">
<path fill="none" stroke="#63b8ff" d="M95.95,-86.1C112.72,-88.62 131.91,-91.51 149.92,-94.21"/>
<polygon fill="#63b8ff" stroke="#63b8ff" points="149.33,-97.66 159.74,-95.69 150.37,-90.74 149.33,-97.66"/>
</a>
</g>
</g>
<!-- Node5 -->
<g id="Node000005" class="node">
<title>Node5</title>
<g id="a_Node000005"><a xlink:href="classComponentRegistry.html#a18cad5dda10f4bb28fb6933f5aa85fce" target="_top" xlink:title="Provides access to the global ComponentRegistry instance.">
<polygon fill="white" stroke="#666666" points="270.5,-70 161.5,-70 161.5,-38 270.5,-38 270.5,-70"/>
<text xml:space="preserve" text-anchor="start" x="169.5" y="-56.5" font-family="Helvetica,sans-Serif" font-size="10.00">ComponentRegistry::</text>
<text xml:space="preserve" text-anchor="middle" x="216" y="-44.5" font-family="Helvetica,sans-Serif" font-size="10.00">instance</text>
</a>
</g>
</g>
<!-- Node1&#45;&gt;Node5 -->
<g id="edge4_Node000001_Node000005" class="edge">
<title>Node1&#45;&gt;Node5</title>
<g id="a_edge4_Node000001_Node000005"><a xlink:title=" ">
<path fill="none" stroke="#63b8ff" d="M95.95,-71.9C112.72,-69.38 131.91,-66.49 149.92,-63.79"/>
<polygon fill="#63b8ff" stroke="#63b8ff" points="150.37,-67.26 159.74,-62.31 149.33,-60.34 150.37,-67.26"/>
</a>
</g>
</g>
<!-- Node7 -->
<g id="Node000007" class="node">
<title>Node7</title>
<g id="a_Node000007"><a xlink:href="classRegistry.html#a45f5c5548ea374a04a46308b2e1c5455" target="_top" xlink:title="Updates which systems are active based on available component types.">
<polygon fill="white" stroke="#666666" points="300.5,-20 131.5,-20 131.5,0 300.5,0 300.5,-20"/>
<text xml:space="preserve" text-anchor="middle" x="216" y="-6.5" font-family="Helvetica,sans-Serif" font-size="10.00">Registry::updateSystemAvailability</text>
</a>
</g>
</g>
<!-- Node1&#45;&gt;Node7 -->
<g id="edge6_Node000001_Node000007" class="edge">
<title>Node1&#45;&gt;Node7</title>
<g id="a_edge6_Node000001_Node000007"><a xlink:title=" ">
<path fill="none" stroke="#63b8ff" d="M62.66,-68.67C78.54,-57.36 105.66,-39.43 131.5,-29 136.41,-27.02 141.57,-25.22 146.82,-23.59"/>
<polygon fill="#63b8ff" stroke="#63b8ff" points="147.55,-27.02 156.2,-20.9 145.62,-20.29 147.55,-27.02"/>
</a>
</g>
</g>
<!-- Node4 -->
<g id="Node000004" class="node">
<title>Node4</title>
<g id="a_Node000004"><a xlink:href="classComponentRegistry.html#ab1cc8a486cae16a19268264c69f9af80" target="_top" xlink:title="Computes a new unique ID for a type T, or returns the existing one.">
<polygon fill="white" stroke="#666666" points="445.5,-120 336.5,-120 336.5,-88 445.5,-88 445.5,-120"/>
<text xml:space="preserve" text-anchor="start" x="344.5" y="-106.5" font-family="Helvetica,sans-Serif" font-size="10.00">ComponentRegistry::</text>
<text xml:space="preserve" text-anchor="middle" x="391" y="-94.5" font-family="Helvetica,sans-Serif" font-size="10.00">computeID</text>
</a>
</g>
</g>
<!-- Node3&#45;&gt;Node4 -->
<g id="edge3_Node000003_Node000004" class="edge">
<title>Node3&#45;&gt;Node4</title>
<g id="a_edge3_Node000003_Node000004"><a xlink:title=" ">
<path fill="none" stroke="#63b8ff" d="M270.79,-104C287.88,-104 306.96,-104 324.76,-104"/>
<polygon fill="#63b8ff" stroke="#63b8ff" points="324.73,-107.5 334.73,-104 324.73,-100.5 324.73,-107.5"/>
</a>
</g>
</g>
<!-- Node6 -->
<g id="Node000006" class="node">
<title>Node6</title>
<g id="a_Node000006"><a xlink:href="classComponentRegistry.html#a3bbfefb19e284845afb80ce0a4dd739a" target="_top" xlink:title="Private constructor for singleton pattern. Initializes internal containers with reserved capacity.">
<polygon fill="white" stroke="#666666" points="445.5,-70 336.5,-70 336.5,-38 445.5,-38 445.5,-70"/>
<text xml:space="preserve" text-anchor="start" x="344.5" y="-56.5" font-family="Helvetica,sans-Serif" font-size="10.00">ComponentRegistry::</text>
<text xml:space="preserve" text-anchor="middle" x="391" y="-44.5" font-family="Helvetica,sans-Serif" font-size="10.00">ComponentRegistry</text>
</a>
</g>
</g>
<!-- Node5&#45;&gt;Node6 -->
<g id="edge5_Node000005_Node000006" class="edge">
<title>Node5&#45;&gt;Node6</title>
<g id="a_edge5_Node000005_Node000006"><a xlink:title=" ">
<path fill="none" stroke="#63b8ff" d="M270.79,-54C287.88,-54 306.96,-54 324.76,-54"/>
<polygon fill="#63b8ff" stroke="#63b8ff" points="324.73,-57.5 334.73,-54 324.73,-50.5 324.73,-57.5"/>
</a>
</g>
</g>
</g>
</svg>
