<?xml version="1.0" encoding="UTF-8" standalone="no"?>
<!DOCTYPE svg PUBLIC "-//W3C//DTD SVG 1.1//EN"
 "http://www.w3.org/Graphics/SVG/1.1/DTD/svg11.dtd">
<!-- Generated by graphviz version 14.0.1 (0)
 -->
<!-- Title: Registry::each Pages: 1 -->
<svg width="545pt" height="280pt"
 viewBox="0.00 0.00 545.00 280.00" xmlns="http://www.w3.org/2000/svg" xmlns:xlink="http://www.w3.org/1999/xlink">
<g id="graph0" class="graph" transform="scale(1 1) rotate(0) translate(4 276)">
<title>Registry::each</title>
<!-- Node1 -->
<g id="Node000001" class="node">
<title>Node1</title>
<g id="a_Node000001"><a xlink:title="Iterates through all entities that have all the specified components.">
<polygon fill="#999999" stroke="#666666" points="79.75,-158 0,-158 0,-138 79.75,-138 79.75,-158"/>
<text xml:space="preserve" text-anchor="middle" x="39.88" y="-144.5" font-family="Helvetica,sans-Serif" font-size="10.00">Registry::each</text>
</a>
</g>
</g>
<!-- Node2 -->
<g id="Node000002" class="node">
<title>Node2</title>
<g id="a_Node000002"><a xlink:href="classRegistry.html#acd4bfce3db63792e03b353900dc89f76" target="_top" xlink:title="Ensures that a component pool exists for the given component ID. Creates it if necessary.">
<polygon fill="white" stroke="#666666" points="235.25,-272 127.75,-272 127.75,-252 235.25,-252 235.25,-272"/>
<text xml:space="preserve" text-anchor="middle" x="181.5" y="-258.5" font-family="Helvetica,sans-Serif" font-size="10.00">Registry::assurePool</text>
</a>
</g>
</g>
<!-- Node1&#45;&gt;Node2 -->
<g id="edge1_Node000001_Node000002" class="edge">
<title>Node1&#45;&gt;Node2</title>
<g id="a_edge1_Node000001_Node000002"><a xlink:title=" ">
<path fill="none" stroke="#63b8ff" d="M46.95,-158.41C58.25,-176.92 84.23,-215.69 115.75,-238 120.7,-241.51 126.23,-244.56 131.91,-247.21"/>
<polygon fill="#63b8ff" stroke="#63b8ff" points="130.24,-250.31 140.81,-250.96 132.96,-243.86 130.24,-250.31"/>
</a>
</g>
</g>
<!-- Node3 -->
<g id="Node000003" class="node">
<title>Node3</title>
<g id="a_Node000003"><a xlink:href="classRegistry.html#a11f1e4d7d7ef1a84640adddf32c1f862" target="_top" xlink:title="Gets a reference to a component of type Component for entity e.">
<polygon fill="white" stroke="#666666" points="217.62,-158 145.38,-158 145.38,-138 217.62,-138 217.62,-158"/>
<text xml:space="preserve" text-anchor="middle" x="181.5" y="-144.5" font-family="Helvetica,sans-Serif" font-size="10.00">Registry::get</text>
</a>
</g>
</g>
<!-- Node1&#45;&gt;Node3 -->
<g id="edge2_Node000001_Node000003" class="edge">
<title>Node1&#45;&gt;Node3</title>
<g id="a_edge2_Node000001_Node000003"><a xlink:title=" ">
<path fill="none" stroke="#63b8ff" d="M80.14,-148C96.95,-148 116.69,-148 134.21,-148"/>
<polygon fill="#63b8ff" stroke="#63b8ff" points="133.83,-151.5 143.83,-148 133.82,-144.5 133.83,-151.5"/>
</a>
</g>
</g>
<!-- Node4 -->
<g id="Node000004" class="node">
<title>Node4</title>
<g id="a_Node000004"><a xlink:href="classComponentRegistry.html#a4d993c2bab87c6bdac36ba8f589eca5f" target="_top" xlink:title="Retrieves or creates a unique ID for the given component type T.">
<polygon fill="white" stroke="#666666" points="392.25,-208 283.25,-208 283.25,-176 392.25,-176 392.25,-208"/>
<text xml:space="preserve" text-anchor="start" x="291.25" y="-194.5" font-family="Helvetica,sans-Serif" font-size="10.00">ComponentRegistry::</text>
<text xml:space="preserve" text-anchor="middle" x="337.75" y="-182.5" font-family="Helvetica,sans-Serif" font-size="10.00">getOrCreateID</text>
</a>
</g>
</g>
<!-- Node1&#45;&gt;Node4 -->
<g id="edge8_Node000001_Node000004" class="edge">
<title>Node1&#45;&gt;Node4</title>
<g id="a_edge8_Node000001_Node000004"><a xlink:title=" ">
<path fill="none" stroke="#63b8ff" d="M49.82,-158.06C62.76,-171.78 88.2,-195.71 115.75,-205 166.28,-222.04 226.95,-216.8 271.93,-208.41"/>
<polygon fill="#63b8ff" stroke="#63b8ff" points="272.39,-211.89 281.53,-206.52 271.04,-205.02 272.39,-211.89"/>
</a>
</g>
</g>
<!-- Node6 -->
<g id="Node000006" class="node">
<title>Node6</title>
<g id="a_Node000006"><a xlink:href="classComponentRegistry.html#a18cad5dda10f4bb28fb6933f5aa85fce" target="_top" xlink:title="Provides access to the global ComponentRegistry instance.">
<polygon fill="white" stroke="#666666" points="392.25,-158 283.25,-158 283.25,-126 392.25,-126 392.25,-158"/>
<text xml:space="preserve" text-anchor="start" x="291.25" y="-144.5" font-family="Helvetica,sans-Serif" font-size="10.00">ComponentRegistry::</text>
<text xml:space="preserve" text-anchor="middle" x="337.75" y="-132.5" font-family="Helvetica,sans-Serif" font-size="10.00">instance</text>
</a>
</g>
</g>
<!-- Node1&#45;&gt;Node6 -->
<g id="edge12_Node000001_Node000006" class="edge">
<title>Node1&#45;&gt;Node6</title>
<g id="a_edge12_Node000001_Node000006"><a xlink:title=" ">
<path fill="none" stroke="#63b8ff" d="M74.45,-137.59C87.25,-134.12 102.04,-130.71 115.75,-129 173.74,-121.76 188.96,-124.79 247.25,-129 255.22,-129.58 263.55,-130.44 271.79,-131.44"/>
<polygon fill="#63b8ff" stroke="#63b8ff" points="271.06,-134.88 281.43,-132.7 271.97,-127.94 271.06,-134.88"/>
</a>
</g>
</g>
<!-- Node8 -->
<g id="Node000008" class="node">
<title>Node8</title>
<g id="a_Node000008"><a xlink:href="structRegistry_1_1IComponentPool.html#ad4a1001874d3ea8f343fbbcf4988c507" target="_top" xlink:title=" ">
<polygon fill="white" stroke="#666666" points="247.25,-82 115.75,-82 115.75,-50 247.25,-50 247.25,-82"/>
<text xml:space="preserve" text-anchor="start" x="123.75" y="-68.5" font-family="Helvetica,sans-Serif" font-size="10.00">Registry::IComponentPool</text>
<text xml:space="preserve" text-anchor="middle" x="181.5" y="-56.5" font-family="Helvetica,sans-Serif" font-size="10.00">::getEntityAt</text>
</a>
</g>
</g>
<!-- Node1&#45;&gt;Node8 -->
<g id="edge7_Node000001_Node000008" class="edge">
<title>Node1&#45;&gt;Node8</title>
<g id="a_edge7_Node000001_Node000008"><a xlink:title=" ">
<path fill="none" stroke="#63b8ff" d="M54.21,-137.68C68.84,-126.62 93.23,-108.91 115.75,-96 120.99,-93 126.58,-90.05 132.2,-87.25"/>
<polygon fill="#63b8ff" stroke="#63b8ff" points="133.44,-90.54 140.92,-83.03 130.39,-84.23 133.44,-90.54"/>
</a>
</g>
</g>
<!-- Node9 -->
<g id="Node000009" class="node">
<title>Node9</title>
<g id="a_Node000009"><a xlink:href="classRegistry.html#acac1f1c8a740cfeb2b33a32cfd6ad83f" target="_top" xlink:title="Checks if entity e has a component of type Component.">
<polygon fill="white" stroke="#666666" points="218.75,-196 144.25,-196 144.25,-176 218.75,-176 218.75,-196"/>
<text xml:space="preserve" text-anchor="middle" x="181.5" y="-182.5" font-family="Helvetica,sans-Serif" font-size="10.00">Registry::has</text>
</a>
</g>
</g>
<!-- Node1&#45;&gt;Node9 -->
<g id="edge9_Node000001_Node000009" class="edge">
<title>Node1&#45;&gt;Node9</title>
<g id="a_edge9_Node000001_Node000009"><a xlink:title=" ">
<path fill="none" stroke="#63b8ff" d="M79.4,-158.48C96.11,-163.03 115.84,-168.4 133.41,-173.18"/>
<polygon fill="#63b8ff" stroke="#63b8ff" points="132,-176.43 142.56,-175.68 133.83,-169.67 132,-176.43"/>
</a>
</g>
</g>
<!-- Node10 -->
<g id="Node000010" class="node">
<title>Node10</title>
<g id="a_Node000010"><a xlink:href="structRegistry_1_1IComponentPool.html#af60edba4f576e1c34ed07f6dd4e9348b" target="_top" xlink:title=" ">
<polygon fill="white" stroke="#666666" points="247.25,-32 115.75,-32 115.75,0 247.25,0 247.25,-32"/>
<text xml:space="preserve" text-anchor="start" x="123.75" y="-18.5" font-family="Helvetica,sans-Serif" font-size="10.00">Registry::IComponentPool</text>
<text xml:space="preserve" text-anchor="middle" x="181.5" y="-6.5" font-family="Helvetica,sans-Serif" font-size="10.00">::size</text>
</a>
</g>
</g>
<!-- Node1&#45;&gt;Node10 -->
<g id="edge13_Node000001_Node000010" class="edge">
<title>Node1&#45;&gt;Node10</title>
<g id="a_edge13_Node000001_Node000010"><a xlink:title=" ">
<path fill="none" stroke="#63b8ff" d="M45.52,-137.64C55.46,-116.56 80.76,-68.4 115.75,-41 116.9,-40.1 118.08,-39.23 119.29,-38.39"/>
<polygon fill="#63b8ff" stroke="#63b8ff" points="121.04,-41.43 127.79,-33.27 117.42,-35.43 121.04,-41.43"/>
</a>
</g>
</g>
<!-- Node3&#45;&gt;Node4 -->
<g id="edge3_Node000003_Node000004" class="edge">
<title>Node3&#45;&gt;Node4</title>
<g id="a_edge3_Node000003_Node000004"><a xlink:title=" ">
<path fill="none" stroke="#63b8ff" d="M217.89,-158.09C233.87,-162.65 253.28,-168.19 271.74,-173.46"/>
<polygon fill="#63b8ff" stroke="#63b8ff" points="270.73,-176.81 281.31,-176.19 272.66,-170.08 270.73,-176.81"/>
</a>
</g>
</g>
<!-- Node3&#45;&gt;Node6 -->
<g id="edge5_Node000003_Node000006" class="edge">
<title>Node3&#45;&gt;Node6</title>
<g id="a_edge5_Node000003_Node000006"><a xlink:title=" ">
<path fill="none" stroke="#63b8ff" d="M217.89,-146.62C233.8,-146 253.1,-145.25 271.48,-144.54"/>
<polygon fill="#63b8ff" stroke="#63b8ff" points="271.4,-148.04 281.25,-144.16 271.13,-141.05 271.4,-148.04"/>
</a>
</g>
</g>
<!-- Node5 -->
<g id="Node000005" class="node">
<title>Node5</title>
<g id="a_Node000005"><a xlink:href="classComponentRegistry.html#ab1cc8a486cae16a19268264c69f9af80" target="_top" xlink:title="Computes a new unique ID for a type T, or returns the existing one.">
<polygon fill="white" stroke="#666666" points="537.25,-208 428.25,-208 428.25,-176 537.25,-176 537.25,-208"/>
<text xml:space="preserve" text-anchor="start" x="436.25" y="-194.5" font-family="Helvetica,sans-Serif" font-size="10.00">ComponentRegistry::</text>
<text xml:space="preserve" text-anchor="middle" x="482.75" y="-182.5" font-family="Helvetica,sans-Serif" font-size="10.00">computeID</text>
</a>
</g>
</g>
<!-- Node4&#45;&gt;Node5 -->
<g id="edge4_Node000004_Node000005" class="edge">
<title>Node4&#45;&gt;Node5</title>
<g id="a_edge4_Node000004_Node000005"><a xlink:title=" ">
<path fill="none" stroke="#63b8ff" d="M392.4,-192C400.27,-192 408.44,-192 416.51,-192"/>
<polygon fill="#63b8ff" stroke="#63b8ff" points="416.28,-195.5 426.28,-192 416.28,-188.5 416.28,-195.5"/>
</a>
</g>
</g>
<!-- Node7 -->
<g id="Node000007" class="node">
<title>Node7</title>
<g id="a_Node000007"><a xlink:href="classComponentRegistry.html#a3bbfefb19e284845afb80ce0a4dd739a" target="_top" xlink:title="Private constructor for singleton pattern. Initializes internal containers with reserved capacity.">
<polygon fill="white" stroke="#666666" points="537.25,-158 428.25,-158 428.25,-126 537.25,-126 537.25,-158"/>
<text xml:space="preserve" text-anchor="start" x="436.25" y="-144.5" font-family="Helvetica,sans-Serif" font-size="10.00">ComponentRegistry::</text>
<text xml:space="preserve" text-anchor="middle" x="482.75" y="-132.5" font-family="Helvetica,sans-Serif" font-size="10.00">ComponentRegistry</text>
</a>
</g>
</g>
<!-- Node6&#45;&gt;Node7 -->
<g id="edge6_Node000006_Node000007" class="edge">
<title>Node6&#45;&gt;Node7</title>
<g id="a_edge6_Node000006_Node000007"><a xlink:title=" ">
<path fill="none" stroke="#63b8ff" d="M392.4,-142C400.27,-142 408.44,-142 416.51,-142"/>
<polygon fill="#63b8ff" stroke="#63b8ff" points="416.28,-145.5 426.28,-142 416.28,-138.5 416.28,-145.5"/>
</a>
</g>
</g>
<!-- Node9&#45;&gt;Node4 -->
<g id="edge10_Node000009_Node000004" class="edge">
<title>Node9&#45;&gt;Node4</title>
<g id="a_edge10_Node000009_Node000004"><a xlink:title=" ">
<path fill="none" stroke="#63b8ff" d="M219.06,-187.42C234.77,-188.03 253.62,-188.77 271.59,-189.47"/>
<polygon fill="#63b8ff" stroke="#63b8ff" points="271.29,-192.96 281.41,-189.85 271.56,-185.96 271.29,-192.96"/>
</a>
</g>
</g>
<!-- Node9&#45;&gt;Node6 -->
<g id="edge11_Node000009_Node000006" class="edge">
<title>Node9&#45;&gt;Node6</title>
<g id="a_edge11_Node000009_Node000006"><a xlink:title=" ">
<path fill="none" stroke="#63b8ff" d="M219.06,-175.57C234.92,-171.05 253.98,-165.61 272.1,-160.44"/>
<polygon fill="#63b8ff" stroke="#63b8ff" points="272.81,-163.88 281.47,-157.77 270.89,-157.15 272.81,-163.88"/>
</a>
</g>
</g>
</g>
</svg>
