<?xml version="1.0" encoding="UTF-8" standalone="no"?>
<!DOCTYPE svg PUBLIC "-//W3C//DTD SVG 1.1//EN"
 "http://www.w3.org/Graphics/SVG/1.1/DTD/svg11.dtd">
<!-- Generated by graphviz version 14.0.1 (0)
 -->
<!-- Title: System::update Pages: 1 -->
<svg width="222pt" height="46pt"
 viewBox="0.00 0.00 222.00 46.00" xmlns="http://www.w3.org/2000/svg" xmlns:xlink="http://www.w3.org/1999/xlink">
<g id="graph0" class="graph" transform="scale(1 1) rotate(0) translate(4 42)">
<title>System::update</title>
<!-- Node1 -->
<g id="Node000001" class="node">
<title>Node1</title>
<g id="a_Node000001"><a xlink:title="Calls the derived system’s onUpdate method if enabled and valid.">
<polygon fill="#999999" stroke="#666666" points="85,-20 0,-20 0,0 85,0 85,-20"/>
<text xml:space="preserve" text-anchor="middle" x="42.5" y="-6.5" font-family="Helvetica,sans-Serif" font-size="10.00">System::update</text>
</a>
</g>
</g>
<!-- Node2 -->
<g id="Node000002" class="node">
<title>Node2</title>
<g id="a_Node000002"><a xlink:href="classSystem.html#ac7b716e6d41ff508ad2d8e5dad655d72" target="_top" xlink:title="Grant Registry access to internal data.">
<polygon fill="white" stroke="#666666" points="213.5,-20 121,-20 121,0 213.5,0 213.5,-20"/>
<text xml:space="preserve" text-anchor="middle" x="167.25" y="-6.5" font-family="Helvetica,sans-Serif" font-size="10.00">System::Registry</text>
</a>
</g>
</g>
<!-- Node1&#45;&gt;Node2 -->
<g id="edge1_Node000001_Node000002" class="edge">
<title>Node1&#45;&gt;Node2</title>
<g id="a_edge1_Node000001_Node000002"><a xlink:title=" ">
<path fill="none" stroke="#63b8ff" d="M85.4,-10C93.14,-10 101.35,-10 109.44,-10"/>
<polygon fill="#63b8ff" stroke="#63b8ff" points="109.24,-13.5 119.24,-10 109.24,-6.5 109.24,-13.5"/>
</a>
</g>
</g>
<!-- Node2&#45;&gt;Node2 -->
<g id="edge2_Node000002_Node000002" class="edge">
<title>Node2&#45;&gt;Node2</title>
<g id="a_edge2_Node000002_Node000002"><a xlink:title=" ">
<path fill="none" stroke="#63b8ff" d="M147.43,-20.34C138.96,-28.98 145.56,-38 167.25,-38 179.11,-38 186.46,-35.3 189.3,-31.44"/>
<polygon fill="#63b8ff" stroke="#63b8ff" points="192.77,-30.94 187.37,-21.82 185.9,-32.32 192.77,-30.94"/>
</a>
</g>
</g>
</g>
</svg>
