<?xml version="1.0" encoding="UTF-8" standalone="no"?>
<!DOCTYPE svg PUBLIC "-//W3C//DTD SVG 1.1//EN"
 "http://www.w3.org/Graphics/SVG/1.1/DTD/svg11.dtd">
<!-- Generated by graphviz version 14.0.2 (0)
 -->
<!-- Title: GameEngine::FPInputHandler::onUpdate Pages: 1 -->
<svg width="775pt" height="280pt"
 viewBox="0.00 0.00 775.00 280.00" xmlns="http://www.w3.org/2000/svg" xmlns:xlink="http://www.w3.org/1999/xlink">
<g id="graph0" class="graph" transform="scale(1 1) rotate(0) translate(4 276)">
<title>GameEngine::FPInputHandler::onUpdate</title>
<!-- Node1 -->
<g id="Node000001" class="node">
<title>Node1</title>
<g id="a_Node000001"><a xlink:title=" ">
<polygon fill="#999999" stroke="#666666" points="146.5,-142 0,-142 0,-110 146.5,-110 146.5,-142"/>
<text xml:space="preserve" text-anchor="start" x="8" y="-128.5" font-family="Helvetica,sans-Serif" font-size="10.00">GameEngine::FPInputHandler</text>
<text xml:space="preserve" text-anchor="middle" x="73.25" y="-116.5" font-family="Helvetica,sans-Serif" font-size="10.00">::onUpdate</text>
</a>
</g>
</g>
<!-- Node2 -->
<g id="Node000002" class="node">
<title>Node2</title>
<g id="a_Node000002"><a xlink:href="classRegistry.html#a31cfb49fd633086383bf646b39a8daa2" target="_top" xlink:title="Iterates through all entities that have all the specified components.">
<polygon fill="white" stroke="#666666" points="285.88,-158 206.12,-158 206.12,-138 285.88,-138 285.88,-158"/>
<text xml:space="preserve" text-anchor="middle" x="246" y="-144.5" font-family="Helvetica,sans-Serif" font-size="10.00">Registry::each</text>
</a>
</g>
</g>
<!-- Node1&#45;&gt;Node2 -->
<g id="edge1_Node000001_Node000002" class="edge">
<title>Node1&#45;&gt;Node2</title>
<g id="a_edge1_Node000001_Node000002"><a xlink:title=" ">
<path fill="none" stroke="#63b8ff" d="M146.66,-135.33C162.89,-137.42 179.75,-139.59 194.84,-141.54"/>
<polygon fill="#63b8ff" stroke="#63b8ff" points="194.12,-144.97 204.49,-142.78 195.02,-138.03 194.12,-144.97"/>
</a>
</g>
</g>
<!-- Node12 -->
<g id="Node000012" class="node">
<title>Node12</title>
<g id="a_Node000012"><a xlink:href="classSystem.html#ac7b716e6d41ff508ad2d8e5dad655d72" target="_top" xlink:title=" ">
<polygon fill="white" stroke="#666666" points="309.5,-120 182.5,-120 182.5,-88 309.5,-88 309.5,-120"/>
<text xml:space="preserve" text-anchor="start" x="190.5" y="-106.5" font-family="Helvetica,sans-Serif" font-size="10.00">System&lt; FPInputHandler</text>
<text xml:space="preserve" text-anchor="middle" x="246" y="-94.5" font-family="Helvetica,sans-Serif" font-size="10.00"> &gt;::Registry</text>
</a>
</g>
</g>
<!-- Node1&#45;&gt;Node12 -->
<g id="edge15_Node000001_Node000012" class="edge">
<title>Node1&#45;&gt;Node12</title>
<g id="a_edge15_Node000001_Node000012"><a xlink:title=" ">
<path fill="none" stroke="#63b8ff" d="M146.66,-116.67C154.69,-115.64 162.88,-114.58 170.93,-113.54"/>
<polygon fill="#63b8ff" stroke="#63b8ff" points="171.22,-117.03 180.69,-112.29 170.33,-110.09 171.22,-117.03"/>
</a>
</g>
</g>
<!-- Node3 -->
<g id="Node000003" class="node">
<title>Node3</title>
<g id="a_Node000003"><a xlink:href="classRegistry.html#acd4bfce3db63792e03b353900dc89f76" target="_top" xlink:title="Ensures that a component pool exists for the given component ID. Creates it if necessary.">
<polygon fill="white" stroke="#666666" points="465,-272 357.5,-272 357.5,-252 465,-252 465,-272"/>
<text xml:space="preserve" text-anchor="middle" x="411.25" y="-258.5" font-family="Helvetica,sans-Serif" font-size="10.00">Registry::assurePool</text>
</a>
</g>
</g>
<!-- Node2&#45;&gt;Node3 -->
<g id="edge2_Node000002_Node000003" class="edge">
<title>Node2&#45;&gt;Node3</title>
<g id="a_edge2_Node000002_Node000003"><a xlink:title=" ">
<path fill="none" stroke="#63b8ff" d="M255.77,-158.29C271.87,-176.61 307.92,-215.08 345.5,-238 351.2,-241.48 357.49,-244.58 363.84,-247.3"/>
<polygon fill="#63b8ff" stroke="#63b8ff" points="362.5,-250.54 373.09,-250.97 365.08,-244.03 362.5,-250.54"/>
</a>
</g>
</g>
<!-- Node4 -->
<g id="Node000004" class="node">
<title>Node4</title>
<g id="a_Node000004"><a xlink:href="classRegistry.html#a11f1e4d7d7ef1a84640adddf32c1f862" target="_top" xlink:title="Gets a reference to a component of type Component for entity e.">
<polygon fill="white" stroke="#666666" points="447.38,-158 375.12,-158 375.12,-138 447.38,-138 447.38,-158"/>
<text xml:space="preserve" text-anchor="middle" x="411.25" y="-144.5" font-family="Helvetica,sans-Serif" font-size="10.00">Registry::get</text>
</a>
</g>
</g>
<!-- Node2&#45;&gt;Node4 -->
<g id="edge3_Node000002_Node000004" class="edge">
<title>Node2&#45;&gt;Node4</title>
<g id="a_edge3_Node000002_Node000004"><a xlink:title=" ">
<path fill="none" stroke="#63b8ff" d="M286.1,-148C309.39,-148 339.09,-148 363.6,-148"/>
<polygon fill="#63b8ff" stroke="#63b8ff" points="363.29,-151.5 373.29,-148 363.29,-144.5 363.29,-151.5"/>
</a>
</g>
</g>
<!-- Node5 -->
<g id="Node000005" class="node">
<title>Node5</title>
<g id="a_Node000005"><a xlink:href="classComponentRegistry.html#a4d993c2bab87c6bdac36ba8f589eca5f" target="_top" xlink:title="Retrieves or creates a unique ID for the given component type T.">
<polygon fill="white" stroke="#666666" points="622,-208 513,-208 513,-176 622,-176 622,-208"/>
<text xml:space="preserve" text-anchor="start" x="521" y="-194.5" font-family="Helvetica,sans-Serif" font-size="10.00">ComponentRegistry::</text>
<text xml:space="preserve" text-anchor="middle" x="567.5" y="-182.5" font-family="Helvetica,sans-Serif" font-size="10.00">getOrCreateID</text>
</a>
</g>
</g>
<!-- Node2&#45;&gt;Node5 -->
<g id="edge9_Node000002_Node000005" class="edge">
<title>Node2&#45;&gt;Node5</title>
<g id="a_edge9_Node000002_Node000005"><a xlink:title=" ">
<path fill="none" stroke="#63b8ff" d="M259.7,-158.34C277.57,-172.15 311.73,-195.93 345.5,-205 396.72,-218.75 456.93,-213.9 501.56,-206.51"/>
<polygon fill="#63b8ff" stroke="#63b8ff" points="502.11,-209.97 511.36,-204.79 500.9,-203.07 502.11,-209.97"/>
</a>
</g>
</g>
<!-- Node7 -->
<g id="Node000007" class="node">
<title>Node7</title>
<g id="a_Node000007"><a xlink:href="classComponentRegistry.html#a18cad5dda10f4bb28fb6933f5aa85fce" target="_top" xlink:title="Provides access to the global ComponentRegistry instance.">
<polygon fill="white" stroke="#666666" points="622,-158 513,-158 513,-126 622,-126 622,-158"/>
<text xml:space="preserve" text-anchor="start" x="521" y="-144.5" font-family="Helvetica,sans-Serif" font-size="10.00">ComponentRegistry::</text>
<text xml:space="preserve" text-anchor="middle" x="567.5" y="-132.5" font-family="Helvetica,sans-Serif" font-size="10.00">instance</text>
</a>
</g>
</g>
<!-- Node2&#45;&gt;Node7 -->
<g id="edge13_Node000002_Node000007" class="edge">
<title>Node2&#45;&gt;Node7</title>
<g id="a_edge13_Node000002_Node000007"><a xlink:title=" ">
<path fill="none" stroke="#63b8ff" d="M286.05,-138.69C304.04,-134.86 325.74,-130.89 345.5,-129 403.68,-123.44 418.71,-124.79 477,-129 484.97,-129.58 493.3,-130.44 501.54,-131.44"/>
<polygon fill="#63b8ff" stroke="#63b8ff" points="500.81,-134.88 511.18,-132.7 501.72,-127.94 500.81,-134.88"/>
</a>
</g>
</g>
<!-- Node9 -->
<g id="Node000009" class="node">
<title>Node9</title>
<g id="a_Node000009"><a xlink:href="structRegistry_1_1IComponentPool.html#ad4a1001874d3ea8f343fbbcf4988c507" target="_top" xlink:title=" ">
<polygon fill="white" stroke="#666666" points="477,-82 345.5,-82 345.5,-50 477,-50 477,-82"/>
<text xml:space="preserve" text-anchor="start" x="353.5" y="-68.5" font-family="Helvetica,sans-Serif" font-size="10.00">Registry::IComponentPool</text>
<text xml:space="preserve" text-anchor="middle" x="411.25" y="-56.5" font-family="Helvetica,sans-Serif" font-size="10.00">::getEntityAt</text>
</a>
</g>
</g>
<!-- Node2&#45;&gt;Node9 -->
<g id="edge8_Node000002_Node000009" class="edge">
<title>Node2&#45;&gt;Node9</title>
<g id="a_edge8_Node000002_Node000009"><a xlink:title=" ">
<path fill="none" stroke="#63b8ff" d="M286.13,-139.04C294.14,-136.41 302.31,-133.1 309.5,-129 328.35,-118.24 327.44,-108.04 345.5,-96 349.97,-93.02 354.78,-90.19 359.69,-87.55"/>
<polygon fill="#63b8ff" stroke="#63b8ff" points="361.16,-90.73 368.48,-83.07 357.98,-84.49 361.16,-90.73"/>
</a>
</g>
</g>
<!-- Node10 -->
<g id="Node000010" class="node">
<title>Node10</title>
<g id="a_Node000010"><a xlink:href="classRegistry.html#acac1f1c8a740cfeb2b33a32cfd6ad83f" target="_top" xlink:title="Checks if entity e has a component of type Component.">
<polygon fill="white" stroke="#666666" points="448.5,-196 374,-196 374,-176 448.5,-176 448.5,-196"/>
<text xml:space="preserve" text-anchor="middle" x="411.25" y="-182.5" font-family="Helvetica,sans-Serif" font-size="10.00">Registry::has</text>
</a>
</g>
</g>
<!-- Node2&#45;&gt;Node10 -->
<g id="edge10_Node000002_Node000010" class="edge">
<title>Node2&#45;&gt;Node10</title>
<g id="a_edge10_Node000002_Node000010"><a xlink:title=" ">
<path fill="none" stroke="#63b8ff" d="M286.1,-157.1C309.07,-162.45 338.26,-169.24 362.57,-174.9"/>
<polygon fill="#63b8ff" stroke="#63b8ff" points="361.7,-178.29 372.23,-177.15 363.28,-171.47 361.7,-178.29"/>
</a>
</g>
</g>
<!-- Node11 -->
<g id="Node000011" class="node">
<title>Node11</title>
<g id="a_Node000011"><a xlink:href="structRegistry_1_1IComponentPool.html#af60edba4f576e1c34ed07f6dd4e9348b" target="_top" xlink:title=" ">
<polygon fill="white" stroke="#666666" points="477,-32 345.5,-32 345.5,0 477,0 477,-32"/>
<text xml:space="preserve" text-anchor="start" x="353.5" y="-18.5" font-family="Helvetica,sans-Serif" font-size="10.00">Registry::IComponentPool</text>
<text xml:space="preserve" text-anchor="middle" x="411.25" y="-6.5" font-family="Helvetica,sans-Serif" font-size="10.00">::size</text>
</a>
</g>
</g>
<!-- Node2&#45;&gt;Node11 -->
<g id="edge14_Node000002_Node000011" class="edge">
<title>Node2&#45;&gt;Node11</title>
<g id="a_edge14_Node000002_Node000011"><a xlink:title=" ">
<path fill="none" stroke="#63b8ff" d="M286.14,-141.86C294.6,-139.05 302.96,-134.96 309.5,-129 340.74,-100.54 315.32,-70.58 345.5,-41 346.23,-40.28 346.99,-39.58 347.77,-38.9"/>
<polygon fill="#63b8ff" stroke="#63b8ff" points="349.53,-41.95 355.56,-33.23 345.41,-36.29 349.53,-41.95"/>
</a>
</g>
</g>
<!-- Node4&#45;&gt;Node5 -->
<g id="edge4_Node000004_Node000005" class="edge">
<title>Node4&#45;&gt;Node5</title>
<g id="a_edge4_Node000004_Node000005"><a xlink:title=" ">
<path fill="none" stroke="#63b8ff" d="M447.64,-158.09C463.62,-162.65 483.03,-168.19 501.49,-173.46"/>
<polygon fill="#63b8ff" stroke="#63b8ff" points="500.48,-176.81 511.06,-176.19 502.41,-170.08 500.48,-176.81"/>
</a>
</g>
</g>
<!-- Node4&#45;&gt;Node7 -->
<g id="edge6_Node000004_Node000007" class="edge">
<title>Node4&#45;&gt;Node7</title>
<g id="a_edge6_Node000004_Node000007"><a xlink:title=" ">
<path fill="none" stroke="#63b8ff" d="M447.64,-146.62C463.55,-146 482.85,-145.25 501.23,-144.54"/>
<polygon fill="#63b8ff" stroke="#63b8ff" points="501.15,-148.04 511,-144.16 500.88,-141.05 501.15,-148.04"/>
</a>
</g>
</g>
<!-- Node6 -->
<g id="Node000006" class="node">
<title>Node6</title>
<g id="a_Node000006"><a xlink:href="classComponentRegistry.html#ab1cc8a486cae16a19268264c69f9af80" target="_top" xlink:title="Computes a new unique ID for a type T, or returns the existing one.">
<polygon fill="white" stroke="#666666" points="767,-208 658,-208 658,-176 767,-176 767,-208"/>
<text xml:space="preserve" text-anchor="start" x="666" y="-194.5" font-family="Helvetica,sans-Serif" font-size="10.00">ComponentRegistry::</text>
<text xml:space="preserve" text-anchor="middle" x="712.5" y="-182.5" font-family="Helvetica,sans-Serif" font-size="10.00">computeID</text>
</a>
</g>
</g>
<!-- Node5&#45;&gt;Node6 -->
<g id="edge5_Node000005_Node000006" class="edge">
<title>Node5&#45;&gt;Node6</title>
<g id="a_edge5_Node000005_Node000006"><a xlink:title=" ">
<path fill="none" stroke="#63b8ff" d="M622.15,-192C630.02,-192 638.19,-192 646.26,-192"/>
<polygon fill="#63b8ff" stroke="#63b8ff" points="646.03,-195.5 656.03,-192 646.03,-188.5 646.03,-195.5"/>
</a>
</g>
</g>
<!-- Node8 -->
<g id="Node000008" class="node">
<title>Node8</title>
<g id="a_Node000008"><a xlink:href="classComponentRegistry.html#a3bbfefb19e284845afb80ce0a4dd739a" target="_top" xlink:title="Private constructor for singleton pattern. Initializes internal containers with reserved capacity.">
<polygon fill="white" stroke="#666666" points="767,-158 658,-158 658,-126 767,-126 767,-158"/>
<text xml:space="preserve" text-anchor="start" x="666" y="-144.5" font-family="Helvetica,sans-Serif" font-size="10.00">ComponentRegistry::</text>
<text xml:space="preserve" text-anchor="middle" x="712.5" y="-132.5" font-family="Helvetica,sans-Serif" font-size="10.00">ComponentRegistry</text>
</a>
</g>
</g>
<!-- Node7&#45;&gt;Node8 -->
<g id="edge7_Node000007_Node000008" class="edge">
<title>Node7&#45;&gt;Node8</title>
<g id="a_edge7_Node000007_Node000008"><a xlink:title=" ">
<path fill="none" stroke="#63b8ff" d="M622.15,-142C630.02,-142 638.19,-142 646.26,-142"/>
<polygon fill="#63b8ff" stroke="#63b8ff" points="646.03,-145.5 656.03,-142 646.03,-138.5 646.03,-145.5"/>
</a>
</g>
</g>
<!-- Node10&#45;&gt;Node5 -->
<g id="edge11_Node000010_Node000005" class="edge">
<title>Node10&#45;&gt;Node5</title>
<g id="a_edge11_Node000010_Node000005"><a xlink:title=" ">
<path fill="none" stroke="#63b8ff" d="M448.81,-187.42C464.52,-188.03 483.37,-188.77 501.34,-189.47"/>
<polygon fill="#63b8ff" stroke="#63b8ff" points="501.04,-192.96 511.16,-189.85 501.31,-185.96 501.04,-192.96"/>
</a>
</g>
</g>
<!-- Node10&#45;&gt;Node7 -->
<g id="edge12_Node000010_Node000007" class="edge">
<title>Node10&#45;&gt;Node7</title>
<g id="a_edge12_Node000010_Node000007"><a xlink:title=" ">
<path fill="none" stroke="#63b8ff" d="M448.81,-175.57C464.67,-171.05 483.73,-165.61 501.85,-160.44"/>
<polygon fill="#63b8ff" stroke="#63b8ff" points="502.56,-163.88 511.22,-157.77 500.64,-157.15 502.56,-163.88"/>
</a>
</g>
</g>
</g>
</svg>
