<?xml version="1.0" encoding="UTF-8" standalone="no"?>
<!DOCTYPE svg PUBLIC "-//W3C//DTD SVG 1.1//EN"
 "http://www.w3.org/Graphics/SVG/1.1/DTD/svg11.dtd">
<!-- Generated by graphviz version 14.0.2 (0)
 -->
<!-- Title: GameEngine::FPMotion::onUpdate Pages: 1 -->
<svg width="732pt" height="280pt"
 viewBox="0.00 0.00 732.00 280.00" xmlns="http://www.w3.org/2000/svg" xmlns:xlink="http://www.w3.org/1999/xlink">
<g id="graph0" class="graph" transform="scale(1 1) rotate(0) translate(4 276)">
<title>GameEngine::FPMotion::onUpdate</title>
<!-- Node1 -->
<g id="Node000001" class="node">
<title>Node1</title>
<g id="a_Node000001"><a xlink:title=" ">
<polygon fill="#999999" stroke="#666666" points="120.25,-142 0,-142 0,-110 120.25,-110 120.25,-142"/>
<text xml:space="preserve" text-anchor="start" x="8" y="-128.5" font-family="Helvetica,sans-Serif" font-size="10.00">GameEngine::FPMotion</text>
<text xml:space="preserve" text-anchor="middle" x="60.12" y="-116.5" font-family="Helvetica,sans-Serif" font-size="10.00">::onUpdate</text>
</a>
</g>
</g>
<!-- Node2 -->
<g id="Node000002" class="node">
<title>Node2</title>
<g id="a_Node000002"><a xlink:href="classRegistry.html#a31cfb49fd633086383bf646b39a8daa2" target="_top" xlink:title="Iterates through all entities that have all the specified components.">
<polygon fill="white" stroke="#666666" points="251,-158 171.25,-158 171.25,-138 251,-138 251,-158"/>
<text xml:space="preserve" text-anchor="middle" x="211.12" y="-144.5" font-family="Helvetica,sans-Serif" font-size="10.00">Registry::each</text>
</a>
</g>
</g>
<!-- Node1&#45;&gt;Node2 -->
<g id="edge1_Node000001_Node000002" class="edge">
<title>Node1&#45;&gt;Node2</title>
<g id="a_edge1_Node000001_Node000002"><a xlink:title=" ">
<path fill="none" stroke="#63b8ff" d="M120.44,-134.76C133.49,-136.68 147.19,-138.71 159.84,-140.58"/>
<polygon fill="#63b8ff" stroke="#63b8ff" points="159.21,-144.02 169.62,-142.02 160.24,-137.1 159.21,-144.02"/>
</a>
</g>
</g>
<!-- Node12 -->
<g id="Node000012" class="node">
<title>Node12</title>
<g id="a_Node000012"><a xlink:href="classSystem.html#ac7b716e6d41ff508ad2d8e5dad655d72" target="_top" xlink:title=" ">
<polygon fill="white" stroke="#666666" points="266,-120 156.25,-120 156.25,-88 266,-88 266,-120"/>
<text xml:space="preserve" text-anchor="start" x="164.25" y="-106.5" font-family="Helvetica,sans-Serif" font-size="10.00">System&lt; FPMotion &gt;</text>
<text xml:space="preserve" text-anchor="middle" x="211.12" y="-94.5" font-family="Helvetica,sans-Serif" font-size="10.00">::Registry</text>
</a>
</g>
</g>
<!-- Node1&#45;&gt;Node12 -->
<g id="edge15_Node000001_Node000012" class="edge">
<title>Node1&#45;&gt;Node12</title>
<g id="a_edge15_Node000001_Node000012"><a xlink:title=" ">
<path fill="none" stroke="#63b8ff" d="M120.44,-117.24C128.38,-116.07 136.57,-114.86 144.61,-113.67"/>
<polygon fill="#63b8ff" stroke="#63b8ff" points="144.97,-117.16 154.35,-112.24 143.94,-110.23 144.97,-117.16"/>
</a>
</g>
</g>
<!-- Node3 -->
<g id="Node000003" class="node">
<title>Node3</title>
<g id="a_Node000003"><a xlink:href="classRegistry.html#acd4bfce3db63792e03b353900dc89f76" target="_top" xlink:title="Ensures that a component pool exists for the given component ID. Creates it if necessary.">
<polygon fill="white" stroke="#666666" points="421.5,-272 314,-272 314,-252 421.5,-252 421.5,-272"/>
<text xml:space="preserve" text-anchor="middle" x="367.75" y="-258.5" font-family="Helvetica,sans-Serif" font-size="10.00">Registry::assurePool</text>
</a>
</g>
</g>
<!-- Node2&#45;&gt;Node3 -->
<g id="edge2_Node000002_Node000003" class="edge">
<title>Node2&#45;&gt;Node3</title>
<g id="a_edge2_Node000002_Node000003"><a xlink:title=" ">
<path fill="none" stroke="#63b8ff" d="M219.93,-158.34C234.29,-176.74 266.69,-215.34 302,-238 307.49,-241.53 313.58,-244.64 319.76,-247.35"/>
<polygon fill="#63b8ff" stroke="#63b8ff" points="318.17,-250.48 328.75,-250.98 320.79,-243.99 318.17,-250.48"/>
</a>
</g>
</g>
<!-- Node4 -->
<g id="Node000004" class="node">
<title>Node4</title>
<g id="a_Node000004"><a xlink:href="classRegistry.html#a11f1e4d7d7ef1a84640adddf32c1f862" target="_top" xlink:title="Gets a reference to a component of type Component for entity e.">
<polygon fill="white" stroke="#666666" points="403.88,-158 331.62,-158 331.62,-138 403.88,-138 403.88,-158"/>
<text xml:space="preserve" text-anchor="middle" x="367.75" y="-144.5" font-family="Helvetica,sans-Serif" font-size="10.00">Registry::get</text>
</a>
</g>
</g>
<!-- Node2&#45;&gt;Node4 -->
<g id="edge3_Node000002_Node000004" class="edge">
<title>Node2&#45;&gt;Node4</title>
<g id="a_edge3_Node000002_Node000004"><a xlink:title=" ">
<path fill="none" stroke="#63b8ff" d="M251.14,-148C272,-148 297.83,-148 319.78,-148"/>
<polygon fill="#63b8ff" stroke="#63b8ff" points="319.67,-151.5 329.67,-148 319.67,-144.5 319.67,-151.5"/>
</a>
</g>
</g>
<!-- Node5 -->
<g id="Node000005" class="node">
<title>Node5</title>
<g id="a_Node000005"><a xlink:href="classComponentRegistry.html#a4d993c2bab87c6bdac36ba8f589eca5f" target="_top" xlink:title="Retrieves or creates a unique ID for the given component type T.">
<polygon fill="white" stroke="#666666" points="578.5,-208 469.5,-208 469.5,-176 578.5,-176 578.5,-208"/>
<text xml:space="preserve" text-anchor="start" x="477.5" y="-194.5" font-family="Helvetica,sans-Serif" font-size="10.00">ComponentRegistry::</text>
<text xml:space="preserve" text-anchor="middle" x="524" y="-182.5" font-family="Helvetica,sans-Serif" font-size="10.00">getOrCreateID</text>
</a>
</g>
</g>
<!-- Node2&#45;&gt;Node5 -->
<g id="edge9_Node000002_Node000005" class="edge">
<title>Node2&#45;&gt;Node5</title>
<g id="a_edge9_Node000002_Node000005"><a xlink:title=" ">
<path fill="none" stroke="#63b8ff" d="M223.55,-158.33C239.65,-172.12 270.59,-195.88 302,-205 352.93,-219.79 413.17,-214.86 457.88,-207.17"/>
<polygon fill="#63b8ff" stroke="#63b8ff" points="458.48,-210.62 467.7,-205.38 457.23,-203.73 458.48,-210.62"/>
</a>
</g>
</g>
<!-- Node7 -->
<g id="Node000007" class="node">
<title>Node7</title>
<g id="a_Node000007"><a xlink:href="classComponentRegistry.html#a18cad5dda10f4bb28fb6933f5aa85fce" target="_top" xlink:title="Provides access to the global ComponentRegistry instance.">
<polygon fill="white" stroke="#666666" points="578.5,-158 469.5,-158 469.5,-126 578.5,-126 578.5,-158"/>
<text xml:space="preserve" text-anchor="start" x="477.5" y="-144.5" font-family="Helvetica,sans-Serif" font-size="10.00">ComponentRegistry::</text>
<text xml:space="preserve" text-anchor="middle" x="524" y="-132.5" font-family="Helvetica,sans-Serif" font-size="10.00">instance</text>
</a>
</g>
</g>
<!-- Node2&#45;&gt;Node7 -->
<g id="edge13_Node000002_Node000007" class="edge">
<title>Node2&#45;&gt;Node7</title>
<g id="a_edge13_Node000002_Node000007"><a xlink:title=" ">
<path fill="none" stroke="#63b8ff" d="M251.22,-137.89C266.89,-134.32 285.19,-130.76 302,-129 360.13,-122.92 375.21,-124.79 433.5,-129 441.47,-129.58 449.8,-130.44 458.04,-131.44"/>
<polygon fill="#63b8ff" stroke="#63b8ff" points="457.31,-134.88 467.68,-132.7 458.22,-127.94 457.31,-134.88"/>
</a>
</g>
</g>
<!-- Node9 -->
<g id="Node000009" class="node">
<title>Node9</title>
<g id="a_Node000009"><a xlink:href="structRegistry_1_1IComponentPool.html#ad4a1001874d3ea8f343fbbcf4988c507" target="_top" xlink:title=" ">
<polygon fill="white" stroke="#666666" points="433.5,-82 302,-82 302,-50 433.5,-50 433.5,-82"/>
<text xml:space="preserve" text-anchor="start" x="310" y="-68.5" font-family="Helvetica,sans-Serif" font-size="10.00">Registry::IComponentPool</text>
<text xml:space="preserve" text-anchor="middle" x="367.75" y="-56.5" font-family="Helvetica,sans-Serif" font-size="10.00">::getEntityAt</text>
</a>
</g>
</g>
<!-- Node2&#45;&gt;Node9 -->
<g id="edge8_Node000002_Node000009" class="edge">
<title>Node2&#45;&gt;Node9</title>
<g id="a_edge8_Node000002_Node000009"><a xlink:title=" ">
<path fill="none" stroke="#63b8ff" d="M248.11,-137.59C254.28,-135.17 260.47,-132.32 266,-129 284.61,-117.83 283.94,-108.04 302,-96 306.47,-93.02 311.28,-90.19 316.19,-87.55"/>
<polygon fill="#63b8ff" stroke="#63b8ff" points="317.66,-90.73 324.98,-83.07 314.48,-84.49 317.66,-90.73"/>
</a>
</g>
</g>
<!-- Node10 -->
<g id="Node000010" class="node">
<title>Node10</title>
<g id="a_Node000010"><a xlink:href="classRegistry.html#acac1f1c8a740cfeb2b33a32cfd6ad83f" target="_top" xlink:title="Checks if entity e has a component of type Component.">
<polygon fill="white" stroke="#666666" points="405,-196 330.5,-196 330.5,-176 405,-176 405,-196"/>
<text xml:space="preserve" text-anchor="middle" x="367.75" y="-182.5" font-family="Helvetica,sans-Serif" font-size="10.00">Registry::has</text>
</a>
</g>
</g>
<!-- Node2&#45;&gt;Node10 -->
<g id="edge10_Node000002_Node000010" class="edge">
<title>Node2&#45;&gt;Node10</title>
<g id="a_edge10_Node000002_Node000010"><a xlink:title=" ">
<path fill="none" stroke="#63b8ff" d="M251.14,-157.59C271.79,-162.66 297.31,-168.93 319.12,-174.29"/>
<polygon fill="#63b8ff" stroke="#63b8ff" points="318.12,-177.65 328.67,-176.64 319.79,-170.86 318.12,-177.65"/>
</a>
</g>
</g>
<!-- Node11 -->
<g id="Node000011" class="node">
<title>Node11</title>
<g id="a_Node000011"><a xlink:href="structRegistry_1_1IComponentPool.html#af60edba4f576e1c34ed07f6dd4e9348b" target="_top" xlink:title=" ">
<polygon fill="white" stroke="#666666" points="433.5,-32 302,-32 302,0 433.5,0 433.5,-32"/>
<text xml:space="preserve" text-anchor="start" x="310" y="-18.5" font-family="Helvetica,sans-Serif" font-size="10.00">Registry::IComponentPool</text>
<text xml:space="preserve" text-anchor="middle" x="367.75" y="-6.5" font-family="Helvetica,sans-Serif" font-size="10.00">::size</text>
</a>
</g>
</g>
<!-- Node2&#45;&gt;Node11 -->
<g id="edge14_Node000002_Node000011" class="edge">
<title>Node2&#45;&gt;Node11</title>
<g id="a_edge14_Node000002_Node000011"><a xlink:title=" ">
<path fill="none" stroke="#63b8ff" d="M251.48,-138.6C256.79,-136.11 261.83,-132.97 266,-129 296.61,-99.86 271.82,-70.58 302,-41 302.73,-40.28 303.49,-39.58 304.27,-38.9"/>
<polygon fill="#63b8ff" stroke="#63b8ff" points="306.03,-41.95 312.06,-33.23 301.91,-36.29 306.03,-41.95"/>
</a>
</g>
</g>
<!-- Node4&#45;&gt;Node5 -->
<g id="edge4_Node000004_Node000005" class="edge">
<title>Node4&#45;&gt;Node5</title>
<g id="a_edge4_Node000004_Node000005"><a xlink:title=" ">
<path fill="none" stroke="#63b8ff" d="M404.14,-158.09C420.12,-162.65 439.53,-168.19 457.99,-173.46"/>
<polygon fill="#63b8ff" stroke="#63b8ff" points="456.98,-176.81 467.56,-176.19 458.91,-170.08 456.98,-176.81"/>
</a>
</g>
</g>
<!-- Node4&#45;&gt;Node7 -->
<g id="edge6_Node000004_Node000007" class="edge">
<title>Node4&#45;&gt;Node7</title>
<g id="a_edge6_Node000004_Node000007"><a xlink:title=" ">
<path fill="none" stroke="#63b8ff" d="M404.14,-146.62C420.05,-146 439.35,-145.25 457.73,-144.54"/>
<polygon fill="#63b8ff" stroke="#63b8ff" points="457.65,-148.04 467.5,-144.16 457.38,-141.05 457.65,-148.04"/>
</a>
</g>
</g>
<!-- Node6 -->
<g id="Node000006" class="node">
<title>Node6</title>
<g id="a_Node000006"><a xlink:href="classComponentRegistry.html#ab1cc8a486cae16a19268264c69f9af80" target="_top" xlink:title="Computes a new unique ID for a type T, or returns the existing one.">
<polygon fill="white" stroke="#666666" points="723.5,-208 614.5,-208 614.5,-176 723.5,-176 723.5,-208"/>
<text xml:space="preserve" text-anchor="start" x="622.5" y="-194.5" font-family="Helvetica,sans-Serif" font-size="10.00">ComponentRegistry::</text>
<text xml:space="preserve" text-anchor="middle" x="669" y="-182.5" font-family="Helvetica,sans-Serif" font-size="10.00">computeID</text>
</a>
</g>
</g>
<!-- Node5&#45;&gt;Node6 -->
<g id="edge5_Node000005_Node000006" class="edge">
<title>Node5&#45;&gt;Node6</title>
<g id="a_edge5_Node000005_Node000006"><a xlink:title=" ">
<path fill="none" stroke="#63b8ff" d="M578.65,-192C586.52,-192 594.69,-192 602.76,-192"/>
<polygon fill="#63b8ff" stroke="#63b8ff" points="602.53,-195.5 612.53,-192 602.53,-188.5 602.53,-195.5"/>
</a>
</g>
</g>
<!-- Node8 -->
<g id="Node000008" class="node">
<title>Node8</title>
<g id="a_Node000008"><a xlink:href="classComponentRegistry.html#a3bbfefb19e284845afb80ce0a4dd739a" target="_top" xlink:title="Private constructor for singleton pattern. Initializes internal containers with reserved capacity.">
<polygon fill="white" stroke="#666666" points="723.5,-158 614.5,-158 614.5,-126 723.5,-126 723.5,-158"/>
<text xml:space="preserve" text-anchor="start" x="622.5" y="-144.5" font-family="Helvetica,sans-Serif" font-size="10.00">ComponentRegistry::</text>
<text xml:space="preserve" text-anchor="middle" x="669" y="-132.5" font-family="Helvetica,sans-Serif" font-size="10.00">ComponentRegistry</text>
</a>
</g>
</g>
<!-- Node7&#45;&gt;Node8 -->
<g id="edge7_Node000007_Node000008" class="edge">
<title>Node7&#45;&gt;Node8</title>
<g id="a_edge7_Node000007_Node000008"><a xlink:title=" ">
<path fill="none" stroke="#63b8ff" d="M578.65,-142C586.52,-142 594.69,-142 602.76,-142"/>
<polygon fill="#63b8ff" stroke="#63b8ff" points="602.53,-145.5 612.53,-142 602.53,-138.5 602.53,-145.5"/>
</a>
</g>
</g>
<!-- Node10&#45;&gt;Node5 -->
<g id="edge11_Node000010_Node000005" class="edge">
<title>Node10&#45;&gt;Node5</title>
<g id="a_edge11_Node000010_Node000005"><a xlink:title=" ">
<path fill="none" stroke="#63b8ff" d="M405.31,-187.42C421.02,-188.03 439.87,-188.77 457.84,-189.47"/>
<polygon fill="#63b8ff" stroke="#63b8ff" points="457.54,-192.96 467.66,-189.85 457.81,-185.96 457.54,-192.96"/>
</a>
</g>
</g>
<!-- Node10&#45;&gt;Node7 -->
<g id="edge12_Node000010_Node000007" class="edge">
<title>Node10&#45;&gt;Node7</title>
<g id="a_edge12_Node000010_Node000007"><a xlink:title=" ">
<path fill="none" stroke="#63b8ff" d="M405.31,-175.57C421.17,-171.05 440.23,-165.61 458.35,-160.44"/>
<polygon fill="#63b8ff" stroke="#63b8ff" points="459.06,-163.88 467.72,-157.77 457.14,-157.15 459.06,-163.88"/>
</a>
</g>
</g>
</g>
</svg>
