<?xml version="1.0" encoding="UTF-8" standalone="no"?>
<!DOCTYPE svg PUBLIC "-//W3C//DTD SVG 1.1//EN"
 "http://www.w3.org/Graphics/SVG/1.1/DTD/svg11.dtd">
<!-- Generated by graphviz version 14.0.1 (0)
 -->
<!-- Title: Registry::assurePool Pages: 1 -->
<svg width="429pt" height="256pt"
 viewBox="0.00 0.00 429.00 256.00" xmlns="http://www.w3.org/2000/svg" xmlns:xlink="http://www.w3.org/1999/xlink">
<g id="graph0" class="graph" transform="scale(1 1) rotate(0) translate(4 252)">
<title>Registry::assurePool</title>
<!-- Node1 -->
<g id="Node000001" class="node">
<title>Node1</title>
<g id="a_Node000001"><a xlink:title="Ensures that a component pool exists for the given component ID. Creates it if necessary.">
<polygon fill="#999999" stroke="#666666" points="420.75,-58 313.25,-58 313.25,-38 420.75,-38 420.75,-58"/>
<text xml:space="preserve" text-anchor="middle" x="367" y="-44.5" font-family="Helvetica,sans-Serif" font-size="10.00">Registry::assurePool</text>
</a>
</g>
</g>
<!-- Node2 -->
<g id="Node000002" class="node">
<title>Node2</title>
<g id="a_Node000002"><a xlink:href="classRegistry.html#a31cfb49fd633086383bf646b39a8daa2" target="_top" xlink:title="Iterates through all entities that have all the specified components.">
<polygon fill="white" stroke="#666666" points="269.38,-127 189.62,-127 189.62,-107 269.38,-107 269.38,-127"/>
<text xml:space="preserve" text-anchor="middle" x="229.5" y="-113.5" font-family="Helvetica,sans-Serif" font-size="10.00">Registry::each</text>
</a>
</g>
</g>
<!-- Node1&#45;&gt;Node2 -->
<g id="edge1_Node000001_Node000002" class="edge">
<title>Node1&#45;&gt;Node2</title>
<g id="a_edge1_Node000001_Node000002"><a xlink:title=" ">
<path fill="none" stroke="#63b8ff" d="M335.39,-63.59C309.54,-76.75 273.24,-95.24 250.83,-106.65"/>
<polygon fill="#63b8ff" stroke="#63b8ff" points="336.75,-66.82 344.07,-59.17 333.57,-60.59 336.75,-66.82"/>
</a>
</g>
</g>
<!-- Node8 -->
<g id="Node000008" class="node">
<title>Node8</title>
<g id="a_Node000008"><a xlink:href="classRegistry.html#ab12b0e856e109cd94af4aeb5e969de24" target="_top" xlink:title="Adds a new component of type Component to entity e.">
<polygon fill="white" stroke="#666666" points="277.25,-58 181.75,-58 181.75,-38 277.25,-38 277.25,-58"/>
<text xml:space="preserve" text-anchor="middle" x="229.5" y="-44.5" font-family="Helvetica,sans-Serif" font-size="10.00">Registry::emplace</text>
</a>
</g>
</g>
<!-- Node1&#45;&gt;Node8 -->
<g id="edge7_Node000001_Node000008" class="edge">
<title>Node1&#45;&gt;Node8</title>
<g id="a_edge7_Node000001_Node000008"><a xlink:title=" ">
<path fill="none" stroke="#63b8ff" d="M301.44,-48C293.32,-48 285.13,-48 277.35,-48"/>
<polygon fill="#63b8ff" stroke="#63b8ff" points="301.32,-51.5 311.32,-48 301.32,-44.5 301.32,-51.5"/>
</a>
</g>
</g>
<!-- Node9 -->
<g id="Node000009" class="node">
<title>Node9</title>
<g id="a_Node000009"><a xlink:href="classRegistry.html#a864a9feb3c9cffc43296ae8bb1aa2e3a" target="_top" xlink:title="Returns a reference to the SparseSet storing all components of type Component.">
<polygon fill="white" stroke="#666666" points="269,-20 190,-20 190,0 269,0 269,-20"/>
<text xml:space="preserve" text-anchor="middle" x="229.5" y="-6.5" font-family="Helvetica,sans-Serif" font-size="10.00">Registry::view</text>
</a>
</g>
</g>
<!-- Node1&#45;&gt;Node9 -->
<g id="edge9_Node000001_Node000009" class="edge">
<title>Node1&#45;&gt;Node9</title>
<g id="a_edge9_Node000001_Node000009"><a xlink:title=" ">
<path fill="none" stroke="#63b8ff" d="M317.58,-34.42C301.19,-29.82 283.15,-24.77 267.76,-20.45"/>
<polygon fill="#63b8ff" stroke="#63b8ff" points="316.58,-37.78 327.16,-37.11 318.47,-31.04 316.58,-37.78"/>
</a>
</g>
</g>
<!-- Node3 -->
<g id="Node000003" class="node">
<title>Node3</title>
<g id="a_Node000003"><a xlink:href="classGameEngine_1_1Collision.html#a49f26a6547e81a9cebf7ad5436fb7101" target="_top" xlink:title=" ">
<polygon fill="white" stroke="#666666" points="130.75,-248 15,-248 15,-216 130.75,-216 130.75,-248"/>
<text xml:space="preserve" text-anchor="start" x="23" y="-234.5" font-family="Helvetica,sans-Serif" font-size="10.00">GameEngine::Collision</text>
<text xml:space="preserve" text-anchor="middle" x="72.88" y="-222.5" font-family="Helvetica,sans-Serif" font-size="10.00">::onUpdate</text>
</a>
</g>
</g>
<!-- Node2&#45;&gt;Node3 -->
<g id="edge2_Node000002_Node000003" class="edge">
<title>Node2&#45;&gt;Node3</title>
<g id="a_edge2_Node000002_Node000003"><a xlink:title=" ">
<path fill="none" stroke="#63b8ff" d="M215,-136.66C200.17,-156.89 174.59,-188.06 145.75,-207 140.89,-210.19 135.58,-213.02 130.11,-215.53"/>
<polygon fill="#63b8ff" stroke="#63b8ff" points="217.73,-138.86 220.68,-128.68 212.03,-134.79 217.73,-138.86"/>
</a>
</g>
</g>
<!-- Node4 -->
<g id="Node000004" class="node">
<title>Node4</title>
<g id="a_Node000004"><a xlink:href="classGameEngine_1_1Death.html#a081a250ee3a8d22b7dd2323dbaba0eb7" target="_top" xlink:title=" ">
<polygon fill="white" stroke="#666666" points="128.12,-198 17.62,-198 17.62,-166 128.12,-166 128.12,-198"/>
<text xml:space="preserve" text-anchor="start" x="25.62" y="-184.5" font-family="Helvetica,sans-Serif" font-size="10.00">GameEngine::Death::</text>
<text xml:space="preserve" text-anchor="middle" x="72.88" y="-172.5" font-family="Helvetica,sans-Serif" font-size="10.00">onUpdate</text>
</a>
</g>
</g>
<!-- Node2&#45;&gt;Node4 -->
<g id="edge3_Node000002_Node000004" class="edge">
<title>Node2&#45;&gt;Node4</title>
<g id="a_edge3_Node000002_Node000004"><a xlink:title=" ">
<path fill="none" stroke="#63b8ff" d="M198.64,-132.47C183.07,-140.27 163.6,-149.61 145.75,-157 138.67,-159.93 131.11,-162.82 123.65,-165.53"/>
<polygon fill="#63b8ff" stroke="#63b8ff" points="200.04,-135.68 207.38,-128.04 196.88,-129.44 200.04,-135.68"/>
</a>
</g>
</g>
<!-- Node5 -->
<g id="Node000005" class="node">
<title>Node5</title>
<g id="a_Node000005"><a xlink:href="classGameEngine_1_1DomainHandler.html#a2e491047939e77c803075c6c490d54ee" target="_top" xlink:title="Updates the system, checking entity positions against their domain boundaries.">
<polygon fill="white" stroke="#666666" points="145.75,-148 0,-148 0,-116 145.75,-116 145.75,-148"/>
<text xml:space="preserve" text-anchor="start" x="8" y="-134.5" font-family="Helvetica,sans-Serif" font-size="10.00">GameEngine::DomainHandler</text>
<text xml:space="preserve" text-anchor="middle" x="72.88" y="-122.5" font-family="Helvetica,sans-Serif" font-size="10.00">::onUpdate</text>
</a>
</g>
</g>
<!-- Node2&#45;&gt;Node5 -->
<g id="edge4_Node000002_Node000005" class="edge">
<title>Node2&#45;&gt;Node5</title>
<g id="a_edge4_Node000002_Node000005"><a xlink:title=" ">
<path fill="none" stroke="#63b8ff" d="M178.22,-121.88C167.92,-122.88 156.9,-123.95 146.01,-125"/>
<polygon fill="#63b8ff" stroke="#63b8ff" points="178.36,-125.38 187.98,-120.93 177.68,-118.41 178.36,-125.38"/>
</a>
</g>
</g>
<!-- Node6 -->
<g id="Node000006" class="node">
<title>Node6</title>
<g id="a_Node000006"><a xlink:href="classGameEngine_1_1InputHandler.html#acb0d11bd1241dad8925f26b86f6d9007" target="_top" xlink:title=" ">
<polygon fill="white" stroke="#666666" points="139.75,-48 6,-48 6,-16 139.75,-16 139.75,-48"/>
<text xml:space="preserve" text-anchor="start" x="14" y="-34.5" font-family="Helvetica,sans-Serif" font-size="10.00">GameEngine::InputHandler</text>
<text xml:space="preserve" text-anchor="middle" x="72.88" y="-22.5" font-family="Helvetica,sans-Serif" font-size="10.00">::onUpdate</text>
</a>
</g>
</g>
<!-- Node2&#45;&gt;Node6 -->
<g id="edge5_Node000002_Node000006" class="edge">
<title>Node2&#45;&gt;Node6</title>
<g id="a_edge5_Node000002_Node000006"><a xlink:title=" ">
<path fill="none" stroke="#63b8ff" d="M208.06,-99.55C191.95,-86.48 168.5,-68.87 145.75,-57 139.78,-53.88 133.33,-51.01 126.84,-48.42"/>
<polygon fill="#63b8ff" stroke="#63b8ff" points="205.53,-102 215.46,-105.68 209.99,-96.61 205.53,-102"/>
</a>
</g>
</g>
<!-- Node7 -->
<g id="Node000007" class="node">
<title>Node7</title>
<g id="a_Node000007"><a xlink:href="classGameEngine_1_1Motion.html#a015b898244098b869ceb6001884ae9fe" target="_top" xlink:title=" ">
<polygon fill="white" stroke="#666666" points="126.62,-98 19.12,-98 19.12,-66 126.62,-66 126.62,-98"/>
<text xml:space="preserve" text-anchor="start" x="27.12" y="-84.5" font-family="Helvetica,sans-Serif" font-size="10.00">GameEngine::Motion</text>
<text xml:space="preserve" text-anchor="middle" x="72.88" y="-72.5" font-family="Helvetica,sans-Serif" font-size="10.00">::onUpdate</text>
</a>
</g>
</g>
<!-- Node2&#45;&gt;Node7 -->
<g id="edge6_Node000002_Node000007" class="edge">
<title>Node2&#45;&gt;Node7</title>
<g id="a_edge6_Node000002_Node000007"><a xlink:title=" ">
<path fill="none" stroke="#63b8ff" d="M178.42,-105.66C161.95,-101.94 143.58,-97.78 126.9,-94"/>
<polygon fill="#63b8ff" stroke="#63b8ff" points="177.48,-109.04 188.01,-107.83 179.02,-102.21 177.48,-109.04"/>
</a>
</g>
</g>
<!-- Node8&#45;&gt;Node6 -->
<g id="edge8_Node000008_Node000006" class="edge">
<title>Node8&#45;&gt;Node6</title>
<g id="a_edge8_Node000008_Node000006"><a xlink:title=" ">
<path fill="none" stroke="#63b8ff" d="M170.05,-41.95C160.29,-40.94 150.11,-39.89 140.17,-38.86"/>
<polygon fill="#63b8ff" stroke="#63b8ff" points="169.45,-45.41 179.76,-42.96 170.18,-38.45 169.45,-45.41"/>
</a>
</g>
</g>
</g>
</svg>
