<?xml version="1.0" encoding="UTF-8" standalone="no"?>
<!DOCTYPE svg PUBLIC "-//W3C//DTD SVG 1.1//EN"
 "http://www.w3.org/Graphics/SVG/1.1/DTD/svg11.dtd">
<!-- Generated by graphviz version 14.0.1 (0)
 -->
<!-- Title: GameEngine::Collision::collide Pages: 1 -->
<svg width="555pt" height="109pt"
 viewBox="0.00 0.00 555.00 109.00" xmlns="http://www.w3.org/2000/svg" xmlns:xlink="http://www.w3.org/1999/xlink">
<g id="graph0" class="graph" transform="scale(1 1) rotate(0) translate(4 105)">
<title>GameEngine::Collision::collide</title>
<!-- Node1 -->
<g id="Node000001" class="node">
<title>Node1</title>
<g id="a_Node000001"><a xlink:title=" ">
<polygon fill="#999999" stroke="#666666" points="115.75,-54 0,-54 0,-22 115.75,-22 115.75,-54"/>
<text xml:space="preserve" text-anchor="start" x="8" y="-40.5" font-family="Helvetica,sans-Serif" font-size="10.00">GameEngine::Collision</text>
<text xml:space="preserve" text-anchor="middle" x="57.88" y="-28.5" font-family="Helvetica,sans-Serif" font-size="10.00">::collide</text>
</a>
</g>
</g>
<!-- Node2 -->
<g id="Node000002" class="node">
<title>Node2</title>
<g id="a_Node000002"><a xlink:href="classRegistry.html#a11f1e4d7d7ef1a84640adddf32c1f862" target="_top" xlink:title="Gets a reference to a component of type Component for entity e.">
<polygon fill="white" stroke="#666666" points="240.5,-70 168.25,-70 168.25,-50 240.5,-50 240.5,-70"/>
<text xml:space="preserve" text-anchor="middle" x="204.38" y="-56.5" font-family="Helvetica,sans-Serif" font-size="10.00">Registry::get</text>
</a>
</g>
</g>
<!-- Node1&#45;&gt;Node2 -->
<g id="edge1_Node000001_Node000002" class="edge">
<title>Node1&#45;&gt;Node2</title>
<g id="a_edge1_Node000001_Node000002"><a xlink:title=" ">
<path fill="none" stroke="#63b8ff" d="M115.99,-46.69C129.53,-48.76 143.82,-50.93 156.83,-52.91"/>
<polygon fill="#63b8ff" stroke="#63b8ff" points="155.97,-56.32 166.39,-54.37 157.03,-49.4 155.97,-56.32"/>
</a>
</g>
</g>
<!-- Node7 -->
<g id="Node000007" class="node">
<title>Node7</title>
<g id="a_Node000007"><a xlink:href="classSystem.html#ac7b716e6d41ff508ad2d8e5dad655d72" target="_top" xlink:title=" ">
<polygon fill="white" stroke="#666666" points="257,-32 151.75,-32 151.75,0 257,0 257,-32"/>
<text xml:space="preserve" text-anchor="start" x="159.75" y="-18.5" font-family="Helvetica,sans-Serif" font-size="10.00">System&lt; Collision &gt;</text>
<text xml:space="preserve" text-anchor="middle" x="204.38" y="-6.5" font-family="Helvetica,sans-Serif" font-size="10.00">::Registry</text>
</a>
</g>
</g>
<!-- Node1&#45;&gt;Node7 -->
<g id="edge6_Node000001_Node000007" class="edge">
<title>Node1&#45;&gt;Node7</title>
<g id="a_edge6_Node000001_Node000007"><a xlink:title=" ">
<path fill="none" stroke="#63b8ff" d="M115.99,-29.31C123.92,-28.1 132.11,-26.85 140.15,-25.63"/>
<polygon fill="#63b8ff" stroke="#63b8ff" points="140.52,-29.11 149.88,-24.15 139.46,-22.19 140.52,-29.11"/>
</a>
</g>
</g>
<!-- Node3 -->
<g id="Node000003" class="node">
<title>Node3</title>
<g id="a_Node000003"><a xlink:href="classComponentRegistry.html#a4d993c2bab87c6bdac36ba8f589eca5f" target="_top" xlink:title="Retrieves or creates a unique ID for the given component type T.">
<polygon fill="white" stroke="#666666" points="402,-101 293,-101 293,-69 402,-69 402,-101"/>
<text xml:space="preserve" text-anchor="start" x="301" y="-87.5" font-family="Helvetica,sans-Serif" font-size="10.00">ComponentRegistry::</text>
<text xml:space="preserve" text-anchor="middle" x="347.5" y="-75.5" font-family="Helvetica,sans-Serif" font-size="10.00">getOrCreateID</text>
</a>
</g>
</g>
<!-- Node2&#45;&gt;Node3 -->
<g id="edge2_Node000002_Node000003" class="edge">
<title>Node2&#45;&gt;Node3</title>
<g id="a_edge2_Node000002_Node000003"><a xlink:title=" ">
<path fill="none" stroke="#63b8ff" d="M240.99,-66.31C253.36,-68.5 267.65,-71.03 281.63,-73.51"/>
<polygon fill="#63b8ff" stroke="#63b8ff" points="280.8,-76.92 291.25,-75.21 282.02,-70.02 280.8,-76.92"/>
</a>
</g>
</g>
<!-- Node5 -->
<g id="Node000005" class="node">
<title>Node5</title>
<g id="a_Node000005"><a xlink:href="classComponentRegistry.html#a18cad5dda10f4bb28fb6933f5aa85fce" target="_top" xlink:title="Provides access to the global ComponentRegistry instance.">
<polygon fill="white" stroke="#666666" points="402,-51 293,-51 293,-19 402,-19 402,-51"/>
<text xml:space="preserve" text-anchor="start" x="301" y="-37.5" font-family="Helvetica,sans-Serif" font-size="10.00">ComponentRegistry::</text>
<text xml:space="preserve" text-anchor="middle" x="347.5" y="-25.5" font-family="Helvetica,sans-Serif" font-size="10.00">instance</text>
</a>
</g>
</g>
<!-- Node2&#45;&gt;Node5 -->
<g id="edge4_Node000002_Node000005" class="edge">
<title>Node2&#45;&gt;Node5</title>
<g id="a_edge4_Node000002_Node000005"><a xlink:title=" ">
<path fill="none" stroke="#63b8ff" d="M240.99,-53.69C253.36,-51.5 267.65,-48.97 281.63,-46.49"/>
<polygon fill="#63b8ff" stroke="#63b8ff" points="282.02,-49.98 291.25,-44.79 280.8,-43.08 282.02,-49.98"/>
</a>
</g>
</g>
<!-- Node4 -->
<g id="Node000004" class="node">
<title>Node4</title>
<g id="a_Node000004"><a xlink:href="classComponentRegistry.html#ab1cc8a486cae16a19268264c69f9af80" target="_top" xlink:title="Computes a new unique ID for a type T, or returns the existing one.">
<polygon fill="white" stroke="#666666" points="547,-101 438,-101 438,-69 547,-69 547,-101"/>
<text xml:space="preserve" text-anchor="start" x="446" y="-87.5" font-family="Helvetica,sans-Serif" font-size="10.00">ComponentRegistry::</text>
<text xml:space="preserve" text-anchor="middle" x="492.5" y="-75.5" font-family="Helvetica,sans-Serif" font-size="10.00">computeID</text>
</a>
</g>
</g>
<!-- Node3&#45;&gt;Node4 -->
<g id="edge3_Node000003_Node000004" class="edge">
<title>Node3&#45;&gt;Node4</title>
<g id="a_edge3_Node000003_Node000004"><a xlink:title=" ">
<path fill="none" stroke="#63b8ff" d="M402.15,-85C410.02,-85 418.19,-85 426.26,-85"/>
<polygon fill="#63b8ff" stroke="#63b8ff" points="426.03,-88.5 436.03,-85 426.03,-81.5 426.03,-88.5"/>
</a>
</g>
</g>
<!-- Node6 -->
<g id="Node000006" class="node">
<title>Node6</title>
<g id="a_Node000006"><a xlink:href="classComponentRegistry.html#a3bbfefb19e284845afb80ce0a4dd739a" target="_top" xlink:title="Private constructor for singleton pattern. Initializes internal containers with reserved capacity.">
<polygon fill="white" stroke="#666666" points="547,-51 438,-51 438,-19 547,-19 547,-51"/>
<text xml:space="preserve" text-anchor="start" x="446" y="-37.5" font-family="Helvetica,sans-Serif" font-size="10.00">ComponentRegistry::</text>
<text xml:space="preserve" text-anchor="middle" x="492.5" y="-25.5" font-family="Helvetica,sans-Serif" font-size="10.00">ComponentRegistry</text>
</a>
</g>
</g>
<!-- Node5&#45;&gt;Node6 -->
<g id="edge5_Node000005_Node000006" class="edge">
<title>Node5&#45;&gt;Node6</title>
<g id="a_edge5_Node000005_Node000006"><a xlink:title=" ">
<path fill="none" stroke="#63b8ff" d="M402.15,-35C410.02,-35 418.19,-35 426.26,-35"/>
<polygon fill="#63b8ff" stroke="#63b8ff" points="426.03,-38.5 436.03,-35 426.03,-31.5 426.03,-38.5"/>
</a>
</g>
</g>
</g>
</svg>
