<?xml version="1.0" encoding="UTF-8" standalone="no"?>
<!DOCTYPE svg PUBLIC "-//W3C//DTD SVG 1.1//EN"
 "http://www.w3.org/Graphics/SVG/1.1/DTD/svg11.dtd">
<!-- Generated by graphviz version 14.0.2 (0)
 -->
<!-- Title: IComponent Pages: 1 -->
<svg width="419pt" height="636pt"
 viewBox="0.00 0.00 419.00 636.00" xmlns="http://www.w3.org/2000/svg" xmlns:xlink="http://www.w3.org/1999/xlink">
<g id="graph0" class="graph" transform="scale(1 1) rotate(0) translate(4 632)">
<title>IComponent</title>
<!-- Node1 -->
<g id="Node000001" class="node">
<title>Node1</title>
<g id="a_Node000001"><a xlink:title="Interface de base pour tous les composants ECS.">
<polygon fill="#999999" stroke="#666666" points="69.25,-324 0,-324 0,-304 69.25,-304 69.25,-324"/>
<text xml:space="preserve" text-anchor="middle" x="34.62" y="-310.5" font-family="Helvetica,sans-Serif" font-size="10.00">IComponent</text>
</a>
</g>
</g>
<!-- Node2 -->
<g id="Node000002" class="node">
<title>Node2</title>
<g id="a_Node000002"><a xlink:href="classComponent.html" target="_top" xlink:title=" ">
<polygon fill="white" stroke="#666666" points="242.75,-628 105.25,-628 105.25,-608 242.75,-608 242.75,-628"/>
<text xml:space="preserve" text-anchor="middle" x="174" y="-614.5" font-family="Helvetica,sans-Serif" font-size="10.00">Component&lt; AIControlled &gt;</text>
</a>
</g>
</g>
<!-- Node1&#45;&gt;Node2 -->
<g id="edge1_Node000001_Node000002" class="edge">
<title>Node1&#45;&gt;Node2</title>
<g id="a_edge1_Node000001_Node000002"><a xlink:title=" ">
<path fill="none" stroke="#63b8ff" d="M38.1,-335.69C45.33,-395.49 68.31,-560.79 105.25,-599 108.56,-602.43 112.44,-605.25 116.63,-607.57"/>
<polygon fill="#63b8ff" stroke="#63b8ff" points="41.58,-335.35 36.93,-325.83 34.63,-336.17 41.58,-335.35"/>
</a>
</g>
</g>
<!-- Node4 -->
<g id="Node000004" class="node">
<title>Node4</title>
<g id="a_Node000004"><a xlink:href="classComponent.html" target="_top" xlink:title=" ">
<polygon fill="white" stroke="#666666" points="242.75,-590 105.25,-590 105.25,-570 242.75,-570 242.75,-590"/>
<text xml:space="preserve" text-anchor="middle" x="174" y="-576.5" font-family="Helvetica,sans-Serif" font-size="10.00">Component&lt; Acceleration &gt;</text>
</a>
</g>
</g>
<!-- Node1&#45;&gt;Node4 -->
<g id="edge3_Node000001_Node000004" class="edge">
<title>Node1&#45;&gt;Node4</title>
<g id="a_edge3_Node000001_Node000004"><a xlink:title=" ">
<path fill="none" stroke="#63b8ff" d="M35.11,-335.8C35.22,-383.58 42.44,-498.28 105.25,-561 108.71,-564.45 112.74,-567.29 117.08,-569.62"/>
<polygon fill="#63b8ff" stroke="#63b8ff" points="38.61,-335.98 35.21,-325.95 31.61,-335.91 38.61,-335.98"/>
</a>
</g>
</g>
<!-- Node6 -->
<g id="Node000006" class="node">
<title>Node6</title>
<g id="a_Node000006"><a xlink:href="classComponent.html" target="_top" xlink:title=" ">
<polygon fill="white" stroke="#666666" points="228.12,-552 119.88,-552 119.88,-532 228.12,-532 228.12,-552"/>
<text xml:space="preserve" text-anchor="middle" x="174" y="-538.5" font-family="Helvetica,sans-Serif" font-size="10.00">Component&lt; Audio &gt;</text>
</a>
</g>
</g>
<!-- Node1&#45;&gt;Node6 -->
<g id="edge5_Node000001_Node000006" class="edge">
<title>Node1&#45;&gt;Node6</title>
<g id="a_edge5_Node000001_Node000006"><a xlink:title=" ">
<path fill="none" stroke="#63b8ff" d="M36.45,-335.87C39.26,-378.24 51.56,-471.83 105.25,-523 109.41,-526.96 114.32,-530.11 119.57,-532.61"/>
<polygon fill="#63b8ff" stroke="#63b8ff" points="39.95,-335.78 35.93,-325.98 32.96,-336.15 39.95,-335.78"/>
</a>
</g>
</g>
<!-- Node8 -->
<g id="Node000008" class="node">
<title>Node8</title>
<g id="a_Node000008"><a xlink:href="classComponent.html" target="_top" xlink:title=" ">
<polygon fill="white" stroke="#666666" points="232.62,-514 115.38,-514 115.38,-494 232.62,-494 232.62,-514"/>
<text xml:space="preserve" text-anchor="middle" x="174" y="-500.5" font-family="Helvetica,sans-Serif" font-size="10.00">Component&lt; Collider &gt;</text>
</a>
</g>
</g>
<!-- Node1&#45;&gt;Node8 -->
<g id="edge7_Node000001_Node000008" class="edge">
<title>Node1&#45;&gt;Node8</title>
<g id="a_edge7_Node000001_Node000008"><a xlink:title=" ">
<path fill="none" stroke="#63b8ff" d="M38.25,-335.38C43.84,-371.57 60.33,-444.9 105.25,-485 109.08,-488.42 113.47,-491.22 118.15,-493.53"/>
<polygon fill="#63b8ff" stroke="#63b8ff" points="41.75,-335.16 36.91,-325.74 34.82,-336.12 41.75,-335.16"/>
</a>
</g>
</g>
<!-- Node10 -->
<g id="Node000010" class="node">
<title>Node10</title>
<g id="a_Node000010"><a xlink:href="classComponent.html" target="_top" xlink:title=" ">
<polygon fill="white" stroke="#666666" points="234.5,-476 113.5,-476 113.5,-456 234.5,-456 234.5,-476"/>
<text xml:space="preserve" text-anchor="middle" x="174" y="-462.5" font-family="Helvetica,sans-Serif" font-size="10.00">Component&lt; Damage &gt;</text>
</a>
</g>
</g>
<!-- Node1&#45;&gt;Node10 -->
<g id="edge9_Node000001_Node000010" class="edge">
<title>Node1&#45;&gt;Node10</title>
<g id="a_edge9_Node000001_Node000010"><a xlink:title=" ">
<path fill="none" stroke="#63b8ff" d="M40.98,-335.18C49.53,-364.65 69.12,-417.73 105.25,-447 109.52,-450.46 114.38,-453.29 119.5,-455.61"/>
<polygon fill="#63b8ff" stroke="#63b8ff" points="44.46,-334.65 38.45,-325.92 37.71,-336.49 44.46,-334.65"/>
</a>
</g>
</g>
<!-- Node12 -->
<g id="Node000012" class="node">
<title>Node12</title>
<g id="a_Node000012"><a xlink:href="classComponent.html" target="_top" xlink:title=" ">
<polygon fill="white" stroke="#666666" points="233,-438 115,-438 115,-418 233,-418 233,-438"/>
<text xml:space="preserve" text-anchor="middle" x="174" y="-424.5" font-family="Helvetica,sans-Serif" font-size="10.00">Component&lt; Domain &gt;</text>
</a>
</g>
</g>
<!-- Node1&#45;&gt;Node12 -->
<g id="edge11_Node000001_Node000012" class="edge">
<title>Node1&#45;&gt;Node12</title>
<g id="a_edge11_Node000001_Node000012"><a xlink:title=" ">
<path fill="none" stroke="#63b8ff" d="M45.38,-334.45C56.77,-356.14 77.62,-389.86 105.25,-409 110.17,-412.41 115.69,-415.21 121.4,-417.51"/>
<polygon fill="#63b8ff" stroke="#63b8ff" points="48.6,-333.06 40.99,-325.7 42.35,-336.2 48.6,-333.06"/>
</a>
</g>
</g>
<!-- Node14 -->
<g id="Node000014" class="node">
<title>Node14</title>
<g id="a_Node000014"><a xlink:href="classComponent.html" target="_top" xlink:title=" ">
<polygon fill="white" stroke="#666666" points="231.88,-400 116.12,-400 116.12,-380 231.88,-380 231.88,-400"/>
<text xml:space="preserve" text-anchor="middle" x="174" y="-386.5" font-family="Helvetica,sans-Serif" font-size="10.00">Component&lt; Gravity &gt;</text>
</a>
</g>
</g>
<!-- Node1&#45;&gt;Node14 -->
<g id="edge13_Node000001_Node000014" class="edge">
<title>Node1&#45;&gt;Node14</title>
<g id="a_edge13_Node000001_Node000014"><a xlink:title=" ">
<path fill="none" stroke="#63b8ff" d="M53.68,-332.35C66.91,-344.86 85.88,-360.92 105.25,-371 111.75,-374.38 118.93,-377.22 126.1,-379.59"/>
<polygon fill="#63b8ff" stroke="#63b8ff" points="56.18,-329.91 46.58,-325.43 51.3,-334.92 56.18,-329.91"/>
</a>
</g>
</g>
<!-- Node16 -->
<g id="Node000016" class="node">
<title>Node16</title>
<g id="a_Node000016"><a xlink:href="classComponent.html" target="_top" xlink:title=" ">
<polygon fill="white" stroke="#666666" points="230.38,-362 117.62,-362 117.62,-342 230.38,-342 230.38,-362"/>
<text xml:space="preserve" text-anchor="middle" x="174" y="-348.5" font-family="Helvetica,sans-Serif" font-size="10.00">Component&lt; Health &gt;</text>
</a>
</g>
</g>
<!-- Node1&#45;&gt;Node16 -->
<g id="edge15_Node000001_Node000016" class="edge">
<title>Node1&#45;&gt;Node16</title>
<g id="a_edge15_Node000001_Node000016"><a xlink:title=" ">
<path fill="none" stroke="#63b8ff" d="M80.49,-326.41C98.14,-331.29 118.17,-336.83 135.08,-341.51"/>
<polygon fill="#63b8ff" stroke="#63b8ff" points="81.61,-323.09 71.04,-323.8 79.75,-329.84 81.61,-323.09"/>
</a>
</g>
</g>
<!-- Node18 -->
<g id="Node000018" class="node">
<title>Node18</title>
<g id="a_Node000018"><a xlink:href="classComponent.html" target="_top" xlink:title=" ">
<polygon fill="white" stroke="#666666" points="233.38,-324 114.62,-324 114.62,-304 233.38,-304 233.38,-324"/>
<text xml:space="preserve" text-anchor="middle" x="174" y="-310.5" font-family="Helvetica,sans-Serif" font-size="10.00">Component&lt; Lifetime &gt;</text>
</a>
</g>
</g>
<!-- Node1&#45;&gt;Node18 -->
<g id="edge17_Node000001_Node000018" class="edge">
<title>Node1&#45;&gt;Node18</title>
<g id="a_edge17_Node000001_Node000018"><a xlink:title=" ">
<path fill="none" stroke="#63b8ff" d="M80.8,-314C91.51,-314 103.08,-314 114.3,-314"/>
<polygon fill="#63b8ff" stroke="#63b8ff" points="81.1,-310.5 71.1,-314 81.1,-317.5 81.1,-310.5"/>
</a>
</g>
</g>
<!-- Node20 -->
<g id="Node000020" class="node">
<title>Node20</title>
<g id="a_Node000020"><a xlink:href="classComponent.html" target="_top" xlink:title=" ">
<polygon fill="white" stroke="#666666" points="237.5,-286 110.5,-286 110.5,-266 237.5,-266 237.5,-286"/>
<text xml:space="preserve" text-anchor="middle" x="174" y="-272.5" font-family="Helvetica,sans-Serif" font-size="10.00">Component&lt; OnPickup &gt;</text>
</a>
</g>
</g>
<!-- Node1&#45;&gt;Node20 -->
<g id="edge19_Node000001_Node000020" class="edge">
<title>Node1&#45;&gt;Node20</title>
<g id="a_edge19_Node000001_Node000020"><a xlink:title=" ">
<path fill="none" stroke="#63b8ff" d="M80.49,-301.59C98.14,-296.71 118.17,-291.17 135.08,-286.49"/>
<polygon fill="#63b8ff" stroke="#63b8ff" points="79.75,-298.16 71.04,-304.2 81.61,-304.91 79.75,-298.16"/>
</a>
</g>
</g>
<!-- Node22 -->
<g id="Node000022" class="node">
<title>Node22</title>
<g id="a_Node000022"><a xlink:href="classComponent.html" target="_top" xlink:title=" ">
<polygon fill="white" stroke="#666666" points="233.75,-248 114.25,-248 114.25,-228 233.75,-228 233.75,-248"/>
<text xml:space="preserve" text-anchor="middle" x="174" y="-234.5" font-family="Helvetica,sans-Serif" font-size="10.00">Component&lt; Position &gt;</text>
</a>
</g>
</g>
<!-- Node1&#45;&gt;Node22 -->
<g id="edge21_Node000001_Node000022" class="edge">
<title>Node1&#45;&gt;Node22</title>
<g id="a_edge21_Node000001_Node000022"><a xlink:title=" ">
<path fill="none" stroke="#63b8ff" d="M53.68,-295.65C66.91,-283.14 85.88,-267.08 105.25,-257 111.75,-253.62 118.93,-250.78 126.1,-248.41"/>
<polygon fill="#63b8ff" stroke="#63b8ff" points="51.3,-293.08 46.58,-302.57 56.18,-298.09 51.3,-293.08"/>
</a>
</g>
</g>
<!-- Node24 -->
<g id="Node000024" class="node">
<title>Node24</title>
<g id="a_Node000024"><a xlink:href="classComponent.html" target="_top" xlink:title=" ">
<polygon fill="white" stroke="#666666" points="240.88,-210 107.12,-210 107.12,-190 240.88,-190 240.88,-210"/>
<text xml:space="preserve" text-anchor="middle" x="174" y="-196.5" font-family="Helvetica,sans-Serif" font-size="10.00">Component&lt; Renderable &gt;</text>
</a>
</g>
</g>
<!-- Node1&#45;&gt;Node24 -->
<g id="edge23_Node000001_Node000024" class="edge">
<title>Node1&#45;&gt;Node24</title>
<g id="a_edge23_Node000001_Node000024"><a xlink:title=" ">
<path fill="none" stroke="#63b8ff" d="M45.38,-293.55C56.77,-271.86 77.62,-238.14 105.25,-219 110.17,-215.59 115.69,-212.79 121.4,-210.49"/>
<polygon fill="#63b8ff" stroke="#63b8ff" points="42.35,-291.8 40.99,-302.3 48.6,-294.94 42.35,-291.8"/>
</a>
</g>
</g>
<!-- Node26 -->
<g id="Node000026" class="node">
<title>Node26</title>
<g id="a_Node000026"><a xlink:href="classComponent.html" target="_top" xlink:title=" ">
<polygon fill="white" stroke="#666666" points="240.88,-172 107.12,-172 107.12,-152 240.88,-152 240.88,-172"/>
<text xml:space="preserve" text-anchor="middle" x="174" y="-158.5" font-family="Helvetica,sans-Serif" font-size="10.00">Component&lt; ScoreValue &gt;</text>
</a>
</g>
</g>
<!-- Node1&#45;&gt;Node26 -->
<g id="edge25_Node000001_Node000026" class="edge">
<title>Node1&#45;&gt;Node26</title>
<g id="a_edge25_Node000001_Node000026"><a xlink:title=" ">
<path fill="none" stroke="#63b8ff" d="M40.98,-292.82C49.53,-263.35 69.12,-210.27 105.25,-181 109.52,-177.54 114.38,-174.71 119.5,-172.39"/>
<polygon fill="#63b8ff" stroke="#63b8ff" points="37.71,-291.51 38.45,-302.08 44.46,-293.35 37.71,-291.51"/>
</a>
</g>
</g>
<!-- Node28 -->
<g id="Node000028" class="node">
<title>Node28</title>
<g id="a_Node000028"><a xlink:href="classComponent.html" target="_top" xlink:title=" ">
<polygon fill="white" stroke="#666666" points="225.12,-134 122.88,-134 122.88,-114 225.12,-114 225.12,-134"/>
<text xml:space="preserve" text-anchor="middle" x="174" y="-120.5" font-family="Helvetica,sans-Serif" font-size="10.00">Component&lt; Text &gt;</text>
</a>
</g>
</g>
<!-- Node1&#45;&gt;Node28 -->
<g id="edge27_Node000001_Node000028" class="edge">
<title>Node1&#45;&gt;Node28</title>
<g id="a_edge27_Node000001_Node000028"><a xlink:title=" ">
<path fill="none" stroke="#63b8ff" d="M38.25,-292.62C43.84,-256.43 60.33,-183.1 105.25,-143 110.26,-138.53 116.25,-135.1 122.56,-132.47"/>
<polygon fill="#63b8ff" stroke="#63b8ff" points="34.82,-291.88 36.91,-302.26 41.75,-292.84 34.82,-291.88"/>
</a>
</g>
</g>
<!-- Node30 -->
<g id="Node000030" class="node">
<title>Node30</title>
<g id="a_Node000030"><a xlink:href="classComponent.html" target="_top" xlink:title=" ">
<polygon fill="white" stroke="#666666" points="233.38,-96 114.62,-96 114.62,-76 233.38,-76 233.38,-96"/>
<text xml:space="preserve" text-anchor="middle" x="174" y="-82.5" font-family="Helvetica,sans-Serif" font-size="10.00">Component&lt; Velocity &gt;</text>
</a>
</g>
</g>
<!-- Node1&#45;&gt;Node30 -->
<g id="edge29_Node000001_Node000030" class="edge">
<title>Node1&#45;&gt;Node30</title>
<g id="a_edge29_Node000001_Node000030"><a xlink:title=" ">
<path fill="none" stroke="#63b8ff" d="M36.45,-292.13C39.26,-249.76 51.56,-156.17 105.25,-105 108.88,-101.54 113.08,-98.71 117.58,-96.38"/>
<polygon fill="#63b8ff" stroke="#63b8ff" points="32.96,-291.85 35.93,-302.02 39.95,-292.22 32.96,-291.85"/>
</a>
</g>
</g>
<!-- Node32 -->
<g id="Node000032" class="node">
<title>Node32</title>
<g id="a_Node000032"><a xlink:href="classComponent.html" target="_top" xlink:title=" ">
<polygon fill="white" stroke="#666666" points="233.75,-58 114.25,-58 114.25,-38 233.75,-38 233.75,-58"/>
<text xml:space="preserve" text-anchor="middle" x="174" y="-44.5" font-family="Helvetica,sans-Serif" font-size="10.00">Component&lt; Weapon &gt;</text>
</a>
</g>
</g>
<!-- Node1&#45;&gt;Node32 -->
<g id="edge31_Node000001_Node000032" class="edge">
<title>Node1&#45;&gt;Node32</title>
<g id="a_edge31_Node000001_Node000032"><a xlink:title=" ">
<path fill="none" stroke="#63b8ff" d="M35.11,-292.2C35.22,-244.42 42.44,-129.72 105.25,-67 108.71,-63.55 112.74,-60.71 117.08,-58.38"/>
<polygon fill="#63b8ff" stroke="#63b8ff" points="31.61,-292.09 35.21,-302.05 38.61,-292.02 31.61,-292.09"/>
</a>
</g>
</g>
<!-- Node34 -->
<g id="Node000034" class="node">
<title>Node34</title>
<g id="a_Node000034"><a xlink:href="classComponent.html" target="_top" xlink:title="Classe de base CRTP pour les composants concrets.">
<polygon fill="white" stroke="#666666" points="233,-20 115,-20 115,0 233,0 233,-20"/>
<text xml:space="preserve" text-anchor="middle" x="174" y="-6.5" font-family="Helvetica,sans-Serif" font-size="10.00">Component&lt; Derived &gt;</text>
</a>
</g>
</g>
<!-- Node1&#45;&gt;Node34 -->
<g id="edge33_Node000001_Node000034" class="edge">
<title>Node1&#45;&gt;Node34</title>
<g id="a_edge33_Node000001_Node000034"><a xlink:title=" ">
<path fill="none" stroke="#63b8ff" d="M38.1,-292.31C45.33,-232.51 68.31,-67.21 105.25,-29 108.56,-25.57 112.44,-22.75 116.63,-20.43"/>
<polygon fill="#63b8ff" stroke="#63b8ff" points="34.63,-291.83 36.93,-302.17 41.58,-292.65 34.63,-291.83"/>
</a>
</g>
</g>
<!-- Node3 -->
<g id="Node000003" class="node">
<title>Node3</title>
<g id="a_Node000003"><a xlink:href="structGameEngine_1_1AIControlled.html" target="_top" xlink:title=" ">
<polygon fill="white" stroke="#666666" points="411,-628 278.75,-628 278.75,-608 411,-608 411,-628"/>
<text xml:space="preserve" text-anchor="middle" x="344.88" y="-614.5" font-family="Helvetica,sans-Serif" font-size="10.00">GameEngine::AIControlled</text>
</a>
</g>
</g>
<!-- Node2&#45;&gt;Node3 -->
<g id="edge2_Node000002_Node000003" class="edge">
<title>Node2&#45;&gt;Node3</title>
<g id="a_edge2_Node000002_Node000003"><a xlink:title=" ">
<path fill="none" stroke="#63b8ff" d="M254.47,-618C262.5,-618 270.58,-618 278.43,-618"/>
<polygon fill="#63b8ff" stroke="#63b8ff" points="254.71,-614.5 244.71,-618 254.71,-621.5 254.71,-614.5"/>
</a>
</g>
</g>
<!-- Node5 -->
<g id="Node000005" class="node">
<title>Node5</title>
<g id="a_Node000005"><a xlink:href="structGameEngine_1_1Acceleration.html" target="_top" xlink:title="Component representing force applied to an entity&#39;s velocity.">
<polygon fill="white" stroke="#666666" points="411,-590 278.75,-590 278.75,-570 411,-570 411,-590"/>
<text xml:space="preserve" text-anchor="middle" x="344.88" y="-576.5" font-family="Helvetica,sans-Serif" font-size="10.00">GameEngine::Acceleration</text>
</a>
</g>
</g>
<!-- Node4&#45;&gt;Node5 -->
<g id="edge4_Node000004_Node000005" class="edge">
<title>Node4&#45;&gt;Node5</title>
<g id="a_edge4_Node000004_Node000005"><a xlink:title=" ">
<path fill="none" stroke="#63b8ff" d="M254.47,-580C262.5,-580 270.58,-580 278.43,-580"/>
<polygon fill="#63b8ff" stroke="#63b8ff" points="254.71,-576.5 244.71,-580 254.71,-583.5 254.71,-576.5"/>
</a>
</g>
</g>
<!-- Node7 -->
<g id="Node000007" class="node">
<title>Node7</title>
<g id="a_Node000007"><a xlink:href="structGameEngine_1_1Audio.html" target="_top" xlink:title=" ">
<polygon fill="white" stroke="#666666" points="396.38,-552 293.38,-552 293.38,-532 396.38,-532 396.38,-552"/>
<text xml:space="preserve" text-anchor="middle" x="344.88" y="-538.5" font-family="Helvetica,sans-Serif" font-size="10.00">GameEngine::Audio</text>
</a>
</g>
</g>
<!-- Node6&#45;&gt;Node7 -->
<g id="edge6_Node000006_Node000007" class="edge">
<title>Node6&#45;&gt;Node7</title>
<g id="a_edge6_Node000006_Node000007"><a xlink:title=" ">
<path fill="none" stroke="#63b8ff" d="M239.82,-542C257.48,-542 276.34,-542 293.09,-542"/>
<polygon fill="#63b8ff" stroke="#63b8ff" points="239.95,-538.5 229.95,-542 239.95,-545.5 239.95,-538.5"/>
</a>
</g>
</g>
<!-- Node9 -->
<g id="Node000009" class="node">
<title>Node9</title>
<g id="a_Node000009"><a xlink:href="structGameEngine_1_1Collider.html" target="_top" xlink:title="Component defining collision boundaries and interaction rules.">
<polygon fill="white" stroke="#666666" points="400.5,-514 289.25,-514 289.25,-494 400.5,-494 400.5,-514"/>
<text xml:space="preserve" text-anchor="middle" x="344.88" y="-500.5" font-family="Helvetica,sans-Serif" font-size="10.00">GameEngine::Collider</text>
</a>
</g>
</g>
<!-- Node8&#45;&gt;Node9 -->
<g id="edge8_Node000008_Node000009" class="edge">
<title>Node8&#45;&gt;Node9</title>
<g id="a_edge8_Node000008_Node000009"><a xlink:title=" ">
<path fill="none" stroke="#63b8ff" d="M244.29,-504C259.12,-504 274.58,-504 288.78,-504"/>
<polygon fill="#63b8ff" stroke="#63b8ff" points="244.63,-500.5 234.63,-504 244.63,-507.5 244.63,-500.5"/>
</a>
</g>
</g>
<!-- Node11 -->
<g id="Node000011" class="node">
<title>Node11</title>
<g id="a_Node000011"><a xlink:href="structGameEngine_1_1Damage.html" target="_top" xlink:title="Component representing the amount of damage an entity inflicts.">
<polygon fill="white" stroke="#666666" points="402.38,-476 287.38,-476 287.38,-456 402.38,-456 402.38,-476"/>
<text xml:space="preserve" text-anchor="middle" x="344.88" y="-462.5" font-family="Helvetica,sans-Serif" font-size="10.00">GameEngine::Damage</text>
</a>
</g>
</g>
<!-- Node10&#45;&gt;Node11 -->
<g id="edge10_Node000010_Node000011" class="edge">
<title>Node10&#45;&gt;Node11</title>
<g id="a_edge10_Node000010_Node000011"><a xlink:title=" ">
<path fill="none" stroke="#63b8ff" d="M245.94,-466C259.68,-466 273.92,-466 287.14,-466"/>
<polygon fill="#63b8ff" stroke="#63b8ff" points="246.05,-462.5 236.05,-466 246.05,-469.5 246.05,-462.5"/>
</a>
</g>
</g>
<!-- Node13 -->
<g id="Node000013" class="node">
<title>Node13</title>
<g id="a_Node000013"><a xlink:href="structGameEngine_1_1Domain.html" target="_top" xlink:title="Component defining a rectangular boundary constraint for entity movement.">
<polygon fill="white" stroke="#666666" points="400.88,-438 288.88,-438 288.88,-418 400.88,-418 400.88,-438"/>
<text xml:space="preserve" text-anchor="middle" x="344.88" y="-424.5" font-family="Helvetica,sans-Serif" font-size="10.00">GameEngine::Domain</text>
</a>
</g>
</g>
<!-- Node12&#45;&gt;Node13 -->
<g id="edge12_Node000012_Node000013" class="edge">
<title>Node12&#45;&gt;Node13</title>
<g id="a_edge12_Node000012_Node000013"><a xlink:title=" ">
<path fill="none" stroke="#63b8ff" d="M244.23,-428C258.98,-428 274.36,-428 288.5,-428"/>
<polygon fill="#63b8ff" stroke="#63b8ff" points="244.63,-424.5 234.63,-428 244.63,-431.5 244.63,-424.5"/>
</a>
</g>
</g>
<!-- Node15 -->
<g id="Node000015" class="node">
<title>Node15</title>
<g id="a_Node000015"><a xlink:href="structGameEngine_1_1Gravity.html" target="_top" xlink:title="Component representing gravitational force applied to an entity.">
<polygon fill="white" stroke="#666666" points="399.75,-400 290,-400 290,-380 399.75,-380 399.75,-400"/>
<text xml:space="preserve" text-anchor="middle" x="344.88" y="-386.5" font-family="Helvetica,sans-Serif" font-size="10.00">GameEngine::Gravity</text>
</a>
</g>
</g>
<!-- Node14&#45;&gt;Node15 -->
<g id="edge14_Node000014_Node000015" class="edge">
<title>Node14&#45;&gt;Node15</title>
<g id="a_edge14_Node000014_Node000015"><a xlink:title=" ">
<path fill="none" stroke="#63b8ff" d="M243.24,-390C258.67,-390 274.85,-390 289.61,-390"/>
<polygon fill="#63b8ff" stroke="#63b8ff" points="243.69,-386.5 233.69,-390 243.69,-393.5 243.69,-386.5"/>
</a>
</g>
</g>
<!-- Node17 -->
<g id="Node000017" class="node">
<title>Node17</title>
<g id="a_Node000017"><a xlink:href="structGameEngine_1_1Health.html" target="_top" xlink:title="Component representing an entity&#39;s health points and maximum capacity.">
<polygon fill="white" stroke="#666666" points="398.25,-362 291.5,-362 291.5,-342 398.25,-342 398.25,-362"/>
<text xml:space="preserve" text-anchor="middle" x="344.88" y="-348.5" font-family="Helvetica,sans-Serif" font-size="10.00">GameEngine::Health</text>
</a>
</g>
</g>
<!-- Node16&#45;&gt;Node17 -->
<g id="edge16_Node000016_Node000017" class="edge">
<title>Node16&#45;&gt;Node17</title>
<g id="a_edge16_Node000016_Node000017"><a xlink:title=" ">
<path fill="none" stroke="#63b8ff" d="M241.89,-352C258.22,-352 275.46,-352 291.03,-352"/>
<polygon fill="#63b8ff" stroke="#63b8ff" points="242.28,-348.5 232.28,-352 242.28,-355.5 242.28,-348.5"/>
</a>
</g>
</g>
<!-- Node19 -->
<g id="Node000019" class="node">
<title>Node19</title>
<g id="a_Node000019"><a xlink:href="structGameEngine_1_1Lifetime.html" target="_top" xlink:title="Component for entities with limited lifespan.">
<polygon fill="white" stroke="#666666" points="401.25,-324 288.5,-324 288.5,-304 401.25,-304 401.25,-324"/>
<text xml:space="preserve" text-anchor="middle" x="344.88" y="-310.5" font-family="Helvetica,sans-Serif" font-size="10.00">GameEngine::Lifetime</text>
</a>
</g>
</g>
<!-- Node18&#45;&gt;Node19 -->
<g id="edge18_Node000018_Node000019" class="edge">
<title>Node18&#45;&gt;Node19</title>
<g id="a_edge18_Node000018_Node000019"><a xlink:title=" ">
<path fill="none" stroke="#63b8ff" d="M244.99,-314C259.41,-314 274.4,-314 288.23,-314"/>
<polygon fill="#63b8ff" stroke="#63b8ff" points="245.1,-310.5 235.1,-314 245.1,-317.5 245.1,-310.5"/>
</a>
</g>
</g>
<!-- Node21 -->
<g id="Node000021" class="node">
<title>Node21</title>
<g id="a_Node000021"><a xlink:href="structGameEngine_1_1OnPickup.html" target="_top" xlink:title="Component defining power&#45;up effects applied when entity is collected.">
<polygon fill="white" stroke="#666666" points="405.38,-286 284.38,-286 284.38,-266 405.38,-266 405.38,-286"/>
<text xml:space="preserve" text-anchor="middle" x="344.88" y="-272.5" font-family="Helvetica,sans-Serif" font-size="10.00">GameEngine::OnPickup</text>
</a>
</g>
</g>
<!-- Node20&#45;&gt;Node21 -->
<g id="edge20_Node000020_Node000021" class="edge">
<title>Node20&#45;&gt;Node21</title>
<g id="a_edge20_Node000020_Node000021"><a xlink:title=" ">
<path fill="none" stroke="#63b8ff" d="M249.36,-276C260.95,-276 272.8,-276 284.02,-276"/>
<polygon fill="#63b8ff" stroke="#63b8ff" points="249.4,-272.5 239.4,-276 249.4,-279.5 249.4,-272.5"/>
</a>
</g>
</g>
<!-- Node23 -->
<g id="Node000023" class="node">
<title>Node23</title>
<g id="a_Node000023"><a xlink:href="structGameEngine_1_1Position.html" target="_top" xlink:title="Component representing an entity&#39;s 2D location in world space.">
<polygon fill="white" stroke="#666666" points="401.62,-248 288.12,-248 288.12,-228 401.62,-228 401.62,-248"/>
<text xml:space="preserve" text-anchor="middle" x="344.88" y="-234.5" font-family="Helvetica,sans-Serif" font-size="10.00">GameEngine::Position</text>
</a>
</g>
</g>
<!-- Node22&#45;&gt;Node23 -->
<g id="edge22_Node000022_Node000023" class="edge">
<title>Node22&#45;&gt;Node23</title>
<g id="a_edge22_Node000022_Node000023"><a xlink:title=" ">
<path fill="none" stroke="#63b8ff" d="M245.26,-238C259.4,-238 274.09,-238 287.68,-238"/>
<polygon fill="#63b8ff" stroke="#63b8ff" points="245.58,-234.5 235.58,-238 245.58,-241.5 245.58,-234.5"/>
</a>
</g>
</g>
<!-- Node25 -->
<g id="Node000025" class="node">
<title>Node25</title>
<g id="a_Node000025"><a xlink:href="structGameEngine_1_1Renderable.html" target="_top" xlink:title="Component containing all data necessary for sprite rendering and animation.">
<polygon fill="white" stroke="#666666" points="408.75,-210 281,-210 281,-190 408.75,-190 408.75,-210"/>
<text xml:space="preserve" text-anchor="middle" x="344.88" y="-196.5" font-family="Helvetica,sans-Serif" font-size="10.00">GameEngine::Renderable</text>
</a>
</g>
</g>
<!-- Node24&#45;&gt;Node25 -->
<g id="edge24_Node000024_Node000025" class="edge">
<title>Node24&#45;&gt;Node25</title>
<g id="a_edge24_Node000024_Node000025"><a xlink:title=" ">
<path fill="none" stroke="#63b8ff" d="M252.6,-200C261.96,-200 271.44,-200 280.57,-200"/>
<polygon fill="#63b8ff" stroke="#63b8ff" points="252.77,-196.5 242.77,-200 252.77,-203.5 252.77,-196.5"/>
</a>
</g>
</g>
<!-- Node27 -->
<g id="Node000027" class="node">
<title>Node27</title>
<g id="a_Node000027"><a xlink:href="structGameEngine_1_1ScoreValue.html" target="_top" xlink:title=" ">
<polygon fill="white" stroke="#666666" points="408.75,-172 281,-172 281,-152 408.75,-152 408.75,-172"/>
<text xml:space="preserve" text-anchor="middle" x="344.88" y="-158.5" font-family="Helvetica,sans-Serif" font-size="10.00">GameEngine::ScoreValue</text>
</a>
</g>
</g>
<!-- Node26&#45;&gt;Node27 -->
<g id="edge26_Node000026_Node000027" class="edge">
<title>Node26&#45;&gt;Node27</title>
<g id="a_edge26_Node000026_Node000027"><a xlink:title=" ">
<path fill="none" stroke="#63b8ff" d="M252.6,-162C261.96,-162 271.44,-162 280.57,-162"/>
<polygon fill="#63b8ff" stroke="#63b8ff" points="252.77,-158.5 242.77,-162 252.77,-165.5 252.77,-158.5"/>
</a>
</g>
</g>
<!-- Node29 -->
<g id="Node000029" class="node">
<title>Node29</title>
<g id="a_Node000029"><a xlink:href="structGameEngine_1_1Text.html" target="_top" xlink:title=" ">
<polygon fill="white" stroke="#666666" points="393.38,-134 296.38,-134 296.38,-114 393.38,-114 393.38,-134"/>
<text xml:space="preserve" text-anchor="middle" x="344.88" y="-120.5" font-family="Helvetica,sans-Serif" font-size="10.00">GameEngine::Text</text>
</a>
</g>
</g>
<!-- Node28&#45;&gt;Node29 -->
<g id="edge28_Node000028_Node000029" class="edge">
<title>Node28&#45;&gt;Node29</title>
<g id="a_edge28_Node000028_Node000029"><a xlink:title=" ">
<path fill="none" stroke="#63b8ff" d="M236.49,-124C256.06,-124 277.42,-124 295.89,-124"/>
<polygon fill="#63b8ff" stroke="#63b8ff" points="236.72,-120.5 226.72,-124 236.72,-127.5 236.72,-120.5"/>
</a>
</g>
</g>
<!-- Node31 -->
<g id="Node000031" class="node">
<title>Node31</title>
<g id="a_Node000031"><a xlink:href="structGameEngine_1_1Velocity.html" target="_top" xlink:title="Component representing an entity&#39;s movement speed with maximum constraints.">
<polygon fill="white" stroke="#666666" points="401.25,-96 288.5,-96 288.5,-76 401.25,-76 401.25,-96"/>
<text xml:space="preserve" text-anchor="middle" x="344.88" y="-82.5" font-family="Helvetica,sans-Serif" font-size="10.00">GameEngine::Velocity</text>
</a>
</g>
</g>
<!-- Node30&#45;&gt;Node31 -->
<g id="edge30_Node000030_Node000031" class="edge">
<title>Node30&#45;&gt;Node31</title>
<g id="a_edge30_Node000030_Node000031"><a xlink:title=" ">
<path fill="none" stroke="#63b8ff" d="M244.99,-86C259.41,-86 274.4,-86 288.23,-86"/>
<polygon fill="#63b8ff" stroke="#63b8ff" points="245.1,-82.5 235.1,-86 245.1,-89.5 245.1,-82.5"/>
</a>
</g>
</g>
<!-- Node33 -->
<g id="Node000033" class="node">
<title>Node33</title>
<g id="a_Node000033"><a xlink:href="structGameEngine_1_1Weapon.html" target="_top" xlink:title=" ">
<polygon fill="white" stroke="#666666" points="401.62,-58 288.12,-58 288.12,-38 401.62,-38 401.62,-58"/>
<text xml:space="preserve" text-anchor="middle" x="344.88" y="-44.5" font-family="Helvetica,sans-Serif" font-size="10.00">GameEngine::Weapon</text>
</a>
</g>
</g>
<!-- Node32&#45;&gt;Node33 -->
<g id="edge32_Node000032_Node000033" class="edge">
<title>Node32&#45;&gt;Node33</title>
<g id="a_edge32_Node000032_Node000033"><a xlink:title=" ">
<path fill="none" stroke="#63b8ff" d="M245.26,-48C259.4,-48 274.09,-48 287.68,-48"/>
<polygon fill="#63b8ff" stroke="#63b8ff" points="245.58,-44.5 235.58,-48 245.58,-51.5 245.58,-44.5"/>
</a>
</g>
</g>
</g>
</svg>
