<?xml version="1.0" encoding="UTF-8" standalone="no"?>
<!DOCTYPE svg PUBLIC "-//W3C//DTD SVG 1.1//EN"
 "http://www.w3.org/Graphics/SVG/1.1/DTD/svg11.dtd">
<!-- Generated by graphviz version 14.0.1 (0)
 -->
<!-- Title: GameEngine::Death Pages: 1 -->
<svg width="113pt" height="140pt"
 viewBox="0.00 0.00 113.00 140.00" xmlns="http://www.w3.org/2000/svg" xmlns:xlink="http://www.w3.org/1999/xlink">
<g id="graph0" class="graph" transform="scale(1 1) rotate(0) translate(4 136)">
<title>GameEngine::Death</title>
<!-- Node1 -->
<g id="Node000001" class="node">
<title>Node1</title>
<g id="a_Node000001"><a xlink:title="System that removes entities with zero health from the simulation.">
<polygon fill="#999999" stroke="#666666" points="104.5,-20 0,-20 0,0 104.5,0 104.5,-20"/>
<text xml:space="preserve" text-anchor="middle" x="52.25" y="-6.5" font-family="Helvetica,sans-Serif" font-size="10.00">GameEngine::Death</text>
</a>
</g>
</g>
<!-- Node2 -->
<g id="Node000002" class="node">
<title>Node2</title>
<g id="a_Node000002"><a xlink:href="classSystem.html" target="_top" xlink:title=" ">
<polygon fill="white" stroke="#666666" points="99.25,-76 5.25,-76 5.25,-56 99.25,-56 99.25,-76"/>
<text xml:space="preserve" text-anchor="middle" x="52.25" y="-62.5" font-family="Helvetica,sans-Serif" font-size="10.00">System&lt; Death &gt;</text>
</a>
</g>
</g>
<!-- Node2&#45;&gt;Node1 -->
<g id="edge1_Node000001_Node000002" class="edge">
<title>Node2&#45;&gt;Node1</title>
<g id="a_edge1_Node000001_Node000002"><a xlink:title=" ">
<path fill="none" stroke="#63b8ff" d="M52.25,-44.13C52.25,-35.9 52.25,-26.85 52.25,-20.3"/>
<polygon fill="#63b8ff" stroke="#63b8ff" points="48.75,-44.08 52.25,-54.08 55.75,-44.08 48.75,-44.08"/>
</a>
</g>
</g>
<!-- Node3 -->
<g id="Node000003" class="node">
<title>Node3</title>
<g id="a_Node000003"><a xlink:href="classISystem.html" target="_top" xlink:title="Base interface for all systems within the ECS framework.">
<polygon fill="white" stroke="#666666" points="78.62,-132 25.88,-132 25.88,-112 78.62,-112 78.62,-132"/>
<text xml:space="preserve" text-anchor="middle" x="52.25" y="-118.5" font-family="Helvetica,sans-Serif" font-size="10.00">ISystem</text>
</a>
</g>
</g>
<!-- Node3&#45;&gt;Node2 -->
<g id="edge2_Node000002_Node000003" class="edge">
<title>Node3&#45;&gt;Node2</title>
<g id="a_edge2_Node000002_Node000003"><a xlink:title=" ">
<path fill="none" stroke="#63b8ff" d="M52.25,-100.13C52.25,-91.9 52.25,-82.85 52.25,-76.3"/>
<polygon fill="#63b8ff" stroke="#63b8ff" points="48.75,-100.08 52.25,-110.08 55.75,-100.08 48.75,-100.08"/>
</a>
</g>
</g>
</g>
</svg>
