<?xml version="1.0" encoding="UTF-8" standalone="no"?>
<!DOCTYPE svg PUBLIC "-//W3C//DTD SVG 1.1//EN"
 "http://www.w3.org/Graphics/SVG/1.1/DTD/svg11.dtd">
<!-- Generated by graphviz version 14.0.2 (0)
 -->
<!-- Title: IComponent Pages: 1 -->
<svg width="444pt" height="674pt"
 viewBox="0.00 0.00 444.00 674.00" xmlns="http://www.w3.org/2000/svg" xmlns:xlink="http://www.w3.org/1999/xlink">
<g id="graph0" class="graph" transform="scale(1 1) rotate(0) translate(4 670)">
<title>IComponent</title>
<!-- Node1 -->
<g id="Node000001" class="node">
<title>Node1</title>
<g id="a_Node000001"><a xlink:title="Interface de base pour tous les composants ECS.">
<polygon fill="#999999" stroke="#666666" points="69.25,-343 0,-343 0,-323 69.25,-323 69.25,-343"/>
<text xml:space="preserve" text-anchor="middle" x="34.62" y="-329.5" font-family="Helvetica,sans-Serif" font-size="10.00">IComponent</text>
</a>
</g>
</g>
<!-- Node2 -->
<g id="Node000002" class="node">
<title>Node2</title>
<g id="a_Node000002"><a xlink:href="classComponent.html" target="_top" xlink:title=" ">
<polygon fill="white" stroke="#666666" points="249.12,-666 111.62,-666 111.62,-646 249.12,-646 249.12,-666"/>
<text xml:space="preserve" text-anchor="middle" x="180.38" y="-652.5" font-family="Helvetica,sans-Serif" font-size="10.00">Component&lt; AIControlled &gt;</text>
</a>
</g>
</g>
<!-- Node1&#45;&gt;Node2 -->
<g id="edge1_Node000001_Node000002" class="edge">
<title>Node1&#45;&gt;Node2</title>
<g id="a_edge1_Node000001_Node000002"><a xlink:title=" ">
<path fill="none" stroke="#63b8ff" d="M37.67,-354.53C44.04,-416.96 65.48,-596.19 105.25,-637 108.59,-640.43 112.45,-643.26 116.63,-645.61"/>
<polygon fill="#63b8ff" stroke="#63b8ff" points="41.19,-354.49 36.72,-344.88 34.22,-355.18 41.19,-354.49"/>
</a>
</g>
</g>
<!-- Node4 -->
<g id="Node000004" class="node">
<title>Node4</title>
<g id="a_Node000004"><a xlink:href="classComponent.html" target="_top" xlink:title=" ">
<polygon fill="white" stroke="#666666" points="249.12,-628 111.62,-628 111.62,-608 249.12,-608 249.12,-628"/>
<text xml:space="preserve" text-anchor="middle" x="180.38" y="-614.5" font-family="Helvetica,sans-Serif" font-size="10.00">Component&lt; Acceleration &gt;</text>
</a>
</g>
</g>
<!-- Node1&#45;&gt;Node4 -->
<g id="edge3_Node000001_Node000004" class="edge">
<title>Node1&#45;&gt;Node4</title>
<g id="a_edge3_Node000001_Node000004"><a xlink:title=" ">
<path fill="none" stroke="#63b8ff" d="M38.41,-354.41C46.25,-411.27 70.17,-564.1 105.25,-599 108.73,-602.47 112.76,-605.33 117.1,-607.69"/>
<polygon fill="#63b8ff" stroke="#63b8ff" points="41.92,-354.19 37.12,-344.75 34.98,-355.13 41.92,-354.19"/>
</a>
</g>
</g>
<!-- Node6 -->
<g id="Node000006" class="node">
<title>Node6</title>
<g id="a_Node000006"><a xlink:href="classComponent.html" target="_top" xlink:title=" ">
<polygon fill="white" stroke="#666666" points="234.5,-590 126.25,-590 126.25,-570 234.5,-570 234.5,-590"/>
<text xml:space="preserve" text-anchor="middle" x="180.38" y="-576.5" font-family="Helvetica,sans-Serif" font-size="10.00">Component&lt; Audio &gt;</text>
</a>
</g>
</g>
<!-- Node1&#45;&gt;Node6 -->
<g id="edge5_Node000001_Node000006" class="edge">
<title>Node1&#45;&gt;Node6</title>
<g id="a_edge5_Node000001_Node000006"><a xlink:title=" ">
<path fill="none" stroke="#63b8ff" d="M35.62,-354.76C36.85,-400 46.3,-504.67 105.25,-561 111.11,-566.6 118.38,-570.61 126.07,-573.47"/>
<polygon fill="#63b8ff" stroke="#63b8ff" points="39.12,-354.9 35.48,-344.95 32.12,-355 39.12,-354.9"/>
</a>
</g>
</g>
<!-- Node8 -->
<g id="Node000008" class="node">
<title>Node8</title>
<g id="a_Node000008"><a xlink:href="classComponent.html" target="_top" xlink:title=" ">
<polygon fill="white" stroke="#666666" points="239,-552 121.75,-552 121.75,-532 239,-532 239,-552"/>
<text xml:space="preserve" text-anchor="middle" x="180.38" y="-538.5" font-family="Helvetica,sans-Serif" font-size="10.00">Component&lt; Collider &gt;</text>
</a>
</g>
</g>
<!-- Node1&#45;&gt;Node8 -->
<g id="edge7_Node000001_Node000008" class="edge">
<title>Node1&#45;&gt;Node8</title>
<g id="a_edge7_Node000001_Node000008"><a xlink:title=" ">
<path fill="none" stroke="#63b8ff" d="M37.19,-354.89C41.24,-394.48 55.51,-478.02 105.25,-523 109.98,-527.28 115.54,-530.62 121.46,-533.22"/>
<polygon fill="#63b8ff" stroke="#63b8ff" points="40.69,-354.65 36.33,-344.99 33.71,-355.26 40.69,-354.65"/>
</a>
</g>
</g>
<!-- Node10 -->
<g id="Node000010" class="node">
<title>Node10</title>
<g id="a_Node000010"><a xlink:href="classComponent.html" target="_top" xlink:title=" ">
<polygon fill="white" stroke="#666666" points="240.88,-514 119.88,-514 119.88,-494 240.88,-494 240.88,-514"/>
<text xml:space="preserve" text-anchor="middle" x="180.38" y="-500.5" font-family="Helvetica,sans-Serif" font-size="10.00">Component&lt; Damage &gt;</text>
</a>
</g>
</g>
<!-- Node1&#45;&gt;Node10 -->
<g id="edge9_Node000001_Node000010" class="edge">
<title>Node1&#45;&gt;Node10</title>
<g id="a_edge9_Node000001_Node000010"><a xlink:title=" ">
<path fill="none" stroke="#63b8ff" d="M39.37,-354.42C46.32,-387.52 64.37,-450.84 105.25,-485 109.53,-488.58 114.4,-491.49 119.56,-493.87"/>
<polygon fill="#63b8ff" stroke="#63b8ff" points="42.85,-353.98 37.52,-344.83 35.98,-355.31 42.85,-353.98"/>
</a>
</g>
</g>
<!-- Node12 -->
<g id="Node000012" class="node">
<title>Node12</title>
<g id="a_Node000012"><a xlink:href="classComponent.html" target="_top" xlink:title=" ">
<polygon fill="white" stroke="#666666" points="239.38,-476 121.38,-476 121.38,-456 239.38,-456 239.38,-476"/>
<text xml:space="preserve" text-anchor="middle" x="180.38" y="-462.5" font-family="Helvetica,sans-Serif" font-size="10.00">Component&lt; Domain &gt;</text>
</a>
</g>
</g>
<!-- Node1&#45;&gt;Node12 -->
<g id="edge11_Node000001_Node000012" class="edge">
<title>Node1&#45;&gt;Node12</title>
<g id="a_edge11_Node000001_Node000012"><a xlink:title=" ">
<path fill="none" stroke="#63b8ff" d="M42.74,-353.85C52.64,-379.69 73.07,-423.21 105.25,-447 110.06,-450.55 115.46,-453.45 121.11,-455.8"/>
<polygon fill="#63b8ff" stroke="#63b8ff" points="46.15,-352.98 39.44,-344.78 39.57,-355.37 46.15,-352.98"/>
</a>
</g>
</g>
<!-- Node14 -->
<g id="Node000014" class="node">
<title>Node14</title>
<g id="a_Node000014"><a xlink:href="classComponent.html" target="_top" xlink:title=" ">
<polygon fill="white" stroke="#666666" points="238.25,-438 122.5,-438 122.5,-418 238.25,-418 238.25,-438"/>
<text xml:space="preserve" text-anchor="middle" x="180.38" y="-424.5" font-family="Helvetica,sans-Serif" font-size="10.00">Component&lt; Gravity &gt;</text>
</a>
</g>
</g>
<!-- Node1&#45;&gt;Node14 -->
<g id="edge13_Node000001_Node000014" class="edge">
<title>Node1&#45;&gt;Node14</title>
<g id="a_edge13_Node000001_Node000014"><a xlink:title=" ">
<path fill="none" stroke="#63b8ff" d="M48.56,-352.61C61.05,-370 81.51,-394.77 105.25,-409 110.95,-412.42 117.25,-415.22 123.7,-417.53"/>
<polygon fill="#63b8ff" stroke="#63b8ff" points="51.6,-350.85 43.03,-344.61 45.84,-354.83 51.6,-350.85"/>
</a>
</g>
</g>
<!-- Node16 -->
<g id="Node000016" class="node">
<title>Node16</title>
<g id="a_Node000016"><a xlink:href="classComponent.html" target="_top" xlink:title=" ">
<polygon fill="white" stroke="#666666" points="236.75,-400 124,-400 124,-380 236.75,-380 236.75,-400"/>
<text xml:space="preserve" text-anchor="middle" x="180.38" y="-386.5" font-family="Helvetica,sans-Serif" font-size="10.00">Component&lt; Health &gt;</text>
</a>
</g>
</g>
<!-- Node1&#45;&gt;Node16 -->
<g id="edge15_Node000001_Node000016" class="edge">
<title>Node1&#45;&gt;Node16</title>
<g id="a_edge15_Node000001_Node000016"><a xlink:title=" ">
<path fill="none" stroke="#63b8ff" d="M61.47,-349.11C74.27,-356.57 90.19,-365.07 105.25,-371 113.53,-374.26 122.56,-377.12 131.37,-379.56"/>
<polygon fill="#63b8ff" stroke="#63b8ff" points="63.62,-346.32 53.24,-344.2 60.03,-352.33 63.62,-346.32"/>
</a>
</g>
</g>
<!-- Node18 -->
<g id="Node000018" class="node">
<title>Node18</title>
<g id="a_Node000018"><a xlink:href="classComponent.html" target="_top" xlink:title=" ">
<polygon fill="white" stroke="#666666" points="255.5,-362 105.25,-362 105.25,-342 255.5,-342 255.5,-362"/>
<text xml:space="preserve" text-anchor="middle" x="180.38" y="-348.5" font-family="Helvetica,sans-Serif" font-size="10.00">Component&lt; InputControlled &gt;</text>
</a>
</g>
</g>
<!-- Node1&#45;&gt;Node18 -->
<g id="edge17_Node000001_Node000018" class="edge">
<title>Node1&#45;&gt;Node18</title>
<g id="a_edge17_Node000001_Node000018"><a xlink:title=" ">
<path fill="none" stroke="#63b8ff" d="M80.87,-338.98C88.51,-339.99 96.61,-341.06 104.76,-342.14"/>
<polygon fill="#63b8ff" stroke="#63b8ff" points="81.56,-335.54 71.19,-337.7 80.65,-342.48 81.56,-335.54"/>
</a>
</g>
</g>
<!-- Node20 -->
<g id="Node000020" class="node">
<title>Node20</title>
<g id="a_Node000020"><a xlink:href="classComponent.html" target="_top" xlink:title=" ">
<polygon fill="white" stroke="#666666" points="239.75,-324 121,-324 121,-304 239.75,-304 239.75,-324"/>
<text xml:space="preserve" text-anchor="middle" x="180.38" y="-310.5" font-family="Helvetica,sans-Serif" font-size="10.00">Component&lt; Lifetime &gt;</text>
</a>
</g>
</g>
<!-- Node1&#45;&gt;Node20 -->
<g id="edge19_Node000001_Node000020" class="edge">
<title>Node1&#45;&gt;Node20</title>
<g id="a_edge19_Node000001_Node000020"><a xlink:title=" ">
<path fill="none" stroke="#63b8ff" d="M80.84,-327.02C93.43,-325.36 107.29,-323.53 120.53,-321.78"/>
<polygon fill="#63b8ff" stroke="#63b8ff" points="80.65,-323.52 71.19,-328.3 81.56,-330.46 80.65,-323.52"/>
</a>
</g>
</g>
<!-- Node22 -->
<g id="Node000022" class="node">
<title>Node22</title>
<g id="a_Node000022"><a xlink:href="classComponent.html" target="_top" xlink:title=" ">
<polygon fill="white" stroke="#666666" points="243.88,-286 116.88,-286 116.88,-266 243.88,-266 243.88,-286"/>
<text xml:space="preserve" text-anchor="middle" x="180.38" y="-272.5" font-family="Helvetica,sans-Serif" font-size="10.00">Component&lt; OnPickup &gt;</text>
</a>
</g>
</g>
<!-- Node1&#45;&gt;Node22 -->
<g id="edge21_Node000001_Node000022" class="edge">
<title>Node1&#45;&gt;Node22</title>
<g id="a_edge21_Node000001_Node000022"><a xlink:title=" ">
<path fill="none" stroke="#63b8ff" d="M61.47,-316.89C74.27,-309.43 90.19,-300.93 105.25,-295 113.53,-291.74 122.56,-288.88 131.37,-286.44"/>
<polygon fill="#63b8ff" stroke="#63b8ff" points="60.03,-313.67 53.24,-321.8 63.62,-319.68 60.03,-313.67"/>
</a>
</g>
</g>
<!-- Node24 -->
<g id="Node000024" class="node">
<title>Node24</title>
<g id="a_Node000024"><a xlink:href="classComponent.html" target="_top" xlink:title=" ">
<polygon fill="white" stroke="#666666" points="240.12,-248 120.62,-248 120.62,-228 240.12,-228 240.12,-248"/>
<text xml:space="preserve" text-anchor="middle" x="180.38" y="-234.5" font-family="Helvetica,sans-Serif" font-size="10.00">Component&lt; Position &gt;</text>
</a>
</g>
</g>
<!-- Node1&#45;&gt;Node24 -->
<g id="edge23_Node000001_Node000024" class="edge">
<title>Node1&#45;&gt;Node24</title>
<g id="a_edge23_Node000001_Node000024"><a xlink:title=" ">
<path fill="none" stroke="#63b8ff" d="M48.56,-313.39C61.05,-296 81.51,-271.23 105.25,-257 110.95,-253.58 117.25,-250.78 123.7,-248.47"/>
<polygon fill="#63b8ff" stroke="#63b8ff" points="45.84,-311.17 43.03,-321.39 51.6,-315.15 45.84,-311.17"/>
</a>
</g>
</g>
<!-- Node26 -->
<g id="Node000026" class="node">
<title>Node26</title>
<g id="a_Node000026"><a xlink:href="classComponent.html" target="_top" xlink:title=" ">
<polygon fill="white" stroke="#666666" points="247.25,-210 113.5,-210 113.5,-190 247.25,-190 247.25,-210"/>
<text xml:space="preserve" text-anchor="middle" x="180.38" y="-196.5" font-family="Helvetica,sans-Serif" font-size="10.00">Component&lt; Renderable &gt;</text>
</a>
</g>
</g>
<!-- Node1&#45;&gt;Node26 -->
<g id="edge25_Node000001_Node000026" class="edge">
<title>Node1&#45;&gt;Node26</title>
<g id="a_edge25_Node000001_Node000026"><a xlink:title=" ">
<path fill="none" stroke="#63b8ff" d="M42.74,-312.15C52.64,-286.31 73.07,-242.79 105.25,-219 109.95,-215.52 115.22,-212.68 120.74,-210.36"/>
<polygon fill="#63b8ff" stroke="#63b8ff" points="39.57,-310.63 39.44,-321.22 46.15,-313.02 39.57,-310.63"/>
</a>
</g>
</g>
<!-- Node28 -->
<g id="Node000028" class="node">
<title>Node28</title>
<g id="a_Node000028"><a xlink:href="classComponent.html" target="_top" xlink:title=" ">
<polygon fill="white" stroke="#666666" points="247.25,-172 113.5,-172 113.5,-152 247.25,-152 247.25,-172"/>
<text xml:space="preserve" text-anchor="middle" x="180.38" y="-158.5" font-family="Helvetica,sans-Serif" font-size="10.00">Component&lt; ScoreValue &gt;</text>
</a>
</g>
</g>
<!-- Node1&#45;&gt;Node28 -->
<g id="edge27_Node000001_Node000028" class="edge">
<title>Node1&#45;&gt;Node28</title>
<g id="a_edge27_Node000001_Node000028"><a xlink:title=" ">
<path fill="none" stroke="#63b8ff" d="M39.37,-311.58C46.32,-278.48 64.37,-215.16 105.25,-181 109.33,-177.59 113.94,-174.79 118.82,-172.48"/>
<polygon fill="#63b8ff" stroke="#63b8ff" points="35.98,-310.69 37.52,-321.17 42.85,-312.02 35.98,-310.69"/>
</a>
</g>
</g>
<!-- Node30 -->
<g id="Node000030" class="node">
<title>Node30</title>
<g id="a_Node000030"><a xlink:href="classComponent.html" target="_top" xlink:title=" ">
<polygon fill="white" stroke="#666666" points="231.5,-134 129.25,-134 129.25,-114 231.5,-114 231.5,-134"/>
<text xml:space="preserve" text-anchor="middle" x="180.38" y="-120.5" font-family="Helvetica,sans-Serif" font-size="10.00">Component&lt; Text &gt;</text>
</a>
</g>
</g>
<!-- Node1&#45;&gt;Node30 -->
<g id="edge29_Node000001_Node000030" class="edge">
<title>Node1&#45;&gt;Node30</title>
<g id="a_edge29_Node000001_Node000030"><a xlink:title=" ">
<path fill="none" stroke="#63b8ff" d="M37.19,-311.11C41.24,-271.52 55.51,-187.98 105.25,-143 111.95,-136.94 120.32,-132.76 129,-129.89"/>
<polygon fill="#63b8ff" stroke="#63b8ff" points="33.71,-310.74 36.33,-321.01 40.69,-311.35 33.71,-310.74"/>
</a>
</g>
</g>
<!-- Node32 -->
<g id="Node000032" class="node">
<title>Node32</title>
<g id="a_Node000032"><a xlink:href="classComponent.html" target="_top" xlink:title=" ">
<polygon fill="white" stroke="#666666" points="239.75,-96 121,-96 121,-76 239.75,-76 239.75,-96"/>
<text xml:space="preserve" text-anchor="middle" x="180.38" y="-82.5" font-family="Helvetica,sans-Serif" font-size="10.00">Component&lt; Velocity &gt;</text>
</a>
</g>
</g>
<!-- Node1&#45;&gt;Node32 -->
<g id="edge31_Node000001_Node000032" class="edge">
<title>Node1&#45;&gt;Node32</title>
<g id="a_edge31_Node000001_Node000032"><a xlink:title=" ">
<path fill="none" stroke="#63b8ff" d="M35.62,-311.24C36.85,-266 46.3,-161.33 105.25,-105 109.76,-100.69 115.12,-97.32 120.85,-94.69"/>
<polygon fill="#63b8ff" stroke="#63b8ff" points="32.12,-311 35.48,-321.05 39.12,-311.1 32.12,-311"/>
</a>
</g>
</g>
<!-- Node34 -->
<g id="Node000034" class="node">
<title>Node34</title>
<g id="a_Node000034"><a xlink:href="classComponent.html" target="_top" xlink:title=" ">
<polygon fill="white" stroke="#666666" points="240.12,-58 120.62,-58 120.62,-38 240.12,-38 240.12,-58"/>
<text xml:space="preserve" text-anchor="middle" x="180.38" y="-44.5" font-family="Helvetica,sans-Serif" font-size="10.00">Component&lt; Weapon &gt;</text>
</a>
</g>
</g>
<!-- Node1&#45;&gt;Node34 -->
<g id="edge33_Node000001_Node000034" class="edge">
<title>Node1&#45;&gt;Node34</title>
<g id="a_edge33_Node000001_Node000034"><a xlink:title=" ">
<path fill="none" stroke="#63b8ff" d="M38.41,-311.59C46.25,-254.73 70.17,-101.9 105.25,-67 109.58,-62.69 114.75,-59.32 120.32,-56.68"/>
<polygon fill="#63b8ff" stroke="#63b8ff" points="34.98,-310.87 37.12,-321.25 41.92,-311.81 34.98,-310.87"/>
</a>
</g>
</g>
<!-- Node36 -->
<g id="Node000036" class="node">
<title>Node36</title>
<g id="a_Node000036"><a xlink:href="classComponent.html" target="_top" xlink:title="Classe de base CRTP pour les composants concrets.">
<polygon fill="white" stroke="#666666" points="239.38,-20 121.38,-20 121.38,0 239.38,0 239.38,-20"/>
<text xml:space="preserve" text-anchor="middle" x="180.38" y="-6.5" font-family="Helvetica,sans-Serif" font-size="10.00">Component&lt; Derived &gt;</text>
</a>
</g>
</g>
<!-- Node1&#45;&gt;Node36 -->
<g id="edge35_Node000001_Node000036" class="edge">
<title>Node1&#45;&gt;Node36</title>
<g id="a_edge35_Node000001_Node000036"><a xlink:title=" ">
<path fill="none" stroke="#63b8ff" d="M37.67,-311.47C44.04,-249.04 65.48,-69.81 105.25,-29 109.7,-24.43 115.09,-20.91 120.9,-18.2"/>
<polygon fill="#63b8ff" stroke="#63b8ff" points="34.22,-310.82 36.72,-321.12 41.19,-311.51 34.22,-310.82"/>
</a>
</g>
</g>
<!-- Node3 -->
<g id="Node000003" class="node">
<title>Node3</title>
<g id="a_Node000003"><a xlink:href="structGameEngine_1_1AIControlled.html" target="_top" xlink:title=" ">
<polygon fill="white" stroke="#666666" points="429.75,-666 297.5,-666 297.5,-646 429.75,-646 429.75,-666"/>
<text xml:space="preserve" text-anchor="middle" x="363.62" y="-652.5" font-family="Helvetica,sans-Serif" font-size="10.00">GameEngine::AIControlled</text>
</a>
</g>
</g>
<!-- Node2&#45;&gt;Node3 -->
<g id="edge2_Node000002_Node000003" class="edge">
<title>Node2&#45;&gt;Node3</title>
<g id="a_edge2_Node000002_Node000003"><a xlink:title=" ">
<path fill="none" stroke="#63b8ff" d="M260.53,-656C272.79,-656 285.33,-656 297.24,-656"/>
<polygon fill="#63b8ff" stroke="#63b8ff" points="260.9,-652.5 250.9,-656 260.89,-659.5 260.9,-652.5"/>
</a>
</g>
</g>
<!-- Node5 -->
<g id="Node000005" class="node">
<title>Node5</title>
<g id="a_Node000005"><a xlink:href="structGameEngine_1_1Acceleration.html" target="_top" xlink:title="Component representing force applied to an entity&#39;s velocity.">
<polygon fill="white" stroke="#666666" points="429.75,-628 297.5,-628 297.5,-608 429.75,-608 429.75,-628"/>
<text xml:space="preserve" text-anchor="middle" x="363.62" y="-614.5" font-family="Helvetica,sans-Serif" font-size="10.00">GameEngine::Acceleration</text>
</a>
</g>
</g>
<!-- Node4&#45;&gt;Node5 -->
<g id="edge4_Node000004_Node000005" class="edge">
<title>Node4&#45;&gt;Node5</title>
<g id="a_edge4_Node000004_Node000005"><a xlink:title=" ">
<path fill="none" stroke="#63b8ff" d="M260.53,-618C272.79,-618 285.33,-618 297.24,-618"/>
<polygon fill="#63b8ff" stroke="#63b8ff" points="260.9,-614.5 250.9,-618 260.89,-621.5 260.9,-614.5"/>
</a>
</g>
</g>
<!-- Node7 -->
<g id="Node000007" class="node">
<title>Node7</title>
<g id="a_Node000007"><a xlink:href="structGameEngine_1_1Audio.html" target="_top" xlink:title=" ">
<polygon fill="white" stroke="#666666" points="415.12,-590 312.12,-590 312.12,-570 415.12,-570 415.12,-590"/>
<text xml:space="preserve" text-anchor="middle" x="363.62" y="-576.5" font-family="Helvetica,sans-Serif" font-size="10.00">GameEngine::Audio</text>
</a>
</g>
</g>
<!-- Node6&#45;&gt;Node7 -->
<g id="edge6_Node000006_Node000007" class="edge">
<title>Node6&#45;&gt;Node7</title>
<g id="a_edge6_Node000006_Node000007"><a xlink:title=" ">
<path fill="none" stroke="#63b8ff" d="M246.17,-580C267.73,-580 291.43,-580 311.78,-580"/>
<polygon fill="#63b8ff" stroke="#63b8ff" points="246.29,-576.5 236.29,-580 246.29,-583.5 246.29,-576.5"/>
</a>
</g>
</g>
<!-- Node9 -->
<g id="Node000009" class="node">
<title>Node9</title>
<g id="a_Node000009"><a xlink:href="structGameEngine_1_1Collider.html" target="_top" xlink:title="Component defining collision boundaries and interaction rules.">
<polygon fill="white" stroke="#666666" points="419.25,-552 308,-552 308,-532 419.25,-532 419.25,-552"/>
<text xml:space="preserve" text-anchor="middle" x="363.62" y="-538.5" font-family="Helvetica,sans-Serif" font-size="10.00">GameEngine::Collider</text>
</a>
</g>
</g>
<!-- Node8&#45;&gt;Node9 -->
<g id="edge8_Node000008_Node000009" class="edge">
<title>Node8&#45;&gt;Node9</title>
<g id="a_edge8_Node000008_Node000009"><a xlink:title=" ">
<path fill="none" stroke="#63b8ff" d="M250.51,-542C269.47,-542 289.76,-542 307.79,-542"/>
<polygon fill="#63b8ff" stroke="#63b8ff" points="250.74,-538.5 240.74,-542 250.74,-545.5 250.74,-538.5"/>
</a>
</g>
</g>
<!-- Node11 -->
<g id="Node000011" class="node">
<title>Node11</title>
<g id="a_Node000011"><a xlink:href="structGameEngine_1_1Damage.html" target="_top" xlink:title="Component representing the amount of damage an entity inflicts.">
<polygon fill="white" stroke="#666666" points="421.12,-514 306.12,-514 306.12,-494 421.12,-494 421.12,-514"/>
<text xml:space="preserve" text-anchor="middle" x="363.62" y="-500.5" font-family="Helvetica,sans-Serif" font-size="10.00">GameEngine::Damage</text>
</a>
</g>
</g>
<!-- Node10&#45;&gt;Node11 -->
<g id="edge10_Node000010_Node000011" class="edge">
<title>Node10&#45;&gt;Node11</title>
<g id="a_edge10_Node000010_Node000011"><a xlink:title=" ">
<path fill="none" stroke="#63b8ff" d="M252.66,-504C270.34,-504 289.04,-504 305.91,-504"/>
<polygon fill="#63b8ff" stroke="#63b8ff" points="252.74,-500.5 242.74,-504 252.74,-507.5 252.74,-500.5"/>
</a>
</g>
</g>
<!-- Node13 -->
<g id="Node000013" class="node">
<title>Node13</title>
<g id="a_Node000013"><a xlink:href="structGameEngine_1_1Domain.html" target="_top" xlink:title="Component defining a rectangular boundary constraint for entity movement.">
<polygon fill="white" stroke="#666666" points="419.62,-476 307.62,-476 307.62,-456 419.62,-456 419.62,-476"/>
<text xml:space="preserve" text-anchor="middle" x="363.62" y="-462.5" font-family="Helvetica,sans-Serif" font-size="10.00">GameEngine::Domain</text>
</a>
</g>
</g>
<!-- Node12&#45;&gt;Node13 -->
<g id="edge12_Node000012_Node000013" class="edge">
<title>Node12&#45;&gt;Node13</title>
<g id="a_edge12_Node000012_Node000013"><a xlink:title=" ">
<path fill="none" stroke="#63b8ff" d="M251.09,-466C269.66,-466 289.47,-466 307.16,-466"/>
<polygon fill="#63b8ff" stroke="#63b8ff" points="251.23,-462.5 241.23,-466 251.23,-469.5 251.23,-462.5"/>
</a>
</g>
</g>
<!-- Node15 -->
<g id="Node000015" class="node">
<title>Node15</title>
<g id="a_Node000015"><a xlink:href="structGameEngine_1_1Gravity.html" target="_top" xlink:title="Component representing gravitational force applied to an entity.">
<polygon fill="white" stroke="#666666" points="418.5,-438 308.75,-438 308.75,-418 418.5,-418 418.5,-438"/>
<text xml:space="preserve" text-anchor="middle" x="363.62" y="-424.5" font-family="Helvetica,sans-Serif" font-size="10.00">GameEngine::Gravity</text>
</a>
</g>
</g>
<!-- Node14&#45;&gt;Node15 -->
<g id="edge14_Node000014_Node000015" class="edge">
<title>Node14&#45;&gt;Node15</title>
<g id="a_edge14_Node000014_Node000015"><a xlink:title=" ">
<path fill="none" stroke="#63b8ff" d="M250.19,-428C269.46,-428 290.13,-428 308.43,-428"/>
<polygon fill="#63b8ff" stroke="#63b8ff" points="250.24,-424.5 240.24,-428 250.24,-431.5 250.24,-424.5"/>
</a>
</g>
</g>
<!-- Node17 -->
<g id="Node000017" class="node">
<title>Node17</title>
<g id="a_Node000017"><a xlink:href="structGameEngine_1_1Health.html" target="_top" xlink:title="Component representing an entity&#39;s health points and maximum capacity.">
<polygon fill="white" stroke="#666666" points="417,-400 310.25,-400 310.25,-380 417,-380 417,-400"/>
<text xml:space="preserve" text-anchor="middle" x="363.62" y="-386.5" font-family="Helvetica,sans-Serif" font-size="10.00">GameEngine::Health</text>
</a>
</g>
</g>
<!-- Node16&#45;&gt;Node17 -->
<g id="edge16_Node000016_Node000017" class="edge">
<title>Node16&#45;&gt;Node17</title>
<g id="a_edge16_Node000016_Node000017"><a xlink:title=" ">
<path fill="none" stroke="#63b8ff" d="M248.62,-390C268.91,-390 290.86,-390 310.05,-390"/>
<polygon fill="#63b8ff" stroke="#63b8ff" points="248.75,-386.5 238.75,-390 248.75,-393.5 248.75,-386.5"/>
</a>
</g>
</g>
<!-- Node19 -->
<g id="Node000019" class="node">
<title>Node19</title>
<g id="a_Node000019"><a xlink:href="structGameEngine_1_1InputControlled.html" target="_top" xlink:title="Component marking entities as controllable by player input.">
<polygon fill="white" stroke="#666666" points="435.75,-362 291.5,-362 291.5,-342 435.75,-342 435.75,-362"/>
<text xml:space="preserve" text-anchor="middle" x="363.62" y="-348.5" font-family="Helvetica,sans-Serif" font-size="10.00">GameEngine::InputControlled</text>
</a>
</g>
</g>
<!-- Node18&#45;&gt;Node19 -->
<g id="edge18_Node000018_Node000019" class="edge">
<title>Node18&#45;&gt;Node19</title>
<g id="a_edge18_Node000018_Node000019"><a xlink:title=" ">
<path fill="none" stroke="#63b8ff" d="M267.13,-352C275.13,-352 283.18,-352 291.04,-352"/>
<polygon fill="#63b8ff" stroke="#63b8ff" points="267.39,-348.5 257.39,-352 267.39,-355.5 267.39,-348.5"/>
</a>
</g>
</g>
<!-- Node21 -->
<g id="Node000021" class="node">
<title>Node21</title>
<g id="a_Node000021"><a xlink:href="structGameEngine_1_1Lifetime.html" target="_top" xlink:title="Component for entities with limited lifespan.">
<polygon fill="white" stroke="#666666" points="420,-324 307.25,-324 307.25,-304 420,-304 420,-324"/>
<text xml:space="preserve" text-anchor="middle" x="363.62" y="-310.5" font-family="Helvetica,sans-Serif" font-size="10.00">GameEngine::Lifetime</text>
</a>
</g>
</g>
<!-- Node20&#45;&gt;Node21 -->
<g id="edge20_Node000020_Node000021" class="edge">
<title>Node20&#45;&gt;Node21</title>
<g id="a_edge20_Node000020_Node000021"><a xlink:title=" ">
<path fill="none" stroke="#63b8ff" d="M251.73,-314C270,-314 289.43,-314 306.85,-314"/>
<polygon fill="#63b8ff" stroke="#63b8ff" points="251.74,-310.5 241.74,-314 251.74,-317.5 251.74,-310.5"/>
</a>
</g>
</g>
<!-- Node23 -->
<g id="Node000023" class="node">
<title>Node23</title>
<g id="a_Node000023"><a xlink:href="structGameEngine_1_1OnPickup.html" target="_top" xlink:title=" ">
<polygon fill="white" stroke="#666666" points="424.12,-286 303.12,-286 303.12,-266 424.12,-266 424.12,-286"/>
<text xml:space="preserve" text-anchor="middle" x="363.62" y="-272.5" font-family="Helvetica,sans-Serif" font-size="10.00">GameEngine::OnPickup</text>
</a>
</g>
</g>
<!-- Node22&#45;&gt;Node23 -->
<g id="edge22_Node000022_Node000023" class="edge">
<title>Node22&#45;&gt;Node23</title>
<g id="a_edge22_Node000022_Node000023"><a xlink:title=" ">
<path fill="none" stroke="#63b8ff" d="M255.58,-276C271.33,-276 287.77,-276 302.9,-276"/>
<polygon fill="#63b8ff" stroke="#63b8ff" points="255.77,-272.5 245.77,-276 255.77,-279.5 255.77,-272.5"/>
</a>
</g>
</g>
<!-- Node25 -->
<g id="Node000025" class="node">
<title>Node25</title>
<g id="a_Node000025"><a xlink:href="structGameEngine_1_1Position.html" target="_top" xlink:title="Component representing an entity&#39;s 2D location in world space.">
<polygon fill="white" stroke="#666666" points="420.38,-248 306.88,-248 306.88,-228 420.38,-228 420.38,-248"/>
<text xml:space="preserve" text-anchor="middle" x="363.62" y="-234.5" font-family="Helvetica,sans-Serif" font-size="10.00">GameEngine::Position</text>
</a>
</g>
</g>
<!-- Node24&#45;&gt;Node25 -->
<g id="edge24_Node000024_Node000025" class="edge">
<title>Node24&#45;&gt;Node25</title>
<g id="a_edge24_Node000024_Node000025"><a xlink:title=" ">
<path fill="none" stroke="#63b8ff" d="M251.85,-238C269.93,-238 289.13,-238 306.38,-238"/>
<polygon fill="#63b8ff" stroke="#63b8ff" points="251.99,-234.5 241.99,-238 251.99,-241.5 251.99,-234.5"/>
</a>
</g>
</g>
<!-- Node27 -->
<g id="Node000027" class="node">
<title>Node27</title>
<g id="a_Node000027"><a xlink:href="structGameEngine_1_1Renderable.html" target="_top" xlink:title="Component containing all data necessary for sprite rendering and animation.">
<polygon fill="white" stroke="#666666" points="427.5,-210 299.75,-210 299.75,-190 427.5,-190 427.5,-210"/>
<text xml:space="preserve" text-anchor="middle" x="363.62" y="-196.5" font-family="Helvetica,sans-Serif" font-size="10.00">GameEngine::Renderable</text>
</a>
</g>
</g>
<!-- Node26&#45;&gt;Node27 -->
<g id="edge26_Node000026_Node000027" class="edge">
<title>Node26&#45;&gt;Node27</title>
<g id="a_edge26_Node000026_Node000027"><a xlink:title=" ">
<path fill="none" stroke="#63b8ff" d="M258.81,-200C272.33,-200 286.24,-200 299.32,-200"/>
<polygon fill="#63b8ff" stroke="#63b8ff" points="259.09,-196.5 249.09,-200 259.09,-203.5 259.09,-196.5"/>
</a>
</g>
</g>
<!-- Node29 -->
<g id="Node000029" class="node">
<title>Node29</title>
<g id="a_Node000029"><a xlink:href="structGameEngine_1_1ScoreValue.html" target="_top" xlink:title=" ">
<polygon fill="white" stroke="#666666" points="427.5,-172 299.75,-172 299.75,-152 427.5,-152 427.5,-172"/>
<text xml:space="preserve" text-anchor="middle" x="363.62" y="-158.5" font-family="Helvetica,sans-Serif" font-size="10.00">GameEngine::ScoreValue</text>
</a>
</g>
</g>
<!-- Node28&#45;&gt;Node29 -->
<g id="edge28_Node000028_Node000029" class="edge">
<title>Node28&#45;&gt;Node29</title>
<g id="a_edge28_Node000028_Node000029"><a xlink:title=" ">
<path fill="none" stroke="#63b8ff" d="M258.81,-162C272.33,-162 286.24,-162 299.32,-162"/>
<polygon fill="#63b8ff" stroke="#63b8ff" points="259.09,-158.5 249.09,-162 259.09,-165.5 259.09,-158.5"/>
</a>
</g>
</g>
<!-- Node31 -->
<g id="Node000031" class="node">
<title>Node31</title>
<g id="a_Node000031"><a xlink:href="structGameEngine_1_1Text.html" target="_top" xlink:title=" ">
<polygon fill="white" stroke="#666666" points="412.12,-134 315.12,-134 315.12,-114 412.12,-114 412.12,-134"/>
<text xml:space="preserve" text-anchor="middle" x="363.62" y="-120.5" font-family="Helvetica,sans-Serif" font-size="10.00">GameEngine::Text</text>
</a>
</g>
</g>
<!-- Node30&#45;&gt;Node31 -->
<g id="edge30_Node000030_Node000031" class="edge">
<title>Node30&#45;&gt;Node31</title>
<g id="a_edge30_Node000030_Node000031"><a xlink:title=" ">
<path fill="none" stroke="#63b8ff" d="M243.12,-124C266.58,-124 292.93,-124 314.9,-124"/>
<polygon fill="#63b8ff" stroke="#63b8ff" points="243.38,-120.5 233.38,-124 243.38,-127.5 243.38,-120.5"/>
</a>
</g>
</g>
<!-- Node33 -->
<g id="Node000033" class="node">
<title>Node33</title>
<g id="a_Node000033"><a xlink:href="structGameEngine_1_1Velocity.html" target="_top" xlink:title="Component representing an entity&#39;s movement speed with maximum constraints.">
<polygon fill="white" stroke="#666666" points="420,-96 307.25,-96 307.25,-76 420,-76 420,-96"/>
<text xml:space="preserve" text-anchor="middle" x="363.62" y="-82.5" font-family="Helvetica,sans-Serif" font-size="10.00">GameEngine::Velocity</text>
</a>
</g>
</g>
<!-- Node32&#45;&gt;Node33 -->
<g id="edge32_Node000032_Node000033" class="edge">
<title>Node32&#45;&gt;Node33</title>
<g id="a_edge32_Node000032_Node000033"><a xlink:title=" ">
<path fill="none" stroke="#63b8ff" d="M251.73,-86C270,-86 289.43,-86 306.85,-86"/>
<polygon fill="#63b8ff" stroke="#63b8ff" points="251.74,-82.5 241.74,-86 251.74,-89.5 251.74,-82.5"/>
</a>
</g>
</g>
<!-- Node35 -->
<g id="Node000035" class="node">
<title>Node35</title>
<g id="a_Node000035"><a xlink:href="structGameEngine_1_1Weapon.html" target="_top" xlink:title=" ">
<polygon fill="white" stroke="#666666" points="420.38,-58 306.88,-58 306.88,-38 420.38,-38 420.38,-58"/>
<text xml:space="preserve" text-anchor="middle" x="363.62" y="-44.5" font-family="Helvetica,sans-Serif" font-size="10.00">GameEngine::Weapon</text>
</a>
</g>
</g>
<!-- Node34&#45;&gt;Node35 -->
<g id="edge34_Node000034_Node000035" class="edge">
<title>Node34&#45;&gt;Node35</title>
<g id="a_edge34_Node000034_Node000035"><a xlink:title=" ">
<path fill="none" stroke="#63b8ff" d="M251.85,-48C269.93,-48 289.13,-48 306.38,-48"/>
<polygon fill="#63b8ff" stroke="#63b8ff" points="251.99,-44.5 241.99,-48 251.99,-51.5 251.99,-44.5"/>
</a>
</g>
</g>
</g>
</svg>
