<?xml version="1.0" encoding="UTF-8" standalone="no"?>
<!DOCTYPE svg PUBLIC "-//W3C//DTD SVG 1.1//EN"
 "http://www.w3.org/Graphics/SVG/1.1/DTD/svg11.dtd">
<!-- Generated by graphviz version 14.0.1 (0)
 -->
<!-- Title: GameEngine::InputHandler::onUpdate Pages: 1 -->
<svg width="787pt" height="389pt"
 viewBox="0.00 0.00 787.00 389.00" xmlns="http://www.w3.org/2000/svg" xmlns:xlink="http://www.w3.org/1999/xlink">
<g id="graph0" class="graph" transform="scale(1 1) rotate(0) translate(4 385.3)">
<title>GameEngine::InputHandler::onUpdate</title>
<!-- Node1 -->
<g id="Node000001" class="node">
<title>Node1</title>
<g id="a_Node000001"><a xlink:title=" ">
<polygon fill="#999999" stroke="#666666" points="133.75,-238 0,-238 0,-206 133.75,-206 133.75,-238"/>
<text xml:space="preserve" text-anchor="start" x="8" y="-224.5" font-family="Helvetica,sans-Serif" font-size="10.00">GameEngine::InputHandler</text>
<text xml:space="preserve" text-anchor="middle" x="66.88" y="-212.5" font-family="Helvetica,sans-Serif" font-size="10.00">::onUpdate</text>
</a>
</g>
</g>
<!-- Node2 -->
<g id="Node000002" class="node">
<title>Node2</title>
<g id="a_Node000002"><a xlink:href="classRegistry.html#ac21e496215b081569cfc303e1a4c0b10" target="_top" xlink:title="Creates a new entity.">
<polygon fill="white" stroke="#666666" points="269.75,-308 184,-308 184,-288 269.75,-288 269.75,-308"/>
<text xml:space="preserve" text-anchor="middle" x="226.88" y="-294.5" font-family="Helvetica,sans-Serif" font-size="10.00">Registry::create</text>
</a>
</g>
</g>
<!-- Node1&#45;&gt;Node2 -->
<g id="edge1_Node000001_Node000002" class="edge">
<title>Node1&#45;&gt;Node2</title>
<g id="a_edge1_Node000001_Node000002"><a xlink:title=" ">
<path fill="none" stroke="#63b8ff" d="M98.82,-238.48C118.87,-249 145.65,-262.71 169.75,-274 176.3,-277.07 183.35,-280.21 190.16,-283.16"/>
<polygon fill="#63b8ff" stroke="#63b8ff" points="188.61,-286.3 199.18,-287.01 191.36,-279.86 188.61,-286.3"/>
</a>
</g>
</g>
<!-- Node3 -->
<g id="Node000003" class="node">
<title>Node3</title>
<g id="a_Node000003"><a xlink:href="classRegistry.html#a31cfb49fd633086383bf646b39a8daa2" target="_top" xlink:title="Iterates through all entities that have all the specified components.">
<polygon fill="white" stroke="#666666" points="266.75,-232 187,-232 187,-212 266.75,-212 266.75,-232"/>
<text xml:space="preserve" text-anchor="middle" x="226.88" y="-218.5" font-family="Helvetica,sans-Serif" font-size="10.00">Registry::each</text>
</a>
</g>
</g>
<!-- Node1&#45;&gt;Node3 -->
<g id="edge2_Node000001_Node000003" class="edge">
<title>Node1&#45;&gt;Node3</title>
<g id="a_edge2_Node000001_Node000003"><a xlink:title=" ">
<path fill="none" stroke="#63b8ff" d="M133.97,-222C147.83,-222 162.24,-222 175.43,-222"/>
<polygon fill="#63b8ff" stroke="#63b8ff" points="175.14,-225.5 185.14,-222 175.14,-218.5 175.14,-225.5"/>
</a>
</g>
</g>
<!-- Node5 -->
<g id="Node000005" class="node">
<title>Node5</title>
<g id="a_Node000005"><a xlink:href="classRegistry.html#a11f1e4d7d7ef1a84640adddf32c1f862" target="_top" xlink:title="Gets a reference to a component of type Component for entity e.">
<polygon fill="white" stroke="#666666" points="440.62,-348 368.38,-348 368.38,-328 440.62,-328 440.62,-348"/>
<text xml:space="preserve" text-anchor="middle" x="404.5" y="-334.5" font-family="Helvetica,sans-Serif" font-size="10.00">Registry::get</text>
</a>
</g>
</g>
<!-- Node1&#45;&gt;Node5 -->
<g id="edge21_Node000001_Node000005" class="edge">
<title>Node1&#45;&gt;Node5</title>
<g id="a_edge21_Node000001_Node000005"><a xlink:title=" ">
<path fill="none" stroke="#63b8ff" d="M134.24,-235.14C188.06,-246.59 258.95,-263.71 284,-279 304.42,-291.46 299.37,-306.89 320,-319 331.09,-325.51 344.22,-329.79 356.75,-332.61"/>
<polygon fill="#63b8ff" stroke="#63b8ff" points="356.04,-336.03 366.52,-334.51 357.37,-329.16 356.04,-336.03"/>
</a>
</g>
</g>
<!-- Node13 -->
<g id="Node000013" class="node">
<title>Node13</title>
<g id="a_Node000013"><a xlink:href="classRegistry.html#ab12b0e856e109cd94af4aeb5e969de24" target="_top" xlink:title="Adds a new component of type Component to entity e.">
<polygon fill="white" stroke="#666666" points="274.62,-115 179.12,-115 179.12,-95 274.62,-95 274.62,-115"/>
<text xml:space="preserve" text-anchor="middle" x="226.88" y="-101.5" font-family="Helvetica,sans-Serif" font-size="10.00">Registry::emplace</text>
</a>
</g>
</g>
<!-- Node1&#45;&gt;Node13 -->
<g id="edge16_Node000001_Node000013" class="edge">
<title>Node1&#45;&gt;Node13</title>
<g id="a_edge16_Node000001_Node000013"><a xlink:title=" ">
<path fill="none" stroke="#63b8ff" d="M89.84,-205.73C119.68,-183.64 172.77,-144.33 203.05,-121.9"/>
<polygon fill="#63b8ff" stroke="#63b8ff" points="204.85,-124.93 210.8,-116.16 200.68,-119.3 204.85,-124.93"/>
</a>
</g>
</g>
<!-- Node15 -->
<g id="Node000015" class="node">
<title>Node15</title>
<g id="a_Node000015"><a xlink:href="classSystem.html#ac7b716e6d41ff508ad2d8e5dad655d72" target="_top" xlink:title=" ">
<polygon fill="white" stroke="#666666" points="284,-77 169.75,-77 169.75,-45 284,-45 284,-77"/>
<text xml:space="preserve" text-anchor="start" x="177.75" y="-63.5" font-family="Helvetica,sans-Serif" font-size="10.00">System&lt; InputHandler</text>
<text xml:space="preserve" text-anchor="middle" x="226.88" y="-51.5" font-family="Helvetica,sans-Serif" font-size="10.00"> &gt;::Registry</text>
</a>
</g>
</g>
<!-- Node1&#45;&gt;Node15 -->
<g id="edge22_Node000001_Node000015" class="edge">
<title>Node1&#45;&gt;Node15</title>
<g id="a_edge22_Node000001_Node000015"><a xlink:title=" ">
<path fill="none" stroke="#63b8ff" d="M76.44,-205.63C91.78,-177.72 126.4,-120.59 169.75,-86 170.88,-85.1 172.04,-84.23 173.23,-83.38"/>
<polygon fill="#63b8ff" stroke="#63b8ff" points="174.95,-86.44 181.57,-78.17 171.24,-80.5 174.95,-86.44"/>
</a>
</g>
</g>
<!-- Node4 -->
<g id="Node000004" class="node">
<title>Node4</title>
<g id="a_Node000004"><a xlink:href="classRegistry.html#acd4bfce3db63792e03b353900dc89f76" target="_top" xlink:title="Ensures that a component pool exists for the given component ID. Creates it if necessary.">
<polygon fill="white" stroke="#666666" points="458.25,-134 350.75,-134 350.75,-114 458.25,-114 458.25,-134"/>
<text xml:space="preserve" text-anchor="middle" x="404.5" y="-120.5" font-family="Helvetica,sans-Serif" font-size="10.00">Registry::assurePool</text>
</a>
</g>
</g>
<!-- Node3&#45;&gt;Node4 -->
<g id="edge3_Node000003_Node000004" class="edge">
<title>Node3&#45;&gt;Node4</title>
<g id="a_edge3_Node000003_Node000004"><a xlink:title=" ">
<path fill="none" stroke="#63b8ff" d="M237.95,-211.6C253.92,-195.67 286.67,-165.28 320,-148 327.54,-144.09 335.81,-140.74 344.11,-137.89"/>
<polygon fill="#63b8ff" stroke="#63b8ff" points="345.08,-141.25 353.55,-134.89 342.96,-134.58 345.08,-141.25"/>
</a>
</g>
</g>
<!-- Node3&#45;&gt;Node5 -->
<g id="edge4_Node000003_Node000005" class="edge">
<title>Node3&#45;&gt;Node5</title>
<g id="a_edge4_Node000003_Node000005"><a xlink:title=" ">
<path fill="none" stroke="#63b8ff" d="M262.84,-232.43C270.44,-235.87 278,-240.32 284,-246 310.26,-270.88 291.6,-296.59 320,-319 330.47,-327.26 343.86,-332.07 356.83,-334.83"/>
<polygon fill="#63b8ff" stroke="#63b8ff" points="356.1,-338.25 366.55,-336.5 357.29,-331.35 356.1,-338.25"/>
</a>
</g>
</g>
<!-- Node6 -->
<g id="Node000006" class="node">
<title>Node6</title>
<g id="a_Node000006"><a xlink:href="classComponentRegistry.html#a4d993c2bab87c6bdac36ba8f589eca5f" target="_top" xlink:title="Retrieves or creates a unique ID for the given component type T.">
<polygon fill="white" stroke="#666666" points="634,-310 525,-310 525,-278 634,-278 634,-310"/>
<text xml:space="preserve" text-anchor="start" x="533" y="-296.5" font-family="Helvetica,sans-Serif" font-size="10.00">ComponentRegistry::</text>
<text xml:space="preserve" text-anchor="middle" x="579.5" y="-284.5" font-family="Helvetica,sans-Serif" font-size="10.00">getOrCreateID</text>
</a>
</g>
</g>
<!-- Node3&#45;&gt;Node6 -->
<g id="edge10_Node000003_Node000006" class="edge">
<title>Node3&#45;&gt;Node6</title>
<g id="a_edge10_Node000003_Node000006"><a xlink:title=" ">
<path fill="none" stroke="#63b8ff" d="M240.3,-232.32C252.6,-243.03 271.36,-260.72 284,-279 305.72,-310.4 287.84,-336.42 320,-357 383.27,-397.48 417.39,-379.68 489,-357 513.3,-349.3 536.71,-332.37 553.49,-318"/>
<polygon fill="#63b8ff" stroke="#63b8ff" points="555.81,-320.62 560.96,-311.36 551.16,-315.39 555.81,-320.62"/>
</a>
</g>
</g>
<!-- Node8 -->
<g id="Node000008" class="node">
<title>Node8</title>
<g id="a_Node000008"><a xlink:href="classComponentRegistry.html#a18cad5dda10f4bb28fb6933f5aa85fce" target="_top" xlink:title="Provides access to the global ComponentRegistry instance.">
<polygon fill="white" stroke="#666666" points="634,-197 525,-197 525,-165 634,-165 634,-197"/>
<text xml:space="preserve" text-anchor="start" x="533" y="-183.5" font-family="Helvetica,sans-Serif" font-size="10.00">ComponentRegistry::</text>
<text xml:space="preserve" text-anchor="middle" x="579.5" y="-171.5" font-family="Helvetica,sans-Serif" font-size="10.00">instance</text>
</a>
</g>
</g>
<!-- Node3&#45;&gt;Node8 -->
<g id="edge14_Node000003_Node000008" class="edge">
<title>Node3&#45;&gt;Node8</title>
<g id="a_edge14_Node000003_Node000008"><a xlink:title=" ">
<path fill="none" stroke="#63b8ff" d="M245.13,-211.67C263.1,-201.56 292.43,-186.86 320,-181 384.82,-167.23 460.87,-169.34 513.63,-173.6"/>
<polygon fill="#63b8ff" stroke="#63b8ff" points="513.08,-177.07 523.34,-174.44 513.68,-170.09 513.08,-177.07"/>
</a>
</g>
</g>
<!-- Node10 -->
<g id="Node000010" class="node">
<title>Node10</title>
<g id="a_Node000010"><a xlink:href="structRegistry_1_1IComponentPool.html#ad4a1001874d3ea8f343fbbcf4988c507" target="_top" xlink:title=" ">
<polygon fill="white" stroke="#666666" points="470.25,-260 338.75,-260 338.75,-228 470.25,-228 470.25,-260"/>
<text xml:space="preserve" text-anchor="start" x="346.75" y="-246.5" font-family="Helvetica,sans-Serif" font-size="10.00">Registry::IComponentPool</text>
<text xml:space="preserve" text-anchor="middle" x="404.5" y="-234.5" font-family="Helvetica,sans-Serif" font-size="10.00">::getEntityAt</text>
</a>
</g>
</g>
<!-- Node3&#45;&gt;Node10 -->
<g id="edge9_Node000003_Node000010" class="edge">
<title>Node3&#45;&gt;Node10</title>
<g id="a_edge9_Node000003_Node000010"><a xlink:title=" ">
<path fill="none" stroke="#63b8ff" d="M266.85,-226.88C284.59,-229.1 306.22,-231.81 326.99,-234.42"/>
<polygon fill="#63b8ff" stroke="#63b8ff" points="326.56,-237.89 336.91,-235.66 327.43,-230.94 326.56,-237.89"/>
</a>
</g>
</g>
<!-- Node11 -->
<g id="Node000011" class="node">
<title>Node11</title>
<g id="a_Node000011"><a xlink:href="classRegistry.html#acac1f1c8a740cfeb2b33a32cfd6ad83f" target="_top" xlink:title="Checks if entity e has a component of type Component.">
<polygon fill="white" stroke="#666666" points="441.75,-210 367.25,-210 367.25,-190 441.75,-190 441.75,-210"/>
<text xml:space="preserve" text-anchor="middle" x="404.5" y="-196.5" font-family="Helvetica,sans-Serif" font-size="10.00">Registry::has</text>
</a>
</g>
</g>
<!-- Node3&#45;&gt;Node11 -->
<g id="edge11_Node000003_Node000011" class="edge">
<title>Node3&#45;&gt;Node11</title>
<g id="a_edge11_Node000003_Node000011"><a xlink:title=" ">
<path fill="none" stroke="#63b8ff" d="M266.85,-217.12C293.14,-213.82 328,-209.46 355.92,-205.96"/>
<polygon fill="#63b8ff" stroke="#63b8ff" points="356.04,-209.47 365.53,-204.76 355.17,-202.53 356.04,-209.47"/>
</a>
</g>
</g>
<!-- Node12 -->
<g id="Node000012" class="node">
<title>Node12</title>
<g id="a_Node000012"><a xlink:href="structRegistry_1_1IComponentPool.html#af60edba4f576e1c34ed07f6dd4e9348b" target="_top" xlink:title=" ">
<polygon fill="white" stroke="#666666" points="470.25,-310 338.75,-310 338.75,-278 470.25,-278 470.25,-310"/>
<text xml:space="preserve" text-anchor="start" x="346.75" y="-296.5" font-family="Helvetica,sans-Serif" font-size="10.00">Registry::IComponentPool</text>
<text xml:space="preserve" text-anchor="middle" x="404.5" y="-284.5" font-family="Helvetica,sans-Serif" font-size="10.00">::size</text>
</a>
</g>
</g>
<!-- Node3&#45;&gt;Node12 -->
<g id="edge15_Node000003_Node000012" class="edge">
<title>Node3&#45;&gt;Node12</title>
<g id="a_edge15_Node000003_Node000012"><a xlink:title=" ">
<path fill="none" stroke="#63b8ff" d="M254.85,-232.48C264.23,-236.4 274.72,-241.1 284,-246 300.79,-254.87 302.74,-261.09 320,-269 323.55,-270.63 327.23,-272.18 330.97,-273.65"/>
<polygon fill="#63b8ff" stroke="#63b8ff" points="329.66,-276.9 340.25,-277.09 332.09,-270.33 329.66,-276.9"/>
</a>
</g>
</g>
<!-- Node5&#45;&gt;Node6 -->
<g id="edge5_Node000005_Node000006" class="edge">
<title>Node5&#45;&gt;Node6</title>
<g id="a_edge5_Node000005_Node000006"><a xlink:title=" ">
<path fill="none" stroke="#63b8ff" d="M440.94,-330.34C455.82,-327.01 473.29,-322.98 489,-319 497.05,-316.96 505.47,-314.73 513.8,-312.47"/>
<polygon fill="#63b8ff" stroke="#63b8ff" points="514.48,-315.92 523.2,-309.9 512.63,-309.17 514.48,-315.92"/>
</a>
</g>
</g>
<!-- Node5&#45;&gt;Node8 -->
<g id="edge7_Node000005_Node000008" class="edge">
<title>Node5&#45;&gt;Node8</title>
<g id="a_edge7_Node000005_Node000008"><a xlink:title=" ">
<path fill="none" stroke="#63b8ff" d="M440.83,-335.97C456.71,-333.62 474.98,-328.79 489,-319 499.65,-311.57 540.35,-245.02 563.02,-207.13"/>
<polygon fill="#63b8ff" stroke="#63b8ff" points="566.01,-208.95 568.12,-198.57 559.99,-205.37 566.01,-208.95"/>
</a>
</g>
</g>
<!-- Node7 -->
<g id="Node000007" class="node">
<title>Node7</title>
<g id="a_Node000007"><a xlink:href="classComponentRegistry.html#ab1cc8a486cae16a19268264c69f9af80" target="_top" xlink:title="Computes a new unique ID for a type T, or returns the existing one.">
<polygon fill="white" stroke="#666666" points="779,-310 670,-310 670,-278 779,-278 779,-310"/>
<text xml:space="preserve" text-anchor="start" x="678" y="-296.5" font-family="Helvetica,sans-Serif" font-size="10.00">ComponentRegistry::</text>
<text xml:space="preserve" text-anchor="middle" x="724.5" y="-284.5" font-family="Helvetica,sans-Serif" font-size="10.00">computeID</text>
</a>
</g>
</g>
<!-- Node6&#45;&gt;Node7 -->
<g id="edge6_Node000006_Node000007" class="edge">
<title>Node6&#45;&gt;Node7</title>
<g id="a_edge6_Node000006_Node000007"><a xlink:title=" ">
<path fill="none" stroke="#63b8ff" d="M634.15,-294C642.02,-294 650.19,-294 658.26,-294"/>
<polygon fill="#63b8ff" stroke="#63b8ff" points="658.03,-297.5 668.03,-294 658.03,-290.5 658.03,-297.5"/>
</a>
</g>
</g>
<!-- Node9 -->
<g id="Node000009" class="node">
<title>Node9</title>
<g id="a_Node000009"><a xlink:href="classComponentRegistry.html#a3bbfefb19e284845afb80ce0a4dd739a" target="_top" xlink:title="Private constructor for singleton pattern. Initializes internal containers with reserved capacity.">
<polygon fill="white" stroke="#666666" points="779,-197 670,-197 670,-165 779,-165 779,-197"/>
<text xml:space="preserve" text-anchor="start" x="678" y="-183.5" font-family="Helvetica,sans-Serif" font-size="10.00">ComponentRegistry::</text>
<text xml:space="preserve" text-anchor="middle" x="724.5" y="-171.5" font-family="Helvetica,sans-Serif" font-size="10.00">ComponentRegistry</text>
</a>
</g>
</g>
<!-- Node8&#45;&gt;Node9 -->
<g id="edge8_Node000008_Node000009" class="edge">
<title>Node8&#45;&gt;Node9</title>
<g id="a_edge8_Node000008_Node000009"><a xlink:title=" ">
<path fill="none" stroke="#63b8ff" d="M634.15,-181C642.02,-181 650.19,-181 658.26,-181"/>
<polygon fill="#63b8ff" stroke="#63b8ff" points="658.03,-184.5 668.03,-181 658.03,-177.5 658.03,-184.5"/>
</a>
</g>
</g>
<!-- Node11&#45;&gt;Node6 -->
<g id="edge12_Node000011_Node000006" class="edge">
<title>Node11&#45;&gt;Node6</title>
<g id="a_edge12_Node000011_Node000006"><a xlink:title=" ">
<path fill="none" stroke="#63b8ff" d="M442.12,-204.47C457.19,-207.28 474.48,-211.8 489,-219 514.59,-231.7 539.13,-253.15 556.02,-269.86"/>
<polygon fill="#63b8ff" stroke="#63b8ff" points="553.1,-271.88 562.61,-276.55 558.09,-266.97 553.1,-271.88"/>
</a>
</g>
</g>
<!-- Node11&#45;&gt;Node8 -->
<g id="edge13_Node000011_Node000008" class="edge">
<title>Node11&#45;&gt;Node8</title>
<g id="a_edge13_Node000011_Node000008"><a xlink:title=" ">
<path fill="none" stroke="#63b8ff" d="M442.19,-195.97C462.91,-193.69 489.42,-190.78 513.54,-188.13"/>
<polygon fill="#63b8ff" stroke="#63b8ff" points="513.72,-191.64 523.28,-187.06 512.96,-184.68 513.72,-191.64"/>
</a>
</g>
</g>
<!-- Node13&#45;&gt;Node4 -->
<g id="edge17_Node000013_Node000004" class="edge">
<title>Node13&#45;&gt;Node4</title>
<g id="a_edge17_Node000013_Node000004"><a xlink:title=" ">
<path fill="none" stroke="#63b8ff" d="M274.94,-110.09C294.66,-112.23 317.91,-114.74 339.17,-117.04"/>
<polygon fill="#63b8ff" stroke="#63b8ff" points="338.59,-120.5 348.91,-118.09 339.34,-113.54 338.59,-120.5"/>
</a>
</g>
</g>
<!-- Node13&#45;&gt;Node6 -->
<g id="edge18_Node000013_Node000006" class="edge">
<title>Node13&#45;&gt;Node6</title>
<g id="a_edge18_Node000013_Node000006"><a xlink:title=" ">
<path fill="none" stroke="#63b8ff" d="M258.62,-94.6C311.17,-78.91 419.35,-55.88 489,-105 527.95,-132.46 504.52,-162.97 525,-206 535.41,-227.86 549.78,-251.22 561,-268.37"/>
<polygon fill="#63b8ff" stroke="#63b8ff" points="557.91,-270.04 566.36,-276.44 563.74,-266.17 557.91,-270.04"/>
</a>
</g>
</g>
<!-- Node13&#45;&gt;Node8 -->
<g id="edge19_Node000013_Node000008" class="edge">
<title>Node13&#45;&gt;Node8</title>
<g id="a_edge19_Node000013_Node000008"><a xlink:title=" ">
<path fill="none" stroke="#63b8ff" d="M259.43,-94.59C267.46,-91.87 276.07,-88.88 284,-86 300.13,-80.14 303.13,-75.17 320,-72 393.82,-58.15 421.1,-39.89 489,-72 524.8,-88.93 551.08,-127.96 565.59,-154.42"/>
<polygon fill="#63b8ff" stroke="#63b8ff" points="562.46,-155.99 570.21,-163.21 568.65,-152.73 562.46,-155.99"/>
</a>
</g>
</g>
<!-- Node14 -->
<g id="Node000014" class="node">
<title>Node14</title>
<g id="a_Node000014"><a xlink:href="classRegistry.html#a45f5c5548ea374a04a46308b2e1c5455" target="_top" xlink:title="Updates which systems are active based on available component types.">
<polygon fill="white" stroke="#666666" points="489,-20 320,-20 320,0 489,0 489,-20"/>
<text xml:space="preserve" text-anchor="middle" x="404.5" y="-6.5" font-family="Helvetica,sans-Serif" font-size="10.00">Registry::updateSystemAvailability</text>
</a>
</g>
</g>
<!-- Node13&#45;&gt;Node14 -->
<g id="edge20_Node000013_Node000014" class="edge">
<title>Node13&#45;&gt;Node14</title>
<g id="a_edge20_Node000013_Node000014"><a xlink:title=" ">
<path fill="none" stroke="#63b8ff" d="M268.98,-94.55C274.31,-92.22 279.48,-89.41 284,-86 306.45,-69.08 297.16,-50.39 320,-34 325.05,-30.37 330.65,-27.29 336.48,-24.67"/>
<polygon fill="#63b8ff" stroke="#63b8ff" points="337.74,-27.94 345.75,-21 335.16,-21.43 337.74,-27.94"/>
</a>
</g>
</g>
</g>
</svg>
