<?xml version="1.0" encoding="UTF-8" standalone="no"?>
<!DOCTYPE svg PUBLIC "-//W3C//DTD SVG 1.1//EN"
 "http://www.w3.org/Graphics/SVG/1.1/DTD/svg11.dtd">
<!-- Generated by graphviz version 14.0.1 (0)
 -->
<!-- Title: Registry::get Pages: 1 -->
<svg width="435pt" height="147pt"
 viewBox="0.00 0.00 435.00 147.00" xmlns="http://www.w3.org/2000/svg" xmlns:xlink="http://www.w3.org/1999/xlink">
<g id="graph0" class="graph" transform="scale(1 1) rotate(0) translate(4 143)">
<title>Registry::get</title>
<!-- Node1 -->
<g id="Node000001" class="node">
<title>Node1</title>
<g id="a_Node000001"><a xlink:title="Gets a reference to a component of type Component for entity e.">
<polygon fill="#999999" stroke="#666666" points="426.75,-70 354.5,-70 354.5,-50 426.75,-50 426.75,-70"/>
<text xml:space="preserve" text-anchor="middle" x="390.62" y="-56.5" font-family="Helvetica,sans-Serif" font-size="10.00">Registry::get</text>
</a>
</g>
</g>
<!-- Node2 -->
<g id="Node000002" class="node">
<title>Node2</title>
<g id="a_Node000002"><a xlink:href="classGameEngine_1_1MotionSystem.html#a2bde704857c323ba1547d6ee0cebb6f4" target="_top" xlink:title="Checks and resolves a collision between two entities.">
<polygon fill="white" stroke="#666666" points="318.5,-139 177.25,-139 177.25,-107 318.5,-107 318.5,-139"/>
<text xml:space="preserve" text-anchor="start" x="185.25" y="-125.5" font-family="Helvetica,sans-Serif" font-size="10.00">GameEngine::MotionSystem</text>
<text xml:space="preserve" text-anchor="middle" x="247.88" y="-113.5" font-family="Helvetica,sans-Serif" font-size="10.00">::collide</text>
</a>
</g>
</g>
<!-- Node1&#45;&gt;Node2 -->
<g id="edge1_Node000001_Node000002" class="edge">
<title>Node1&#45;&gt;Node2</title>
<g id="a_edge1_Node000001_Node000002"><a xlink:title=" ">
<path fill="none" stroke="#63b8ff" d="M357.44,-75.16C345.28,-80.83 331.28,-87.28 318.5,-93 308.53,-97.46 297.7,-102.18 287.63,-106.53"/>
<polygon fill="#63b8ff" stroke="#63b8ff" points="358.64,-78.46 366.22,-71.06 355.68,-72.12 358.64,-78.46"/>
</a>
</g>
</g>
<!-- Node3 -->
<g id="Node000003" class="node">
<title>Node3</title>
<g id="a_Node000003"><a xlink:href="classGameEngine_1_1MotionSystem.html#a5c82b0f76ecf7fdef391014a16bd06fb" target="_top" xlink:title="Updates the system and processes collisions for all entities.">
<polygon fill="white" stroke="#666666" points="141.25,-95 0,-95 0,-63 141.25,-63 141.25,-95"/>
<text xml:space="preserve" text-anchor="start" x="8" y="-81.5" font-family="Helvetica,sans-Serif" font-size="10.00">GameEngine::MotionSystem</text>
<text xml:space="preserve" text-anchor="middle" x="70.62" y="-69.5" font-family="Helvetica,sans-Serif" font-size="10.00">::onUpdate</text>
</a>
</g>
</g>
<!-- Node1&#45;&gt;Node3 -->
<g id="edge7_Node000001_Node000003" class="edge">
<title>Node1&#45;&gt;Node3</title>
<g id="a_edge7_Node000001_Node000003"><a xlink:title=" ">
<path fill="none" stroke="#63b8ff" d="M342.64,-62.81C289.56,-65.98 202.65,-71.17 141.59,-74.82"/>
<polygon fill="#63b8ff" stroke="#63b8ff" points="342.79,-66.3 352.56,-62.21 342.37,-59.32 342.79,-66.3"/>
</a>
</g>
</g>
<!-- Node4 -->
<g id="Node000004" class="node">
<title>Node4</title>
<g id="a_Node000004"><a xlink:href="classRegistry.html#a31cfb49fd633086383bf646b39a8daa2" target="_top" xlink:title="Iterates through all entities that have all the specified components.">
<polygon fill="white" stroke="#666666" points="287.75,-51 208,-51 208,-31 287.75,-31 287.75,-51"/>
<text xml:space="preserve" text-anchor="middle" x="247.88" y="-37.5" font-family="Helvetica,sans-Serif" font-size="10.00">Registry::each</text>
</a>
</g>
</g>
<!-- Node1&#45;&gt;Node4 -->
<g id="edge3_Node000001_Node000004" class="edge">
<title>Node1&#45;&gt;Node4</title>
<g id="a_edge3_Node000001_Node000004"><a xlink:title=" ">
<path fill="none" stroke="#63b8ff" d="M342.83,-53.68C325.08,-51.29 305.08,-48.59 288.1,-46.29"/>
<polygon fill="#63b8ff" stroke="#63b8ff" points="342.23,-57.13 352.61,-55 343.17,-50.2 342.23,-57.13"/>
</a>
</g>
</g>
<!-- Node5 -->
<g id="Node000005" class="node">
<title>Node5</title>
<g id="a_Node000005"><a xlink:href="classGameEngine_1_1InputHandlerSystem.html#a56d9f3bab8680fee7d15423028e046b9" target="_top" xlink:title=" ">
<polygon fill="white" stroke="#666666" points="137.5,-32 3.75,-32 3.75,0 137.5,0 137.5,-32"/>
<text xml:space="preserve" text-anchor="start" x="11.75" y="-18.5" font-family="Helvetica,sans-Serif" font-size="10.00">GameEngine::InputHandler</text>
<text xml:space="preserve" text-anchor="middle" x="70.62" y="-6.5" font-family="Helvetica,sans-Serif" font-size="10.00">System::onUpdate</text>
</a>
</g>
</g>
<!-- Node1&#45;&gt;Node5 -->
<g id="edge6_Node000001_Node000005" class="edge">
<title>Node1&#45;&gt;Node5</title>
<g id="a_edge6_Node000001_Node000005"><a xlink:title=" ">
<path fill="none" stroke="#63b8ff" d="M365.63,-43.54C352.37,-35.4 335.22,-26.4 318.5,-22 258.8,-6.28 188.15,-6.35 137.76,-9.41"/>
<polygon fill="#63b8ff" stroke="#63b8ff" points="363.36,-46.24 373.67,-48.69 367.14,-40.35 363.36,-46.24"/>
</a>
</g>
</g>
<!-- Node2&#45;&gt;Node3 -->
<g id="edge2_Node000002_Node000003" class="edge">
<title>Node2&#45;&gt;Node3</title>
<g id="a_edge2_Node000002_Node000003"><a xlink:title=" ">
<path fill="none" stroke="#63b8ff" d="M170.61,-103.85C159.48,-101.06 148.11,-98.2 137.23,-95.47"/>
<polygon fill="#63b8ff" stroke="#63b8ff" points="169.6,-107.21 180.15,-106.25 171.3,-100.42 169.6,-107.21"/>
</a>
</g>
</g>
<!-- Node4&#45;&gt;Node3 -->
<g id="edge5_Node000004_Node000003" class="edge">
<title>Node4&#45;&gt;Node3</title>
<g id="a_edge5_Node000004_Node000003"><a xlink:title=" ">
<path fill="none" stroke="#63b8ff" d="M196.63,-51.89C179.46,-55.62 159.92,-59.85 141.48,-63.85"/>
<polygon fill="#63b8ff" stroke="#63b8ff" points="197.04,-55.39 206.07,-49.85 195.55,-48.55 197.04,-55.39"/>
</a>
</g>
</g>
<!-- Node4&#45;&gt;Node5 -->
<g id="edge4_Node000004_Node000005" class="edge">
<title>Node4&#45;&gt;Node5</title>
<g id="a_edge4_Node000004_Node000005"><a xlink:title=" ">
<path fill="none" stroke="#63b8ff" d="M196.25,-33.78C177.97,-31.17 157.06,-28.19 137.66,-25.42"/>
<polygon fill="#63b8ff" stroke="#63b8ff" points="195.65,-37.23 206.05,-35.18 196.64,-30.3 195.65,-37.23"/>
</a>
</g>
</g>
</g>
</svg>
