<?xml version="1.0" encoding="UTF-8" standalone="no"?>
<!DOCTYPE svg PUBLIC "-//W3C//DTD SVG 1.1//EN"
 "http://www.w3.org/Graphics/SVG/1.1/DTD/svg11.dtd">
<!-- Generated by graphviz version 14.0.1 (0)
 -->
<!-- Title: ComponentRegistry::getOrCreateID Pages: 1 -->
<svg width="627pt" height="374pt"
 viewBox="0.00 0.00 627.00 374.00" xmlns="http://www.w3.org/2000/svg" xmlns:xlink="http://www.w3.org/1999/xlink">
<g id="graph0" class="graph" transform="scale(1 1) rotate(0) translate(4 370)">
<title>ComponentRegistry::getOrCreateID</title>
<!-- Node1 -->
<g id="Node000001" class="node">
<title>Node1</title>
<g id="a_Node000001"><a xlink:title="Retrieves or creates a unique ID for the given component type T.">
<polygon fill="#999999" stroke="#666666" points="619,-190 510,-190 510,-158 619,-158 619,-190"/>
<text xml:space="preserve" text-anchor="start" x="518" y="-176.5" font-family="Helvetica,sans-Serif" font-size="10.00">ComponentRegistry::</text>
<text xml:space="preserve" text-anchor="middle" x="564.5" y="-164.5" font-family="Helvetica,sans-Serif" font-size="10.00">getOrCreateID</text>
</a>
</g>
</g>
<!-- Node2 -->
<g id="Node000002" class="node">
<title>Node2</title>
<g id="a_Node000002"><a xlink:href="classRegistry.html#a7a17141d6ad949dbc4792cb638665226" target="_top" xlink:title="Counts how many components of type Component currently exist.">
<polygon fill="white" stroke="#666666" points="445.12,-336 362.38,-336 362.38,-316 445.12,-316 445.12,-336"/>
<text xml:space="preserve" text-anchor="middle" x="403.75" y="-322.5" font-family="Helvetica,sans-Serif" font-size="10.00">Registry::count</text>
</a>
</g>
</g>
<!-- Node1&#45;&gt;Node2 -->
<g id="edge1_Node000001_Node000002" class="edge">
<title>Node1&#45;&gt;Node2</title>
<g id="a_edge1_Node000001_Node000002"><a xlink:title=" ">
<path fill="none" stroke="#63b8ff" d="M552.58,-200.49C538.75,-230.77 512.04,-279.66 474,-307 465.6,-313.04 455.36,-317.16 445.37,-319.97"/>
<polygon fill="#63b8ff" stroke="#63b8ff" points="555.66,-202.2 556.49,-191.64 549.25,-199.38 555.66,-202.2"/>
</a>
</g>
</g>
<!-- Node3 -->
<g id="Node000003" class="node">
<title>Node3</title>
<g id="a_Node000003"><a xlink:href="classRegistry.html#a31cfb49fd633086383bf646b39a8daa2" target="_top" xlink:title="Iterates through all entities that have all the specified components.">
<polygon fill="white" stroke="#666666" points="279.5,-260 199.75,-260 199.75,-240 279.5,-240 279.5,-260"/>
<text xml:space="preserve" text-anchor="middle" x="239.62" y="-246.5" font-family="Helvetica,sans-Serif" font-size="10.00">Registry::each</text>
</a>
</g>
</g>
<!-- Node1&#45;&gt;Node3 -->
<g id="edge2_Node000001_Node000003" class="edge">
<title>Node1&#45;&gt;Node3</title>
<g id="a_edge2_Node000001_Node000003"><a xlink:title=" ">
<path fill="none" stroke="#63b8ff" d="M534.81,-197.38C518.11,-209.63 496.04,-223.59 474,-231 408.49,-253.01 327.07,-254.17 279.76,-252.46"/>
<polygon fill="#63b8ff" stroke="#63b8ff" points="536.93,-200.17 542.78,-191.34 532.7,-194.59 536.93,-200.17"/>
</a>
</g>
</g>
<!-- Node9 -->
<g id="Node000009" class="node">
<title>Node9</title>
<g id="a_Node000009"><a xlink:href="classRegistry.html#ab12b0e856e109cd94af4aeb5e969de24" target="_top" xlink:title="Adds a new component of type Component to entity e.">
<polygon fill="white" stroke="#666666" points="287.38,-166 191.88,-166 191.88,-146 287.38,-146 287.38,-166"/>
<text xml:space="preserve" text-anchor="middle" x="239.62" y="-152.5" font-family="Helvetica,sans-Serif" font-size="10.00">Registry::emplace</text>
</a>
</g>
</g>
<!-- Node1&#45;&gt;Node9 -->
<g id="edge8_Node000001_Node000009" class="edge">
<title>Node1&#45;&gt;Node9</title>
<g id="a_edge8_Node000001_Node000009"><a xlink:title=" ">
<path fill="none" stroke="#63b8ff" d="M498.55,-170.38C436.18,-166.9 343.48,-161.73 287.86,-158.63"/>
<polygon fill="#63b8ff" stroke="#63b8ff" points="498.13,-173.86 508.31,-170.92 498.52,-166.87 498.13,-173.86"/>
</a>
</g>
</g>
<!-- Node10 -->
<g id="Node000010" class="node">
<title>Node10</title>
<g id="a_Node000010"><a xlink:href="classRegistry.html#a11f1e4d7d7ef1a84640adddf32c1f862" target="_top" xlink:title="Gets a reference to a component of type Component for entity e.">
<polygon fill="white" stroke="#666666" points="439.88,-298 367.62,-298 367.62,-278 439.88,-278 439.88,-298"/>
<text xml:space="preserve" text-anchor="middle" x="403.75" y="-284.5" font-family="Helvetica,sans-Serif" font-size="10.00">Registry::get</text>
</a>
</g>
</g>
<!-- Node1&#45;&gt;Node10 -->
<g id="edge10_Node000001_Node000010" class="edge">
<title>Node1&#45;&gt;Node10</title>
<g id="a_edge10_Node000001_Node000010"><a xlink:title=" ">
<path fill="none" stroke="#63b8ff" d="M544.06,-199.08C527.38,-219.1 501.71,-246.59 474,-264 463.76,-270.43 451.59,-275.39 440.32,-279.09"/>
<polygon fill="#63b8ff" stroke="#63b8ff" points="546.73,-201.34 550.33,-191.37 541.3,-196.92 546.73,-201.34"/>
</a>
</g>
</g>
<!-- Node12 -->
<g id="Node000012" class="node">
<title>Node12</title>
<g id="a_Node000012"><a xlink:href="classRegistry.html#ac846fa6831fe9b792391b36fa8572d1d" target="_top" xlink:title="Const version of get().">
<polygon fill="white" stroke="#666666" points="439.88,-146 367.62,-146 367.62,-126 439.88,-126 439.88,-146"/>
<text xml:space="preserve" text-anchor="middle" x="403.75" y="-132.5" font-family="Helvetica,sans-Serif" font-size="10.00">Registry::get</text>
</a>
</g>
</g>
<!-- Node1&#45;&gt;Node12 -->
<g id="edge16_Node000001_Node000012" class="edge">
<title>Node1&#45;&gt;Node12</title>
<g id="a_edge16_Node000001_Node000012"><a xlink:title=" ">
<path fill="none" stroke="#63b8ff" d="M498.76,-158.5C478.66,-153.69 457.27,-148.57 439.98,-144.43"/>
<polygon fill="#63b8ff" stroke="#63b8ff" points="497.74,-161.86 508.28,-160.78 499.37,-155.05 497.74,-161.86"/>
</a>
</g>
</g>
<!-- Node13 -->
<g id="Node000013" class="node">
<title>Node13</title>
<g id="a_Node000013"><a xlink:href="classRegistry.html#acac1f1c8a740cfeb2b33a32cfd6ad83f" target="_top" xlink:title="Checks if entity e has a component of type Component.">
<polygon fill="white" stroke="#666666" points="441,-222 366.5,-222 366.5,-202 441,-202 441,-222"/>
<text xml:space="preserve" text-anchor="middle" x="403.75" y="-208.5" font-family="Helvetica,sans-Serif" font-size="10.00">Registry::has</text>
</a>
</g>
</g>
<!-- Node1&#45;&gt;Node13 -->
<g id="edge17_Node000001_Node000013" class="edge">
<title>Node1&#45;&gt;Node13</title>
<g id="a_edge17_Node000001_Node000013"><a xlink:title=" ">
<path fill="none" stroke="#63b8ff" d="M498.75,-189.5C479.21,-194.18 458.46,-199.14 441.43,-203.22"/>
<polygon fill="#63b8ff" stroke="#63b8ff" points="499.37,-192.95 508.28,-187.22 497.74,-186.14 499.37,-192.95"/>
</a>
</g>
</g>
<!-- Node14 -->
<g id="Node000014" class="node">
<title>Node14</title>
<g id="a_Node000014"><a xlink:href="classRegistry.html#a629e3280396e2e8cc06434895e746639" target="_top" xlink:title="Removes a component of type Component from entity e.">
<polygon fill="white" stroke="#666666" points="449.25,-108 358.25,-108 358.25,-88 449.25,-88 449.25,-108"/>
<text xml:space="preserve" text-anchor="middle" x="403.75" y="-94.5" font-family="Helvetica,sans-Serif" font-size="10.00">Registry::remove</text>
</a>
</g>
</g>
<!-- Node1&#45;&gt;Node14 -->
<g id="edge19_Node000001_Node000014" class="edge">
<title>Node1&#45;&gt;Node14</title>
<g id="a_edge19_Node000001_Node000014"><a xlink:title=" ">
<path fill="none" stroke="#63b8ff" d="M532.51,-151C515.85,-139.49 494.55,-126.12 474,-117 466.25,-113.56 457.73,-110.61 449.4,-108.13"/>
<polygon fill="#63b8ff" stroke="#63b8ff" points="530.32,-153.74 540.51,-156.64 534.35,-148.02 530.32,-153.74"/>
</a>
</g>
</g>
<!-- Node15 -->
<g id="Node000015" class="node">
<title>Node15</title>
<g id="a_Node000015"><a xlink:href="classSystem.html#a3debf9a0bb97844f19da1c818d4dd3e3" target="_top" xlink:title="Declares required components using their names as strings.">
<polygon fill="white" stroke="#666666" points="474,-70 333.5,-70 333.5,-38 474,-38 474,-70"/>
<text xml:space="preserve" text-anchor="start" x="341.5" y="-56.5" font-family="Helvetica,sans-Serif" font-size="10.00">System::requireComponents</text>
<text xml:space="preserve" text-anchor="middle" x="403.75" y="-44.5" font-family="Helvetica,sans-Serif" font-size="10.00">ByName</text>
</a>
</g>
</g>
<!-- Node1&#45;&gt;Node15 -->
<g id="edge20_Node000001_Node000015" class="edge">
<title>Node1&#45;&gt;Node15</title>
<g id="a_edge20_Node000001_Node000015"><a xlink:title=" ">
<path fill="none" stroke="#63b8ff" d="M545.08,-148.59C528.57,-127.41 502.58,-97.76 474,-79 469.08,-75.77 463.7,-72.9 458.17,-70.36"/>
<polygon fill="#63b8ff" stroke="#63b8ff" points="542.22,-150.62 551.06,-156.46 547.8,-146.38 542.22,-150.62"/>
</a>
</g>
</g>
<!-- Node16 -->
<g id="Node000016" class="node">
<title>Node16</title>
<g id="a_Node000016"><a xlink:href="classRegistry.html#a864a9feb3c9cffc43296ae8bb1aa2e3a" target="_top" xlink:title="Returns a reference to the SparseSet storing all components of type Component.">
<polygon fill="white" stroke="#666666" points="443.25,-20 364.25,-20 364.25,0 443.25,0 443.25,-20"/>
<text xml:space="preserve" text-anchor="middle" x="403.75" y="-6.5" font-family="Helvetica,sans-Serif" font-size="10.00">Registry::view</text>
</a>
</g>
</g>
<!-- Node1&#45;&gt;Node16 -->
<g id="edge21_Node000001_Node000016" class="edge">
<title>Node1&#45;&gt;Node16</title>
<g id="a_edge21_Node000001_Node000016"><a xlink:title=" ">
<path fill="none" stroke="#63b8ff" d="M554.01,-147.12C541.05,-114.31 514.67,-59.46 474,-29 465.22,-22.42 454.29,-18.12 443.73,-15.31"/>
<polygon fill="#63b8ff" stroke="#63b8ff" points="550.68,-148.21 557.5,-156.31 557.23,-145.72 550.68,-148.21"/>
</a>
</g>
</g>
<!-- Node4 -->
<g id="Node000004" class="node">
<title>Node4</title>
<g id="a_Node000004"><a xlink:href="classGameEngine_1_1Collision.html#a49f26a6547e81a9cebf7ad5436fb7101" target="_top" xlink:title=" ">
<polygon fill="white" stroke="#666666" points="130.75,-366 15,-366 15,-334 130.75,-334 130.75,-366"/>
<text xml:space="preserve" text-anchor="start" x="23" y="-352.5" font-family="Helvetica,sans-Serif" font-size="10.00">GameEngine::Collision</text>
<text xml:space="preserve" text-anchor="middle" x="72.88" y="-340.5" font-family="Helvetica,sans-Serif" font-size="10.00">::onUpdate</text>
</a>
</g>
</g>
<!-- Node3&#45;&gt;Node4 -->
<g id="edge3_Node000003_Node000004" class="edge">
<title>Node3&#45;&gt;Node4</title>
<g id="a_edge3_Node000003_Node000004"><a xlink:title=" ">
<path fill="none" stroke="#63b8ff" d="M196.62,-265.35C191.35,-268.15 186.25,-271.36 181.75,-275 160.47,-292.23 167.7,-308.63 145.75,-325 141.2,-328.4 136.14,-331.36 130.89,-333.93"/>
<polygon fill="#63b8ff" stroke="#63b8ff" points="197.96,-268.59 205.46,-261.11 194.93,-262.28 197.96,-268.59"/>
</a>
</g>
</g>
<!-- Node5 -->
<g id="Node000005" class="node">
<title>Node5</title>
<g id="a_Node000005"><a xlink:href="classGameEngine_1_1Death.html#a081a250ee3a8d22b7dd2323dbaba0eb7" target="_top" xlink:title=" ">
<polygon fill="white" stroke="#666666" points="128.12,-316 17.62,-316 17.62,-284 128.12,-284 128.12,-316"/>
<text xml:space="preserve" text-anchor="start" x="25.62" y="-302.5" font-family="Helvetica,sans-Serif" font-size="10.00">GameEngine::Death::</text>
<text xml:space="preserve" text-anchor="middle" x="72.88" y="-290.5" font-family="Helvetica,sans-Serif" font-size="10.00">onUpdate</text>
</a>
</g>
</g>
<!-- Node3&#45;&gt;Node5 -->
<g id="edge4_Node000003_Node000005" class="edge">
<title>Node3&#45;&gt;Node5</title>
<g id="a_edge4_Node000003_Node000005"><a xlink:title=" ">
<path fill="none" stroke="#63b8ff" d="M193.31,-263.75C173.15,-269.87 149.25,-277.12 128.15,-283.53"/>
<polygon fill="#63b8ff" stroke="#63b8ff" points="194.09,-267.17 202.64,-260.92 192.05,-260.48 194.09,-267.17"/>
</a>
</g>
</g>
<!-- Node6 -->
<g id="Node000006" class="node">
<title>Node6</title>
<g id="a_Node000006"><a xlink:href="classGameEngine_1_1DomainHandler.html#a2e491047939e77c803075c6c490d54ee" target="_top" xlink:title="Updates the system, checking entity positions against their domain boundaries.">
<polygon fill="white" stroke="#666666" points="145.75,-266 0,-266 0,-234 145.75,-234 145.75,-266"/>
<text xml:space="preserve" text-anchor="start" x="8" y="-252.5" font-family="Helvetica,sans-Serif" font-size="10.00">GameEngine::DomainHandler</text>
<text xml:space="preserve" text-anchor="middle" x="72.88" y="-240.5" font-family="Helvetica,sans-Serif" font-size="10.00">::onUpdate</text>
</a>
</g>
</g>
<!-- Node3&#45;&gt;Node6 -->
<g id="edge5_Node000003_Node000006" class="edge">
<title>Node3&#45;&gt;Node6</title>
<g id="a_edge5_Node000003_Node000006"><a xlink:title=" ">
<path fill="none" stroke="#63b8ff" d="M188.29,-250C175.01,-250 160.41,-250 146.21,-250"/>
<polygon fill="#63b8ff" stroke="#63b8ff" points="188.07,-253.5 198.07,-250 188.07,-246.5 188.07,-253.5"/>
</a>
</g>
</g>
<!-- Node7 -->
<g id="Node000007" class="node">
<title>Node7</title>
<g id="a_Node000007"><a xlink:href="classGameEngine_1_1InputHandler.html#acb0d11bd1241dad8925f26b86f6d9007" target="_top" xlink:title=" ">
<polygon fill="white" stroke="#666666" points="139.75,-166 6,-166 6,-134 139.75,-134 139.75,-166"/>
<text xml:space="preserve" text-anchor="start" x="14" y="-152.5" font-family="Helvetica,sans-Serif" font-size="10.00">GameEngine::InputHandler</text>
<text xml:space="preserve" text-anchor="middle" x="72.88" y="-140.5" font-family="Helvetica,sans-Serif" font-size="10.00">::onUpdate</text>
</a>
</g>
</g>
<!-- Node3&#45;&gt;Node7 -->
<g id="edge6_Node000003_Node000007" class="edge">
<title>Node3&#45;&gt;Node7</title>
<g id="a_edge6_Node000003_Node000007"><a xlink:title=" ">
<path fill="none" stroke="#63b8ff" d="M203.6,-234.43C196.02,-230.29 188.32,-225.43 181.75,-220 162.01,-203.68 166.66,-189.79 145.75,-175 141.22,-171.8 136.24,-168.97 131.08,-166.49"/>
<polygon fill="#63b8ff" stroke="#63b8ff" points="201.91,-237.49 212.4,-238.94 205.1,-231.26 201.91,-237.49"/>
</a>
</g>
</g>
<!-- Node8 -->
<g id="Node000008" class="node">
<title>Node8</title>
<g id="a_Node000008"><a xlink:href="classGameEngine_1_1Motion.html#a015b898244098b869ceb6001884ae9fe" target="_top" xlink:title=" ">
<polygon fill="white" stroke="#666666" points="126.62,-216 19.12,-216 19.12,-184 126.62,-184 126.62,-216"/>
<text xml:space="preserve" text-anchor="start" x="27.12" y="-202.5" font-family="Helvetica,sans-Serif" font-size="10.00">GameEngine::Motion</text>
<text xml:space="preserve" text-anchor="middle" x="72.88" y="-190.5" font-family="Helvetica,sans-Serif" font-size="10.00">::onUpdate</text>
</a>
</g>
</g>
<!-- Node3&#45;&gt;Node8 -->
<g id="edge7_Node000003_Node000008" class="edge">
<title>Node3&#45;&gt;Node8</title>
<g id="a_edge7_Node000003_Node000008"><a xlink:title=" ">
<path fill="none" stroke="#63b8ff" d="M193.12,-236.19C172.59,-229.96 148.21,-222.56 126.86,-216.08"/>
<polygon fill="#63b8ff" stroke="#63b8ff" points="192.05,-239.52 202.64,-239.08 194.09,-232.83 192.05,-239.52"/>
</a>
</g>
</g>
<!-- Node9&#45;&gt;Node7 -->
<g id="edge9_Node000009_Node000007" class="edge">
<title>Node9&#45;&gt;Node7</title>
<g id="a_edge9_Node000009_Node000007"><a xlink:title=" ">
<path fill="none" stroke="#63b8ff" d="M180.26,-153.87C167.27,-153.4 153.4,-152.9 140.12,-152.41"/>
<polygon fill="#63b8ff" stroke="#63b8ff" points="179.78,-157.36 189.9,-154.23 180.04,-150.36 179.78,-157.36"/>
</a>
</g>
</g>
<!-- Node10&#45;&gt;Node3 -->
<g id="edge13_Node000010_Node000003" class="edge">
<title>Node10&#45;&gt;Node3</title>
<g id="a_edge13_Node000010_Node000003"><a xlink:title=" ">
<path fill="none" stroke="#63b8ff" d="M356.12,-277.07C331.96,-271.41 302.79,-264.57 279.81,-259.18"/>
<polygon fill="#63b8ff" stroke="#63b8ff" points="355.16,-280.44 365.7,-279.32 356.76,-273.63 355.16,-280.44"/>
</a>
</g>
</g>
<!-- Node10&#45;&gt;Node4 -->
<g id="edge14_Node000010_Node000004" class="edge">
<title>Node10&#45;&gt;Node4</title>
<g id="a_edge14_Node000010_Node000004"><a xlink:title=" ">
<path fill="none" stroke="#63b8ff" d="M356.6,-299.3C348.81,-301.6 340.86,-304.18 333.5,-307 316.79,-313.4 314.65,-319.93 297.5,-325 242.43,-341.28 176.87,-347.11 131.02,-349.12"/>
<polygon fill="#63b8ff" stroke="#63b8ff" points="357.31,-302.74 365.99,-296.67 355.41,-296 357.31,-302.74"/>
</a>
</g>
</g>
<!-- Node10&#45;&gt;Node7 -->
<g id="edge15_Node000010_Node000007" class="edge">
<title>Node10&#45;&gt;Node7</title>
<g id="a_edge15_Node000010_Node000007"><a xlink:title=" ">
<path fill="none" stroke="#63b8ff" d="M375.47,-271.83C354.54,-259.76 324.71,-243.31 297.5,-231 232,-201.36 213.43,-199.25 145.75,-175 137.91,-172.19 129.58,-169.25 121.47,-166.41"/>
<polygon fill="#63b8ff" stroke="#63b8ff" points="373.55,-274.76 383.96,-276.77 377.07,-268.71 373.55,-274.76"/>
</a>
</g>
</g>
<!-- Node11 -->
<g id="Node000011" class="node">
<title>Node11</title>
<g id="a_Node000011"><a xlink:href="classGameEngine_1_1Collision.html#a64427d8df75feb70d3039f2e376d7480" target="_top" xlink:title=" ">
<polygon fill="white" stroke="#666666" points="297.5,-316 181.75,-316 181.75,-284 297.5,-284 297.5,-316"/>
<text xml:space="preserve" text-anchor="start" x="189.75" y="-302.5" font-family="Helvetica,sans-Serif" font-size="10.00">GameEngine::Collision</text>
<text xml:space="preserve" text-anchor="middle" x="239.62" y="-290.5" font-family="Helvetica,sans-Serif" font-size="10.00">::collide</text>
</a>
</g>
</g>
<!-- Node10&#45;&gt;Node11 -->
<g id="edge11_Node000010_Node000011" class="edge">
<title>Node10&#45;&gt;Node11</title>
<g id="a_edge11_Node000010_Node000011"><a xlink:title=" ">
<path fill="none" stroke="#63b8ff" d="M355.72,-291.48C337.61,-292.82 316.74,-294.37 297.78,-295.77"/>
<polygon fill="#63b8ff" stroke="#63b8ff" points="355.95,-294.97 365.66,-290.75 355.43,-287.99 355.95,-294.97"/>
</a>
</g>
</g>
<!-- Node11&#45;&gt;Node4 -->
<g id="edge12_Node000011_Node000004" class="edge">
<title>Node11&#45;&gt;Node4</title>
<g id="a_edge12_Node000011_Node000004"><a xlink:title=" ">
<path fill="none" stroke="#63b8ff" d="M173.86,-319.66C158.76,-324.24 142.82,-329.08 128.22,-333.51"/>
<polygon fill="#63b8ff" stroke="#63b8ff" points="174.68,-323.06 183.23,-316.81 172.65,-316.37 174.68,-323.06"/>
</a>
</g>
</g>
<!-- Node13&#45;&gt;Node3 -->
<g id="edge18_Node000013_Node000003" class="edge">
<title>Node13&#45;&gt;Node3</title>
<g id="a_edge18_Node000013_Node000003"><a xlink:title=" ">
<path fill="none" stroke="#63b8ff" d="M355.35,-223.11C331.31,-228.74 302.47,-235.5 279.72,-240.84"/>
<polygon fill="#63b8ff" stroke="#63b8ff" points="355.95,-226.56 364.89,-220.87 354.36,-219.75 355.95,-226.56"/>
</a>
</g>
</g>
</g>
</svg>
