<?xml version="1.0" encoding="UTF-8" standalone="no"?>
<!DOCTYPE svg PUBLIC "-//W3C//DTD SVG 1.1//EN"
 "http://www.w3.org/Graphics/SVG/1.1/DTD/svg11.dtd">
<!-- Generated by graphviz version 14.0.1 (0)
 -->
<!-- Title: ISystem Pages: 1 -->
<svg width="433pt" height="152pt"
 viewBox="0.00 0.00 433.00 152.00" xmlns="http://www.w3.org/2000/svg" xmlns:xlink="http://www.w3.org/1999/xlink">
<g id="graph0" class="graph" transform="scale(1 1) rotate(0) translate(4 148)">
<title>ISystem</title>
<!-- Node1 -->
<g id="Node000001" class="node">
<title>Node1</title>
<g id="a_Node000001"><a xlink:title="Base interface for all systems within the ECS framework.">
<polygon fill="#999999" stroke="#666666" points="266.88,-144 214.12,-144 214.12,-124 266.88,-124 266.88,-144"/>
<text xml:space="preserve" text-anchor="middle" x="240.5" y="-130.5" font-family="Helvetica,sans-Serif" font-size="10.00">ISystem</text>
</a>
</g>
</g>
<!-- Node2 -->
<g id="Node000002" class="node">
<title>Node2</title>
<g id="a_Node000002"><a xlink:href="classSystem.html" target="_top" xlink:title=" ">
<polygon fill="white" stroke="#666666" points="157,-88 0,-88 0,-68 157,-68 157,-88"/>
<text xml:space="preserve" text-anchor="middle" x="78.5" y="-74.5" font-family="Helvetica,sans-Serif" font-size="10.00">System&lt; InputHandlerSystem &gt;</text>
</a>
</g>
</g>
<!-- Node1&#45;&gt;Node2 -->
<g id="edge1_Node000001_Node000002" class="edge">
<title>Node1&#45;&gt;Node2</title>
<g id="a_edge1_Node000001_Node000002"><a xlink:title=" ">
<path fill="none" stroke="#63b8ff" d="M203.1,-120.53C173.79,-110.76 133.64,-97.38 106.93,-88.48"/>
<polygon fill="#63b8ff" stroke="#63b8ff" points="201.72,-123.76 212.31,-123.6 203.93,-117.12 201.72,-123.76"/>
</a>
</g>
</g>
<!-- Node4 -->
<g id="Node000004" class="node">
<title>Node4</title>
<g id="a_Node000004"><a xlink:href="classSystem.html" target="_top" xlink:title=" ">
<polygon fill="white" stroke="#666666" points="305.88,-88 175.12,-88 175.12,-68 305.88,-68 305.88,-88"/>
<text xml:space="preserve" text-anchor="middle" x="240.5" y="-74.5" font-family="Helvetica,sans-Serif" font-size="10.00">System&lt; MotionSystem &gt;</text>
</a>
</g>
</g>
<!-- Node1&#45;&gt;Node4 -->
<g id="edge4_Node000001_Node000004" class="edge">
<title>Node1&#45;&gt;Node4</title>
<g id="a_edge4_Node000001_Node000004"><a xlink:title=" ">
<path fill="none" stroke="#63b8ff" d="M240.5,-112.13C240.5,-103.9 240.5,-94.85 240.5,-88.3"/>
<polygon fill="#63b8ff" stroke="#63b8ff" points="237,-112.08 240.5,-122.08 244,-112.08 237,-112.08"/>
</a>
</g>
</g>
<!-- Node6 -->
<g id="Node000006" class="node">
<title>Node6</title>
<g id="a_Node000006"><a xlink:href="classSystem.html" target="_top" xlink:title="CRTP (Curiously Recurring Template Pattern) base class for ECS systems.">
<polygon fill="white" stroke="#666666" points="425.25,-88 323.75,-88 323.75,-68 425.25,-68 425.25,-88"/>
<text xml:space="preserve" text-anchor="middle" x="374.5" y="-74.5" font-family="Helvetica,sans-Serif" font-size="10.00">System&lt; Derived &gt;</text>
</a>
</g>
</g>
<!-- Node1&#45;&gt;Node6 -->
<g id="edge9_Node000001_Node000006" class="edge">
<title>Node1&#45;&gt;Node6</title>
<g id="a_edge9_Node000001_Node000006"><a xlink:title=" ">
<path fill="none" stroke="#63b8ff" d="M274.24,-119.4C298.19,-109.75 329.72,-97.05 350.98,-88.48"/>
<polygon fill="#63b8ff" stroke="#63b8ff" points="273.21,-116.04 265.24,-123.03 275.83,-122.54 273.21,-116.04"/>
</a>
</g>
</g>
<!-- Node3 -->
<g id="Node000003" class="node">
<title>Node3</title>
<g id="a_Node000003"><a xlink:href="classGameEngine_1_1InputHandlerSystem.html" target="_top" xlink:title="System responsible for translating player input into entity actions and motion.">
<polygon fill="white" stroke="#666666" points="145.38,-32 11.62,-32 11.62,0 145.38,0 145.38,-32"/>
<text xml:space="preserve" text-anchor="start" x="19.62" y="-18.5" font-family="Helvetica,sans-Serif" font-size="10.00">GameEngine::InputHandler</text>
<text xml:space="preserve" text-anchor="middle" x="78.5" y="-6.5" font-family="Helvetica,sans-Serif" font-size="10.00">System</text>
</a>
</g>
</g>
<!-- Node2&#45;&gt;Node3 -->
<g id="edge2_Node000002_Node000003" class="edge">
<title>Node2&#45;&gt;Node3</title>
<g id="a_edge2_Node000002_Node000003"><a xlink:title=" ">
<path fill="none" stroke="#63b8ff" d="M72.05,-56.31C71.52,-48.37 71.69,-39.46 72.55,-32.14"/>
<polygon fill="#63b8ff" stroke="#63b8ff" points="68.56,-56.62 73.25,-66.12 75.51,-55.77 68.56,-56.62"/>
</a>
</g>
</g>
<!-- Node2&#45;&gt;Node3 -->
<g id="edge3_Node000002_Node000003" class="edge">
<title>Node2&#45;&gt;Node3</title>
<g id="a_edge3_Node000002_Node000003"><a xlink:title=" ">
<path fill="none" stroke="#63b8ff" d="M84.95,-56.31C85.48,-48.37 85.31,-39.46 84.45,-32.14"/>
<polygon fill="#63b8ff" stroke="#63b8ff" points="81.49,-55.77 83.75,-66.12 88.44,-56.62 81.49,-55.77"/>
</a>
</g>
</g>
<!-- Node5 -->
<g id="Node000005" class="node">
<title>Node5</title>
<g id="a_Node000005"><a xlink:href="classGameEngine_1_1MotionSystem.html" target="_top" xlink:title="System responsible for detecting collisions and applying damage between entities.">
<polygon fill="white" stroke="#666666" points="311.12,-26 169.88,-26 169.88,-6 311.12,-6 311.12,-26"/>
<text xml:space="preserve" text-anchor="middle" x="240.5" y="-12.5" font-family="Helvetica,sans-Serif" font-size="10.00">GameEngine::MotionSystem</text>
</a>
</g>
</g>
<!-- Node4&#45;&gt;Node5 -->
<g id="edge5_Node000004_Node000005" class="edge">
<title>Node4&#45;&gt;Node5</title>
<g id="a_edge5_Node000004_Node000005"><a xlink:title=" ">
<path fill="none" stroke="#63b8ff" d="M221.27,-56.93C219.05,-46.5 220.45,-34.26 225.47,-26.11"/>
<polygon fill="#63b8ff" stroke="#63b8ff" points="217.97,-58.09 224.78,-66.21 224.52,-55.62 217.97,-58.09"/>
</a>
</g>
</g>
<!-- Node4&#45;&gt;Node5 -->
<g id="edge6_Node000004_Node000005" class="edge">
<title>Node4&#45;&gt;Node5</title>
<g id="a_edge6_Node000004_Node000005"><a xlink:title=" ">
<path fill="none" stroke="#63b8ff" d="M234.04,-56.25C233.37,-45.97 233.85,-34.09 235.49,-26.11"/>
<polygon fill="#63b8ff" stroke="#63b8ff" points="230.56,-56.62 235.25,-66.12 237.51,-55.77 230.56,-56.62"/>
</a>
</g>
</g>
<!-- Node4&#45;&gt;Node5 -->
<g id="edge7_Node000004_Node000005" class="edge">
<title>Node4&#45;&gt;Node5</title>
<g id="a_edge7_Node000004_Node000005"><a xlink:title=" ">
<path fill="none" stroke="#63b8ff" d="M246.96,-56.25C247.63,-45.97 247.15,-34.09 245.51,-26.11"/>
<polygon fill="#63b8ff" stroke="#63b8ff" points="243.49,-55.77 245.75,-66.12 250.44,-56.62 243.49,-55.77"/>
</a>
</g>
</g>
<!-- Node4&#45;&gt;Node5 -->
<g id="edge8_Node000004_Node000005" class="edge">
<title>Node4&#45;&gt;Node5</title>
<g id="a_edge8_Node000004_Node000005"><a xlink:title=" ">
<path fill="none" stroke="#63b8ff" d="M259.73,-56.93C261.95,-46.5 260.55,-34.26 255.53,-26.11"/>
<polygon fill="#63b8ff" stroke="#63b8ff" points="256.48,-55.62 256.22,-66.21 263.03,-58.09 256.48,-55.62"/>
</a>
</g>
</g>
</g>
</svg>
