<?xml version="1.0" encoding="UTF-8" standalone="no"?>
<!DOCTYPE svg PUBLIC "-//W3C//DTD SVG 1.1//EN"
 "http://www.w3.org/Graphics/SVG/1.1/DTD/svg11.dtd">
<!-- Generated by graphviz version 14.0.1 (0)
 -->
<!-- Title: GameEngine::MotionSystem Pages: 1 -->
<svg width="149pt" height="140pt"
 viewBox="0.00 0.00 149.00 140.00" xmlns="http://www.w3.org/2000/svg" xmlns:xlink="http://www.w3.org/1999/xlink">
<g id="graph0" class="graph" transform="scale(1 1) rotate(0) translate(4 136)">
<title>GameEngine::MotionSystem</title>
<!-- Node1 -->
<g id="Node000001" class="node">
<title>Node1</title>
<g id="a_Node000001"><a xlink:title="System responsible for detecting collisions and applying damage between entities.">
<polygon fill="#999999" stroke="#666666" points="141.25,-20 0,-20 0,0 141.25,0 141.25,-20"/>
<text xml:space="preserve" text-anchor="middle" x="70.62" y="-6.5" font-family="Helvetica,sans-Serif" font-size="10.00">GameEngine::MotionSystem</text>
</a>
</g>
</g>
<!-- Node2 -->
<g id="Node000002" class="node">
<title>Node2</title>
<g id="a_Node000002"><a xlink:href="classSystem.html" target="_top" xlink:title=" ">
<polygon fill="white" stroke="#666666" points="136,-76 5.25,-76 5.25,-56 136,-56 136,-76"/>
<text xml:space="preserve" text-anchor="middle" x="70.62" y="-62.5" font-family="Helvetica,sans-Serif" font-size="10.00">System&lt; MotionSystem &gt;</text>
</a>
</g>
</g>
<!-- Node2&#45;&gt;Node1 -->
<g id="edge1_Node000001_Node000002" class="edge">
<title>Node2&#45;&gt;Node1</title>
<g id="a_edge1_Node000001_Node000002"><a xlink:title=" ">
<path fill="none" stroke="#63b8ff" d="M50.99,-45C49.47,-36.54 50.77,-27.08 54.89,-20.3"/>
<polygon fill="#63b8ff" stroke="#63b8ff" points="47.62,-45.96 54.31,-54.17 54.2,-43.58 47.62,-45.96"/>
</a>
</g>
</g>
<!-- Node2&#45;&gt;Node1 -->
<g id="edge3_Node000001_Node000002" class="edge">
<title>Node2&#45;&gt;Node1</title>
<g id="a_edge3_Node000001_Node000002"><a xlink:title=" ">
<path fill="none" stroke="#63b8ff" d="M64.05,-44.43C63.59,-36.11 64.04,-26.93 65.38,-20.3"/>
<polygon fill="#63b8ff" stroke="#63b8ff" points="60.54,-44.57 65.18,-54.09 67.49,-43.75 60.54,-44.57"/>
</a>
</g>
</g>
<!-- Node2&#45;&gt;Node1 -->
<g id="edge4_Node000001_Node000002" class="edge">
<title>Node2&#45;&gt;Node1</title>
<g id="a_edge4_Node000001_Node000002"><a xlink:title=" ">
<path fill="none" stroke="#63b8ff" d="M77.2,-44.43C77.66,-36.11 77.21,-26.93 75.87,-20.3"/>
<polygon fill="#63b8ff" stroke="#63b8ff" points="73.76,-43.75 76.07,-54.09 80.71,-44.57 73.76,-43.75"/>
</a>
</g>
</g>
<!-- Node2&#45;&gt;Node1 -->
<g id="edge5_Node000001_Node000002" class="edge">
<title>Node2&#45;&gt;Node1</title>
<g id="a_edge5_Node000001_Node000002"><a xlink:title=" ">
<path fill="none" stroke="#63b8ff" d="M90.26,-45C91.78,-36.54 90.48,-27.08 86.36,-20.3"/>
<polygon fill="#63b8ff" stroke="#63b8ff" points="87.05,-43.58 86.94,-54.17 93.63,-45.96 87.05,-43.58"/>
</a>
</g>
</g>
<!-- Node3 -->
<g id="Node000003" class="node">
<title>Node3</title>
<g id="a_Node000003"><a xlink:href="classISystem.html" target="_top" xlink:title="Base interface for all systems within the ECS framework.">
<polygon fill="white" stroke="#666666" points="97,-132 44.25,-132 44.25,-112 97,-112 97,-132"/>
<text xml:space="preserve" text-anchor="middle" x="70.62" y="-118.5" font-family="Helvetica,sans-Serif" font-size="10.00">ISystem</text>
</a>
</g>
</g>
<!-- Node3&#45;&gt;Node2 -->
<g id="edge2_Node000002_Node000003" class="edge">
<title>Node3&#45;&gt;Node2</title>
<g id="a_edge2_Node000002_Node000003"><a xlink:title=" ">
<path fill="none" stroke="#63b8ff" d="M70.62,-100.13C70.62,-91.9 70.62,-82.85 70.62,-76.3"/>
<polygon fill="#63b8ff" stroke="#63b8ff" points="67.13,-100.08 70.63,-110.08 74.13,-100.08 67.13,-100.08"/>
</a>
</g>
</g>
</g>
</svg>
