<?xml version="1.0" encoding="UTF-8" standalone="no"?>
<!DOCTYPE svg PUBLIC "-//W3C//DTD SVG 1.1//EN"
 "http://www.w3.org/Graphics/SVG/1.1/DTD/svg11.dtd">
<!-- Generated by graphviz version 14.0.1 (0)
 -->
<!-- Title: SparseSet::contains Pages: 1 -->
<svg width="253pt" height="66pt"
 viewBox="0.00 0.00 253.00 66.00" xmlns="http://www.w3.org/2000/svg" xmlns:xlink="http://www.w3.org/1999/xlink">
<g id="graph0" class="graph" transform="scale(1 1) rotate(0) translate(4 62)">
<title>SparseSet::contains</title>
<!-- Node1 -->
<g id="Node000001" class="node">
<title>Node1</title>
<g id="a_Node000001"><a xlink:title="Checks if a given entity currently has an associated component.">
<polygon fill="#999999" stroke="#666666" points="245,-39 140.5,-39 140.5,-19 245,-19 245,-39"/>
<text xml:space="preserve" text-anchor="middle" x="192.75" y="-25.5" font-family="Helvetica,sans-Serif" font-size="10.00">SparseSet::contains</text>
</a>
</g>
</g>
<!-- Node2 -->
<g id="Node000002" class="node">
<title>Node2</title>
<g id="a_Node000002"><a xlink:href="classSparseSet.html#abe608bb81179590bbc20b68006a68d66" target="_top" xlink:title="Adds or constructs a component for the given entity.">
<polygon fill="white" stroke="#666666" points="104.5,-58 0,-58 0,-38 104.5,-38 104.5,-58"/>
<text xml:space="preserve" text-anchor="middle" x="52.25" y="-44.5" font-family="Helvetica,sans-Serif" font-size="10.00">SparseSet::emplace</text>
</a>
</g>
</g>
<!-- Node1&#45;&gt;Node2 -->
<g id="edge1_Node000001_Node000002" class="edge">
<title>Node1&#45;&gt;Node2</title>
<g id="a_edge1_Node000001_Node000002"><a xlink:title=" ">
<path fill="none" stroke="#63b8ff" d="M128.92,-37.62C120.87,-38.72 112.71,-39.84 104.87,-40.92"/>
<polygon fill="#63b8ff" stroke="#63b8ff" points="129.25,-41.11 138.68,-36.28 128.3,-34.17 129.25,-41.11"/>
</a>
</g>
</g>
<!-- Node3 -->
<g id="Node000003" class="node">
<title>Node3</title>
<g id="a_Node000003"><a xlink:href="classSparseSet.html#a4d3865af44a93dbd316d47732e55f9cd" target="_top" xlink:title="Removes the component associated with an entity.">
<polygon fill="white" stroke="#666666" points="98.12,-20 6.38,-20 6.38,0 98.12,0 98.12,-20"/>
<text xml:space="preserve" text-anchor="middle" x="52.25" y="-6.5" font-family="Helvetica,sans-Serif" font-size="10.00">SparseSet::erase</text>
</a>
</g>
</g>
<!-- Node1&#45;&gt;Node3 -->
<g id="edge2_Node000001_Node000003" class="edge">
<title>Node1&#45;&gt;Node3</title>
<g id="a_edge2_Node000001_Node000003"><a xlink:title=" ">
<path fill="none" stroke="#63b8ff" d="M128.77,-20.36C118.56,-18.96 108.17,-17.53 98.49,-16.21"/>
<polygon fill="#63b8ff" stroke="#63b8ff" points="128.3,-23.83 138.68,-21.72 129.25,-16.89 128.3,-23.83"/>
</a>
</g>
</g>
</g>
</svg>
