<?xml version="1.0" encoding="UTF-8" standalone="no"?>
<!DOCTYPE svg PUBLIC "-//W3C//DTD SVG 1.1//EN"
 "http://www.w3.org/Graphics/SVG/1.1/DTD/svg11.dtd">
<!-- Generated by graphviz version 14.0.1 (0)
 -->
<!-- Title: GameEngine::InputHandlerSystem Pages: 1 -->
<svg width="165pt" height="152pt"
 viewBox="0.00 0.00 165.00 152.00" xmlns="http://www.w3.org/2000/svg" xmlns:xlink="http://www.w3.org/1999/xlink">
<g id="graph0" class="graph" transform="scale(1 1) rotate(0) translate(4 148)">
<title>GameEngine::InputHandlerSystem</title>
<!-- Node1 -->
<g id="Node000001" class="node">
<title>Node1</title>
<g id="a_Node000001"><a xlink:title="System responsible for translating player input into entity actions and motion.">
<polygon fill="#999999" stroke="#666666" points="145.38,-32 11.62,-32 11.62,0 145.38,0 145.38,-32"/>
<text xml:space="preserve" text-anchor="start" x="19.62" y="-18.5" font-family="Helvetica,sans-Serif" font-size="10.00">GameEngine::InputHandler</text>
<text xml:space="preserve" text-anchor="middle" x="78.5" y="-6.5" font-family="Helvetica,sans-Serif" font-size="10.00">System</text>
</a>
</g>
</g>
<!-- Node2 -->
<g id="Node000002" class="node">
<title>Node2</title>
<g id="a_Node000002"><a xlink:href="classSystem.html" target="_top" xlink:title=" ">
<polygon fill="white" stroke="#666666" points="157,-88 0,-88 0,-68 157,-68 157,-88"/>
<text xml:space="preserve" text-anchor="middle" x="78.5" y="-74.5" font-family="Helvetica,sans-Serif" font-size="10.00">System&lt; InputHandlerSystem &gt;</text>
</a>
</g>
</g>
<!-- Node2&#45;&gt;Node1 -->
<g id="edge1_Node000001_Node000002" class="edge">
<title>Node2&#45;&gt;Node1</title>
<g id="a_edge1_Node000001_Node000002"><a xlink:title=" ">
<path fill="none" stroke="#63b8ff" d="M72.05,-56.31C71.52,-48.37 71.69,-39.46 72.55,-32.14"/>
<polygon fill="#63b8ff" stroke="#63b8ff" points="68.56,-56.62 73.25,-66.12 75.51,-55.77 68.56,-56.62"/>
</a>
</g>
</g>
<!-- Node2&#45;&gt;Node1 -->
<g id="edge3_Node000001_Node000002" class="edge">
<title>Node2&#45;&gt;Node1</title>
<g id="a_edge3_Node000001_Node000002"><a xlink:title=" ">
<path fill="none" stroke="#63b8ff" d="M84.95,-56.31C85.48,-48.37 85.31,-39.46 84.45,-32.14"/>
<polygon fill="#63b8ff" stroke="#63b8ff" points="81.49,-55.77 83.75,-66.12 88.44,-56.62 81.49,-55.77"/>
</a>
</g>
</g>
<!-- Node3 -->
<g id="Node000003" class="node">
<title>Node3</title>
<g id="a_Node000003"><a xlink:href="classISystem.html" target="_top" xlink:title="Base interface for all systems within the ECS framework.">
<polygon fill="white" stroke="#666666" points="104.88,-144 52.12,-144 52.12,-124 104.88,-124 104.88,-144"/>
<text xml:space="preserve" text-anchor="middle" x="78.5" y="-130.5" font-family="Helvetica,sans-Serif" font-size="10.00">ISystem</text>
</a>
</g>
</g>
<!-- Node3&#45;&gt;Node2 -->
<g id="edge2_Node000002_Node000003" class="edge">
<title>Node3&#45;&gt;Node2</title>
<g id="a_edge2_Node000002_Node000003"><a xlink:title=" ">
<path fill="none" stroke="#63b8ff" d="M78.5,-112.13C78.5,-103.9 78.5,-94.85 78.5,-88.3"/>
<polygon fill="#63b8ff" stroke="#63b8ff" points="75,-112.08 78.5,-122.08 82,-112.08 75,-112.08"/>
</a>
</g>
</g>
</g>
</svg>
