<?xml version="1.0" encoding="UTF-8" standalone="no"?>
<!DOCTYPE svg PUBLIC "-//W3C//DTD SVG 1.1//EN"
 "http://www.w3.org/Graphics/SVG/1.1/DTD/svg11.dtd">
<!-- Generated by graphviz version 14.0.1 (0)
 -->
<!-- Title: Registry::updateSystemAvailability Pages: 1 -->
<svg width="530pt" height="218pt"
 viewBox="0.00 0.00 530.00 218.00" xmlns="http://www.w3.org/2000/svg" xmlns:xlink="http://www.w3.org/1999/xlink">
<g id="graph0" class="graph" transform="scale(1 1) rotate(0) translate(4 214)">
<title>Registry::updateSystemAvailability</title>
<!-- Node1 -->
<g id="Node000001" class="node">
<title>Node1</title>
<g id="a_Node000001"><a xlink:title="Updates which systems are active based on available component types.">
<polygon fill="#999999" stroke="#666666" points="522,-115 353,-115 353,-95 522,-95 522,-115"/>
<text xml:space="preserve" text-anchor="middle" x="437.5" y="-101.5" font-family="Helvetica,sans-Serif" font-size="10.00">Registry::updateSystemAvailability</text>
</a>
</g>
</g>
<!-- Node2 -->
<g id="Node000002" class="node">
<title>Node2</title>
<g id="a_Node000002"><a xlink:href="classRegistry.html#ae9d15b143aff79d01bc27d1bf89fa7f4" target="_top" xlink:title="Adds a system of type SystemType to the registry.">
<polygon fill="white" stroke="#666666" points="297.5,-210 189.25,-210 189.25,-190 297.5,-190 297.5,-210"/>
<text xml:space="preserve" text-anchor="middle" x="243.38" y="-196.5" font-family="Helvetica,sans-Serif" font-size="10.00">Registry::addSystem</text>
</a>
</g>
</g>
<!-- Node1&#45;&gt;Node2 -->
<g id="edge1_Node000001_Node000002" class="edge">
<title>Node1&#45;&gt;Node2</title>
<g id="a_edge1_Node000001_Node000002"><a xlink:title=" ">
<path fill="none" stroke="#63b8ff" d="M414.34,-122.09C391.2,-139.2 353.29,-165.18 317,-181 309.35,-184.33 300.99,-187.19 292.75,-189.59"/>
<polygon fill="#63b8ff" stroke="#63b8ff" points="416.19,-125.07 422.09,-116.27 411.99,-119.48 416.19,-125.07"/>
</a>
</g>
</g>
<!-- Node3 -->
<g id="Node000003" class="node">
<title>Node3</title>
<g id="a_Node000003"><a xlink:href="classRegistry.html#a3baf2d21b12a925c7e4796fd0fb03d08" target="_top" xlink:title="Adds a dynamically created system (type&#45;erased).">
<polygon fill="white" stroke="#666666" points="317,-172 169.75,-172 169.75,-152 317,-152 317,-172"/>
<text xml:space="preserve" text-anchor="middle" x="243.38" y="-158.5" font-family="Helvetica,sans-Serif" font-size="10.00">Registry::addSystemDynamic</text>
</a>
</g>
</g>
<!-- Node1&#45;&gt;Node3 -->
<g id="edge2_Node000001_Node000003" class="edge">
<title>Node1&#45;&gt;Node3</title>
<g id="a_edge2_Node000001_Node000003"><a xlink:title=" ">
<path fill="none" stroke="#63b8ff" d="M394.49,-118.95C371.66,-126.38 342.88,-135.51 317,-143 306.99,-145.9 296.14,-148.84 285.96,-151.52"/>
<polygon fill="#63b8ff" stroke="#63b8ff" points="395.33,-122.35 403.75,-115.92 393.15,-115.7 395.33,-122.35"/>
</a>
</g>
</g>
<!-- Node4 -->
<g id="Node000004" class="node">
<title>Node4</title>
<g id="a_Node000004"><a xlink:href="classRegistry.html#ab7146777e8495aaaa8b3260b9ca9b117" target="_top" xlink:title="Clears all entities, components, and systems.">
<polygon fill="white" stroke="#666666" points="283.25,-134 203.5,-134 203.5,-114 283.25,-114 283.25,-134"/>
<text xml:space="preserve" text-anchor="middle" x="243.38" y="-120.5" font-family="Helvetica,sans-Serif" font-size="10.00">Registry::clear</text>
</a>
</g>
</g>
<!-- Node1&#45;&gt;Node4 -->
<g id="edge3_Node000001_Node000004" class="edge">
<title>Node1&#45;&gt;Node4</title>
<g id="a_edge3_Node000001_Node000004"><a xlink:title=" ">
<path fill="none" stroke="#63b8ff" d="M341.24,-114.42C320.91,-116.43 300.53,-118.45 283.74,-120.11"/>
<polygon fill="#63b8ff" stroke="#63b8ff" points="341.4,-117.92 351,-113.46 340.71,-110.96 341.4,-117.92"/>
</a>
</g>
</g>
<!-- Node5 -->
<g id="Node000005" class="node">
<title>Node5</title>
<g id="a_Node000005"><a xlink:href="classRegistry.html#ab12b0e856e109cd94af4aeb5e969de24" target="_top" xlink:title="Adds a new component of type Component to entity e.">
<polygon fill="white" stroke="#666666" points="291.12,-96 195.62,-96 195.62,-76 291.12,-76 291.12,-96"/>
<text xml:space="preserve" text-anchor="middle" x="243.38" y="-82.5" font-family="Helvetica,sans-Serif" font-size="10.00">Registry::emplace</text>
</a>
</g>
</g>
<!-- Node1&#45;&gt;Node5 -->
<g id="edge4_Node000001_Node000005" class="edge">
<title>Node1&#45;&gt;Node5</title>
<g id="a_edge4_Node000001_Node000005"><a xlink:title=" ">
<path fill="none" stroke="#63b8ff" d="M341.19,-95.57C323.93,-93.87 306.63,-92.16 291.53,-90.66"/>
<polygon fill="#63b8ff" stroke="#63b8ff" points="340.71,-99.04 351,-96.54 341.4,-92.08 340.71,-99.04"/>
</a>
</g>
</g>
<!-- Node7 -->
<g id="Node000007" class="node">
<title>Node7</title>
<g id="a_Node000007"><a xlink:href="classRegistry.html#acb15d8aa051bf36ea92a86ee6c00bc3c" target="_top" xlink:title="Constructs the registry, preparing internal storage.">
<polygon fill="white" stroke="#666666" points="291.12,-58 195.62,-58 195.62,-38 291.12,-38 291.12,-58"/>
<text xml:space="preserve" text-anchor="middle" x="243.38" y="-44.5" font-family="Helvetica,sans-Serif" font-size="10.00">Registry::Registry</text>
</a>
</g>
</g>
<!-- Node1&#45;&gt;Node7 -->
<g id="edge6_Node000001_Node000007" class="edge">
<title>Node1&#45;&gt;Node7</title>
<g id="a_edge6_Node000001_Node000007"><a xlink:title=" ">
<path fill="none" stroke="#63b8ff" d="M394.49,-91.05C371.66,-83.62 342.88,-74.49 317,-67 306.99,-64.1 296.14,-61.16 285.96,-58.48"/>
<polygon fill="#63b8ff" stroke="#63b8ff" points="393.15,-94.3 403.75,-94.08 395.33,-87.65 393.15,-94.3"/>
</a>
</g>
</g>
<!-- Node8 -->
<g id="Node000008" class="node">
<title>Node8</title>
<g id="a_Node000008"><a xlink:href="classRegistry.html#a629e3280396e2e8cc06434895e746639" target="_top" xlink:title="Removes a component of type Component from entity e.">
<polygon fill="white" stroke="#666666" points="288.88,-20 197.88,-20 197.88,0 288.88,0 288.88,-20"/>
<text xml:space="preserve" text-anchor="middle" x="243.38" y="-6.5" font-family="Helvetica,sans-Serif" font-size="10.00">Registry::remove</text>
</a>
</g>
</g>
<!-- Node1&#45;&gt;Node8 -->
<g id="edge7_Node000001_Node000008" class="edge">
<title>Node1&#45;&gt;Node8</title>
<g id="a_edge7_Node000001_Node000008"><a xlink:title=" ">
<path fill="none" stroke="#63b8ff" d="M414.34,-87.91C391.2,-70.8 353.29,-44.82 317,-29 308.28,-25.2 298.63,-22.02 289.28,-19.42"/>
<polygon fill="#63b8ff" stroke="#63b8ff" points="411.99,-90.52 422.09,-93.73 416.19,-84.93 411.99,-90.52"/>
</a>
</g>
</g>
<!-- Node6 -->
<g id="Node000006" class="node">
<title>Node6</title>
<g id="a_Node000006"><a xlink:href="classGameEngine_1_1InputHandlerSystem.html#a56d9f3bab8680fee7d15423028e046b9" target="_top" xlink:title=" ">
<polygon fill="white" stroke="#666666" points="133.75,-102 0,-102 0,-70 133.75,-70 133.75,-102"/>
<text xml:space="preserve" text-anchor="start" x="8" y="-88.5" font-family="Helvetica,sans-Serif" font-size="10.00">GameEngine::InputHandler</text>
<text xml:space="preserve" text-anchor="middle" x="66.88" y="-76.5" font-family="Helvetica,sans-Serif" font-size="10.00">System::onUpdate</text>
</a>
</g>
</g>
<!-- Node5&#45;&gt;Node6 -->
<g id="edge5_Node000005_Node000006" class="edge">
<title>Node5&#45;&gt;Node6</title>
<g id="a_edge5_Node000005_Node000006"><a xlink:title=" ">
<path fill="none" stroke="#63b8ff" d="M183.83,-86C167.87,-86 150.48,-86 134.13,-86"/>
<polygon fill="#63b8ff" stroke="#63b8ff" points="183.64,-89.5 193.64,-86 183.64,-82.5 183.64,-89.5"/>
</a>
</g>
</g>
</g>
</svg>
