<?xml version="1.0" encoding="UTF-8" standalone="no"?>
<!DOCTYPE svg PUBLIC "-//W3C//DTD SVG 1.1//EN"
 "http://www.w3.org/Graphics/SVG/1.1/DTD/svg11.dtd">
<!-- Generated by graphviz version 14.0.2 (0)
 -->
<!-- Title: ComponentRegistry::instance Pages: 1 -->
<svg width="628pt" height="598pt"
 viewBox="0.00 0.00 628.00 598.00" xmlns="http://www.w3.org/2000/svg" xmlns:xlink="http://www.w3.org/1999/xlink">
<g id="graph0" class="graph" transform="scale(1 1) rotate(0) translate(4 594)">
<title>ComponentRegistry::instance</title>
<!-- Node1 -->
<g id="Node000001" class="node">
<title>Node1</title>
<g id="a_Node000001"><a xlink:title="Provides access to the global ComponentRegistry instance.">
<polygon fill="#999999" stroke="#666666" points="619.75,-209 510.75,-209 510.75,-177 619.75,-177 619.75,-209"/>
<text xml:space="preserve" text-anchor="start" x="518.75" y="-195.5" font-family="Helvetica,sans-Serif" font-size="10.00">ComponentRegistry::</text>
<text xml:space="preserve" text-anchor="middle" x="565.25" y="-183.5" font-family="Helvetica,sans-Serif" font-size="10.00">instance</text>
</a>
</g>
</g>
<!-- Node2 -->
<g id="Node000002" class="node">
<title>Node2</title>
<g id="a_Node000002"><a xlink:href="classRegistry.html#a7a17141d6ad949dbc4792cb638665226" target="_top" xlink:title="Counts how many components of type Component currently exist.">
<polygon fill="white" stroke="#666666" points="445.88,-374 363.12,-374 363.12,-354 445.88,-354 445.88,-374"/>
<text xml:space="preserve" text-anchor="middle" x="404.5" y="-360.5" font-family="Helvetica,sans-Serif" font-size="10.00">Registry::count</text>
</a>
</g>
</g>
<!-- Node1&#45;&gt;Node2 -->
<g id="edge1_Node000001_Node000002" class="edge">
<title>Node1&#45;&gt;Node2</title>
<g id="a_edge1_Node000001_Node000002"><a xlink:title=" ">
<path fill="none" stroke="#63b8ff" d="M554.53,-219.82C541.32,-252.63 514.69,-307.78 474.75,-340 466.53,-346.63 456.36,-351.48 446.37,-355.02"/>
<polygon fill="#63b8ff" stroke="#63b8ff" points="557.74,-221.22 558.09,-210.63 551.21,-218.69 557.74,-221.22"/>
</a>
</g>
</g>
<!-- Node3 -->
<g id="Node000003" class="node">
<title>Node3</title>
<g id="a_Node000003"><a xlink:href="classRegistry.html#a31cfb49fd633086383bf646b39a8daa2" target="_top" xlink:title="Iterates through all entities that have all the specified components.">
<polygon fill="white" stroke="#666666" points="280.25,-335 200.5,-335 200.5,-315 280.25,-315 280.25,-335"/>
<text xml:space="preserve" text-anchor="middle" x="240.38" y="-321.5" font-family="Helvetica,sans-Serif" font-size="10.00">Registry::each</text>
</a>
</g>
</g>
<!-- Node1&#45;&gt;Node3 -->
<g id="edge2_Node000001_Node000003" class="edge">
<title>Node1&#45;&gt;Node3</title>
<g id="a_edge2_Node000001_Node000003"><a xlink:title=" ">
<path fill="none" stroke="#63b8ff" d="M551.8,-219.39C537.42,-246.57 510.99,-287.62 474.75,-307 413.12,-339.96 328.95,-336.76 280.36,-331.1"/>
<polygon fill="#63b8ff" stroke="#63b8ff" points="554.79,-221.23 556.2,-210.73 548.55,-218.05 554.79,-221.23"/>
</a>
</g>
</g>
<!-- Node13 -->
<g id="Node000013" class="node">
<title>Node13</title>
<g id="a_Node000013"><a xlink:href="classRegistry.html#ab12b0e856e109cd94af4aeb5e969de24" target="_top" xlink:title="Adds a new component of type Component to entity e.">
<polygon fill="white" stroke="#666666" points="288.12,-180 192.62,-180 192.62,-160 288.12,-160 288.12,-180"/>
<text xml:space="preserve" text-anchor="middle" x="240.38" y="-166.5" font-family="Helvetica,sans-Serif" font-size="10.00">Registry::emplace</text>
</a>
</g>
</g>
<!-- Node1&#45;&gt;Node13 -->
<g id="edge12_Node000001_Node000013" class="edge">
<title>Node1&#45;&gt;Node13</title>
<g id="a_edge12_Node000001_Node000013"><a xlink:title=" ">
<path fill="none" stroke="#63b8ff" d="M499.22,-197.18C453.02,-199.14 389.61,-199.75 334.25,-193 314.3,-190.57 292.46,-185.29 274.97,-180.41"/>
<polygon fill="#63b8ff" stroke="#63b8ff" points="499.24,-200.69 509.07,-196.73 498.92,-193.69 499.24,-200.69"/>
</a>
</g>
</g>
<!-- Node14 -->
<g id="Node000014" class="node">
<title>Node14</title>
<g id="a_Node000014"><a xlink:href="classRegistry.html#a11f1e4d7d7ef1a84640adddf32c1f862" target="_top" xlink:title="Gets a reference to a component of type Component for entity e.">
<polygon fill="white" stroke="#666666" points="440.62,-260 368.38,-260 368.38,-240 440.62,-240 440.62,-260"/>
<text xml:space="preserve" text-anchor="middle" x="404.5" y="-246.5" font-family="Helvetica,sans-Serif" font-size="10.00">Registry::get</text>
</a>
</g>
</g>
<!-- Node1&#45;&gt;Node14 -->
<g id="edge14_Node000001_Node000014" class="edge">
<title>Node1&#45;&gt;Node14</title>
<g id="a_edge14_Node000001_Node000014"><a xlink:title=" ">
<path fill="none" stroke="#63b8ff" d="M509.4,-213.42C497.97,-217.62 485.98,-221.99 474.75,-226 462.05,-230.54 447.99,-235.44 435.88,-239.61"/>
<polygon fill="#63b8ff" stroke="#63b8ff" points="510.56,-216.72 518.74,-209.98 508.14,-210.15 510.56,-216.72"/>
</a>
</g>
</g>
<!-- Node16 -->
<g id="Node000016" class="node">
<title>Node16</title>
<g id="a_Node000016"><a xlink:href="classRegistry.html#ac846fa6831fe9b792391b36fa8572d1d" target="_top" xlink:title="Const version of get().">
<polygon fill="white" stroke="#666666" points="440.62,-184 368.38,-184 368.38,-164 440.62,-164 440.62,-184"/>
<text xml:space="preserve" text-anchor="middle" x="404.5" y="-170.5" font-family="Helvetica,sans-Serif" font-size="10.00">Registry::get</text>
</a>
</g>
</g>
<!-- Node1&#45;&gt;Node16 -->
<g id="edge19_Node000001_Node000016" class="edge">
<title>Node1&#45;&gt;Node16</title>
<g id="a_edge19_Node000001_Node000016"><a xlink:title=" ">
<path fill="none" stroke="#63b8ff" d="M499.23,-185.22C479.22,-182.82 457.94,-180.28 440.73,-178.22"/>
<polygon fill="#63b8ff" stroke="#63b8ff" points="498.66,-188.67 509,-186.39 499.49,-181.72 498.66,-188.67"/>
</a>
</g>
</g>
<!-- Node17 -->
<g id="Node000017" class="node">
<title>Node17</title>
<g id="a_Node000017"><a xlink:href="classRegistry.html#acac1f1c8a740cfeb2b33a32cfd6ad83f" target="_top" xlink:title="Checks if entity e has a component of type Component.">
<polygon fill="white" stroke="#666666" points="441.75,-298 367.25,-298 367.25,-278 441.75,-278 441.75,-298"/>
<text xml:space="preserve" text-anchor="middle" x="404.5" y="-284.5" font-family="Helvetica,sans-Serif" font-size="10.00">Registry::has</text>
</a>
</g>
</g>
<!-- Node1&#45;&gt;Node17 -->
<g id="edge20_Node000001_Node000017" class="edge">
<title>Node1&#45;&gt;Node17</title>
<g id="a_edge20_Node000001_Node000017"><a xlink:title=" ">
<path fill="none" stroke="#63b8ff" d="M541.66,-217.13C524.71,-233.9 500.15,-255.58 474.75,-269 464.72,-274.3 453.07,-278.23 442.22,-281.1"/>
<polygon fill="#63b8ff" stroke="#63b8ff" points="543.74,-220 548.27,-210.42 538.76,-215.08 543.74,-220"/>
</a>
</g>
</g>
<!-- Node18 -->
<g id="Node000018" class="node">
<title>Node18</title>
<g id="a_Node000018"><a xlink:href="classRegistry.html#a629e3280396e2e8cc06434895e746639" target="_top" xlink:title="Removes a component of type Component from entity e.">
<polygon fill="white" stroke="#666666" points="450,-146 359,-146 359,-126 450,-126 450,-146"/>
<text xml:space="preserve" text-anchor="middle" x="404.5" y="-132.5" font-family="Helvetica,sans-Serif" font-size="10.00">Registry::remove</text>
</a>
</g>
</g>
<!-- Node1&#45;&gt;Node18 -->
<g id="edge22_Node000001_Node000018" class="edge">
<title>Node1&#45;&gt;Node18</title>
<g id="a_edge22_Node000001_Node000018"><a xlink:title=" ">
<path fill="none" stroke="#63b8ff" d="M518.28,-172.09C504.44,-166.17 489.11,-159.99 474.75,-155 465.92,-151.93 456.32,-149.03 447.16,-146.46"/>
<polygon fill="#63b8ff" stroke="#63b8ff" points="516.58,-175.17 527.15,-175.94 519.37,-168.75 516.58,-175.17"/>
</a>
</g>
</g>
<!-- Node19 -->
<g id="Node000019" class="node">
<title>Node19</title>
<g id="a_Node000019"><a xlink:href="classSystem.html#ab96f7a0f109eac8621f869efcf40a916" target="_top" xlink:title="Declares which components this system requires.">
<polygon fill="white" stroke="#666666" points="474.75,-108 334.25,-108 334.25,-88 474.75,-88 474.75,-108"/>
<text xml:space="preserve" text-anchor="middle" x="404.5" y="-94.5" font-family="Helvetica,sans-Serif" font-size="10.00">System::requireComponents</text>
</a>
</g>
</g>
<!-- Node1&#45;&gt;Node19 -->
<g id="edge23_Node000001_Node000019" class="edge">
<title>Node1&#45;&gt;Node19</title>
<g id="a_edge23_Node000001_Node000019"><a xlink:title=" ">
<path fill="none" stroke="#63b8ff" d="M541.66,-168.87C524.71,-152.1 500.15,-130.42 474.75,-117 468.36,-113.62 461.3,-110.8 454.22,-108.46"/>
<polygon fill="#63b8ff" stroke="#63b8ff" points="538.76,-170.92 548.27,-175.58 543.74,-166 538.76,-170.92"/>
</a>
</g>
</g>
<!-- Node20 -->
<g id="Node000020" class="node">
<title>Node20</title>
<g id="a_Node000020"><a xlink:href="classSystem.html#a3debf9a0bb97844f19da1c818d4dd3e3" target="_top" xlink:title="Declares required components using their names as strings.">
<polygon fill="white" stroke="#666666" points="474.75,-70 334.25,-70 334.25,-38 474.75,-38 474.75,-70"/>
<text xml:space="preserve" text-anchor="start" x="342.25" y="-56.5" font-family="Helvetica,sans-Serif" font-size="10.00">System::requireComponents</text>
<text xml:space="preserve" text-anchor="middle" x="404.5" y="-44.5" font-family="Helvetica,sans-Serif" font-size="10.00">ByName</text>
</a>
</g>
</g>
<!-- Node1&#45;&gt;Node20 -->
<g id="edge24_Node000001_Node000020" class="edge">
<title>Node1&#45;&gt;Node20</title>
<g id="a_edge24_Node000001_Node000020"><a xlink:title=" ">
<path fill="none" stroke="#63b8ff" d="M549.69,-166.86C534.17,-141.2 507.37,-102.58 474.75,-79 470.3,-75.78 465.38,-72.94 460.29,-70.43"/>
<polygon fill="#63b8ff" stroke="#63b8ff" points="546.59,-168.5 554.68,-175.35 552.63,-164.96 546.59,-168.5"/>
</a>
</g>
</g>
<!-- Node21 -->
<g id="Node000021" class="node">
<title>Node21</title>
<g id="a_Node000021"><a xlink:href="classRegistry.html#a864a9feb3c9cffc43296ae8bb1aa2e3a" target="_top" xlink:title="Returns a reference to the SparseSet storing all components of type Component.">
<polygon fill="white" stroke="#666666" points="444,-20 365,-20 365,0 444,0 444,-20"/>
<text xml:space="preserve" text-anchor="middle" x="404.5" y="-6.5" font-family="Helvetica,sans-Serif" font-size="10.00">Registry::view</text>
</a>
</g>
</g>
<!-- Node1&#45;&gt;Node21 -->
<g id="edge25_Node000001_Node000021" class="edge">
<title>Node1&#45;&gt;Node21</title>
<g id="a_edge25_Node000001_Node000021"><a xlink:title=" ">
<path fill="none" stroke="#63b8ff" d="M556.77,-165.88C545.28,-129.29 519.73,-64.6 474.75,-29 466.05,-22.11 455.03,-17.72 444.35,-14.92"/>
<polygon fill="#63b8ff" stroke="#63b8ff" points="553.36,-166.68 559.59,-175.25 560.07,-164.66 553.36,-166.68"/>
</a>
</g>
</g>
<!-- Node4 -->
<g id="Node000004" class="node">
<title>Node4</title>
<g id="a_Node000004"><a xlink:href="classGameEngine_1_1Animation.html#a92efc46a052b2627ed60ac8a2c81b3e2" target="_top" xlink:title=" ">
<polygon fill="white" stroke="#666666" points="134.12,-290 12.38,-290 12.38,-258 134.12,-258 134.12,-290"/>
<text xml:space="preserve" text-anchor="start" x="20.38" y="-276.5" font-family="Helvetica,sans-Serif" font-size="10.00">GameEngine::Animation</text>
<text xml:space="preserve" text-anchor="middle" x="73.25" y="-264.5" font-family="Helvetica,sans-Serif" font-size="10.00">::onUpdate</text>
</a>
</g>
</g>
<!-- Node3&#45;&gt;Node4 -->
<g id="edge3_Node000003_Node000004" class="edge">
<title>Node3&#45;&gt;Node4</title>
<g id="a_edge3_Node000003_Node000004"><a xlink:title=" ">
<path fill="none" stroke="#63b8ff" d="M194.82,-311.24C174.08,-304.83 149.25,-297.16 127.52,-290.45"/>
<polygon fill="#63b8ff" stroke="#63b8ff" points="193.53,-314.5 204.11,-314.11 195.59,-307.81 193.53,-314.5"/>
</a>
</g>
</g>
<!-- Node5 -->
<g id="Node000005" class="node">
<title>Node5</title>
<g id="a_Node000005"><a xlink:href="classGameEngine_1_1Collision.html#a49f26a6547e81a9cebf7ad5436fb7101" target="_top" xlink:title=" ">
<polygon fill="white" stroke="#666666" points="131.12,-240 15.38,-240 15.38,-208 131.12,-208 131.12,-240"/>
<text xml:space="preserve" text-anchor="start" x="23.38" y="-226.5" font-family="Helvetica,sans-Serif" font-size="10.00">GameEngine::Collision</text>
<text xml:space="preserve" text-anchor="middle" x="73.25" y="-214.5" font-family="Helvetica,sans-Serif" font-size="10.00">::onUpdate</text>
</a>
</g>
</g>
<!-- Node3&#45;&gt;Node5 -->
<g id="edge4_Node000003_Node000005" class="edge">
<title>Node3&#45;&gt;Node5</title>
<g id="a_edge4_Node000003_Node000005"><a xlink:title=" ">
<path fill="none" stroke="#63b8ff" d="M218.48,-307.24C193.57,-286.18 154.32,-253.37 146.5,-249 140.82,-245.83 134.67,-242.95 128.44,-240.38"/>
<polygon fill="#63b8ff" stroke="#63b8ff" points="216.18,-309.88 226.07,-313.67 220.7,-304.54 216.18,-309.88"/>
</a>
</g>
</g>
<!-- Node6 -->
<g id="Node000006" class="node">
<title>Node6</title>
<g id="a_Node000006"><a xlink:href="classGameEngine_1_1Death.html#a081a250ee3a8d22b7dd2323dbaba0eb7" target="_top" xlink:title=" ">
<polygon fill="white" stroke="#666666" points="128.5,-590 18,-590 18,-558 128.5,-558 128.5,-590"/>
<text xml:space="preserve" text-anchor="start" x="26" y="-576.5" font-family="Helvetica,sans-Serif" font-size="10.00">GameEngine::Death::</text>
<text xml:space="preserve" text-anchor="middle" x="73.25" y="-564.5" font-family="Helvetica,sans-Serif" font-size="10.00">onUpdate</text>
</a>
</g>
</g>
<!-- Node3&#45;&gt;Node6 -->
<g id="edge5_Node000003_Node000006" class="edge">
<title>Node3&#45;&gt;Node6</title>
<g id="a_edge5_Node000003_Node000006"><a xlink:title=" ">
<path fill="none" stroke="#63b8ff" d="M236.38,-346.73C229.13,-391.03 206.61,-492.39 146.5,-549 141.38,-553.82 135.28,-557.72 128.83,-560.87"/>
<polygon fill="#63b8ff" stroke="#63b8ff" points="239.83,-347.28 237.87,-336.87 232.91,-346.23 239.83,-347.28"/>
</a>
</g>
</g>
<!-- Node7 -->
<g id="Node000007" class="node">
<title>Node7</title>
<g id="a_Node000007"><a xlink:href="classGameEngine_1_1DomainHandler.html#a2e491047939e77c803075c6c490d54ee" target="_top" xlink:title="Updates the system, checking entity positions against their domain boundaries.">
<polygon fill="white" stroke="#666666" points="146.12,-540 0.38,-540 0.38,-508 146.12,-508 146.12,-540"/>
<text xml:space="preserve" text-anchor="start" x="8.38" y="-526.5" font-family="Helvetica,sans-Serif" font-size="10.00">GameEngine::DomainHandler</text>
<text xml:space="preserve" text-anchor="middle" x="73.25" y="-514.5" font-family="Helvetica,sans-Serif" font-size="10.00">::onUpdate</text>
</a>
</g>
</g>
<!-- Node3&#45;&gt;Node7 -->
<g id="edge6_Node000003_Node000007" class="edge">
<title>Node3&#45;&gt;Node7</title>
<g id="a_edge6_Node000003_Node000007"><a xlink:title=" ">
<path fill="none" stroke="#63b8ff" d="M233.68,-346.07C222.79,-382.42 195.63,-457.04 146.5,-499 142.66,-502.28 138.38,-505.13 133.85,-507.61"/>
<polygon fill="#63b8ff" stroke="#63b8ff" points="236.95,-347.34 236.34,-336.77 230.22,-345.42 236.95,-347.34"/>
</a>
</g>
</g>
<!-- Node8 -->
<g id="Node000008" class="node">
<title>Node8</title>
<g id="a_Node000008"><a xlink:href="classGameEngine_1_1FPApplyGravity.html#a4fc5342f686d0c3bc6acd4f8c85cb720" target="_top" xlink:title=" ">
<polygon fill="white" stroke="#666666" points="146.5,-490 0,-490 0,-458 146.5,-458 146.5,-490"/>
<text xml:space="preserve" text-anchor="start" x="8" y="-476.5" font-family="Helvetica,sans-Serif" font-size="10.00">GameEngine::FPApplyGravity</text>
<text xml:space="preserve" text-anchor="middle" x="73.25" y="-464.5" font-family="Helvetica,sans-Serif" font-size="10.00">::onUpdate</text>
</a>
</g>
</g>
<!-- Node3&#45;&gt;Node8 -->
<g id="edge7_Node000003_Node000008" class="edge">
<title>Node3&#45;&gt;Node8</title>
<g id="a_edge7_Node000003_Node000008"><a xlink:title=" ">
<path fill="none" stroke="#63b8ff" d="M229.2,-345.28C214.52,-372.59 184.88,-420.99 146.5,-449 142.1,-452.21 137.26,-455.03 132.23,-457.51"/>
<polygon fill="#63b8ff" stroke="#63b8ff" points="232.18,-347.13 233.7,-336.64 225.98,-343.89 232.18,-347.13"/>
</a>
</g>
</g>
<!-- Node9 -->
<g id="Node000009" class="node">
<title>Node9</title>
<g id="a_Node000009"><a xlink:href="classGameEngine_1_1FPInputHandler.html#adc119a8b423c28985d8a8e87baad6421" target="_top" xlink:title=" ">
<polygon fill="white" stroke="#666666" points="146.5,-440 0,-440 0,-408 146.5,-408 146.5,-440"/>
<text xml:space="preserve" text-anchor="start" x="8" y="-426.5" font-family="Helvetica,sans-Serif" font-size="10.00">GameEngine::FPInputHandler</text>
<text xml:space="preserve" text-anchor="middle" x="73.25" y="-414.5" font-family="Helvetica,sans-Serif" font-size="10.00">::onUpdate</text>
</a>
</g>
</g>
<!-- Node3&#45;&gt;Node9 -->
<g id="edge8_Node000003_Node000009" class="edge">
<title>Node3&#45;&gt;Node9</title>
<g id="a_edge8_Node000003_Node000009"><a xlink:title=" ">
<path fill="none" stroke="#63b8ff" d="M220.48,-343.28C202.63,-359.72 174.5,-383.6 146.5,-399 140.8,-402.13 134.64,-404.99 128.4,-407.55"/>
<polygon fill="#63b8ff" stroke="#63b8ff" points="222.83,-345.88 227.72,-336.48 218.03,-340.78 222.83,-345.88"/>
</a>
</g>
</g>
<!-- Node10 -->
<g id="Node000010" class="node">
<title>Node10</title>
<g id="a_Node000010"><a xlink:href="classGameEngine_1_1FPMotion.html#adeee4196198d928de33feb2182396c85" target="_top" xlink:title=" ">
<polygon fill="white" stroke="#666666" points="133.38,-390 13.12,-390 13.12,-358 133.38,-358 133.38,-390"/>
<text xml:space="preserve" text-anchor="start" x="21.12" y="-376.5" font-family="Helvetica,sans-Serif" font-size="10.00">GameEngine::FPMotion</text>
<text xml:space="preserve" text-anchor="middle" x="73.25" y="-364.5" font-family="Helvetica,sans-Serif" font-size="10.00">::onUpdate</text>
</a>
</g>
</g>
<!-- Node3&#45;&gt;Node10 -->
<g id="edge9_Node000003_Node000010" class="edge">
<title>Node3&#45;&gt;Node10</title>
<g id="a_edge9_Node000003_Node000010"><a xlink:title=" ">
<path fill="none" stroke="#63b8ff" d="M193.47,-338.62C173.7,-344.49 150.41,-351.4 129.69,-357.55"/>
<polygon fill="#63b8ff" stroke="#63b8ff" points="194.31,-342.02 202.91,-335.82 192.32,-335.31 194.31,-342.02"/>
</a>
</g>
</g>
<!-- Node11 -->
<g id="Node000011" class="node">
<title>Node11</title>
<g id="a_Node000011"><a xlink:href="classGameEngine_1_1InputHandler.html#acb0d11bd1241dad8925f26b86f6d9007" target="_top" xlink:title=" ">
<polygon fill="white" stroke="#666666" points="140.12,-190 6.38,-190 6.38,-158 140.12,-158 140.12,-190"/>
<text xml:space="preserve" text-anchor="start" x="14.38" y="-176.5" font-family="Helvetica,sans-Serif" font-size="10.00">GameEngine::InputHandler</text>
<text xml:space="preserve" text-anchor="middle" x="73.25" y="-164.5" font-family="Helvetica,sans-Serif" font-size="10.00">::onUpdate</text>
</a>
</g>
</g>
<!-- Node3&#45;&gt;Node11 -->
<g id="edge10_Node000003_Node000011" class="edge">
<title>Node3&#45;&gt;Node11</title>
<g id="a_edge10_Node000003_Node000011"><a xlink:title=" ">
<path fill="none" stroke="#63b8ff" d="M214.44,-307.83C203.62,-299.46 191.4,-288.68 182.5,-277 159.36,-246.63 174.8,-224.63 146.5,-199 142.86,-195.7 138.76,-192.84 134.42,-190.35"/>
<polygon fill="#63b8ff" stroke="#63b8ff" points="212.15,-310.48 222.27,-313.62 216.31,-304.86 212.15,-310.48"/>
</a>
</g>
</g>
<!-- Node12 -->
<g id="Node000012" class="node">
<title>Node12</title>
<g id="a_Node000012"><a xlink:href="classGameEngine_1_1Motion.html#a015b898244098b869ceb6001884ae9fe" target="_top" xlink:title=" ">
<polygon fill="white" stroke="#666666" points="127,-340 19.5,-340 19.5,-308 127,-308 127,-340"/>
<text xml:space="preserve" text-anchor="start" x="27.5" y="-326.5" font-family="Helvetica,sans-Serif" font-size="10.00">GameEngine::Motion</text>
<text xml:space="preserve" text-anchor="middle" x="73.25" y="-314.5" font-family="Helvetica,sans-Serif" font-size="10.00">::onUpdate</text>
</a>
</g>
</g>
<!-- Node3&#45;&gt;Node12 -->
<g id="edge11_Node000003_Node000012" class="edge">
<title>Node3&#45;&gt;Node12</title>
<g id="a_edge11_Node000003_Node000012"><a xlink:title=" ">
<path fill="none" stroke="#63b8ff" d="M188.85,-324.69C169.41,-324.58 147.16,-324.44 127.47,-324.32"/>
<polygon fill="#63b8ff" stroke="#63b8ff" points="188.71,-328.19 198.73,-324.75 188.75,-321.19 188.71,-328.19"/>
</a>
</g>
</g>
<!-- Node13&#45;&gt;Node11 -->
<g id="edge13_Node000013_Node000011" class="edge">
<title>Node13&#45;&gt;Node11</title>
<g id="a_edge13_Node000013_Node000011"><a xlink:title=" ">
<path fill="none" stroke="#63b8ff" d="M181.17,-171.41C167.97,-171.73 153.85,-172.07 140.35,-172.4"/>
<polygon fill="#63b8ff" stroke="#63b8ff" points="181.07,-174.91 190.99,-171.17 180.9,-167.92 181.07,-174.91"/>
</a>
</g>
</g>
<!-- Node14&#45;&gt;Node3 -->
<g id="edge17_Node000014_Node000003" class="edge">
<title>Node14&#45;&gt;Node3</title>
<g id="a_edge17_Node000014_Node000003"><a xlink:title=" ">
<path fill="none" stroke="#63b8ff" d="M357.15,-260.81C349.38,-263.16 341.49,-265.89 334.25,-269 304.83,-281.62 273.53,-302.17 255.82,-314.56"/>
<polygon fill="#63b8ff" stroke="#63b8ff" points="357.86,-264.25 366.53,-258.15 355.96,-257.51 357.86,-264.25"/>
</a>
</g>
</g>
<!-- Node14&#45;&gt;Node11 -->
<g id="edge18_Node000014_Node000011" class="edge">
<title>Node14&#45;&gt;Node11</title>
<g id="a_edge18_Node000014_Node000011"><a xlink:title=" ">
<path fill="none" stroke="#63b8ff" d="M356.85,-239.23C300.34,-226.19 204.76,-204.12 140.59,-189.31"/>
<polygon fill="#63b8ff" stroke="#63b8ff" points="355.95,-242.62 366.48,-241.45 357.52,-235.79 355.95,-242.62"/>
</a>
</g>
</g>
<!-- Node15 -->
<g id="Node000015" class="node">
<title>Node15</title>
<g id="a_Node000015"><a xlink:href="classGameEngine_1_1Collision.html#a64427d8df75feb70d3039f2e376d7480" target="_top" xlink:title=" ">
<polygon fill="white" stroke="#666666" points="298.25,-268 182.5,-268 182.5,-236 298.25,-236 298.25,-268"/>
<text xml:space="preserve" text-anchor="start" x="190.5" y="-254.5" font-family="Helvetica,sans-Serif" font-size="10.00">GameEngine::Collision</text>
<text xml:space="preserve" text-anchor="middle" x="240.38" y="-242.5" font-family="Helvetica,sans-Serif" font-size="10.00">::collide</text>
</a>
</g>
</g>
<!-- Node14&#45;&gt;Node15 -->
<g id="edge15_Node000014_Node000015" class="edge">
<title>Node14&#45;&gt;Node15</title>
<g id="a_edge15_Node000014_Node000015"><a xlink:title=" ">
<path fill="none" stroke="#63b8ff" d="M356.47,-250.58C338.36,-250.8 317.49,-251.06 298.53,-251.29"/>
<polygon fill="#63b8ff" stroke="#63b8ff" points="356.45,-254.08 366.41,-250.46 356.37,-247.08 356.45,-254.08"/>
</a>
</g>
</g>
<!-- Node15&#45;&gt;Node5 -->
<g id="edge16_Node000015_Node000005" class="edge">
<title>Node15&#45;&gt;Node5</title>
<g id="a_edge16_Node000015_Node000005"><a xlink:title=" ">
<path fill="none" stroke="#63b8ff" d="M170.75,-240.36C157.67,-238.15 144.11,-235.85 131.44,-233.7"/>
<polygon fill="#63b8ff" stroke="#63b8ff" points="170.15,-243.81 180.59,-242.03 171.32,-236.91 170.15,-243.81"/>
</a>
</g>
</g>
<!-- Node17&#45;&gt;Node3 -->
<g id="edge21_Node000017_Node000003" class="edge">
<title>Node17&#45;&gt;Node3</title>
<g id="a_edge21_Node000017_Node000003"><a xlink:title=" ">
<path fill="none" stroke="#63b8ff" d="M356.1,-298.82C332.06,-304.3 303.22,-310.89 280.47,-316.08"/>
<polygon fill="#63b8ff" stroke="#63b8ff" points="356.67,-302.28 365.64,-296.64 355.11,-295.45 356.67,-302.28"/>
</a>
</g>
</g>
</g>
</svg>
