<?xml version="1.0" encoding="UTF-8" standalone="no"?>
<!DOCTYPE svg PUBLIC "-//W3C//DTD SVG 1.1//EN"
 "http://www.w3.org/Graphics/SVG/1.1/DTD/svg11.dtd">
<!-- Generated by graphviz version 14.0.1 (0)
 -->
<!-- Title: Registry::assurePool Pages: 1 -->
<svg width="424pt" height="110pt"
 viewBox="0.00 0.00 424.00 110.00" xmlns="http://www.w3.org/2000/svg" xmlns:xlink="http://www.w3.org/1999/xlink">
<g id="graph0" class="graph" transform="scale(1 1) rotate(0) translate(4 106)">
<title>Registry::assurePool</title>
<!-- Node1 -->
<g id="Node000001" class="node">
<title>Node1</title>
<g id="a_Node000001"><a xlink:title="Ensures that a component pool exists for the given component ID. Creates it if necessary.">
<polygon fill="#999999" stroke="#666666" points="416.25,-58 308.75,-58 308.75,-38 416.25,-38 416.25,-58"/>
<text xml:space="preserve" text-anchor="middle" x="362.5" y="-44.5" font-family="Helvetica,sans-Serif" font-size="10.00">Registry::assurePool</text>
</a>
</g>
</g>
<!-- Node2 -->
<g id="Node000002" class="node">
<title>Node2</title>
<g id="a_Node000002"><a xlink:href="classRegistry.html#a31cfb49fd633086383bf646b39a8daa2" target="_top" xlink:title="Iterates through all entities that have all the specified components.">
<polygon fill="white" stroke="#666666" points="264.88,-58 185.12,-58 185.12,-38 264.88,-38 264.88,-58"/>
<text xml:space="preserve" text-anchor="middle" x="225" y="-44.5" font-family="Helvetica,sans-Serif" font-size="10.00">Registry::each</text>
</a>
</g>
</g>
<!-- Node1&#45;&gt;Node2 -->
<g id="edge1_Node000001_Node000002" class="edge">
<title>Node1&#45;&gt;Node2</title>
<g id="a_edge1_Node000001_Node000002"><a xlink:title=" ">
<path fill="none" stroke="#63b8ff" d="M297.07,-48C286.18,-48 275.18,-48 265.19,-48"/>
<polygon fill="#63b8ff" stroke="#63b8ff" points="296.82,-51.5 306.82,-48 296.82,-44.5 296.82,-51.5"/>
</a>
</g>
</g>
<!-- Node5 -->
<g id="Node000005" class="node">
<title>Node5</title>
<g id="a_Node000005"><a xlink:href="classRegistry.html#ab12b0e856e109cd94af4aeb5e969de24" target="_top" xlink:title="Adds a new component of type Component to entity e.">
<polygon fill="white" stroke="#666666" points="272.75,-96 177.25,-96 177.25,-76 272.75,-76 272.75,-96"/>
<text xml:space="preserve" text-anchor="middle" x="225" y="-82.5" font-family="Helvetica,sans-Serif" font-size="10.00">Registry::emplace</text>
</a>
</g>
</g>
<!-- Node1&#45;&gt;Node5 -->
<g id="edge4_Node000001_Node000005" class="edge">
<title>Node1&#45;&gt;Node5</title>
<g id="a_edge4_Node000001_Node000005"><a xlink:title=" ">
<path fill="none" stroke="#63b8ff" d="M313.08,-61.58C296.69,-66.18 278.65,-71.23 263.26,-75.55"/>
<polygon fill="#63b8ff" stroke="#63b8ff" points="313.97,-64.96 322.66,-58.89 312.08,-58.22 313.97,-64.96"/>
</a>
</g>
</g>
<!-- Node6 -->
<g id="Node000006" class="node">
<title>Node6</title>
<g id="a_Node000006"><a xlink:href="classRegistry.html#a864a9feb3c9cffc43296ae8bb1aa2e3a" target="_top" xlink:title="Returns a reference to the SparseSet storing all components of type Component.">
<polygon fill="white" stroke="#666666" points="264.5,-20 185.5,-20 185.5,0 264.5,0 264.5,-20"/>
<text xml:space="preserve" text-anchor="middle" x="225" y="-6.5" font-family="Helvetica,sans-Serif" font-size="10.00">Registry::view</text>
</a>
</g>
</g>
<!-- Node1&#45;&gt;Node6 -->
<g id="edge6_Node000001_Node000006" class="edge">
<title>Node1&#45;&gt;Node6</title>
<g id="a_edge6_Node000001_Node000006"><a xlink:title=" ">
<path fill="none" stroke="#63b8ff" d="M313.08,-34.42C296.69,-29.82 278.65,-24.77 263.26,-20.45"/>
<polygon fill="#63b8ff" stroke="#63b8ff" points="312.08,-37.78 322.66,-37.11 313.97,-31.04 312.08,-37.78"/>
</a>
</g>
</g>
<!-- Node3 -->
<g id="Node000003" class="node">
<title>Node3</title>
<g id="a_Node000003"><a xlink:href="classGameEngine_1_1InputHandlerSystem.html#a56d9f3bab8680fee7d15423028e046b9" target="_top" xlink:title=" ">
<polygon fill="white" stroke="#666666" points="137.5,-102 3.75,-102 3.75,-70 137.5,-70 137.5,-102"/>
<text xml:space="preserve" text-anchor="start" x="11.75" y="-88.5" font-family="Helvetica,sans-Serif" font-size="10.00">GameEngine::InputHandler</text>
<text xml:space="preserve" text-anchor="middle" x="70.62" y="-76.5" font-family="Helvetica,sans-Serif" font-size="10.00">System::onUpdate</text>
</a>
</g>
</g>
<!-- Node2&#45;&gt;Node3 -->
<g id="edge2_Node000002_Node000003" class="edge">
<title>Node2&#45;&gt;Node3</title>
<g id="a_edge2_Node000002_Node000003"><a xlink:title=" ">
<path fill="none" stroke="#63b8ff" d="M173.59,-60.57C162.08,-63.44 149.68,-66.53 137.63,-69.54"/>
<polygon fill="#63b8ff" stroke="#63b8ff" points="174.44,-63.97 183.29,-58.15 172.74,-57.18 174.44,-63.97"/>
</a>
</g>
</g>
<!-- Node4 -->
<g id="Node000004" class="node">
<title>Node4</title>
<g id="a_Node000004"><a xlink:href="classGameEngine_1_1MotionSystem.html#a5c82b0f76ecf7fdef391014a16bd06fb" target="_top" xlink:title=" ">
<polygon fill="white" stroke="#666666" points="141.25,-52 0,-52 0,-20 141.25,-20 141.25,-52"/>
<text xml:space="preserve" text-anchor="start" x="8" y="-38.5" font-family="Helvetica,sans-Serif" font-size="10.00">GameEngine::MotionSystem</text>
<text xml:space="preserve" text-anchor="middle" x="70.62" y="-26.5" font-family="Helvetica,sans-Serif" font-size="10.00">::onUpdate</text>
</a>
</g>
</g>
<!-- Node2&#45;&gt;Node4 -->
<g id="edge3_Node000002_Node000004" class="edge">
<title>Node2&#45;&gt;Node4</title>
<g id="a_edge3_Node000002_Node000004"><a xlink:title=" ">
<path fill="none" stroke="#63b8ff" d="M173.52,-44.02C163.25,-43.22 152.28,-42.35 141.48,-41.5"/>
<polygon fill="#63b8ff" stroke="#63b8ff" points="173.01,-47.49 183.25,-44.79 173.56,-40.52 173.01,-47.49"/>
</a>
</g>
</g>
<!-- Node5&#45;&gt;Node3 -->
<g id="edge5_Node000005_Node000003" class="edge">
<title>Node5&#45;&gt;Node3</title>
<g id="a_edge5_Node000005_Node000003"><a xlink:title=" ">
<path fill="none" stroke="#63b8ff" d="M165.7,-86C156.56,-86 147.06,-86 137.76,-86"/>
<polygon fill="#63b8ff" stroke="#63b8ff" points="165.53,-89.5 175.53,-86 165.53,-82.5 165.53,-89.5"/>
</a>
</g>
</g>
</g>
</svg>
