<?xml version="1.0" encoding="UTF-8" standalone="no"?>
<!DOCTYPE svg PUBLIC "-//W3C//DTD SVG 1.1//EN"
 "http://www.w3.org/Graphics/SVG/1.1/DTD/svg11.dtd">
<!-- Generated by graphviz version 14.0.1 (0)
 -->
<!-- Title: GameEngine::InputHandlerSystem::onUpdate Pages: 1 -->
<svg width="821pt" height="389pt"
 viewBox="0.00 0.00 821.00 389.00" xmlns="http://www.w3.org/2000/svg" xmlns:xlink="http://www.w3.org/1999/xlink">
<g id="graph0" class="graph" transform="scale(1 1) rotate(0) translate(4 385.3)">
<title>GameEngine::InputHandlerSystem::onUpdate</title>
<!-- Node1 -->
<g id="Node000001" class="node">
<title>Node1</title>
<g id="a_Node000001"><a xlink:title="Processes input for all entities and updates their acceleration or triggers actions.">
<polygon fill="#999999" stroke="#666666" points="133.75,-238 0,-238 0,-206 133.75,-206 133.75,-238"/>
<text xml:space="preserve" text-anchor="start" x="8" y="-224.5" font-family="Helvetica,sans-Serif" font-size="10.00">GameEngine::InputHandler</text>
<text xml:space="preserve" text-anchor="middle" x="66.88" y="-212.5" font-family="Helvetica,sans-Serif" font-size="10.00">System::onUpdate</text>
</a>
</g>
</g>
<!-- Node2 -->
<g id="Node000002" class="node">
<title>Node2</title>
<g id="a_Node000002"><a xlink:href="classRegistry.html#ac21e496215b081569cfc303e1a4c0b10" target="_top" xlink:title="Creates a new entity.">
<polygon fill="white" stroke="#666666" points="286.62,-308 200.88,-308 200.88,-288 286.62,-288 286.62,-308"/>
<text xml:space="preserve" text-anchor="middle" x="243.75" y="-294.5" font-family="Helvetica,sans-Serif" font-size="10.00">Registry::create</text>
</a>
</g>
</g>
<!-- Node1&#45;&gt;Node2 -->
<g id="edge1_Node000001_Node000002" class="edge">
<title>Node1&#45;&gt;Node2</title>
<g id="a_edge1_Node000001_Node000002"><a xlink:title=" ">
<path fill="none" stroke="#63b8ff" d="M97.17,-238.48C117.23,-249.38 144.64,-263.54 169.75,-274 178.33,-277.58 187.65,-280.98 196.66,-284.05"/>
<polygon fill="#63b8ff" stroke="#63b8ff" points="195.41,-287.32 206.01,-287.13 197.61,-280.67 195.41,-287.32"/>
</a>
</g>
</g>
<!-- Node3 -->
<g id="Node000003" class="node">
<title>Node3</title>
<g id="a_Node000003"><a xlink:href="classRegistry.html#a31cfb49fd633086383bf646b39a8daa2" target="_top" xlink:title="Iterates through all entities that have all the specified components.">
<polygon fill="white" stroke="#666666" points="283.62,-232 203.88,-232 203.88,-212 283.62,-212 283.62,-232"/>
<text xml:space="preserve" text-anchor="middle" x="243.75" y="-218.5" font-family="Helvetica,sans-Serif" font-size="10.00">Registry::each</text>
</a>
</g>
</g>
<!-- Node1&#45;&gt;Node3 -->
<g id="edge2_Node000001_Node000003" class="edge">
<title>Node1&#45;&gt;Node3</title>
<g id="a_edge2_Node000001_Node000003"><a xlink:title=" ">
<path fill="none" stroke="#63b8ff" d="M133.99,-222C153.19,-222 173.85,-222 191.95,-222"/>
<polygon fill="#63b8ff" stroke="#63b8ff" points="191.93,-225.5 201.93,-222 191.93,-218.5 191.93,-225.5"/>
</a>
</g>
</g>
<!-- Node5 -->
<g id="Node000005" class="node">
<title>Node5</title>
<g id="a_Node000005"><a xlink:href="classRegistry.html#a11f1e4d7d7ef1a84640adddf32c1f862" target="_top" xlink:title="Gets a reference to a component of type Component for entity e.">
<polygon fill="white" stroke="#666666" points="474.38,-348 402.12,-348 402.12,-328 474.38,-328 474.38,-348"/>
<text xml:space="preserve" text-anchor="middle" x="438.25" y="-334.5" font-family="Helvetica,sans-Serif" font-size="10.00">Registry::get</text>
</a>
</g>
</g>
<!-- Node1&#45;&gt;Node5 -->
<g id="edge21_Node000001_Node000005" class="edge">
<title>Node1&#45;&gt;Node5</title>
<g id="a_edge21_Node000001_Node000005"><a xlink:title=" ">
<path fill="none" stroke="#63b8ff" d="M134.15,-234.96C202.7,-248.71 301.92,-269.7 317.75,-279 338.37,-291.11 333.12,-306.89 353.75,-319 364.84,-325.51 377.97,-329.79 390.5,-332.61"/>
<polygon fill="#63b8ff" stroke="#63b8ff" points="389.79,-336.03 400.27,-334.51 391.12,-329.16 389.79,-336.03"/>
</a>
</g>
</g>
<!-- Node13 -->
<g id="Node000013" class="node">
<title>Node13</title>
<g id="a_Node000013"><a xlink:href="classRegistry.html#ab12b0e856e109cd94af4aeb5e969de24" target="_top" xlink:title="Adds a new component of type Component to entity e.">
<polygon fill="white" stroke="#666666" points="291.5,-115 196,-115 196,-95 291.5,-95 291.5,-115"/>
<text xml:space="preserve" text-anchor="middle" x="243.75" y="-101.5" font-family="Helvetica,sans-Serif" font-size="10.00">Registry::emplace</text>
</a>
</g>
</g>
<!-- Node1&#45;&gt;Node13 -->
<g id="edge16_Node000001_Node000013" class="edge">
<title>Node1&#45;&gt;Node13</title>
<g id="a_edge16_Node000001_Node000013"><a xlink:title=" ">
<path fill="none" stroke="#63b8ff" d="M92.19,-205.73C125.36,-183.54 184.48,-143.98 217.92,-121.61"/>
<polygon fill="#63b8ff" stroke="#63b8ff" points="219.79,-124.57 226.15,-116.1 215.9,-118.75 219.79,-124.57"/>
</a>
</g>
</g>
<!-- Node15 -->
<g id="Node000015" class="node">
<title>Node15</title>
<g id="a_Node000015"><a xlink:href="classSystem.html#ac7b716e6d41ff508ad2d8e5dad655d72" target="_top" xlink:title=" ">
<polygon fill="white" stroke="#666666" points="317.75,-77 169.75,-77 169.75,-45 317.75,-45 317.75,-77"/>
<text xml:space="preserve" text-anchor="start" x="177.75" y="-63.5" font-family="Helvetica,sans-Serif" font-size="10.00">System&lt; InputHandlerSystem</text>
<text xml:space="preserve" text-anchor="middle" x="243.75" y="-51.5" font-family="Helvetica,sans-Serif" font-size="10.00"> &gt;::Registry</text>
</a>
</g>
</g>
<!-- Node1&#45;&gt;Node15 -->
<g id="edge22_Node000001_Node000015" class="edge">
<title>Node1&#45;&gt;Node15</title>
<g id="a_edge22_Node000001_Node000015"><a xlink:title=" ">
<path fill="none" stroke="#63b8ff" d="M75.89,-205.67C90.62,-177.3 124.66,-118.8 169.75,-86 171.28,-84.89 172.86,-83.83 174.48,-82.81"/>
<polygon fill="#63b8ff" stroke="#63b8ff" points="175.79,-86.08 182.84,-78.18 172.4,-79.96 175.79,-86.08"/>
</a>
</g>
</g>
<!-- Node4 -->
<g id="Node000004" class="node">
<title>Node4</title>
<g id="a_Node000004"><a xlink:href="classRegistry.html#acd4bfce3db63792e03b353900dc89f76" target="_top" xlink:title="Ensures that a component pool exists for the given component ID. Creates it if necessary.">
<polygon fill="white" stroke="#666666" points="492,-134 384.5,-134 384.5,-114 492,-114 492,-134"/>
<text xml:space="preserve" text-anchor="middle" x="438.25" y="-120.5" font-family="Helvetica,sans-Serif" font-size="10.00">Registry::assurePool</text>
</a>
</g>
</g>
<!-- Node3&#45;&gt;Node4 -->
<g id="edge3_Node000003_Node000004" class="edge">
<title>Node3&#45;&gt;Node4</title>
<g id="a_edge3_Node000003_Node000004"><a xlink:title=" ">
<path fill="none" stroke="#63b8ff" d="M257.04,-211.71C276.43,-195.94 315.85,-165.76 353.75,-148 362.1,-144.09 371.23,-140.67 380.28,-137.75"/>
<polygon fill="#63b8ff" stroke="#63b8ff" points="381.23,-141.11 389.78,-134.85 379.19,-134.42 381.23,-141.11"/>
</a>
</g>
</g>
<!-- Node3&#45;&gt;Node5 -->
<g id="edge4_Node000003_Node000005" class="edge">
<title>Node3&#45;&gt;Node5</title>
<g id="a_edge4_Node000003_Node000005"><a xlink:title=" ">
<path fill="none" stroke="#63b8ff" d="M284.08,-228.79C295.92,-232.36 308.28,-237.78 317.75,-246 345.06,-269.72 325.35,-296.59 353.75,-319 364.22,-327.26 377.61,-332.07 390.58,-334.83"/>
<polygon fill="#63b8ff" stroke="#63b8ff" points="389.85,-338.25 400.3,-336.5 391.04,-331.35 389.85,-338.25"/>
</a>
</g>
</g>
<!-- Node6 -->
<g id="Node000006" class="node">
<title>Node6</title>
<g id="a_Node000006"><a xlink:href="classComponentRegistry.html#a4d993c2bab87c6bdac36ba8f589eca5f" target="_top" xlink:title="Retrieves or creates a unique ID for the given component type T.">
<polygon fill="white" stroke="#666666" points="667.75,-310 558.75,-310 558.75,-278 667.75,-278 667.75,-310"/>
<text xml:space="preserve" text-anchor="start" x="566.75" y="-296.5" font-family="Helvetica,sans-Serif" font-size="10.00">ComponentRegistry::</text>
<text xml:space="preserve" text-anchor="middle" x="613.25" y="-284.5" font-family="Helvetica,sans-Serif" font-size="10.00">getOrCreateID</text>
</a>
</g>
</g>
<!-- Node3&#45;&gt;Node6 -->
<g id="edge10_Node000003_Node000006" class="edge">
<title>Node3&#45;&gt;Node6</title>
<g id="a_edge10_Node000003_Node000006"><a xlink:title=" ">
<path fill="none" stroke="#63b8ff" d="M262.64,-232.49C278.77,-242.69 302.27,-259.47 317.75,-279 341.46,-308.92 321.59,-336.42 353.75,-357 417.02,-397.48 451.14,-379.68 522.75,-357 547.05,-349.3 570.46,-332.37 587.24,-318"/>
<polygon fill="#63b8ff" stroke="#63b8ff" points="589.56,-320.62 594.71,-311.36 584.91,-315.39 589.56,-320.62"/>
</a>
</g>
</g>
<!-- Node8 -->
<g id="Node000008" class="node">
<title>Node8</title>
<g id="a_Node000008"><a xlink:href="classComponentRegistry.html#a18cad5dda10f4bb28fb6933f5aa85fce" target="_top" xlink:title="Provides access to the global ComponentRegistry instance.">
<polygon fill="white" stroke="#666666" points="667.75,-197 558.75,-197 558.75,-165 667.75,-165 667.75,-197"/>
<text xml:space="preserve" text-anchor="start" x="566.75" y="-183.5" font-family="Helvetica,sans-Serif" font-size="10.00">ComponentRegistry::</text>
<text xml:space="preserve" text-anchor="middle" x="613.25" y="-171.5" font-family="Helvetica,sans-Serif" font-size="10.00">instance</text>
</a>
</g>
</g>
<!-- Node3&#45;&gt;Node8 -->
<g id="edge14_Node000003_Node000008" class="edge">
<title>Node3&#45;&gt;Node8</title>
<g id="a_edge14_Node000003_Node000008"><a xlink:title=" ">
<path fill="none" stroke="#63b8ff" d="M265.41,-211.66C286.87,-201.54 321.72,-186.82 353.75,-181 418.74,-169.18 494.46,-170.95 547.08,-174.6"/>
<polygon fill="#63b8ff" stroke="#63b8ff" points="546.54,-178.06 556.77,-175.31 547.05,-171.08 546.54,-178.06"/>
</a>
</g>
</g>
<!-- Node10 -->
<g id="Node000010" class="node">
<title>Node10</title>
<g id="a_Node000010"><a xlink:href="structRegistry_1_1IComponentPool.html#ad4a1001874d3ea8f343fbbcf4988c507" target="_top" xlink:title=" ">
<polygon fill="white" stroke="#666666" points="504,-260 372.5,-260 372.5,-228 504,-228 504,-260"/>
<text xml:space="preserve" text-anchor="start" x="380.5" y="-246.5" font-family="Helvetica,sans-Serif" font-size="10.00">Registry::IComponentPool</text>
<text xml:space="preserve" text-anchor="middle" x="438.25" y="-234.5" font-family="Helvetica,sans-Serif" font-size="10.00">::getEntityAt</text>
</a>
</g>
</g>
<!-- Node3&#45;&gt;Node10 -->
<g id="edge9_Node000003_Node000010" class="edge">
<title>Node3&#45;&gt;Node10</title>
<g id="a_edge9_Node000003_Node000010"><a xlink:title=" ">
<path fill="none" stroke="#63b8ff" d="M283.71,-226.45C305.91,-228.99 334.51,-232.26 361,-235.29"/>
<polygon fill="#63b8ff" stroke="#63b8ff" points="360.36,-238.74 370.7,-236.39 361.16,-231.78 360.36,-238.74"/>
</a>
</g>
</g>
<!-- Node11 -->
<g id="Node000011" class="node">
<title>Node11</title>
<g id="a_Node000011"><a xlink:href="classRegistry.html#acac1f1c8a740cfeb2b33a32cfd6ad83f" target="_top" xlink:title="Checks if entity e has a component of type Component.">
<polygon fill="white" stroke="#666666" points="475.5,-210 401,-210 401,-190 475.5,-190 475.5,-210"/>
<text xml:space="preserve" text-anchor="middle" x="438.25" y="-196.5" font-family="Helvetica,sans-Serif" font-size="10.00">Registry::has</text>
</a>
</g>
</g>
<!-- Node3&#45;&gt;Node11 -->
<g id="edge11_Node000003_Node000011" class="edge">
<title>Node3&#45;&gt;Node11</title>
<g id="a_edge11_Node000003_Node000011"><a xlink:title=" ">
<path fill="none" stroke="#63b8ff" d="M283.71,-217.55C314.27,-214.06 356.95,-209.18 389.56,-205.45"/>
<polygon fill="#63b8ff" stroke="#63b8ff" points="389.59,-208.97 399.13,-204.36 388.8,-202.01 389.59,-208.97"/>
</a>
</g>
</g>
<!-- Node12 -->
<g id="Node000012" class="node">
<title>Node12</title>
<g id="a_Node000012"><a xlink:href="structRegistry_1_1IComponentPool.html#af60edba4f576e1c34ed07f6dd4e9348b" target="_top" xlink:title=" ">
<polygon fill="white" stroke="#666666" points="504,-310 372.5,-310 372.5,-278 504,-278 504,-310"/>
<text xml:space="preserve" text-anchor="start" x="380.5" y="-296.5" font-family="Helvetica,sans-Serif" font-size="10.00">Registry::IComponentPool</text>
<text xml:space="preserve" text-anchor="middle" x="438.25" y="-284.5" font-family="Helvetica,sans-Serif" font-size="10.00">::size</text>
</a>
</g>
</g>
<!-- Node3&#45;&gt;Node12 -->
<g id="edge15_Node000003_Node000012" class="edge">
<title>Node3&#45;&gt;Node12</title>
<g id="a_edge15_Node000003_Node000012"><a xlink:title=" ">
<path fill="none" stroke="#63b8ff" d="M282.59,-232.45C294.11,-236.16 306.66,-240.74 317.75,-246 334.9,-254.14 336.49,-261.09 353.75,-269 357.3,-270.63 360.98,-272.18 364.72,-273.65"/>
<polygon fill="#63b8ff" stroke="#63b8ff" points="363.41,-276.9 374,-277.09 365.84,-270.33 363.41,-276.9"/>
</a>
</g>
</g>
<!-- Node5&#45;&gt;Node6 -->
<g id="edge5_Node000005_Node000006" class="edge">
<title>Node5&#45;&gt;Node6</title>
<g id="a_edge5_Node000005_Node000006"><a xlink:title=" ">
<path fill="none" stroke="#63b8ff" d="M474.69,-330.34C489.57,-327.01 507.04,-322.98 522.75,-319 530.8,-316.96 539.22,-314.73 547.55,-312.47"/>
<polygon fill="#63b8ff" stroke="#63b8ff" points="548.23,-315.92 556.95,-309.9 546.38,-309.17 548.23,-315.92"/>
</a>
</g>
</g>
<!-- Node5&#45;&gt;Node8 -->
<g id="edge7_Node000005_Node000008" class="edge">
<title>Node5&#45;&gt;Node8</title>
<g id="a_edge7_Node000005_Node000008"><a xlink:title=" ">
<path fill="none" stroke="#63b8ff" d="M474.58,-335.97C490.46,-333.62 508.73,-328.79 522.75,-319 533.4,-311.57 574.1,-245.02 596.77,-207.13"/>
<polygon fill="#63b8ff" stroke="#63b8ff" points="599.76,-208.95 601.87,-198.57 593.74,-205.37 599.76,-208.95"/>
</a>
</g>
</g>
<!-- Node7 -->
<g id="Node000007" class="node">
<title>Node7</title>
<g id="a_Node000007"><a xlink:href="classComponentRegistry.html#ab1cc8a486cae16a19268264c69f9af80" target="_top" xlink:title="Computes a new unique ID for a type T, or returns the existing one.">
<polygon fill="white" stroke="#666666" points="812.75,-310 703.75,-310 703.75,-278 812.75,-278 812.75,-310"/>
<text xml:space="preserve" text-anchor="start" x="711.75" y="-296.5" font-family="Helvetica,sans-Serif" font-size="10.00">ComponentRegistry::</text>
<text xml:space="preserve" text-anchor="middle" x="758.25" y="-284.5" font-family="Helvetica,sans-Serif" font-size="10.00">computeID</text>
</a>
</g>
</g>
<!-- Node6&#45;&gt;Node7 -->
<g id="edge6_Node000006_Node000007" class="edge">
<title>Node6&#45;&gt;Node7</title>
<g id="a_edge6_Node000006_Node000007"><a xlink:title=" ">
<path fill="none" stroke="#63b8ff" d="M667.9,-294C675.77,-294 683.94,-294 692.01,-294"/>
<polygon fill="#63b8ff" stroke="#63b8ff" points="691.78,-297.5 701.78,-294 691.78,-290.5 691.78,-297.5"/>
</a>
</g>
</g>
<!-- Node9 -->
<g id="Node000009" class="node">
<title>Node9</title>
<g id="a_Node000009"><a xlink:href="classComponentRegistry.html#a3bbfefb19e284845afb80ce0a4dd739a" target="_top" xlink:title="Private constructor for singleton pattern. Initializes internal containers with reserved capacity.">
<polygon fill="white" stroke="#666666" points="812.75,-197 703.75,-197 703.75,-165 812.75,-165 812.75,-197"/>
<text xml:space="preserve" text-anchor="start" x="711.75" y="-183.5" font-family="Helvetica,sans-Serif" font-size="10.00">ComponentRegistry::</text>
<text xml:space="preserve" text-anchor="middle" x="758.25" y="-171.5" font-family="Helvetica,sans-Serif" font-size="10.00">ComponentRegistry</text>
</a>
</g>
</g>
<!-- Node8&#45;&gt;Node9 -->
<g id="edge8_Node000008_Node000009" class="edge">
<title>Node8&#45;&gt;Node9</title>
<g id="a_edge8_Node000008_Node000009"><a xlink:title=" ">
<path fill="none" stroke="#63b8ff" d="M667.9,-181C675.77,-181 683.94,-181 692.01,-181"/>
<polygon fill="#63b8ff" stroke="#63b8ff" points="691.78,-184.5 701.78,-181 691.78,-177.5 691.78,-184.5"/>
</a>
</g>
</g>
<!-- Node11&#45;&gt;Node6 -->
<g id="edge12_Node000011_Node000006" class="edge">
<title>Node11&#45;&gt;Node6</title>
<g id="a_edge12_Node000011_Node000006"><a xlink:title=" ">
<path fill="none" stroke="#63b8ff" d="M475.87,-204.47C490.94,-207.28 508.23,-211.8 522.75,-219 548.34,-231.7 572.88,-253.15 589.77,-269.86"/>
<polygon fill="#63b8ff" stroke="#63b8ff" points="586.85,-271.88 596.36,-276.55 591.84,-266.97 586.85,-271.88"/>
</a>
</g>
</g>
<!-- Node11&#45;&gt;Node8 -->
<g id="edge13_Node000011_Node000008" class="edge">
<title>Node11&#45;&gt;Node8</title>
<g id="a_edge13_Node000011_Node000008"><a xlink:title=" ">
<path fill="none" stroke="#63b8ff" d="M475.94,-195.97C496.66,-193.69 523.17,-190.78 547.29,-188.13"/>
<polygon fill="#63b8ff" stroke="#63b8ff" points="547.47,-191.64 557.03,-187.06 546.71,-184.68 547.47,-191.64"/>
</a>
</g>
</g>
<!-- Node13&#45;&gt;Node4 -->
<g id="edge17_Node000013_Node000004" class="edge">
<title>Node13&#45;&gt;Node4</title>
<g id="a_edge17_Node000013_Node000004"><a xlink:title=" ">
<path fill="none" stroke="#63b8ff" d="M291.84,-109.65C316.29,-112.06 346.52,-115.04 373.07,-117.67"/>
<polygon fill="#63b8ff" stroke="#63b8ff" points="372.39,-121.12 382.69,-118.61 373.08,-114.15 372.39,-121.12"/>
</a>
</g>
</g>
<!-- Node13&#45;&gt;Node6 -->
<g id="edge18_Node000013_Node000006" class="edge">
<title>Node13&#45;&gt;Node6</title>
<g id="a_edge18_Node000013_Node000006"><a xlink:title=" ">
<path fill="none" stroke="#63b8ff" d="M291.72,-98.69C361.14,-90.4 486.81,-79.65 522.75,-105 561.7,-132.46 538.27,-162.97 558.75,-206 569.16,-227.86 583.53,-251.22 594.75,-268.37"/>
<polygon fill="#63b8ff" stroke="#63b8ff" points="591.66,-270.04 600.11,-276.44 597.49,-266.17 591.66,-270.04"/>
</a>
</g>
</g>
<!-- Node13&#45;&gt;Node8 -->
<g id="edge19_Node000013_Node000008" class="edge">
<title>Node13&#45;&gt;Node8</title>
<g id="a_edge19_Node000013_Node000008"><a xlink:title=" ">
<path fill="none" stroke="#63b8ff" d="M288.22,-94.57C298,-91.98 308.28,-89.06 317.75,-86 334.08,-80.72 336.88,-75.17 353.75,-72 427.57,-58.15 454.85,-39.89 522.75,-72 558.55,-88.93 584.83,-127.96 599.34,-154.42"/>
<polygon fill="#63b8ff" stroke="#63b8ff" points="596.21,-155.99 603.96,-163.21 602.4,-152.73 596.21,-155.99"/>
</a>
</g>
</g>
<!-- Node14 -->
<g id="Node000014" class="node">
<title>Node14</title>
<g id="a_Node000014"><a xlink:href="classRegistry.html#a45f5c5548ea374a04a46308b2e1c5455" target="_top" xlink:title="Updates which systems are active based on available component types.">
<polygon fill="white" stroke="#666666" points="522.75,-20 353.75,-20 353.75,0 522.75,0 522.75,-20"/>
<text xml:space="preserve" text-anchor="middle" x="438.25" y="-6.5" font-family="Helvetica,sans-Serif" font-size="10.00">Registry::updateSystemAvailability</text>
</a>
</g>
</g>
<!-- Node13&#45;&gt;Node14 -->
<g id="edge20_Node000013_Node000014" class="edge">
<title>Node13&#45;&gt;Node14</title>
<g id="a_edge20_Node000013_Node000014"><a xlink:title=" ">
<path fill="none" stroke="#63b8ff" d="M291.7,-98.03C300.87,-95.27 310.02,-91.4 317.75,-86 340.79,-69.9 330.91,-50.39 353.75,-34 358.8,-30.37 364.4,-27.29 370.23,-24.67"/>
<polygon fill="#63b8ff" stroke="#63b8ff" points="371.49,-27.94 379.5,-21 368.91,-21.43 371.49,-27.94"/>
</a>
</g>
</g>
</g>
</svg>
