<?xml version="1.0" encoding="UTF-8" standalone="no"?>
<!DOCTYPE svg PUBLIC "-//W3C//DTD SVG 1.1//EN"
 "http://www.w3.org/Graphics/SVG/1.1/DTD/svg11.dtd">
<!-- Generated by graphviz version 14.0.1 (0)
 -->
<!-- Title: GameEngine::DomainHandler::onUpdate Pages: 1 -->
<svg width="774pt" height="280pt"
 viewBox="0.00 0.00 774.00 280.00" xmlns="http://www.w3.org/2000/svg" xmlns:xlink="http://www.w3.org/1999/xlink">
<g id="graph0" class="graph" transform="scale(1 1) rotate(0) translate(4 276)">
<title>GameEngine::DomainHandler::onUpdate</title>
<!-- Node1 -->
<g id="Node000001" class="node">
<title>Node1</title>
<g id="a_Node000001"><a xlink:title="Updates the system, checking entity positions against their domain boundaries.">
<polygon fill="#999999" stroke="#666666" points="145.75,-164 0,-164 0,-132 145.75,-132 145.75,-164"/>
<text xml:space="preserve" text-anchor="start" x="8" y="-150.5" font-family="Helvetica,sans-Serif" font-size="10.00">GameEngine::DomainHandler</text>
<text xml:space="preserve" text-anchor="middle" x="72.88" y="-138.5" font-family="Helvetica,sans-Serif" font-size="10.00">::onUpdate</text>
</a>
</g>
</g>
<!-- Node2 -->
<g id="Node000002" class="node">
<title>Node2</title>
<g id="a_Node000002"><a xlink:href="classRegistry.html#ae620740b0c598d102a93703b3a8062fc" target="_top" xlink:title="Destroys an entity and removes all its components.">
<polygon fill="white" stroke="#666666" points="290.38,-196 199.38,-196 199.38,-176 290.38,-176 290.38,-196"/>
<text xml:space="preserve" text-anchor="middle" x="244.88" y="-182.5" font-family="Helvetica,sans-Serif" font-size="10.00">Registry::destroy</text>
</a>
</g>
</g>
<!-- Node1&#45;&gt;Node2 -->
<g id="edge1_Node000001_Node000002" class="edge">
<title>Node1&#45;&gt;Node2</title>
<g id="a_edge1_Node000001_Node000002"><a xlink:title=" ">
<path fill="none" stroke="#63b8ff" d="M145.97,-164.12C160.11,-167.28 174.74,-170.55 188.24,-173.56"/>
<polygon fill="#63b8ff" stroke="#63b8ff" points="187.28,-176.94 197.8,-175.7 188.81,-170.1 187.28,-176.94"/>
</a>
</g>
</g>
<!-- Node3 -->
<g id="Node000003" class="node">
<title>Node3</title>
<g id="a_Node000003"><a xlink:href="classRegistry.html#a31cfb49fd633086383bf646b39a8daa2" target="_top" xlink:title="Iterates through all entities that have all the specified components.">
<polygon fill="white" stroke="#666666" points="284.75,-158 205,-158 205,-138 284.75,-138 284.75,-158"/>
<text xml:space="preserve" text-anchor="middle" x="244.88" y="-144.5" font-family="Helvetica,sans-Serif" font-size="10.00">Registry::each</text>
</a>
</g>
</g>
<!-- Node1&#45;&gt;Node3 -->
<g id="edge2_Node000001_Node000003" class="edge">
<title>Node1&#45;&gt;Node3</title>
<g id="a_edge2_Node000001_Node000003"><a xlink:title=" ">
<path fill="none" stroke="#63b8ff" d="M145.97,-148C161.82,-148 178.29,-148 193.09,-148"/>
<polygon fill="#63b8ff" stroke="#63b8ff" points="193.05,-151.5 203.05,-148 193.05,-144.5 193.05,-151.5"/>
</a>
</g>
</g>
<!-- Node13 -->
<g id="Node000013" class="node">
<title>Node13</title>
<g id="a_Node000013"><a xlink:href="classSystem.html#ac7b716e6d41ff508ad2d8e5dad655d72" target="_top" xlink:title=" ">
<polygon fill="white" stroke="#666666" points="308,-120 181.75,-120 181.75,-88 308,-88 308,-120"/>
<text xml:space="preserve" text-anchor="start" x="189.75" y="-106.5" font-family="Helvetica,sans-Serif" font-size="10.00">System&lt; DomainHandler</text>
<text xml:space="preserve" text-anchor="middle" x="244.88" y="-94.5" font-family="Helvetica,sans-Serif" font-size="10.00"> &gt;::Registry</text>
</a>
</g>
</g>
<!-- Node1&#45;&gt;Node13 -->
<g id="edge16_Node000001_Node000013" class="edge">
<title>Node1&#45;&gt;Node13</title>
<g id="a_edge16_Node000001_Node000013"><a xlink:title=" ">
<path fill="none" stroke="#63b8ff" d="M137.18,-131.62C148.01,-128.81 159.35,-125.88 170.42,-123.01"/>
<polygon fill="#63b8ff" stroke="#63b8ff" points="171.1,-126.45 179.9,-120.56 169.35,-119.67 171.1,-126.45"/>
</a>
</g>
</g>
<!-- Node4 -->
<g id="Node000004" class="node">
<title>Node4</title>
<g id="a_Node000004"><a xlink:href="classRegistry.html#acd4bfce3db63792e03b353900dc89f76" target="_top" xlink:title="Ensures that a component pool exists for the given component ID. Creates it if necessary.">
<polygon fill="white" stroke="#666666" points="463.5,-272 356,-272 356,-252 463.5,-252 463.5,-272"/>
<text xml:space="preserve" text-anchor="middle" x="409.75" y="-258.5" font-family="Helvetica,sans-Serif" font-size="10.00">Registry::assurePool</text>
</a>
</g>
</g>
<!-- Node3&#45;&gt;Node4 -->
<g id="edge3_Node000003_Node000004" class="edge">
<title>Node3&#45;&gt;Node4</title>
<g id="a_edge3_Node000003_Node000004"><a xlink:title=" ">
<path fill="none" stroke="#63b8ff" d="M285.09,-154.79C293.3,-157.57 301.44,-161.48 308,-167 335.08,-189.77 317.59,-214.45 344,-238 347.72,-241.32 351.95,-244.2 356.41,-246.68"/>
<polygon fill="#63b8ff" stroke="#63b8ff" points="354.58,-249.68 365.11,-250.87 357.62,-243.38 354.58,-249.68"/>
</a>
</g>
</g>
<!-- Node5 -->
<g id="Node000005" class="node">
<title>Node5</title>
<g id="a_Node000005"><a xlink:href="classRegistry.html#a11f1e4d7d7ef1a84640adddf32c1f862" target="_top" xlink:title="Gets a reference to a component of type Component for entity e.">
<polygon fill="white" stroke="#666666" points="445.88,-158 373.62,-158 373.62,-138 445.88,-138 445.88,-158"/>
<text xml:space="preserve" text-anchor="middle" x="409.75" y="-144.5" font-family="Helvetica,sans-Serif" font-size="10.00">Registry::get</text>
</a>
</g>
</g>
<!-- Node3&#45;&gt;Node5 -->
<g id="edge4_Node000003_Node000005" class="edge">
<title>Node3&#45;&gt;Node5</title>
<g id="a_edge4_Node000003_Node000005"><a xlink:title=" ">
<path fill="none" stroke="#63b8ff" d="M284.89,-148C308.12,-148 337.75,-148 362.21,-148"/>
<polygon fill="#63b8ff" stroke="#63b8ff" points="361.87,-151.5 371.87,-148 361.87,-144.5 361.87,-151.5"/>
</a>
</g>
</g>
<!-- Node6 -->
<g id="Node000006" class="node">
<title>Node6</title>
<g id="a_Node000006"><a xlink:href="classComponentRegistry.html#a4d993c2bab87c6bdac36ba8f589eca5f" target="_top" xlink:title="Retrieves or creates a unique ID for the given component type T.">
<polygon fill="white" stroke="#666666" points="620.5,-208 511.5,-208 511.5,-176 620.5,-176 620.5,-208"/>
<text xml:space="preserve" text-anchor="start" x="519.5" y="-194.5" font-family="Helvetica,sans-Serif" font-size="10.00">ComponentRegistry::</text>
<text xml:space="preserve" text-anchor="middle" x="566" y="-182.5" font-family="Helvetica,sans-Serif" font-size="10.00">getOrCreateID</text>
</a>
</g>
</g>
<!-- Node3&#45;&gt;Node6 -->
<g id="edge10_Node000003_Node000006" class="edge">
<title>Node3&#45;&gt;Node6</title>
<g id="a_edge10_Node000003_Node000006"><a xlink:title=" ">
<path fill="none" stroke="#63b8ff" d="M285,-156.6C292.94,-159.26 301,-162.66 308,-167 327.78,-179.25 322.63,-195.81 344,-205 393.31,-226.21 454.6,-220.41 500.11,-210.75"/>
<polygon fill="#63b8ff" stroke="#63b8ff" points="500.86,-214.17 509.85,-208.56 499.33,-207.34 500.86,-214.17"/>
</a>
</g>
</g>
<!-- Node8 -->
<g id="Node000008" class="node">
<title>Node8</title>
<g id="a_Node000008"><a xlink:href="classComponentRegistry.html#a18cad5dda10f4bb28fb6933f5aa85fce" target="_top" xlink:title="Provides access to the global ComponentRegistry instance.">
<polygon fill="white" stroke="#666666" points="620.5,-158 511.5,-158 511.5,-126 620.5,-126 620.5,-158"/>
<text xml:space="preserve" text-anchor="start" x="519.5" y="-144.5" font-family="Helvetica,sans-Serif" font-size="10.00">ComponentRegistry::</text>
<text xml:space="preserve" text-anchor="middle" x="566" y="-132.5" font-family="Helvetica,sans-Serif" font-size="10.00">instance</text>
</a>
</g>
</g>
<!-- Node3&#45;&gt;Node8 -->
<g id="edge14_Node000003_Node000008" class="edge">
<title>Node3&#45;&gt;Node8</title>
<g id="a_edge14_Node000003_Node000008"><a xlink:title=" ">
<path fill="none" stroke="#63b8ff" d="M284.78,-138.69C302.7,-134.86 324.31,-130.89 344,-129 402.18,-123.42 417.21,-124.79 475.5,-129 483.47,-129.58 491.8,-130.44 500.04,-131.44"/>
<polygon fill="#63b8ff" stroke="#63b8ff" points="499.31,-134.88 509.68,-132.7 500.22,-127.94 499.31,-134.88"/>
</a>
</g>
</g>
<!-- Node10 -->
<g id="Node000010" class="node">
<title>Node10</title>
<g id="a_Node000010"><a xlink:href="structRegistry_1_1IComponentPool.html#ad4a1001874d3ea8f343fbbcf4988c507" target="_top" xlink:title=" ">
<polygon fill="white" stroke="#666666" points="475.5,-82 344,-82 344,-50 475.5,-50 475.5,-82"/>
<text xml:space="preserve" text-anchor="start" x="352" y="-68.5" font-family="Helvetica,sans-Serif" font-size="10.00">Registry::IComponentPool</text>
<text xml:space="preserve" text-anchor="middle" x="409.75" y="-56.5" font-family="Helvetica,sans-Serif" font-size="10.00">::getEntityAt</text>
</a>
</g>
</g>
<!-- Node3&#45;&gt;Node10 -->
<g id="edge9_Node000003_Node000010" class="edge">
<title>Node3&#45;&gt;Node10</title>
<g id="a_edge9_Node000003_Node000010"><a xlink:title=" ">
<path fill="none" stroke="#63b8ff" d="M285.1,-138.91C292.95,-136.3 300.95,-133.03 308,-129 326.84,-118.23 325.94,-108.04 344,-96 348.47,-93.02 353.28,-90.19 358.19,-87.55"/>
<polygon fill="#63b8ff" stroke="#63b8ff" points="359.66,-90.73 366.98,-83.07 356.48,-84.49 359.66,-90.73"/>
</a>
</g>
</g>
<!-- Node11 -->
<g id="Node000011" class="node">
<title>Node11</title>
<g id="a_Node000011"><a xlink:href="classRegistry.html#acac1f1c8a740cfeb2b33a32cfd6ad83f" target="_top" xlink:title="Checks if entity e has a component of type Component.">
<polygon fill="white" stroke="#666666" points="447,-196 372.5,-196 372.5,-176 447,-176 447,-196"/>
<text xml:space="preserve" text-anchor="middle" x="409.75" y="-182.5" font-family="Helvetica,sans-Serif" font-size="10.00">Registry::has</text>
</a>
</g>
</g>
<!-- Node3&#45;&gt;Node11 -->
<g id="edge11_Node000003_Node000011" class="edge">
<title>Node3&#45;&gt;Node11</title>
<g id="a_edge11_Node000003_Node000011"><a xlink:title=" ">
<path fill="none" stroke="#63b8ff" d="M284.89,-157.1C307.72,-162.43 336.72,-169.19 360.92,-174.84"/>
<polygon fill="#63b8ff" stroke="#63b8ff" points="360,-178.22 370.54,-177.08 361.59,-171.4 360,-178.22"/>
</a>
</g>
</g>
<!-- Node12 -->
<g id="Node000012" class="node">
<title>Node12</title>
<g id="a_Node000012"><a xlink:href="structRegistry_1_1IComponentPool.html#af60edba4f576e1c34ed07f6dd4e9348b" target="_top" xlink:title=" ">
<polygon fill="white" stroke="#666666" points="475.5,-32 344,-32 344,0 475.5,0 475.5,-32"/>
<text xml:space="preserve" text-anchor="start" x="352" y="-18.5" font-family="Helvetica,sans-Serif" font-size="10.00">Registry::IComponentPool</text>
<text xml:space="preserve" text-anchor="middle" x="409.75" y="-6.5" font-family="Helvetica,sans-Serif" font-size="10.00">::size</text>
</a>
</g>
</g>
<!-- Node3&#45;&gt;Node12 -->
<g id="edge15_Node000003_Node000012" class="edge">
<title>Node3&#45;&gt;Node12</title>
<g id="a_edge15_Node000003_Node000012"><a xlink:title=" ">
<path fill="none" stroke="#63b8ff" d="M285.11,-141.71C293.41,-138.9 301.58,-134.85 308,-129 339.22,-100.52 313.82,-70.58 344,-41 344.73,-40.28 345.49,-39.58 346.27,-38.9"/>
<polygon fill="#63b8ff" stroke="#63b8ff" points="348.03,-41.95 354.06,-33.23 343.91,-36.29 348.03,-41.95"/>
</a>
</g>
</g>
<!-- Node5&#45;&gt;Node6 -->
<g id="edge5_Node000005_Node000006" class="edge">
<title>Node5&#45;&gt;Node6</title>
<g id="a_edge5_Node000005_Node000006"><a xlink:title=" ">
<path fill="none" stroke="#63b8ff" d="M446.14,-158.09C462.12,-162.65 481.53,-168.19 499.99,-173.46"/>
<polygon fill="#63b8ff" stroke="#63b8ff" points="498.98,-176.81 509.56,-176.19 500.91,-170.08 498.98,-176.81"/>
</a>
</g>
</g>
<!-- Node5&#45;&gt;Node8 -->
<g id="edge7_Node000005_Node000008" class="edge">
<title>Node5&#45;&gt;Node8</title>
<g id="a_edge7_Node000005_Node000008"><a xlink:title=" ">
<path fill="none" stroke="#63b8ff" d="M446.14,-146.62C462.05,-146 481.35,-145.25 499.73,-144.54"/>
<polygon fill="#63b8ff" stroke="#63b8ff" points="499.65,-148.04 509.5,-144.16 499.38,-141.05 499.65,-148.04"/>
</a>
</g>
</g>
<!-- Node7 -->
<g id="Node000007" class="node">
<title>Node7</title>
<g id="a_Node000007"><a xlink:href="classComponentRegistry.html#ab1cc8a486cae16a19268264c69f9af80" target="_top" xlink:title="Computes a new unique ID for a type T, or returns the existing one.">
<polygon fill="white" stroke="#666666" points="765.5,-208 656.5,-208 656.5,-176 765.5,-176 765.5,-208"/>
<text xml:space="preserve" text-anchor="start" x="664.5" y="-194.5" font-family="Helvetica,sans-Serif" font-size="10.00">ComponentRegistry::</text>
<text xml:space="preserve" text-anchor="middle" x="711" y="-182.5" font-family="Helvetica,sans-Serif" font-size="10.00">computeID</text>
</a>
</g>
</g>
<!-- Node6&#45;&gt;Node7 -->
<g id="edge6_Node000006_Node000007" class="edge">
<title>Node6&#45;&gt;Node7</title>
<g id="a_edge6_Node000006_Node000007"><a xlink:title=" ">
<path fill="none" stroke="#63b8ff" d="M620.65,-192C628.52,-192 636.69,-192 644.76,-192"/>
<polygon fill="#63b8ff" stroke="#63b8ff" points="644.53,-195.5 654.53,-192 644.53,-188.5 644.53,-195.5"/>
</a>
</g>
</g>
<!-- Node9 -->
<g id="Node000009" class="node">
<title>Node9</title>
<g id="a_Node000009"><a xlink:href="classComponentRegistry.html#a3bbfefb19e284845afb80ce0a4dd739a" target="_top" xlink:title="Private constructor for singleton pattern. Initializes internal containers with reserved capacity.">
<polygon fill="white" stroke="#666666" points="765.5,-158 656.5,-158 656.5,-126 765.5,-126 765.5,-158"/>
<text xml:space="preserve" text-anchor="start" x="664.5" y="-144.5" font-family="Helvetica,sans-Serif" font-size="10.00">ComponentRegistry::</text>
<text xml:space="preserve" text-anchor="middle" x="711" y="-132.5" font-family="Helvetica,sans-Serif" font-size="10.00">ComponentRegistry</text>
</a>
</g>
</g>
<!-- Node8&#45;&gt;Node9 -->
<g id="edge8_Node000008_Node000009" class="edge">
<title>Node8&#45;&gt;Node9</title>
<g id="a_edge8_Node000008_Node000009"><a xlink:title=" ">
<path fill="none" stroke="#63b8ff" d="M620.65,-142C628.52,-142 636.69,-142 644.76,-142"/>
<polygon fill="#63b8ff" stroke="#63b8ff" points="644.53,-145.5 654.53,-142 644.53,-138.5 644.53,-145.5"/>
</a>
</g>
</g>
<!-- Node11&#45;&gt;Node6 -->
<g id="edge12_Node000011_Node000006" class="edge">
<title>Node11&#45;&gt;Node6</title>
<g id="a_edge12_Node000011_Node000006"><a xlink:title=" ">
<path fill="none" stroke="#63b8ff" d="M447.31,-187.42C463.02,-188.03 481.87,-188.77 499.84,-189.47"/>
<polygon fill="#63b8ff" stroke="#63b8ff" points="499.54,-192.96 509.66,-189.85 499.81,-185.96 499.54,-192.96"/>
</a>
</g>
</g>
<!-- Node11&#45;&gt;Node8 -->
<g id="edge13_Node000011_Node000008" class="edge">
<title>Node11&#45;&gt;Node8</title>
<g id="a_edge13_Node000011_Node000008"><a xlink:title=" ">
<path fill="none" stroke="#63b8ff" d="M447.31,-175.57C463.17,-171.05 482.23,-165.61 500.35,-160.44"/>
<polygon fill="#63b8ff" stroke="#63b8ff" points="501.06,-163.88 509.72,-157.77 499.14,-157.15 501.06,-163.88"/>
</a>
</g>
</g>
</g>
</svg>
