<?xml version="1.0" encoding="UTF-8" standalone="no"?>
<!DOCTYPE svg PUBLIC "-//W3C//DTD SVG 1.1//EN"
 "http://www.w3.org/Graphics/SVG/1.1/DTD/svg11.dtd">
<!-- Generated by graphviz version 14.0.1 (0)
 -->
<!-- Title: ComponentRegistry::ComponentRegistry Pages: 1 -->
<svg width="772pt" height="412pt"
 viewBox="0.00 0.00 772.00 412.00" xmlns="http://www.w3.org/2000/svg" xmlns:xlink="http://www.w3.org/1999/xlink">
<g id="graph0" class="graph" transform="scale(1 1) rotate(0) translate(4 408)">
<title>ComponentRegistry::ComponentRegistry</title>
<!-- Node1 -->
<g id="Node000001" class="node">
<title>Node1</title>
<g id="a_Node000001"><a xlink:title="Private constructor for singleton pattern. Initializes internal containers with reserved capacity.">
<polygon fill="#999999" stroke="#666666" points="764,-209 655,-209 655,-177 764,-177 764,-209"/>
<text xml:space="preserve" text-anchor="start" x="663" y="-195.5" font-family="Helvetica,sans-Serif" font-size="10.00">ComponentRegistry::</text>
<text xml:space="preserve" text-anchor="middle" x="709.5" y="-183.5" font-family="Helvetica,sans-Serif" font-size="10.00">ComponentRegistry</text>
</a>
</g>
</g>
<!-- Node2 -->
<g id="Node000002" class="node">
<title>Node2</title>
<g id="a_Node000002"><a xlink:href="classComponentRegistry.html#a18cad5dda10f4bb28fb6933f5aa85fce" target="_top" xlink:title="Provides access to the global ComponentRegistry instance.">
<polygon fill="white" stroke="#666666" points="619,-209 510,-209 510,-177 619,-177 619,-209"/>
<text xml:space="preserve" text-anchor="start" x="518" y="-195.5" font-family="Helvetica,sans-Serif" font-size="10.00">ComponentRegistry::</text>
<text xml:space="preserve" text-anchor="middle" x="564.5" y="-183.5" font-family="Helvetica,sans-Serif" font-size="10.00">instance</text>
</a>
</g>
</g>
<!-- Node1&#45;&gt;Node2 -->
<g id="edge1_Node000001_Node000002" class="edge">
<title>Node1&#45;&gt;Node2</title>
<g id="a_edge1_Node000001_Node000002"><a xlink:title=" ">
<path fill="none" stroke="#63b8ff" d="M643.56,-193C635.5,-193 627.33,-193 619.46,-193"/>
<polygon fill="#63b8ff" stroke="#63b8ff" points="643.33,-196.5 653.33,-193 643.33,-189.5 643.33,-196.5"/>
</a>
</g>
</g>
<!-- Node3 -->
<g id="Node000003" class="node">
<title>Node3</title>
<g id="a_Node000003"><a xlink:href="classRegistry.html#a7a17141d6ad949dbc4792cb638665226" target="_top" xlink:title="Counts how many components of type Component currently exist.">
<polygon fill="white" stroke="#666666" points="445.12,-374 362.38,-374 362.38,-354 445.12,-354 445.12,-374"/>
<text xml:space="preserve" text-anchor="middle" x="403.75" y="-360.5" font-family="Helvetica,sans-Serif" font-size="10.00">Registry::count</text>
</a>
</g>
</g>
<!-- Node2&#45;&gt;Node3 -->
<g id="edge2_Node000002_Node000003" class="edge">
<title>Node2&#45;&gt;Node3</title>
<g id="a_edge2_Node000002_Node000003"><a xlink:title=" ">
<path fill="none" stroke="#63b8ff" d="M554.92,-219.65C542.54,-253.83 516.39,-312.56 474,-345 465.78,-351.29 455.61,-355.5 445.62,-358.31"/>
<polygon fill="#63b8ff" stroke="#63b8ff" points="558.13,-221.1 558.1,-210.5 551.51,-218.8 558.13,-221.1"/>
</a>
</g>
</g>
<!-- Node4 -->
<g id="Node000004" class="node">
<title>Node4</title>
<g id="a_Node000004"><a xlink:href="classRegistry.html#a31cfb49fd633086383bf646b39a8daa2" target="_top" xlink:title="Iterates through all entities that have all the specified components.">
<polygon fill="white" stroke="#666666" points="279.5,-298 199.75,-298 199.75,-278 279.5,-278 279.5,-298"/>
<text xml:space="preserve" text-anchor="middle" x="239.62" y="-284.5" font-family="Helvetica,sans-Serif" font-size="10.00">Registry::each</text>
</a>
</g>
</g>
<!-- Node2&#45;&gt;Node4 -->
<g id="edge3_Node000002_Node000004" class="edge">
<title>Node2&#45;&gt;Node4</title>
<g id="a_edge3_Node000002_Node000004"><a xlink:title=" ">
<path fill="none" stroke="#63b8ff" d="M542.5,-217.64C525.88,-235.28 501.03,-257.81 474,-269 409.96,-295.52 327.71,-295.14 279.9,-291.93"/>
<polygon fill="#63b8ff" stroke="#63b8ff" points="544.8,-220.31 548.95,-210.57 539.63,-215.6 544.8,-220.31"/>
</a>
</g>
</g>
<!-- Node10 -->
<g id="Node000010" class="node">
<title>Node10</title>
<g id="a_Node000010"><a xlink:href="classRegistry.html#ab12b0e856e109cd94af4aeb5e969de24" target="_top" xlink:title="Adds a new component of type Component to entity e.">
<polygon fill="white" stroke="#666666" points="287.38,-204 191.88,-204 191.88,-184 287.38,-184 287.38,-204"/>
<text xml:space="preserve" text-anchor="middle" x="239.62" y="-190.5" font-family="Helvetica,sans-Serif" font-size="10.00">Registry::emplace</text>
</a>
</g>
</g>
<!-- Node2&#45;&gt;Node10 -->
<g id="edge9_Node000002_Node000010" class="edge">
<title>Node2&#45;&gt;Node10</title>
<g id="a_edge9_Node000002_Node000010"><a xlink:title=" ">
<path fill="none" stroke="#63b8ff" d="M498.55,-193.2C436.18,-193.39 343.48,-193.68 287.86,-193.85"/>
<polygon fill="#63b8ff" stroke="#63b8ff" points="498.32,-196.7 508.31,-193.17 498.3,-189.7 498.32,-196.7"/>
</a>
</g>
</g>
<!-- Node11 -->
<g id="Node000011" class="node">
<title>Node11</title>
<g id="a_Node000011"><a xlink:href="classRegistry.html#a11f1e4d7d7ef1a84640adddf32c1f862" target="_top" xlink:title="Gets a reference to a component of type Component for entity e.">
<polygon fill="white" stroke="#666666" points="439.88,-336 367.62,-336 367.62,-316 439.88,-316 439.88,-336"/>
<text xml:space="preserve" text-anchor="middle" x="403.75" y="-322.5" font-family="Helvetica,sans-Serif" font-size="10.00">Registry::get</text>
</a>
</g>
</g>
<!-- Node2&#45;&gt;Node11 -->
<g id="edge11_Node000002_Node000011" class="edge">
<title>Node2&#45;&gt;Node11</title>
<g id="a_edge11_Node000002_Node000011"><a xlink:title=" ">
<path fill="none" stroke="#63b8ff" d="M548,-219.2C532.23,-243.78 505.64,-279.96 474,-302 463.98,-308.98 451.73,-314.1 440.34,-317.78"/>
<polygon fill="#63b8ff" stroke="#63b8ff" points="550.96,-221.08 553.28,-210.74 545.02,-217.37 550.96,-221.08"/>
</a>
</g>
</g>
<!-- Node13 -->
<g id="Node000013" class="node">
<title>Node13</title>
<g id="a_Node000013"><a xlink:href="classRegistry.html#ac846fa6831fe9b792391b36fa8572d1d" target="_top" xlink:title="Const version of get().">
<polygon fill="white" stroke="#666666" points="439.88,-184 367.62,-184 367.62,-164 439.88,-164 439.88,-184"/>
<text xml:space="preserve" text-anchor="middle" x="403.75" y="-170.5" font-family="Helvetica,sans-Serif" font-size="10.00">Registry::get</text>
</a>
</g>
</g>
<!-- Node2&#45;&gt;Node13 -->
<g id="edge17_Node000002_Node000013" class="edge">
<title>Node2&#45;&gt;Node13</title>
<g id="a_edge17_Node000002_Node000013"><a xlink:title=" ">
<path fill="none" stroke="#63b8ff" d="M498.48,-185.22C478.47,-182.82 457.19,-180.28 439.98,-178.22"/>
<polygon fill="#63b8ff" stroke="#63b8ff" points="497.91,-188.67 508.25,-186.39 498.74,-181.72 497.91,-188.67"/>
</a>
</g>
</g>
<!-- Node14 -->
<g id="Node000014" class="node">
<title>Node14</title>
<g id="a_Node000014"><a xlink:href="classRegistry.html#acac1f1c8a740cfeb2b33a32cfd6ad83f" target="_top" xlink:title="Checks if entity e has a component of type Component.">
<polygon fill="white" stroke="#666666" points="441,-260 366.5,-260 366.5,-240 441,-240 441,-260"/>
<text xml:space="preserve" text-anchor="middle" x="403.75" y="-246.5" font-family="Helvetica,sans-Serif" font-size="10.00">Registry::has</text>
</a>
</g>
</g>
<!-- Node2&#45;&gt;Node14 -->
<g id="edge18_Node000002_Node000014" class="edge">
<title>Node2&#45;&gt;Node14</title>
<g id="a_edge18_Node000002_Node000014"><a xlink:title=" ">
<path fill="none" stroke="#63b8ff" d="M508.65,-213.42C497.22,-217.62 485.23,-221.99 474,-226 461.3,-230.54 447.24,-235.44 435.13,-239.61"/>
<polygon fill="#63b8ff" stroke="#63b8ff" points="509.81,-216.72 517.99,-209.98 507.39,-210.15 509.81,-216.72"/>
</a>
</g>
</g>
<!-- Node15 -->
<g id="Node000015" class="node">
<title>Node15</title>
<g id="a_Node000015"><a xlink:href="classRegistry.html#a629e3280396e2e8cc06434895e746639" target="_top" xlink:title="Removes a component of type Component from entity e.">
<polygon fill="white" stroke="#666666" points="449.25,-146 358.25,-146 358.25,-126 449.25,-126 449.25,-146"/>
<text xml:space="preserve" text-anchor="middle" x="403.75" y="-132.5" font-family="Helvetica,sans-Serif" font-size="10.00">Registry::remove</text>
</a>
</g>
</g>
<!-- Node2&#45;&gt;Node15 -->
<g id="edge20_Node000002_Node000015" class="edge">
<title>Node2&#45;&gt;Node15</title>
<g id="a_edge20_Node000002_Node000015"><a xlink:title=" ">
<path fill="none" stroke="#63b8ff" d="M517.53,-172.09C503.69,-166.17 488.36,-159.99 474,-155 465.17,-151.93 455.57,-149.03 446.41,-146.46"/>
<polygon fill="#63b8ff" stroke="#63b8ff" points="515.83,-175.17 526.4,-175.94 518.62,-168.75 515.83,-175.17"/>
</a>
</g>
</g>
<!-- Node16 -->
<g id="Node000016" class="node">
<title>Node16</title>
<g id="a_Node000016"><a xlink:href="classSystem.html#ab96f7a0f109eac8621f869efcf40a916" target="_top" xlink:title="Declares which components this system requires.">
<polygon fill="white" stroke="#666666" points="474,-108 333.5,-108 333.5,-88 474,-88 474,-108"/>
<text xml:space="preserve" text-anchor="middle" x="403.75" y="-94.5" font-family="Helvetica,sans-Serif" font-size="10.00">System::requireComponents</text>
</a>
</g>
</g>
<!-- Node2&#45;&gt;Node16 -->
<g id="edge21_Node000002_Node000016" class="edge">
<title>Node2&#45;&gt;Node16</title>
<g id="a_edge21_Node000002_Node000016"><a xlink:title=" ">
<path fill="none" stroke="#63b8ff" d="M540.91,-168.87C523.96,-152.1 499.4,-130.42 474,-117 467.61,-113.62 460.55,-110.8 453.47,-108.46"/>
<polygon fill="#63b8ff" stroke="#63b8ff" points="538.01,-170.92 547.52,-175.58 542.99,-166 538.01,-170.92"/>
</a>
</g>
</g>
<!-- Node17 -->
<g id="Node000017" class="node">
<title>Node17</title>
<g id="a_Node000017"><a xlink:href="classSystem.html#a3debf9a0bb97844f19da1c818d4dd3e3" target="_top" xlink:title="Declares required components using their names as strings.">
<polygon fill="white" stroke="#666666" points="474,-70 333.5,-70 333.5,-38 474,-38 474,-70"/>
<text xml:space="preserve" text-anchor="start" x="341.5" y="-56.5" font-family="Helvetica,sans-Serif" font-size="10.00">System::requireComponents</text>
<text xml:space="preserve" text-anchor="middle" x="403.75" y="-44.5" font-family="Helvetica,sans-Serif" font-size="10.00">ByName</text>
</a>
</g>
</g>
<!-- Node2&#45;&gt;Node17 -->
<g id="edge22_Node000002_Node000017" class="edge">
<title>Node2&#45;&gt;Node17</title>
<g id="a_edge22_Node000002_Node000017"><a xlink:title=" ">
<path fill="none" stroke="#63b8ff" d="M548.94,-166.86C533.42,-141.2 506.62,-102.58 474,-79 469.55,-75.78 464.63,-72.94 459.54,-70.43"/>
<polygon fill="#63b8ff" stroke="#63b8ff" points="545.84,-168.5 553.93,-175.35 551.88,-164.96 545.84,-168.5"/>
</a>
</g>
</g>
<!-- Node18 -->
<g id="Node000018" class="node">
<title>Node18</title>
<g id="a_Node000018"><a xlink:href="classRegistry.html#a864a9feb3c9cffc43296ae8bb1aa2e3a" target="_top" xlink:title="Returns a reference to the SparseSet storing all components of type Component.">
<polygon fill="white" stroke="#666666" points="443.25,-20 364.25,-20 364.25,0 443.25,0 443.25,-20"/>
<text xml:space="preserve" text-anchor="middle" x="403.75" y="-6.5" font-family="Helvetica,sans-Serif" font-size="10.00">Registry::view</text>
</a>
</g>
</g>
<!-- Node2&#45;&gt;Node18 -->
<g id="edge23_Node000002_Node000018" class="edge">
<title>Node2&#45;&gt;Node18</title>
<g id="a_edge23_Node000002_Node000018"><a xlink:title=" ">
<path fill="none" stroke="#63b8ff" d="M556.02,-165.88C544.53,-129.29 518.98,-64.6 474,-29 465.3,-22.11 454.28,-17.72 443.6,-14.92"/>
<polygon fill="#63b8ff" stroke="#63b8ff" points="552.61,-166.68 558.84,-175.25 559.32,-164.66 552.61,-166.68"/>
</a>
</g>
</g>
<!-- Node5 -->
<g id="Node000005" class="node">
<title>Node5</title>
<g id="a_Node000005"><a xlink:href="classGameEngine_1_1Collision.html#a49f26a6547e81a9cebf7ad5436fb7101" target="_top" xlink:title=" ">
<polygon fill="white" stroke="#666666" points="130.75,-404 15,-404 15,-372 130.75,-372 130.75,-404"/>
<text xml:space="preserve" text-anchor="start" x="23" y="-390.5" font-family="Helvetica,sans-Serif" font-size="10.00">GameEngine::Collision</text>
<text xml:space="preserve" text-anchor="middle" x="72.88" y="-378.5" font-family="Helvetica,sans-Serif" font-size="10.00">::onUpdate</text>
</a>
</g>
</g>
<!-- Node4&#45;&gt;Node5 -->
<g id="edge4_Node000004_Node000005" class="edge">
<title>Node4&#45;&gt;Node5</title>
<g id="a_edge4_Node000004_Node000005"><a xlink:title=" ">
<path fill="none" stroke="#63b8ff" d="M196.62,-303.35C191.35,-306.15 186.25,-309.36 181.75,-313 160.47,-330.23 167.7,-346.63 145.75,-363 141.2,-366.4 136.14,-369.36 130.89,-371.93"/>
<polygon fill="#63b8ff" stroke="#63b8ff" points="197.96,-306.59 205.46,-299.11 194.93,-300.28 197.96,-306.59"/>
</a>
</g>
</g>
<!-- Node6 -->
<g id="Node000006" class="node">
<title>Node6</title>
<g id="a_Node000006"><a xlink:href="classGameEngine_1_1Death.html#a081a250ee3a8d22b7dd2323dbaba0eb7" target="_top" xlink:title=" ">
<polygon fill="white" stroke="#666666" points="128.12,-354 17.62,-354 17.62,-322 128.12,-322 128.12,-354"/>
<text xml:space="preserve" text-anchor="start" x="25.62" y="-340.5" font-family="Helvetica,sans-Serif" font-size="10.00">GameEngine::Death::</text>
<text xml:space="preserve" text-anchor="middle" x="72.88" y="-328.5" font-family="Helvetica,sans-Serif" font-size="10.00">onUpdate</text>
</a>
</g>
</g>
<!-- Node4&#45;&gt;Node6 -->
<g id="edge5_Node000004_Node000006" class="edge">
<title>Node4&#45;&gt;Node6</title>
<g id="a_edge5_Node000004_Node000006"><a xlink:title=" ">
<path fill="none" stroke="#63b8ff" d="M193.31,-301.75C173.15,-307.87 149.25,-315.12 128.15,-321.53"/>
<polygon fill="#63b8ff" stroke="#63b8ff" points="194.09,-305.17 202.64,-298.92 192.05,-298.48 194.09,-305.17"/>
</a>
</g>
</g>
<!-- Node7 -->
<g id="Node000007" class="node">
<title>Node7</title>
<g id="a_Node000007"><a xlink:href="classGameEngine_1_1DomainHandler.html#a2e491047939e77c803075c6c490d54ee" target="_top" xlink:title="Updates the system, checking entity positions against their domain boundaries.">
<polygon fill="white" stroke="#666666" points="145.75,-304 0,-304 0,-272 145.75,-272 145.75,-304"/>
<text xml:space="preserve" text-anchor="start" x="8" y="-290.5" font-family="Helvetica,sans-Serif" font-size="10.00">GameEngine::DomainHandler</text>
<text xml:space="preserve" text-anchor="middle" x="72.88" y="-278.5" font-family="Helvetica,sans-Serif" font-size="10.00">::onUpdate</text>
</a>
</g>
</g>
<!-- Node4&#45;&gt;Node7 -->
<g id="edge6_Node000004_Node000007" class="edge">
<title>Node4&#45;&gt;Node7</title>
<g id="a_edge6_Node000004_Node000007"><a xlink:title=" ">
<path fill="none" stroke="#63b8ff" d="M188.29,-288C175.01,-288 160.41,-288 146.21,-288"/>
<polygon fill="#63b8ff" stroke="#63b8ff" points="188.07,-291.5 198.07,-288 188.07,-284.5 188.07,-291.5"/>
</a>
</g>
</g>
<!-- Node8 -->
<g id="Node000008" class="node">
<title>Node8</title>
<g id="a_Node000008"><a xlink:href="classGameEngine_1_1InputHandler.html#acb0d11bd1241dad8925f26b86f6d9007" target="_top" xlink:title=" ">
<polygon fill="white" stroke="#666666" points="139.75,-204 6,-204 6,-172 139.75,-172 139.75,-204"/>
<text xml:space="preserve" text-anchor="start" x="14" y="-190.5" font-family="Helvetica,sans-Serif" font-size="10.00">GameEngine::InputHandler</text>
<text xml:space="preserve" text-anchor="middle" x="72.88" y="-178.5" font-family="Helvetica,sans-Serif" font-size="10.00">::onUpdate</text>
</a>
</g>
</g>
<!-- Node4&#45;&gt;Node8 -->
<g id="edge7_Node000004_Node000008" class="edge">
<title>Node4&#45;&gt;Node8</title>
<g id="a_edge7_Node000004_Node000008"><a xlink:title=" ">
<path fill="none" stroke="#63b8ff" d="M203.6,-272.43C196.02,-268.29 188.32,-263.43 181.75,-258 162.01,-241.68 166.66,-227.79 145.75,-213 141.22,-209.8 136.24,-206.97 131.08,-204.49"/>
<polygon fill="#63b8ff" stroke="#63b8ff" points="201.91,-275.49 212.4,-276.94 205.1,-269.26 201.91,-275.49"/>
</a>
</g>
</g>
<!-- Node9 -->
<g id="Node000009" class="node">
<title>Node9</title>
<g id="a_Node000009"><a xlink:href="classGameEngine_1_1Motion.html#a015b898244098b869ceb6001884ae9fe" target="_top" xlink:title=" ">
<polygon fill="white" stroke="#666666" points="126.62,-254 19.12,-254 19.12,-222 126.62,-222 126.62,-254"/>
<text xml:space="preserve" text-anchor="start" x="27.12" y="-240.5" font-family="Helvetica,sans-Serif" font-size="10.00">GameEngine::Motion</text>
<text xml:space="preserve" text-anchor="middle" x="72.88" y="-228.5" font-family="Helvetica,sans-Serif" font-size="10.00">::onUpdate</text>
</a>
</g>
</g>
<!-- Node4&#45;&gt;Node9 -->
<g id="edge8_Node000004_Node000009" class="edge">
<title>Node4&#45;&gt;Node9</title>
<g id="a_edge8_Node000004_Node000009"><a xlink:title=" ">
<path fill="none" stroke="#63b8ff" d="M193.12,-274.19C172.59,-267.96 148.21,-260.56 126.86,-254.08"/>
<polygon fill="#63b8ff" stroke="#63b8ff" points="192.05,-277.52 202.64,-277.08 194.09,-270.83 192.05,-277.52"/>
</a>
</g>
</g>
<!-- Node10&#45;&gt;Node8 -->
<g id="edge10_Node000010_Node000008" class="edge">
<title>Node10&#45;&gt;Node8</title>
<g id="a_edge10_Node000010_Node000008"><a xlink:title=" ">
<path fill="none" stroke="#63b8ff" d="M180.26,-191.87C167.27,-191.4 153.4,-190.9 140.12,-190.41"/>
<polygon fill="#63b8ff" stroke="#63b8ff" points="179.78,-195.36 189.9,-192.23 180.04,-188.36 179.78,-195.36"/>
</a>
</g>
</g>
<!-- Node11&#45;&gt;Node4 -->
<g id="edge14_Node000011_Node000004" class="edge">
<title>Node11&#45;&gt;Node4</title>
<g id="a_edge14_Node000011_Node000004"><a xlink:title=" ">
<path fill="none" stroke="#63b8ff" d="M356.12,-315.07C331.96,-309.41 302.79,-302.57 279.81,-297.18"/>
<polygon fill="#63b8ff" stroke="#63b8ff" points="355.16,-318.44 365.7,-317.32 356.76,-311.63 355.16,-318.44"/>
</a>
</g>
</g>
<!-- Node11&#45;&gt;Node5 -->
<g id="edge15_Node000011_Node000005" class="edge">
<title>Node11&#45;&gt;Node5</title>
<g id="a_edge15_Node000011_Node000005"><a xlink:title=" ">
<path fill="none" stroke="#63b8ff" d="M356.6,-337.3C348.81,-339.6 340.86,-342.18 333.5,-345 316.79,-351.4 314.65,-357.93 297.5,-363 242.43,-379.28 176.87,-385.11 131.02,-387.12"/>
<polygon fill="#63b8ff" stroke="#63b8ff" points="357.31,-340.74 365.99,-334.67 355.41,-334 357.31,-340.74"/>
</a>
</g>
</g>
<!-- Node11&#45;&gt;Node8 -->
<g id="edge16_Node000011_Node000008" class="edge">
<title>Node11&#45;&gt;Node8</title>
<g id="a_edge16_Node000011_Node000008"><a xlink:title=" ">
<path fill="none" stroke="#63b8ff" d="M375.47,-309.83C354.54,-297.76 324.71,-281.31 297.5,-269 232,-239.36 213.43,-237.25 145.75,-213 137.91,-210.19 129.58,-207.25 121.47,-204.41"/>
<polygon fill="#63b8ff" stroke="#63b8ff" points="373.55,-312.76 383.96,-314.77 377.07,-306.71 373.55,-312.76"/>
</a>
</g>
</g>
<!-- Node12 -->
<g id="Node000012" class="node">
<title>Node12</title>
<g id="a_Node000012"><a xlink:href="classGameEngine_1_1Collision.html#a64427d8df75feb70d3039f2e376d7480" target="_top" xlink:title=" ">
<polygon fill="white" stroke="#666666" points="297.5,-354 181.75,-354 181.75,-322 297.5,-322 297.5,-354"/>
<text xml:space="preserve" text-anchor="start" x="189.75" y="-340.5" font-family="Helvetica,sans-Serif" font-size="10.00">GameEngine::Collision</text>
<text xml:space="preserve" text-anchor="middle" x="239.62" y="-328.5" font-family="Helvetica,sans-Serif" font-size="10.00">::collide</text>
</a>
</g>
</g>
<!-- Node11&#45;&gt;Node12 -->
<g id="edge12_Node000011_Node000012" class="edge">
<title>Node11&#45;&gt;Node12</title>
<g id="a_edge12_Node000011_Node000012"><a xlink:title=" ">
<path fill="none" stroke="#63b8ff" d="M355.72,-329.48C337.61,-330.82 316.74,-332.37 297.78,-333.77"/>
<polygon fill="#63b8ff" stroke="#63b8ff" points="355.95,-332.97 365.66,-328.75 355.43,-325.99 355.95,-332.97"/>
</a>
</g>
</g>
<!-- Node12&#45;&gt;Node5 -->
<g id="edge13_Node000012_Node000005" class="edge">
<title>Node12&#45;&gt;Node5</title>
<g id="a_edge13_Node000012_Node000005"><a xlink:title=" ">
<path fill="none" stroke="#63b8ff" d="M173.86,-357.66C158.76,-362.24 142.82,-367.08 128.22,-371.51"/>
<polygon fill="#63b8ff" stroke="#63b8ff" points="174.68,-361.06 183.23,-354.81 172.65,-354.37 174.68,-361.06"/>
</a>
</g>
</g>
<!-- Node14&#45;&gt;Node4 -->
<g id="edge19_Node000014_Node000004" class="edge">
<title>Node14&#45;&gt;Node4</title>
<g id="a_edge19_Node000014_Node000004"><a xlink:title=" ">
<path fill="none" stroke="#63b8ff" d="M355.35,-261.11C331.31,-266.74 302.47,-273.5 279.72,-278.84"/>
<polygon fill="#63b8ff" stroke="#63b8ff" points="355.95,-264.56 364.89,-258.87 354.36,-257.75 355.95,-264.56"/>
</a>
</g>
</g>
</g>
</svg>
