<?xml version="1.0" encoding="UTF-8" standalone="no"?>
<!DOCTYPE svg PUBLIC "-//W3C//DTD SVG 1.1//EN"
 "http://www.w3.org/Graphics/SVG/1.1/DTD/svg11.dtd">
<!-- Generated by graphviz version 14.0.2 (0)
 -->
<!-- Title: Registry::get Pages: 1 -->
<svg width="415pt" height="440pt"
 viewBox="0.00 0.00 415.00 440.00" xmlns="http://www.w3.org/2000/svg" xmlns:xlink="http://www.w3.org/1999/xlink">
<g id="graph0" class="graph" transform="scale(1 1) rotate(0) translate(4 436)">
<title>Registry::get</title>
<!-- Node1 -->
<g id="Node000001" class="node">
<title>Node1</title>
<g id="a_Node000001"><a xlink:title="Gets a reference to a component of type Component for entity e.">
<polygon fill="#999999" stroke="#666666" points="406.5,-226 334.25,-226 334.25,-206 406.5,-206 406.5,-226"/>
<text xml:space="preserve" text-anchor="middle" x="370.38" y="-212.5" font-family="Helvetica,sans-Serif" font-size="10.00">Registry::get</text>
</a>
</g>
</g>
<!-- Node2 -->
<g id="Node000002" class="node">
<title>Node2</title>
<g id="a_Node000002"><a xlink:href="classGameEngine_1_1Collision.html#a64427d8df75feb70d3039f2e376d7480" target="_top" xlink:title=" ">
<polygon fill="white" stroke="#666666" points="298.25,-354 182.5,-354 182.5,-322 298.25,-322 298.25,-354"/>
<text xml:space="preserve" text-anchor="start" x="190.5" y="-340.5" font-family="Helvetica,sans-Serif" font-size="10.00">GameEngine::Collision</text>
<text xml:space="preserve" text-anchor="middle" x="240.38" y="-328.5" font-family="Helvetica,sans-Serif" font-size="10.00">::collide</text>
</a>
</g>
</g>
<!-- Node1&#45;&gt;Node2 -->
<g id="edge1_Node000001_Node000002" class="edge">
<title>Node1&#45;&gt;Node2</title>
<g id="a_edge1_Node000001_Node000002"><a xlink:title=" ">
<path fill="none" stroke="#63b8ff" d="M350.21,-234.27C325.4,-257.92 282.53,-298.77 258.67,-321.51"/>
<polygon fill="#63b8ff" stroke="#63b8ff" points="352.54,-236.88 357.37,-227.45 347.71,-231.81 352.54,-236.88"/>
</a>
</g>
</g>
<!-- Node4 -->
<g id="Node000004" class="node">
<title>Node4</title>
<g id="a_Node000004"><a xlink:href="classRegistry.html#a31cfb49fd633086383bf646b39a8daa2" target="_top" xlink:title="Iterates through all entities that have all the specified components.">
<polygon fill="white" stroke="#666666" points="280.25,-226 200.5,-226 200.5,-206 280.25,-206 280.25,-226"/>
<text xml:space="preserve" text-anchor="middle" x="240.38" y="-212.5" font-family="Helvetica,sans-Serif" font-size="10.00">Registry::each</text>
</a>
</g>
</g>
<!-- Node1&#45;&gt;Node4 -->
<g id="edge3_Node000001_Node000004" class="edge">
<title>Node1&#45;&gt;Node4</title>
<g id="a_edge3_Node000001_Node000004"><a xlink:title=" ">
<path fill="none" stroke="#63b8ff" d="M322.78,-216C308.95,-216 293.94,-216 280.63,-216"/>
<polygon fill="#63b8ff" stroke="#63b8ff" points="322.55,-219.5 332.55,-216 322.55,-212.5 322.55,-219.5"/>
</a>
</g>
</g>
<!-- Node11 -->
<g id="Node000011" class="node">
<title>Node11</title>
<g id="a_Node000011"><a xlink:href="classGameEngine_1_1InputHandler.html#acb0d11bd1241dad8925f26b86f6d9007" target="_top" xlink:title=" ">
<polygon fill="white" stroke="#666666" points="140.12,-32 6.38,-32 6.38,0 140.12,0 140.12,-32"/>
<text xml:space="preserve" text-anchor="start" x="14.38" y="-18.5" font-family="Helvetica,sans-Serif" font-size="10.00">GameEngine::InputHandler</text>
<text xml:space="preserve" text-anchor="middle" x="73.25" y="-6.5" font-family="Helvetica,sans-Serif" font-size="10.00">::onUpdate</text>
</a>
</g>
</g>
<!-- Node1&#45;&gt;Node11 -->
<g id="edge13_Node000001_Node000011" class="edge">
<title>Node1&#45;&gt;Node11</title>
<g id="a_edge13_Node000001_Node000011"><a xlink:title=" ">
<path fill="none" stroke="#63b8ff" d="M351,-198C314.72,-163.32 230.11,-86.61 146.5,-41 140.79,-37.89 134.62,-35.05 128.37,-32.49"/>
<polygon fill="#63b8ff" stroke="#63b8ff" points="348.44,-200.39 358.07,-204.82 353.3,-195.36 348.44,-200.39"/>
</a>
</g>
</g>
<!-- Node3 -->
<g id="Node000003" class="node">
<title>Node3</title>
<g id="a_Node000003"><a xlink:href="classGameEngine_1_1Collision.html#a49f26a6547e81a9cebf7ad5436fb7101" target="_top" xlink:title=" ">
<polygon fill="white" stroke="#666666" points="131.12,-432 15.38,-432 15.38,-400 131.12,-400 131.12,-432"/>
<text xml:space="preserve" text-anchor="start" x="23.38" y="-418.5" font-family="Helvetica,sans-Serif" font-size="10.00">GameEngine::Collision</text>
<text xml:space="preserve" text-anchor="middle" x="73.25" y="-406.5" font-family="Helvetica,sans-Serif" font-size="10.00">::onUpdate</text>
</a>
</g>
</g>
<!-- Node2&#45;&gt;Node3 -->
<g id="edge2_Node000002_Node000003" class="edge">
<title>Node2&#45;&gt;Node3</title>
<g id="a_edge2_Node000002_Node000003"><a xlink:title=" ">
<path fill="none" stroke="#63b8ff" d="M204.11,-360.18C187.09,-370.35 166.14,-382.09 146.5,-391 139.85,-394.02 132.73,-396.89 125.63,-399.54"/>
<polygon fill="#63b8ff" stroke="#63b8ff" points="205.6,-363.37 212.34,-355.2 201.97,-357.38 205.6,-363.37"/>
</a>
</g>
</g>
<!-- Node4&#45;&gt;Node3 -->
<g id="edge5_Node000004_Node000003" class="edge">
<title>Node4&#45;&gt;Node3</title>
<g id="a_edge5_Node000004_Node000003"><a xlink:title=" ">
<path fill="none" stroke="#63b8ff" d="M226.98,-235.82C215.05,-255.2 196.76,-285.7 182.5,-313 164.82,-346.84 174.8,-365.37 146.5,-391 142.07,-395.01 136.97,-398.38 131.56,-401.22"/>
<polygon fill="#63b8ff" stroke="#63b8ff" points="229.8,-237.92 232.09,-227.58 223.85,-234.23 229.8,-237.92"/>
</a>
</g>
</g>
<!-- Node5 -->
<g id="Node000005" class="node">
<title>Node5</title>
<g id="a_Node000005"><a xlink:href="classGameEngine_1_1Animation.html#a92efc46a052b2627ed60ac8a2c81b3e2" target="_top" xlink:title=" ">
<polygon fill="white" stroke="#666666" points="134.12,-382 12.38,-382 12.38,-350 134.12,-350 134.12,-382"/>
<text xml:space="preserve" text-anchor="start" x="20.38" y="-368.5" font-family="Helvetica,sans-Serif" font-size="10.00">GameEngine::Animation</text>
<text xml:space="preserve" text-anchor="middle" x="73.25" y="-356.5" font-family="Helvetica,sans-Serif" font-size="10.00">::onUpdate</text>
</a>
</g>
</g>
<!-- Node4&#45;&gt;Node5 -->
<g id="edge4_Node000004_Node000005" class="edge">
<title>Node4&#45;&gt;Node5</title>
<g id="a_edge4_Node000004_Node000005"><a xlink:title=" ">
<path fill="none" stroke="#63b8ff" d="M229.24,-236.44C214.61,-263.97 185.02,-312.77 146.5,-341 142.11,-344.22 137.27,-347.04 132.25,-349.53"/>
<polygon fill="#63b8ff" stroke="#63b8ff" points="232.26,-238.22 233.73,-227.73 226.04,-235.01 232.26,-238.22"/>
</a>
</g>
</g>
<!-- Node6 -->
<g id="Node000006" class="node">
<title>Node6</title>
<g id="a_Node000006"><a xlink:href="classGameEngine_1_1Death.html#a081a250ee3a8d22b7dd2323dbaba0eb7" target="_top" xlink:title=" ">
<polygon fill="white" stroke="#666666" points="128.5,-332 18,-332 18,-300 128.5,-300 128.5,-332"/>
<text xml:space="preserve" text-anchor="start" x="26" y="-318.5" font-family="Helvetica,sans-Serif" font-size="10.00">GameEngine::Death::</text>
<text xml:space="preserve" text-anchor="middle" x="73.25" y="-306.5" font-family="Helvetica,sans-Serif" font-size="10.00">onUpdate</text>
</a>
</g>
</g>
<!-- Node4&#45;&gt;Node6 -->
<g id="edge6_Node000004_Node000006" class="edge">
<title>Node4&#45;&gt;Node6</title>
<g id="a_edge6_Node000004_Node000006"><a xlink:title=" ">
<path fill="none" stroke="#63b8ff" d="M220.82,-234.27C203.02,-250.95 174.75,-275.34 146.5,-291 140.81,-294.15 134.65,-297.02 128.42,-299.58"/>
<polygon fill="#63b8ff" stroke="#63b8ff" points="223.22,-236.82 228.02,-227.38 218.38,-231.76 223.22,-236.82"/>
</a>
</g>
</g>
<!-- Node7 -->
<g id="Node000007" class="node">
<title>Node7</title>
<g id="a_Node000007"><a xlink:href="classGameEngine_1_1DomainHandler.html#a2e491047939e77c803075c6c490d54ee" target="_top" xlink:title="Updates the system, checking entity positions against their domain boundaries.">
<polygon fill="white" stroke="#666666" points="146.12,-282 0.38,-282 0.38,-250 146.12,-250 146.12,-282"/>
<text xml:space="preserve" text-anchor="start" x="8.38" y="-268.5" font-family="Helvetica,sans-Serif" font-size="10.00">GameEngine::DomainHandler</text>
<text xml:space="preserve" text-anchor="middle" x="73.25" y="-256.5" font-family="Helvetica,sans-Serif" font-size="10.00">::onUpdate</text>
</a>
</g>
</g>
<!-- Node4&#45;&gt;Node7 -->
<g id="edge7_Node000004_Node000007" class="edge">
<title>Node4&#45;&gt;Node7</title>
<g id="a_edge7_Node000004_Node000007"><a xlink:title=" ">
<path fill="none" stroke="#63b8ff" d="M193.96,-229.75C173.76,-235.87 149.8,-243.12 128.65,-249.53"/>
<polygon fill="#63b8ff" stroke="#63b8ff" points="194.75,-233.17 203.31,-226.92 192.73,-226.47 194.75,-233.17"/>
</a>
</g>
</g>
<!-- Node8 -->
<g id="Node000008" class="node">
<title>Node8</title>
<g id="a_Node000008"><a xlink:href="classGameEngine_1_1FPApplyGravity.html#a4fc5342f686d0c3bc6acd4f8c85cb720" target="_top" xlink:title=" ">
<polygon fill="white" stroke="#666666" points="146.5,-232 0,-232 0,-200 146.5,-200 146.5,-232"/>
<text xml:space="preserve" text-anchor="start" x="8" y="-218.5" font-family="Helvetica,sans-Serif" font-size="10.00">GameEngine::FPApplyGravity</text>
<text xml:space="preserve" text-anchor="middle" x="73.25" y="-206.5" font-family="Helvetica,sans-Serif" font-size="10.00">::onUpdate</text>
</a>
</g>
</g>
<!-- Node4&#45;&gt;Node8 -->
<g id="edge8_Node000004_Node000008" class="edge">
<title>Node4&#45;&gt;Node8</title>
<g id="a_edge8_Node000004_Node000008"><a xlink:title=" ">
<path fill="none" stroke="#63b8ff" d="M188.93,-216C175.61,-216 160.98,-216 146.75,-216"/>
<polygon fill="#63b8ff" stroke="#63b8ff" points="188.73,-219.5 198.73,-216 188.73,-212.5 188.73,-219.5"/>
</a>
</g>
</g>
<!-- Node9 -->
<g id="Node000009" class="node">
<title>Node9</title>
<g id="a_Node000009"><a xlink:href="classGameEngine_1_1FPInputHandler.html#adc119a8b423c28985d8a8e87baad6421" target="_top" xlink:title=" ">
<polygon fill="white" stroke="#666666" points="146.5,-182 0,-182 0,-150 146.5,-150 146.5,-182"/>
<text xml:space="preserve" text-anchor="start" x="8" y="-168.5" font-family="Helvetica,sans-Serif" font-size="10.00">GameEngine::FPInputHandler</text>
<text xml:space="preserve" text-anchor="middle" x="73.25" y="-156.5" font-family="Helvetica,sans-Serif" font-size="10.00">::onUpdate</text>
</a>
</g>
</g>
<!-- Node4&#45;&gt;Node9 -->
<g id="edge9_Node000004_Node000009" class="edge">
<title>Node4&#45;&gt;Node9</title>
<g id="a_edge9_Node000004_Node000009"><a xlink:title=" ">
<path fill="none" stroke="#63b8ff" d="M193.96,-202.25C173.76,-196.13 149.8,-188.88 128.65,-182.47"/>
<polygon fill="#63b8ff" stroke="#63b8ff" points="192.73,-205.53 203.31,-205.08 194.75,-198.83 192.73,-205.53"/>
</a>
</g>
</g>
<!-- Node10 -->
<g id="Node000010" class="node">
<title>Node10</title>
<g id="a_Node000010"><a xlink:href="classGameEngine_1_1FPMotion.html#adeee4196198d928de33feb2182396c85" target="_top" xlink:title=" ">
<polygon fill="white" stroke="#666666" points="133.38,-132 13.12,-132 13.12,-100 133.38,-100 133.38,-132"/>
<text xml:space="preserve" text-anchor="start" x="21.12" y="-118.5" font-family="Helvetica,sans-Serif" font-size="10.00">GameEngine::FPMotion</text>
<text xml:space="preserve" text-anchor="middle" x="73.25" y="-106.5" font-family="Helvetica,sans-Serif" font-size="10.00">::onUpdate</text>
</a>
</g>
</g>
<!-- Node4&#45;&gt;Node10 -->
<g id="edge10_Node000004_Node000010" class="edge">
<title>Node4&#45;&gt;Node10</title>
<g id="a_edge10_Node000004_Node000010"><a xlink:title=" ">
<path fill="none" stroke="#63b8ff" d="M220.82,-197.73C203.02,-181.05 174.75,-156.66 146.5,-141 140.81,-137.85 134.65,-134.98 128.42,-132.42"/>
<polygon fill="#63b8ff" stroke="#63b8ff" points="218.38,-200.24 228.02,-204.62 223.22,-195.18 218.38,-200.24"/>
</a>
</g>
</g>
<!-- Node4&#45;&gt;Node11 -->
<g id="edge11_Node000004_Node000011" class="edge">
<title>Node4&#45;&gt;Node11</title>
<g id="a_edge11_Node000004_Node000011"><a xlink:title=" ">
<path fill="none" stroke="#63b8ff" d="M228.14,-195.57C216.57,-174.46 198.09,-140.53 182.5,-111 166.17,-80.06 172.93,-63.92 146.5,-41 142.69,-37.7 138.42,-34.82 133.91,-32.32"/>
<polygon fill="#63b8ff" stroke="#63b8ff" points="225.04,-197.2 232.92,-204.28 231.18,-193.83 225.04,-197.2"/>
</a>
</g>
</g>
<!-- Node12 -->
<g id="Node000012" class="node">
<title>Node12</title>
<g id="a_Node000012"><a xlink:href="classGameEngine_1_1Motion.html#a015b898244098b869ceb6001884ae9fe" target="_top" xlink:title=" ">
<polygon fill="white" stroke="#666666" points="127,-82 19.5,-82 19.5,-50 127,-50 127,-82"/>
<text xml:space="preserve" text-anchor="start" x="27.5" y="-68.5" font-family="Helvetica,sans-Serif" font-size="10.00">GameEngine::Motion</text>
<text xml:space="preserve" text-anchor="middle" x="73.25" y="-56.5" font-family="Helvetica,sans-Serif" font-size="10.00">::onUpdate</text>
</a>
</g>
</g>
<!-- Node4&#45;&gt;Node12 -->
<g id="edge12_Node000004_Node000012" class="edge">
<title>Node4&#45;&gt;Node12</title>
<g id="a_edge12_Node000004_Node000012"><a xlink:title=" ">
<path fill="none" stroke="#63b8ff" d="M229.24,-195.56C214.61,-168.03 185.02,-119.23 146.5,-91 140.72,-86.76 134.16,-83.2 127.41,-80.22"/>
<polygon fill="#63b8ff" stroke="#63b8ff" points="226.04,-196.99 233.73,-204.27 232.26,-193.78 226.04,-196.99"/>
</a>
</g>
</g>
</g>
</svg>
