<?xml version="1.0" encoding="UTF-8" standalone="no"?>
<!DOCTYPE svg PUBLIC "-//W3C//DTD SVG 1.1//EN"
 "http://www.w3.org/Graphics/SVG/1.1/DTD/svg11.dtd">
<!-- Generated by graphviz version 14.0.1 (0)
 -->
<!-- Title: GameEngine::Motion::onUpdate Pages: 1 -->
<svg width="749pt" height="280pt"
 viewBox="0.00 0.00 749.00 280.00" xmlns="http://www.w3.org/2000/svg" xmlns:xlink="http://www.w3.org/1999/xlink">
<g id="graph0" class="graph" transform="scale(1 1) rotate(0) translate(4 276)">
<title>GameEngine::Motion::onUpdate</title>
<!-- Node1 -->
<g id="Node000001" class="node">
<title>Node1</title>
<g id="a_Node000001"><a xlink:title=" ">
<polygon fill="#999999" stroke="#666666" points="107.5,-145 0,-145 0,-113 107.5,-113 107.5,-145"/>
<text xml:space="preserve" text-anchor="start" x="8" y="-131.5" font-family="Helvetica,sans-Serif" font-size="10.00">GameEngine::Motion</text>
<text xml:space="preserve" text-anchor="middle" x="53.75" y="-119.5" font-family="Helvetica,sans-Serif" font-size="10.00">::onUpdate</text>
</a>
</g>
</g>
<!-- Node2 -->
<g id="Node000002" class="node">
<title>Node2</title>
<g id="a_Node000002"><a xlink:href="classRegistry.html#a31cfb49fd633086383bf646b39a8daa2" target="_top" xlink:title="Iterates through all entities that have all the specified components.">
<polygon fill="white" stroke="#666666" points="253.25,-158 173.5,-158 173.5,-138 253.25,-138 253.25,-158"/>
<text xml:space="preserve" text-anchor="middle" x="213.38" y="-144.5" font-family="Helvetica,sans-Serif" font-size="10.00">Registry::each</text>
</a>
</g>
</g>
<!-- Node1&#45;&gt;Node2 -->
<g id="edge1_Node000001_Node000002" class="edge">
<title>Node1&#45;&gt;Node2</title>
<g id="a_edge1_Node000001_Node000002"><a xlink:title=" ">
<path fill="none" stroke="#63b8ff" d="M107.68,-135.38C125.28,-137.5 144.83,-139.86 162.22,-141.95"/>
<polygon fill="#63b8ff" stroke="#63b8ff" points="161.45,-145.39 171.79,-143.11 162.29,-138.44 161.45,-145.39"/>
</a>
</g>
</g>
<!-- Node12 -->
<g id="Node000012" class="node">
<title>Node12</title>
<g id="a_Node000012"><a xlink:href="classSystem.html#ac7b716e6d41ff508ad2d8e5dad655d72" target="_top" xlink:title=" ">
<polygon fill="white" stroke="#666666" points="283.25,-120 143.5,-120 143.5,-100 283.25,-100 283.25,-120"/>
<text xml:space="preserve" text-anchor="middle" x="213.38" y="-106.5" font-family="Helvetica,sans-Serif" font-size="10.00">System&lt; Motion &gt;::Registry</text>
</a>
</g>
</g>
<!-- Node1&#45;&gt;Node12 -->
<g id="edge15_Node000001_Node000012" class="edge">
<title>Node1&#45;&gt;Node12</title>
<g id="a_edge15_Node000001_Node000012"><a xlink:title=" ">
<path fill="none" stroke="#63b8ff" d="M107.68,-122.62C115.48,-121.68 123.67,-120.69 131.89,-119.7"/>
<polygon fill="#63b8ff" stroke="#63b8ff" points="132.06,-123.21 141.57,-118.53 131.22,-116.26 132.06,-123.21"/>
</a>
</g>
</g>
<!-- Node3 -->
<g id="Node000003" class="node">
<title>Node3</title>
<g id="a_Node000003"><a xlink:href="classRegistry.html#acd4bfce3db63792e03b353900dc89f76" target="_top" xlink:title="Ensures that a component pool exists for the given component ID. Creates it if necessary.">
<polygon fill="white" stroke="#666666" points="438.75,-272 331.25,-272 331.25,-252 438.75,-252 438.75,-272"/>
<text xml:space="preserve" text-anchor="middle" x="385" y="-258.5" font-family="Helvetica,sans-Serif" font-size="10.00">Registry::assurePool</text>
</a>
</g>
</g>
<!-- Node2&#45;&gt;Node3 -->
<g id="edge2_Node000002_Node000003" class="edge">
<title>Node2&#45;&gt;Node3</title>
<g id="a_edge2_Node000002_Node000003"><a xlink:title=" ">
<path fill="none" stroke="#63b8ff" d="M223.86,-158.25C241.22,-176.5 279.97,-214.87 319.25,-238 325.28,-241.55 331.94,-244.73 338.61,-247.53"/>
<polygon fill="#63b8ff" stroke="#63b8ff" points="337.03,-250.67 347.62,-251.05 339.57,-244.15 337.03,-250.67"/>
</a>
</g>
</g>
<!-- Node4 -->
<g id="Node000004" class="node">
<title>Node4</title>
<g id="a_Node000004"><a xlink:href="classRegistry.html#a11f1e4d7d7ef1a84640adddf32c1f862" target="_top" xlink:title="Gets a reference to a component of type Component for entity e.">
<polygon fill="white" stroke="#666666" points="421.12,-158 348.88,-158 348.88,-138 421.12,-138 421.12,-158"/>
<text xml:space="preserve" text-anchor="middle" x="385" y="-144.5" font-family="Helvetica,sans-Serif" font-size="10.00">Registry::get</text>
</a>
</g>
</g>
<!-- Node2&#45;&gt;Node4 -->
<g id="edge3_Node000002_Node000004" class="edge">
<title>Node2&#45;&gt;Node4</title>
<g id="a_edge3_Node000002_Node000004"><a xlink:title=" ">
<path fill="none" stroke="#63b8ff" d="M253.72,-148C278.7,-148 311.15,-148 337.41,-148"/>
<polygon fill="#63b8ff" stroke="#63b8ff" points="337.11,-151.5 347.11,-148 337.11,-144.5 337.11,-151.5"/>
</a>
</g>
</g>
<!-- Node5 -->
<g id="Node000005" class="node">
<title>Node5</title>
<g id="a_Node000005"><a xlink:href="classComponentRegistry.html#a4d993c2bab87c6bdac36ba8f589eca5f" target="_top" xlink:title="Retrieves or creates a unique ID for the given component type T.">
<polygon fill="white" stroke="#666666" points="595.75,-208 486.75,-208 486.75,-176 595.75,-176 595.75,-208"/>
<text xml:space="preserve" text-anchor="start" x="494.75" y="-194.5" font-family="Helvetica,sans-Serif" font-size="10.00">ComponentRegistry::</text>
<text xml:space="preserve" text-anchor="middle" x="541.25" y="-182.5" font-family="Helvetica,sans-Serif" font-size="10.00">getOrCreateID</text>
</a>
</g>
</g>
<!-- Node2&#45;&gt;Node5 -->
<g id="edge9_Node000002_Node000005" class="edge">
<title>Node2&#45;&gt;Node5</title>
<g id="a_edge9_Node000002_Node000005"><a xlink:title=" ">
<path fill="none" stroke="#63b8ff" d="M228.02,-158.35C247.17,-172.17 283.7,-195.96 319.25,-205 370.65,-218.07 430.85,-213.27 475.43,-206.07"/>
<polygon fill="#63b8ff" stroke="#63b8ff" points="475.94,-209.53 485.2,-204.4 474.76,-202.63 475.94,-209.53"/>
</a>
</g>
</g>
<!-- Node7 -->
<g id="Node000007" class="node">
<title>Node7</title>
<g id="a_Node000007"><a xlink:href="classComponentRegistry.html#a18cad5dda10f4bb28fb6933f5aa85fce" target="_top" xlink:title="Provides access to the global ComponentRegistry instance.">
<polygon fill="white" stroke="#666666" points="595.75,-158 486.75,-158 486.75,-126 595.75,-126 595.75,-158"/>
<text xml:space="preserve" text-anchor="start" x="494.75" y="-144.5" font-family="Helvetica,sans-Serif" font-size="10.00">ComponentRegistry::</text>
<text xml:space="preserve" text-anchor="middle" x="541.25" y="-132.5" font-family="Helvetica,sans-Serif" font-size="10.00">instance</text>
</a>
</g>
</g>
<!-- Node2&#45;&gt;Node7 -->
<g id="edge13_Node000002_Node000007" class="edge">
<title>Node2&#45;&gt;Node7</title>
<g id="a_edge13_Node000002_Node000007"><a xlink:title=" ">
<path fill="none" stroke="#63b8ff" d="M253.49,-139.19C273.12,-135.21 297.32,-130.97 319.25,-129 377.46,-123.77 392.46,-124.79 450.75,-129 458.72,-129.58 467.05,-130.44 475.29,-131.44"/>
<polygon fill="#63b8ff" stroke="#63b8ff" points="474.56,-134.88 484.93,-132.7 475.47,-127.94 474.56,-134.88"/>
</a>
</g>
</g>
<!-- Node9 -->
<g id="Node000009" class="node">
<title>Node9</title>
<g id="a_Node000009"><a xlink:href="structRegistry_1_1IComponentPool.html#ad4a1001874d3ea8f343fbbcf4988c507" target="_top" xlink:title=" ">
<polygon fill="white" stroke="#666666" points="450.75,-82 319.25,-82 319.25,-50 450.75,-50 450.75,-82"/>
<text xml:space="preserve" text-anchor="start" x="327.25" y="-68.5" font-family="Helvetica,sans-Serif" font-size="10.00">Registry::IComponentPool</text>
<text xml:space="preserve" text-anchor="middle" x="385" y="-56.5" font-family="Helvetica,sans-Serif" font-size="10.00">::getEntityAt</text>
</a>
</g>
</g>
<!-- Node2&#45;&gt;Node9 -->
<g id="edge8_Node000002_Node000009" class="edge">
<title>Node2&#45;&gt;Node9</title>
<g id="a_edge8_Node000002_Node000009"><a xlink:title=" ">
<path fill="none" stroke="#63b8ff" d="M253.52,-140.63C263.58,-137.83 274.13,-134.05 283.25,-129 302.24,-118.49 301.19,-108.04 319.25,-96 323.72,-93.02 328.53,-90.19 333.44,-87.55"/>
<polygon fill="#63b8ff" stroke="#63b8ff" points="334.91,-90.73 342.23,-83.07 331.73,-84.49 334.91,-90.73"/>
</a>
</g>
</g>
<!-- Node10 -->
<g id="Node000010" class="node">
<title>Node10</title>
<g id="a_Node000010"><a xlink:href="classRegistry.html#acac1f1c8a740cfeb2b33a32cfd6ad83f" target="_top" xlink:title="Checks if entity e has a component of type Component.">
<polygon fill="white" stroke="#666666" points="422.25,-196 347.75,-196 347.75,-176 422.25,-176 422.25,-196"/>
<text xml:space="preserve" text-anchor="middle" x="385" y="-182.5" font-family="Helvetica,sans-Serif" font-size="10.00">Registry::has</text>
</a>
</g>
</g>
<!-- Node2&#45;&gt;Node10 -->
<g id="edge10_Node000002_Node000010" class="edge">
<title>Node2&#45;&gt;Node10</title>
<g id="a_edge10_Node000002_Node000010"><a xlink:title=" ">
<path fill="none" stroke="#63b8ff" d="M253.72,-156.81C278.35,-162.33 310.26,-169.48 336.33,-175.32"/>
<polygon fill="#63b8ff" stroke="#63b8ff" points="335.48,-178.72 346,-177.49 337.01,-171.89 335.48,-178.72"/>
</a>
</g>
</g>
<!-- Node11 -->
<g id="Node000011" class="node">
<title>Node11</title>
<g id="a_Node000011"><a xlink:href="structRegistry_1_1IComponentPool.html#af60edba4f576e1c34ed07f6dd4e9348b" target="_top" xlink:title=" ">
<polygon fill="white" stroke="#666666" points="450.75,-32 319.25,-32 319.25,0 450.75,0 450.75,-32"/>
<text xml:space="preserve" text-anchor="start" x="327.25" y="-18.5" font-family="Helvetica,sans-Serif" font-size="10.00">Registry::IComponentPool</text>
<text xml:space="preserve" text-anchor="middle" x="385" y="-6.5" font-family="Helvetica,sans-Serif" font-size="10.00">::size</text>
</a>
</g>
</g>
<!-- Node2&#45;&gt;Node11 -->
<g id="edge14_Node000002_Node000011" class="edge">
<title>Node2&#45;&gt;Node11</title>
<g id="a_edge14_Node000002_Node000011"><a xlink:title=" ">
<path fill="none" stroke="#63b8ff" d="M253.52,-143.65C264.15,-140.86 274.99,-136.33 283.25,-129 314.86,-100.95 289.07,-70.58 319.25,-41 319.98,-40.28 320.74,-39.58 321.52,-38.9"/>
<polygon fill="#63b8ff" stroke="#63b8ff" points="323.28,-41.95 329.31,-33.23 319.16,-36.29 323.28,-41.95"/>
</a>
</g>
</g>
<!-- Node4&#45;&gt;Node5 -->
<g id="edge4_Node000004_Node000005" class="edge">
<title>Node4&#45;&gt;Node5</title>
<g id="a_edge4_Node000004_Node000005"><a xlink:title=" ">
<path fill="none" stroke="#63b8ff" d="M421.39,-158.09C437.37,-162.65 456.78,-168.19 475.24,-173.46"/>
<polygon fill="#63b8ff" stroke="#63b8ff" points="474.23,-176.81 484.81,-176.19 476.16,-170.08 474.23,-176.81"/>
</a>
</g>
</g>
<!-- Node4&#45;&gt;Node7 -->
<g id="edge6_Node000004_Node000007" class="edge">
<title>Node4&#45;&gt;Node7</title>
<g id="a_edge6_Node000004_Node000007"><a xlink:title=" ">
<path fill="none" stroke="#63b8ff" d="M421.39,-146.62C437.3,-146 456.6,-145.25 474.98,-144.54"/>
<polygon fill="#63b8ff" stroke="#63b8ff" points="474.9,-148.04 484.75,-144.16 474.63,-141.05 474.9,-148.04"/>
</a>
</g>
</g>
<!-- Node6 -->
<g id="Node000006" class="node">
<title>Node6</title>
<g id="a_Node000006"><a xlink:href="classComponentRegistry.html#ab1cc8a486cae16a19268264c69f9af80" target="_top" xlink:title="Computes a new unique ID for a type T, or returns the existing one.">
<polygon fill="white" stroke="#666666" points="740.75,-208 631.75,-208 631.75,-176 740.75,-176 740.75,-208"/>
<text xml:space="preserve" text-anchor="start" x="639.75" y="-194.5" font-family="Helvetica,sans-Serif" font-size="10.00">ComponentRegistry::</text>
<text xml:space="preserve" text-anchor="middle" x="686.25" y="-182.5" font-family="Helvetica,sans-Serif" font-size="10.00">computeID</text>
</a>
</g>
</g>
<!-- Node5&#45;&gt;Node6 -->
<g id="edge5_Node000005_Node000006" class="edge">
<title>Node5&#45;&gt;Node6</title>
<g id="a_edge5_Node000005_Node000006"><a xlink:title=" ">
<path fill="none" stroke="#63b8ff" d="M595.9,-192C603.77,-192 611.94,-192 620.01,-192"/>
<polygon fill="#63b8ff" stroke="#63b8ff" points="619.78,-195.5 629.78,-192 619.78,-188.5 619.78,-195.5"/>
</a>
</g>
</g>
<!-- Node8 -->
<g id="Node000008" class="node">
<title>Node8</title>
<g id="a_Node000008"><a xlink:href="classComponentRegistry.html#a3bbfefb19e284845afb80ce0a4dd739a" target="_top" xlink:title="Private constructor for singleton pattern. Initializes internal containers with reserved capacity.">
<polygon fill="white" stroke="#666666" points="740.75,-158 631.75,-158 631.75,-126 740.75,-126 740.75,-158"/>
<text xml:space="preserve" text-anchor="start" x="639.75" y="-144.5" font-family="Helvetica,sans-Serif" font-size="10.00">ComponentRegistry::</text>
<text xml:space="preserve" text-anchor="middle" x="686.25" y="-132.5" font-family="Helvetica,sans-Serif" font-size="10.00">ComponentRegistry</text>
</a>
</g>
</g>
<!-- Node7&#45;&gt;Node8 -->
<g id="edge7_Node000007_Node000008" class="edge">
<title>Node7&#45;&gt;Node8</title>
<g id="a_edge7_Node000007_Node000008"><a xlink:title=" ">
<path fill="none" stroke="#63b8ff" d="M595.9,-142C603.77,-142 611.94,-142 620.01,-142"/>
<polygon fill="#63b8ff" stroke="#63b8ff" points="619.78,-145.5 629.78,-142 619.78,-138.5 619.78,-145.5"/>
</a>
</g>
</g>
<!-- Node10&#45;&gt;Node5 -->
<g id="edge11_Node000010_Node000005" class="edge">
<title>Node10&#45;&gt;Node5</title>
<g id="a_edge11_Node000010_Node000005"><a xlink:title=" ">
<path fill="none" stroke="#63b8ff" d="M422.56,-187.42C438.27,-188.03 457.12,-188.77 475.09,-189.47"/>
<polygon fill="#63b8ff" stroke="#63b8ff" points="474.79,-192.96 484.91,-189.85 475.06,-185.96 474.79,-192.96"/>
</a>
</g>
</g>
<!-- Node10&#45;&gt;Node7 -->
<g id="edge12_Node000010_Node000007" class="edge">
<title>Node10&#45;&gt;Node7</title>
<g id="a_edge12_Node000010_Node000007"><a xlink:title=" ">
<path fill="none" stroke="#63b8ff" d="M422.56,-175.57C438.42,-171.05 457.48,-165.61 475.6,-160.44"/>
<polygon fill="#63b8ff" stroke="#63b8ff" points="476.31,-163.88 484.97,-157.77 474.39,-157.15 476.31,-163.88"/>
</a>
</g>
</g>
</g>
</svg>
