<?xml version="1.0" encoding="UTF-8" standalone="no"?>
<!DOCTYPE svg PUBLIC "-//W3C//DTD SVG 1.1//EN"
 "http://www.w3.org/Graphics/SVG/1.1/DTD/svg11.dtd">
<!-- Generated by graphviz version 14.0.2 (0)
 -->
<!-- Title: ComponentRegistry::getOrCreateID Pages: 1 -->
<svg width="628pt" height="560pt"
 viewBox="0.00 0.00 628.00 560.00" xmlns="http://www.w3.org/2000/svg" xmlns:xlink="http://www.w3.org/1999/xlink">
<g id="graph0" class="graph" transform="scale(1 1) rotate(0) translate(4 556)">
<title>ComponentRegistry::getOrCreateID</title>
<!-- Node1 -->
<g id="Node000001" class="node">
<title>Node1</title>
<g id="a_Node000001"><a xlink:title="Retrieves or creates a unique ID for the given component type T.">
<polygon fill="#999999" stroke="#666666" points="619.75,-190 510.75,-190 510.75,-158 619.75,-158 619.75,-190"/>
<text xml:space="preserve" text-anchor="start" x="518.75" y="-176.5" font-family="Helvetica,sans-Serif" font-size="10.00">ComponentRegistry::</text>
<text xml:space="preserve" text-anchor="middle" x="565.25" y="-164.5" font-family="Helvetica,sans-Serif" font-size="10.00">getOrCreateID</text>
</a>
</g>
</g>
<!-- Node2 -->
<g id="Node000002" class="node">
<title>Node2</title>
<g id="a_Node000002"><a xlink:href="classRegistry.html#a7a17141d6ad949dbc4792cb638665226" target="_top" xlink:title="Counts how many components of type Component currently exist.">
<polygon fill="white" stroke="#666666" points="445.88,-336 363.12,-336 363.12,-316 445.88,-316 445.88,-336"/>
<text xml:space="preserve" text-anchor="middle" x="404.5" y="-322.5" font-family="Helvetica,sans-Serif" font-size="10.00">Registry::count</text>
</a>
</g>
</g>
<!-- Node1&#45;&gt;Node2 -->
<g id="edge1_Node000001_Node000002" class="edge">
<title>Node1&#45;&gt;Node2</title>
<g id="a_edge1_Node000001_Node000002"><a xlink:title=" ">
<path fill="none" stroke="#63b8ff" d="M553.33,-200.49C539.5,-230.77 512.79,-279.66 474.75,-307 466.35,-313.04 456.11,-317.16 446.12,-319.97"/>
<polygon fill="#63b8ff" stroke="#63b8ff" points="556.41,-202.2 557.24,-191.64 550,-199.38 556.41,-202.2"/>
</a>
</g>
</g>
<!-- Node3 -->
<g id="Node000003" class="node">
<title>Node3</title>
<g id="a_Node000003"><a xlink:href="classRegistry.html#a31cfb49fd633086383bf646b39a8daa2" target="_top" xlink:title="Iterates through all entities that have all the specified components.">
<polygon fill="white" stroke="#666666" points="280.25,-297 200.5,-297 200.5,-277 280.25,-277 280.25,-297"/>
<text xml:space="preserve" text-anchor="middle" x="240.38" y="-283.5" font-family="Helvetica,sans-Serif" font-size="10.00">Registry::each</text>
</a>
</g>
</g>
<!-- Node1&#45;&gt;Node3 -->
<g id="edge2_Node000001_Node000003" class="edge">
<title>Node1&#45;&gt;Node3</title>
<g id="a_edge2_Node000001_Node000003"><a xlink:title=" ">
<path fill="none" stroke="#63b8ff" d="M533.72,-197.04C517.04,-208.67 495.59,-222.16 474.75,-231 439.94,-245.77 337.18,-267.75 280.32,-279.29"/>
<polygon fill="#63b8ff" stroke="#63b8ff" points="535.61,-199.99 541.72,-191.33 531.54,-194.29 535.61,-199.99"/>
</a>
</g>
</g>
<!-- Node13 -->
<g id="Node000013" class="node">
<title>Node13</title>
<g id="a_Node000013"><a xlink:href="classRegistry.html#ab12b0e856e109cd94af4aeb5e969de24" target="_top" xlink:title="Adds a new component of type Component to entity e.">
<polygon fill="white" stroke="#666666" points="288.12,-142 192.62,-142 192.62,-122 288.12,-122 288.12,-142"/>
<text xml:space="preserve" text-anchor="middle" x="240.38" y="-128.5" font-family="Helvetica,sans-Serif" font-size="10.00">Registry::emplace</text>
</a>
</g>
</g>
<!-- Node1&#45;&gt;Node13 -->
<g id="edge12_Node000001_Node000013" class="edge">
<title>Node1&#45;&gt;Node13</title>
<g id="a_edge12_Node000001_Node000013"><a xlink:title=" ">
<path fill="none" stroke="#63b8ff" d="M499.14,-171.41C452.9,-168.89 389.47,-164.06 334.25,-155 315.4,-151.91 294.74,-146.95 277.71,-142.43"/>
<polygon fill="#63b8ff" stroke="#63b8ff" points="498.83,-174.9 509,-171.92 499.19,-167.9 498.83,-174.9"/>
</a>
</g>
</g>
<!-- Node14 -->
<g id="Node000014" class="node">
<title>Node14</title>
<g id="a_Node000014"><a xlink:href="classRegistry.html#a11f1e4d7d7ef1a84640adddf32c1f862" target="_top" xlink:title="Gets a reference to a component of type Component for entity e.">
<polygon fill="white" stroke="#666666" points="440.62,-222 368.38,-222 368.38,-202 440.62,-202 440.62,-222"/>
<text xml:space="preserve" text-anchor="middle" x="404.5" y="-208.5" font-family="Helvetica,sans-Serif" font-size="10.00">Registry::get</text>
</a>
</g>
</g>
<!-- Node1&#45;&gt;Node14 -->
<g id="edge14_Node000001_Node000014" class="edge">
<title>Node1&#45;&gt;Node14</title>
<g id="a_edge14_Node000001_Node000014"><a xlink:title=" ">
<path fill="none" stroke="#63b8ff" d="M499.51,-189.5C479.41,-194.31 458.02,-199.43 440.73,-203.57"/>
<polygon fill="#63b8ff" stroke="#63b8ff" points="500.12,-192.95 509.03,-187.22 498.49,-186.14 500.12,-192.95"/>
</a>
</g>
</g>
<!-- Node16 -->
<g id="Node000016" class="node">
<title>Node16</title>
<g id="a_Node000016"><a xlink:href="classRegistry.html#ac846fa6831fe9b792391b36fa8572d1d" target="_top" xlink:title="Const version of get().">
<polygon fill="white" stroke="#666666" points="440.62,-146 368.38,-146 368.38,-126 440.62,-126 440.62,-146"/>
<text xml:space="preserve" text-anchor="middle" x="404.5" y="-132.5" font-family="Helvetica,sans-Serif" font-size="10.00">Registry::get</text>
</a>
</g>
</g>
<!-- Node1&#45;&gt;Node16 -->
<g id="edge19_Node000001_Node000016" class="edge">
<title>Node1&#45;&gt;Node16</title>
<g id="a_edge19_Node000001_Node000016"><a xlink:title=" ">
<path fill="none" stroke="#63b8ff" d="M499.51,-158.5C479.41,-153.69 458.02,-148.57 440.73,-144.43"/>
<polygon fill="#63b8ff" stroke="#63b8ff" points="498.49,-161.86 509.03,-160.78 500.12,-155.05 498.49,-161.86"/>
</a>
</g>
</g>
<!-- Node17 -->
<g id="Node000017" class="node">
<title>Node17</title>
<g id="a_Node000017"><a xlink:href="classRegistry.html#acac1f1c8a740cfeb2b33a32cfd6ad83f" target="_top" xlink:title="Checks if entity e has a component of type Component.">
<polygon fill="white" stroke="#666666" points="441.75,-298 367.25,-298 367.25,-278 441.75,-278 441.75,-298"/>
<text xml:space="preserve" text-anchor="middle" x="404.5" y="-284.5" font-family="Helvetica,sans-Serif" font-size="10.00">Registry::has</text>
</a>
</g>
</g>
<!-- Node1&#45;&gt;Node17 -->
<g id="edge20_Node000001_Node000017" class="edge">
<title>Node1&#45;&gt;Node17</title>
<g id="a_edge20_Node000001_Node000017"><a xlink:title=" ">
<path fill="none" stroke="#63b8ff" d="M544.81,-199.08C528.13,-219.1 502.46,-246.59 474.75,-264 464.84,-270.23 453.11,-275.08 442.14,-278.74"/>
<polygon fill="#63b8ff" stroke="#63b8ff" points="547.48,-201.34 551.08,-191.37 542.05,-196.92 547.48,-201.34"/>
</a>
</g>
</g>
<!-- Node18 -->
<g id="Node000018" class="node">
<title>Node18</title>
<g id="a_Node000018"><a xlink:href="classRegistry.html#a629e3280396e2e8cc06434895e746639" target="_top" xlink:title="Removes a component of type Component from entity e.">
<polygon fill="white" stroke="#666666" points="450,-108 359,-108 359,-88 450,-88 450,-108"/>
<text xml:space="preserve" text-anchor="middle" x="404.5" y="-94.5" font-family="Helvetica,sans-Serif" font-size="10.00">Registry::remove</text>
</a>
</g>
</g>
<!-- Node1&#45;&gt;Node18 -->
<g id="edge22_Node000001_Node000018" class="edge">
<title>Node1&#45;&gt;Node18</title>
<g id="a_edge22_Node000001_Node000018"><a xlink:title=" ">
<path fill="none" stroke="#63b8ff" d="M533.26,-151C516.6,-139.49 495.3,-126.12 474.75,-117 467,-113.56 458.48,-110.61 450.15,-108.13"/>
<polygon fill="#63b8ff" stroke="#63b8ff" points="531.07,-153.74 541.26,-156.64 535.1,-148.02 531.07,-153.74"/>
</a>
</g>
</g>
<!-- Node19 -->
<g id="Node000019" class="node">
<title>Node19</title>
<g id="a_Node000019"><a xlink:href="classSystem.html#a3debf9a0bb97844f19da1c818d4dd3e3" target="_top" xlink:title="Declares required components using their names as strings.">
<polygon fill="white" stroke="#666666" points="474.75,-70 334.25,-70 334.25,-38 474.75,-38 474.75,-70"/>
<text xml:space="preserve" text-anchor="start" x="342.25" y="-56.5" font-family="Helvetica,sans-Serif" font-size="10.00">System::requireComponents</text>
<text xml:space="preserve" text-anchor="middle" x="404.5" y="-44.5" font-family="Helvetica,sans-Serif" font-size="10.00">ByName</text>
</a>
</g>
</g>
<!-- Node1&#45;&gt;Node19 -->
<g id="edge23_Node000001_Node000019" class="edge">
<title>Node1&#45;&gt;Node19</title>
<g id="a_edge23_Node000001_Node000019"><a xlink:title=" ">
<path fill="none" stroke="#63b8ff" d="M545.83,-148.59C529.32,-127.41 503.33,-97.76 474.75,-79 469.83,-75.77 464.45,-72.9 458.92,-70.36"/>
<polygon fill="#63b8ff" stroke="#63b8ff" points="542.97,-150.62 551.81,-156.46 548.55,-146.38 542.97,-150.62"/>
</a>
</g>
</g>
<!-- Node20 -->
<g id="Node000020" class="node">
<title>Node20</title>
<g id="a_Node000020"><a xlink:href="classRegistry.html#a864a9feb3c9cffc43296ae8bb1aa2e3a" target="_top" xlink:title="Returns a reference to the SparseSet storing all components of type Component.">
<polygon fill="white" stroke="#666666" points="444,-20 365,-20 365,0 444,0 444,-20"/>
<text xml:space="preserve" text-anchor="middle" x="404.5" y="-6.5" font-family="Helvetica,sans-Serif" font-size="10.00">Registry::view</text>
</a>
</g>
</g>
<!-- Node1&#45;&gt;Node20 -->
<g id="edge24_Node000001_Node000020" class="edge">
<title>Node1&#45;&gt;Node20</title>
<g id="a_edge24_Node000001_Node000020"><a xlink:title=" ">
<path fill="none" stroke="#63b8ff" d="M554.76,-147.12C541.8,-114.31 515.42,-59.46 474.75,-29 465.97,-22.42 455.04,-18.12 444.48,-15.31"/>
<polygon fill="#63b8ff" stroke="#63b8ff" points="551.43,-148.21 558.25,-156.31 557.98,-145.72 551.43,-148.21"/>
</a>
</g>
</g>
<!-- Node4 -->
<g id="Node000004" class="node">
<title>Node4</title>
<g id="a_Node000004"><a xlink:href="classGameEngine_1_1Animation.html#a92efc46a052b2627ed60ac8a2c81b3e2" target="_top" xlink:title=" ">
<polygon fill="white" stroke="#666666" points="134.12,-252 12.38,-252 12.38,-220 134.12,-220 134.12,-252"/>
<text xml:space="preserve" text-anchor="start" x="20.38" y="-238.5" font-family="Helvetica,sans-Serif" font-size="10.00">GameEngine::Animation</text>
<text xml:space="preserve" text-anchor="middle" x="73.25" y="-226.5" font-family="Helvetica,sans-Serif" font-size="10.00">::onUpdate</text>
</a>
</g>
</g>
<!-- Node3&#45;&gt;Node4 -->
<g id="edge3_Node000003_Node000004" class="edge">
<title>Node3&#45;&gt;Node4</title>
<g id="a_edge3_Node000003_Node000004"><a xlink:title=" ">
<path fill="none" stroke="#63b8ff" d="M194.82,-273.24C174.08,-266.83 149.25,-259.16 127.52,-252.45"/>
<polygon fill="#63b8ff" stroke="#63b8ff" points="193.53,-276.5 204.11,-276.11 195.59,-269.81 193.53,-276.5"/>
</a>
</g>
</g>
<!-- Node5 -->
<g id="Node000005" class="node">
<title>Node5</title>
<g id="a_Node000005"><a xlink:href="classGameEngine_1_1Collision.html#a49f26a6547e81a9cebf7ad5436fb7101" target="_top" xlink:title=" ">
<polygon fill="white" stroke="#666666" points="131.12,-202 15.38,-202 15.38,-170 131.12,-170 131.12,-202"/>
<text xml:space="preserve" text-anchor="start" x="23.38" y="-188.5" font-family="Helvetica,sans-Serif" font-size="10.00">GameEngine::Collision</text>
<text xml:space="preserve" text-anchor="middle" x="73.25" y="-176.5" font-family="Helvetica,sans-Serif" font-size="10.00">::onUpdate</text>
</a>
</g>
</g>
<!-- Node3&#45;&gt;Node5 -->
<g id="edge4_Node000003_Node000005" class="edge">
<title>Node3&#45;&gt;Node5</title>
<g id="a_edge4_Node000003_Node000005"><a xlink:title=" ">
<path fill="none" stroke="#63b8ff" d="M218.48,-269.24C193.57,-248.18 154.32,-215.37 146.5,-211 140.82,-207.83 134.67,-204.95 128.44,-202.38"/>
<polygon fill="#63b8ff" stroke="#63b8ff" points="216.18,-271.88 226.07,-275.67 220.7,-266.54 216.18,-271.88"/>
</a>
</g>
</g>
<!-- Node6 -->
<g id="Node000006" class="node">
<title>Node6</title>
<g id="a_Node000006"><a xlink:href="classGameEngine_1_1Death.html#a081a250ee3a8d22b7dd2323dbaba0eb7" target="_top" xlink:title=" ">
<polygon fill="white" stroke="#666666" points="128.5,-552 18,-552 18,-520 128.5,-520 128.5,-552"/>
<text xml:space="preserve" text-anchor="start" x="26" y="-538.5" font-family="Helvetica,sans-Serif" font-size="10.00">GameEngine::Death::</text>
<text xml:space="preserve" text-anchor="middle" x="73.25" y="-526.5" font-family="Helvetica,sans-Serif" font-size="10.00">onUpdate</text>
</a>
</g>
</g>
<!-- Node3&#45;&gt;Node6 -->
<g id="edge5_Node000003_Node000006" class="edge">
<title>Node3&#45;&gt;Node6</title>
<g id="a_edge5_Node000003_Node000006"><a xlink:title=" ">
<path fill="none" stroke="#63b8ff" d="M236.38,-308.73C229.13,-353.03 206.61,-454.39 146.5,-511 141.38,-515.82 135.28,-519.72 128.83,-522.87"/>
<polygon fill="#63b8ff" stroke="#63b8ff" points="239.83,-309.28 237.87,-298.87 232.91,-308.23 239.83,-309.28"/>
</a>
</g>
</g>
<!-- Node7 -->
<g id="Node000007" class="node">
<title>Node7</title>
<g id="a_Node000007"><a xlink:href="classGameEngine_1_1DomainHandler.html#a2e491047939e77c803075c6c490d54ee" target="_top" xlink:title="Updates the system, checking entity positions against their domain boundaries.">
<polygon fill="white" stroke="#666666" points="146.12,-502 0.38,-502 0.38,-470 146.12,-470 146.12,-502"/>
<text xml:space="preserve" text-anchor="start" x="8.38" y="-488.5" font-family="Helvetica,sans-Serif" font-size="10.00">GameEngine::DomainHandler</text>
<text xml:space="preserve" text-anchor="middle" x="73.25" y="-476.5" font-family="Helvetica,sans-Serif" font-size="10.00">::onUpdate</text>
</a>
</g>
</g>
<!-- Node3&#45;&gt;Node7 -->
<g id="edge6_Node000003_Node000007" class="edge">
<title>Node3&#45;&gt;Node7</title>
<g id="a_edge6_Node000003_Node000007"><a xlink:title=" ">
<path fill="none" stroke="#63b8ff" d="M233.68,-308.07C222.79,-344.42 195.63,-419.04 146.5,-461 142.66,-464.28 138.38,-467.13 133.85,-469.61"/>
<polygon fill="#63b8ff" stroke="#63b8ff" points="236.95,-309.34 236.34,-298.77 230.22,-307.42 236.95,-309.34"/>
</a>
</g>
</g>
<!-- Node8 -->
<g id="Node000008" class="node">
<title>Node8</title>
<g id="a_Node000008"><a xlink:href="classGameEngine_1_1FPApplyGravity.html#a4fc5342f686d0c3bc6acd4f8c85cb720" target="_top" xlink:title=" ">
<polygon fill="white" stroke="#666666" points="146.5,-452 0,-452 0,-420 146.5,-420 146.5,-452"/>
<text xml:space="preserve" text-anchor="start" x="8" y="-438.5" font-family="Helvetica,sans-Serif" font-size="10.00">GameEngine::FPApplyGravity</text>
<text xml:space="preserve" text-anchor="middle" x="73.25" y="-426.5" font-family="Helvetica,sans-Serif" font-size="10.00">::onUpdate</text>
</a>
</g>
</g>
<!-- Node3&#45;&gt;Node8 -->
<g id="edge7_Node000003_Node000008" class="edge">
<title>Node3&#45;&gt;Node8</title>
<g id="a_edge7_Node000003_Node000008"><a xlink:title=" ">
<path fill="none" stroke="#63b8ff" d="M229.2,-307.28C214.52,-334.59 184.88,-382.99 146.5,-411 142.1,-414.21 137.26,-417.03 132.23,-419.51"/>
<polygon fill="#63b8ff" stroke="#63b8ff" points="232.18,-309.13 233.7,-298.64 225.98,-305.89 232.18,-309.13"/>
</a>
</g>
</g>
<!-- Node9 -->
<g id="Node000009" class="node">
<title>Node9</title>
<g id="a_Node000009"><a xlink:href="classGameEngine_1_1FPInputHandler.html#adc119a8b423c28985d8a8e87baad6421" target="_top" xlink:title=" ">
<polygon fill="white" stroke="#666666" points="146.5,-402 0,-402 0,-370 146.5,-370 146.5,-402"/>
<text xml:space="preserve" text-anchor="start" x="8" y="-388.5" font-family="Helvetica,sans-Serif" font-size="10.00">GameEngine::FPInputHandler</text>
<text xml:space="preserve" text-anchor="middle" x="73.25" y="-376.5" font-family="Helvetica,sans-Serif" font-size="10.00">::onUpdate</text>
</a>
</g>
</g>
<!-- Node3&#45;&gt;Node9 -->
<g id="edge8_Node000003_Node000009" class="edge">
<title>Node3&#45;&gt;Node9</title>
<g id="a_edge8_Node000003_Node000009"><a xlink:title=" ">
<path fill="none" stroke="#63b8ff" d="M220.48,-305.28C202.63,-321.72 174.5,-345.6 146.5,-361 140.8,-364.13 134.64,-366.99 128.4,-369.55"/>
<polygon fill="#63b8ff" stroke="#63b8ff" points="222.83,-307.88 227.72,-298.48 218.03,-302.78 222.83,-307.88"/>
</a>
</g>
</g>
<!-- Node10 -->
<g id="Node000010" class="node">
<title>Node10</title>
<g id="a_Node000010"><a xlink:href="classGameEngine_1_1FPMotion.html#adeee4196198d928de33feb2182396c85" target="_top" xlink:title=" ">
<polygon fill="white" stroke="#666666" points="133.38,-352 13.12,-352 13.12,-320 133.38,-320 133.38,-352"/>
<text xml:space="preserve" text-anchor="start" x="21.12" y="-338.5" font-family="Helvetica,sans-Serif" font-size="10.00">GameEngine::FPMotion</text>
<text xml:space="preserve" text-anchor="middle" x="73.25" y="-326.5" font-family="Helvetica,sans-Serif" font-size="10.00">::onUpdate</text>
</a>
</g>
</g>
<!-- Node3&#45;&gt;Node10 -->
<g id="edge9_Node000003_Node000010" class="edge">
<title>Node3&#45;&gt;Node10</title>
<g id="a_edge9_Node000003_Node000010"><a xlink:title=" ">
<path fill="none" stroke="#63b8ff" d="M193.47,-300.62C173.7,-306.49 150.41,-313.4 129.69,-319.55"/>
<polygon fill="#63b8ff" stroke="#63b8ff" points="194.31,-304.02 202.91,-297.82 192.32,-297.31 194.31,-304.02"/>
</a>
</g>
</g>
<!-- Node11 -->
<g id="Node000011" class="node">
<title>Node11</title>
<g id="a_Node000011"><a xlink:href="classGameEngine_1_1InputHandler.html#acb0d11bd1241dad8925f26b86f6d9007" target="_top" xlink:title=" ">
<polygon fill="white" stroke="#666666" points="140.12,-152 6.38,-152 6.38,-120 140.12,-120 140.12,-152"/>
<text xml:space="preserve" text-anchor="start" x="14.38" y="-138.5" font-family="Helvetica,sans-Serif" font-size="10.00">GameEngine::InputHandler</text>
<text xml:space="preserve" text-anchor="middle" x="73.25" y="-126.5" font-family="Helvetica,sans-Serif" font-size="10.00">::onUpdate</text>
</a>
</g>
</g>
<!-- Node3&#45;&gt;Node11 -->
<g id="edge10_Node000003_Node000011" class="edge">
<title>Node3&#45;&gt;Node11</title>
<g id="a_edge10_Node000003_Node000011"><a xlink:title=" ">
<path fill="none" stroke="#63b8ff" d="M214.44,-269.83C203.62,-261.46 191.4,-250.68 182.5,-239 159.36,-208.63 174.8,-186.63 146.5,-161 142.86,-157.7 138.76,-154.84 134.42,-152.35"/>
<polygon fill="#63b8ff" stroke="#63b8ff" points="212.15,-272.48 222.27,-275.62 216.31,-266.86 212.15,-272.48"/>
</a>
</g>
</g>
<!-- Node12 -->
<g id="Node000012" class="node">
<title>Node12</title>
<g id="a_Node000012"><a xlink:href="classGameEngine_1_1Motion.html#a015b898244098b869ceb6001884ae9fe" target="_top" xlink:title=" ">
<polygon fill="white" stroke="#666666" points="127,-302 19.5,-302 19.5,-270 127,-270 127,-302"/>
<text xml:space="preserve" text-anchor="start" x="27.5" y="-288.5" font-family="Helvetica,sans-Serif" font-size="10.00">GameEngine::Motion</text>
<text xml:space="preserve" text-anchor="middle" x="73.25" y="-276.5" font-family="Helvetica,sans-Serif" font-size="10.00">::onUpdate</text>
</a>
</g>
</g>
<!-- Node3&#45;&gt;Node12 -->
<g id="edge11_Node000003_Node000012" class="edge">
<title>Node3&#45;&gt;Node12</title>
<g id="a_edge11_Node000003_Node000012"><a xlink:title=" ">
<path fill="none" stroke="#63b8ff" d="M188.85,-286.69C169.41,-286.58 147.16,-286.44 127.47,-286.32"/>
<polygon fill="#63b8ff" stroke="#63b8ff" points="188.71,-290.19 198.73,-286.75 188.75,-283.19 188.71,-290.19"/>
</a>
</g>
</g>
<!-- Node13&#45;&gt;Node11 -->
<g id="edge13_Node000013_Node000011" class="edge">
<title>Node13&#45;&gt;Node11</title>
<g id="a_edge13_Node000013_Node000011"><a xlink:title=" ">
<path fill="none" stroke="#63b8ff" d="M181.17,-133.41C167.97,-133.73 153.85,-134.07 140.35,-134.4"/>
<polygon fill="#63b8ff" stroke="#63b8ff" points="181.07,-136.91 190.99,-133.17 180.9,-129.92 181.07,-136.91"/>
</a>
</g>
</g>
<!-- Node14&#45;&gt;Node3 -->
<g id="edge17_Node000014_Node000003" class="edge">
<title>Node14&#45;&gt;Node3</title>
<g id="a_edge17_Node000014_Node000003"><a xlink:title=" ">
<path fill="none" stroke="#63b8ff" d="M358.9,-226.21C350.61,-229.2 342.09,-232.52 334.25,-236 306.85,-248.17 276.69,-265.52 258.39,-276.52"/>
<polygon fill="#63b8ff" stroke="#63b8ff" points="359.88,-229.58 368.17,-222.98 357.57,-222.97 359.88,-229.58"/>
</a>
</g>
</g>
<!-- Node14&#45;&gt;Node11 -->
<g id="edge18_Node000014_Node000011" class="edge">
<title>Node14&#45;&gt;Node11</title>
<g id="a_edge18_Node000014_Node000011"><a xlink:title=" ">
<path fill="none" stroke="#63b8ff" d="M356.85,-201.23C300.34,-188.19 204.76,-166.12 140.59,-151.31"/>
<polygon fill="#63b8ff" stroke="#63b8ff" points="355.95,-204.62 366.48,-203.45 357.52,-197.79 355.95,-204.62"/>
</a>
</g>
</g>
<!-- Node15 -->
<g id="Node000015" class="node">
<title>Node15</title>
<g id="a_Node000015"><a xlink:href="classGameEngine_1_1Collision.html#a64427d8df75feb70d3039f2e376d7480" target="_top" xlink:title=" ">
<polygon fill="white" stroke="#666666" points="298.25,-230 182.5,-230 182.5,-198 298.25,-198 298.25,-230"/>
<text xml:space="preserve" text-anchor="start" x="190.5" y="-216.5" font-family="Helvetica,sans-Serif" font-size="10.00">GameEngine::Collision</text>
<text xml:space="preserve" text-anchor="middle" x="240.38" y="-204.5" font-family="Helvetica,sans-Serif" font-size="10.00">::collide</text>
</a>
</g>
</g>
<!-- Node14&#45;&gt;Node15 -->
<g id="edge15_Node000014_Node000015" class="edge">
<title>Node14&#45;&gt;Node15</title>
<g id="a_edge15_Node000014_Node000015"><a xlink:title=" ">
<path fill="none" stroke="#63b8ff" d="M356.47,-212.58C338.36,-212.8 317.49,-213.06 298.53,-213.29"/>
<polygon fill="#63b8ff" stroke="#63b8ff" points="356.45,-216.08 366.41,-212.46 356.37,-209.08 356.45,-216.08"/>
</a>
</g>
</g>
<!-- Node15&#45;&gt;Node5 -->
<g id="edge16_Node000015_Node000005" class="edge">
<title>Node15&#45;&gt;Node5</title>
<g id="a_edge16_Node000015_Node000005"><a xlink:title=" ">
<path fill="none" stroke="#63b8ff" d="M170.75,-202.36C157.67,-200.15 144.11,-197.85 131.44,-195.7"/>
<polygon fill="#63b8ff" stroke="#63b8ff" points="170.15,-205.81 180.59,-204.03 171.32,-198.91 170.15,-205.81"/>
</a>
</g>
</g>
<!-- Node17&#45;&gt;Node3 -->
<g id="edge21_Node000017_Node000003" class="edge">
<title>Node17&#45;&gt;Node3</title>
<g id="a_edge21_Node000017_Node000003"><a xlink:title=" ">
<path fill="none" stroke="#63b8ff" d="M355.77,-287.71C331.8,-287.56 303.12,-287.38 280.47,-287.24"/>
<polygon fill="#63b8ff" stroke="#63b8ff" points="355.58,-291.2 365.6,-287.77 355.62,-284.2 355.58,-291.2"/>
</a>
</g>
</g>
</g>
</svg>
