<?xml version="1.0" encoding="UTF-8" standalone="no"?>
<!DOCTYPE svg PUBLIC "-//W3C//DTD SVG 1.1//EN"
 "http://www.w3.org/Graphics/SVG/1.1/DTD/svg11.dtd">
<!-- Generated by graphviz version 14.0.2 (0)
 -->
<!-- Title: GameEngine::Collision::onUpdate Pages: 1 -->
<svg width="733pt" height="317pt"
 viewBox="0.00 0.00 733.00 317.00" xmlns="http://www.w3.org/2000/svg" xmlns:xlink="http://www.w3.org/1999/xlink">
<g id="graph0" class="graph" transform="scale(1 1) rotate(0) translate(4 313.22)">
<title>GameEngine::Collision::onUpdate</title>
<!-- Node1 -->
<g id="Node000001" class="node">
<title>Node1</title>
<g id="a_Node000001"><a xlink:title=" ">
<polygon fill="#999999" stroke="#666666" points="115.75,-76 0,-76 0,-44 115.75,-44 115.75,-76"/>
<text xml:space="preserve" text-anchor="start" x="8" y="-62.5" font-family="Helvetica,sans-Serif" font-size="10.00">GameEngine::Collision</text>
<text xml:space="preserve" text-anchor="middle" x="57.88" y="-50.5" font-family="Helvetica,sans-Serif" font-size="10.00">::onUpdate</text>
</a>
</g>
</g>
<!-- Node2 -->
<g id="Node000002" class="node">
<title>Node2</title>
<g id="a_Node000002"><a xlink:href="classGameEngine_1_1Collision.html#a64427d8df75feb70d3039f2e376d7480" target="_top" xlink:title=" ">
<polygon fill="white" stroke="#666666" points="267.5,-76 151.75,-76 151.75,-44 267.5,-44 267.5,-76"/>
<text xml:space="preserve" text-anchor="start" x="159.75" y="-62.5" font-family="Helvetica,sans-Serif" font-size="10.00">GameEngine::Collision</text>
<text xml:space="preserve" text-anchor="middle" x="209.62" y="-50.5" font-family="Helvetica,sans-Serif" font-size="10.00">::collide</text>
</a>
</g>
</g>
<!-- Node1&#45;&gt;Node2 -->
<g id="edge1_Node000001_Node000002" class="edge">
<title>Node1&#45;&gt;Node2</title>
<g id="a_edge1_Node000001_Node000002"><a xlink:title=" ">
<path fill="none" stroke="#63b8ff" d="M115.92,-60C123.89,-60 132.16,-60 140.32,-60"/>
<polygon fill="#63b8ff" stroke="#63b8ff" points="140.23,-63.5 150.23,-60 140.23,-56.5 140.23,-63.5"/>
</a>
</g>
</g>
<!-- Node8 -->
<g id="Node000008" class="node">
<title>Node8</title>
<g id="a_Node000008"><a xlink:href="classSystem.html#ac7b716e6d41ff508ad2d8e5dad655d72" target="_top" xlink:title=" ">
<polygon fill="white" stroke="#666666" points="421.88,-32 316.62,-32 316.62,0 421.88,0 421.88,-32"/>
<text xml:space="preserve" text-anchor="start" x="324.62" y="-18.5" font-family="Helvetica,sans-Serif" font-size="10.00">System&lt; Collision &gt;</text>
<text xml:space="preserve" text-anchor="middle" x="369.25" y="-6.5" font-family="Helvetica,sans-Serif" font-size="10.00">::Registry</text>
</a>
</g>
</g>
<!-- Node1&#45;&gt;Node8 -->
<g id="edge18_Node000001_Node000008" class="edge">
<title>Node1&#45;&gt;Node8</title>
<g id="a_edge18_Node000001_Node000008"><a xlink:title=" ">
<path fill="none" stroke="#63b8ff" d="M113.52,-43.58C125.99,-40.31 139.25,-37.21 151.75,-35 202.91,-25.94 261.67,-21.13 305.05,-18.62"/>
<polygon fill="#63b8ff" stroke="#63b8ff" points="304.99,-22.13 314.79,-18.08 304.61,-15.14 304.99,-22.13"/>
</a>
</g>
</g>
<!-- Node9 -->
<g id="Node000009" class="node">
<title>Node9</title>
<g id="a_Node000009"><a xlink:href="classRegistry.html#a31cfb49fd633086383bf646b39a8daa2" target="_top" xlink:title="Iterates through all entities that have all the specified components.">
<polygon fill="white" stroke="#666666" points="249.5,-177 169.75,-177 169.75,-157 249.5,-157 249.5,-177"/>
<text xml:space="preserve" text-anchor="middle" x="209.62" y="-163.5" font-family="Helvetica,sans-Serif" font-size="10.00">Registry::each</text>
</a>
</g>
</g>
<!-- Node1&#45;&gt;Node9 -->
<g id="edge8_Node000001_Node000009" class="edge">
<title>Node1&#45;&gt;Node9</title>
<g id="a_edge8_Node000001_Node000009"><a xlink:title=" ">
<path fill="none" stroke="#63b8ff" d="M81.95,-76.48C109.98,-96.52 157.02,-130.13 185.21,-150.27"/>
<polygon fill="#63b8ff" stroke="#63b8ff" points="182.93,-152.94 193.1,-155.91 187,-147.25 182.93,-152.94"/>
</a>
</g>
</g>
<!-- Node3 -->
<g id="Node000003" class="node">
<title>Node3</title>
<g id="a_Node000003"><a xlink:href="classRegistry.html#a11f1e4d7d7ef1a84640adddf32c1f862" target="_top" xlink:title="Gets a reference to a component of type Component for entity e.">
<polygon fill="white" stroke="#666666" points="405.38,-70 333.12,-70 333.12,-50 405.38,-50 405.38,-70"/>
<text xml:space="preserve" text-anchor="middle" x="369.25" y="-56.5" font-family="Helvetica,sans-Serif" font-size="10.00">Registry::get</text>
</a>
</g>
</g>
<!-- Node2&#45;&gt;Node3 -->
<g id="edge2_Node000002_Node000003" class="edge">
<title>Node2&#45;&gt;Node3</title>
<g id="a_edge2_Node000002_Node000003"><a xlink:title=" ">
<path fill="none" stroke="#63b8ff" d="M267.98,-60C285.57,-60 304.71,-60 321.51,-60"/>
<polygon fill="#63b8ff" stroke="#63b8ff" points="321.2,-63.5 331.2,-60 321.2,-56.5 321.2,-63.5"/>
</a>
</g>
</g>
<!-- Node2&#45;&gt;Node8 -->
<g id="edge7_Node000002_Node000008" class="edge">
<title>Node2&#45;&gt;Node8</title>
<g id="a_edge7_Node000002_Node000008"><a xlink:title=" ">
<path fill="none" stroke="#63b8ff" d="M267.98,-43.99C280.04,-40.62 292.83,-37.05 305.09,-33.63"/>
<polygon fill="#63b8ff" stroke="#63b8ff" points="306.02,-37 314.71,-30.94 304.14,-30.26 306.02,-37"/>
</a>
</g>
</g>
<!-- Node4 -->
<g id="Node000004" class="node">
<title>Node4</title>
<g id="a_Node000004"><a xlink:href="classComponentRegistry.html#a4d993c2bab87c6bdac36ba8f589eca5f" target="_top" xlink:title="Retrieves or creates a unique ID for the given component type T.">
<polygon fill="white" stroke="#666666" points="580,-114 471,-114 471,-82 580,-82 580,-114"/>
<text xml:space="preserve" text-anchor="start" x="479" y="-100.5" font-family="Helvetica,sans-Serif" font-size="10.00">ComponentRegistry::</text>
<text xml:space="preserve" text-anchor="middle" x="525.5" y="-88.5" font-family="Helvetica,sans-Serif" font-size="10.00">getOrCreateID</text>
</a>
</g>
</g>
<!-- Node3&#45;&gt;Node4 -->
<g id="edge3_Node000003_Node000004" class="edge">
<title>Node3&#45;&gt;Node4</title>
<g id="a_edge3_Node000003_Node000004"><a xlink:title=" ">
<path fill="none" stroke="#63b8ff" d="M405.64,-68.72C421.62,-72.66 441.03,-77.44 459.49,-81.98"/>
<polygon fill="#63b8ff" stroke="#63b8ff" points="458.5,-85.35 469.05,-84.34 460.17,-78.55 458.5,-85.35"/>
</a>
</g>
</g>
<!-- Node6 -->
<g id="Node000006" class="node">
<title>Node6</title>
<g id="a_Node000006"><a xlink:href="classComponentRegistry.html#a18cad5dda10f4bb28fb6933f5aa85fce" target="_top" xlink:title="Provides access to the global ComponentRegistry instance.">
<polygon fill="white" stroke="#666666" points="580,-290 471,-290 471,-258 580,-258 580,-290"/>
<text xml:space="preserve" text-anchor="start" x="479" y="-276.5" font-family="Helvetica,sans-Serif" font-size="10.00">ComponentRegistry::</text>
<text xml:space="preserve" text-anchor="middle" x="525.5" y="-264.5" font-family="Helvetica,sans-Serif" font-size="10.00">instance</text>
</a>
</g>
</g>
<!-- Node3&#45;&gt;Node6 -->
<g id="edge5_Node000003_Node000006" class="edge">
<title>Node3&#45;&gt;Node6</title>
<g id="a_edge5_Node000003_Node000006"><a xlink:title=" ">
<path fill="none" stroke="#63b8ff" d="M384.62,-70.4C398.63,-81.02 419.96,-98.54 435,-117 469,-158.74 497.63,-215.07 512.82,-247.67"/>
<polygon fill="#63b8ff" stroke="#63b8ff" points="509.46,-248.75 516.81,-256.39 515.83,-245.84 509.46,-248.75"/>
</a>
</g>
</g>
<!-- Node5 -->
<g id="Node000005" class="node">
<title>Node5</title>
<g id="a_Node000005"><a xlink:href="classComponentRegistry.html#ab1cc8a486cae16a19268264c69f9af80" target="_top" xlink:title="Computes a new unique ID for a type T, or returns the existing one.">
<polygon fill="white" stroke="#666666" points="725,-114 616,-114 616,-82 725,-82 725,-114"/>
<text xml:space="preserve" text-anchor="start" x="624" y="-100.5" font-family="Helvetica,sans-Serif" font-size="10.00">ComponentRegistry::</text>
<text xml:space="preserve" text-anchor="middle" x="670.5" y="-88.5" font-family="Helvetica,sans-Serif" font-size="10.00">computeID</text>
</a>
</g>
</g>
<!-- Node4&#45;&gt;Node5 -->
<g id="edge4_Node000004_Node000005" class="edge">
<title>Node4&#45;&gt;Node5</title>
<g id="a_edge4_Node000004_Node000005"><a xlink:title=" ">
<path fill="none" stroke="#63b8ff" d="M580.15,-98C588.02,-98 596.19,-98 604.26,-98"/>
<polygon fill="#63b8ff" stroke="#63b8ff" points="604.03,-101.5 614.03,-98 604.03,-94.5 604.03,-101.5"/>
</a>
</g>
</g>
<!-- Node7 -->
<g id="Node000007" class="node">
<title>Node7</title>
<g id="a_Node000007"><a xlink:href="classComponentRegistry.html#a3bbfefb19e284845afb80ce0a4dd739a" target="_top" xlink:title="Private constructor for singleton pattern. Initializes internal containers with reserved capacity.">
<polygon fill="white" stroke="#666666" points="725,-290 616,-290 616,-258 725,-258 725,-290"/>
<text xml:space="preserve" text-anchor="start" x="624" y="-276.5" font-family="Helvetica,sans-Serif" font-size="10.00">ComponentRegistry::</text>
<text xml:space="preserve" text-anchor="middle" x="670.5" y="-264.5" font-family="Helvetica,sans-Serif" font-size="10.00">ComponentRegistry</text>
</a>
</g>
</g>
<!-- Node6&#45;&gt;Node7 -->
<g id="edge6_Node000006_Node000007" class="edge">
<title>Node6&#45;&gt;Node7</title>
<g id="a_edge6_Node000006_Node000007"><a xlink:title=" ">
<path fill="none" stroke="#63b8ff" d="M580.15,-274C588.02,-274 596.19,-274 604.26,-274"/>
<polygon fill="#63b8ff" stroke="#63b8ff" points="604.03,-277.5 614.03,-274 604.03,-270.5 604.03,-277.5"/>
</a>
</g>
</g>
<!-- Node9&#45;&gt;Node3 -->
<g id="edge10_Node000009_Node000003" class="edge">
<title>Node9&#45;&gt;Node3</title>
<g id="a_edge10_Node000009_Node000003"><a xlink:title=" ">
<path fill="none" stroke="#63b8ff" d="M219.68,-156.71C235.27,-139.53 268.86,-104.86 303.5,-84 309.43,-80.43 315.98,-77.25 322.57,-74.46"/>
<polygon fill="#63b8ff" stroke="#63b8ff" points="323.44,-77.88 331.46,-70.96 320.87,-71.37 323.44,-77.88"/>
</a>
</g>
</g>
<!-- Node9&#45;&gt;Node4 -->
<g id="edge12_Node000009_Node000004" class="edge">
<title>Node9&#45;&gt;Node4</title>
<g id="a_edge12_Node000009_Node000004"><a xlink:title=" ">
<path fill="none" stroke="#63b8ff" d="M225.24,-156.67C242.87,-144.8 273.84,-125.84 303.5,-117 354.42,-101.81 414.66,-97.48 459.37,-96.71"/>
<polygon fill="#63b8ff" stroke="#63b8ff" points="459.21,-100.21 469.17,-96.6 459.13,-93.21 459.21,-100.21"/>
</a>
</g>
</g>
<!-- Node9&#45;&gt;Node6 -->
<g id="edge16_Node000009_Node000006" class="edge">
<title>Node9&#45;&gt;Node6</title>
<g id="a_edge16_Node000009_Node000006"><a xlink:title=" ">
<path fill="none" stroke="#63b8ff" d="M214.44,-177.39C224.42,-202.83 254.02,-268 303.5,-293 355.85,-319.45 424.12,-307.7 470.85,-293.85"/>
<polygon fill="#63b8ff" stroke="#63b8ff" points="471.7,-297.25 480.21,-290.94 469.62,-290.57 471.7,-297.25"/>
</a>
</g>
</g>
<!-- Node10 -->
<g id="Node000010" class="node">
<title>Node10</title>
<g id="a_Node000010"><a xlink:href="classRegistry.html#acd4bfce3db63792e03b353900dc89f76" target="_top" xlink:title="Ensures that a component pool exists for the given component ID. Creates it if necessary.">
<polygon fill="white" stroke="#666666" points="423,-246 315.5,-246 315.5,-226 423,-226 423,-246"/>
<text xml:space="preserve" text-anchor="middle" x="369.25" y="-232.5" font-family="Helvetica,sans-Serif" font-size="10.00">Registry::assurePool</text>
</a>
</g>
</g>
<!-- Node9&#45;&gt;Node10 -->
<g id="edge9_Node000009_Node000010" class="edge">
<title>Node9&#45;&gt;Node10</title>
<g id="a_edge9_Node000009_Node000010"><a xlink:title=" ">
<path fill="none" stroke="#63b8ff" d="M227.22,-177.31C245.42,-188.28 275.72,-205.59 303.5,-217 307.83,-218.78 312.38,-220.46 316.98,-222.04"/>
<polygon fill="#63b8ff" stroke="#63b8ff" points="315.7,-225.3 326.29,-225.06 317.86,-218.65 315.7,-225.3"/>
</a>
</g>
</g>
<!-- Node11 -->
<g id="Node000011" class="node">
<title>Node11</title>
<g id="a_Node000011"><a xlink:href="structRegistry_1_1IComponentPool.html#ad4a1001874d3ea8f343fbbcf4988c507" target="_top" xlink:title=" ">
<polygon fill="white" stroke="#666666" points="435,-208 303.5,-208 303.5,-176 435,-176 435,-208"/>
<text xml:space="preserve" text-anchor="start" x="311.5" y="-194.5" font-family="Helvetica,sans-Serif" font-size="10.00">Registry::IComponentPool</text>
<text xml:space="preserve" text-anchor="middle" x="369.25" y="-182.5" font-family="Helvetica,sans-Serif" font-size="10.00">::getEntityAt</text>
</a>
</g>
</g>
<!-- Node9&#45;&gt;Node11 -->
<g id="edge11_Node000009_Node000011" class="edge">
<title>Node9&#45;&gt;Node11</title>
<g id="a_edge11_Node000009_Node000011"><a xlink:title=" ">
<path fill="none" stroke="#63b8ff" d="M249.99,-173.24C262.78,-175.27 277.44,-177.6 291.98,-179.9"/>
<polygon fill="#63b8ff" stroke="#63b8ff" points="291.12,-183.31 301.55,-181.42 292.22,-176.4 291.12,-183.31"/>
</a>
</g>
</g>
<!-- Node12 -->
<g id="Node000012" class="node">
<title>Node12</title>
<g id="a_Node000012"><a xlink:href="classRegistry.html#acac1f1c8a740cfeb2b33a32cfd6ad83f" target="_top" xlink:title="Checks if entity e has a component of type Component.">
<polygon fill="white" stroke="#666666" points="406.5,-284 332,-284 332,-264 406.5,-264 406.5,-284"/>
<text xml:space="preserve" text-anchor="middle" x="369.25" y="-270.5" font-family="Helvetica,sans-Serif" font-size="10.00">Registry::has</text>
</a>
</g>
</g>
<!-- Node9&#45;&gt;Node12 -->
<g id="edge13_Node000009_Node000012" class="edge">
<title>Node9&#45;&gt;Node12</title>
<g id="a_edge13_Node000009_Node000012"><a xlink:title=" ">
<path fill="none" stroke="#63b8ff" d="M218.67,-177.34C233.48,-195.68 266.92,-233.96 303.5,-255 308.9,-258.1 314.84,-260.74 320.87,-262.96"/>
<polygon fill="#63b8ff" stroke="#63b8ff" points="319.7,-266.26 330.29,-266.06 321.89,-259.61 319.7,-266.26"/>
</a>
</g>
</g>
<!-- Node13 -->
<g id="Node000013" class="node">
<title>Node13</title>
<g id="a_Node000013"><a xlink:href="structRegistry_1_1IComponentPool.html#af60edba4f576e1c34ed07f6dd4e9348b" target="_top" xlink:title=" ">
<polygon fill="white" stroke="#666666" points="435,-158 303.5,-158 303.5,-126 435,-126 435,-158"/>
<text xml:space="preserve" text-anchor="start" x="311.5" y="-144.5" font-family="Helvetica,sans-Serif" font-size="10.00">Registry::IComponentPool</text>
<text xml:space="preserve" text-anchor="middle" x="369.25" y="-132.5" font-family="Helvetica,sans-Serif" font-size="10.00">::size</text>
</a>
</g>
</g>
<!-- Node9&#45;&gt;Node13 -->
<g id="edge17_Node000009_Node000013" class="edge">
<title>Node9&#45;&gt;Node13</title>
<g id="a_edge17_Node000009_Node000013"><a xlink:title=" ">
<path fill="none" stroke="#63b8ff" d="M249.99,-160.76C262.78,-158.73 277.44,-156.4 291.98,-154.1"/>
<polygon fill="#63b8ff" stroke="#63b8ff" points="292.22,-157.6 301.55,-152.58 291.12,-150.69 292.22,-157.6"/>
</a>
</g>
</g>
<!-- Node12&#45;&gt;Node4 -->
<g id="edge14_Node000012_Node000004" class="edge">
<title>Node12&#45;&gt;Node4</title>
<g id="a_edge14_Node000012_Node000004"><a xlink:title=" ">
<path fill="none" stroke="#63b8ff" d="M406.86,-268.45C416.73,-265.64 426.91,-261.39 435,-255 478.12,-220.91 504.14,-159.95 516.27,-124.86"/>
<polygon fill="#63b8ff" stroke="#63b8ff" points="519.56,-126.06 519.38,-115.47 512.91,-123.86 519.56,-126.06"/>
</a>
</g>
</g>
<!-- Node12&#45;&gt;Node6 -->
<g id="edge15_Node000012_Node000006" class="edge">
<title>Node12&#45;&gt;Node6</title>
<g id="a_edge15_Node000012_Node000006"><a xlink:title=" ">
<path fill="none" stroke="#63b8ff" d="M406.81,-274C422.52,-274 441.37,-274 459.34,-274"/>
<polygon fill="#63b8ff" stroke="#63b8ff" points="459.16,-277.5 469.16,-274 459.16,-270.5 459.16,-277.5"/>
</a>
</g>
</g>
</g>
</svg>
