<?xml version="1.0" encoding="UTF-8" standalone="no"?>
<!DOCTYPE svg PUBLIC "-//W3C//DTD SVG 1.1//EN"
 "http://www.w3.org/Graphics/SVG/1.1/DTD/svg11.dtd">
<!-- Generated by graphviz version 14.0.1 (0)
 -->
<!-- Title: Registry::get Pages: 1 -->
<svg width="414pt" height="240pt"
 viewBox="0.00 0.00 414.00 240.00" xmlns="http://www.w3.org/2000/svg" xmlns:xlink="http://www.w3.org/1999/xlink">
<g id="graph0" class="graph" transform="scale(1 1) rotate(0) translate(4 236)">
<title>Registry::get</title>
<!-- Node1 -->
<g id="Node000001" class="node">
<title>Node1</title>
<g id="a_Node000001"><a xlink:title="Gets a reference to a component of type Component for entity e.">
<polygon fill="#999999" stroke="#666666" points="405.75,-154 333.5,-154 333.5,-134 405.75,-134 405.75,-154"/>
<text xml:space="preserve" text-anchor="middle" x="369.62" y="-140.5" font-family="Helvetica,sans-Serif" font-size="10.00">Registry::get</text>
</a>
</g>
</g>
<!-- Node2 -->
<g id="Node000002" class="node">
<title>Node2</title>
<g id="a_Node000002"><a xlink:href="classGameEngine_1_1Collision.html#a64427d8df75feb70d3039f2e376d7480" target="_top" xlink:title=" ">
<polygon fill="white" stroke="#666666" points="297.5,-229 181.75,-229 181.75,-197 297.5,-197 297.5,-229"/>
<text xml:space="preserve" text-anchor="start" x="189.75" y="-215.5" font-family="Helvetica,sans-Serif" font-size="10.00">GameEngine::Collision</text>
<text xml:space="preserve" text-anchor="middle" x="239.62" y="-203.5" font-family="Helvetica,sans-Serif" font-size="10.00">::collide</text>
</a>
</g>
</g>
<!-- Node1&#45;&gt;Node2 -->
<g id="edge1_Node000001_Node000002" class="edge">
<title>Node1&#45;&gt;Node2</title>
<g id="a_edge1_Node000001_Node000002"><a xlink:title=" ">
<path fill="none" stroke="#63b8ff" d="M339.22,-159.85C318.87,-170.82 291.84,-185.39 271.23,-196.5"/>
<polygon fill="#63b8ff" stroke="#63b8ff" points="340.71,-163.02 347.85,-155.2 337.39,-156.86 340.71,-163.02"/>
</a>
</g>
</g>
<!-- Node3 -->
<g id="Node000003" class="node">
<title>Node3</title>
<g id="a_Node000003"><a xlink:href="classGameEngine_1_1Collision.html#a49f26a6547e81a9cebf7ad5436fb7101" target="_top" xlink:title=" ">
<polygon fill="white" stroke="#666666" points="130.75,-232 15,-232 15,-200 130.75,-200 130.75,-232"/>
<text xml:space="preserve" text-anchor="start" x="23" y="-218.5" font-family="Helvetica,sans-Serif" font-size="10.00">GameEngine::Collision</text>
<text xml:space="preserve" text-anchor="middle" x="72.88" y="-206.5" font-family="Helvetica,sans-Serif" font-size="10.00">::onUpdate</text>
</a>
</g>
</g>
<!-- Node1&#45;&gt;Node3 -->
<g id="edge9_Node000001_Node000003" class="edge">
<title>Node1&#45;&gt;Node3</title>
<g id="a_edge9_Node000001_Node000003"><a xlink:title=" ">
<path fill="none" stroke="#63b8ff" d="M321.91,-154.69C284.07,-163.42 229.4,-176.21 181.75,-188 165.32,-192.07 147.51,-196.63 131.2,-200.86"/>
<polygon fill="#63b8ff" stroke="#63b8ff" points="322.66,-158.11 331.61,-152.45 321.08,-151.29 322.66,-158.11"/>
</a>
</g>
</g>
<!-- Node4 -->
<g id="Node000004" class="node">
<title>Node4</title>
<g id="a_Node000004"><a xlink:href="classRegistry.html#a31cfb49fd633086383bf646b39a8daa2" target="_top" xlink:title="Iterates through all entities that have all the specified components.">
<polygon fill="white" stroke="#666666" points="279.5,-135 199.75,-135 199.75,-115 279.5,-115 279.5,-135"/>
<text xml:space="preserve" text-anchor="middle" x="239.62" y="-121.5" font-family="Helvetica,sans-Serif" font-size="10.00">Registry::each</text>
</a>
</g>
</g>
<!-- Node1&#45;&gt;Node4 -->
<g id="edge3_Node000001_Node000004" class="edge">
<title>Node1&#45;&gt;Node4</title>
<g id="a_edge3_Node000001_Node000004"><a xlink:title=" ">
<path fill="none" stroke="#63b8ff" d="M322.03,-137.08C308.2,-135.03 293.19,-132.8 279.88,-130.83"/>
<polygon fill="#63b8ff" stroke="#63b8ff" points="321.41,-140.53 331.81,-138.54 322.43,-133.61 321.41,-140.53"/>
</a>
</g>
</g>
<!-- Node7 -->
<g id="Node000007" class="node">
<title>Node7</title>
<g id="a_Node000007"><a xlink:href="classGameEngine_1_1InputHandler.html#acb0d11bd1241dad8925f26b86f6d9007" target="_top" xlink:title=" ">
<polygon fill="white" stroke="#666666" points="139.75,-32 6,-32 6,0 139.75,0 139.75,-32"/>
<text xml:space="preserve" text-anchor="start" x="14" y="-18.5" font-family="Helvetica,sans-Serif" font-size="10.00">GameEngine::InputHandler</text>
<text xml:space="preserve" text-anchor="middle" x="72.88" y="-6.5" font-family="Helvetica,sans-Serif" font-size="10.00">::onUpdate</text>
</a>
</g>
</g>
<!-- Node1&#45;&gt;Node7 -->
<g id="edge10_Node000001_Node000007" class="edge">
<title>Node1&#45;&gt;Node7</title>
<g id="a_edge10_Node000001_Node000007"><a xlink:title=" ">
<path fill="none" stroke="#63b8ff" d="M340.4,-128.2C327.46,-121.15 311.84,-112.89 297.5,-106 231.36,-74.24 214.16,-67.51 145.75,-41 138.36,-38.14 130.48,-35.24 122.76,-32.49"/>
<polygon fill="#63b8ff" stroke="#63b8ff" points="338.36,-131.07 348.81,-132.83 341.73,-124.94 338.36,-131.07"/>
</a>
</g>
</g>
<!-- Node2&#45;&gt;Node3 -->
<g id="edge2_Node000002_Node000003" class="edge">
<title>Node2&#45;&gt;Node3</title>
<g id="a_edge2_Node000002_Node000003"><a xlink:title=" ">
<path fill="none" stroke="#63b8ff" d="M170.22,-214.25C157.25,-214.48 143.8,-214.73 131.21,-214.96"/>
<polygon fill="#63b8ff" stroke="#63b8ff" points="170.02,-217.75 179.95,-214.07 169.89,-210.75 170.02,-217.75"/>
</a>
</g>
</g>
<!-- Node4&#45;&gt;Node3 -->
<g id="edge4_Node000004_Node000003" class="edge">
<title>Node4&#45;&gt;Node3</title>
<g id="a_edge4_Node000004_Node000003"><a xlink:title=" ">
<path fill="none" stroke="#63b8ff" d="M202.37,-140.44C195.26,-144.12 188.06,-148.35 181.75,-153 163.02,-166.8 165.29,-178.38 145.75,-191 140.76,-194.23 135.3,-197.09 129.69,-199.62"/>
<polygon fill="#63b8ff" stroke="#63b8ff" points="203.79,-143.64 211.24,-136.11 200.72,-137.35 203.79,-143.64"/>
</a>
</g>
</g>
<!-- Node5 -->
<g id="Node000005" class="node">
<title>Node5</title>
<g id="a_Node000005"><a xlink:href="classGameEngine_1_1Death.html#a081a250ee3a8d22b7dd2323dbaba0eb7" target="_top" xlink:title=" ">
<polygon fill="white" stroke="#666666" points="128.12,-182 17.62,-182 17.62,-150 128.12,-150 128.12,-182"/>
<text xml:space="preserve" text-anchor="start" x="25.62" y="-168.5" font-family="Helvetica,sans-Serif" font-size="10.00">GameEngine::Death::</text>
<text xml:space="preserve" text-anchor="middle" x="72.88" y="-156.5" font-family="Helvetica,sans-Serif" font-size="10.00">onUpdate</text>
</a>
</g>
</g>
<!-- Node4&#45;&gt;Node5 -->
<g id="edge5_Node000004_Node000005" class="edge">
<title>Node4&#45;&gt;Node5</title>
<g id="a_edge5_Node000004_Node000005"><a xlink:title=" ">
<path fill="none" stroke="#63b8ff" d="M188.48,-137.48C169.53,-142.2 147.88,-147.58 128.53,-152.4"/>
<polygon fill="#63b8ff" stroke="#63b8ff" points="189.25,-140.89 198.11,-135.08 187.56,-134.1 189.25,-140.89"/>
</a>
</g>
</g>
<!-- Node6 -->
<g id="Node000006" class="node">
<title>Node6</title>
<g id="a_Node000006"><a xlink:href="classGameEngine_1_1DomainHandler.html#a2e491047939e77c803075c6c490d54ee" target="_top" xlink:title="Updates the system, checking entity positions against their domain boundaries.">
<polygon fill="white" stroke="#666666" points="145.75,-132 0,-132 0,-100 145.75,-100 145.75,-132"/>
<text xml:space="preserve" text-anchor="start" x="8" y="-118.5" font-family="Helvetica,sans-Serif" font-size="10.00">GameEngine::DomainHandler</text>
<text xml:space="preserve" text-anchor="middle" x="72.88" y="-106.5" font-family="Helvetica,sans-Serif" font-size="10.00">::onUpdate</text>
</a>
</g>
</g>
<!-- Node4&#45;&gt;Node6 -->
<g id="edge6_Node000004_Node000006" class="edge">
<title>Node4&#45;&gt;Node6</title>
<g id="a_edge6_Node000004_Node000006"><a xlink:title=" ">
<path fill="none" stroke="#63b8ff" d="M188.29,-122.25C175.01,-121.52 160.41,-120.73 146.21,-119.95"/>
<polygon fill="#63b8ff" stroke="#63b8ff" points="187.89,-125.73 198.07,-122.78 188.28,-118.74 187.89,-125.73"/>
</a>
</g>
</g>
<!-- Node4&#45;&gt;Node7 -->
<g id="edge7_Node000004_Node000007" class="edge">
<title>Node4&#45;&gt;Node7</title>
<g id="a_edge7_Node000004_Node000007"><a xlink:title=" ">
<path fill="none" stroke="#63b8ff" d="M220.44,-106.94C198.29,-85.23 161.85,-50.54 145.75,-41 140.41,-37.83 134.61,-34.99 128.69,-32.45"/>
<polygon fill="#63b8ff" stroke="#63b8ff" points="217.77,-109.22 227.35,-113.74 222.68,-104.23 217.77,-109.22"/>
</a>
</g>
</g>
<!-- Node8 -->
<g id="Node000008" class="node">
<title>Node8</title>
<g id="a_Node000008"><a xlink:href="classGameEngine_1_1Motion.html#a015b898244098b869ceb6001884ae9fe" target="_top" xlink:title=" ">
<polygon fill="white" stroke="#666666" points="126.62,-82 19.12,-82 19.12,-50 126.62,-50 126.62,-82"/>
<text xml:space="preserve" text-anchor="start" x="27.12" y="-68.5" font-family="Helvetica,sans-Serif" font-size="10.00">GameEngine::Motion</text>
<text xml:space="preserve" text-anchor="middle" x="72.88" y="-56.5" font-family="Helvetica,sans-Serif" font-size="10.00">::onUpdate</text>
</a>
</g>
</g>
<!-- Node4&#45;&gt;Node8 -->
<g id="edge8_Node000004_Node000008" class="edge">
<title>Node4&#45;&gt;Node8</title>
<g id="a_edge8_Node000004_Node000008"><a xlink:title=" ">
<path fill="none" stroke="#63b8ff" d="M200.15,-110.76C183.45,-104.62 163.66,-97.39 145.75,-91 137.91,-88.2 129.58,-85.27 121.47,-82.43"/>
<polygon fill="#63b8ff" stroke="#63b8ff" points="198.61,-113.92 209.2,-114.09 201.03,-107.35 198.61,-113.92"/>
</a>
</g>
</g>
</g>
</svg>
