<?xml version="1.0" encoding="UTF-8" standalone="no"?>
<!DOCTYPE svg PUBLIC "-//W3C//DTD SVG 1.1//EN"
 "http://www.w3.org/Graphics/SVG/1.1/DTD/svg11.dtd">
<!-- Generated by graphviz version 14.0.1 (0)
 -->
<!-- Title: Registry Pages: 1 -->
<svg width="250pt" height="102pt"
 viewBox="0.00 0.00 250.00 102.00" xmlns="http://www.w3.org/2000/svg" xmlns:xlink="http://www.w3.org/1999/xlink">
<g id="graph0" class="graph" transform="scale(1 1) rotate(0) translate(4 98)">
<title>Registry</title>
<!-- Node1 -->
<g id="Node000001" class="node">
<title>Node1</title>
<g id="a_Node000001"><a xlink:title="Central class for managing entities, components, and systems.">
<polygon fill="#999999" stroke="#666666" points="152.38,-20 99.62,-20 99.62,0 152.38,0 152.38,-20"/>
<text xml:space="preserve" text-anchor="middle" x="126" y="-6.5" font-family="Helvetica,sans-Serif" font-size="10.00">Registry</text>
</a>
</g>
</g>
<!-- Node2 -->
<g id="Node000002" class="node">
<title>Node2</title>
<g id="a_Node000002"><a xlink:href="structGameEngine_1_1GameClock.html" target="_top" xlink:title="Fixed timestep simulation clock for consistent update timing.">
<polygon fill="white" stroke="#666666" points="130,-94 0,-94 0,-74 130,-74 130,-94"/>
<text xml:space="preserve" text-anchor="middle" x="65" y="-80.5" font-family="Helvetica,sans-Serif" font-size="10.00">GameEngine::GameClock</text>
</a>
</g>
</g>
<!-- Node2&#45;&gt;Node1 -->
<g id="edge1_Node000001_Node000002" class="edge">
<title>Node2&#45;&gt;Node1</title>
<g id="a_edge1_Node000001_Node000002"><a xlink:title=" ">
<path fill="none" stroke="#9a32cd" stroke-dasharray="5,2" d="M80.17,-65.09C92.25,-50.84 108.66,-31.46 118.22,-20.19"/>
<polygon fill="#9a32cd" stroke="#9a32cd" points="77.75,-62.54 73.95,-72.43 83.09,-67.07 77.75,-62.54"/>
</a>
</g>
<text xml:space="preserve" text-anchor="start" x="105.76" y="-43.5" font-family="Helvetica,sans-Serif" font-size="10.00" fill="grey">gameClock</text>
</g>
<!-- Node3 -->
<g id="Node000003" class="node">
<title>Node3</title>
<g id="a_Node000003"><a xlink:href="classEntityManager.html" target="_top" xlink:title="Handles creation and destruction of entities within the ECS framework.">
<polygon fill="white" stroke="#666666" points="227.5,-94 148.5,-94 148.5,-74 227.5,-74 227.5,-94"/>
<text xml:space="preserve" text-anchor="middle" x="188" y="-80.5" font-family="Helvetica,sans-Serif" font-size="10.00">EntityManager</text>
</a>
</g>
</g>
<!-- Node3&#45;&gt;Node1 -->
<g id="edge2_Node000001_Node000003" class="edge">
<title>Node3&#45;&gt;Node1</title>
<g id="a_edge2_Node000001_Node000003"><a xlink:title=" ">
<path fill="none" stroke="#9a32cd" stroke-dasharray="5,2" d="M179.02,-63.62C174.59,-55.23 168.74,-45.6 162,-38 155.99,-31.22 148.03,-25.04 141.13,-20.31"/>
<polygon fill="#9a32cd" stroke="#9a32cd" points="175.75,-64.9 183.31,-72.32 182.02,-61.8 175.75,-64.9"/>
</a>
</g>
<text xml:space="preserve" text-anchor="start" x="177.38" y="-43.5" font-family="Helvetica,sans-Serif" font-size="10.00" fill="grey">entityManager</text>
</g>
</g>
</svg>
