<?xml version="1.0" encoding="UTF-8" standalone="no"?>
<!DOCTYPE svg PUBLIC "-//W3C//DTD SVG 1.1//EN"
 "http://www.w3.org/Graphics/SVG/1.1/DTD/svg11.dtd">
<!-- Generated by graphviz version 14.0.1 (0)
 -->
<!-- Title: Registry::sortSystems Pages: 1 -->
<svg width="306pt" height="66pt"
 viewBox="0.00 0.00 306.00 66.00" xmlns="http://www.w3.org/2000/svg" xmlns:xlink="http://www.w3.org/1999/xlink">
<g id="graph0" class="graph" transform="scale(1 1) rotate(0) translate(4 62)">
<title>Registry::sortSystems</title>
<!-- Node1 -->
<g id="Node000001" class="node">
<title>Node1</title>
<g id="a_Node000001"><a xlink:title="Sorts systems by priority (ascending order).">
<polygon fill="#999999" stroke="#666666" points="297.5,-39 183.25,-39 183.25,-19 297.5,-19 297.5,-39"/>
<text xml:space="preserve" text-anchor="middle" x="240.38" y="-25.5" font-family="Helvetica,sans-Serif" font-size="10.00">Registry::sortSystems</text>
</a>
</g>
</g>
<!-- Node2 -->
<g id="Node000002" class="node">
<title>Node2</title>
<g id="a_Node000002"><a xlink:href="classRegistry.html#ae9d15b143aff79d01bc27d1bf89fa7f4" target="_top" xlink:title="Adds a system of type SystemType to the registry.">
<polygon fill="white" stroke="#666666" points="127.75,-58 19.5,-58 19.5,-38 127.75,-38 127.75,-58"/>
<text xml:space="preserve" text-anchor="middle" x="73.62" y="-44.5" font-family="Helvetica,sans-Serif" font-size="10.00">Registry::addSystem</text>
</a>
</g>
</g>
<!-- Node1&#45;&gt;Node2 -->
<g id="edge1_Node000001_Node000002" class="edge">
<title>Node1&#45;&gt;Node2</title>
<g id="a_edge1_Node000001_Node000002"><a xlink:title=" ">
<path fill="none" stroke="#63b8ff" d="M172.1,-36.76C157.45,-38.45 142.14,-40.21 128.11,-41.83"/>
<polygon fill="#63b8ff" stroke="#63b8ff" points="172.1,-40.28 181.63,-35.66 171.3,-33.33 172.1,-40.28"/>
</a>
</g>
</g>
<!-- Node3 -->
<g id="Node000003" class="node">
<title>Node3</title>
<g id="a_Node000003"><a xlink:href="classRegistry.html#a3baf2d21b12a925c7e4796fd0fb03d08" target="_top" xlink:title="Adds a dynamically created system (type&#45;erased).">
<polygon fill="white" stroke="#666666" points="147.25,-20 0,-20 0,0 147.25,0 147.25,-20"/>
<text xml:space="preserve" text-anchor="middle" x="73.62" y="-6.5" font-family="Helvetica,sans-Serif" font-size="10.00">Registry::addSystemDynamic</text>
</a>
</g>
</g>
<!-- Node1&#45;&gt;Node3 -->
<g id="edge2_Node000001_Node000003" class="edge">
<title>Node1&#45;&gt;Node3</title>
<g id="a_edge2_Node000001_Node000003"><a xlink:title=" ">
<path fill="none" stroke="#63b8ff" d="M171.92,-21.22C163.87,-20.29 155.63,-19.34 147.5,-18.4"/>
<polygon fill="#63b8ff" stroke="#63b8ff" points="171.3,-24.67 181.63,-22.34 172.1,-17.72 171.3,-24.67"/>
</a>
</g>
</g>
</g>
</svg>
