<?xml version="1.0" encoding="UTF-8" standalone="no"?>
<!DOCTYPE svg PUBLIC "-//W3C//DTD SVG 1.1//EN"
 "http://www.w3.org/Graphics/SVG/1.1/DTD/svg11.dtd">
<!-- Generated by graphviz version 14.0.2 (0)
 -->
<!-- Title: Registry::assurePool Pages: 1 -->
<svg width="430pt" height="440pt"
 viewBox="0.00 0.00 430.00 440.00" xmlns="http://www.w3.org/2000/svg" xmlns:xlink="http://www.w3.org/1999/xlink">
<g id="graph0" class="graph" transform="scale(1 1) rotate(0) translate(4 436)">
<title>Registry::assurePool</title>
<!-- Node1 -->
<g id="Node000001" class="node">
<title>Node1</title>
<g id="a_Node000001"><a xlink:title="Ensures that a component pool exists for the given component ID. Creates it if necessary.">
<polygon fill="#999999" stroke="#666666" points="421.5,-107 314,-107 314,-87 421.5,-87 421.5,-107"/>
<text xml:space="preserve" text-anchor="middle" x="367.75" y="-93.5" font-family="Helvetica,sans-Serif" font-size="10.00">Registry::assurePool</text>
</a>
</g>
</g>
<!-- Node2 -->
<g id="Node000002" class="node">
<title>Node2</title>
<g id="a_Node000002"><a xlink:href="classRegistry.html#a31cfb49fd633086383bf646b39a8daa2" target="_top" xlink:title="Iterates through all entities that have all the specified components.">
<polygon fill="white" stroke="#666666" points="270.12,-201 190.38,-201 190.38,-181 270.12,-181 270.12,-201"/>
<text xml:space="preserve" text-anchor="middle" x="230.25" y="-187.5" font-family="Helvetica,sans-Serif" font-size="10.00">Registry::each</text>
</a>
</g>
</g>
<!-- Node1&#45;&gt;Node2 -->
<g id="edge1_Node000001_Node000002" class="edge">
<title>Node1&#45;&gt;Node2</title>
<g id="a_edge1_Node000001_Node000002"><a xlink:title=" ">
<path fill="none" stroke="#63b8ff" d="M342.28,-113.98C314.36,-133.34 269.57,-164.41 246.34,-180.53"/>
<polygon fill="#63b8ff" stroke="#63b8ff" points="344.27,-116.86 350.49,-108.28 340.28,-111.11 344.27,-116.86"/>
</a>
</g>
</g>
<!-- Node12 -->
<g id="Node000012" class="node">
<title>Node12</title>
<g id="a_Node000012"><a xlink:href="classRegistry.html#ab12b0e856e109cd94af4aeb5e969de24" target="_top" xlink:title="Adds a new component of type Component to entity e.">
<polygon fill="white" stroke="#666666" points="278,-107 182.5,-107 182.5,-87 278,-87 278,-107"/>
<text xml:space="preserve" text-anchor="middle" x="230.25" y="-93.5" font-family="Helvetica,sans-Serif" font-size="10.00">Registry::emplace</text>
</a>
</g>
</g>
<!-- Node1&#45;&gt;Node12 -->
<g id="edge11_Node000001_Node000012" class="edge">
<title>Node1&#45;&gt;Node12</title>
<g id="a_edge11_Node000001_Node000012"><a xlink:title=" ">
<path fill="none" stroke="#63b8ff" d="M302.19,-97C294.07,-97 285.88,-97 278.1,-97"/>
<polygon fill="#63b8ff" stroke="#63b8ff" points="302.07,-100.5 312.07,-97 302.07,-93.5 302.07,-100.5"/>
</a>
</g>
</g>
<!-- Node13 -->
<g id="Node000013" class="node">
<title>Node13</title>
<g id="a_Node000013"><a xlink:href="classRegistry.html#a864a9feb3c9cffc43296ae8bb1aa2e3a" target="_top" xlink:title="Returns a reference to the SparseSet storing all components of type Component.">
<polygon fill="white" stroke="#666666" points="269.75,-69 190.75,-69 190.75,-49 269.75,-49 269.75,-69"/>
<text xml:space="preserve" text-anchor="middle" x="230.25" y="-55.5" font-family="Helvetica,sans-Serif" font-size="10.00">Registry::view</text>
</a>
</g>
</g>
<!-- Node1&#45;&gt;Node13 -->
<g id="edge13_Node000001_Node000013" class="edge">
<title>Node1&#45;&gt;Node13</title>
<g id="a_edge13_Node000001_Node000013"><a xlink:title=" ">
<path fill="none" stroke="#63b8ff" d="M318.33,-83.42C301.94,-78.82 283.9,-73.77 268.51,-69.45"/>
<polygon fill="#63b8ff" stroke="#63b8ff" points="317.33,-86.78 327.91,-86.11 319.22,-80.04 317.33,-86.78"/>
</a>
</g>
</g>
<!-- Node3 -->
<g id="Node000003" class="node">
<title>Node3</title>
<g id="a_Node000003"><a xlink:href="classGameEngine_1_1Animation.html#a92efc46a052b2627ed60ac8a2c81b3e2" target="_top" xlink:title=" ">
<polygon fill="white" stroke="#666666" points="134.12,-432 12.38,-432 12.38,-400 134.12,-400 134.12,-432"/>
<text xml:space="preserve" text-anchor="start" x="20.38" y="-418.5" font-family="Helvetica,sans-Serif" font-size="10.00">GameEngine::Animation</text>
<text xml:space="preserve" text-anchor="middle" x="73.25" y="-406.5" font-family="Helvetica,sans-Serif" font-size="10.00">::onUpdate</text>
</a>
</g>
</g>
<!-- Node2&#45;&gt;Node3 -->
<g id="edge2_Node000002_Node000003" class="edge">
<title>Node2&#45;&gt;Node3</title>
<g id="a_edge2_Node000002_Node000003"><a xlink:title=" ">
<path fill="none" stroke="#63b8ff" d="M226.23,-212.58C219.43,-253.19 199.17,-341.36 146.5,-391 142.93,-394.37 138.88,-397.29 134.56,-399.81"/>
<polygon fill="#63b8ff" stroke="#63b8ff" points="229.66,-213.3 227.73,-202.88 222.74,-212.23 229.66,-213.3"/>
</a>
</g>
</g>
<!-- Node4 -->
<g id="Node000004" class="node">
<title>Node4</title>
<g id="a_Node000004"><a xlink:href="classGameEngine_1_1Collision.html#a49f26a6547e81a9cebf7ad5436fb7101" target="_top" xlink:title=" ">
<polygon fill="white" stroke="#666666" points="131.12,-382 15.38,-382 15.38,-350 131.12,-350 131.12,-382"/>
<text xml:space="preserve" text-anchor="start" x="23.38" y="-368.5" font-family="Helvetica,sans-Serif" font-size="10.00">GameEngine::Collision</text>
<text xml:space="preserve" text-anchor="middle" x="73.25" y="-356.5" font-family="Helvetica,sans-Serif" font-size="10.00">::onUpdate</text>
</a>
</g>
</g>
<!-- Node2&#45;&gt;Node4 -->
<g id="edge3_Node000002_Node000004" class="edge">
<title>Node2&#45;&gt;Node4</title>
<g id="a_edge3_Node000002_Node000004"><a xlink:title=" ">
<path fill="none" stroke="#63b8ff" d="M223,-212.26C212.44,-244.58 188.06,-306.01 146.5,-341 141.93,-344.85 136.74,-348.11 131.28,-350.89"/>
<polygon fill="#63b8ff" stroke="#63b8ff" points="226.29,-213.45 225.93,-202.86 219.61,-211.37 226.29,-213.45"/>
</a>
</g>
</g>
<!-- Node5 -->
<g id="Node000005" class="node">
<title>Node5</title>
<g id="a_Node000005"><a xlink:href="classGameEngine_1_1Death.html#a081a250ee3a8d22b7dd2323dbaba0eb7" target="_top" xlink:title=" ">
<polygon fill="white" stroke="#666666" points="128.5,-332 18,-332 18,-300 128.5,-300 128.5,-332"/>
<text xml:space="preserve" text-anchor="start" x="26" y="-318.5" font-family="Helvetica,sans-Serif" font-size="10.00">GameEngine::Death::</text>
<text xml:space="preserve" text-anchor="middle" x="73.25" y="-306.5" font-family="Helvetica,sans-Serif" font-size="10.00">onUpdate</text>
</a>
</g>
</g>
<!-- Node2&#45;&gt;Node5 -->
<g id="edge4_Node000002_Node000005" class="edge">
<title>Node2&#45;&gt;Node5</title>
<g id="a_edge4_Node000002_Node000005"><a xlink:title=" ">
<path fill="none" stroke="#63b8ff" d="M217.53,-210.89C203.36,-233.33 177.51,-269.49 146.5,-291 141.05,-294.78 134.97,-298.04 128.71,-300.83"/>
<polygon fill="#63b8ff" stroke="#63b8ff" points="220.33,-213.02 222.57,-202.66 214.36,-209.36 220.33,-213.02"/>
</a>
</g>
</g>
<!-- Node6 -->
<g id="Node000006" class="node">
<title>Node6</title>
<g id="a_Node000006"><a xlink:href="classGameEngine_1_1DomainHandler.html#a2e491047939e77c803075c6c490d54ee" target="_top" xlink:title="Updates the system, checking entity positions against their domain boundaries.">
<polygon fill="white" stroke="#666666" points="146.12,-282 0.38,-282 0.38,-250 146.12,-250 146.12,-282"/>
<text xml:space="preserve" text-anchor="start" x="8.38" y="-268.5" font-family="Helvetica,sans-Serif" font-size="10.00">GameEngine::DomainHandler</text>
<text xml:space="preserve" text-anchor="middle" x="73.25" y="-256.5" font-family="Helvetica,sans-Serif" font-size="10.00">::onUpdate</text>
</a>
</g>
</g>
<!-- Node2&#45;&gt;Node6 -->
<g id="edge5_Node000002_Node000006" class="edge">
<title>Node2&#45;&gt;Node6</title>
<g id="a_edge5_Node000002_Node000006"><a xlink:title=" ">
<path fill="none" stroke="#63b8ff" d="M205.01,-207.51C188.9,-218.01 167.02,-231.38 146.5,-241 140.01,-244.04 133.04,-246.91 126.09,-249.55"/>
<polygon fill="#63b8ff" stroke="#63b8ff" points="206.56,-210.68 212.97,-202.24 202.7,-204.84 206.56,-210.68"/>
</a>
</g>
</g>
<!-- Node7 -->
<g id="Node000007" class="node">
<title>Node7</title>
<g id="a_Node000007"><a xlink:href="classGameEngine_1_1FPApplyGravity.html#a4fc5342f686d0c3bc6acd4f8c85cb720" target="_top" xlink:title=" ">
<polygon fill="white" stroke="#666666" points="146.5,-232 0,-232 0,-200 146.5,-200 146.5,-232"/>
<text xml:space="preserve" text-anchor="start" x="8" y="-218.5" font-family="Helvetica,sans-Serif" font-size="10.00">GameEngine::FPApplyGravity</text>
<text xml:space="preserve" text-anchor="middle" x="73.25" y="-206.5" font-family="Helvetica,sans-Serif" font-size="10.00">::onUpdate</text>
</a>
</g>
</g>
<!-- Node2&#45;&gt;Node7 -->
<g id="edge6_Node000002_Node000007" class="edge">
<title>Node2&#45;&gt;Node7</title>
<g id="a_edge6_Node000002_Node000007"><a xlink:title=" ">
<path fill="none" stroke="#63b8ff" d="M178.92,-199.12C168.68,-200.77 157.71,-202.54 146.86,-204.29"/>
<polygon fill="#63b8ff" stroke="#63b8ff" points="179.33,-202.6 188.64,-197.55 178.21,-195.69 179.33,-202.6"/>
</a>
</g>
</g>
<!-- Node8 -->
<g id="Node000008" class="node">
<title>Node8</title>
<g id="a_Node000008"><a xlink:href="classGameEngine_1_1FPInputHandler.html#adc119a8b423c28985d8a8e87baad6421" target="_top" xlink:title=" ">
<polygon fill="white" stroke="#666666" points="146.5,-182 0,-182 0,-150 146.5,-150 146.5,-182"/>
<text xml:space="preserve" text-anchor="start" x="8" y="-168.5" font-family="Helvetica,sans-Serif" font-size="10.00">GameEngine::FPInputHandler</text>
<text xml:space="preserve" text-anchor="middle" x="73.25" y="-156.5" font-family="Helvetica,sans-Serif" font-size="10.00">::onUpdate</text>
</a>
</g>
</g>
<!-- Node2&#45;&gt;Node8 -->
<g id="edge7_Node000002_Node000008" class="edge">
<title>Node2&#45;&gt;Node8</title>
<g id="a_edge7_Node000002_Node000008"><a xlink:title=" ">
<path fill="none" stroke="#63b8ff" d="M178.92,-182.88C168.68,-181.23 157.71,-179.46 146.86,-177.71"/>
<polygon fill="#63b8ff" stroke="#63b8ff" points="178.21,-186.31 188.64,-184.45 179.33,-179.4 178.21,-186.31"/>
</a>
</g>
</g>
<!-- Node9 -->
<g id="Node000009" class="node">
<title>Node9</title>
<g id="a_Node000009"><a xlink:href="classGameEngine_1_1FPMotion.html#adeee4196198d928de33feb2182396c85" target="_top" xlink:title=" ">
<polygon fill="white" stroke="#666666" points="133.38,-132 13.12,-132 13.12,-100 133.38,-100 133.38,-132"/>
<text xml:space="preserve" text-anchor="start" x="21.12" y="-118.5" font-family="Helvetica,sans-Serif" font-size="10.00">GameEngine::FPMotion</text>
<text xml:space="preserve" text-anchor="middle" x="73.25" y="-106.5" font-family="Helvetica,sans-Serif" font-size="10.00">::onUpdate</text>
</a>
</g>
</g>
<!-- Node2&#45;&gt;Node9 -->
<g id="edge8_Node000002_Node000009" class="edge">
<title>Node2&#45;&gt;Node9</title>
<g id="a_edge8_Node000002_Node000009"><a xlink:title=" ">
<path fill="none" stroke="#63b8ff" d="M205.01,-174.49C188.9,-163.99 167.02,-150.62 146.5,-141 140.01,-137.96 133.04,-135.09 126.09,-132.45"/>
<polygon fill="#63b8ff" stroke="#63b8ff" points="202.7,-177.16 212.97,-179.76 206.56,-171.32 202.7,-177.16"/>
</a>
</g>
</g>
<!-- Node10 -->
<g id="Node000010" class="node">
<title>Node10</title>
<g id="a_Node000010"><a xlink:href="classGameEngine_1_1InputHandler.html#acb0d11bd1241dad8925f26b86f6d9007" target="_top" xlink:title=" ">
<polygon fill="white" stroke="#666666" points="140.12,-32 6.38,-32 6.38,0 140.12,0 140.12,-32"/>
<text xml:space="preserve" text-anchor="start" x="14.38" y="-18.5" font-family="Helvetica,sans-Serif" font-size="10.00">GameEngine::InputHandler</text>
<text xml:space="preserve" text-anchor="middle" x="73.25" y="-6.5" font-family="Helvetica,sans-Serif" font-size="10.00">::onUpdate</text>
</a>
</g>
</g>
<!-- Node2&#45;&gt;Node10 -->
<g id="edge9_Node000002_Node000010" class="edge">
<title>Node2&#45;&gt;Node10</title>
<g id="a_edge9_Node000002_Node000010"><a xlink:title=" ">
<path fill="none" stroke="#63b8ff" d="M216.14,-171.3C206.42,-156.38 193.07,-135.23 182.5,-116 164.69,-83.6 174.1,-65.61 146.5,-41 142.83,-37.73 138.72,-34.89 134.36,-32.41"/>
<polygon fill="#63b8ff" stroke="#63b8ff" points="212.97,-172.84 221.39,-179.27 218.81,-169 212.97,-172.84"/>
</a>
</g>
</g>
<!-- Node11 -->
<g id="Node000011" class="node">
<title>Node11</title>
<g id="a_Node000011"><a xlink:href="classGameEngine_1_1Motion.html#a015b898244098b869ceb6001884ae9fe" target="_top" xlink:title=" ">
<polygon fill="white" stroke="#666666" points="127,-82 19.5,-82 19.5,-50 127,-50 127,-82"/>
<text xml:space="preserve" text-anchor="start" x="27.5" y="-68.5" font-family="Helvetica,sans-Serif" font-size="10.00">GameEngine::Motion</text>
<text xml:space="preserve" text-anchor="middle" x="73.25" y="-56.5" font-family="Helvetica,sans-Serif" font-size="10.00">::onUpdate</text>
</a>
</g>
</g>
<!-- Node2&#45;&gt;Node11 -->
<g id="edge10_Node000002_Node000011" class="edge">
<title>Node2&#45;&gt;Node11</title>
<g id="a_edge10_Node000002_Node000011"><a xlink:title=" ">
<path fill="none" stroke="#63b8ff" d="M217.53,-171.11C203.36,-148.67 177.51,-112.51 146.5,-91 140.61,-86.92 133.99,-83.44 127.21,-80.5"/>
<polygon fill="#63b8ff" stroke="#63b8ff" points="214.36,-172.64 222.57,-179.34 220.33,-168.98 214.36,-172.64"/>
</a>
</g>
</g>
<!-- Node12&#45;&gt;Node10 -->
<g id="edge12_Node000012_Node000010" class="edge">
<title>Node12&#45;&gt;Node10</title>
<g id="a_edge12_Node000012_Node000010"><a xlink:title=" ">
<path fill="none" stroke="#63b8ff" d="M188.56,-81.7C186.46,-80.53 184.43,-79.3 182.5,-78 163.47,-65.19 165.86,-53.31 146.5,-41 141.46,-37.8 135.96,-34.95 130.31,-32.43"/>
<polygon fill="#63b8ff" stroke="#63b8ff" points="186.77,-84.72 197.28,-86.02 189.87,-78.45 186.77,-84.72"/>
</a>
</g>
</g>
</g>
</svg>
