<?xml version="1.0" encoding="UTF-8" standalone="no"?>
<!DOCTYPE svg PUBLIC "-//W3C//DTD SVG 1.1//EN"
 "http://www.w3.org/Graphics/SVG/1.1/DTD/svg11.dtd">
<!-- Generated by graphviz version 14.0.1 (0)
 -->
<!-- Title: GameEngine::MotionSystem::onUpdate Pages: 1 -->
<svg width="765pt" height="280pt"
 viewBox="0.00 0.00 765.00 280.00" xmlns="http://www.w3.org/2000/svg" xmlns:xlink="http://www.w3.org/1999/xlink">
<g id="graph0" class="graph" transform="scale(1 1) rotate(0) translate(4 276)">
<title>GameEngine::MotionSystem::onUpdate</title>
<!-- Node1 -->
<g id="Node000001" class="node">
<title>Node1</title>
<g id="a_Node000001"><a xlink:title="Updates all entities matching the system’s component signature.">
<polygon fill="#999999" stroke="#666666" points="141.25,-142 0,-142 0,-110 141.25,-110 141.25,-142"/>
<text xml:space="preserve" text-anchor="start" x="8" y="-128.5" font-family="Helvetica,sans-Serif" font-size="10.00">GameEngine::MotionSystem</text>
<text xml:space="preserve" text-anchor="middle" x="70.62" y="-116.5" font-family="Helvetica,sans-Serif" font-size="10.00">::onUpdate</text>
</a>
</g>
</g>
<!-- Node2 -->
<g id="Node000002" class="node">
<title>Node2</title>
<g id="a_Node000002"><a xlink:href="classRegistry.html#a31cfb49fd633086383bf646b39a8daa2" target="_top" xlink:title="Iterates through all entities that have all the specified components.">
<polygon fill="white" stroke="#666666" points="278,-158 198.25,-158 198.25,-138 278,-138 278,-158"/>
<text xml:space="preserve" text-anchor="middle" x="238.12" y="-144.5" font-family="Helvetica,sans-Serif" font-size="10.00">Registry::each</text>
</a>
</g>
</g>
<!-- Node1&#45;&gt;Node2 -->
<g id="edge1_Node000001_Node000002" class="edge">
<title>Node1&#45;&gt;Node2</title>
<g id="a_edge1_Node000001_Node000002"><a xlink:title=" ">
<path fill="none" stroke="#63b8ff" d="M141.33,-135.27C156.67,-137.3 172.62,-139.42 187,-141.34"/>
<polygon fill="#63b8ff" stroke="#63b8ff" points="186.28,-144.77 196.66,-142.62 187.2,-137.83 186.28,-144.77"/>
</a>
</g>
</g>
<!-- Node12 -->
<g id="Node000012" class="node">
<title>Node12</title>
<g id="a_Node000012"><a xlink:href="classSystem.html#ac7b716e6d41ff508ad2d8e5dad655d72" target="_top" xlink:title=" ">
<polygon fill="white" stroke="#666666" points="299,-120 177.25,-120 177.25,-88 299,-88 299,-120"/>
<text xml:space="preserve" text-anchor="start" x="185.25" y="-106.5" font-family="Helvetica,sans-Serif" font-size="10.00">System&lt; MotionSystem</text>
<text xml:space="preserve" text-anchor="middle" x="238.12" y="-94.5" font-family="Helvetica,sans-Serif" font-size="10.00"> &gt;::Registry</text>
</a>
</g>
</g>
<!-- Node1&#45;&gt;Node12 -->
<g id="edge15_Node000001_Node000012" class="edge">
<title>Node1&#45;&gt;Node12</title>
<g id="a_edge15_Node000001_Node000012"><a xlink:title=" ">
<path fill="none" stroke="#63b8ff" d="M141.33,-116.73C149.38,-115.66 157.59,-114.57 165.66,-113.5"/>
<polygon fill="#63b8ff" stroke="#63b8ff" points="165.99,-116.99 175.44,-112.2 165.06,-110.05 165.99,-116.99"/>
</a>
</g>
</g>
<!-- Node3 -->
<g id="Node000003" class="node">
<title>Node3</title>
<g id="a_Node000003"><a xlink:href="classRegistry.html#acd4bfce3db63792e03b353900dc89f76" target="_top" xlink:title="Ensures that a component pool exists for the given component ID. Creates it if necessary.">
<polygon fill="white" stroke="#666666" points="454.5,-272 347,-272 347,-252 454.5,-252 454.5,-272"/>
<text xml:space="preserve" text-anchor="middle" x="400.75" y="-258.5" font-family="Helvetica,sans-Serif" font-size="10.00">Registry::assurePool</text>
</a>
</g>
</g>
<!-- Node2&#45;&gt;Node3 -->
<g id="edge2_Node000002_Node000003" class="edge">
<title>Node2&#45;&gt;Node3</title>
<g id="a_edge2_Node000002_Node000003"><a xlink:title=" ">
<path fill="none" stroke="#63b8ff" d="M247.6,-158.31C263.17,-176.65 298.12,-215.17 335,-238 340.68,-241.52 346.96,-244.64 353.3,-247.38"/>
<polygon fill="#63b8ff" stroke="#63b8ff" points="351.95,-250.61 362.54,-251.05 354.54,-244.1 351.95,-250.61"/>
</a>
</g>
</g>
<!-- Node4 -->
<g id="Node000004" class="node">
<title>Node4</title>
<g id="a_Node000004"><a xlink:href="classRegistry.html#a11f1e4d7d7ef1a84640adddf32c1f862" target="_top" xlink:title="Gets a reference to a component of type Component for entity e.">
<polygon fill="white" stroke="#666666" points="436.88,-158 364.62,-158 364.62,-138 436.88,-138 436.88,-158"/>
<text xml:space="preserve" text-anchor="middle" x="400.75" y="-144.5" font-family="Helvetica,sans-Serif" font-size="10.00">Registry::get</text>
</a>
</g>
</g>
<!-- Node2&#45;&gt;Node4 -->
<g id="edge3_Node000002_Node000004" class="edge">
<title>Node2&#45;&gt;Node4</title>
<g id="a_edge3_Node000002_Node000004"><a xlink:title=" ">
<path fill="none" stroke="#63b8ff" d="M278.42,-148C300.82,-148 329.05,-148 352.64,-148"/>
<polygon fill="#63b8ff" stroke="#63b8ff" points="352.64,-151.5 362.64,-148 352.64,-144.5 352.64,-151.5"/>
</a>
</g>
</g>
<!-- Node5 -->
<g id="Node000005" class="node">
<title>Node5</title>
<g id="a_Node000005"><a xlink:href="classComponentRegistry.html#a4d993c2bab87c6bdac36ba8f589eca5f" target="_top" xlink:title="Retrieves or creates a unique ID for the given component type T.">
<polygon fill="white" stroke="#666666" points="611.5,-208 502.5,-208 502.5,-176 611.5,-176 611.5,-208"/>
<text xml:space="preserve" text-anchor="start" x="510.5" y="-194.5" font-family="Helvetica,sans-Serif" font-size="10.00">ComponentRegistry::</text>
<text xml:space="preserve" text-anchor="middle" x="557" y="-182.5" font-family="Helvetica,sans-Serif" font-size="10.00">getOrCreateID</text>
</a>
</g>
</g>
<!-- Node2&#45;&gt;Node5 -->
<g id="edge9_Node000002_Node000005" class="edge">
<title>Node2&#45;&gt;Node5</title>
<g id="a_edge9_Node000002_Node000005"><a xlink:title=" ">
<path fill="none" stroke="#63b8ff" d="M251.44,-158.34C268.77,-172.15 301.95,-195.92 335,-205 386.14,-219.05 446.36,-214.18 491.01,-206.7"/>
<polygon fill="#63b8ff" stroke="#63b8ff" points="491.57,-210.15 500.81,-204.96 490.35,-203.26 491.57,-210.15"/>
</a>
</g>
</g>
<!-- Node7 -->
<g id="Node000007" class="node">
<title>Node7</title>
<g id="a_Node000007"><a xlink:href="classComponentRegistry.html#a18cad5dda10f4bb28fb6933f5aa85fce" target="_top" xlink:title="Provides access to the global ComponentRegistry instance.">
<polygon fill="white" stroke="#666666" points="611.5,-158 502.5,-158 502.5,-126 611.5,-126 611.5,-158"/>
<text xml:space="preserve" text-anchor="start" x="510.5" y="-144.5" font-family="Helvetica,sans-Serif" font-size="10.00">ComponentRegistry::</text>
<text xml:space="preserve" text-anchor="middle" x="557" y="-132.5" font-family="Helvetica,sans-Serif" font-size="10.00">instance</text>
</a>
</g>
</g>
<!-- Node2&#45;&gt;Node7 -->
<g id="edge13_Node000002_Node000007" class="edge">
<title>Node2&#45;&gt;Node7</title>
<g id="a_edge13_Node000002_Node000007"><a xlink:title=" ">
<path fill="none" stroke="#63b8ff" d="M278.05,-138.49C295.37,-134.72 316.09,-130.86 335,-129 393.17,-123.29 408.21,-124.79 466.5,-129 474.47,-129.58 482.8,-130.44 491.04,-131.44"/>
<polygon fill="#63b8ff" stroke="#63b8ff" points="490.31,-134.88 500.68,-132.7 491.22,-127.94 490.31,-134.88"/>
</a>
</g>
</g>
<!-- Node9 -->
<g id="Node000009" class="node">
<title>Node9</title>
<g id="a_Node000009"><a xlink:href="structRegistry_1_1IComponentPool.html#ad4a1001874d3ea8f343fbbcf4988c507" target="_top" xlink:title=" ">
<polygon fill="white" stroke="#666666" points="466.5,-82 335,-82 335,-50 466.5,-50 466.5,-82"/>
<text xml:space="preserve" text-anchor="start" x="343" y="-68.5" font-family="Helvetica,sans-Serif" font-size="10.00">Registry::IComponentPool</text>
<text xml:space="preserve" text-anchor="middle" x="400.75" y="-56.5" font-family="Helvetica,sans-Serif" font-size="10.00">::getEntityAt</text>
</a>
</g>
</g>
<!-- Node2&#45;&gt;Node9 -->
<g id="edge8_Node000002_Node000009" class="edge">
<title>Node2&#45;&gt;Node9</title>
<g id="a_edge8_Node000002_Node000009"><a xlink:title=" ">
<path fill="none" stroke="#63b8ff" d="M278.19,-138.32C285.35,-135.8 292.58,-132.71 299,-129 317.79,-118.13 316.94,-108.04 335,-96 339.47,-93.02 344.28,-90.19 349.19,-87.55"/>
<polygon fill="#63b8ff" stroke="#63b8ff" points="350.66,-90.73 357.98,-83.07 347.48,-84.49 350.66,-90.73"/>
</a>
</g>
</g>
<!-- Node10 -->
<g id="Node000010" class="node">
<title>Node10</title>
<g id="a_Node000010"><a xlink:href="classRegistry.html#acac1f1c8a740cfeb2b33a32cfd6ad83f" target="_top" xlink:title="Checks if entity e has a component of type Component.">
<polygon fill="white" stroke="#666666" points="438,-196 363.5,-196 363.5,-176 438,-176 438,-196"/>
<text xml:space="preserve" text-anchor="middle" x="400.75" y="-182.5" font-family="Helvetica,sans-Serif" font-size="10.00">Registry::has</text>
</a>
</g>
</g>
<!-- Node2&#45;&gt;Node10 -->
<g id="edge10_Node000002_Node000010" class="edge">
<title>Node2&#45;&gt;Node10</title>
<g id="a_edge10_Node000002_Node000010"><a xlink:title=" ">
<path fill="none" stroke="#63b8ff" d="M278.42,-157.3C300.61,-162.55 328.51,-169.15 351.96,-174.69"/>
<polygon fill="#63b8ff" stroke="#63b8ff" points="351.05,-178.08 361.59,-176.97 352.67,-171.26 351.05,-178.08"/>
</a>
</g>
</g>
<!-- Node11 -->
<g id="Node000011" class="node">
<title>Node11</title>
<g id="a_Node000011"><a xlink:href="structRegistry_1_1IComponentPool.html#af60edba4f576e1c34ed07f6dd4e9348b" target="_top" xlink:title=" ">
<polygon fill="white" stroke="#666666" points="466.5,-32 335,-32 335,0 466.5,0 466.5,-32"/>
<text xml:space="preserve" text-anchor="start" x="343" y="-18.5" font-family="Helvetica,sans-Serif" font-size="10.00">Registry::IComponentPool</text>
<text xml:space="preserve" text-anchor="middle" x="400.75" y="-6.5" font-family="Helvetica,sans-Serif" font-size="10.00">::size</text>
</a>
</g>
</g>
<!-- Node2&#45;&gt;Node11 -->
<g id="edge14_Node000002_Node000011" class="edge">
<title>Node2&#45;&gt;Node11</title>
<g id="a_edge14_Node000002_Node000011"><a xlink:title=" ">
<path fill="none" stroke="#63b8ff" d="M278.2,-141.03C285.76,-138.26 293.15,-134.4 299,-129 330.07,-100.35 304.82,-70.58 335,-41 335.73,-40.28 336.49,-39.58 337.27,-38.9"/>
<polygon fill="#63b8ff" stroke="#63b8ff" points="339.03,-41.95 345.06,-33.23 334.91,-36.29 339.03,-41.95"/>
</a>
</g>
</g>
<!-- Node4&#45;&gt;Node5 -->
<g id="edge4_Node000004_Node000005" class="edge">
<title>Node4&#45;&gt;Node5</title>
<g id="a_edge4_Node000004_Node000005"><a xlink:title=" ">
<path fill="none" stroke="#63b8ff" d="M437.14,-158.09C453.12,-162.65 472.53,-168.19 490.99,-173.46"/>
<polygon fill="#63b8ff" stroke="#63b8ff" points="489.98,-176.81 500.56,-176.19 491.91,-170.08 489.98,-176.81"/>
</a>
</g>
</g>
<!-- Node4&#45;&gt;Node7 -->
<g id="edge6_Node000004_Node000007" class="edge">
<title>Node4&#45;&gt;Node7</title>
<g id="a_edge6_Node000004_Node000007"><a xlink:title=" ">
<path fill="none" stroke="#63b8ff" d="M437.14,-146.62C453.05,-146 472.35,-145.25 490.73,-144.54"/>
<polygon fill="#63b8ff" stroke="#63b8ff" points="490.65,-148.04 500.5,-144.16 490.38,-141.05 490.65,-148.04"/>
</a>
</g>
</g>
<!-- Node6 -->
<g id="Node000006" class="node">
<title>Node6</title>
<g id="a_Node000006"><a xlink:href="classComponentRegistry.html#ab1cc8a486cae16a19268264c69f9af80" target="_top" xlink:title="Computes a new unique ID for a type T, or returns the existing one.">
<polygon fill="white" stroke="#666666" points="756.5,-208 647.5,-208 647.5,-176 756.5,-176 756.5,-208"/>
<text xml:space="preserve" text-anchor="start" x="655.5" y="-194.5" font-family="Helvetica,sans-Serif" font-size="10.00">ComponentRegistry::</text>
<text xml:space="preserve" text-anchor="middle" x="702" y="-182.5" font-family="Helvetica,sans-Serif" font-size="10.00">computeID</text>
</a>
</g>
</g>
<!-- Node5&#45;&gt;Node6 -->
<g id="edge5_Node000005_Node000006" class="edge">
<title>Node5&#45;&gt;Node6</title>
<g id="a_edge5_Node000005_Node000006"><a xlink:title=" ">
<path fill="none" stroke="#63b8ff" d="M611.65,-192C619.52,-192 627.69,-192 635.76,-192"/>
<polygon fill="#63b8ff" stroke="#63b8ff" points="635.53,-195.5 645.53,-192 635.53,-188.5 635.53,-195.5"/>
</a>
</g>
</g>
<!-- Node8 -->
<g id="Node000008" class="node">
<title>Node8</title>
<g id="a_Node000008"><a xlink:href="classComponentRegistry.html#a3bbfefb19e284845afb80ce0a4dd739a" target="_top" xlink:title="Private constructor for singleton pattern. Initializes internal containers with reserved capacity.">
<polygon fill="white" stroke="#666666" points="756.5,-158 647.5,-158 647.5,-126 756.5,-126 756.5,-158"/>
<text xml:space="preserve" text-anchor="start" x="655.5" y="-144.5" font-family="Helvetica,sans-Serif" font-size="10.00">ComponentRegistry::</text>
<text xml:space="preserve" text-anchor="middle" x="702" y="-132.5" font-family="Helvetica,sans-Serif" font-size="10.00">ComponentRegistry</text>
</a>
</g>
</g>
<!-- Node7&#45;&gt;Node8 -->
<g id="edge7_Node000007_Node000008" class="edge">
<title>Node7&#45;&gt;Node8</title>
<g id="a_edge7_Node000007_Node000008"><a xlink:title=" ">
<path fill="none" stroke="#63b8ff" d="M611.65,-142C619.52,-142 627.69,-142 635.76,-142"/>
<polygon fill="#63b8ff" stroke="#63b8ff" points="635.53,-145.5 645.53,-142 635.53,-138.5 635.53,-145.5"/>
</a>
</g>
</g>
<!-- Node10&#45;&gt;Node5 -->
<g id="edge11_Node000010_Node000005" class="edge">
<title>Node10&#45;&gt;Node5</title>
<g id="a_edge11_Node000010_Node000005"><a xlink:title=" ">
<path fill="none" stroke="#63b8ff" d="M438.31,-187.42C454.02,-188.03 472.87,-188.77 490.84,-189.47"/>
<polygon fill="#63b8ff" stroke="#63b8ff" points="490.54,-192.96 500.66,-189.85 490.81,-185.96 490.54,-192.96"/>
</a>
</g>
</g>
<!-- Node10&#45;&gt;Node7 -->
<g id="edge12_Node000010_Node000007" class="edge">
<title>Node10&#45;&gt;Node7</title>
<g id="a_edge12_Node000010_Node000007"><a xlink:title=" ">
<path fill="none" stroke="#63b8ff" d="M438.31,-175.57C454.17,-171.05 473.23,-165.61 491.35,-160.44"/>
<polygon fill="#63b8ff" stroke="#63b8ff" points="492.06,-163.88 500.72,-157.77 490.14,-157.15 492.06,-163.88"/>
</a>
</g>
</g>
</g>
</svg>
