<?xml version="1.0" encoding="UTF-8" standalone="no"?>
<!DOCTYPE svg PUBLIC "-//W3C//DTD SVG 1.1//EN"
 "http://www.w3.org/Graphics/SVG/1.1/DTD/svg11.dtd">
<!-- Generated by graphviz version 14.0.2 (0)
 -->
<!-- Title: Registry::has Pages: 1 -->
<svg width="381pt" height="440pt"
 viewBox="0.00 0.00 381.00 440.00" xmlns="http://www.w3.org/2000/svg" xmlns:xlink="http://www.w3.org/1999/xlink">
<g id="graph0" class="graph" transform="scale(1 1) rotate(0) translate(4 436)">
<title>Registry::has</title>
<!-- Node1 -->
<g id="Node000001" class="node">
<title>Node1</title>
<g id="a_Node000001"><a xlink:title="Checks if entity e has a component of type Component.">
<polygon fill="#999999" stroke="#666666" points="372.75,-226 298.25,-226 298.25,-206 372.75,-206 372.75,-226"/>
<text xml:space="preserve" text-anchor="middle" x="335.5" y="-212.5" font-family="Helvetica,sans-Serif" font-size="10.00">Registry::has</text>
</a>
</g>
</g>
<!-- Node2 -->
<g id="Node000002" class="node">
<title>Node2</title>
<g id="a_Node000002"><a xlink:href="classRegistry.html#a31cfb49fd633086383bf646b39a8daa2" target="_top" xlink:title="Iterates through all entities that have all the specified components.">
<polygon fill="white" stroke="#666666" points="262.25,-226 182.5,-226 182.5,-206 262.25,-206 262.25,-226"/>
<text xml:space="preserve" text-anchor="middle" x="222.38" y="-212.5" font-family="Helvetica,sans-Serif" font-size="10.00">Registry::each</text>
</a>
</g>
</g>
<!-- Node1&#45;&gt;Node2 -->
<g id="edge1_Node000001_Node000002" class="edge">
<title>Node1&#45;&gt;Node2</title>
<g id="a_edge1_Node000001_Node000002"><a xlink:title=" ">
<path fill="none" stroke="#63b8ff" d="M286.43,-216C278.51,-216 270.38,-216 262.71,-216"/>
<polygon fill="#63b8ff" stroke="#63b8ff" points="286.29,-219.5 296.29,-216 286.29,-212.5 286.29,-219.5"/>
</a>
</g>
</g>
<!-- Node3 -->
<g id="Node000003" class="node">
<title>Node3</title>
<g id="a_Node000003"><a xlink:href="classGameEngine_1_1Animation.html#a92efc46a052b2627ed60ac8a2c81b3e2" target="_top" xlink:title=" ">
<polygon fill="white" stroke="#666666" points="134.12,-432 12.38,-432 12.38,-400 134.12,-400 134.12,-432"/>
<text xml:space="preserve" text-anchor="start" x="20.38" y="-418.5" font-family="Helvetica,sans-Serif" font-size="10.00">GameEngine::Animation</text>
<text xml:space="preserve" text-anchor="middle" x="73.25" y="-406.5" font-family="Helvetica,sans-Serif" font-size="10.00">::onUpdate</text>
</a>
</g>
</g>
<!-- Node2&#45;&gt;Node3 -->
<g id="edge2_Node000002_Node000003" class="edge">
<title>Node2&#45;&gt;Node3</title>
<g id="a_edge2_Node000002_Node000003"><a xlink:title=" ">
<path fill="none" stroke="#63b8ff" d="M217.94,-237.61C211,-274.25 191.93,-348.69 146.5,-391 142.91,-394.35 138.84,-397.25 134.52,-399.76"/>
<polygon fill="#63b8ff" stroke="#63b8ff" points="221.37,-238.28 219.65,-227.83 214.48,-237.08 221.37,-238.28"/>
</a>
</g>
</g>
<!-- Node4 -->
<g id="Node000004" class="node">
<title>Node4</title>
<g id="a_Node000004"><a xlink:href="classGameEngine_1_1Collision.html#a49f26a6547e81a9cebf7ad5436fb7101" target="_top" xlink:title=" ">
<polygon fill="white" stroke="#666666" points="131.12,-382 15.38,-382 15.38,-350 131.12,-350 131.12,-382"/>
<text xml:space="preserve" text-anchor="start" x="23.38" y="-368.5" font-family="Helvetica,sans-Serif" font-size="10.00">GameEngine::Collision</text>
<text xml:space="preserve" text-anchor="middle" x="73.25" y="-356.5" font-family="Helvetica,sans-Serif" font-size="10.00">::onUpdate</text>
</a>
</g>
</g>
<!-- Node2&#45;&gt;Node4 -->
<g id="edge3_Node000002_Node000004" class="edge">
<title>Node2&#45;&gt;Node4</title>
<g id="a_edge3_Node000002_Node000004"><a xlink:title=" ">
<path fill="none" stroke="#63b8ff" d="M214.11,-236.83C203.46,-264.44 181.04,-312.95 146.5,-341 141.97,-344.68 136.86,-347.84 131.5,-350.54"/>
<polygon fill="#63b8ff" stroke="#63b8ff" points="217.26,-238.4 217.43,-227.81 210.69,-235.98 217.26,-238.4"/>
</a>
</g>
</g>
<!-- Node5 -->
<g id="Node000005" class="node">
<title>Node5</title>
<g id="a_Node000005"><a xlink:href="classGameEngine_1_1Death.html#a081a250ee3a8d22b7dd2323dbaba0eb7" target="_top" xlink:title=" ">
<polygon fill="white" stroke="#666666" points="128.5,-332 18,-332 18,-300 128.5,-300 128.5,-332"/>
<text xml:space="preserve" text-anchor="start" x="26" y="-318.5" font-family="Helvetica,sans-Serif" font-size="10.00">GameEngine::Death::</text>
<text xml:space="preserve" text-anchor="middle" x="73.25" y="-306.5" font-family="Helvetica,sans-Serif" font-size="10.00">onUpdate</text>
</a>
</g>
</g>
<!-- Node2&#45;&gt;Node5 -->
<g id="edge4_Node000002_Node000005" class="edge">
<title>Node2&#45;&gt;Node5</title>
<g id="a_edge4_Node000002_Node000005"><a xlink:title=" ">
<path fill="none" stroke="#63b8ff" d="M206.34,-235.4C192.43,-252.19 170.35,-276.06 146.5,-291 140.99,-294.45 134.94,-297.5 128.76,-300.17"/>
<polygon fill="#63b8ff" stroke="#63b8ff" points="209.05,-237.62 212.59,-227.64 203.6,-233.23 209.05,-237.62"/>
</a>
</g>
</g>
<!-- Node6 -->
<g id="Node000006" class="node">
<title>Node6</title>
<g id="a_Node000006"><a xlink:href="classGameEngine_1_1DomainHandler.html#a2e491047939e77c803075c6c490d54ee" target="_top" xlink:title="Updates the system, checking entity positions against their domain boundaries.">
<polygon fill="white" stroke="#666666" points="146.12,-282 0.38,-282 0.38,-250 146.12,-250 146.12,-282"/>
<text xml:space="preserve" text-anchor="start" x="8.38" y="-268.5" font-family="Helvetica,sans-Serif" font-size="10.00">GameEngine::DomainHandler</text>
<text xml:space="preserve" text-anchor="middle" x="73.25" y="-256.5" font-family="Helvetica,sans-Serif" font-size="10.00">::onUpdate</text>
</a>
</g>
</g>
<!-- Node2&#45;&gt;Node6 -->
<g id="edge5_Node000002_Node000006" class="edge">
<title>Node2&#45;&gt;Node6</title>
<g id="a_edge5_Node000002_Node000006"><a xlink:title=" ">
<path fill="none" stroke="#63b8ff" d="M179.66,-230.18C161.92,-236.2 141.13,-243.27 122.72,-249.53"/>
<polygon fill="#63b8ff" stroke="#63b8ff" points="180.76,-233.5 189.1,-226.97 178.51,-226.87 180.76,-233.5"/>
</a>
</g>
</g>
<!-- Node7 -->
<g id="Node000007" class="node">
<title>Node7</title>
<g id="a_Node000007"><a xlink:href="classGameEngine_1_1FPApplyGravity.html#a4fc5342f686d0c3bc6acd4f8c85cb720" target="_top" xlink:title=" ">
<polygon fill="white" stroke="#666666" points="146.5,-232 0,-232 0,-200 146.5,-200 146.5,-232"/>
<text xml:space="preserve" text-anchor="start" x="8" y="-218.5" font-family="Helvetica,sans-Serif" font-size="10.00">GameEngine::FPApplyGravity</text>
<text xml:space="preserve" text-anchor="middle" x="73.25" y="-206.5" font-family="Helvetica,sans-Serif" font-size="10.00">::onUpdate</text>
</a>
</g>
</g>
<!-- Node2&#45;&gt;Node7 -->
<g id="edge6_Node000002_Node000007" class="edge">
<title>Node2&#45;&gt;Node7</title>
<g id="a_edge6_Node000002_Node000007"><a xlink:title=" ">
<path fill="none" stroke="#63b8ff" d="M170.87,-216C163.09,-216 154.92,-216 146.77,-216"/>
<polygon fill="#63b8ff" stroke="#63b8ff" points="170.82,-219.5 180.82,-216 170.82,-212.5 170.82,-219.5"/>
</a>
</g>
</g>
<!-- Node8 -->
<g id="Node000008" class="node">
<title>Node8</title>
<g id="a_Node000008"><a xlink:href="classGameEngine_1_1FPInputHandler.html#adc119a8b423c28985d8a8e87baad6421" target="_top" xlink:title=" ">
<polygon fill="white" stroke="#666666" points="146.5,-182 0,-182 0,-150 146.5,-150 146.5,-182"/>
<text xml:space="preserve" text-anchor="start" x="8" y="-168.5" font-family="Helvetica,sans-Serif" font-size="10.00">GameEngine::FPInputHandler</text>
<text xml:space="preserve" text-anchor="middle" x="73.25" y="-156.5" font-family="Helvetica,sans-Serif" font-size="10.00">::onUpdate</text>
</a>
</g>
</g>
<!-- Node2&#45;&gt;Node8 -->
<g id="edge7_Node000002_Node000008" class="edge">
<title>Node2&#45;&gt;Node8</title>
<g id="a_edge7_Node000002_Node000008"><a xlink:title=" ">
<path fill="none" stroke="#63b8ff" d="M179.66,-201.82C161.92,-195.8 141.13,-188.73 122.72,-182.47"/>
<polygon fill="#63b8ff" stroke="#63b8ff" points="178.51,-205.13 189.1,-205.03 180.76,-198.5 178.51,-205.13"/>
</a>
</g>
</g>
<!-- Node9 -->
<g id="Node000009" class="node">
<title>Node9</title>
<g id="a_Node000009"><a xlink:href="classGameEngine_1_1FPMotion.html#adeee4196198d928de33feb2182396c85" target="_top" xlink:title=" ">
<polygon fill="white" stroke="#666666" points="133.38,-132 13.12,-132 13.12,-100 133.38,-100 133.38,-132"/>
<text xml:space="preserve" text-anchor="start" x="21.12" y="-118.5" font-family="Helvetica,sans-Serif" font-size="10.00">GameEngine::FPMotion</text>
<text xml:space="preserve" text-anchor="middle" x="73.25" y="-106.5" font-family="Helvetica,sans-Serif" font-size="10.00">::onUpdate</text>
</a>
</g>
</g>
<!-- Node2&#45;&gt;Node9 -->
<g id="edge8_Node000002_Node000009" class="edge">
<title>Node2&#45;&gt;Node9</title>
<g id="a_edge8_Node000002_Node000009"><a xlink:title=" ">
<path fill="none" stroke="#63b8ff" d="M206.34,-196.6C192.43,-179.81 170.35,-155.94 146.5,-141 141.44,-137.83 135.92,-135 130.27,-132.49"/>
<polygon fill="#63b8ff" stroke="#63b8ff" points="203.6,-198.77 212.59,-204.36 209.05,-194.38 203.6,-198.77"/>
</a>
</g>
</g>
<!-- Node10 -->
<g id="Node000010" class="node">
<title>Node10</title>
<g id="a_Node000010"><a xlink:href="classGameEngine_1_1InputHandler.html#acb0d11bd1241dad8925f26b86f6d9007" target="_top" xlink:title=" ">
<polygon fill="white" stroke="#666666" points="140.12,-82 6.38,-82 6.38,-50 140.12,-50 140.12,-82"/>
<text xml:space="preserve" text-anchor="start" x="14.38" y="-68.5" font-family="Helvetica,sans-Serif" font-size="10.00">GameEngine::InputHandler</text>
<text xml:space="preserve" text-anchor="middle" x="73.25" y="-56.5" font-family="Helvetica,sans-Serif" font-size="10.00">::onUpdate</text>
</a>
</g>
</g>
<!-- Node2&#45;&gt;Node10 -->
<g id="edge9_Node000002_Node000010" class="edge">
<title>Node2&#45;&gt;Node10</title>
<g id="a_edge9_Node000002_Node000010"><a xlink:title=" ">
<path fill="none" stroke="#63b8ff" d="M214.11,-195.17C203.46,-167.56 181.04,-119.05 146.5,-91 142.48,-87.74 138.01,-84.89 133.32,-82.4"/>
<polygon fill="#63b8ff" stroke="#63b8ff" points="210.69,-196.02 217.43,-204.19 217.26,-193.6 210.69,-196.02"/>
</a>
</g>
</g>
<!-- Node11 -->
<g id="Node000011" class="node">
<title>Node11</title>
<g id="a_Node000011"><a xlink:href="classGameEngine_1_1Motion.html#a015b898244098b869ceb6001884ae9fe" target="_top" xlink:title=" ">
<polygon fill="white" stroke="#666666" points="127,-32 19.5,-32 19.5,0 127,0 127,-32"/>
<text xml:space="preserve" text-anchor="start" x="27.5" y="-18.5" font-family="Helvetica,sans-Serif" font-size="10.00">GameEngine::Motion</text>
<text xml:space="preserve" text-anchor="middle" x="73.25" y="-6.5" font-family="Helvetica,sans-Serif" font-size="10.00">::onUpdate</text>
</a>
</g>
</g>
<!-- Node2&#45;&gt;Node11 -->
<g id="edge10_Node000002_Node000011" class="edge">
<title>Node2&#45;&gt;Node11</title>
<g id="a_edge10_Node000002_Node000011"><a xlink:title=" ">
<path fill="none" stroke="#63b8ff" d="M217.94,-194.39C211,-157.75 191.93,-83.31 146.5,-41 140.96,-35.84 134.31,-31.74 127.31,-28.49"/>
<polygon fill="#63b8ff" stroke="#63b8ff" points="214.48,-194.92 219.65,-204.17 221.37,-193.72 214.48,-194.92"/>
</a>
</g>
</g>
</g>
</svg>
