<?xml version="1.0" encoding="UTF-8" standalone="no"?>
<!DOCTYPE svg PUBLIC "-//W3C//DTD SVG 1.1//EN"
 "http://www.w3.org/Graphics/SVG/1.1/DTD/svg11.dtd">
<!-- Generated by graphviz version 14.0.1 (0)
 -->
<!-- Title: systems/collision/src/Collision.hpp Pages: 1 -->
<svg width="1286pt" height="332pt"
 viewBox="0.00 0.00 1286.00 332.00" xmlns="http://www.w3.org/2000/svg" xmlns:xlink="http://www.w3.org/1999/xlink">
<g id="graph0" class="graph" transform="scale(1 1) rotate(0) translate(4 328)">
<title>systems/collision/src/Collision.hpp</title>
<!-- Node1 -->
<g id="Node000001" class="node">
<title>Node1</title>
<g id="a_Node000001"><a xlink:title=" ">
<polygon fill="#999999" stroke="#666666" points="644.12,-324 535.88,-324 535.88,-292 644.12,-292 644.12,-324"/>
<text xml:space="preserve" text-anchor="start" x="543.88" y="-310.5" font-family="Helvetica,sans-Serif" font-size="10.00">systems/collision/src</text>
<text xml:space="preserve" text-anchor="middle" x="590" y="-298.5" font-family="Helvetica,sans-Serif" font-size="10.00">/Collision.hpp</text>
</a>
</g>
</g>
<!-- Node2 -->
<g id="Node000002" class="node">
<title>Node2</title>
<g id="a_Node000002"><a xlink:title=" ">
<polygon fill="#e0e0e0" stroke="#999999" points="237.88,-188 182.12,-188 182.12,-168 237.88,-168 237.88,-188"/>
<text xml:space="preserve" text-anchor="middle" x="210" y="-174.5" font-family="Helvetica,sans-Serif" font-size="10.00">algorithm</text>
</a>
</g>
</g>
<!-- Node1&#45;&gt;Node2 -->
<g id="edge1_Node000001_Node000002" class="edge">
<title>Node1&#45;&gt;Node2</title>
<g id="a_edge1_Node000001_Node000002"><a xlink:title=" ">
<path fill="none" stroke="#63b8ff" d="M535.59,-299.98C486.31,-292.56 412.26,-278.71 351,-256 307.17,-239.75 260.3,-211.78 233.15,-194.39"/>
<polygon fill="#63b8ff" stroke="#63b8ff" points="235.32,-191.63 225.03,-189.12 231.51,-197.5 235.32,-191.63"/>
</a>
</g>
</g>
<!-- Node3 -->
<g id="Node000003" class="node">
<title>Node3</title>
<g id="a_Node000003"><a xlink:title=" ">
<polygon fill="#e0e0e0" stroke="#999999" points="199.62,-20 154.38,-20 154.38,0 199.62,0 199.62,-20"/>
<text xml:space="preserve" text-anchor="middle" x="177" y="-6.5" font-family="Helvetica,sans-Serif" font-size="10.00">cstdint</text>
</a>
</g>
</g>
<!-- Node1&#45;&gt;Node3 -->
<g id="edge2_Node000001_Node000003" class="edge">
<title>Node1&#45;&gt;Node3</title>
<g id="a_edge2_Node000001_Node000003"><a xlink:title=" ">
<path fill="none" stroke="#63b8ff" d="M535.55,-306.68C389.49,-304.38 0,-288.01 0,-179 0,-179 0,-179 0,-121 0,-54.37 91.59,-26.68 143,-16.39"/>
<polygon fill="#63b8ff" stroke="#63b8ff" points="143.55,-19.84 152.73,-14.56 142.26,-12.96 143.55,-19.84"/>
</a>
</g>
</g>
<!-- Node4 -->
<g id="Node000004" class="node">
<title>Node4</title>
<g id="a_Node000004"><a xlink:title=" ">
<polygon fill="#e0e0e0" stroke="#999999" points="247.5,-76 204.5,-76 204.5,-56 247.5,-56 247.5,-76"/>
<text xml:space="preserve" text-anchor="middle" x="226" y="-62.5" font-family="Helvetica,sans-Serif" font-size="10.00">vector</text>
</a>
</g>
</g>
<!-- Node1&#45;&gt;Node4 -->
<g id="edge3_Node000001_Node000004" class="edge">
<title>Node1&#45;&gt;Node4</title>
<g id="a_edge3_Node000001_Node000004"><a xlink:title=" ">
<path fill="none" stroke="#63b8ff" d="M535.44,-304.74C471.94,-300.61 364.82,-288.94 279,-256 226.74,-235.94 199.84,-237.11 173,-188 153.59,-152.49 186.12,-108.44 208.21,-84.5"/>
<polygon fill="#63b8ff" stroke="#63b8ff" points="210.57,-87.09 214.98,-77.46 205.53,-82.24 210.57,-87.09"/>
</a>
</g>
</g>
<!-- Node5 -->
<g id="Node000005" class="node">
<title>Node5</title>
<g id="a_Node000005"><a xlink:href="Registry_8hpp.html" target="_top" xlink:title=" ">
<polygon fill="white" stroke="#666666" points="476.25,-250 359.75,-250 359.75,-230 476.25,-230 476.25,-250"/>
<text xml:space="preserve" text-anchor="middle" x="418" y="-236.5" font-family="Helvetica,sans-Serif" font-size="10.00">../../../ecs/Registry.hpp</text>
</a>
</g>
</g>
<!-- Node1&#45;&gt;Node5 -->
<g id="edge4_Node000001_Node000005" class="edge">
<title>Node1&#45;&gt;Node5</title>
<g id="a_edge4_Node000001_Node000005"><a xlink:title=" ">
<path fill="none" stroke="#63b8ff" d="M549.67,-291.53C520.4,-280.29 481.17,-265.24 453.16,-254.49"/>
<polygon fill="#63b8ff" stroke="#63b8ff" points="454.66,-251.32 444.07,-251 452.15,-257.85 454.66,-251.32"/>
</a>
</g>
</g>
<!-- Node11 -->
<g id="Node000011" class="node">
<title>Node11</title>
<g id="a_Node000011"><a xlink:href="System_8hpp.html" target="_top" xlink:title=" ">
<polygon fill="white" stroke="#666666" points="622.25,-188 553.75,-188 553.75,-168 622.25,-168 622.25,-188"/>
<text xml:space="preserve" text-anchor="middle" x="588" y="-174.5" font-family="Helvetica,sans-Serif" font-size="10.00">System.hpp</text>
</a>
</g>
</g>
<!-- Node1&#45;&gt;Node11 -->
<g id="edge29_Node000001_Node000011" class="edge">
<title>Node1&#45;&gt;Node11</title>
<g id="a_edge29_Node000001_Node000011"><a xlink:title=" ">
<path fill="none" stroke="#63b8ff" d="M576.71,-291.65C569.33,-282.09 560.88,-269.15 557,-256 552.97,-242.36 552.78,-237.58 557,-224 560.01,-214.32 565.91,-204.88 571.76,-197.16"/>
<polygon fill="#63b8ff" stroke="#63b8ff" points="574.33,-199.55 577.97,-189.6 568.92,-195.11 574.33,-199.55"/>
</a>
</g>
</g>
<!-- Node17 -->
<g id="Node000017" class="node">
<title>Node17</title>
<g id="a_Node000017"><a xlink:href="Collider_8hpp.html" target="_top" xlink:title=" ">
<polygon fill="white" stroke="#666666" points="1001.5,-256 880.5,-256 880.5,-224 1001.5,-224 1001.5,-256"/>
<text xml:space="preserve" text-anchor="start" x="888.5" y="-242.5" font-family="Helvetica,sans-Serif" font-size="10.00">../../../components</text>
<text xml:space="preserve" text-anchor="middle" x="941" y="-230.5" font-family="Helvetica,sans-Serif" font-size="10.00">/collider/src/Collider.hpp</text>
</a>
</g>
</g>
<!-- Node1&#45;&gt;Node17 -->
<g id="edge30_Node000001_Node000017" class="edge">
<title>Node1&#45;&gt;Node17</title>
<g id="a_edge30_Node000001_Node000017"><a xlink:title=" ">
<path fill="none" stroke="#63b8ff" d="M644.49,-297.64C698.79,-288.18 784.84,-272.89 869.23,-256.31"/>
<polygon fill="#63b8ff" stroke="#63b8ff" points="869.7,-259.79 878.83,-254.42 868.34,-252.92 869.7,-259.79"/>
</a>
</g>
</g>
<!-- Node20 -->
<g id="Node000020" class="node">
<title>Node20</title>
<g id="a_Node000020"><a xlink:href="Position_8hpp.html" target="_top" xlink:title=" ">
<polygon fill="white" stroke="#666666" points="862.12,-256 735.88,-256 735.88,-224 862.12,-224 862.12,-256"/>
<text xml:space="preserve" text-anchor="start" x="743.88" y="-242.5" font-family="Helvetica,sans-Serif" font-size="10.00">../../../components</text>
<text xml:space="preserve" text-anchor="middle" x="799" y="-230.5" font-family="Helvetica,sans-Serif" font-size="10.00">/position/src/Position.hpp</text>
</a>
</g>
</g>
<!-- Node1&#45;&gt;Node20 -->
<g id="edge34_Node000001_Node000020" class="edge">
<title>Node1&#45;&gt;Node20</title>
<g id="a_edge34_Node000001_Node000020"><a xlink:title=" ">
<path fill="none" stroke="#63b8ff" d="M639,-291.53C668.9,-282.09 707.33,-269.95 739.04,-259.94"/>
<polygon fill="#63b8ff" stroke="#63b8ff" points="740.02,-263.3 748.5,-256.95 737.91,-256.62 740.02,-263.3"/>
</a>
</g>
</g>
<!-- Node21 -->
<g id="Node000021" class="node">
<title>Node21</title>
<g id="a_Node000021"><a xlink:href="Renderable_8hpp.html" target="_top" xlink:title=" ">
<polygon fill="white" stroke="#666666" points="717.88,-256 566.12,-256 566.12,-224 717.88,-224 717.88,-256"/>
<text xml:space="preserve" text-anchor="start" x="574.12" y="-242.5" font-family="Helvetica,sans-Serif" font-size="10.00">../../../components</text>
<text xml:space="preserve" text-anchor="middle" x="642" y="-230.5" font-family="Helvetica,sans-Serif" font-size="10.00">/renderable/src/Renderable.hpp</text>
</a>
</g>
</g>
<!-- Node1&#45;&gt;Node21 -->
<g id="edge36_Node000001_Node000021" class="edge">
<title>Node1&#45;&gt;Node21</title>
<g id="a_edge36_Node000001_Node000021"><a xlink:title=" ">
<path fill="none" stroke="#63b8ff" d="M602.06,-291.69C608.3,-283.78 616.05,-273.94 623.06,-265.04"/>
<polygon fill="#63b8ff" stroke="#63b8ff" points="625.63,-267.43 629.07,-257.41 620.13,-263.1 625.63,-267.43"/>
</a>
</g>
</g>
<!-- Node23 -->
<g id="Node000023" class="node">
<title>Node23</title>
<g id="a_Node000023"><a xlink:href="Damage_8hpp.html" target="_top" xlink:title=" ">
<polygon fill="white" stroke="#666666" points="1148.25,-256 1019.75,-256 1019.75,-224 1148.25,-224 1148.25,-256"/>
<text xml:space="preserve" text-anchor="start" x="1027.75" y="-242.5" font-family="Helvetica,sans-Serif" font-size="10.00">../../../components</text>
<text xml:space="preserve" text-anchor="middle" x="1084" y="-230.5" font-family="Helvetica,sans-Serif" font-size="10.00">/damage/src/Damage.hpp</text>
</a>
</g>
</g>
<!-- Node1&#45;&gt;Node23 -->
<g id="edge40_Node000001_Node000023" class="edge">
<title>Node1&#45;&gt;Node23</title>
<g id="a_edge40_Node000001_Node000023"><a xlink:title=" ">
<path fill="none" stroke="#63b8ff" d="M644.36,-301.86C722.65,-294.13 871.89,-278.22 1008.5,-256.33"/>
<polygon fill="#63b8ff" stroke="#63b8ff" points="1008.76,-259.83 1018.07,-254.78 1007.64,-252.92 1008.76,-259.83"/>
</a>
</g>
</g>
<!-- Node24 -->
<g id="Node000024" class="node">
<title>Node24</title>
<g id="a_Node000024"><a xlink:href="Health_8hpp.html" target="_top" xlink:title=" ">
<polygon fill="white" stroke="#666666" points="1278,-256 1166,-256 1166,-224 1278,-224 1278,-256"/>
<text xml:space="preserve" text-anchor="start" x="1174" y="-242.5" font-family="Helvetica,sans-Serif" font-size="10.00">../../../components</text>
<text xml:space="preserve" text-anchor="middle" x="1222" y="-230.5" font-family="Helvetica,sans-Serif" font-size="10.00">/health/src/Health.hpp</text>
</a>
</g>
</g>
<!-- Node1&#45;&gt;Node24 -->
<g id="edge41_Node000001_Node000024" class="edge">
<title>Node1&#45;&gt;Node24</title>
<g id="a_edge41_Node000001_Node000024"><a xlink:title=" ">
<path fill="none" stroke="#63b8ff" d="M644.25,-304.6C743.61,-299.66 961.59,-286.35 1154.52,-256.26"/>
<polygon fill="#63b8ff" stroke="#63b8ff" points="1154.9,-259.74 1164.23,-254.72 1153.8,-252.83 1154.9,-259.74"/>
</a>
</g>
</g>
<!-- Node5&#45;&gt;Node2 -->
<g id="edge25_Node000005_Node000002" class="edge">
<title>Node5&#45;&gt;Node2</title>
<g id="a_edge25_Node000005_Node000002"><a xlink:title=" ">
<path fill="none" stroke="#63b8ff" d="M385.5,-229.62C348.69,-219.01 288.71,-201.7 249.3,-190.34"/>
<polygon fill="#63b8ff" stroke="#63b8ff" points="250.3,-186.98 239.72,-187.57 248.36,-193.71 250.3,-186.98"/>
</a>
</g>
</g>
<!-- Node5&#45;&gt;Node4 -->
<g id="edge23_Node000005_Node000004" class="edge">
<title>Node5&#45;&gt;Node4</title>
<g id="a_edge23_Node000005_Node000004"><a xlink:title=" ">
<path fill="none" stroke="#63b8ff" d="M400.12,-229.6C380.66,-219.37 348.61,-202.53 321,-188 304.11,-179.11 299.98,-176.71 283,-168 251.17,-151.67 229.81,-162.43 211,-132 202.35,-118.01 207.92,-99.53 214.59,-85.86"/>
<polygon fill="#63b8ff" stroke="#63b8ff" points="217.47,-87.88 219.2,-77.42 211.33,-84.52 217.47,-87.88"/>
</a>
</g>
</g>
<!-- Node6 -->
<g id="Node000006" class="node">
<title>Node6</title>
<g id="a_Node000006"><a xlink:href="Types_8hpp.html" target="_top" xlink:title="Core type definitions used throughout the ECS (Entity Component System).">
<polygon fill="white" stroke="#666666" points="592.5,-76 531.5,-76 531.5,-56 592.5,-56 592.5,-76"/>
<text xml:space="preserve" text-anchor="middle" x="562" y="-62.5" font-family="Helvetica,sans-Serif" font-size="10.00">Types.hpp</text>
</a>
</g>
</g>
<!-- Node5&#45;&gt;Node6 -->
<g id="edge5_Node000005_Node000006" class="edge">
<title>Node5&#45;&gt;Node6</title>
<g id="a_edge5_Node000005_Node000006"><a xlink:title=" ">
<path fill="none" stroke="#63b8ff" d="M418.7,-229.56C420.92,-206.26 429.86,-145.51 464,-112 479.64,-96.65 501.46,-85.93 520.54,-78.82"/>
<polygon fill="#63b8ff" stroke="#63b8ff" points="521.67,-82.13 529.96,-75.53 519.37,-75.52 521.67,-82.13"/>
</a>
</g>
</g>
<!-- Node8 -->
<g id="Node000008" class="node">
<title>Node8</title>
<g id="a_Node000008"><a xlink:href="ComponentRegistry_8hpp.html" target="_top" xlink:title=" ">
<polygon fill="white" stroke="#666666" points="593.5,-132 472.5,-132 472.5,-112 593.5,-112 593.5,-132"/>
<text xml:space="preserve" text-anchor="middle" x="533" y="-118.5" font-family="Helvetica,sans-Serif" font-size="10.00">ComponentRegistry.hpp</text>
</a>
</g>
</g>
<!-- Node5&#45;&gt;Node8 -->
<g id="edge8_Node000005_Node000008" class="edge">
<title>Node5&#45;&gt;Node8</title>
<g id="a_edge8_Node000005_Node000008"><a xlink:title=" ">
<path fill="none" stroke="#63b8ff" d="M444.13,-229.54C463.76,-221.26 490.06,-207.49 507,-188 518.1,-175.23 524.82,-157.12 528.63,-143.27"/>
<polygon fill="#63b8ff" stroke="#63b8ff" points="531.95,-144.43 530.92,-133.89 525.15,-142.77 531.95,-144.43"/>
</a>
</g>
</g>
<!-- Node5&#45;&gt;Node11 -->
<g id="edge13_Node000005_Node000011" class="edge">
<title>Node5&#45;&gt;Node11</title>
<g id="a_edge13_Node000005_Node000011"><a xlink:title=" ">
<path fill="none" stroke="#63b8ff" d="M444.56,-229.62C473.05,-219.57 518.5,-203.53 550.6,-192.2"/>
<polygon fill="#63b8ff" stroke="#63b8ff" points="551.65,-195.54 559.92,-188.91 549.32,-188.94 551.65,-195.54"/>
</a>
</g>
</g>
<!-- Node12 -->
<g id="Node000012" class="node">
<title>Node12</title>
<g id="a_Node000012"><a xlink:href="EntityManager_8hpp.html" target="_top" xlink:title=" ">
<polygon fill="white" stroke="#666666" points="125.88,-132 28.12,-132 28.12,-112 125.88,-112 125.88,-132"/>
<text xml:space="preserve" text-anchor="middle" x="77" y="-118.5" font-family="Helvetica,sans-Serif" font-size="10.00">EntityManager.hpp</text>
</a>
</g>
</g>
<!-- Node5&#45;&gt;Node12 -->
<g id="edge18_Node000005_Node000012" class="edge">
<title>Node5&#45;&gt;Node12</title>
<g id="a_edge18_Node000005_Node000012"><a xlink:title=" ">
<path fill="none" stroke="#63b8ff" d="M393.29,-229.63C367.39,-219.7 325.58,-203.35 290,-188 270.65,-179.65 266.82,-175.17 247,-168 209.47,-154.43 165.94,-142.98 132.33,-135.03"/>
<polygon fill="#63b8ff" stroke="#63b8ff" points="133.34,-131.67 122.8,-132.81 131.75,-138.49 133.34,-131.67"/>
</a>
</g>
</g>
<!-- Node13 -->
<g id="Node000013" class="node">
<title>Node13</title>
<g id="a_Node000013"><a xlink:href="SparseSet_8hpp.html" target="_top" xlink:title=" ">
<polygon fill="white" stroke="#666666" points="300.25,-132 219.75,-132 219.75,-112 300.25,-112 300.25,-132"/>
<text xml:space="preserve" text-anchor="middle" x="260" y="-118.5" font-family="Helvetica,sans-Serif" font-size="10.00">SparseSet.hpp</text>
</a>
</g>
</g>
<!-- Node5&#45;&gt;Node13 -->
<g id="edge21_Node000005_Node000013" class="edge">
<title>Node5&#45;&gt;Node13</title>
<g id="a_edge21_Node000005_Node000013"><a xlink:title=" ">
<path fill="none" stroke="#63b8ff" d="M405.07,-229.51C377.97,-209.61 314.97,-163.36 281.62,-138.87"/>
<polygon fill="#63b8ff" stroke="#63b8ff" points="284.02,-136.29 273.89,-133.2 279.88,-141.93 284.02,-136.29"/>
</a>
</g>
</g>
<!-- Node14 -->
<g id="Node000014" class="node">
<title>Node14</title>
<g id="a_Node000014"><a xlink:title=" ">
<polygon fill="#e0e0e0" stroke="#999999" points="497.62,-188 446.38,-188 446.38,-168 497.62,-168 497.62,-188"/>
<text xml:space="preserve" text-anchor="middle" x="472" y="-174.5" font-family="Helvetica,sans-Serif" font-size="10.00">memory</text>
</a>
</g>
</g>
<!-- Node5&#45;&gt;Node14 -->
<g id="edge24_Node000005_Node000014" class="edge">
<title>Node5&#45;&gt;Node14</title>
<g id="a_edge24_Node000005_Node000014"><a xlink:title=" ">
<path fill="none" stroke="#63b8ff" d="M426.44,-229.62C434.41,-220.77 446.57,-207.26 456.32,-196.43"/>
<polygon fill="#63b8ff" stroke="#63b8ff" points="458.7,-199.01 462.79,-189.24 453.49,-194.33 458.7,-199.01"/>
</a>
</g>
</g>
<!-- Node15 -->
<g id="Node000015" class="node">
<title>Node15</title>
<g id="a_Node000015"><a xlink:title=" ">
<polygon fill="#e0e0e0" stroke="#999999" points="693.75,-188 640.25,-188 640.25,-168 693.75,-168 693.75,-188"/>
<text xml:space="preserve" text-anchor="middle" x="667" y="-174.5" font-family="Helvetica,sans-Serif" font-size="10.00">iostream</text>
</a>
</g>
</g>
<!-- Node5&#45;&gt;Node15 -->
<g id="edge26_Node000005_Node000015" class="edge">
<title>Node5&#45;&gt;Node15</title>
<g id="a_edge26_Node000005_Node000015"><a xlink:title=" ">
<path fill="none" stroke="#63b8ff" d="M458.07,-229.53C498.65,-219.92 563.5,-204.47 628.95,-188.48"/>
<polygon fill="#63b8ff" stroke="#63b8ff" points="629.53,-191.95 638.41,-186.17 627.86,-185.15 629.53,-191.95"/>
</a>
</g>
</g>
<!-- Node16 -->
<g id="Node000016" class="node">
<title>Node16</title>
<g id="a_Node000016"><a xlink:href="Clock_8hpp.html" target="_top" xlink:title=" ">
<polygon fill="white" stroke="#666666" points="416.12,-132 355.88,-132 355.88,-112 416.12,-112 416.12,-132"/>
<text xml:space="preserve" text-anchor="middle" x="386" y="-118.5" font-family="Helvetica,sans-Serif" font-size="10.00">Clock.hpp</text>
</a>
</g>
</g>
<!-- Node5&#45;&gt;Node16 -->
<g id="edge27_Node000005_Node000016" class="edge">
<title>Node5&#45;&gt;Node16</title>
<g id="a_edge27_Node000005_Node000016"><a xlink:title=" ">
<path fill="none" stroke="#63b8ff" d="M415.38,-229.51C410.2,-210.72 398.53,-168.44 391.56,-143.16"/>
<polygon fill="#63b8ff" stroke="#63b8ff" points="395,-142.47 388.97,-133.76 388.25,-144.33 395,-142.47"/>
</a>
</g>
</g>
<!-- Node6&#45;&gt;Node3 -->
<g id="edge6_Node000006_Node000003" class="edge">
<title>Node6&#45;&gt;Node3</title>
<g id="a_edge6_Node000006_Node000003"><a xlink:title=" ">
<path fill="none" stroke="#63b8ff" d="M531.05,-57.74C528,-57.11 524.94,-56.52 522,-56 408.81,-35.93 273.25,-20.83 211.13,-14.4"/>
<polygon fill="#63b8ff" stroke="#63b8ff" points="211.52,-10.93 201.22,-13.39 210.81,-17.89 211.52,-10.93"/>
</a>
</g>
</g>
<!-- Node7 -->
<g id="Node000007" class="node">
<title>Node7</title>
<g id="a_Node000007"><a xlink:title=" ">
<polygon fill="#e0e0e0" stroke="#999999" points="785,-20 745,-20 745,0 785,0 785,-20"/>
<text xml:space="preserve" text-anchor="middle" x="765" y="-6.5" font-family="Helvetica,sans-Serif" font-size="10.00">bitset</text>
</a>
</g>
</g>
<!-- Node6&#45;&gt;Node7 -->
<g id="edge7_Node000006_Node000007" class="edge">
<title>Node6&#45;&gt;Node7</title>
<g id="a_edge7_Node000006_Node000007"><a xlink:title=" ">
<path fill="none" stroke="#63b8ff" d="M592.83,-56.8C630.93,-46.66 695.39,-29.52 733.7,-19.33"/>
<polygon fill="#63b8ff" stroke="#63b8ff" points="734.47,-22.74 743.23,-16.79 732.67,-15.98 734.47,-22.74"/>
</a>
</g>
</g>
<!-- Node8&#45;&gt;Node4 -->
<g id="edge10_Node000008_Node000004" class="edge">
<title>Node8&#45;&gt;Node4</title>
<g id="a_edge10_Node000008_Node000004"><a xlink:title=" ">
<path fill="none" stroke="#63b8ff" d="M479.17,-111.53C415.54,-100.34 311.66,-82.07 258.93,-72.79"/>
<polygon fill="#63b8ff" stroke="#63b8ff" points="259.83,-69.4 249.38,-71.11 258.62,-76.29 259.83,-69.4"/>
</a>
</g>
</g>
<!-- Node8&#45;&gt;Node6 -->
<g id="edge9_Node000008_Node000006" class="edge">
<title>Node8&#45;&gt;Node6</title>
<g id="a_edge9_Node000008_Node000006"><a xlink:title=" ">
<path fill="none" stroke="#63b8ff" d="M538.05,-111.59C541.79,-104.63 547.02,-94.89 551.64,-86.29"/>
<polygon fill="#63b8ff" stroke="#63b8ff" points="554.64,-88.1 556.29,-77.63 548.48,-84.79 554.64,-88.1"/>
</a>
</g>
</g>
<!-- Node9 -->
<g id="Node000009" class="node">
<title>Node9</title>
<g id="a_Node000009"><a xlink:title=" ">
<polygon fill="#e0e0e0" stroke="#999999" points="513,-76 455,-76 455,-56 513,-56 513,-76"/>
<text xml:space="preserve" text-anchor="middle" x="484" y="-62.5" font-family="Helvetica,sans-Serif" font-size="10.00">typeindex</text>
</a>
</g>
</g>
<!-- Node8&#45;&gt;Node9 -->
<g id="edge11_Node000008_Node000009" class="edge">
<title>Node8&#45;&gt;Node9</title>
<g id="a_edge11_Node000008_Node000009"><a xlink:title=" ">
<path fill="none" stroke="#63b8ff" d="M524.46,-111.59C517.72,-104.16 508.11,-93.58 499.96,-84.58"/>
<polygon fill="#63b8ff" stroke="#63b8ff" points="502.77,-82.47 493.45,-77.42 497.58,-87.18 502.77,-82.47"/>
</a>
</g>
</g>
<!-- Node10 -->
<g id="Node000010" class="node">
<title>Node10</title>
<g id="a_Node000010"><a xlink:title=" ">
<polygon fill="#e0e0e0" stroke="#999999" points="665,-76 625,-76 625,-56 665,-56 665,-76"/>
<text xml:space="preserve" text-anchor="middle" x="645" y="-62.5" font-family="Helvetica,sans-Serif" font-size="10.00">string</text>
</a>
</g>
</g>
<!-- Node8&#45;&gt;Node10 -->
<g id="edge12_Node000008_Node000010" class="edge">
<title>Node8&#45;&gt;Node10</title>
<g id="a_edge12_Node000008_Node000010"><a xlink:title=" ">
<path fill="none" stroke="#63b8ff" d="M552.51,-111.59C569.75,-103.28 595.16,-91.03 614.99,-81.47"/>
<polygon fill="#63b8ff" stroke="#63b8ff" points="616.49,-84.63 623.98,-77.14 613.45,-78.33 616.49,-84.63"/>
</a>
</g>
</g>
<!-- Node11&#45;&gt;Node4 -->
<g id="edge17_Node000011_Node000004" class="edge">
<title>Node11&#45;&gt;Node4</title>
<g id="a_edge17_Node000011_Node000004"><a xlink:title=" ">
<path fill="none" stroke="#63b8ff" d="M553.55,-171.91C496.42,-163.24 384.64,-145.26 347,-132 344.53,-131.13 288.38,-100.8 253.45,-81.88"/>
<polygon fill="#63b8ff" stroke="#63b8ff" points="255.16,-78.83 244.7,-77.14 251.83,-84.98 255.16,-78.83"/>
</a>
</g>
</g>
<!-- Node11&#45;&gt;Node6 -->
<g id="edge14_Node000011_Node000006" class="edge">
<title>Node11&#45;&gt;Node6</title>
<g id="a_edge14_Node000011_Node000006"><a xlink:title=" ">
<path fill="none" stroke="#63b8ff" d="M593.4,-167.93C600.28,-155.14 610.44,-131.22 603,-112 598.9,-101.4 591.01,-91.77 583.23,-84.16"/>
<polygon fill="#63b8ff" stroke="#63b8ff" points="585.61,-81.59 575.84,-77.49 580.93,-86.79 585.61,-81.59"/>
</a>
</g>
</g>
<!-- Node11&#45;&gt;Node8 -->
<g id="edge15_Node000011_Node000008" class="edge">
<title>Node11&#45;&gt;Node8</title>
<g id="a_edge15_Node000011_Node000008"><a xlink:title=" ">
<path fill="none" stroke="#63b8ff" d="M578.42,-167.59C570.77,-160.08 559.84,-149.35 550.62,-140.3"/>
<polygon fill="#63b8ff" stroke="#63b8ff" points="553.14,-137.87 543.55,-133.36 548.23,-142.86 553.14,-137.87"/>
</a>
</g>
</g>
<!-- Node11&#45;&gt;Node10 -->
<g id="edge16_Node000011_Node000010" class="edge">
<title>Node11&#45;&gt;Node10</title>
<g id="a_edge16_Node000011_Node000010"><a xlink:title=" ">
<path fill="none" stroke="#63b8ff" d="M595,-167.68C601.47,-158.8 611.1,-144.92 618,-132 625.85,-117.31 632.99,-99.84 637.96,-86.71"/>
<polygon fill="#63b8ff" stroke="#63b8ff" points="641.18,-88.1 641.34,-77.5 634.61,-85.68 641.18,-88.1"/>
</a>
</g>
</g>
<!-- Node12&#45;&gt;Node3 -->
<g id="edge20_Node000012_Node000003" class="edge">
<title>Node12&#45;&gt;Node3</title>
<g id="a_edge20_Node000012_Node000003"><a xlink:title=" ">
<path fill="none" stroke="#63b8ff" d="M85.53,-111.62C102.2,-93.27 139.39,-52.37 160.86,-28.75"/>
<polygon fill="#63b8ff" stroke="#63b8ff" points="163.34,-31.23 167.48,-21.47 158.16,-26.52 163.34,-31.23"/>
</a>
</g>
</g>
<!-- Node12&#45;&gt;Node4 -->
<g id="edge19_Node000012_Node000004" class="edge">
<title>Node12&#45;&gt;Node4</title>
<g id="a_edge19_Node000012_Node000004"><a xlink:title=" ">
<path fill="none" stroke="#63b8ff" d="M102.95,-111.59C128.16,-102.46 166.51,-88.56 193.68,-78.71"/>
<polygon fill="#63b8ff" stroke="#63b8ff" points="194.58,-82.11 202.79,-75.41 192.2,-75.53 194.58,-82.11"/>
</a>
</g>
</g>
<!-- Node13&#45;&gt;Node4 -->
<g id="edge22_Node000013_Node000004" class="edge">
<title>Node13&#45;&gt;Node4</title>
<g id="a_edge22_Node000013_Node000004"><a xlink:title=" ">
<path fill="none" stroke="#63b8ff" d="M254.08,-111.59C249.64,-104.55 243.42,-94.67 237.96,-86"/>
<polygon fill="#63b8ff" stroke="#63b8ff" points="240.95,-84.18 232.66,-77.58 235.03,-87.91 240.95,-84.18"/>
</a>
</g>
</g>
<!-- Node16&#45;&gt;Node3 -->
<g id="edge28_Node000016_Node000003" class="edge">
<title>Node16&#45;&gt;Node3</title>
<g id="a_edge28_Node000016_Node000003"><a xlink:title=" ">
<path fill="none" stroke="#63b8ff" d="M368.18,-111.62C331.7,-92.42 248.29,-48.52 204.7,-25.58"/>
<polygon fill="#63b8ff" stroke="#63b8ff" points="206.59,-22.62 196.11,-21.06 203.33,-28.81 206.59,-22.62"/>
</a>
</g>
</g>
<!-- Node17&#45;&gt;Node7 -->
<g id="edge31_Node000017_Node000007" class="edge">
<title>Node17&#45;&gt;Node7</title>
<g id="a_edge31_Node000017_Node000007"><a xlink:title=" ">
<path fill="none" stroke="#63b8ff" d="M947.23,-223.58C952.24,-208.67 957.21,-185.8 949,-168 917.07,-98.78 837.9,-48.78 794.54,-25.55"/>
<polygon fill="#63b8ff" stroke="#63b8ff" points="796.42,-22.59 785.94,-21.06 793.18,-28.79 796.42,-22.59"/>
</a>
</g>
</g>
<!-- Node18 -->
<g id="Node000018" class="node">
<title>Node18</title>
<g id="a_Node000018"><a xlink:title=" ">
<polygon fill="#e0e0e0" stroke="#999999" points="939.62,-188 894.38,-188 894.38,-168 939.62,-168 939.62,-188"/>
<text xml:space="preserve" text-anchor="middle" x="917" y="-174.5" font-family="Helvetica,sans-Serif" font-size="10.00">variant</text>
</a>
</g>
</g>
<!-- Node17&#45;&gt;Node18 -->
<g id="edge32_Node000017_Node000018" class="edge">
<title>Node17&#45;&gt;Node18</title>
<g id="a_edge32_Node000017_Node000018"><a xlink:title=" ">
<path fill="none" stroke="#63b8ff" d="M934.82,-223.55C931.83,-216.08 928.21,-207.03 925.02,-199.04"/>
<polygon fill="#63b8ff" stroke="#63b8ff" points="928.29,-197.8 921.33,-189.81 921.79,-200.4 928.29,-197.8"/>
</a>
</g>
</g>
<!-- Node19 -->
<g id="Node000019" class="node">
<title>Node19</title>
<g id="a_Node000019"><a xlink:href="utils_8hpp.html" target="_top" xlink:title=" ">
<polygon fill="white" stroke="#666666" points="876.25,-188 777.75,-188 777.75,-168 876.25,-168 876.25,-188"/>
<text xml:space="preserve" text-anchor="middle" x="827" y="-174.5" font-family="Helvetica,sans-Serif" font-size="10.00">../../../ecs/utils.hpp</text>
</a>
</g>
</g>
<!-- Node17&#45;&gt;Node19 -->
<g id="edge33_Node000017_Node000019" class="edge">
<title>Node17&#45;&gt;Node19</title>
<g id="a_edge33_Node000017_Node000019"><a xlink:title=" ">
<path fill="none" stroke="#63b8ff" d="M911.64,-223.55C894.16,-214.35 872.1,-202.74 854.88,-193.68"/>
<polygon fill="#63b8ff" stroke="#63b8ff" points="856.69,-190.67 846.21,-189.11 853.43,-196.87 856.69,-190.67"/>
</a>
</g>
</g>
<!-- Node20&#45;&gt;Node19 -->
<g id="edge35_Node000020_Node000019" class="edge">
<title>Node20&#45;&gt;Node19</title>
<g id="a_edge35_Node000020_Node000019"><a xlink:title=" ">
<path fill="none" stroke="#63b8ff" d="M806.21,-223.55C809.73,-216 814.02,-206.82 817.78,-198.77"/>
<polygon fill="#63b8ff" stroke="#63b8ff" points="820.91,-200.32 821.97,-189.78 814.57,-197.36 820.91,-200.32"/>
</a>
</g>
</g>
<!-- Node21&#45;&gt;Node15 -->
<g id="edge38_Node000021_Node000015" class="edge">
<title>Node21&#45;&gt;Node15</title>
<g id="a_edge38_Node000021_Node000015"><a xlink:title=" ">
<path fill="none" stroke="#63b8ff" d="M648.44,-223.55C651.58,-216 655.41,-206.82 658.76,-198.77"/>
<polygon fill="#63b8ff" stroke="#63b8ff" points="661.88,-200.38 662.5,-189.81 655.42,-197.69 661.88,-200.38"/>
</a>
</g>
</g>
<!-- Node21&#45;&gt;Node19 -->
<g id="edge39_Node000021_Node000019" class="edge">
<title>Node21&#45;&gt;Node19</title>
<g id="a_edge39_Node000021_Node000019"><a xlink:title=" ">
<path fill="none" stroke="#63b8ff" d="M689.64,-223.55C719.79,-213.77 758.33,-201.27 786.91,-192"/>
<polygon fill="#63b8ff" stroke="#63b8ff" points="787.85,-195.38 796.28,-188.96 785.69,-188.72 787.85,-195.38"/>
</a>
</g>
</g>
<!-- Node22 -->
<g id="Node000022" class="node">
<title>Node22</title>
<g id="a_Node000022"><a xlink:title=" ">
<polygon fill="#e0e0e0" stroke="#999999" points="760.12,-188 711.88,-188 711.88,-168 760.12,-168 760.12,-188"/>
<text xml:space="preserve" text-anchor="middle" x="736" y="-174.5" font-family="Helvetica,sans-Serif" font-size="10.00">cstddef</text>
</a>
</g>
</g>
<!-- Node21&#45;&gt;Node22 -->
<g id="edge37_Node000021_Node000022" class="edge">
<title>Node21&#45;&gt;Node22</title>
<g id="a_edge37_Node000021_Node000022"><a xlink:title=" ">
<path fill="none" stroke="#63b8ff" d="M666.21,-223.55C680.21,-214.61 697.79,-203.39 711.79,-194.45"/>
<polygon fill="#63b8ff" stroke="#63b8ff" points="713.44,-197.55 719.99,-189.22 709.67,-191.65 713.44,-197.55"/>
</a>
</g>
</g>
</g>
</svg>
