<?xml version="1.0" encoding="UTF-8" standalone="no"?>
<!DOCTYPE svg PUBLIC "-//W3C//DTD SVG 1.1//EN"
 "http://www.w3.org/Graphics/SVG/1.1/DTD/svg11.dtd">
<!-- Generated by graphviz version 14.0.2 (0)
 -->
<!-- Title: components/collider/src/Collider.hpp Pages: 1 -->
<svg width="510pt" height="176pt"
 viewBox="0.00 0.00 510.00 176.00" xmlns="http://www.w3.org/2000/svg" xmlns:xlink="http://www.w3.org/1999/xlink">
<g id="graph0" class="graph" transform="scale(1 1) rotate(0) translate(4 172)">
<title>components/collider/src/Collider.hpp</title>
<!-- Node1 -->
<g id="Node000001" class="node">
<title>Node1</title>
<g id="a_Node000001"><a xlink:title=" ">
<polygon fill="#999999" stroke="#666666" points="312.88,-168 209.88,-168 209.88,-136 312.88,-136 312.88,-168"/>
<text xml:space="preserve" text-anchor="start" x="217.88" y="-154.5" font-family="Helvetica,sans-Serif" font-size="10.00">components/collider</text>
<text xml:space="preserve" text-anchor="middle" x="261.38" y="-142.5" font-family="Helvetica,sans-Serif" font-size="10.00">/src/Collider.hpp</text>
</a>
</g>
</g>
<!-- Node2 -->
<g id="Node000002" class="node">
<title>Node2</title>
<g id="a_Node000002"><a xlink:href="FPInputHandler_8hpp.html" target="_top" xlink:title=" ">
<polygon fill="white" stroke="#666666" points="124.75,-100 0,-100 0,-68 124.75,-68 124.75,-100"/>
<text xml:space="preserve" text-anchor="start" x="8" y="-86.5" font-family="Helvetica,sans-Serif" font-size="10.00">systems/FPInputHandler</text>
<text xml:space="preserve" text-anchor="middle" x="62.38" y="-74.5" font-family="Helvetica,sans-Serif" font-size="10.00">/src/FPInputHandler.hpp</text>
</a>
</g>
</g>
<!-- Node1&#45;&gt;Node2 -->
<g id="edge1_Node000001_Node000002" class="edge">
<title>Node1&#45;&gt;Node2</title>
<g id="a_edge1_Node000001_Node000002"><a xlink:title=" ">
<path fill="none" stroke="#63b8ff" d="M203.94,-131.95C173.83,-121.97 137.43,-109.89 109.08,-100.49"/>
<polygon fill="#63b8ff" stroke="#63b8ff" points="202.69,-135.22 213.28,-135.05 204.89,-128.58 202.69,-135.22"/>
</a>
</g>
</g>
<!-- Node4 -->
<g id="Node000004" class="node">
<title>Node4</title>
<g id="a_Node000004"><a xlink:href="Collision_8hpp.html" target="_top" xlink:title=" ">
<polygon fill="white" stroke="#666666" points="251.5,-100 143.25,-100 143.25,-68 251.5,-68 251.5,-100"/>
<text xml:space="preserve" text-anchor="start" x="151.25" y="-86.5" font-family="Helvetica,sans-Serif" font-size="10.00">systems/collision/src</text>
<text xml:space="preserve" text-anchor="middle" x="197.38" y="-74.5" font-family="Helvetica,sans-Serif" font-size="10.00">/Collision.hpp</text>
</a>
</g>
</g>
<!-- Node1&#45;&gt;Node4 -->
<g id="edge3_Node000001_Node000004" class="edge">
<title>Node1&#45;&gt;Node4</title>
<g id="a_edge3_Node000001_Node000004"><a xlink:title=" ">
<path fill="none" stroke="#63b8ff" d="M238.52,-127.43C229.74,-118.38 219.96,-108.29 212.14,-100.22"/>
<polygon fill="#63b8ff" stroke="#63b8ff" points="236,-129.86 245.48,-134.61 241.03,-124.99 236,-129.86"/>
</a>
</g>
</g>
<!-- Node6 -->
<g id="Node000006" class="node">
<title>Node6</title>
<g id="a_Node000006"><a xlink:href="InputHandler_8hpp.html" target="_top" xlink:title=" ">
<polygon fill="white" stroke="#666666" points="381,-100 269.75,-100 269.75,-68 381,-68 381,-100"/>
<text xml:space="preserve" text-anchor="start" x="277.75" y="-86.5" font-family="Helvetica,sans-Serif" font-size="10.00">systems/inputHandler</text>
<text xml:space="preserve" text-anchor="middle" x="325.38" y="-74.5" font-family="Helvetica,sans-Serif" font-size="10.00">/src/InputHandler.hpp</text>
</a>
</g>
</g>
<!-- Node1&#45;&gt;Node6 -->
<g id="edge5_Node000001_Node000006" class="edge">
<title>Node1&#45;&gt;Node6</title>
<g id="a_edge5_Node000001_Node000006"><a xlink:title=" ">
<path fill="none" stroke="#63b8ff" d="M284.23,-127.43C293.01,-118.38 302.79,-108.29 310.61,-100.22"/>
<polygon fill="#63b8ff" stroke="#63b8ff" points="281.72,-124.99 277.27,-134.61 286.75,-129.86 281.72,-124.99"/>
</a>
</g>
</g>
<!-- Node8 -->
<g id="Node000008" class="node">
<title>Node8</title>
<g id="a_Node000008"><a xlink:href="Motion_8hpp.html" target="_top" xlink:title=" ">
<polygon fill="white" stroke="#666666" points="501.5,-100 399.25,-100 399.25,-68 501.5,-68 501.5,-100"/>
<text xml:space="preserve" text-anchor="start" x="407.25" y="-86.5" font-family="Helvetica,sans-Serif" font-size="10.00">systems/motion/src</text>
<text xml:space="preserve" text-anchor="middle" x="450.38" y="-74.5" font-family="Helvetica,sans-Serif" font-size="10.00">/Motion.hpp</text>
</a>
</g>
</g>
<!-- Node1&#45;&gt;Node8 -->
<g id="edge7_Node000001_Node000008" class="edge">
<title>Node1&#45;&gt;Node8</title>
<g id="a_edge7_Node000001_Node000008"><a xlink:title=" ">
<path fill="none" stroke="#63b8ff" d="M316.3,-131.82C344.82,-121.86 379.21,-109.85 406.01,-100.49"/>
<polygon fill="#63b8ff" stroke="#63b8ff" points="315.4,-128.43 307.12,-135.03 317.71,-135.03 315.4,-128.43"/>
</a>
</g>
</g>
<!-- Node3 -->
<g id="Node000003" class="node">
<title>Node3</title>
<g id="a_Node000003"><a xlink:href="FPInputHandler_8cpp.html" target="_top" xlink:title=" ">
<polygon fill="white" stroke="#666666" points="124.75,-32 0,-32 0,0 124.75,0 124.75,-32"/>
<text xml:space="preserve" text-anchor="start" x="8" y="-18.5" font-family="Helvetica,sans-Serif" font-size="10.00">systems/FPInputHandler</text>
<text xml:space="preserve" text-anchor="middle" x="62.38" y="-6.5" font-family="Helvetica,sans-Serif" font-size="10.00">/src/FPInputHandler.cpp</text>
</a>
</g>
</g>
<!-- Node2&#45;&gt;Node3 -->
<g id="edge2_Node000002_Node000003" class="edge">
<title>Node2&#45;&gt;Node3</title>
<g id="a_edge2_Node000002_Node000003"><a xlink:title=" ">
<path fill="none" stroke="#63b8ff" d="M62.38,-56.31C62.38,-48.12 62.38,-39.38 62.38,-32.22"/>
<polygon fill="#63b8ff" stroke="#63b8ff" points="58.88,-56.18 62.38,-66.18 65.88,-56.18 58.88,-56.18"/>
</a>
</g>
</g>
<!-- Node5 -->
<g id="Node000005" class="node">
<title>Node5</title>
<g id="a_Node000005"><a xlink:href="Collision_8cpp.html" target="_top" xlink:title=" ">
<polygon fill="white" stroke="#666666" points="251.5,-32 143.25,-32 143.25,0 251.5,0 251.5,-32"/>
<text xml:space="preserve" text-anchor="start" x="151.25" y="-18.5" font-family="Helvetica,sans-Serif" font-size="10.00">systems/collision/src</text>
<text xml:space="preserve" text-anchor="middle" x="197.38" y="-6.5" font-family="Helvetica,sans-Serif" font-size="10.00">/Collision.cpp</text>
</a>
</g>
</g>
<!-- Node4&#45;&gt;Node5 -->
<g id="edge4_Node000004_Node000005" class="edge">
<title>Node4&#45;&gt;Node5</title>
<g id="a_edge4_Node000004_Node000005"><a xlink:title=" ">
<path fill="none" stroke="#63b8ff" d="M197.38,-56.31C197.38,-48.12 197.38,-39.38 197.38,-32.22"/>
<polygon fill="#63b8ff" stroke="#63b8ff" points="193.88,-56.18 197.38,-66.18 200.88,-56.18 193.88,-56.18"/>
</a>
</g>
</g>
<!-- Node7 -->
<g id="Node000007" class="node">
<title>Node7</title>
<g id="a_Node000007"><a xlink:href="InputHandler_8cpp.html" target="_top" xlink:title=" ">
<polygon fill="white" stroke="#666666" points="381,-32 269.75,-32 269.75,0 381,0 381,-32"/>
<text xml:space="preserve" text-anchor="start" x="277.75" y="-18.5" font-family="Helvetica,sans-Serif" font-size="10.00">systems/inputHandler</text>
<text xml:space="preserve" text-anchor="middle" x="325.38" y="-6.5" font-family="Helvetica,sans-Serif" font-size="10.00">/src/InputHandler.cpp</text>
</a>
</g>
</g>
<!-- Node6&#45;&gt;Node7 -->
<g id="edge6_Node000006_Node000007" class="edge">
<title>Node6&#45;&gt;Node7</title>
<g id="a_edge6_Node000006_Node000007"><a xlink:title=" ">
<path fill="none" stroke="#63b8ff" d="M325.38,-56.31C325.38,-48.12 325.38,-39.38 325.38,-32.22"/>
<polygon fill="#63b8ff" stroke="#63b8ff" points="321.88,-56.18 325.38,-66.18 328.88,-56.18 321.88,-56.18"/>
</a>
</g>
</g>
<!-- Node9 -->
<g id="Node000009" class="node">
<title>Node9</title>
<g id="a_Node000009"><a xlink:href="Motion_8cpp.html" target="_top" xlink:title=" ">
<polygon fill="white" stroke="#666666" points="501.5,-32 399.25,-32 399.25,0 501.5,0 501.5,-32"/>
<text xml:space="preserve" text-anchor="start" x="407.25" y="-18.5" font-family="Helvetica,sans-Serif" font-size="10.00">systems/motion/src</text>
<text xml:space="preserve" text-anchor="middle" x="450.38" y="-6.5" font-family="Helvetica,sans-Serif" font-size="10.00">/Motion.cpp</text>
</a>
</g>
</g>
<!-- Node8&#45;&gt;Node9 -->
<g id="edge8_Node000008_Node000009" class="edge">
<title>Node8&#45;&gt;Node9</title>
<g id="a_edge8_Node000008_Node000009"><a xlink:title=" ">
<path fill="none" stroke="#63b8ff" d="M450.38,-56.31C450.38,-48.12 450.38,-39.38 450.38,-32.22"/>
<polygon fill="#63b8ff" stroke="#63b8ff" points="446.88,-56.18 450.38,-66.18 453.88,-56.18 446.88,-56.18"/>
</a>
</g>
</g>
</g>
</svg>
