<?xml version="1.0" encoding="UTF-8" standalone="no"?>
<!DOCTYPE svg PUBLIC "-//W3C//DTD SVG 1.1//EN"
 "http://www.w3.org/Graphics/SVG/1.1/DTD/svg11.dtd">
<!-- Generated by graphviz version 14.0.2 (0)
 -->
<!-- Title: systems/collision/src/Collision.cpp Pages: 1 -->
<svg width="1211pt" height="388pt"
 viewBox="0.00 0.00 1211.00 388.00" xmlns="http://www.w3.org/2000/svg" xmlns:xlink="http://www.w3.org/1999/xlink">
<g id="graph0" class="graph" transform="scale(1 1) rotate(0) translate(4 384)">
<title>systems/collision/src/Collision.cpp</title>
<!-- Node1 -->
<g id="Node000001" class="node">
<title>Node1</title>
<g id="a_Node000001"><a xlink:title=" ">
<polygon fill="#999999" stroke="#666666" points="569.12,-380 460.88,-380 460.88,-348 569.12,-348 569.12,-380"/>
<text xml:space="preserve" text-anchor="start" x="468.88" y="-366.5" font-family="Helvetica,sans-Serif" font-size="10.00">systems/collision/src</text>
<text xml:space="preserve" text-anchor="middle" x="515" y="-354.5" font-family="Helvetica,sans-Serif" font-size="10.00">/Collision.cpp</text>
</a>
</g>
</g>
<!-- Node2 -->
<g id="Node000002" class="node">
<title>Node2</title>
<g id="a_Node000002"><a xlink:href="Collision_8hpp.html" target="_top" xlink:title=" ">
<polygon fill="white" stroke="#666666" points="551.12,-312 478.88,-312 478.88,-292 551.12,-292 551.12,-312"/>
<text xml:space="preserve" text-anchor="middle" x="515" y="-298.5" font-family="Helvetica,sans-Serif" font-size="10.00">Collision.hpp</text>
</a>
</g>
</g>
<!-- Node1&#45;&gt;Node2 -->
<g id="edge1_Node000001_Node000002" class="edge">
<title>Node1&#45;&gt;Node2</title>
<g id="a_edge1_Node000001_Node000002"><a xlink:title=" ">
<path fill="none" stroke="#63b8ff" d="M515,-347.55C515,-340.34 515,-331.66 515,-323.88"/>
<polygon fill="#63b8ff" stroke="#63b8ff" points="518.5,-323.92 515,-313.92 511.5,-323.92 518.5,-323.92"/>
</a>
</g>
</g>
<!-- Node3 -->
<g id="Node000003" class="node">
<title>Node3</title>
<g id="a_Node000003"><a xlink:title=" ">
<polygon fill="#e0e0e0" stroke="#999999" points="185.88,-188 130.12,-188 130.12,-168 185.88,-168 185.88,-188"/>
<text xml:space="preserve" text-anchor="middle" x="158" y="-174.5" font-family="Helvetica,sans-Serif" font-size="10.00">algorithm</text>
</a>
</g>
</g>
<!-- Node2&#45;&gt;Node3 -->
<g id="edge2_Node000002_Node000003" class="edge">
<title>Node2&#45;&gt;Node3</title>
<g id="a_edge2_Node000002_Node000003"><a xlink:title=" ">
<path fill="none" stroke="#63b8ff" d="M478.55,-296.74C434.87,-290.88 359.93,-278.42 299,-256 255.13,-239.86 208.27,-211.85 181.14,-194.43"/>
<polygon fill="#63b8ff" stroke="#63b8ff" points="183.31,-191.67 173.02,-189.15 179.49,-197.54 183.31,-191.67"/>
</a>
</g>
</g>
<!-- Node4 -->
<g id="Node000004" class="node">
<title>Node4</title>
<g id="a_Node000004"><a xlink:title=" ">
<polygon fill="#e0e0e0" stroke="#999999" points="231.62,-20 186.38,-20 186.38,0 231.62,0 231.62,-20"/>
<text xml:space="preserve" text-anchor="middle" x="209" y="-6.5" font-family="Helvetica,sans-Serif" font-size="10.00">cstdint</text>
</a>
</g>
</g>
<!-- Node2&#45;&gt;Node4 -->
<g id="edge3_Node000002_Node000004" class="edge">
<title>Node2&#45;&gt;Node4</title>
<g id="a_edge3_Node000002_Node000004"><a xlink:title=" ">
<path fill="none" stroke="#63b8ff" d="M478.38,-300.18C360.72,-296.56 0,-277.43 0,-179 0,-179 0,-179 0,-121 0,-42.94 115.59,-20.14 174.85,-13.59"/>
<polygon fill="#63b8ff" stroke="#63b8ff" points="175.13,-17.08 184.73,-12.6 174.43,-10.11 175.13,-17.08"/>
</a>
</g>
</g>
<!-- Node5 -->
<g id="Node000005" class="node">
<title>Node5</title>
<g id="a_Node000005"><a xlink:title=" ">
<polygon fill="#e0e0e0" stroke="#999999" points="311.5,-76 268.5,-76 268.5,-56 311.5,-56 311.5,-76"/>
<text xml:space="preserve" text-anchor="middle" x="290" y="-62.5" font-family="Helvetica,sans-Serif" font-size="10.00">vector</text>
</a>
</g>
</g>
<!-- Node2&#45;&gt;Node5 -->
<g id="edge4_Node000002_Node000005" class="edge">
<title>Node2&#45;&gt;Node5</title>
<g id="a_edge4_Node000002_Node000005"><a xlink:title=" ">
<path fill="none" stroke="#63b8ff" d="M478.76,-300.1C422.95,-297.69 313.35,-288.77 227,-256 174.67,-236.14 147.84,-237.11 121,-188 99.96,-149.5 167.98,-115.39 173,-112 198.99,-94.42 232.81,-82.37 257.4,-75.19"/>
<polygon fill="#63b8ff" stroke="#63b8ff" points="258.17,-78.61 266.87,-72.56 256.29,-71.87 258.17,-78.61"/>
</a>
</g>
</g>
<!-- Node6 -->
<g id="Node000006" class="node">
<title>Node6</title>
<g id="a_Node000006"><a xlink:href="Collider_8hpp.html" target="_top" xlink:title=" ">
<polygon fill="white" stroke="#666666" points="1202.5,-256 1081.5,-256 1081.5,-224 1202.5,-224 1202.5,-256"/>
<text xml:space="preserve" text-anchor="start" x="1089.5" y="-242.5" font-family="Helvetica,sans-Serif" font-size="10.00">../../../components</text>
<text xml:space="preserve" text-anchor="middle" x="1142" y="-230.5" font-family="Helvetica,sans-Serif" font-size="10.00">/collider/src/Collider.hpp</text>
</a>
</g>
</g>
<!-- Node2&#45;&gt;Node6 -->
<g id="edge5_Node000002_Node000006" class="edge">
<title>Node2&#45;&gt;Node6</title>
<g id="a_edge5_Node000002_Node000006"><a xlink:title=" ">
<path fill="none" stroke="#63b8ff" d="M551.35,-299.71C638.84,-296.24 868.19,-285.08 1069.61,-256.22"/>
<polygon fill="#63b8ff" stroke="#63b8ff" points="1070.11,-259.68 1079.5,-254.78 1069.1,-252.75 1070.11,-259.68"/>
</a>
</g>
</g>
<!-- Node14 -->
<g id="Node000014" class="node">
<title>Node14</title>
<g id="a_Node000014"><a xlink:href="Damage_8hpp.html" target="_top" xlink:title=" ">
<polygon fill="white" stroke="#666666" points="919.25,-256 790.75,-256 790.75,-224 919.25,-224 919.25,-256"/>
<text xml:space="preserve" text-anchor="start" x="798.75" y="-242.5" font-family="Helvetica,sans-Serif" font-size="10.00">../../../components</text>
<text xml:space="preserve" text-anchor="middle" x="855" y="-230.5" font-family="Helvetica,sans-Serif" font-size="10.00">/damage/src/Damage.hpp</text>
</a>
</g>
</g>
<!-- Node2&#45;&gt;Node14 -->
<g id="edge15_Node000002_Node000014" class="edge">
<title>Node2&#45;&gt;Node14</title>
<g id="a_edge15_Node000002_Node000014"><a xlink:title=" ">
<path fill="none" stroke="#63b8ff" d="M551.35,-295.3C600.69,-287.46 691.87,-272.66 779.34,-256.46"/>
<polygon fill="#63b8ff" stroke="#63b8ff" points="779.86,-259.92 789.05,-254.65 778.58,-253.04 779.86,-259.92"/>
</a>
</g>
</g>
<!-- Node15 -->
<g id="Node000015" class="node">
<title>Node15</title>
<g id="a_Node000015"><a xlink:href="Health_8hpp.html" target="_top" xlink:title=" ">
<polygon fill="white" stroke="#666666" points="773,-256 661,-256 661,-224 773,-224 773,-256"/>
<text xml:space="preserve" text-anchor="start" x="669" y="-242.5" font-family="Helvetica,sans-Serif" font-size="10.00">../../../components</text>
<text xml:space="preserve" text-anchor="middle" x="717" y="-230.5" font-family="Helvetica,sans-Serif" font-size="10.00">/health/src/Health.hpp</text>
</a>
</g>
</g>
<!-- Node2&#45;&gt;Node15 -->
<g id="edge17_Node000002_Node000015" class="edge">
<title>Node2&#45;&gt;Node15</title>
<g id="a_edge17_Node000002_Node000015"><a xlink:title=" ">
<path fill="none" stroke="#63b8ff" d="M546.56,-291.62C575.22,-283.11 618.34,-270.31 654.03,-259.7"/>
<polygon fill="#63b8ff" stroke="#63b8ff" points="654.81,-263.12 663.4,-256.92 652.82,-256.41 654.81,-263.12"/>
</a>
</g>
</g>
<!-- Node16 -->
<g id="Node000016" class="node">
<title>Node16</title>
<g id="a_Node000016"><a xlink:href="Position_8hpp.html" target="_top" xlink:title=" ">
<polygon fill="white" stroke="#666666" points="1063.12,-256 936.88,-256 936.88,-224 1063.12,-224 1063.12,-256"/>
<text xml:space="preserve" text-anchor="start" x="944.88" y="-242.5" font-family="Helvetica,sans-Serif" font-size="10.00">../../../components</text>
<text xml:space="preserve" text-anchor="middle" x="1000" y="-230.5" font-family="Helvetica,sans-Serif" font-size="10.00">/position/src/Position.hpp</text>
</a>
</g>
</g>
<!-- Node2&#45;&gt;Node16 -->
<g id="edge19_Node000002_Node000016" class="edge">
<title>Node2&#45;&gt;Node16</title>
<g id="a_edge19_Node000002_Node000016"><a xlink:title=" ">
<path fill="none" stroke="#63b8ff" d="M551.62,-298.21C622.05,-292.58 781.43,-278.61 925.25,-256.34"/>
<polygon fill="#63b8ff" stroke="#63b8ff" points="925.63,-259.83 934.96,-254.82 924.54,-252.91 925.63,-259.83"/>
</a>
</g>
</g>
<!-- Node17 -->
<g id="Node000017" class="node">
<title>Node17</title>
<g id="a_Node000017"><a xlink:href="Renderable_8hpp.html" target="_top" xlink:title=" ">
<polygon fill="white" stroke="#666666" points="642.88,-256 491.12,-256 491.12,-224 642.88,-224 642.88,-256"/>
<text xml:space="preserve" text-anchor="start" x="499.12" y="-242.5" font-family="Helvetica,sans-Serif" font-size="10.00">../../../components</text>
<text xml:space="preserve" text-anchor="middle" x="567" y="-230.5" font-family="Helvetica,sans-Serif" font-size="10.00">/renderable/src/Renderable.hpp</text>
</a>
</g>
</g>
<!-- Node2&#45;&gt;Node17 -->
<g id="edge22_Node000002_Node000017" class="edge">
<title>Node2&#45;&gt;Node17</title>
<g id="a_edge22_Node000002_Node000017"><a xlink:title=" ">
<path fill="none" stroke="#63b8ff" d="M523.12,-291.62C529.36,-284.43 538.25,-274.17 546.4,-264.77"/>
<polygon fill="#63b8ff" stroke="#63b8ff" points="548.98,-267.13 552.89,-257.28 543.69,-262.55 548.98,-267.13"/>
</a>
</g>
</g>
<!-- Node21 -->
<g id="Node000021" class="node">
<title>Node21</title>
<g id="a_Node000021"><a xlink:href="Registry_8hpp.html" target="_top" xlink:title=" ">
<polygon fill="white" stroke="#666666" points="424.25,-250 307.75,-250 307.75,-230 424.25,-230 424.25,-250"/>
<text xml:space="preserve" text-anchor="middle" x="366" y="-236.5" font-family="Helvetica,sans-Serif" font-size="10.00">../../../ecs/Registry.hpp</text>
</a>
</g>
</g>
<!-- Node2&#45;&gt;Node21 -->
<g id="edge29_Node000002_Node000021" class="edge">
<title>Node2&#45;&gt;Node21</title>
<g id="a_edge29_Node000002_Node000021"><a xlink:title=" ">
<path fill="none" stroke="#63b8ff" d="M491.72,-291.62C467.01,-281.67 427.72,-265.85 399.65,-254.55"/>
<polygon fill="#63b8ff" stroke="#63b8ff" points="401.11,-251.36 390.52,-250.87 398.49,-257.86 401.11,-251.36"/>
</a>
</g>
</g>
<!-- Node28 -->
<g id="Node000028" class="node">
<title>Node28</title>
<g id="a_Node000028"><a xlink:href="System_8hpp.html" target="_top" xlink:title=" ">
<polygon fill="white" stroke="#666666" points="500.25,-188 431.75,-188 431.75,-168 500.25,-168 500.25,-188"/>
<text xml:space="preserve" text-anchor="middle" x="466" y="-174.5" font-family="Helvetica,sans-Serif" font-size="10.00">System.hpp</text>
</a>
</g>
</g>
<!-- Node2&#45;&gt;Node28 -->
<g id="edge53_Node000002_Node000028" class="edge">
<title>Node2&#45;&gt;Node28</title>
<g id="a_edge53_Node000002_Node000028"><a xlink:title=" ">
<path fill="none" stroke="#63b8ff" d="M506.35,-291.75C498.78,-283.15 488.07,-269.63 482,-256 473.94,-237.89 469.87,-215.55 467.87,-199.61"/>
<polygon fill="#63b8ff" stroke="#63b8ff" points="471.37,-199.47 466.82,-189.9 464.41,-200.22 471.37,-199.47"/>
</a>
</g>
</g>
<!-- Node7 -->
<g id="Node000007" class="node">
<title>Node7</title>
<g id="a_Node000007"><a xlink:title=" ">
<polygon fill="#e0e0e0" stroke="#999999" points="875,-20 835,-20 835,0 875,0 875,-20"/>
<text xml:space="preserve" text-anchor="middle" x="855" y="-6.5" font-family="Helvetica,sans-Serif" font-size="10.00">bitset</text>
</a>
</g>
</g>
<!-- Node6&#45;&gt;Node7 -->
<g id="edge6_Node000006_Node000007" class="edge">
<title>Node6&#45;&gt;Node7</title>
<g id="a_edge6_Node000006_Node000007"><a xlink:title=" ">
<path fill="none" stroke="#63b8ff" d="M1124.16,-223.54C1107.29,-209 1081.16,-186.73 1058,-168 992.81,-115.28 913.77,-55.23 876.46,-27.12"/>
<polygon fill="#63b8ff" stroke="#63b8ff" points="878.81,-24.5 868.71,-21.28 874.6,-30.09 878.81,-24.5"/>
</a>
</g>
</g>
<!-- Node8 -->
<g id="Node000008" class="node">
<title>Node8</title>
<g id="a_Node000008"><a xlink:title=" ">
<polygon fill="#e0e0e0" stroke="#999999" points="1164.62,-188 1119.38,-188 1119.38,-168 1164.62,-168 1164.62,-188"/>
<text xml:space="preserve" text-anchor="middle" x="1142" y="-174.5" font-family="Helvetica,sans-Serif" font-size="10.00">variant</text>
</a>
</g>
</g>
<!-- Node6&#45;&gt;Node8 -->
<g id="edge7_Node000006_Node000008" class="edge">
<title>Node6&#45;&gt;Node8</title>
<g id="a_edge7_Node000006_Node000008"><a xlink:title=" ">
<path fill="none" stroke="#63b8ff" d="M1142,-223.55C1142,-216.34 1142,-207.66 1142,-199.88"/>
<polygon fill="#63b8ff" stroke="#63b8ff" points="1145.5,-199.92 1142,-189.92 1138.5,-199.92 1145.5,-199.92"/>
</a>
</g>
</g>
<!-- Node9 -->
<g id="Node000009" class="node">
<title>Node9</title>
<g id="a_Node000009"><a xlink:href="Component_8hpp.html" target="_top" xlink:title=" ">
<polygon fill="white" stroke="#666666" points="920.38,-188 789.62,-188 789.62,-168 920.38,-168 920.38,-188"/>
<text xml:space="preserve" text-anchor="middle" x="855" y="-174.5" font-family="Helvetica,sans-Serif" font-size="10.00">../../../ecs/Component.hpp</text>
</a>
</g>
</g>
<!-- Node6&#45;&gt;Node9 -->
<g id="edge8_Node000006_Node000009" class="edge">
<title>Node6&#45;&gt;Node9</title>
<g id="a_edge8_Node000006_Node000009"><a xlink:title=" ">
<path fill="none" stroke="#63b8ff" d="M1081.3,-225.97C1078.15,-225.3 1075.04,-224.64 1072,-224 1017.8,-212.57 955.93,-199.77 912.16,-190.75"/>
<polygon fill="#63b8ff" stroke="#63b8ff" points="913.14,-187.37 902.64,-188.79 911.73,-194.23 913.14,-187.37"/>
</a>
</g>
</g>
<!-- Node13 -->
<g id="Node000013" class="node">
<title>Node13</title>
<g id="a_Node000013"><a xlink:href="utils_8hpp.html" target="_top" xlink:title=" ">
<polygon fill="white" stroke="#666666" points="1049.25,-188 950.75,-188 950.75,-168 1049.25,-168 1049.25,-188"/>
<text xml:space="preserve" text-anchor="middle" x="1000" y="-174.5" font-family="Helvetica,sans-Serif" font-size="10.00">../../../ecs/utils.hpp</text>
</a>
</g>
</g>
<!-- Node6&#45;&gt;Node13 -->
<g id="edge14_Node000006_Node000013" class="edge">
<title>Node6&#45;&gt;Node13</title>
<g id="a_edge14_Node000006_Node000013"><a xlink:title=" ">
<path fill="none" stroke="#63b8ff" d="M1105.43,-223.55C1082.94,-214.04 1054.36,-201.97 1032.63,-192.79"/>
<polygon fill="#63b8ff" stroke="#63b8ff" points="1034.23,-189.67 1023.66,-189 1031.51,-196.11 1034.23,-189.67"/>
</a>
</g>
</g>
<!-- Node10 -->
<g id="Node000010" class="node">
<title>Node10</title>
<g id="a_Node000010"><a xlink:title=" ">
<polygon fill="#e0e0e0" stroke="#999999" points="779.62,-132 728.38,-132 728.38,-112 779.62,-112 779.62,-132"/>
<text xml:space="preserve" text-anchor="middle" x="754" y="-118.5" font-family="Helvetica,sans-Serif" font-size="10.00">memory</text>
</a>
</g>
</g>
<!-- Node9&#45;&gt;Node10 -->
<g id="edge9_Node000009_Node000010" class="edge">
<title>Node9&#45;&gt;Node10</title>
<g id="a_edge9_Node000009_Node000010"><a xlink:title=" ">
<path fill="none" stroke="#63b8ff" d="M837.41,-167.59C822.08,-159.4 799.58,-147.37 781.81,-137.87"/>
<polygon fill="#63b8ff" stroke="#63b8ff" points="783.53,-134.82 773.06,-133.19 780.23,-140.99 783.53,-134.82"/>
</a>
</g>
</g>
<!-- Node11 -->
<g id="Node000011" class="node">
<title>Node11</title>
<g id="a_Node000011"><a xlink:title=" ">
<polygon fill="#e0e0e0" stroke="#999999" points="718,-76 678,-76 678,-56 718,-56 718,-76"/>
<text xml:space="preserve" text-anchor="middle" x="698" y="-62.5" font-family="Helvetica,sans-Serif" font-size="10.00">string</text>
</a>
</g>
</g>
<!-- Node9&#45;&gt;Node11 -->
<g id="edge10_Node000009_Node000011" class="edge">
<title>Node9&#45;&gt;Node11</title>
<g id="a_edge10_Node000009_Node000011"><a xlink:title=" ">
<path fill="none" stroke="#63b8ff" d="M853.44,-167.67C850.61,-153.66 843.36,-127.24 827,-112 800,-86.85 758.18,-75.65 729.52,-70.73"/>
<polygon fill="#63b8ff" stroke="#63b8ff" points="730.41,-67.33 719.99,-69.27 729.34,-74.25 730.41,-67.33"/>
</a>
</g>
</g>
<!-- Node12 -->
<g id="Node000012" class="node">
<title>Node12</title>
<g id="a_Node000012"><a xlink:href="Types_8hpp.html" target="_top" xlink:title="Core type definitions used throughout the ECS (Entity Component System).">
<polygon fill="white" stroke="#666666" points="657.5,-76 596.5,-76 596.5,-56 657.5,-56 657.5,-76"/>
<text xml:space="preserve" text-anchor="middle" x="627" y="-62.5" font-family="Helvetica,sans-Serif" font-size="10.00">Types.hpp</text>
</a>
</g>
</g>
<!-- Node9&#45;&gt;Node12 -->
<g id="edge11_Node000009_Node000012" class="edge">
<title>Node9&#45;&gt;Node12</title>
<g id="a_edge11_Node000009_Node000012"><a xlink:title=" ">
<path fill="none" stroke="#63b8ff" d="M848,-167.52C837.01,-153.32 814.34,-126.65 789,-112 768.62,-100.21 709.59,-85.41 668.71,-76.07"/>
<polygon fill="#63b8ff" stroke="#63b8ff" points="669.72,-72.71 659.19,-73.93 668.18,-79.54 669.72,-72.71"/>
</a>
</g>
</g>
<!-- Node12&#45;&gt;Node4 -->
<g id="edge13_Node000012_Node000004" class="edge">
<title>Node12&#45;&gt;Node4</title>
<g id="a_edge13_Node000012_Node000004"><a xlink:title=" ">
<path fill="none" stroke="#63b8ff" d="M596.06,-58.19C592.01,-57.4 587.91,-56.64 584,-56 459.13,-35.48 309.41,-20.32 243.28,-14.11"/>
<polygon fill="#63b8ff" stroke="#63b8ff" points="243.71,-10.63 233.43,-13.19 243.07,-17.6 243.71,-10.63"/>
</a>
</g>
</g>
<!-- Node12&#45;&gt;Node7 -->
<g id="edge12_Node000012_Node000007" class="edge">
<title>Node12&#45;&gt;Node7</title>
<g id="a_edge12_Node000012_Node000007"><a xlink:title=" ">
<path fill="none" stroke="#63b8ff" d="M657.75,-57.72C701.06,-47.46 779.63,-28.85 823.4,-18.48"/>
<polygon fill="#63b8ff" stroke="#63b8ff" points="824.11,-21.91 833.03,-16.2 822.49,-15.1 824.11,-21.91"/>
</a>
</g>
</g>
<!-- Node14&#45;&gt;Node9 -->
<g id="edge16_Node000014_Node000009" class="edge">
<title>Node14&#45;&gt;Node9</title>
<g id="a_edge16_Node000014_Node000009"><a xlink:title=" ">
<path fill="none" stroke="#63b8ff" d="M855,-223.55C855,-216.34 855,-207.66 855,-199.88"/>
<polygon fill="#63b8ff" stroke="#63b8ff" points="858.5,-199.92 855,-189.92 851.5,-199.92 858.5,-199.92"/>
</a>
</g>
</g>
<!-- Node15&#45;&gt;Node9 -->
<g id="edge18_Node000015_Node000009" class="edge">
<title>Node15&#45;&gt;Node9</title>
<g id="a_edge18_Node000015_Node000009"><a xlink:title=" ">
<path fill="none" stroke="#63b8ff" d="M752.54,-223.55C774.3,-214.09 801.92,-202.08 823,-192.91"/>
<polygon fill="#63b8ff" stroke="#63b8ff" points="824.2,-196.21 831.97,-189.01 821.41,-189.79 824.2,-196.21"/>
</a>
</g>
</g>
<!-- Node16&#45;&gt;Node9 -->
<g id="edge20_Node000016_Node000009" class="edge">
<title>Node16&#45;&gt;Node9</title>
<g id="a_edge20_Node000016_Node000009"><a xlink:title=" ">
<path fill="none" stroke="#63b8ff" d="M962.66,-223.55C939.69,-214.04 910.5,-201.97 888.32,-192.79"/>
<polygon fill="#63b8ff" stroke="#63b8ff" points="889.71,-189.58 879.13,-188.99 887.04,-196.04 889.71,-189.58"/>
</a>
</g>
</g>
<!-- Node16&#45;&gt;Node13 -->
<g id="edge21_Node000016_Node000013" class="edge">
<title>Node16&#45;&gt;Node13</title>
<g id="a_edge21_Node000016_Node000013"><a xlink:title=" ">
<path fill="none" stroke="#63b8ff" d="M1000,-223.55C1000,-216.34 1000,-207.66 1000,-199.88"/>
<polygon fill="#63b8ff" stroke="#63b8ff" points="1003.5,-199.92 1000,-189.92 996.5,-199.92 1003.5,-199.92"/>
</a>
</g>
</g>
<!-- Node17&#45;&gt;Node5 -->
<g id="edge26_Node000017_Node000005" class="edge">
<title>Node17&#45;&gt;Node5</title>
<g id="a_edge26_Node000017_Node000005"><a xlink:title=" ">
<path fill="none" stroke="#63b8ff" d="M591.39,-223.51C611.27,-208.95 633.83,-186.66 619,-168 575.01,-112.62 530.41,-156.32 464,-132 445.71,-125.3 442.96,-119.55 425,-112 390.92,-97.68 350.56,-84.73 322.9,-76.43"/>
<polygon fill="#63b8ff" stroke="#63b8ff" points="323.92,-73.08 313.34,-73.61 321.93,-79.8 323.92,-73.08"/>
</a>
</g>
</g>
<!-- Node17&#45;&gt;Node9 -->
<g id="edge27_Node000017_Node000009" class="edge">
<title>Node17&#45;&gt;Node9</title>
<g id="a_edge27_Node000017_Node000009"><a xlink:title=" ">
<path fill="none" stroke="#63b8ff" d="M641.17,-223.55C690.18,-213.34 753.43,-200.16 798.4,-190.79"/>
<polygon fill="#63b8ff" stroke="#63b8ff" points="798.86,-194.27 807.94,-188.81 797.43,-187.42 798.86,-194.27"/>
</a>
</g>
</g>
<!-- Node17&#45;&gt;Node13 -->
<g id="edge28_Node000017_Node000013" class="edge">
<title>Node17&#45;&gt;Node13</title>
<g id="a_edge28_Node000017_Node000013"><a xlink:title=" ">
<path fill="none" stroke="#63b8ff" d="M642.97,-225.41C646.02,-224.93 649.04,-224.45 652,-224 679.65,-219.78 846.71,-198.45 938.94,-186.74"/>
<polygon fill="#63b8ff" stroke="#63b8ff" points="939.37,-190.21 948.85,-185.48 938.49,-183.27 939.37,-190.21"/>
</a>
</g>
</g>
<!-- Node18 -->
<g id="Node000018" class="node">
<title>Node18</title>
<g id="a_Node000018"><a xlink:title=" ">
<polygon fill="#e0e0e0" stroke="#999999" points="714.12,-188 665.88,-188 665.88,-168 714.12,-168 714.12,-188"/>
<text xml:space="preserve" text-anchor="middle" x="690" y="-174.5" font-family="Helvetica,sans-Serif" font-size="10.00">cstddef</text>
</a>
</g>
</g>
<!-- Node17&#45;&gt;Node18 -->
<g id="edge23_Node000017_Node000018" class="edge">
<title>Node17&#45;&gt;Node18</title>
<g id="a_edge23_Node000017_Node000018"><a xlink:title=" ">
<path fill="none" stroke="#63b8ff" d="M598.68,-223.55C617.72,-214.26 641.79,-202.52 660.44,-193.42"/>
<polygon fill="#63b8ff" stroke="#63b8ff" points="661.9,-196.6 669.35,-189.07 658.83,-190.31 661.9,-196.6"/>
</a>
</g>
</g>
<!-- Node19 -->
<g id="Node000019" class="node">
<title>Node19</title>
<g id="a_Node000019"><a xlink:title=" ">
<polygon fill="#e0e0e0" stroke="#999999" points="609.75,-188 556.25,-188 556.25,-168 609.75,-168 609.75,-188"/>
<text xml:space="preserve" text-anchor="middle" x="583" y="-174.5" font-family="Helvetica,sans-Serif" font-size="10.00">iostream</text>
</a>
</g>
</g>
<!-- Node17&#45;&gt;Node19 -->
<g id="edge24_Node000017_Node000019" class="edge">
<title>Node17&#45;&gt;Node19</title>
<g id="a_edge24_Node000017_Node000019"><a xlink:title=" ">
<path fill="none" stroke="#63b8ff" d="M571.12,-223.55C573.09,-216.17 575.47,-207.24 577.58,-199.32"/>
<polygon fill="#63b8ff" stroke="#63b8ff" points="580.91,-200.43 580.1,-189.87 574.14,-198.63 580.91,-200.43"/>
</a>
</g>
</g>
<!-- Node20 -->
<g id="Node000020" class="node">
<title>Node20</title>
<g id="a_Node000020"><a xlink:title=" ">
<polygon fill="#e0e0e0" stroke="#999999" points="771.62,-188 732.38,-188 732.38,-168 771.62,-168 771.62,-188"/>
<text xml:space="preserve" text-anchor="middle" x="752" y="-174.5" font-family="Helvetica,sans-Serif" font-size="10.00">utility</text>
</a>
</g>
</g>
<!-- Node17&#45;&gt;Node20 -->
<g id="edge25_Node000017_Node000020" class="edge">
<title>Node17&#45;&gt;Node20</title>
<g id="a_edge25_Node000017_Node000020"><a xlink:title=" ">
<path fill="none" stroke="#63b8ff" d="M614.64,-223.55C648.29,-212.64 692.38,-198.34 721.42,-188.92"/>
<polygon fill="#63b8ff" stroke="#63b8ff" points="722.26,-192.33 730.69,-185.91 720.1,-185.67 722.26,-192.33"/>
</a>
</g>
</g>
<!-- Node21&#45;&gt;Node3 -->
<g id="edge30_Node000021_Node000003" class="edge">
<title>Node21&#45;&gt;Node3</title>
<g id="a_edge30_Node000021_Node000003"><a xlink:title=" ">
<path fill="none" stroke="#63b8ff" d="M333.5,-229.62C296.69,-219.01 236.71,-201.7 197.3,-190.34"/>
<polygon fill="#63b8ff" stroke="#63b8ff" points="198.3,-186.98 187.72,-187.57 196.36,-193.71 198.3,-186.98"/>
</a>
</g>
</g>
<!-- Node21&#45;&gt;Node5 -->
<g id="edge33_Node000021_Node000005" class="edge">
<title>Node21&#45;&gt;Node5</title>
<g id="a_edge33_Node000021_Node000005"><a xlink:title=" ">
<path fill="none" stroke="#63b8ff" d="M361.81,-229.51C349.79,-202.31 315.04,-123.68 298.7,-86.68"/>
<polygon fill="#63b8ff" stroke="#63b8ff" points="301.94,-85.37 294.7,-77.64 295.54,-88.2 301.94,-85.37"/>
</a>
</g>
</g>
<!-- Node21&#45;&gt;Node10 -->
<g id="edge32_Node000021_Node000010" class="edge">
<title>Node21&#45;&gt;Node10</title>
<g id="a_edge32_Node000021_Node000010"><a xlink:title=" ">
<path fill="none" stroke="#63b8ff" d="M396.34,-229.57C425.62,-220.14 470.99,-204.68 509,-188 526.48,-180.33 529.07,-174.53 547,-168 604.36,-147.11 674.37,-134.39 716.51,-128.03"/>
<polygon fill="#63b8ff" stroke="#63b8ff" points="716.99,-131.49 726.38,-126.58 715.98,-124.57 716.99,-131.49"/>
</a>
</g>
</g>
<!-- Node21&#45;&gt;Node12 -->
<g id="edge52_Node000021_Node000012" class="edge">
<title>Node21&#45;&gt;Node12</title>
<g id="a_edge52_Node000021_Node000012"><a xlink:title=" ">
<path fill="none" stroke="#63b8ff" d="M370.55,-229.9C378.77,-214.49 397.6,-183.43 423,-168 492.73,-125.64 540.98,-185.01 603,-132 616.01,-120.88 621.98,-102.03 624.7,-87.49"/>
<polygon fill="#63b8ff" stroke="#63b8ff" points="628.16,-88.02 626.15,-77.62 621.24,-87.01 628.16,-88.02"/>
</a>
</g>
</g>
<!-- Node21&#45;&gt;Node19 -->
<g id="edge31_Node000021_Node000019" class="edge">
<title>Node21&#45;&gt;Node19</title>
<g id="a_edge31_Node000021_Node000019"><a xlink:title=" ">
<path fill="none" stroke="#63b8ff" d="M399.91,-229.62C439.24,-218.75 503.92,-200.86 544.94,-189.52"/>
<polygon fill="#63b8ff" stroke="#63b8ff" points="545.68,-192.95 554.39,-186.91 543.82,-186.2 545.68,-192.95"/>
</a>
</g>
</g>
<!-- Node22 -->
<g id="Node000022" class="node">
<title>Node22</title>
<g id="a_Node000022"><a xlink:href="Clock_8hpp.html" target="_top" xlink:title=" ">
<polygon fill="white" stroke="#666666" points="416.12,-132 355.88,-132 355.88,-112 416.12,-112 416.12,-132"/>
<text xml:space="preserve" text-anchor="middle" x="386" y="-118.5" font-family="Helvetica,sans-Serif" font-size="10.00">Clock.hpp</text>
</a>
</g>
</g>
<!-- Node21&#45;&gt;Node22 -->
<g id="edge34_Node000021_Node000022" class="edge">
<title>Node21&#45;&gt;Node22</title>
<g id="a_edge34_Node000021_Node000022"><a xlink:title=" ">
<path fill="none" stroke="#63b8ff" d="M361.13,-229.61C354.65,-215.83 344.81,-189.44 352,-168 355.36,-157.97 361.95,-148.39 368.43,-140.66"/>
<polygon fill="#63b8ff" stroke="#63b8ff" points="370.91,-143.13 375.05,-133.38 365.73,-138.43 370.91,-143.13"/>
</a>
</g>
</g>
<!-- Node23 -->
<g id="Node000023" class="node">
<title>Node23</title>
<g id="a_Node000023"><a xlink:href="ComponentRegistry_8hpp.html" target="_top" xlink:title=" ">
<polygon fill="white" stroke="#666666" points="593.5,-132 472.5,-132 472.5,-112 593.5,-112 593.5,-132"/>
<text xml:space="preserve" text-anchor="middle" x="533" y="-118.5" font-family="Helvetica,sans-Serif" font-size="10.00">ComponentRegistry.hpp</text>
</a>
</g>
</g>
<!-- Node21&#45;&gt;Node23 -->
<g id="edge36_Node000021_Node000023" class="edge">
<title>Node21&#45;&gt;Node23</title>
<g id="a_edge36_Node000021_Node000023"><a xlink:title=" ">
<path fill="none" stroke="#63b8ff" d="M366.52,-229.78C367.87,-214.74 372.71,-184.93 390,-168 409.12,-149.28 435.93,-138.34 461.19,-131.95"/>
<polygon fill="#63b8ff" stroke="#63b8ff" points="461.83,-135.39 470.79,-129.74 460.26,-128.57 461.83,-135.39"/>
</a>
</g>
</g>
<!-- Node26 -->
<g id="Node000026" class="node">
<title>Node26</title>
<g id="a_Node000026"><a xlink:href="EntityManager_8hpp.html" target="_top" xlink:title=" ">
<polygon fill="white" stroke="#666666" points="125.88,-132 28.12,-132 28.12,-112 125.88,-112 125.88,-132"/>
<text xml:space="preserve" text-anchor="middle" x="77" y="-118.5" font-family="Helvetica,sans-Serif" font-size="10.00">EntityManager.hpp</text>
</a>
</g>
</g>
<!-- Node21&#45;&gt;Node26 -->
<g id="edge42_Node000021_Node000026" class="edge">
<title>Node21&#45;&gt;Node26</title>
<g id="a_edge42_Node000021_Node000026"><a xlink:title=" ">
<path fill="none" stroke="#63b8ff" d="M343.95,-229.6C311.46,-215.81 248.76,-189.4 195,-168 167.57,-157.08 136.34,-145.19 112.91,-136.38"/>
<polygon fill="#63b8ff" stroke="#63b8ff" points="114.41,-133.21 103.82,-132.97 111.95,-139.76 114.41,-133.21"/>
</a>
</g>
</g>
<!-- Node27 -->
<g id="Node000027" class="node">
<title>Node27</title>
<g id="a_Node000027"><a xlink:href="SparseSet_8hpp.html" target="_top" xlink:title=" ">
<polygon fill="white" stroke="#666666" points="262.25,-132 181.75,-132 181.75,-112 262.25,-112 262.25,-132"/>
<text xml:space="preserve" text-anchor="middle" x="222" y="-118.5" font-family="Helvetica,sans-Serif" font-size="10.00">SparseSet.hpp</text>
</a>
</g>
</g>
<!-- Node21&#45;&gt;Node27 -->
<g id="edge45_Node000021_Node000027" class="edge">
<title>Node21&#45;&gt;Node27</title>
<g id="a_edge45_Node000021_Node000027"><a xlink:title=" ">
<path fill="none" stroke="#63b8ff" d="M344.63,-229.61C325.47,-220.6 297.21,-205.74 276,-188 259.7,-174.37 244.56,-155.35 234.48,-141.41"/>
<polygon fill="#63b8ff" stroke="#63b8ff" points="237.57,-139.72 228.97,-133.54 231.84,-143.74 237.57,-139.72"/>
</a>
</g>
</g>
<!-- Node21&#45;&gt;Node28 -->
<g id="edge47_Node000021_Node000028" class="edge">
<title>Node21&#45;&gt;Node28</title>
<g id="a_edge47_Node000021_Node000028"><a xlink:title=" ">
<path fill="none" stroke="#63b8ff" d="M381.62,-229.62C397.4,-220.16 422.03,-205.38 440.62,-194.23"/>
<polygon fill="#63b8ff" stroke="#63b8ff" points="442.41,-197.23 449.19,-189.09 438.81,-191.23 442.41,-197.23"/>
</a>
</g>
</g>
<!-- Node22&#45;&gt;Node4 -->
<g id="edge35_Node000022_Node000004" class="edge">
<title>Node22&#45;&gt;Node4</title>
<g id="a_edge35_Node000022_Node000004"><a xlink:title=" ">
<path fill="none" stroke="#63b8ff" d="M378.92,-111.86C367.86,-98.11 345.24,-72.01 321,-56 296.66,-39.92 265.67,-28.02 242.46,-20.51"/>
<polygon fill="#63b8ff" stroke="#63b8ff" points="243.79,-17.26 233.2,-17.63 241.71,-23.94 243.79,-17.26"/>
</a>
</g>
</g>
<!-- Node23&#45;&gt;Node5 -->
<g id="edge40_Node000023_Node000005" class="edge">
<title>Node23&#45;&gt;Node5</title>
<g id="a_edge40_Node000023_Node000005"><a xlink:title=" ">
<path fill="none" stroke="#63b8ff" d="M490.39,-111.53C442.64,-100.92 366.24,-83.94 322.87,-74.31"/>
<polygon fill="#63b8ff" stroke="#63b8ff" points="323.82,-70.93 313.3,-72.18 322.31,-77.76 323.82,-70.93"/>
</a>
</g>
</g>
<!-- Node23&#45;&gt;Node11 -->
<g id="edge37_Node000023_Node000011" class="edge">
<title>Node23&#45;&gt;Node11</title>
<g id="a_edge37_Node000023_Node000011"><a xlink:title=" ">
<path fill="none" stroke="#63b8ff" d="M561.74,-111.59C591.21,-101.95 636.9,-87 667.13,-77.1"/>
<polygon fill="#63b8ff" stroke="#63b8ff" points="668.04,-80.49 676.45,-74.05 665.86,-73.84 668.04,-80.49"/>
</a>
</g>
</g>
<!-- Node23&#45;&gt;Node12 -->
<g id="edge41_Node000023_Node000012" class="edge">
<title>Node23&#45;&gt;Node12</title>
<g id="a_edge41_Node000023_Node000012"><a xlink:title=" ">
<path fill="none" stroke="#63b8ff" d="M549.37,-111.59C563.57,-103.44 584.38,-91.48 600.88,-82"/>
<polygon fill="#63b8ff" stroke="#63b8ff" points="602.26,-85.25 609.19,-77.23 598.77,-79.18 602.26,-85.25"/>
</a>
</g>
</g>
<!-- Node24 -->
<g id="Node000024" class="node">
<title>Node24</title>
<g id="a_Node000024"><a xlink:title=" ">
<polygon fill="#e0e0e0" stroke="#999999" points="475,-76 417,-76 417,-56 475,-56 475,-76"/>
<text xml:space="preserve" text-anchor="middle" x="446" y="-62.5" font-family="Helvetica,sans-Serif" font-size="10.00">typeindex</text>
</a>
</g>
</g>
<!-- Node23&#45;&gt;Node24 -->
<g id="edge38_Node000023_Node000024" class="edge">
<title>Node23&#45;&gt;Node24</title>
<g id="a_edge38_Node000023_Node000024"><a xlink:title=" ">
<path fill="none" stroke="#63b8ff" d="M517.85,-111.59C504.95,-103.59 486.17,-91.93 471.04,-82.54"/>
<polygon fill="#63b8ff" stroke="#63b8ff" points="472.9,-79.58 462.56,-77.28 469.21,-85.53 472.9,-79.58"/>
</a>
</g>
</g>
<!-- Node25 -->
<g id="Node000025" class="node">
<title>Node25</title>
<g id="a_Node000025"><a xlink:title=" ">
<polygon fill="#e0e0e0" stroke="#999999" points="575.38,-76 492.62,-76 492.62,-56 575.38,-56 575.38,-76"/>
<text xml:space="preserve" text-anchor="middle" x="534" y="-62.5" font-family="Helvetica,sans-Serif" font-size="10.00">unordered_map</text>
</a>
</g>
</g>
<!-- Node23&#45;&gt;Node25 -->
<g id="edge39_Node000023_Node000025" class="edge">
<title>Node23&#45;&gt;Node25</title>
<g id="a_edge39_Node000023_Node000025"><a xlink:title=" ">
<path fill="none" stroke="#63b8ff" d="M533.17,-111.59C533.3,-105.01 533.46,-95.96 533.62,-87.73"/>
<polygon fill="#63b8ff" stroke="#63b8ff" points="537.11,-87.87 533.8,-77.81 530.12,-87.75 537.11,-87.87"/>
</a>
</g>
</g>
<!-- Node26&#45;&gt;Node4 -->
<g id="edge43_Node000026_Node000004" class="edge">
<title>Node26&#45;&gt;Node4</title>
<g id="a_edge43_Node000026_Node000004"><a xlink:title=" ">
<path fill="none" stroke="#63b8ff" d="M88.25,-111.62C110.66,-92.95 161.1,-50.92 189.18,-27.52"/>
<polygon fill="#63b8ff" stroke="#63b8ff" points="191.17,-30.41 196.61,-21.32 186.69,-25.04 191.17,-30.41"/>
</a>
</g>
</g>
<!-- Node26&#45;&gt;Node5 -->
<g id="edge44_Node000026_Node000005" class="edge">
<title>Node26&#45;&gt;Node5</title>
<g id="a_edge44_Node000026_Node000005"><a xlink:title=" ">
<path fill="none" stroke="#63b8ff" d="M114.1,-111.59C154.5,-101.35 218.5,-85.13 257.14,-75.33"/>
<polygon fill="#63b8ff" stroke="#63b8ff" points="257.97,-78.73 266.8,-72.88 256.25,-71.95 257.97,-78.73"/>
</a>
</g>
</g>
<!-- Node27&#45;&gt;Node5 -->
<g id="edge46_Node000027_Node000005" class="edge">
<title>Node27&#45;&gt;Node5</title>
<g id="a_edge46_Node000027_Node000005"><a xlink:title=" ">
<path fill="none" stroke="#63b8ff" d="M233.84,-111.59C243.69,-103.77 257.93,-92.46 269.61,-83.19"/>
<polygon fill="#63b8ff" stroke="#63b8ff" points="271.45,-86.2 277.11,-77.24 267.1,-80.72 271.45,-86.2"/>
</a>
</g>
</g>
<!-- Node28&#45;&gt;Node5 -->
<g id="edge49_Node000028_Node000005" class="edge">
<title>Node28&#45;&gt;Node5</title>
<g id="a_edge49_Node000028_Node000005"><a xlink:title=" ">
<path fill="none" stroke="#63b8ff" d="M431.29,-168.73C406.33,-161.68 372.68,-149.81 347,-132 328.94,-119.48 312.88,-100.01 302.46,-85.64"/>
<polygon fill="#63b8ff" stroke="#63b8ff" points="305.36,-83.69 296.77,-77.49 299.62,-87.7 305.36,-83.69"/>
</a>
</g>
</g>
<!-- Node28&#45;&gt;Node11 -->
<g id="edge48_Node000028_Node000011" class="edge">
<title>Node28&#45;&gt;Node11</title>
<g id="a_edge48_Node000028_Node000011"><a xlink:title=" ">
<path fill="none" stroke="#63b8ff" d="M500.7,-170.05C551.24,-159.71 640.47,-140.59 653,-132 669.6,-120.63 681.95,-100.96 689.47,-86.23"/>
<polygon fill="#63b8ff" stroke="#63b8ff" points="692.48,-88.05 693.62,-77.51 686.16,-85.04 692.48,-88.05"/>
</a>
</g>
</g>
<!-- Node28&#45;&gt;Node12 -->
<g id="edge51_Node000028_Node000012" class="edge">
<title>Node28&#45;&gt;Node12</title>
<g id="a_edge51_Node000028_Node000012"><a xlink:title=" ">
<path fill="none" stroke="#63b8ff" d="M500.63,-170.17C547.87,-160.51 627.67,-142.83 636,-132 645.77,-119.3 642.09,-100.94 636.79,-86.97"/>
<polygon fill="#63b8ff" stroke="#63b8ff" points="640.03,-85.64 632.82,-77.88 633.61,-88.44 640.03,-85.64"/>
</a>
</g>
</g>
<!-- Node28&#45;&gt;Node23 -->
<g id="edge50_Node000028_Node000023" class="edge">
<title>Node28&#45;&gt;Node23</title>
<g id="a_edge50_Node000028_Node000023"><a xlink:title=" ">
<path fill="none" stroke="#63b8ff" d="M477.67,-167.59C487.28,-159.85 501.13,-148.69 512.57,-139.47"/>
<polygon fill="#63b8ff" stroke="#63b8ff" points="514.7,-142.25 520.28,-133.25 510.3,-136.8 514.7,-142.25"/>
</a>
</g>
</g>
</g>
</svg>
