<?xml version="1.0" encoding="UTF-8" standalone="no"?>
<!DOCTYPE svg PUBLIC "-//W3C//DTD SVG 1.1//EN"
 "http://www.w3.org/Graphics/SVG/1.1/DTD/svg11.dtd">
<!-- Generated by graphviz version 14.0.1 (0)
 -->
<!-- Title: systems/collision/src/Collision.hpp Pages: 1 -->
<svg width="1289pt" height="332pt"
 viewBox="0.00 0.00 1289.00 332.00" xmlns="http://www.w3.org/2000/svg" xmlns:xlink="http://www.w3.org/1999/xlink">
<g id="graph0" class="graph" transform="scale(1 1) rotate(0) translate(4 328)">
<title>systems/collision/src/Collision.hpp</title>
<!-- Node1 -->
<g id="Node000001" class="node">
<title>Node1</title>
<g id="a_Node000001"><a xlink:title=" ">
<polygon fill="#999999" stroke="#666666" points="639.12,-324 530.88,-324 530.88,-292 639.12,-292 639.12,-324"/>
<text xml:space="preserve" text-anchor="start" x="538.88" y="-310.5" font-family="Helvetica,sans-Serif" font-size="10.00">systems/collision/src</text>
<text xml:space="preserve" text-anchor="middle" x="585" y="-298.5" font-family="Helvetica,sans-Serif" font-size="10.00">/Collision.hpp</text>
</a>
</g>
</g>
<!-- Node2 -->
<g id="Node000002" class="node">
<title>Node2</title>
<g id="a_Node000002"><a xlink:title=" ">
<polygon fill="#e0e0e0" stroke="#999999" points="198.88,-188 143.12,-188 143.12,-168 198.88,-168 198.88,-188"/>
<text xml:space="preserve" text-anchor="middle" x="171" y="-174.5" font-family="Helvetica,sans-Serif" font-size="10.00">algorithm</text>
</a>
</g>
</g>
<!-- Node1&#45;&gt;Node2 -->
<g id="edge1_Node000001_Node000002" class="edge">
<title>Node1&#45;&gt;Node2</title>
<g id="a_edge1_Node000001_Node000002"><a xlink:title=" ">
<path fill="none" stroke="#63b8ff" d="M530.54,-298.64C481.56,-290.36 407.97,-276.01 346,-256 292.56,-238.74 233.32,-210.66 199.29,-193.6"/>
<polygon fill="#63b8ff" stroke="#63b8ff" points="201.02,-190.56 190.51,-189.16 197.86,-196.8 201.02,-190.56"/>
</a>
</g>
</g>
<!-- Node3 -->
<g id="Node000003" class="node">
<title>Node3</title>
<g id="a_Node000003"><a xlink:title=" ">
<polygon fill="#e0e0e0" stroke="#999999" points="203.62,-20 158.38,-20 158.38,0 203.62,0 203.62,-20"/>
<text xml:space="preserve" text-anchor="middle" x="181" y="-6.5" font-family="Helvetica,sans-Serif" font-size="10.00">cstdint</text>
</a>
</g>
</g>
<!-- Node1&#45;&gt;Node3 -->
<g id="edge2_Node000001_Node000003" class="edge">
<title>Node1&#45;&gt;Node3</title>
<g id="a_edge2_Node000001_Node000003"><a xlink:title=" ">
<path fill="none" stroke="#63b8ff" d="M530.49,-306.58C385.26,-304.01 0,-286.99 0,-179 0,-179 0,-179 0,-121 0,-52.97 94.53,-25.82 146.96,-15.99"/>
<polygon fill="#63b8ff" stroke="#63b8ff" points="147.34,-19.48 156.59,-14.31 146.13,-12.58 147.34,-19.48"/>
</a>
</g>
</g>
<!-- Node4 -->
<g id="Node000004" class="node">
<title>Node4</title>
<g id="a_Node000004"><a xlink:title=" ">
<polygon fill="#e0e0e0" stroke="#999999" points="289.5,-76 246.5,-76 246.5,-56 289.5,-56 289.5,-76"/>
<text xml:space="preserve" text-anchor="middle" x="268" y="-62.5" font-family="Helvetica,sans-Serif" font-size="10.00">vector</text>
</a>
</g>
</g>
<!-- Node1&#45;&gt;Node4 -->
<g id="edge3_Node000001_Node000004" class="edge">
<title>Node1&#45;&gt;Node4</title>
<g id="a_edge3_Node000001_Node000004"><a xlink:title=" ">
<path fill="none" stroke="#63b8ff" d="M530.63,-303.74C465.75,-298.64 354.66,-286.02 264,-256 202.1,-235.5 167.77,-243.78 134,-188 126.56,-175.72 115.67,-138.45 135,-112 157.83,-80.76 203.48,-70.96 234.87,-68.02"/>
<polygon fill="#63b8ff" stroke="#63b8ff" points="234.9,-71.53 244.62,-67.31 234.39,-64.55 234.9,-71.53"/>
</a>
</g>
</g>
<!-- Node5 -->
<g id="Node000005" class="node">
<title>Node5</title>
<g id="a_Node000005"><a xlink:href="Registry_8hpp.html" target="_top" xlink:title=" ">
<polygon fill="white" stroke="#666666" points="471.25,-250 354.75,-250 354.75,-230 471.25,-230 471.25,-250"/>
<text xml:space="preserve" text-anchor="middle" x="413" y="-236.5" font-family="Helvetica,sans-Serif" font-size="10.00">../../../ecs/Registry.hpp</text>
</a>
</g>
</g>
<!-- Node1&#45;&gt;Node5 -->
<g id="edge4_Node000001_Node000005" class="edge">
<title>Node1&#45;&gt;Node5</title>
<g id="a_edge4_Node000001_Node000005"><a xlink:title=" ">
<path fill="none" stroke="#63b8ff" d="M544.67,-291.53C515.4,-280.29 476.17,-265.24 448.16,-254.49"/>
<polygon fill="#63b8ff" stroke="#63b8ff" points="449.66,-251.32 439.07,-251 447.15,-257.85 449.66,-251.32"/>
</a>
</g>
</g>
<!-- Node11 -->
<g id="Node000011" class="node">
<title>Node11</title>
<g id="a_Node000011"><a xlink:href="System_8hpp.html" target="_top" xlink:title=" ">
<polygon fill="white" stroke="#666666" points="617.25,-188 548.75,-188 548.75,-168 617.25,-168 617.25,-188"/>
<text xml:space="preserve" text-anchor="middle" x="583" y="-174.5" font-family="Helvetica,sans-Serif" font-size="10.00">System.hpp</text>
</a>
</g>
</g>
<!-- Node1&#45;&gt;Node11 -->
<g id="edge29_Node000001_Node000011" class="edge">
<title>Node1&#45;&gt;Node11</title>
<g id="a_edge29_Node000001_Node000011"><a xlink:title=" ">
<path fill="none" stroke="#63b8ff" d="M575.55,-291.57C570.11,-281.77 563.82,-268.61 561,-256 557.9,-242.12 557.79,-237.86 561,-224 563.08,-215.02 567.21,-205.76 571.34,-197.99"/>
<polygon fill="#63b8ff" stroke="#63b8ff" points="574.26,-199.91 576.2,-189.5 568.19,-196.43 574.26,-199.91"/>
</a>
</g>
</g>
<!-- Node17 -->
<g id="Node000017" class="node">
<title>Node17</title>
<g id="a_Node000017"><a xlink:href="Collider_8hpp.html" target="_top" xlink:title=" ">
<polygon fill="white" stroke="#666666" points="690.5,-256 569.5,-256 569.5,-224 690.5,-224 690.5,-256"/>
<text xml:space="preserve" text-anchor="start" x="577.5" y="-242.5" font-family="Helvetica,sans-Serif" font-size="10.00">../../../components</text>
<text xml:space="preserve" text-anchor="middle" x="630" y="-230.5" font-family="Helvetica,sans-Serif" font-size="10.00">/collider/src/Collider.hpp</text>
</a>
</g>
</g>
<!-- Node1&#45;&gt;Node17 -->
<g id="edge30_Node000001_Node000017" class="edge">
<title>Node1&#45;&gt;Node17</title>
<g id="a_edge30_Node000001_Node000017"><a xlink:title=" ">
<path fill="none" stroke="#63b8ff" d="M595.44,-291.69C600.72,-283.95 607.26,-274.35 613.23,-265.6"/>
<polygon fill="#63b8ff" stroke="#63b8ff" points="616.03,-267.71 618.77,-257.48 610.24,-263.77 616.03,-267.71"/>
</a>
</g>
</g>
<!-- Node20 -->
<g id="Node000020" class="node">
<title>Node20</title>
<g id="a_Node000020"><a xlink:href="Position_8hpp.html" target="_top" xlink:title=" ">
<polygon fill="white" stroke="#666666" points="835.12,-256 708.88,-256 708.88,-224 835.12,-224 835.12,-256"/>
<text xml:space="preserve" text-anchor="start" x="716.88" y="-242.5" font-family="Helvetica,sans-Serif" font-size="10.00">../../../components</text>
<text xml:space="preserve" text-anchor="middle" x="772" y="-230.5" font-family="Helvetica,sans-Serif" font-size="10.00">/position/src/Position.hpp</text>
</a>
</g>
</g>
<!-- Node1&#45;&gt;Node20 -->
<g id="edge34_Node000001_Node000020" class="edge">
<title>Node1&#45;&gt;Node20</title>
<g id="a_edge34_Node000001_Node000020"><a xlink:title=" ">
<path fill="none" stroke="#63b8ff" d="M628.84,-291.53C655.36,-282.17 689.38,-270.16 717.6,-260.2"/>
<polygon fill="#63b8ff" stroke="#63b8ff" points="718.42,-263.62 726.68,-257 716.09,-257.02 718.42,-263.62"/>
</a>
</g>
</g>
<!-- Node21 -->
<g id="Node000021" class="node">
<title>Node21</title>
<g id="a_Node000021"><a xlink:href="components_2renderable_2src_2Renderable_8hpp.html" target="_top" xlink:title=" ">
<polygon fill="white" stroke="#666666" points="1004.88,-256 853.12,-256 853.12,-224 1004.88,-224 1004.88,-256"/>
<text xml:space="preserve" text-anchor="start" x="861.12" y="-242.5" font-family="Helvetica,sans-Serif" font-size="10.00">../../../components</text>
<text xml:space="preserve" text-anchor="middle" x="929" y="-230.5" font-family="Helvetica,sans-Serif" font-size="10.00">/renderable/src/Renderable.hpp</text>
</a>
</g>
</g>
<!-- Node1&#45;&gt;Node21 -->
<g id="edge35_Node000001_Node000021" class="edge">
<title>Node1&#45;&gt;Node21</title>
<g id="a_edge35_Node000001_Node000021"><a xlink:title=" ">
<path fill="none" stroke="#63b8ff" d="M639.51,-296.54C693.75,-286.14 777.85,-270 841.46,-257.8"/>
<polygon fill="#63b8ff" stroke="#63b8ff" points="842.03,-261.25 851.2,-255.93 840.72,-254.37 842.03,-261.25"/>
</a>
</g>
</g>
<!-- Node22 -->
<g id="Node000022" class="node">
<title>Node22</title>
<g id="a_Node000022"><a xlink:href="Damage_8hpp.html" target="_top" xlink:title=" ">
<polygon fill="white" stroke="#666666" points="1151.25,-256 1022.75,-256 1022.75,-224 1151.25,-224 1151.25,-256"/>
<text xml:space="preserve" text-anchor="start" x="1030.75" y="-242.5" font-family="Helvetica,sans-Serif" font-size="10.00">../../../components</text>
<text xml:space="preserve" text-anchor="middle" x="1087" y="-230.5" font-family="Helvetica,sans-Serif" font-size="10.00">/damage/src/Damage.hpp</text>
</a>
</g>
</g>
<!-- Node1&#45;&gt;Node22 -->
<g id="edge36_Node000001_Node000022" class="edge">
<title>Node1&#45;&gt;Node22</title>
<g id="a_edge36_Node000001_Node000022"><a xlink:title=" ">
<path fill="none" stroke="#63b8ff" d="M639.38,-302.02C718.87,-294.41 871.66,-278.56 1011.26,-256.36"/>
<polygon fill="#63b8ff" stroke="#63b8ff" points="1011.76,-259.83 1021.07,-254.79 1010.64,-252.92 1011.76,-259.83"/>
</a>
</g>
</g>
<!-- Node23 -->
<g id="Node000023" class="node">
<title>Node23</title>
<g id="a_Node000023"><a xlink:href="Health_8hpp.html" target="_top" xlink:title=" ">
<polygon fill="white" stroke="#666666" points="1281,-256 1169,-256 1169,-224 1281,-224 1281,-256"/>
<text xml:space="preserve" text-anchor="start" x="1177" y="-242.5" font-family="Helvetica,sans-Serif" font-size="10.00">../../../components</text>
<text xml:space="preserve" text-anchor="middle" x="1225" y="-230.5" font-family="Helvetica,sans-Serif" font-size="10.00">/health/src/Health.hpp</text>
</a>
</g>
</g>
<!-- Node1&#45;&gt;Node23 -->
<g id="edge37_Node000001_Node000023" class="edge">
<title>Node1&#45;&gt;Node23</title>
<g id="a_edge37_Node000001_Node000023"><a xlink:title=" ">
<path fill="none" stroke="#63b8ff" d="M639.61,-304.68C740.19,-299.85 961.57,-286.68 1157.35,-256.28"/>
<polygon fill="#63b8ff" stroke="#63b8ff" points="1157.89,-259.74 1167.23,-254.72 1156.81,-252.82 1157.89,-259.74"/>
</a>
</g>
</g>
<!-- Node5&#45;&gt;Node2 -->
<g id="edge25_Node000005_Node000002" class="edge">
<title>Node5&#45;&gt;Node2</title>
<g id="a_edge25_Node000005_Node000002"><a xlink:title=" ">
<path fill="none" stroke="#63b8ff" d="M374.92,-229.56C329.98,-218.42 255.64,-199.99 210.22,-188.72"/>
<polygon fill="#63b8ff" stroke="#63b8ff" points="211.07,-185.33 200.52,-186.32 209.38,-192.12 211.07,-185.33"/>
</a>
</g>
</g>
<!-- Node5&#45;&gt;Node4 -->
<g id="edge23_Node000005_Node000004" class="edge">
<title>Node5&#45;&gt;Node4</title>
<g id="a_edge23_Node000005_Node000004"><a xlink:title=" ">
<path fill="none" stroke="#63b8ff" d="M406,-229.92C394.67,-215.6 371.13,-187.41 347,-168 322.47,-148.27 305.15,-156.99 286,-132 276.18,-119.19 271.72,-101.34 269.69,-87.58"/>
<polygon fill="#63b8ff" stroke="#63b8ff" points="273.19,-87.41 268.6,-77.87 266.24,-88.19 273.19,-87.41"/>
</a>
</g>
</g>
<!-- Node6 -->
<g id="Node000006" class="node">
<title>Node6</title>
<g id="a_Node000006"><a xlink:href="Types_8hpp.html" target="_top" xlink:title="Core type definitions used throughout the ECS (Entity Component System).">
<polygon fill="white" stroke="#666666" points="655.5,-76 594.5,-76 594.5,-56 655.5,-56 655.5,-76"/>
<text xml:space="preserve" text-anchor="middle" x="625" y="-62.5" font-family="Helvetica,sans-Serif" font-size="10.00">Types.hpp</text>
</a>
</g>
</g>
<!-- Node5&#45;&gt;Node6 -->
<g id="edge5_Node000005_Node000006" class="edge">
<title>Node5&#45;&gt;Node6</title>
<g id="a_edge5_Node000005_Node000006"><a xlink:title=" ">
<path fill="none" stroke="#63b8ff" d="M471.66,-233.04C527.93,-225.96 607.07,-212 626,-188 648.69,-159.24 640,-113.52 632.16,-87.28"/>
<polygon fill="#63b8ff" stroke="#63b8ff" points="635.52,-86.3 629.09,-77.87 628.86,-88.46 635.52,-86.3"/>
</a>
</g>
</g>
<!-- Node8 -->
<g id="Node000008" class="node">
<title>Node8</title>
<g id="a_Node000008"><a xlink:href="ComponentRegistry_8hpp.html" target="_top" xlink:title=" ">
<polygon fill="white" stroke="#666666" points="554.5,-132 433.5,-132 433.5,-112 554.5,-112 554.5,-132"/>
<text xml:space="preserve" text-anchor="middle" x="494" y="-118.5" font-family="Helvetica,sans-Serif" font-size="10.00">ComponentRegistry.hpp</text>
</a>
</g>
</g>
<!-- Node5&#45;&gt;Node8 -->
<g id="edge8_Node000005_Node000008" class="edge">
<title>Node5&#45;&gt;Node8</title>
<g id="a_edge8_Node000005_Node000008"><a xlink:title=" ">
<path fill="none" stroke="#63b8ff" d="M419.63,-229.51C433.04,-210.29 463.62,-166.5 481.1,-141.47"/>
<polygon fill="#63b8ff" stroke="#63b8ff" points="483.78,-143.74 486.64,-133.54 478.04,-139.74 483.78,-143.74"/>
</a>
</g>
</g>
<!-- Node5&#45;&gt;Node11 -->
<g id="edge13_Node000005_Node000011" class="edge">
<title>Node5&#45;&gt;Node11</title>
<g id="a_edge13_Node000005_Node000011"><a xlink:title=" ">
<path fill="none" stroke="#63b8ff" d="M439.56,-229.62C468.05,-219.57 513.5,-203.53 545.6,-192.2"/>
<polygon fill="#63b8ff" stroke="#63b8ff" points="546.65,-195.54 554.92,-188.91 544.32,-188.94 546.65,-195.54"/>
</a>
</g>
</g>
<!-- Node12 -->
<g id="Node000012" class="node">
<title>Node12</title>
<g id="a_Node000012"><a xlink:href="EntityManager_8hpp.html" target="_top" xlink:title=" ">
<polygon fill="white" stroke="#666666" points="415.88,-132 318.12,-132 318.12,-112 415.88,-112 415.88,-132"/>
<text xml:space="preserve" text-anchor="middle" x="367" y="-118.5" font-family="Helvetica,sans-Serif" font-size="10.00">EntityManager.hpp</text>
</a>
</g>
</g>
<!-- Node5&#45;&gt;Node12 -->
<g id="edge18_Node000005_Node000012" class="edge">
<title>Node5&#45;&gt;Node12</title>
<g id="a_edge18_Node000005_Node000012"><a xlink:title=" ">
<path fill="none" stroke="#63b8ff" d="M410.27,-229.67C406.16,-215.96 397.91,-189.66 389,-168 385.53,-159.57 381.22,-150.5 377.33,-142.73"/>
<polygon fill="#63b8ff" stroke="#63b8ff" points="380.45,-141.14 372.78,-133.84 374.22,-144.34 380.45,-141.14"/>
</a>
</g>
</g>
<!-- Node13 -->
<g id="Node000013" class="node">
<title>Node13</title>
<g id="a_Node000013"><a xlink:href="SparseSet_8hpp.html" target="_top" xlink:title=" ">
<polygon fill="white" stroke="#666666" points="224.25,-132 143.75,-132 143.75,-112 224.25,-112 224.25,-132"/>
<text xml:space="preserve" text-anchor="middle" x="184" y="-118.5" font-family="Helvetica,sans-Serif" font-size="10.00">SparseSet.hpp</text>
</a>
</g>
</g>
<!-- Node5&#45;&gt;Node13 -->
<g id="edge21_Node000005_Node000013" class="edge">
<title>Node5&#45;&gt;Node13</title>
<g id="a_edge21_Node000005_Node000013"><a xlink:title=" ">
<path fill="none" stroke="#63b8ff" d="M402.92,-229.73C386.33,-214.89 351.74,-185.69 318,-168 291.28,-153.99 259.32,-143.06 233.32,-135.48"/>
<polygon fill="#63b8ff" stroke="#63b8ff" points="234.6,-132.21 224.03,-132.85 232.69,-138.94 234.6,-132.21"/>
</a>
</g>
</g>
<!-- Node14 -->
<g id="Node000014" class="node">
<title>Node14</title>
<g id="a_Node000014"><a xlink:title=" ">
<polygon fill="#e0e0e0" stroke="#999999" points="530.62,-188 479.38,-188 479.38,-168 530.62,-168 530.62,-188"/>
<text xml:space="preserve" text-anchor="middle" x="505" y="-174.5" font-family="Helvetica,sans-Serif" font-size="10.00">memory</text>
</a>
</g>
</g>
<!-- Node5&#45;&gt;Node14 -->
<g id="edge24_Node000005_Node000014" class="edge">
<title>Node5&#45;&gt;Node14</title>
<g id="a_edge24_Node000005_Node000014"><a xlink:title=" ">
<path fill="none" stroke="#63b8ff" d="M427.38,-229.62C441.82,-220.2 464.34,-205.52 481.41,-194.39"/>
<polygon fill="#63b8ff" stroke="#63b8ff" points="482.99,-197.53 489.46,-189.14 479.17,-191.67 482.99,-197.53"/>
</a>
</g>
</g>
<!-- Node15 -->
<g id="Node000015" class="node">
<title>Node15</title>
<g id="a_Node000015"><a xlink:title=" ">
<polygon fill="#e0e0e0" stroke="#999999" points="308.75,-188 255.25,-188 255.25,-168 308.75,-168 308.75,-188"/>
<text xml:space="preserve" text-anchor="middle" x="282" y="-174.5" font-family="Helvetica,sans-Serif" font-size="10.00">iostream</text>
</a>
</g>
</g>
<!-- Node5&#45;&gt;Node15 -->
<g id="edge26_Node000005_Node000015" class="edge">
<title>Node5&#45;&gt;Node15</title>
<g id="a_edge26_Node000005_Node000015"><a xlink:title=" ">
<path fill="none" stroke="#63b8ff" d="M392.53,-229.62C371.09,-219.81 337.18,-204.27 312.57,-193"/>
<polygon fill="#63b8ff" stroke="#63b8ff" points="314.25,-189.92 303.7,-188.94 311.34,-196.29 314.25,-189.92"/>
</a>
</g>
</g>
<!-- Node16 -->
<g id="Node000016" class="node">
<title>Node16</title>
<g id="a_Node000016"><a xlink:href="Clock_8hpp.html" target="_top" xlink:title=" ">
<polygon fill="white" stroke="#666666" points="88.12,-132 27.88,-132 27.88,-112 88.12,-112 88.12,-132"/>
<text xml:space="preserve" text-anchor="middle" x="58" y="-118.5" font-family="Helvetica,sans-Serif" font-size="10.00">Clock.hpp</text>
</a>
</g>
</g>
<!-- Node5&#45;&gt;Node16 -->
<g id="edge27_Node000005_Node000016" class="edge">
<title>Node5&#45;&gt;Node16</title>
<g id="a_edge27_Node000005_Node000016"><a xlink:title=" ">
<path fill="none" stroke="#63b8ff" d="M374.82,-229.54C340.5,-220.52 289.03,-205.71 246,-188 228.35,-180.74 225.67,-175.22 208,-168 172.29,-153.41 130.09,-141.17 99.56,-133.16"/>
<polygon fill="#63b8ff" stroke="#63b8ff" points="100.5,-129.78 89.94,-130.67 98.75,-136.56 100.5,-129.78"/>
</a>
</g>
</g>
<!-- Node6&#45;&gt;Node3 -->
<g id="edge6_Node000006_Node000003" class="edge">
<title>Node6&#45;&gt;Node3</title>
<g id="a_edge6_Node000006_Node000003"><a xlink:title=" ">
<path fill="none" stroke="#63b8ff" d="M594.06,-57.68C591.01,-57.07 587.95,-56.49 585,-56 448.8,-33.16 284.77,-18.95 215.04,-13.51"/>
<polygon fill="#63b8ff" stroke="#63b8ff" points="215.65,-10.05 205.41,-12.78 215.11,-17.03 215.65,-10.05"/>
</a>
</g>
</g>
<!-- Node7 -->
<g id="Node000007" class="node">
<title>Node7</title>
<g id="a_Node000007"><a xlink:title=" ">
<polygon fill="#e0e0e0" stroke="#999999" points="683,-20 643,-20 643,0 683,0 683,-20"/>
<text xml:space="preserve" text-anchor="middle" x="663" y="-6.5" font-family="Helvetica,sans-Serif" font-size="10.00">bitset</text>
</a>
</g>
</g>
<!-- Node6&#45;&gt;Node7 -->
<g id="edge7_Node000006_Node000007" class="edge">
<title>Node6&#45;&gt;Node7</title>
<g id="a_edge7_Node000006_Node000007"><a xlink:title=" ">
<path fill="none" stroke="#63b8ff" d="M631.62,-55.59C636.69,-48.39 643.84,-38.23 650.03,-29.43"/>
<polygon fill="#63b8ff" stroke="#63b8ff" points="652.69,-31.73 655.59,-21.54 646.97,-27.7 652.69,-31.73"/>
</a>
</g>
</g>
<!-- Node8&#45;&gt;Node4 -->
<g id="edge10_Node000008_Node000004" class="edge">
<title>Node8&#45;&gt;Node4</title>
<g id="a_edge10_Node000008_Node000004"><a xlink:title=" ">
<path fill="none" stroke="#63b8ff" d="M454.38,-111.53C410.82,-101.13 341.65,-84.6 300.95,-74.87"/>
<polygon fill="#63b8ff" stroke="#63b8ff" points="301.79,-71.48 291.25,-72.56 300.17,-78.28 301.79,-71.48"/>
</a>
</g>
</g>
<!-- Node8&#45;&gt;Node6 -->
<g id="edge9_Node000008_Node000006" class="edge">
<title>Node8&#45;&gt;Node6</title>
<g id="a_edge9_Node000008_Node000006"><a xlink:title=" ">
<path fill="none" stroke="#63b8ff" d="M516.82,-111.59C537.45,-103.09 568.08,-90.46 591.49,-80.81"/>
<polygon fill="#63b8ff" stroke="#63b8ff" points="592.69,-84.1 600.6,-77.06 590.02,-77.63 592.69,-84.1"/>
</a>
</g>
</g>
<!-- Node9 -->
<g id="Node000009" class="node">
<title>Node9</title>
<g id="a_Node000009"><a xlink:title=" ">
<polygon fill="#e0e0e0" stroke="#999999" points="518,-76 460,-76 460,-56 518,-56 518,-76"/>
<text xml:space="preserve" text-anchor="middle" x="489" y="-62.5" font-family="Helvetica,sans-Serif" font-size="10.00">typeindex</text>
</a>
</g>
</g>
<!-- Node8&#45;&gt;Node9 -->
<g id="edge11_Node000008_Node000009" class="edge">
<title>Node8&#45;&gt;Node9</title>
<g id="a_edge11_Node000008_Node000009"><a xlink:title=" ">
<path fill="none" stroke="#63b8ff" d="M493.13,-111.59C492.52,-105.01 491.68,-95.96 490.92,-87.73"/>
<polygon fill="#63b8ff" stroke="#63b8ff" points="494.41,-87.44 490,-77.81 487.44,-88.09 494.41,-87.44"/>
</a>
</g>
</g>
<!-- Node10 -->
<g id="Node000010" class="node">
<title>Node10</title>
<g id="a_Node000010"><a xlink:title=" ">
<polygon fill="#e0e0e0" stroke="#999999" points="576,-76 536,-76 536,-56 576,-56 576,-76"/>
<text xml:space="preserve" text-anchor="middle" x="556" y="-62.5" font-family="Helvetica,sans-Serif" font-size="10.00">string</text>
</a>
</g>
</g>
<!-- Node8&#45;&gt;Node10 -->
<g id="edge12_Node000008_Node000010" class="edge">
<title>Node8&#45;&gt;Node10</title>
<g id="a_edge12_Node000008_Node000010"><a xlink:title=" ">
<path fill="none" stroke="#63b8ff" d="M504.8,-111.59C513.6,-103.93 526.25,-92.91 536.77,-83.75"/>
<polygon fill="#63b8ff" stroke="#63b8ff" points="538.94,-86.5 544.18,-77.29 534.34,-81.22 538.94,-86.5"/>
</a>
</g>
</g>
<!-- Node11&#45;&gt;Node4 -->
<g id="edge17_Node000011_Node000004" class="edge">
<title>Node11&#45;&gt;Node4</title>
<g id="a_edge17_Node000011_Node000004"><a xlink:title=" ">
<path fill="none" stroke="#63b8ff" d="M548.3,-169.58C545.49,-169.03 542.7,-168.49 540,-168 437.78,-149.35 395.84,-189.06 309,-132 292.81,-121.36 281.8,-101.88 275.3,-87.01"/>
<polygon fill="#63b8ff" stroke="#63b8ff" points="278.55,-85.73 271.6,-77.74 272.05,-88.32 278.55,-85.73"/>
</a>
</g>
</g>
<!-- Node11&#45;&gt;Node6 -->
<g id="edge14_Node000011_Node000006" class="edge">
<title>Node11&#45;&gt;Node6</title>
<g id="a_edge14_Node000011_Node000006"><a xlink:title=" ">
<path fill="none" stroke="#63b8ff" d="M586.58,-167.62C593.37,-149.84 608.24,-110.88 617.36,-87"/>
<polygon fill="#63b8ff" stroke="#63b8ff" points="620.59,-88.36 620.89,-77.77 614.05,-85.86 620.59,-88.36"/>
</a>
</g>
</g>
<!-- Node11&#45;&gt;Node8 -->
<g id="edge15_Node000011_Node000008" class="edge">
<title>Node11&#45;&gt;Node8</title>
<g id="a_edge15_Node000011_Node000008"><a xlink:title=" ">
<path fill="none" stroke="#63b8ff" d="M567.5,-167.59C554.18,-159.51 534.72,-147.71 519.17,-138.27"/>
<polygon fill="#63b8ff" stroke="#63b8ff" points="521.28,-135.46 510.92,-133.26 517.65,-141.44 521.28,-135.46"/>
</a>
</g>
</g>
<!-- Node11&#45;&gt;Node10 -->
<g id="edge16_Node000011_Node000010" class="edge">
<title>Node11&#45;&gt;Node10</title>
<g id="a_edge16_Node000011_Node000010"><a xlink:title=" ">
<path fill="none" stroke="#63b8ff" d="M580.7,-167.62C576.35,-149.92 566.86,-111.24 560.99,-87.32"/>
<polygon fill="#63b8ff" stroke="#63b8ff" points="564.44,-86.7 558.66,-77.82 557.64,-88.37 564.44,-86.7"/>
</a>
</g>
</g>
<!-- Node12&#45;&gt;Node3 -->
<g id="edge20_Node000012_Node000003" class="edge">
<title>Node12&#45;&gt;Node3</title>
<g id="a_edge20_Node000012_Node000003"><a xlink:title=" ">
<path fill="none" stroke="#63b8ff" d="M359.54,-111.83C347.9,-98.03 324.13,-71.88 299,-56 272.76,-39.42 239.45,-27.41 214.92,-19.99"/>
<polygon fill="#63b8ff" stroke="#63b8ff" points="216.02,-16.67 205.44,-17.24 214.07,-23.39 216.02,-16.67"/>
</a>
</g>
</g>
<!-- Node12&#45;&gt;Node4 -->
<g id="edge19_Node000012_Node000004" class="edge">
<title>Node12&#45;&gt;Node4</title>
<g id="a_edge19_Node000012_Node000004"><a xlink:title=" ">
<path fill="none" stroke="#63b8ff" d="M349.76,-111.59C334.66,-103.36 312.47,-91.26 295.02,-81.74"/>
<polygon fill="#63b8ff" stroke="#63b8ff" points="297.16,-78.92 286.71,-77.2 293.81,-85.07 297.16,-78.92"/>
</a>
</g>
</g>
<!-- Node13&#45;&gt;Node4 -->
<g id="edge22_Node000013_Node000004" class="edge">
<title>Node13&#45;&gt;Node4</title>
<g id="a_edge22_Node000013_Node000004"><a xlink:title=" ">
<path fill="none" stroke="#63b8ff" d="M198.63,-111.59C211.08,-103.59 229.22,-91.93 243.82,-82.54"/>
<polygon fill="#63b8ff" stroke="#63b8ff" points="245.46,-85.65 251.98,-77.3 241.68,-79.76 245.46,-85.65"/>
</a>
</g>
</g>
<!-- Node16&#45;&gt;Node3 -->
<g id="edge28_Node000016_Node000003" class="edge">
<title>Node16&#45;&gt;Node3</title>
<g id="a_edge28_Node000016_Node000003"><a xlink:title=" ">
<path fill="none" stroke="#63b8ff" d="M68.49,-111.62C89.27,-93.03 135.96,-51.28 162.19,-27.82"/>
<polygon fill="#63b8ff" stroke="#63b8ff" points="164.29,-30.64 169.41,-21.36 159.62,-25.42 164.29,-30.64"/>
</a>
</g>
</g>
<!-- Node17&#45;&gt;Node7 -->
<g id="edge31_Node000017_Node000007" class="edge">
<title>Node17&#45;&gt;Node7</title>
<g id="a_edge31_Node000017_Node000007"><a xlink:title=" ">
<path fill="none" stroke="#63b8ff" d="M634.9,-223.94C638.07,-213.85 642.12,-200.22 645,-188 658.61,-130.25 666.32,-115.32 665,-56 664.82,-48.09 664.47,-39.4 664.12,-31.78"/>
<polygon fill="#63b8ff" stroke="#63b8ff" points="667.61,-31.63 663.61,-21.82 660.62,-31.98 667.61,-31.63"/>
</a>
</g>
</g>
<!-- Node18 -->
<g id="Node000018" class="node">
<title>Node18</title>
<g id="a_Node000018"><a xlink:title=" ">
<polygon fill="#e0e0e0" stroke="#999999" points="770.62,-188 725.38,-188 725.38,-168 770.62,-168 770.62,-188"/>
<text xml:space="preserve" text-anchor="middle" x="748" y="-174.5" font-family="Helvetica,sans-Serif" font-size="10.00">variant</text>
</a>
</g>
</g>
<!-- Node17&#45;&gt;Node18 -->
<g id="edge32_Node000017_Node000018" class="edge">
<title>Node17&#45;&gt;Node18</title>
<g id="a_edge32_Node000017_Node000018"><a xlink:title=" ">
<path fill="none" stroke="#63b8ff" d="M660.39,-223.55C678.57,-214.3 701.53,-202.63 719.39,-193.55"/>
<polygon fill="#63b8ff" stroke="#63b8ff" points="720.82,-196.75 728.15,-189.09 717.65,-190.51 720.82,-196.75"/>
</a>
</g>
</g>
<!-- Node19 -->
<g id="Node000019" class="node">
<title>Node19</title>
<g id="a_Node000019"><a xlink:title=" ">
<polygon fill="#e0e0e0" stroke="#999999" points="868.88,-188 789.12,-188 789.12,-168 868.88,-168 868.88,-188"/>
<text xml:space="preserve" text-anchor="middle" x="829" y="-174.5" font-family="Helvetica,sans-Serif" font-size="10.00">../../../utils.hpp</text>
</a>
</g>
</g>
<!-- Node17&#45;&gt;Node19 -->
<g id="edge33_Node000017_Node000019" class="edge">
<title>Node17&#45;&gt;Node19</title>
<g id="a_edge33_Node000017_Node000019"><a xlink:title=" ">
<path fill="none" stroke="#63b8ff" d="M681.25,-223.55C713.97,-213.68 755.87,-201.05 786.69,-191.76"/>
<polygon fill="#63b8ff" stroke="#63b8ff" points="787.49,-195.17 796.05,-188.93 785.47,-188.47 787.49,-195.17"/>
</a>
</g>
</g>
</g>
</svg>
