<?xml version="1.0" encoding="UTF-8" standalone="no"?>
<!DOCTYPE svg PUBLIC "-//W3C//DTD SVG 1.1//EN"
 "http://www.w3.org/Graphics/SVG/1.1/DTD/svg11.dtd">
<!-- Generated by graphviz version 14.0.2 (0)
 -->
<!-- Title: components/collider/src/Collider.hpp Pages: 1 -->
<svg width="335pt" height="208pt"
 viewBox="0.00 0.00 335.00 208.00" xmlns="http://www.w3.org/2000/svg" xmlns:xlink="http://www.w3.org/1999/xlink">
<g id="graph0" class="graph" transform="scale(1 1) rotate(0) translate(4 204)">
<title>components/collider/src/Collider.hpp</title>
<!-- Node1 -->
<g id="Node000001" class="node">
<title>Node1</title>
<g id="a_Node000001"><a xlink:title=" ">
<polygon fill="#999999" stroke="#666666" points="142.85,-200 39.85,-200 39.85,-168 142.85,-168 142.85,-200"/>
<text xml:space="preserve" text-anchor="start" x="47.85" y="-186.5" font-family="Helvetica,sans-Serif" font-size="10.00">components/collider</text>
<text xml:space="preserve" text-anchor="middle" x="91.35" y="-174.5" font-family="Helvetica,sans-Serif" font-size="10.00">/src/Collider.hpp</text>
</a>
</g>
</g>
<!-- Node2 -->
<g id="Node000002" class="node">
<title>Node2</title>
<g id="a_Node000002"><a xlink:title=" ">
<polygon fill="#e0e0e0" stroke="#999999" points="80.35,-20 40.35,-20 40.35,0 80.35,0 80.35,-20"/>
<text xml:space="preserve" text-anchor="middle" x="60.35" y="-6.5" font-family="Helvetica,sans-Serif" font-size="10.00">bitset</text>
</a>
</g>
</g>
<!-- Node1&#45;&gt;Node2 -->
<g id="edge1_Node000001_Node000002" class="edge">
<title>Node1&#45;&gt;Node2</title>
<g id="a_edge1_Node000001_Node000002"><a xlink:title=" ">
<path fill="none" stroke="#63b8ff" d="M47.7,-167.57C31.76,-159.56 15.42,-148.02 6.35,-132 -13.65,-96.68 19.57,-52.56 42.15,-28.56"/>
<polygon fill="#63b8ff" stroke="#63b8ff" points="44.59,-31.07 49.09,-21.48 39.59,-26.17 44.59,-31.07"/>
</a>
</g>
</g>
<!-- Node3 -->
<g id="Node000003" class="node">
<title>Node3</title>
<g id="a_Node000003"><a xlink:title=" ">
<polygon fill="#e0e0e0" stroke="#999999" points="60.97,-132 15.72,-132 15.72,-112 60.97,-112 60.97,-132"/>
<text xml:space="preserve" text-anchor="middle" x="38.35" y="-118.5" font-family="Helvetica,sans-Serif" font-size="10.00">variant</text>
</a>
</g>
</g>
<!-- Node1&#45;&gt;Node3 -->
<g id="edge2_Node000001_Node000003" class="edge">
<title>Node1&#45;&gt;Node3</title>
<g id="a_edge2_Node000001_Node000003"><a xlink:title=" ">
<path fill="none" stroke="#63b8ff" d="M77.7,-167.55C70.49,-159.39 61.61,-149.33 54.11,-140.84"/>
<polygon fill="#63b8ff" stroke="#63b8ff" points="56.9,-138.72 47.66,-133.54 51.66,-143.35 56.9,-138.72"/>
</a>
</g>
</g>
<!-- Node4 -->
<g id="Node000004" class="node">
<title>Node4</title>
<g id="a_Node000004"><a xlink:href="Component_8hpp.html" target="_top" xlink:title=" ">
<polygon fill="white" stroke="#666666" points="209.72,-132 78.97,-132 78.97,-112 209.72,-112 209.72,-132"/>
<text xml:space="preserve" text-anchor="middle" x="144.35" y="-118.5" font-family="Helvetica,sans-Serif" font-size="10.00">../../../ecs/Component.hpp</text>
</a>
</g>
</g>
<!-- Node1&#45;&gt;Node4 -->
<g id="edge3_Node000001_Node000004" class="edge">
<title>Node1&#45;&gt;Node4</title>
<g id="a_edge3_Node000001_Node000004"><a xlink:title=" ">
<path fill="none" stroke="#63b8ff" d="M104.99,-167.55C112.2,-159.39 121.08,-149.33 128.58,-140.84"/>
<polygon fill="#63b8ff" stroke="#63b8ff" points="131.04,-143.35 135.03,-133.54 125.79,-138.72 131.04,-143.35"/>
</a>
</g>
</g>
<!-- Node9 -->
<g id="Node000009" class="node">
<title>Node9</title>
<g id="a_Node000009"><a xlink:href="utils_8hpp.html" target="_top" xlink:title=" ">
<polygon fill="white" stroke="#666666" points="326.6,-132 228.1,-132 228.1,-112 326.6,-112 326.6,-132"/>
<text xml:space="preserve" text-anchor="middle" x="277.35" y="-118.5" font-family="Helvetica,sans-Serif" font-size="10.00">../../../ecs/utils.hpp</text>
</a>
</g>
</g>
<!-- Node1&#45;&gt;Node9 -->
<g id="edge9_Node000001_Node000009" class="edge">
<title>Node1&#45;&gt;Node9</title>
<g id="a_edge9_Node000001_Node000009"><a xlink:title=" ">
<path fill="none" stroke="#63b8ff" d="M139.25,-167.55C169.56,-157.77 208.3,-145.27 237.04,-136"/>
<polygon fill="#63b8ff" stroke="#63b8ff" points="238.02,-139.36 246.47,-132.96 235.87,-132.7 238.02,-139.36"/>
</a>
</g>
</g>
<!-- Node5 -->
<g id="Node000005" class="node">
<title>Node5</title>
<g id="a_Node000005"><a xlink:title=" ">
<polygon fill="#e0e0e0" stroke="#999999" points="85.97,-76 34.72,-76 34.72,-56 85.97,-56 85.97,-76"/>
<text xml:space="preserve" text-anchor="middle" x="60.35" y="-62.5" font-family="Helvetica,sans-Serif" font-size="10.00">memory</text>
</a>
</g>
</g>
<!-- Node4&#45;&gt;Node5 -->
<g id="edge4_Node000004_Node000005" class="edge">
<title>Node4&#45;&gt;Node5</title>
<g id="a_edge4_Node000004_Node000005"><a xlink:title=" ">
<path fill="none" stroke="#63b8ff" d="M129.71,-111.59C117.26,-103.59 99.13,-91.93 84.53,-82.54"/>
<polygon fill="#63b8ff" stroke="#63b8ff" points="86.67,-79.76 76.36,-77.3 82.88,-85.65 86.67,-79.76"/>
</a>
</g>
</g>
<!-- Node6 -->
<g id="Node000006" class="node">
<title>Node6</title>
<g id="a_Node000006"><a xlink:title=" ">
<polygon fill="#e0e0e0" stroke="#999999" points="144.35,-76 104.35,-76 104.35,-56 144.35,-56 144.35,-76"/>
<text xml:space="preserve" text-anchor="middle" x="124.35" y="-62.5" font-family="Helvetica,sans-Serif" font-size="10.00">string</text>
</a>
</g>
</g>
<!-- Node4&#45;&gt;Node6 -->
<g id="edge5_Node000004_Node000006" class="edge">
<title>Node4&#45;&gt;Node6</title>
<g id="a_edge5_Node000004_Node000006"><a xlink:title=" ">
<path fill="none" stroke="#63b8ff" d="M140.86,-111.59C138.34,-104.78 134.83,-95.32 131.7,-86.86"/>
<polygon fill="#63b8ff" stroke="#63b8ff" points="135.07,-85.88 128.31,-77.72 128.51,-88.31 135.07,-85.88"/>
</a>
</g>
</g>
<!-- Node7 -->
<g id="Node000007" class="node">
<title>Node7</title>
<g id="a_Node000007"><a xlink:href="Types_8hpp.html" target="_top" xlink:title="Core type definitions used throughout the ECS (Entity Component System).">
<polygon fill="white" stroke="#666666" points="223.85,-76 162.85,-76 162.85,-56 223.85,-56 223.85,-76"/>
<text xml:space="preserve" text-anchor="middle" x="193.35" y="-62.5" font-family="Helvetica,sans-Serif" font-size="10.00">Types.hpp</text>
</a>
</g>
</g>
<!-- Node4&#45;&gt;Node7 -->
<g id="edge6_Node000004_Node000007" class="edge">
<title>Node4&#45;&gt;Node7</title>
<g id="a_edge6_Node000004_Node000007"><a xlink:title=" ">
<path fill="none" stroke="#63b8ff" d="M152.88,-111.59C159.63,-104.16 169.23,-93.58 177.39,-84.58"/>
<polygon fill="#63b8ff" stroke="#63b8ff" points="179.76,-87.18 183.89,-77.42 174.58,-82.47 179.76,-87.18"/>
</a>
</g>
</g>
<!-- Node7&#45;&gt;Node2 -->
<g id="edge7_Node000007_Node000002" class="edge">
<title>Node7&#45;&gt;Node2</title>
<g id="a_edge7_Node000007_Node000002"><a xlink:title=" ">
<path fill="none" stroke="#63b8ff" d="M170.18,-55.59C148.23,-46.68 115.14,-33.25 91.02,-23.45"/>
<polygon fill="#63b8ff" stroke="#63b8ff" points="92.62,-20.33 82.04,-19.81 89.99,-26.81 92.62,-20.33"/>
</a>
</g>
</g>
<!-- Node8 -->
<g id="Node000008" class="node">
<title>Node8</title>
<g id="a_Node000008"><a xlink:title=" ">
<polygon fill="#e0e0e0" stroke="#999999" points="215.97,-20 170.72,-20 170.72,0 215.97,0 215.97,-20"/>
<text xml:space="preserve" text-anchor="middle" x="193.35" y="-6.5" font-family="Helvetica,sans-Serif" font-size="10.00">cstdint</text>
</a>
</g>
</g>
<!-- Node7&#45;&gt;Node8 -->
<g id="edge8_Node000007_Node000008" class="edge">
<title>Node7&#45;&gt;Node8</title>
<g id="a_edge8_Node000007_Node000008"><a xlink:title=" ">
<path fill="none" stroke="#63b8ff" d="M193.35,-55.59C193.35,-49.01 193.35,-39.96 193.35,-31.73"/>
<polygon fill="#63b8ff" stroke="#63b8ff" points="196.85,-31.81 193.35,-21.81 189.85,-31.81 196.85,-31.81"/>
</a>
</g>
</g>
</g>
</svg>
