<?xml version="1.0" encoding="UTF-8" standalone="no"?>
<!DOCTYPE svg PUBLIC "-//W3C//DTD SVG 1.1//EN"
 "http://www.w3.org/Graphics/SVG/1.1/DTD/svg11.dtd">
<!-- Generated by graphviz version 14.0.2 (0)
 -->
<!-- Title: ecs/Component.hpp Pages: 1 -->
<svg width="2254pt" height="232pt"
 viewBox="0.00 0.00 2254.00 232.00" xmlns="http://www.w3.org/2000/svg" xmlns:xlink="http://www.w3.org/1999/xlink">
<g id="graph0" class="graph" transform="scale(1 1) rotate(0) translate(4 228)">
<title>ecs/Component.hpp</title>
<!-- Node1 -->
<g id="Node000001" class="node">
<title>Node1</title>
<g id="a_Node000001"><a xlink:title=" ">
<polygon fill="#999999" stroke="#666666" points="1199,-224 1095.25,-224 1095.25,-204 1199,-204 1199,-224"/>
<text xml:space="preserve" text-anchor="middle" x="1147.12" y="-210.5" font-family="Helvetica,sans-Serif" font-size="10.00">ecs/Component.hpp</text>
</a>
</g>
</g>
<!-- Node2 -->
<g id="Node000002" class="node">
<title>Node2</title>
<g id="a_Node000002"><a xlink:href="AIControlled_8hpp.html" target="_top" xlink:title=" ">
<polygon fill="white" stroke="#666666" points="126.25,-168 0,-168 0,-136 126.25,-136 126.25,-168"/>
<text xml:space="preserve" text-anchor="start" x="8" y="-154.5" font-family="Helvetica,sans-Serif" font-size="10.00">components/AIControlled</text>
<text xml:space="preserve" text-anchor="middle" x="63.12" y="-142.5" font-family="Helvetica,sans-Serif" font-size="10.00">/src/AIControlled.hpp</text>
</a>
</g>
</g>
<!-- Node1&#45;&gt;Node2 -->
<g id="edge1_Node000001_Node000002" class="edge">
<title>Node1&#45;&gt;Node2</title>
<g id="a_edge1_Node000001_Node000002"><a xlink:title=" ">
<path fill="none" stroke="#63b8ff" d="M1083.51,-213.71C923.48,-214.74 491.56,-212.76 135.12,-168 132.34,-167.65 129.5,-167.25 126.64,-166.81"/>
<polygon fill="#63b8ff" stroke="#63b8ff" points="1083.52,-217.21 1093.49,-213.64 1083.46,-210.21 1083.52,-217.21"/>
</a>
</g>
</g>
<!-- Node3 -->
<g id="Node000003" class="node">
<title>Node3</title>
<g id="a_Node000003"><a xlink:href="Acceleration_8hpp.html" target="_top" xlink:title=" ">
<polygon fill="white" stroke="#666666" points="1724.5,-168 1599.75,-168 1599.75,-136 1724.5,-136 1724.5,-168"/>
<text xml:space="preserve" text-anchor="start" x="1607.75" y="-154.5" font-family="Helvetica,sans-Serif" font-size="10.00">components/acceleration</text>
<text xml:space="preserve" text-anchor="middle" x="1662.12" y="-142.5" font-family="Helvetica,sans-Serif" font-size="10.00">/src/Acceleration.hpp</text>
</a>
</g>
</g>
<!-- Node1&#45;&gt;Node3 -->
<g id="edge2_Node000001_Node000003" class="edge">
<title>Node1&#45;&gt;Node3</title>
<g id="a_edge2_Node000001_Node000003"><a xlink:title=" ">
<path fill="none" stroke="#63b8ff" d="M1210.76,-208.71C1297.21,-202.38 1456.46,-188.99 1591.12,-168 1593.86,-167.57 1596.66,-167.11 1599.47,-166.62"/>
<polygon fill="#63b8ff" stroke="#63b8ff" points="1210.54,-205.21 1200.82,-209.42 1211.04,-212.19 1210.54,-205.21"/>
</a>
</g>
</g>
<!-- Node12 -->
<g id="Node000012" class="node">
<title>Node12</title>
<g id="a_Node000012"><a xlink:href="Audio_8hpp.html" target="_top" xlink:title=" ">
<polygon fill="white" stroke="#666666" points="390.12,-168 278.12,-168 278.12,-136 390.12,-136 390.12,-168"/>
<text xml:space="preserve" text-anchor="start" x="286.12" y="-154.5" font-family="Helvetica,sans-Serif" font-size="10.00">components/audio/src</text>
<text xml:space="preserve" text-anchor="middle" x="334.12" y="-142.5" font-family="Helvetica,sans-Serif" font-size="10.00">/Audio.hpp</text>
</a>
</g>
</g>
<!-- Node1&#45;&gt;Node12 -->
<g id="edge11_Node000001_Node000012" class="edge">
<title>Node1&#45;&gt;Node12</title>
<g id="a_edge11_Node000001_Node000012"><a xlink:title=" ">
<path fill="none" stroke="#63b8ff" d="M1083.91,-212.74C954.63,-211.44 650.97,-204.38 399.12,-168 396.26,-167.59 393.33,-167.11 390.39,-166.59"/>
<polygon fill="#63b8ff" stroke="#63b8ff" points="1083.59,-216.24 1093.62,-212.83 1083.65,-209.24 1083.59,-216.24"/>
</a>
</g>
</g>
<!-- Node13 -->
<g id="Node000013" class="node">
<title>Node13</title>
<g id="a_Node000013"><a xlink:href="Collider_8hpp.html" target="_top" xlink:title=" ">
<polygon fill="white" stroke="#666666" points="807.62,-168 704.62,-168 704.62,-136 807.62,-136 807.62,-168"/>
<text xml:space="preserve" text-anchor="start" x="712.62" y="-154.5" font-family="Helvetica,sans-Serif" font-size="10.00">components/collider</text>
<text xml:space="preserve" text-anchor="middle" x="756.12" y="-142.5" font-family="Helvetica,sans-Serif" font-size="10.00">/src/Collider.hpp</text>
</a>
</g>
</g>
<!-- Node1&#45;&gt;Node13 -->
<g id="edge12_Node000001_Node000013" class="edge">
<title>Node1&#45;&gt;Node13</title>
<g id="a_edge12_Node000001_Node000013"><a xlink:title=" ">
<path fill="none" stroke="#63b8ff" d="M1083.69,-206.36C1017.01,-198.92 909.21,-185.55 817.12,-168 814.13,-167.43 811.05,-166.8 807.96,-166.14"/>
<polygon fill="#63b8ff" stroke="#63b8ff" points="1083.01,-209.81 1093.33,-207.43 1083.78,-202.85 1083.01,-209.81"/>
</a>
</g>
</g>
<!-- Node18 -->
<g id="Node000018" class="node">
<title>Node18</title>
<g id="a_Node000018"><a xlink:href="Damage_8hpp.html" target="_top" xlink:title=" ">
<polygon fill="white" stroke="#666666" points="531.75,-168 408.5,-168 408.5,-136 531.75,-136 531.75,-168"/>
<text xml:space="preserve" text-anchor="start" x="416.5" y="-154.5" font-family="Helvetica,sans-Serif" font-size="10.00">components/damage/src</text>
<text xml:space="preserve" text-anchor="middle" x="470.12" y="-142.5" font-family="Helvetica,sans-Serif" font-size="10.00">/Damage.hpp</text>
</a>
</g>
</g>
<!-- Node1&#45;&gt;Node18 -->
<g id="edge19_Node000001_Node000018" class="edge">
<title>Node1&#45;&gt;Node18</title>
<g id="a_edge19_Node000001_Node000018"><a xlink:title=" ">
<path fill="none" stroke="#63b8ff" d="M1083.61,-211.16C972.79,-207.3 737.12,-196.27 540.12,-168 537.42,-167.61 534.66,-167.18 531.88,-166.71"/>
<polygon fill="#63b8ff" stroke="#63b8ff" points="1083.27,-214.65 1093.39,-211.49 1083.51,-207.65 1083.27,-214.65"/>
</a>
</g>
</g>
<!-- Node19 -->
<g id="Node000019" class="node">
<title>Node19</title>
<g id="a_Node000019"><a xlink:href="Domain_8hpp.html" target="_top" xlink:title=" ">
<polygon fill="white" stroke="#666666" points="946.25,-168 826,-168 826,-136 946.25,-136 946.25,-168"/>
<text xml:space="preserve" text-anchor="start" x="834" y="-154.5" font-family="Helvetica,sans-Serif" font-size="10.00">components/domain/src</text>
<text xml:space="preserve" text-anchor="middle" x="886.12" y="-142.5" font-family="Helvetica,sans-Serif" font-size="10.00">/Domain.hpp</text>
</a>
</g>
</g>
<!-- Node1&#45;&gt;Node19 -->
<g id="edge23_Node000001_Node000019" class="edge">
<title>Node1&#45;&gt;Node19</title>
<g id="a_edge23_Node000001_Node000019"><a xlink:title=" ">
<path fill="none" stroke="#63b8ff" d="M1095.02,-201.02C1052.14,-191.16 991.32,-177.18 946.36,-166.85"/>
<polygon fill="#63b8ff" stroke="#63b8ff" points="1094.05,-204.39 1104.58,-203.22 1095.62,-197.57 1094.05,-204.39"/>
</a>
</g>
</g>
<!-- Node22 -->
<g id="Node000022" class="node">
<title>Node22</title>
<g id="a_Node000022"><a xlink:href="Gravity_8hpp.html" target="_top" xlink:title=" ">
<polygon fill="white" stroke="#666666" points="2105.88,-168 2004.38,-168 2004.38,-136 2105.88,-136 2105.88,-168"/>
<text xml:space="preserve" text-anchor="start" x="2012.38" y="-154.5" font-family="Helvetica,sans-Serif" font-size="10.00">components/gravity</text>
<text xml:space="preserve" text-anchor="middle" x="2055.12" y="-142.5" font-family="Helvetica,sans-Serif" font-size="10.00">/src/Gravity.hpp</text>
</a>
</g>
</g>
<!-- Node1&#45;&gt;Node22 -->
<g id="edge28_Node000001_Node000022" class="edge">
<title>Node1&#45;&gt;Node22</title>
<g id="a_edge28_Node000001_Node000022"><a xlink:title=" ">
<path fill="none" stroke="#63b8ff" d="M1210.74,-211.25C1381.06,-206.29 1844.74,-191.03 1996.12,-168 1998.74,-167.6 2001.4,-167.14 2004.08,-166.63"/>
<polygon fill="#63b8ff" stroke="#63b8ff" points="1210.88,-207.74 1200.98,-211.53 1211.08,-214.74 1210.88,-207.74"/>
</a>
</g>
</g>
<!-- Node23 -->
<g id="Node000023" class="node">
<title>Node23</title>
<g id="a_Node000023"><a xlink:href="Health_8hpp.html" target="_top" xlink:title=" ">
<polygon fill="white" stroke="#666666" points="259.62,-168 144.62,-168 144.62,-136 259.62,-136 259.62,-168"/>
<text xml:space="preserve" text-anchor="start" x="152.62" y="-154.5" font-family="Helvetica,sans-Serif" font-size="10.00">components/health/src</text>
<text xml:space="preserve" text-anchor="middle" x="202.12" y="-142.5" font-family="Helvetica,sans-Serif" font-size="10.00">/Health.hpp</text>
</a>
</g>
</g>
<!-- Node1&#45;&gt;Node23 -->
<g id="edge31_Node000001_Node000023" class="edge">
<title>Node1&#45;&gt;Node23</title>
<g id="a_edge31_Node000001_Node000023"><a xlink:title=" ">
<path fill="none" stroke="#63b8ff" d="M1083.59,-213.41C938.53,-213.55 572.07,-209.37 269.12,-168 266.17,-167.6 263.16,-167.13 260.12,-166.61"/>
<polygon fill="#63b8ff" stroke="#63b8ff" points="1083.38,-216.91 1093.37,-213.39 1083.36,-209.91 1083.38,-216.91"/>
</a>
</g>
</g>
<!-- Node26 -->
<g id="Node000026" class="node">
<title>Node26</title>
<g id="a_Node000026"><a xlink:href="InputControlled_8hpp.html" target="_top" xlink:title=" ">
<polygon fill="white" stroke="#666666" points="686.88,-168 549.38,-168 549.38,-136 686.88,-136 686.88,-168"/>
<text xml:space="preserve" text-anchor="start" x="557.38" y="-154.5" font-family="Helvetica,sans-Serif" font-size="10.00">components/inputControlled</text>
<text xml:space="preserve" text-anchor="middle" x="618.12" y="-142.5" font-family="Helvetica,sans-Serif" font-size="10.00">/src/InputControlled.hpp</text>
</a>
</g>
</g>
<!-- Node1&#45;&gt;Node26 -->
<g id="edge37_Node000001_Node000026" class="edge">
<title>Node1&#45;&gt;Node26</title>
<g id="a_edge37_Node000001_Node000026"><a xlink:title=" ">
<path fill="none" stroke="#63b8ff" d="M1083.53,-208.48C996,-201.84 833.61,-188.04 696.12,-168 693.12,-167.56 690.06,-167.09 686.97,-166.59"/>
<polygon fill="#63b8ff" stroke="#63b8ff" points="1083.11,-211.96 1093.34,-209.22 1083.63,-204.98 1083.11,-211.96"/>
</a>
</g>
</g>
<!-- Node27 -->
<g id="Node000027" class="node">
<title>Node27</title>
<g id="a_Node000027"><a xlink:href="Lifetime_8hpp.html" target="_top" xlink:title=" ">
<polygon fill="white" stroke="#666666" points="1328,-168 1224.25,-168 1224.25,-136 1328,-136 1328,-168"/>
<text xml:space="preserve" text-anchor="start" x="1232.25" y="-154.5" font-family="Helvetica,sans-Serif" font-size="10.00">components/lifetime</text>
<text xml:space="preserve" text-anchor="middle" x="1276.12" y="-142.5" font-family="Helvetica,sans-Serif" font-size="10.00">/src/Lifetime.hpp</text>
</a>
</g>
</g>
<!-- Node1&#45;&gt;Node27 -->
<g id="edge42_Node000001_Node000027" class="edge">
<title>Node1&#45;&gt;Node27</title>
<g id="a_edge42_Node000001_Node000027"><a xlink:title=" ">
<path fill="none" stroke="#63b8ff" d="M1177.5,-198.87C1197.12,-189.75 1222.65,-177.87 1242.82,-168.49"/>
<polygon fill="#63b8ff" stroke="#63b8ff" points="1176.24,-195.6 1168.65,-202.99 1179.2,-201.94 1176.24,-195.6"/>
</a>
</g>
</g>
<!-- Node28 -->
<g id="Node000028" class="node">
<title>Node28</title>
<g id="a_Node000028"><a xlink:href="OnPickup_8hpp.html" target="_top" xlink:title=" ">
<polygon fill="white" stroke="#666666" points="1458.5,-168 1345.75,-168 1345.75,-136 1458.5,-136 1458.5,-168"/>
<text xml:space="preserve" text-anchor="start" x="1353.75" y="-154.5" font-family="Helvetica,sans-Serif" font-size="10.00">components/onPickup</text>
<text xml:space="preserve" text-anchor="middle" x="1402.12" y="-142.5" font-family="Helvetica,sans-Serif" font-size="10.00">/src/OnPickup.hpp</text>
</a>
</g>
</g>
<!-- Node1&#45;&gt;Node28 -->
<g id="edge43_Node000001_Node000028" class="edge">
<title>Node1&#45;&gt;Node28</title>
<g id="a_edge43_Node000001_Node000028"><a xlink:title=" ">
<path fill="none" stroke="#63b8ff" d="M1198.22,-200.98C1240.87,-190.94 1301.58,-176.66 1345.66,-166.29"/>
<polygon fill="#63b8ff" stroke="#63b8ff" points="1197.66,-197.51 1188.72,-203.21 1199.26,-204.33 1197.66,-197.51"/>
</a>
</g>
</g>
<!-- Node29 -->
<g id="Node000029" class="node">
<title>Node29</title>
<g id="a_Node000029"><a xlink:href="Position_8hpp.html" target="_top" xlink:title=" ">
<polygon fill="white" stroke="#666666" points="1070.12,-168 964.12,-168 964.12,-136 1070.12,-136 1070.12,-168"/>
<text xml:space="preserve" text-anchor="start" x="972.12" y="-154.5" font-family="Helvetica,sans-Serif" font-size="10.00">components/position</text>
<text xml:space="preserve" text-anchor="middle" x="1017.12" y="-142.5" font-family="Helvetica,sans-Serif" font-size="10.00">/src/Position.hpp</text>
</a>
</g>
</g>
<!-- Node1&#45;&gt;Node29 -->
<g id="edge44_Node000001_Node000029" class="edge">
<title>Node1&#45;&gt;Node29</title>
<g id="a_edge44_Node000001_Node000029"><a xlink:title=" ">
<path fill="none" stroke="#63b8ff" d="M1116.51,-198.87C1096.75,-189.75 1071.01,-177.87 1050.69,-168.49"/>
<polygon fill="#63b8ff" stroke="#63b8ff" points="1114.89,-201.98 1125.44,-202.99 1117.83,-195.62 1114.89,-201.98"/>
</a>
</g>
</g>
<!-- Node30 -->
<g id="Node000030" class="node">
<title>Node30</title>
<g id="a_Node000030"><a xlink:href="Renderable_8hpp.html" target="_top" xlink:title=" ">
<polygon fill="white" stroke="#666666" points="1205.75,-168 1088.5,-168 1088.5,-136 1205.75,-136 1205.75,-168"/>
<text xml:space="preserve" text-anchor="start" x="1096.5" y="-154.5" font-family="Helvetica,sans-Serif" font-size="10.00">components/renderable</text>
<text xml:space="preserve" text-anchor="middle" x="1147.12" y="-142.5" font-family="Helvetica,sans-Serif" font-size="10.00">/src/Renderable.hpp</text>
</a>
</g>
</g>
<!-- Node1&#45;&gt;Node30 -->
<g id="edge51_Node000001_Node000030" class="edge">
<title>Node1&#45;&gt;Node30</title>
<g id="a_edge51_Node000001_Node000030"><a xlink:title=" ">
<path fill="none" stroke="#63b8ff" d="M1147.12,-192.31C1147.12,-184.37 1147.12,-175.46 1147.12,-168.14"/>
<polygon fill="#63b8ff" stroke="#63b8ff" points="1143.63,-192.11 1147.13,-202.11 1150.63,-192.11 1143.63,-192.11"/>
</a>
</g>
</g>
<!-- Node33 -->
<g id="Node000033" class="node">
<title>Node33</title>
<g id="a_Node000033"><a xlink:href="ScoreValue_8hpp.html" target="_top" xlink:title=" ">
<polygon fill="white" stroke="#666666" points="1863.25,-168 1743,-168 1743,-136 1863.25,-136 1863.25,-168"/>
<text xml:space="preserve" text-anchor="start" x="1751" y="-154.5" font-family="Helvetica,sans-Serif" font-size="10.00">components/scoreValue</text>
<text xml:space="preserve" text-anchor="middle" x="1803.12" y="-142.5" font-family="Helvetica,sans-Serif" font-size="10.00">/src/ScoreValue.hpp</text>
</a>
</g>
</g>
<!-- Node1&#45;&gt;Node33 -->
<g id="edge59_Node000001_Node000033" class="edge">
<title>Node1&#45;&gt;Node33</title>
<g id="a_edge59_Node000001_Node000033"><a xlink:title=" ">
<path fill="none" stroke="#63b8ff" d="M1210.42,-210.93C1318.22,-206.78 1544.11,-195.38 1733.12,-168 1736.2,-167.55 1739.34,-167.05 1742.51,-166.51"/>
<polygon fill="#63b8ff" stroke="#63b8ff" points="1210.49,-207.42 1200.63,-211.3 1210.76,-214.42 1210.49,-207.42"/>
</a>
</g>
</g>
<!-- Node34 -->
<g id="Node000034" class="node">
<title>Node34</title>
<g id="a_Node000034"><a xlink:href="Text_8hpp.html" target="_top" xlink:title=" ">
<polygon fill="white" stroke="#666666" points="1986.75,-168 1881.5,-168 1881.5,-136 1986.75,-136 1986.75,-168"/>
<text xml:space="preserve" text-anchor="start" x="1889.5" y="-154.5" font-family="Helvetica,sans-Serif" font-size="10.00">components/text/src</text>
<text xml:space="preserve" text-anchor="middle" x="1934.12" y="-142.5" font-family="Helvetica,sans-Serif" font-size="10.00">/Text.hpp</text>
</a>
</g>
</g>
<!-- Node1&#45;&gt;Node34 -->
<g id="edge60_Node000001_Node000034" class="edge">
<title>Node1&#45;&gt;Node34</title>
<g id="a_edge60_Node000001_Node000034"><a xlink:title=" ">
<path fill="none" stroke="#63b8ff" d="M1210.69,-212.79C1337.3,-211.55 1629.67,-204.56 1872.12,-168 1875.08,-167.55 1878.1,-167.04 1881.15,-166.46"/>
<polygon fill="#63b8ff" stroke="#63b8ff" points="1210.81,-209.29 1200.84,-212.88 1210.87,-216.29 1210.81,-209.29"/>
</a>
</g>
</g>
<!-- Node35 -->
<g id="Node000035" class="node">
<title>Node35</title>
<g id="a_Node000035"><a xlink:href="Velocity_8hpp.html" target="_top" xlink:title=" ">
<polygon fill="white" stroke="#666666" points="1582.12,-168 1476.12,-168 1476.12,-136 1582.12,-136 1582.12,-168"/>
<text xml:space="preserve" text-anchor="start" x="1484.12" y="-154.5" font-family="Helvetica,sans-Serif" font-size="10.00">components/velocity</text>
<text xml:space="preserve" text-anchor="middle" x="1529.12" y="-142.5" font-family="Helvetica,sans-Serif" font-size="10.00">/src/Velocity.hpp</text>
</a>
</g>
</g>
<!-- Node1&#45;&gt;Node35 -->
<g id="edge61_Node000001_Node000035" class="edge">
<title>Node1&#45;&gt;Node35</title>
<g id="a_edge61_Node000001_Node000035"><a xlink:title=" ">
<path fill="none" stroke="#63b8ff" d="M1210.73,-205.91C1275.52,-198.26 1378.75,-184.86 1467.12,-168 1469.95,-167.46 1472.85,-166.88 1475.76,-166.26"/>
<polygon fill="#63b8ff" stroke="#63b8ff" points="1210.51,-202.41 1200.99,-207.05 1211.33,-209.37 1210.51,-202.41"/>
</a>
</g>
</g>
<!-- Node36 -->
<g id="Node000036" class="node">
<title>Node36</title>
<g id="a_Node000036"><a xlink:href="Weapon_8hpp.html" target="_top" xlink:title=" ">
<polygon fill="white" stroke="#666666" points="2246.38,-168 2123.88,-168 2123.88,-136 2246.38,-136 2246.38,-168"/>
<text xml:space="preserve" text-anchor="start" x="2131.88" y="-154.5" font-family="Helvetica,sans-Serif" font-size="10.00">components/weapon/src</text>
<text xml:space="preserve" text-anchor="middle" x="2185.12" y="-142.5" font-family="Helvetica,sans-Serif" font-size="10.00">/Weapon.hpp</text>
</a>
</g>
</g>
<!-- Node1&#45;&gt;Node36 -->
<g id="edge66_Node000001_Node000036" class="edge">
<title>Node1&#45;&gt;Node36</title>
<g id="a_edge66_Node000001_Node000036"><a xlink:title=" ">
<path fill="none" stroke="#63b8ff" d="M1210.49,-213.65C1365.54,-214.46 1776.15,-211.89 2115.12,-168 2117.84,-167.65 2120.6,-167.25 2123.38,-166.81"/>
<polygon fill="#63b8ff" stroke="#63b8ff" points="1210.86,-210.15 1200.84,-213.59 1210.82,-217.15 1210.86,-210.15"/>
</a>
</g>
</g>
<!-- Node4 -->
<g id="Node000004" class="node">
<title>Node4</title>
<g id="a_Node000004"><a xlink:href="FPApplyGravity_8hpp.html" target="_top" xlink:title=" ">
<polygon fill="white" stroke="#666666" points="1726.5,-100 1601.75,-100 1601.75,-68 1726.5,-68 1726.5,-100"/>
<text xml:space="preserve" text-anchor="start" x="1609.75" y="-86.5" font-family="Helvetica,sans-Serif" font-size="10.00">systems/FPApplyGravity</text>
<text xml:space="preserve" text-anchor="middle" x="1664.12" y="-74.5" font-family="Helvetica,sans-Serif" font-size="10.00">/src/FPApplyGravity.hpp</text>
</a>
</g>
</g>
<!-- Node3&#45;&gt;Node4 -->
<g id="edge3_Node000003_Node000004" class="edge">
<title>Node3&#45;&gt;Node4</title>
<g id="a_edge3_Node000003_Node000004"><a xlink:title=" ">
<path fill="none" stroke="#63b8ff" d="M1662.93,-124.31C1663.18,-116.12 1663.45,-107.38 1663.66,-100.22"/>
<polygon fill="#63b8ff" stroke="#63b8ff" points="1659.44,-124.08 1662.63,-134.18 1666.44,-124.29 1659.44,-124.08"/>
</a>
</g>
</g>
<!-- Node6 -->
<g id="Node000006" class="node">
<title>Node6</title>
<g id="a_Node000006"><a xlink:href="FPMotion_8hpp.html" target="_top" xlink:title=" ">
<polygon fill="white" stroke="#666666" points="1583.62,-100 1468.62,-100 1468.62,-68 1583.62,-68 1583.62,-100"/>
<text xml:space="preserve" text-anchor="start" x="1476.62" y="-86.5" font-family="Helvetica,sans-Serif" font-size="10.00">systems/FPMotion/src</text>
<text xml:space="preserve" text-anchor="middle" x="1526.12" y="-74.5" font-family="Helvetica,sans-Serif" font-size="10.00">/FPMotion.hpp</text>
</a>
</g>
</g>
<!-- Node3&#45;&gt;Node6 -->
<g id="edge5_Node000003_Node000006" class="edge">
<title>Node3&#45;&gt;Node6</title>
<g id="a_edge5_Node000003_Node000006"><a xlink:title=" ">
<path fill="none" stroke="#63b8ff" d="M1620.1,-130.61C1600.01,-120.86 1576.36,-109.38 1557.81,-100.38"/>
<polygon fill="#63b8ff" stroke="#63b8ff" points="1618.35,-133.65 1628.88,-134.87 1621.41,-127.35 1618.35,-133.65"/>
</a>
</g>
</g>
<!-- Node8 -->
<g id="Node000008" class="node">
<title>Node8</title>
<g id="a_Node000008"><a xlink:href="InputHandler_8hpp.html" target="_top" xlink:title=" ">
<polygon fill="white" stroke="#666666" points="939.75,-100 828.5,-100 828.5,-68 939.75,-68 939.75,-100"/>
<text xml:space="preserve" text-anchor="start" x="836.5" y="-86.5" font-family="Helvetica,sans-Serif" font-size="10.00">systems/inputHandler</text>
<text xml:space="preserve" text-anchor="middle" x="884.12" y="-74.5" font-family="Helvetica,sans-Serif" font-size="10.00">/src/InputHandler.hpp</text>
</a>
</g>
</g>
<!-- Node3&#45;&gt;Node8 -->
<g id="edge7_Node000003_Node000008" class="edge">
<title>Node3&#45;&gt;Node8</title>
<g id="a_edge7_Node000003_Node000008"><a xlink:title=" ">
<path fill="none" stroke="#63b8ff" d="M1588.49,-135.79C1305.88,-99.41 1228.46,-139.77 949.12,-100 946.14,-99.58 943.1,-99.08 940.03,-98.54"/>
<polygon fill="#63b8ff" stroke="#63b8ff" points="1587.62,-139.2 1597.99,-137.03 1588.53,-132.26 1587.62,-139.2"/>
</a>
</g>
</g>
<!-- Node10 -->
<g id="Node000010" class="node">
<title>Node10</title>
<g id="a_Node000010"><a xlink:href="Motion_8hpp.html" target="_top" xlink:title=" ">
<polygon fill="white" stroke="#666666" points="1200.25,-100 1098,-100 1098,-68 1200.25,-68 1200.25,-100"/>
<text xml:space="preserve" text-anchor="start" x="1106" y="-86.5" font-family="Helvetica,sans-Serif" font-size="10.00">systems/motion/src</text>
<text xml:space="preserve" text-anchor="middle" x="1149.12" y="-74.5" font-family="Helvetica,sans-Serif" font-size="10.00">/Motion.hpp</text>
</a>
</g>
</g>
<!-- Node3&#45;&gt;Node10 -->
<g id="edge9_Node000003_Node000010" class="edge">
<title>Node3&#45;&gt;Node10</title>
<g id="a_edge9_Node000003_Node000010"><a xlink:title=" ">
<path fill="none" stroke="#63b8ff" d="M1588.28,-135.68C1420.98,-111.13 1374.22,-127.77 1210.12,-100 1207.01,-99.47 1203.81,-98.87 1200.6,-98.22"/>
<polygon fill="#63b8ff" stroke="#63b8ff" points="1587.57,-139.12 1597.98,-137.14 1588.61,-132.19 1587.57,-139.12"/>
</a>
</g>
</g>
<!-- Node5 -->
<g id="Node000005" class="node">
<title>Node5</title>
<g id="a_Node000005"><a xlink:href="FPApplyGravity_8cpp.html" target="_top" xlink:title=" ">
<polygon fill="white" stroke="#666666" points="1726.5,-32 1601.75,-32 1601.75,0 1726.5,0 1726.5,-32"/>
<text xml:space="preserve" text-anchor="start" x="1609.75" y="-18.5" font-family="Helvetica,sans-Serif" font-size="10.00">systems/FPApplyGravity</text>
<text xml:space="preserve" text-anchor="middle" x="1664.12" y="-6.5" font-family="Helvetica,sans-Serif" font-size="10.00">/src/FPApplyGravity.cpp</text>
</a>
</g>
</g>
<!-- Node4&#45;&gt;Node5 -->
<g id="edge4_Node000004_Node000005" class="edge">
<title>Node4&#45;&gt;Node5</title>
<g id="a_edge4_Node000004_Node000005"><a xlink:title=" ">
<path fill="none" stroke="#63b8ff" d="M1664.12,-56.31C1664.12,-48.12 1664.12,-39.38 1664.12,-32.22"/>
<polygon fill="#63b8ff" stroke="#63b8ff" points="1660.63,-56.18 1664.13,-66.18 1667.63,-56.18 1660.63,-56.18"/>
</a>
</g>
</g>
<!-- Node7 -->
<g id="Node000007" class="node">
<title>Node7</title>
<g id="a_Node000007"><a xlink:href="FPMotion_8cpp.html" target="_top" xlink:title=" ">
<polygon fill="white" stroke="#666666" points="1583.62,-32 1468.62,-32 1468.62,0 1583.62,0 1583.62,-32"/>
<text xml:space="preserve" text-anchor="start" x="1476.62" y="-18.5" font-family="Helvetica,sans-Serif" font-size="10.00">systems/FPMotion/src</text>
<text xml:space="preserve" text-anchor="middle" x="1526.12" y="-6.5" font-family="Helvetica,sans-Serif" font-size="10.00">/FPMotion.cpp</text>
</a>
</g>
</g>
<!-- Node6&#45;&gt;Node7 -->
<g id="edge6_Node000006_Node000007" class="edge">
<title>Node6&#45;&gt;Node7</title>
<g id="a_edge6_Node000006_Node000007"><a xlink:title=" ">
<path fill="none" stroke="#63b8ff" d="M1526.12,-56.31C1526.12,-48.12 1526.12,-39.38 1526.12,-32.22"/>
<polygon fill="#63b8ff" stroke="#63b8ff" points="1522.63,-56.18 1526.13,-66.18 1529.63,-56.18 1522.63,-56.18"/>
</a>
</g>
</g>
<!-- Node9 -->
<g id="Node000009" class="node">
<title>Node9</title>
<g id="a_Node000009"><a xlink:href="InputHandler_8cpp.html" target="_top" xlink:title=" ">
<polygon fill="white" stroke="#666666" points="939.75,-32 828.5,-32 828.5,0 939.75,0 939.75,-32"/>
<text xml:space="preserve" text-anchor="start" x="836.5" y="-18.5" font-family="Helvetica,sans-Serif" font-size="10.00">systems/inputHandler</text>
<text xml:space="preserve" text-anchor="middle" x="884.12" y="-6.5" font-family="Helvetica,sans-Serif" font-size="10.00">/src/InputHandler.cpp</text>
</a>
</g>
</g>
<!-- Node8&#45;&gt;Node9 -->
<g id="edge8_Node000008_Node000009" class="edge">
<title>Node8&#45;&gt;Node9</title>
<g id="a_edge8_Node000008_Node000009"><a xlink:title=" ">
<path fill="none" stroke="#63b8ff" d="M884.12,-56.31C884.12,-48.12 884.12,-39.38 884.12,-32.22"/>
<polygon fill="#63b8ff" stroke="#63b8ff" points="880.63,-56.18 884.13,-66.18 887.63,-56.18 880.63,-56.18"/>
</a>
</g>
</g>
<!-- Node11 -->
<g id="Node000011" class="node">
<title>Node11</title>
<g id="a_Node000011"><a xlink:href="Motion_8cpp.html" target="_top" xlink:title=" ">
<polygon fill="white" stroke="#666666" points="1200.25,-32 1098,-32 1098,0 1200.25,0 1200.25,-32"/>
<text xml:space="preserve" text-anchor="start" x="1106" y="-18.5" font-family="Helvetica,sans-Serif" font-size="10.00">systems/motion/src</text>
<text xml:space="preserve" text-anchor="middle" x="1149.12" y="-6.5" font-family="Helvetica,sans-Serif" font-size="10.00">/Motion.cpp</text>
</a>
</g>
</g>
<!-- Node10&#45;&gt;Node11 -->
<g id="edge10_Node000010_Node000011" class="edge">
<title>Node10&#45;&gt;Node11</title>
<g id="a_edge10_Node000010_Node000011"><a xlink:title=" ">
<path fill="none" stroke="#63b8ff" d="M1149.12,-56.31C1149.12,-48.12 1149.12,-39.38 1149.12,-32.22"/>
<polygon fill="#63b8ff" stroke="#63b8ff" points="1145.63,-56.18 1149.13,-66.18 1152.63,-56.18 1145.63,-56.18"/>
</a>
</g>
</g>
<!-- Node13&#45;&gt;Node8 -->
<g id="edge17_Node000013_Node000008" class="edge">
<title>Node13&#45;&gt;Node8</title>
<g id="a_edge17_Node000013_Node000008"><a xlink:title=" ">
<path fill="none" stroke="#63b8ff" d="M796.2,-130.34C814.99,-120.65 837,-109.3 854.3,-100.38"/>
<polygon fill="#63b8ff" stroke="#63b8ff" points="794.76,-127.14 787.48,-134.83 797.97,-133.36 794.76,-127.14"/>
</a>
</g>
</g>
<!-- Node13&#45;&gt;Node10 -->
<g id="edge18_Node000013_Node000010" class="edge">
<title>Node13&#45;&gt;Node10</title>
<g id="a_edge18_Node000013_Node000010"><a xlink:title=" ">
<path fill="none" stroke="#63b8ff" d="M819.05,-135.78C938.93,-113.93 972.85,-122.16 1089.12,-100 1091.97,-99.46 1094.89,-98.86 1097.82,-98.23"/>
<polygon fill="#63b8ff" stroke="#63b8ff" points="818.63,-132.3 809.44,-137.57 819.91,-139.18 818.63,-132.3"/>
</a>
</g>
</g>
<!-- Node14 -->
<g id="Node000014" class="node">
<title>Node14</title>
<g id="a_Node000014"><a xlink:href="FPInputHandler_8hpp.html" target="_top" xlink:title=" ">
<polygon fill="white" stroke="#666666" points="810.5,-100 685.75,-100 685.75,-68 810.5,-68 810.5,-100"/>
<text xml:space="preserve" text-anchor="start" x="693.75" y="-86.5" font-family="Helvetica,sans-Serif" font-size="10.00">systems/FPInputHandler</text>
<text xml:space="preserve" text-anchor="middle" x="748.12" y="-74.5" font-family="Helvetica,sans-Serif" font-size="10.00">/src/FPInputHandler.hpp</text>
</a>
</g>
</g>
<!-- Node13&#45;&gt;Node14 -->
<g id="edge13_Node000013_Node000014" class="edge">
<title>Node13&#45;&gt;Node14</title>
<g id="a_edge13_Node000013_Node000014"><a xlink:title=" ">
<path fill="none" stroke="#63b8ff" d="M752.89,-124.31C751.9,-116.12 750.84,-107.38 749.97,-100.22"/>
<polygon fill="#63b8ff" stroke="#63b8ff" points="749.41,-124.68 754.09,-134.19 756.36,-123.84 749.41,-124.68"/>
</a>
</g>
</g>
<!-- Node16 -->
<g id="Node000016" class="node">
<title>Node16</title>
<g id="a_Node000016"><a xlink:href="Collision_8hpp.html" target="_top" xlink:title=" ">
<polygon fill="white" stroke="#666666" points="667.25,-100 559,-100 559,-68 667.25,-68 667.25,-100"/>
<text xml:space="preserve" text-anchor="start" x="567" y="-86.5" font-family="Helvetica,sans-Serif" font-size="10.00">systems/collision/src</text>
<text xml:space="preserve" text-anchor="middle" x="613.12" y="-74.5" font-family="Helvetica,sans-Serif" font-size="10.00">/Collision.hpp</text>
</a>
</g>
</g>
<!-- Node13&#45;&gt;Node16 -->
<g id="edge15_Node000013_Node000016" class="edge">
<title>Node13&#45;&gt;Node16</title>
<g id="a_edge15_Node000013_Node000016"><a xlink:title=" ">
<path fill="none" stroke="#63b8ff" d="M712.23,-130.74C691.04,-120.96 666.04,-109.42 646.44,-100.38"/>
<polygon fill="#63b8ff" stroke="#63b8ff" points="710.68,-133.88 721.22,-134.89 713.61,-127.52 710.68,-133.88"/>
</a>
</g>
</g>
<!-- Node15 -->
<g id="Node000015" class="node">
<title>Node15</title>
<g id="a_Node000015"><a xlink:href="FPInputHandler_8cpp.html" target="_top" xlink:title=" ">
<polygon fill="white" stroke="#666666" points="810.5,-32 685.75,-32 685.75,0 810.5,0 810.5,-32"/>
<text xml:space="preserve" text-anchor="start" x="693.75" y="-18.5" font-family="Helvetica,sans-Serif" font-size="10.00">systems/FPInputHandler</text>
<text xml:space="preserve" text-anchor="middle" x="748.12" y="-6.5" font-family="Helvetica,sans-Serif" font-size="10.00">/src/FPInputHandler.cpp</text>
</a>
</g>
</g>
<!-- Node14&#45;&gt;Node15 -->
<g id="edge14_Node000014_Node000015" class="edge">
<title>Node14&#45;&gt;Node15</title>
<g id="a_edge14_Node000014_Node000015"><a xlink:title=" ">
<path fill="none" stroke="#63b8ff" d="M748.12,-56.31C748.12,-48.12 748.12,-39.38 748.12,-32.22"/>
<polygon fill="#63b8ff" stroke="#63b8ff" points="744.63,-56.18 748.13,-66.18 751.63,-56.18 744.63,-56.18"/>
</a>
</g>
</g>
<!-- Node17 -->
<g id="Node000017" class="node">
<title>Node17</title>
<g id="a_Node000017"><a xlink:href="Collision_8cpp.html" target="_top" xlink:title=" ">
<polygon fill="white" stroke="#666666" points="667.25,-32 559,-32 559,0 667.25,0 667.25,-32"/>
<text xml:space="preserve" text-anchor="start" x="567" y="-18.5" font-family="Helvetica,sans-Serif" font-size="10.00">systems/collision/src</text>
<text xml:space="preserve" text-anchor="middle" x="613.12" y="-6.5" font-family="Helvetica,sans-Serif" font-size="10.00">/Collision.cpp</text>
</a>
</g>
</g>
<!-- Node16&#45;&gt;Node17 -->
<g id="edge16_Node000016_Node000017" class="edge">
<title>Node16&#45;&gt;Node17</title>
<g id="a_edge16_Node000016_Node000017"><a xlink:title=" ">
<path fill="none" stroke="#63b8ff" d="M613.12,-56.31C613.12,-48.12 613.12,-39.38 613.12,-32.22"/>
<polygon fill="#63b8ff" stroke="#63b8ff" points="609.63,-56.18 613.13,-66.18 616.63,-56.18 609.63,-56.18"/>
</a>
</g>
</g>
<!-- Node18&#45;&gt;Node8 -->
<g id="edge22_Node000018_Node000008" class="edge">
<title>Node18&#45;&gt;Node8</title>
<g id="a_edge22_Node000018_Node000008"><a xlink:title=" ">
<path fill="none" stroke="#63b8ff" d="M543.21,-135.56C665.35,-115.28 699.67,-121.44 819.12,-100 822.09,-99.47 825.12,-98.89 828.18,-98.28"/>
<polygon fill="#63b8ff" stroke="#63b8ff" points="542.68,-132.1 533.4,-137.22 543.84,-139 542.68,-132.1"/>
</a>
</g>
</g>
<!-- Node18&#45;&gt;Node14 -->
<g id="edge20_Node000018_Node000014" class="edge">
<title>Node18&#45;&gt;Node14</title>
<g id="a_edge20_Node000018_Node000014"><a xlink:title=" ">
<path fill="none" stroke="#63b8ff" d="M543.14,-133.67C587.33,-123.18 643.1,-109.93 685.31,-99.91"/>
<polygon fill="#63b8ff" stroke="#63b8ff" points="542.56,-130.21 533.64,-135.92 544.18,-137.02 542.56,-130.21"/>
</a>
</g>
</g>
<!-- Node18&#45;&gt;Node16 -->
<g id="edge21_Node000018_Node000016" class="edge">
<title>Node18&#45;&gt;Node16</title>
<g id="a_edge21_Node000018_Node000016"><a xlink:title=" ">
<path fill="none" stroke="#63b8ff" d="M514.02,-130.74C535.21,-120.96 560.21,-109.42 579.81,-100.38"/>
<polygon fill="#63b8ff" stroke="#63b8ff" points="512.64,-127.52 505.03,-134.89 515.57,-133.88 512.64,-127.52"/>
</a>
</g>
</g>
<!-- Node19&#45;&gt;Node8 -->
<g id="edge27_Node000019_Node000008" class="edge">
<title>Node19&#45;&gt;Node8</title>
<g id="a_edge27_Node000019_Node000008"><a xlink:title=" ">
<path fill="none" stroke="#63b8ff" d="M885.32,-124.31C885.07,-116.12 884.8,-107.38 884.59,-100.22"/>
<polygon fill="#63b8ff" stroke="#63b8ff" points="881.81,-124.29 885.62,-134.18 888.81,-124.08 881.81,-124.29"/>
</a>
</g>
</g>
<!-- Node19&#45;&gt;Node14 -->
<g id="edge24_Node000019_Node000014" class="edge">
<title>Node19&#45;&gt;Node14</title>
<g id="a_edge24_Node000019_Node000014"><a xlink:title=" ">
<path fill="none" stroke="#63b8ff" d="M843.49,-130.61C823.1,-120.86 799.1,-109.38 780.28,-100.38"/>
<polygon fill="#63b8ff" stroke="#63b8ff" points="841.87,-133.72 852.4,-134.87 844.89,-127.4 841.87,-133.72"/>
</a>
</g>
</g>
<!-- Node20 -->
<g id="Node000020" class="node">
<title>Node20</title>
<g id="a_Node000020"><a xlink:href="DomainHandler_8hpp.html" target="_top" xlink:title=" ">
<polygon fill="white" stroke="#666666" points="1080,-100 958.25,-100 958.25,-68 1080,-68 1080,-100"/>
<text xml:space="preserve" text-anchor="start" x="966.25" y="-86.5" font-family="Helvetica,sans-Serif" font-size="10.00">systems/domainHandler</text>
<text xml:space="preserve" text-anchor="middle" x="1019.12" y="-74.5" font-family="Helvetica,sans-Serif" font-size="10.00">/src/DomainHandler.hpp</text>
</a>
</g>
</g>
<!-- Node19&#45;&gt;Node20 -->
<g id="edge25_Node000019_Node000020" class="edge">
<title>Node19&#45;&gt;Node20</title>
<g id="a_edge25_Node000019_Node000020"><a xlink:title=" ">
<path fill="none" stroke="#63b8ff" d="M927.49,-130.47C947.08,-120.75 970.08,-109.34 988.14,-100.38"/>
<polygon fill="#63b8ff" stroke="#63b8ff" points="926.07,-127.27 918.66,-134.85 929.18,-133.54 926.07,-127.27"/>
</a>
</g>
</g>
<!-- Node21 -->
<g id="Node000021" class="node">
<title>Node21</title>
<g id="a_Node000021"><a xlink:href="DomainHandler_8cpp.html" target="_top" xlink:title=" ">
<polygon fill="white" stroke="#666666" points="1080,-32 958.25,-32 958.25,0 1080,0 1080,-32"/>
<text xml:space="preserve" text-anchor="start" x="966.25" y="-18.5" font-family="Helvetica,sans-Serif" font-size="10.00">systems/domainHandler</text>
<text xml:space="preserve" text-anchor="middle" x="1019.12" y="-6.5" font-family="Helvetica,sans-Serif" font-size="10.00">/src/DomainHandler.cpp</text>
</a>
</g>
</g>
<!-- Node20&#45;&gt;Node21 -->
<g id="edge26_Node000020_Node000021" class="edge">
<title>Node20&#45;&gt;Node21</title>
<g id="a_edge26_Node000020_Node000021"><a xlink:title=" ">
<path fill="none" stroke="#63b8ff" d="M1019.12,-56.31C1019.12,-48.12 1019.12,-39.38 1019.12,-32.22"/>
<polygon fill="#63b8ff" stroke="#63b8ff" points="1015.63,-56.18 1019.13,-66.18 1022.63,-56.18 1015.63,-56.18"/>
</a>
</g>
</g>
<!-- Node22&#45;&gt;Node4 -->
<g id="edge29_Node000022_Node000004" class="edge">
<title>Node22&#45;&gt;Node4</title>
<g id="a_edge29_Node000022_Node000004"><a xlink:title=" ">
<path fill="none" stroke="#63b8ff" d="M1992.75,-135.41C1894.94,-115.91 1791.37,-101.23 1726.86,-92.8"/>
<polygon fill="#63b8ff" stroke="#63b8ff" points="1992.05,-138.84 2002.54,-137.39 1993.43,-131.98 1992.05,-138.84"/>
</a>
</g>
</g>
<!-- Node22&#45;&gt;Node6 -->
<g id="edge30_Node000022_Node000006" class="edge">
<title>Node22&#45;&gt;Node6</title>
<g id="a_edge30_Node000022_Node000006"><a xlink:title=" ">
<path fill="none" stroke="#63b8ff" d="M1992.84,-135.6C1816.84,-106.63 1767.16,-127.13 1593.12,-100 1590.06,-99.52 1586.93,-98.99 1583.78,-98.41"/>
<polygon fill="#63b8ff" stroke="#63b8ff" points="1992.13,-139.03 2002.57,-137.24 1993.29,-132.13 1992.13,-139.03"/>
</a>
</g>
</g>
<!-- Node23&#45;&gt;Node8 -->
<g id="edge36_Node000023_Node000008" class="edge">
<title>Node23&#45;&gt;Node8</title>
<g id="a_edge36_Node000023_Node000008"><a xlink:title=" ">
<path fill="none" stroke="#63b8ff" d="M271.07,-135.9C513.61,-102.17 580.44,-135.12 819.12,-100 822.1,-99.56 825.15,-99.06 828.21,-98.51"/>
<polygon fill="#63b8ff" stroke="#63b8ff" points="270.67,-132.42 261.26,-137.29 271.65,-139.35 270.67,-132.42"/>
</a>
</g>
</g>
<!-- Node23&#45;&gt;Node14 -->
<g id="edge32_Node000023_Node000014" class="edge">
<title>Node23&#45;&gt;Node14</title>
<g id="a_edge32_Node000023_Node000014"><a xlink:title=" ">
<path fill="none" stroke="#63b8ff" d="M270.95,-135.87C450.54,-108.82 500.08,-126.03 676.12,-100 679.16,-99.55 682.25,-99.06 685.37,-98.52"/>
<polygon fill="#63b8ff" stroke="#63b8ff" points="270.63,-132.38 261.27,-137.36 271.69,-139.3 270.63,-132.38"/>
</a>
</g>
</g>
<!-- Node23&#45;&gt;Node16 -->
<g id="edge33_Node000023_Node000016" class="edge">
<title>Node23&#45;&gt;Node16</title>
<g id="a_edge33_Node000023_Node000016"><a xlink:title=" ">
<path fill="none" stroke="#63b8ff" d="M270.91,-135.75C378.82,-116 492.97,-100.33 558.7,-91.82"/>
<polygon fill="#63b8ff" stroke="#63b8ff" points="270.5,-132.27 261.3,-137.53 271.77,-139.15 270.5,-132.27"/>
</a>
</g>
</g>
<!-- Node24 -->
<g id="Node000024" class="node">
<title>Node24</title>
<g id="a_Node000024"><a xlink:href="Death_8hpp.html" target="_top" xlink:title=" ">
<polygon fill="white" stroke="#666666" points="408.62,-94 263.62,-94 263.62,-74 408.62,-74 408.62,-94"/>
<text xml:space="preserve" text-anchor="middle" x="336.12" y="-80.5" font-family="Helvetica,sans-Serif" font-size="10.00">systems/death/src/Death.hpp</text>
</a>
</g>
</g>
<!-- Node23&#45;&gt;Node24 -->
<g id="edge34_Node000023_Node000024" class="edge">
<title>Node23&#45;&gt;Node24</title>
<g id="a_edge34_Node000023_Node000024"><a xlink:title=" ">
<path fill="none" stroke="#63b8ff" d="M243.65,-130.55C268.11,-118.5 297.88,-103.84 316.92,-94.46"/>
<polygon fill="#63b8ff" stroke="#63b8ff" points="242.32,-127.3 234.9,-134.86 245.42,-133.58 242.32,-127.3"/>
</a>
</g>
</g>
<!-- Node25 -->
<g id="Node000025" class="node">
<title>Node25</title>
<g id="a_Node000025"><a xlink:href="Death_8cpp.html" target="_top" xlink:title=" ">
<polygon fill="white" stroke="#666666" points="408.62,-26 263.62,-26 263.62,-6 408.62,-6 408.62,-26"/>
<text xml:space="preserve" text-anchor="middle" x="336.12" y="-12.5" font-family="Helvetica,sans-Serif" font-size="10.00">systems/death/src/Death.cpp</text>
</a>
</g>
</g>
<!-- Node24&#45;&gt;Node25 -->
<g id="edge35_Node000024_Node000025" class="edge">
<title>Node24&#45;&gt;Node25</title>
<g id="a_edge35_Node000024_Node000025"><a xlink:title=" ">
<path fill="none" stroke="#63b8ff" d="M336.12,-62.28C336.12,-50.27 336.12,-35.74 336.12,-26.44"/>
<polygon fill="#63b8ff" stroke="#63b8ff" points="332.63,-62.03 336.13,-72.03 339.63,-62.03 332.63,-62.03"/>
</a>
</g>
</g>
<!-- Node26&#45;&gt;Node4 -->
<g id="edge38_Node000026_Node000004" class="edge">
<title>Node26&#45;&gt;Node4</title>
<g id="a_edge38_Node000026_Node000004"><a xlink:title=" ">
<path fill="none" stroke="#63b8ff" d="M698.56,-135.85C1094.44,-91.29 1200.88,-148.95 1593.12,-100 1595.88,-99.66 1598.68,-99.26 1601.5,-98.83"/>
<polygon fill="#63b8ff" stroke="#63b8ff" points="698.41,-132.34 688.87,-136.95 699.2,-139.3 698.41,-132.34"/>
</a>
</g>
</g>
<!-- Node26&#45;&gt;Node8 -->
<g id="edge41_Node000026_Node000008" class="edge">
<title>Node26&#45;&gt;Node8</title>
<g id="a_edge41_Node000026_Node000008"><a xlink:title=" ">
<path fill="none" stroke="#63b8ff" d="M691.5,-132.79C734.63,-122.09 788.31,-108.77 828.03,-98.92"/>
<polygon fill="#63b8ff" stroke="#63b8ff" points="690.82,-129.36 681.96,-135.16 692.51,-136.15 690.82,-129.36"/>
</a>
</g>
</g>
<!-- Node26&#45;&gt;Node14 -->
<g id="edge39_Node000026_Node000014" class="edge">
<title>Node26&#45;&gt;Node14</title>
<g id="a_edge39_Node000026_Node000014"><a xlink:title=" ">
<path fill="none" stroke="#63b8ff" d="M658.82,-130.34C677.91,-120.65 700.27,-109.3 717.84,-100.38"/>
<polygon fill="#63b8ff" stroke="#63b8ff" points="657.29,-127.19 649.95,-134.84 660.45,-133.43 657.29,-127.19"/>
</a>
</g>
</g>
<!-- Node26&#45;&gt;Node24 -->
<g id="edge40_Node000026_Node000024" class="edge">
<title>Node26&#45;&gt;Node24</title>
<g id="a_edge40_Node000026_Node000024"><a xlink:title=" ">
<path fill="none" stroke="#63b8ff" d="M540.91,-132.93C487.76,-120.49 419.29,-104.46 376.55,-94.46"/>
<polygon fill="#63b8ff" stroke="#63b8ff" points="540,-136.31 550.53,-135.18 541.6,-129.49 540,-136.31"/>
</a>
</g>
</g>
<!-- Node29&#45;&gt;Node6 -->
<g id="edge46_Node000029_Node000006" class="edge">
<title>Node29&#45;&gt;Node6</title>
<g id="a_edge46_Node000029_Node000006"><a xlink:title=" ">
<path fill="none" stroke="#63b8ff" d="M1081.72,-135.67C1226.08,-110.65 1384.94,-96 1468.29,-89.3"/>
<polygon fill="#63b8ff" stroke="#63b8ff" points="1081.21,-132.21 1071.96,-137.39 1082.42,-139.1 1081.21,-132.21"/>
</a>
</g>
</g>
<!-- Node29&#45;&gt;Node8 -->
<g id="edge49_Node000029_Node000008" class="edge">
<title>Node29&#45;&gt;Node8</title>
<g id="a_edge49_Node000029_Node000008"><a xlink:title=" ">
<path fill="none" stroke="#63b8ff" d="M975.76,-130.47C956.17,-120.75 933.17,-109.34 915.11,-100.38"/>
<polygon fill="#63b8ff" stroke="#63b8ff" points="974.07,-133.54 984.59,-134.85 977.18,-127.27 974.07,-133.54"/>
</a>
</g>
</g>
<!-- Node29&#45;&gt;Node10 -->
<g id="edge50_Node000029_Node000010" class="edge">
<title>Node29&#45;&gt;Node10</title>
<g id="a_edge50_Node000029_Node000010"><a xlink:title=" ">
<path fill="none" stroke="#63b8ff" d="M1058.18,-130.47C1077.62,-120.75 1100.45,-109.34 1118.37,-100.38"/>
<polygon fill="#63b8ff" stroke="#63b8ff" points="1056.81,-127.25 1049.43,-134.85 1059.94,-133.51 1056.81,-127.25"/>
</a>
</g>
</g>
<!-- Node29&#45;&gt;Node14 -->
<g id="edge45_Node000029_Node000014" class="edge">
<title>Node29&#45;&gt;Node14</title>
<g id="a_edge45_Node000029_Node000014"><a xlink:title=" ">
<path fill="none" stroke="#63b8ff" d="M952.48,-135.14C909.55,-124.61 853.48,-110.85 810.94,-100.41"/>
<polygon fill="#63b8ff" stroke="#63b8ff" points="951.64,-138.54 962.19,-137.52 953.31,-131.74 951.64,-138.54"/>
</a>
</g>
</g>
<!-- Node29&#45;&gt;Node16 -->
<g id="edge47_Node000029_Node000016" class="edge">
<title>Node29&#45;&gt;Node16</title>
<g id="a_edge47_Node000029_Node000016"><a xlink:title=" ">
<path fill="none" stroke="#63b8ff" d="M952.49,-135.64C830.61,-113.81 796.12,-121.59 677.12,-100 673.98,-99.43 670.76,-98.8 667.51,-98.14"/>
<polygon fill="#63b8ff" stroke="#63b8ff" points="951.81,-139.08 962.28,-137.43 953.07,-132.19 951.81,-139.08"/>
</a>
</g>
</g>
<!-- Node29&#45;&gt;Node20 -->
<g id="edge48_Node000029_Node000020" class="edge">
<title>Node29&#45;&gt;Node20</title>
<g id="a_edge48_Node000029_Node000020"><a xlink:title=" ">
<path fill="none" stroke="#63b8ff" d="M1017.93,-124.31C1018.18,-116.12 1018.45,-107.38 1018.66,-100.22"/>
<polygon fill="#63b8ff" stroke="#63b8ff" points="1014.44,-124.08 1017.63,-134.18 1021.44,-124.29 1014.44,-124.08"/>
</a>
</g>
</g>
<!-- Node30&#45;&gt;Node6 -->
<g id="edge53_Node000030_Node000006" class="edge">
<title>Node30&#45;&gt;Node6</title>
<g id="a_edge53_Node000030_Node000006"><a xlink:title=" ">
<path fill="none" stroke="#63b8ff" d="M1217.17,-135.67C1310.87,-117.87 1408.16,-102.59 1468.35,-93.51"/>
<polygon fill="#63b8ff" stroke="#63b8ff" points="1216.71,-132.19 1207.54,-137.51 1218.02,-139.07 1216.71,-132.19"/>
</a>
</g>
</g>
<!-- Node30&#45;&gt;Node8 -->
<g id="edge57_Node000030_Node000008" class="edge">
<title>Node30&#45;&gt;Node8</title>
<g id="a_edge57_Node000030_Node000008"><a xlink:title=" ">
<path fill="none" stroke="#63b8ff" d="M1077.19,-133.45C1034.36,-122.7 980.27,-109.13 940.25,-99.08"/>
<polygon fill="#63b8ff" stroke="#63b8ff" points="1076.08,-136.78 1086.63,-135.82 1077.79,-129.99 1076.08,-136.78"/>
</a>
</g>
</g>
<!-- Node30&#45;&gt;Node10 -->
<g id="edge58_Node000030_Node000010" class="edge">
<title>Node30&#45;&gt;Node10</title>
<g id="a_edge58_Node000030_Node000010"><a xlink:title=" ">
<path fill="none" stroke="#63b8ff" d="M1147.93,-124.31C1148.18,-116.12 1148.45,-107.38 1148.66,-100.22"/>
<polygon fill="#63b8ff" stroke="#63b8ff" points="1144.44,-124.08 1147.63,-134.18 1151.44,-124.29 1144.44,-124.08"/>
</a>
</g>
</g>
<!-- Node30&#45;&gt;Node14 -->
<g id="edge52_Node000030_Node000014" class="edge">
<title>Node30&#45;&gt;Node14</title>
<g id="a_edge52_Node000030_Node000014"><a xlink:title=" ">
<path fill="none" stroke="#63b8ff" d="M1077.21,-135.75C962.39,-115.68 930.56,-119.46 819.12,-100 816.39,-99.52 813.61,-99.02 810.8,-98.49"/>
<polygon fill="#63b8ff" stroke="#63b8ff" points="1076.26,-139.14 1086.72,-137.44 1077.49,-132.25 1076.26,-139.14"/>
</a>
</g>
</g>
<!-- Node30&#45;&gt;Node16 -->
<g id="edge56_Node000030_Node000016" class="edge">
<title>Node30&#45;&gt;Node16</title>
<g id="a_edge56_Node000030_Node000016"><a xlink:title=" ">
<path fill="none" stroke="#63b8ff" d="M1076.95,-135.81C899.84,-109.42 850.59,-127.95 677.12,-100 673.97,-99.49 670.74,-98.92 667.49,-98.29"/>
<polygon fill="#63b8ff" stroke="#63b8ff" points="1076.33,-139.26 1086.74,-137.3 1077.38,-132.34 1076.33,-139.26"/>
</a>
</g>
</g>
<!-- Node31 -->
<g id="Node000031" class="node">
<title>Node31</title>
<g id="a_Node000031"><a xlink:href="Animation_8hpp.html" target="_top" xlink:title=" ">
<polygon fill="white" stroke="#666666" points="1333.62,-100 1218.62,-100 1218.62,-68 1333.62,-68 1333.62,-100"/>
<text xml:space="preserve" text-anchor="start" x="1226.62" y="-86.5" font-family="Helvetica,sans-Serif" font-size="10.00">systems/animation/src</text>
<text xml:space="preserve" text-anchor="middle" x="1276.12" y="-74.5" font-family="Helvetica,sans-Serif" font-size="10.00">/Animation.hpp</text>
</a>
</g>
</g>
<!-- Node30&#45;&gt;Node31 -->
<g id="edge54_Node000030_Node000031" class="edge">
<title>Node30&#45;&gt;Node31</title>
<g id="a_edge54_Node000030_Node000031"><a xlink:title=" ">
<path fill="none" stroke="#63b8ff" d="M1187.51,-130.34C1206.45,-120.65 1228.64,-109.3 1246.07,-100.38"/>
<polygon fill="#63b8ff" stroke="#63b8ff" points="1186.03,-127.17 1178.72,-134.84 1189.21,-133.4 1186.03,-127.17"/>
</a>
</g>
</g>
<!-- Node32 -->
<g id="Node000032" class="node">
<title>Node32</title>
<g id="a_Node000032"><a xlink:href="Animation_8cpp.html" target="_top" xlink:title=" ">
<polygon fill="white" stroke="#666666" points="1333.62,-32 1218.62,-32 1218.62,0 1333.62,0 1333.62,-32"/>
<text xml:space="preserve" text-anchor="start" x="1226.62" y="-18.5" font-family="Helvetica,sans-Serif" font-size="10.00">systems/animation/src</text>
<text xml:space="preserve" text-anchor="middle" x="1276.12" y="-6.5" font-family="Helvetica,sans-Serif" font-size="10.00">/Animation.cpp</text>
</a>
</g>
</g>
<!-- Node31&#45;&gt;Node32 -->
<g id="edge55_Node000031_Node000032" class="edge">
<title>Node31&#45;&gt;Node32</title>
<g id="a_edge55_Node000031_Node000032"><a xlink:title=" ">
<path fill="none" stroke="#63b8ff" d="M1276.12,-56.31C1276.12,-48.12 1276.12,-39.38 1276.12,-32.22"/>
<polygon fill="#63b8ff" stroke="#63b8ff" points="1272.63,-56.18 1276.13,-66.18 1279.63,-56.18 1272.63,-56.18"/>
</a>
</g>
</g>
<!-- Node35&#45;&gt;Node6 -->
<g id="edge63_Node000035_Node000006" class="edge">
<title>Node35&#45;&gt;Node6</title>
<g id="a_edge63_Node000035_Node000006"><a xlink:title=" ">
<path fill="none" stroke="#63b8ff" d="M1527.91,-124.31C1527.54,-116.12 1527.14,-107.38 1526.82,-100.22"/>
<polygon fill="#63b8ff" stroke="#63b8ff" points="1524.41,-124.35 1528.36,-134.18 1531.4,-124.03 1524.41,-124.35"/>
</a>
</g>
</g>
<!-- Node35&#45;&gt;Node8 -->
<g id="edge64_Node000035_Node000008" class="edge">
<title>Node35&#45;&gt;Node8</title>
<g id="a_edge64_Node000035_Node000008"><a xlink:title=" ">
<path fill="none" stroke="#63b8ff" d="M1464.49,-135.78C1237.03,-101.8 1173.7,-133.5 949.12,-100 946.15,-99.56 943.1,-99.05 940.04,-98.49"/>
<polygon fill="#63b8ff" stroke="#63b8ff" points="1463.9,-139.22 1474.31,-137.27 1464.95,-132.3 1463.9,-139.22"/>
</a>
</g>
</g>
<!-- Node35&#45;&gt;Node10 -->
<g id="edge65_Node000035_Node000010" class="edge">
<title>Node35&#45;&gt;Node10</title>
<g id="a_edge65_Node000035_Node000010"><a xlink:title=" ">
<path fill="none" stroke="#63b8ff" d="M1464.59,-135.64C1351.84,-114.85 1319.84,-121.12 1210.12,-100 1207.02,-99.4 1203.83,-98.75 1200.63,-98.06"/>
<polygon fill="#63b8ff" stroke="#63b8ff" points="1463.8,-139.05 1474.28,-137.46 1465.09,-132.17 1463.8,-139.05"/>
</a>
</g>
</g>
<!-- Node35&#45;&gt;Node14 -->
<g id="edge62_Node000035_Node000014" class="edge">
<title>Node35&#45;&gt;Node14</title>
<g id="a_edge62_Node000035_Node000014"><a xlink:title=" ">
<path fill="none" stroke="#63b8ff" d="M1464.72,-135.83C1179.79,-95.02 1101.44,-137.44 819.12,-100 816.38,-99.64 813.58,-99.22 810.76,-98.77"/>
<polygon fill="#63b8ff" stroke="#63b8ff" points="1463.91,-139.25 1474.31,-137.23 1464.92,-132.33 1463.91,-139.25"/>
</a>
</g>
</g>
</g>
</svg>
