<?xml version="1.0" encoding="UTF-8" standalone="no"?>
<!DOCTYPE svg PUBLIC "-//W3C//DTD SVG 1.1//EN"
 "http://www.w3.org/Graphics/SVG/1.1/DTD/svg11.dtd">
<!-- Generated by graphviz version 14.0.2 (0)
 -->
<!-- Title: ecs/ComponentRegistry.hpp Pages: 1 -->
<svg width="1222pt" height="276pt"
 viewBox="0.00 0.00 1222.00 276.00" xmlns="http://www.w3.org/2000/svg" xmlns:xlink="http://www.w3.org/1999/xlink">
<g id="graph0" class="graph" transform="scale(1 1) rotate(0) translate(4 272)">
<title>ecs/ComponentRegistry.hpp</title>
<!-- Node1 -->
<g id="Node000001" class="node">
<title>Node1</title>
<g id="a_Node000001"><a xlink:title=" ">
<polygon fill="#999999" stroke="#666666" points="704.38,-268 564.62,-268 564.62,-248 704.38,-248 704.38,-268"/>
<text xml:space="preserve" text-anchor="middle" x="634.5" y="-254.5" font-family="Helvetica,sans-Serif" font-size="10.00">ecs/ComponentRegistry.hpp</text>
</a>
</g>
</g>
<!-- Node2 -->
<g id="Node000002" class="node">
<title>Node2</title>
<g id="a_Node000002"><a xlink:href="Registry_8hpp.html" target="_top" xlink:title=" ">
<polygon fill="white" stroke="#666666" points="643.25,-156 553.75,-156 553.75,-136 643.25,-136 643.25,-156"/>
<text xml:space="preserve" text-anchor="middle" x="598.5" y="-142.5" font-family="Helvetica,sans-Serif" font-size="10.00">ecs/Registry.hpp</text>
</a>
</g>
</g>
<!-- Node1&#45;&gt;Node2 -->
<g id="edge1_Node000001_Node000002" class="edge">
<title>Node1&#45;&gt;Node2</title>
<g id="a_edge1_Node000001_Node000002"><a xlink:title=" ">
<path fill="none" stroke="#63b8ff" d="M626.63,-237.16C623.64,-229.37 620.28,-220.31 617.5,-212 610.94,-192.38 604.42,-169.01 600.98,-156.33"/>
<polygon fill="#63b8ff" stroke="#63b8ff" points="623.32,-238.32 630.22,-246.36 629.84,-235.77 623.32,-238.32"/>
</a>
</g>
</g>
<!-- Node21 -->
<g id="Node000021" class="node">
<title>Node21</title>
<g id="a_Node000021"><a xlink:href="System_8hpp.html" target="_top" xlink:title=" ">
<polygon fill="white" stroke="#666666" points="714.12,-212 626.88,-212 626.88,-192 714.12,-192 714.12,-212"/>
<text xml:space="preserve" text-anchor="middle" x="670.5" y="-198.5" font-family="Helvetica,sans-Serif" font-size="10.00">ecs/System.hpp</text>
</a>
</g>
</g>
<!-- Node1&#45;&gt;Node21 -->
<g id="edge20_Node000001_Node000021" class="edge">
<title>Node1&#45;&gt;Node21</title>
<g id="a_edge20_Node000001_Node000021"><a xlink:title=" ">
<path fill="none" stroke="#63b8ff" d="M647.07,-238.15C652.9,-229.4 659.57,-219.39 664.3,-212.3"/>
<polygon fill="#63b8ff" stroke="#63b8ff" points="644.25,-236.07 641.61,-246.33 650.07,-239.96 644.25,-236.07"/>
</a>
</g>
</g>
<!-- Node3 -->
<g id="Node000003" class="node">
<title>Node3</title>
<g id="a_Node000003"><a xlink:href="FPApplyGravity_8hpp.html" target="_top" xlink:title=" ">
<polygon fill="white" stroke="#666666" points="937.88,-100 813.12,-100 813.12,-68 937.88,-68 937.88,-100"/>
<text xml:space="preserve" text-anchor="start" x="821.12" y="-86.5" font-family="Helvetica,sans-Serif" font-size="10.00">systems/FPApplyGravity</text>
<text xml:space="preserve" text-anchor="middle" x="875.5" y="-74.5" font-family="Helvetica,sans-Serif" font-size="10.00">/src/FPApplyGravity.hpp</text>
</a>
</g>
</g>
<!-- Node2&#45;&gt;Node3 -->
<g id="edge2_Node000002_Node000003" class="edge">
<title>Node2&#45;&gt;Node3</title>
<g id="a_edge2_Node000002_Node000003"><a xlink:title=" ">
<path fill="none" stroke="#63b8ff" d="M653.32,-133.13C699.27,-123.17 764.87,-108.96 812.87,-98.57"/>
<polygon fill="#63b8ff" stroke="#63b8ff" points="652.6,-129.7 643.57,-135.24 654.08,-136.54 652.6,-129.7"/>
</a>
</g>
</g>
<!-- Node5 -->
<g id="Node000005" class="node">
<title>Node5</title>
<g id="a_Node000005"><a xlink:href="FPInputHandler_8hpp.html" target="_top" xlink:title=" ">
<polygon fill="white" stroke="#666666" points="1080.88,-100 956.12,-100 956.12,-68 1080.88,-68 1080.88,-100"/>
<text xml:space="preserve" text-anchor="start" x="964.12" y="-86.5" font-family="Helvetica,sans-Serif" font-size="10.00">systems/FPInputHandler</text>
<text xml:space="preserve" text-anchor="middle" x="1018.5" y="-74.5" font-family="Helvetica,sans-Serif" font-size="10.00">/src/FPInputHandler.hpp</text>
</a>
</g>
</g>
<!-- Node2&#45;&gt;Node5 -->
<g id="edge4_Node000002_Node000005" class="edge">
<title>Node2&#45;&gt;Node5</title>
<g id="a_edge4_Node000002_Node000005"><a xlink:title=" ">
<path fill="none" stroke="#63b8ff" d="M654.74,-139.07C723.71,-131.49 844.07,-117.27 946.5,-100 949.52,-99.49 952.61,-98.94 955.73,-98.37"/>
<polygon fill="#63b8ff" stroke="#63b8ff" points="654.78,-135.55 645.22,-140.11 655.54,-142.51 654.78,-135.55"/>
</a>
</g>
</g>
<!-- Node7 -->
<g id="Node000007" class="node">
<title>Node7</title>
<g id="a_Node000007"><a xlink:href="FPMotion_8hpp.html" target="_top" xlink:title=" ">
<polygon fill="white" stroke="#666666" points="1214,-100 1099,-100 1099,-68 1214,-68 1214,-100"/>
<text xml:space="preserve" text-anchor="start" x="1107" y="-86.5" font-family="Helvetica,sans-Serif" font-size="10.00">systems/FPMotion/src</text>
<text xml:space="preserve" text-anchor="middle" x="1156.5" y="-74.5" font-family="Helvetica,sans-Serif" font-size="10.00">/FPMotion.hpp</text>
</a>
</g>
</g>
<!-- Node2&#45;&gt;Node7 -->
<g id="edge6_Node000002_Node000007" class="edge">
<title>Node2&#45;&gt;Node7</title>
<g id="a_edge6_Node000002_Node000007"><a xlink:title=" ">
<path fill="none" stroke="#63b8ff" d="M654.91,-142.2C746.52,-137.12 933.15,-124.56 1089.5,-100 1092.56,-99.52 1095.69,-98.98 1098.85,-98.4"/>
<polygon fill="#63b8ff" stroke="#63b8ff" points="654.73,-138.7 644.93,-142.74 655.11,-145.69 654.73,-138.7"/>
</a>
</g>
</g>
<!-- Node9 -->
<g id="Node000009" class="node">
<title>Node9</title>
<g id="a_Node000009"><a xlink:href="Animation_8hpp.html" target="_top" xlink:title=" ">
<polygon fill="white" stroke="#666666" points="115,-100 0,-100 0,-68 115,-68 115,-100"/>
<text xml:space="preserve" text-anchor="start" x="8" y="-86.5" font-family="Helvetica,sans-Serif" font-size="10.00">systems/animation/src</text>
<text xml:space="preserve" text-anchor="middle" x="57.5" y="-74.5" font-family="Helvetica,sans-Serif" font-size="10.00">/Animation.hpp</text>
</a>
</g>
</g>
<!-- Node2&#45;&gt;Node9 -->
<g id="edge8_Node000002_Node000009" class="edge">
<title>Node2&#45;&gt;Node9</title>
<g id="a_edge8_Node000002_Node000009"><a xlink:title=" ">
<path fill="none" stroke="#63b8ff" d="M542.04,-141.94C452.91,-136.59 274.32,-123.79 124.5,-100 121.44,-99.51 118.31,-98.97 115.16,-98.39"/>
<polygon fill="#63b8ff" stroke="#63b8ff" points="541.8,-145.43 551.99,-142.53 542.21,-138.44 541.8,-145.43"/>
</a>
</g>
</g>
<!-- Node11 -->
<g id="Node000011" class="node">
<title>Node11</title>
<g id="a_Node000011"><a xlink:href="Collision_8hpp.html" target="_top" xlink:title=" ">
<polygon fill="white" stroke="#666666" points="241.62,-100 133.38,-100 133.38,-68 241.62,-68 241.62,-100"/>
<text xml:space="preserve" text-anchor="start" x="141.38" y="-86.5" font-family="Helvetica,sans-Serif" font-size="10.00">systems/collision/src</text>
<text xml:space="preserve" text-anchor="middle" x="187.5" y="-74.5" font-family="Helvetica,sans-Serif" font-size="10.00">/Collision.hpp</text>
</a>
</g>
</g>
<!-- Node2&#45;&gt;Node11 -->
<g id="edge10_Node000002_Node000011" class="edge">
<title>Node2&#45;&gt;Node11</title>
<g id="a_edge10_Node000002_Node000011"><a xlink:title=" ">
<path fill="none" stroke="#63b8ff" d="M541.92,-139.44C473.01,-132.26 353.2,-118.46 251.5,-100 248.36,-99.43 245.13,-98.8 241.89,-98.14"/>
<polygon fill="#63b8ff" stroke="#63b8ff" points="541.54,-142.92 551.85,-140.47 542.26,-135.96 541.54,-142.92"/>
</a>
</g>
</g>
<!-- Node13 -->
<g id="Node000013" class="node">
<title>Node13</title>
<g id="a_Node000013"><a xlink:href="Death_8hpp.html" target="_top" xlink:title=" ">
<polygon fill="white" stroke="#666666" points="405,-94 260,-94 260,-74 405,-74 405,-94"/>
<text xml:space="preserve" text-anchor="middle" x="332.5" y="-80.5" font-family="Helvetica,sans-Serif" font-size="10.00">systems/death/src/Death.hpp</text>
</a>
</g>
</g>
<!-- Node2&#45;&gt;Node13 -->
<g id="edge12_Node000002_Node000013" class="edge">
<title>Node2&#45;&gt;Node13</title>
<g id="a_edge12_Node000002_Node000013"><a xlink:title=" ">
<path fill="none" stroke="#63b8ff" d="M545.69,-133.09C495.46,-121.76 420.88,-104.93 374.55,-94.48"/>
<polygon fill="#63b8ff" stroke="#63b8ff" points="544.64,-136.44 555.17,-135.23 546.18,-129.61 544.64,-136.44"/>
</a>
</g>
</g>
<!-- Node15 -->
<g id="Node000015" class="node">
<title>Node15</title>
<g id="a_Node000015"><a xlink:href="DomainHandler_8hpp.html" target="_top" xlink:title=" ">
<polygon fill="white" stroke="#666666" points="544.38,-100 422.62,-100 422.62,-68 544.38,-68 544.38,-100"/>
<text xml:space="preserve" text-anchor="start" x="430.62" y="-86.5" font-family="Helvetica,sans-Serif" font-size="10.00">systems/domainHandler</text>
<text xml:space="preserve" text-anchor="middle" x="483.5" y="-74.5" font-family="Helvetica,sans-Serif" font-size="10.00">/src/DomainHandler.hpp</text>
</a>
</g>
</g>
<!-- Node2&#45;&gt;Node15 -->
<g id="edge14_Node000002_Node000015" class="edge">
<title>Node2&#45;&gt;Node15</title>
<g id="a_edge14_Node000002_Node000015"><a xlink:title=" ">
<path fill="none" stroke="#63b8ff" d="M570.41,-130.34C552.99,-121.25 530.64,-109.59 512.97,-100.37"/>
<polygon fill="#63b8ff" stroke="#63b8ff" points="568.7,-133.4 579.19,-134.92 571.94,-127.2 568.7,-133.4"/>
</a>
</g>
</g>
<!-- Node17 -->
<g id="Node000017" class="node">
<title>Node17</title>
<g id="a_Node000017"><a xlink:href="InputHandler_8hpp.html" target="_top" xlink:title=" ">
<polygon fill="white" stroke="#666666" points="674.12,-100 562.88,-100 562.88,-68 674.12,-68 674.12,-100"/>
<text xml:space="preserve" text-anchor="start" x="570.88" y="-86.5" font-family="Helvetica,sans-Serif" font-size="10.00">systems/inputHandler</text>
<text xml:space="preserve" text-anchor="middle" x="618.5" y="-74.5" font-family="Helvetica,sans-Serif" font-size="10.00">/src/InputHandler.hpp</text>
</a>
</g>
</g>
<!-- Node2&#45;&gt;Node17 -->
<g id="edge16_Node000002_Node000017" class="edge">
<title>Node2&#45;&gt;Node17</title>
<g id="a_edge16_Node000002_Node000017"><a xlink:title=" ">
<path fill="none" stroke="#63b8ff" d="M605.21,-124.87C607.9,-116.79 610.95,-107.64 613.45,-100.14"/>
<polygon fill="#63b8ff" stroke="#63b8ff" points="601.95,-123.6 602.1,-134.19 608.59,-125.81 601.95,-123.6"/>
</a>
</g>
</g>
<!-- Node19 -->
<g id="Node000019" class="node">
<title>Node19</title>
<g id="a_Node000019"><a xlink:href="Motion_8hpp.html" target="_top" xlink:title=" ">
<polygon fill="white" stroke="#666666" points="794.62,-100 692.38,-100 692.38,-68 794.62,-68 794.62,-100"/>
<text xml:space="preserve" text-anchor="start" x="700.38" y="-86.5" font-family="Helvetica,sans-Serif" font-size="10.00">systems/motion/src</text>
<text xml:space="preserve" text-anchor="middle" x="743.5" y="-74.5" font-family="Helvetica,sans-Serif" font-size="10.00">/Motion.hpp</text>
</a>
</g>
</g>
<!-- Node2&#45;&gt;Node19 -->
<g id="edge18_Node000002_Node000019" class="edge">
<title>Node2&#45;&gt;Node19</title>
<g id="a_edge18_Node000002_Node000019"><a xlink:title=" ">
<path fill="none" stroke="#63b8ff" d="M631.73,-131.25C653.89,-122.08 683.08,-110 706.06,-100.49"/>
<polygon fill="#63b8ff" stroke="#63b8ff" points="630.46,-127.99 622.55,-135.05 633.13,-134.46 630.46,-127.99"/>
</a>
</g>
</g>
<!-- Node4 -->
<g id="Node000004" class="node">
<title>Node4</title>
<g id="a_Node000004"><a xlink:href="FPApplyGravity_8cpp.html" target="_top" xlink:title=" ">
<polygon fill="white" stroke="#666666" points="937.88,-32 813.12,-32 813.12,0 937.88,0 937.88,-32"/>
<text xml:space="preserve" text-anchor="start" x="821.12" y="-18.5" font-family="Helvetica,sans-Serif" font-size="10.00">systems/FPApplyGravity</text>
<text xml:space="preserve" text-anchor="middle" x="875.5" y="-6.5" font-family="Helvetica,sans-Serif" font-size="10.00">/src/FPApplyGravity.cpp</text>
</a>
</g>
</g>
<!-- Node3&#45;&gt;Node4 -->
<g id="edge3_Node000003_Node000004" class="edge">
<title>Node3&#45;&gt;Node4</title>
<g id="a_edge3_Node000003_Node000004"><a xlink:title=" ">
<path fill="none" stroke="#63b8ff" d="M875.5,-56.31C875.5,-48.12 875.5,-39.38 875.5,-32.22"/>
<polygon fill="#63b8ff" stroke="#63b8ff" points="872,-56.18 875.5,-66.18 879,-56.18 872,-56.18"/>
</a>
</g>
</g>
<!-- Node6 -->
<g id="Node000006" class="node">
<title>Node6</title>
<g id="a_Node000006"><a xlink:href="FPInputHandler_8cpp.html" target="_top" xlink:title=" ">
<polygon fill="white" stroke="#666666" points="1080.88,-32 956.12,-32 956.12,0 1080.88,0 1080.88,-32"/>
<text xml:space="preserve" text-anchor="start" x="964.12" y="-18.5" font-family="Helvetica,sans-Serif" font-size="10.00">systems/FPInputHandler</text>
<text xml:space="preserve" text-anchor="middle" x="1018.5" y="-6.5" font-family="Helvetica,sans-Serif" font-size="10.00">/src/FPInputHandler.cpp</text>
</a>
</g>
</g>
<!-- Node5&#45;&gt;Node6 -->
<g id="edge5_Node000005_Node000006" class="edge">
<title>Node5&#45;&gt;Node6</title>
<g id="a_edge5_Node000005_Node000006"><a xlink:title=" ">
<path fill="none" stroke="#63b8ff" d="M1018.5,-56.31C1018.5,-48.12 1018.5,-39.38 1018.5,-32.22"/>
<polygon fill="#63b8ff" stroke="#63b8ff" points="1015,-56.18 1018.5,-66.18 1022,-56.18 1015,-56.18"/>
</a>
</g>
</g>
<!-- Node8 -->
<g id="Node000008" class="node">
<title>Node8</title>
<g id="a_Node000008"><a xlink:href="FPMotion_8cpp.html" target="_top" xlink:title=" ">
<polygon fill="white" stroke="#666666" points="1214,-32 1099,-32 1099,0 1214,0 1214,-32"/>
<text xml:space="preserve" text-anchor="start" x="1107" y="-18.5" font-family="Helvetica,sans-Serif" font-size="10.00">systems/FPMotion/src</text>
<text xml:space="preserve" text-anchor="middle" x="1156.5" y="-6.5" font-family="Helvetica,sans-Serif" font-size="10.00">/FPMotion.cpp</text>
</a>
</g>
</g>
<!-- Node7&#45;&gt;Node8 -->
<g id="edge7_Node000007_Node000008" class="edge">
<title>Node7&#45;&gt;Node8</title>
<g id="a_edge7_Node000007_Node000008"><a xlink:title=" ">
<path fill="none" stroke="#63b8ff" d="M1156.5,-56.31C1156.5,-48.12 1156.5,-39.38 1156.5,-32.22"/>
<polygon fill="#63b8ff" stroke="#63b8ff" points="1153,-56.18 1156.5,-66.18 1160,-56.18 1153,-56.18"/>
</a>
</g>
</g>
<!-- Node10 -->
<g id="Node000010" class="node">
<title>Node10</title>
<g id="a_Node000010"><a xlink:href="Animation_8cpp.html" target="_top" xlink:title=" ">
<polygon fill="white" stroke="#666666" points="115,-32 0,-32 0,0 115,0 115,-32"/>
<text xml:space="preserve" text-anchor="start" x="8" y="-18.5" font-family="Helvetica,sans-Serif" font-size="10.00">systems/animation/src</text>
<text xml:space="preserve" text-anchor="middle" x="57.5" y="-6.5" font-family="Helvetica,sans-Serif" font-size="10.00">/Animation.cpp</text>
</a>
</g>
</g>
<!-- Node9&#45;&gt;Node10 -->
<g id="edge9_Node000009_Node000010" class="edge">
<title>Node9&#45;&gt;Node10</title>
<g id="a_edge9_Node000009_Node000010"><a xlink:title=" ">
<path fill="none" stroke="#63b8ff" d="M57.5,-56.31C57.5,-48.12 57.5,-39.38 57.5,-32.22"/>
<polygon fill="#63b8ff" stroke="#63b8ff" points="54,-56.18 57.5,-66.18 61,-56.18 54,-56.18"/>
</a>
</g>
</g>
<!-- Node12 -->
<g id="Node000012" class="node">
<title>Node12</title>
<g id="a_Node000012"><a xlink:href="Collision_8cpp.html" target="_top" xlink:title=" ">
<polygon fill="white" stroke="#666666" points="241.62,-32 133.38,-32 133.38,0 241.62,0 241.62,-32"/>
<text xml:space="preserve" text-anchor="start" x="141.38" y="-18.5" font-family="Helvetica,sans-Serif" font-size="10.00">systems/collision/src</text>
<text xml:space="preserve" text-anchor="middle" x="187.5" y="-6.5" font-family="Helvetica,sans-Serif" font-size="10.00">/Collision.cpp</text>
</a>
</g>
</g>
<!-- Node11&#45;&gt;Node12 -->
<g id="edge11_Node000011_Node000012" class="edge">
<title>Node11&#45;&gt;Node12</title>
<g id="a_edge11_Node000011_Node000012"><a xlink:title=" ">
<path fill="none" stroke="#63b8ff" d="M187.5,-56.31C187.5,-48.12 187.5,-39.38 187.5,-32.22"/>
<polygon fill="#63b8ff" stroke="#63b8ff" points="184,-56.18 187.5,-66.18 191,-56.18 184,-56.18"/>
</a>
</g>
</g>
<!-- Node14 -->
<g id="Node000014" class="node">
<title>Node14</title>
<g id="a_Node000014"><a xlink:href="Death_8cpp.html" target="_top" xlink:title=" ">
<polygon fill="white" stroke="#666666" points="405,-26 260,-26 260,-6 405,-6 405,-26"/>
<text xml:space="preserve" text-anchor="middle" x="332.5" y="-12.5" font-family="Helvetica,sans-Serif" font-size="10.00">systems/death/src/Death.cpp</text>
</a>
</g>
</g>
<!-- Node13&#45;&gt;Node14 -->
<g id="edge13_Node000013_Node000014" class="edge">
<title>Node13&#45;&gt;Node14</title>
<g id="a_edge13_Node000013_Node000014"><a xlink:title=" ">
<path fill="none" stroke="#63b8ff" d="M332.5,-62.28C332.5,-50.27 332.5,-35.74 332.5,-26.44"/>
<polygon fill="#63b8ff" stroke="#63b8ff" points="329,-62.03 332.5,-72.03 336,-62.03 329,-62.03"/>
</a>
</g>
</g>
<!-- Node16 -->
<g id="Node000016" class="node">
<title>Node16</title>
<g id="a_Node000016"><a xlink:href="DomainHandler_8cpp.html" target="_top" xlink:title=" ">
<polygon fill="white" stroke="#666666" points="544.38,-32 422.62,-32 422.62,0 544.38,0 544.38,-32"/>
<text xml:space="preserve" text-anchor="start" x="430.62" y="-18.5" font-family="Helvetica,sans-Serif" font-size="10.00">systems/domainHandler</text>
<text xml:space="preserve" text-anchor="middle" x="483.5" y="-6.5" font-family="Helvetica,sans-Serif" font-size="10.00">/src/DomainHandler.cpp</text>
</a>
</g>
</g>
<!-- Node15&#45;&gt;Node16 -->
<g id="edge15_Node000015_Node000016" class="edge">
<title>Node15&#45;&gt;Node16</title>
<g id="a_edge15_Node000015_Node000016"><a xlink:title=" ">
<path fill="none" stroke="#63b8ff" d="M483.5,-56.31C483.5,-48.12 483.5,-39.38 483.5,-32.22"/>
<polygon fill="#63b8ff" stroke="#63b8ff" points="480,-56.18 483.5,-66.18 487,-56.18 480,-56.18"/>
</a>
</g>
</g>
<!-- Node18 -->
<g id="Node000018" class="node">
<title>Node18</title>
<g id="a_Node000018"><a xlink:href="InputHandler_8cpp.html" target="_top" xlink:title=" ">
<polygon fill="white" stroke="#666666" points="674.12,-32 562.88,-32 562.88,0 674.12,0 674.12,-32"/>
<text xml:space="preserve" text-anchor="start" x="570.88" y="-18.5" font-family="Helvetica,sans-Serif" font-size="10.00">systems/inputHandler</text>
<text xml:space="preserve" text-anchor="middle" x="618.5" y="-6.5" font-family="Helvetica,sans-Serif" font-size="10.00">/src/InputHandler.cpp</text>
</a>
</g>
</g>
<!-- Node17&#45;&gt;Node18 -->
<g id="edge17_Node000017_Node000018" class="edge">
<title>Node17&#45;&gt;Node18</title>
<g id="a_edge17_Node000017_Node000018"><a xlink:title=" ">
<path fill="none" stroke="#63b8ff" d="M618.5,-56.31C618.5,-48.12 618.5,-39.38 618.5,-32.22"/>
<polygon fill="#63b8ff" stroke="#63b8ff" points="615,-56.18 618.5,-66.18 622,-56.18 615,-56.18"/>
</a>
</g>
</g>
<!-- Node20 -->
<g id="Node000020" class="node">
<title>Node20</title>
<g id="a_Node000020"><a xlink:href="Motion_8cpp.html" target="_top" xlink:title=" ">
<polygon fill="white" stroke="#666666" points="794.62,-32 692.38,-32 692.38,0 794.62,0 794.62,-32"/>
<text xml:space="preserve" text-anchor="start" x="700.38" y="-18.5" font-family="Helvetica,sans-Serif" font-size="10.00">systems/motion/src</text>
<text xml:space="preserve" text-anchor="middle" x="743.5" y="-6.5" font-family="Helvetica,sans-Serif" font-size="10.00">/Motion.cpp</text>
</a>
</g>
</g>
<!-- Node19&#45;&gt;Node20 -->
<g id="edge19_Node000019_Node000020" class="edge">
<title>Node19&#45;&gt;Node20</title>
<g id="a_edge19_Node000019_Node000020"><a xlink:title=" ">
<path fill="none" stroke="#63b8ff" d="M743.5,-56.31C743.5,-48.12 743.5,-39.38 743.5,-32.22"/>
<polygon fill="#63b8ff" stroke="#63b8ff" points="740,-56.18 743.5,-66.18 747,-56.18 740,-56.18"/>
</a>
</g>
</g>
<!-- Node21&#45;&gt;Node2 -->
<g id="edge21_Node000021_Node000002" class="edge">
<title>Node21&#45;&gt;Node2</title>
<g id="a_edge21_Node000021_Node000002"><a xlink:title=" ">
<path fill="none" stroke="#63b8ff" d="M649.11,-184.95C636.65,-175.61 621.39,-164.16 610.9,-156.3"/>
<polygon fill="#63b8ff" stroke="#63b8ff" points="646.65,-187.49 656.75,-190.69 650.85,-181.89 646.65,-187.49"/>
</a>
</g>
</g>
<!-- Node21&#45;&gt;Node3 -->
<g id="edge22_Node000021_Node000003" class="edge">
<title>Node21&#45;&gt;Node3</title>
<g id="a_edge22_Node000021_Node000003"><a xlink:title=" ">
<path fill="none" stroke="#63b8ff" d="M697.14,-185.93C736.24,-163.8 808.81,-122.73 848.26,-100.41"/>
<polygon fill="#63b8ff" stroke="#63b8ff" points="695.57,-182.79 688.59,-190.76 699.02,-188.88 695.57,-182.79"/>
</a>
</g>
</g>
<!-- Node21&#45;&gt;Node5 -->
<g id="edge23_Node000021_Node000005" class="edge">
<title>Node21&#45;&gt;Node5</title>
<g id="a_edge23_Node000021_Node000005"><a xlink:title=" ">
<path fill="none" stroke="#63b8ff" d="M709.53,-187.99C774.17,-166.44 903.16,-123.45 972.26,-100.41"/>
<polygon fill="#63b8ff" stroke="#63b8ff" points="708.79,-184.55 700.41,-191.03 711.01,-191.19 708.79,-184.55"/>
</a>
</g>
</g>
<!-- Node21&#45;&gt;Node7 -->
<g id="edge24_Node000021_Node000007" class="edge">
<title>Node21&#45;&gt;Node7</title>
<g id="a_edge24_Node000021_Node000007"><a xlink:title=" ">
<path fill="none" stroke="#63b8ff" d="M721.4,-188.85C812.54,-167.1 1002.98,-121.64 1098.81,-98.77"/>
<polygon fill="#63b8ff" stroke="#63b8ff" points="720.66,-185.43 711.74,-191.16 722.28,-192.24 720.66,-185.43"/>
</a>
</g>
</g>
<!-- Node21&#45;&gt;Node9 -->
<g id="edge25_Node000021_Node000009" class="edge">
<title>Node21&#45;&gt;Node9</title>
<g id="a_edge25_Node000021_Node000009"><a xlink:title=" ">
<path fill="none" stroke="#63b8ff" d="M615.52,-193.34C557.63,-185.04 463.92,-170.99 383.5,-156 267.72,-134.43 239.52,-125.31 124.5,-100 121.47,-99.33 118.37,-98.65 115.24,-97.95"/>
<polygon fill="#63b8ff" stroke="#63b8ff" points="614.71,-196.76 625.11,-194.7 615.7,-189.83 614.71,-196.76"/>
</a>
</g>
</g>
<!-- Node21&#45;&gt;Node11 -->
<g id="edge26_Node000021_Node000011" class="edge">
<title>Node21&#45;&gt;Node11</title>
<g id="a_edge26_Node000021_Node000011"><a xlink:title=" ">
<path fill="none" stroke="#63b8ff" d="M615.33,-189.6C573.56,-180.82 514.8,-168.17 463.5,-156 386.35,-137.7 297.64,-114.49 242.07,-99.69"/>
<polygon fill="#63b8ff" stroke="#63b8ff" points="614.39,-192.98 624.89,-191.6 615.82,-186.13 614.39,-192.98"/>
</a>
</g>
</g>
<!-- Node21&#45;&gt;Node13 -->
<g id="edge27_Node000021_Node000013" class="edge">
<title>Node21&#45;&gt;Node13</title>
<g id="a_edge27_Node000021_Node000013"><a xlink:title=" ">
<path fill="none" stroke="#63b8ff" d="M625.08,-188.4C594.96,-179.82 554.65,-167.89 519.5,-156 459.8,-135.8 390.75,-108.55 355.62,-94.41"/>
<polygon fill="#63b8ff" stroke="#63b8ff" points="624.06,-191.75 634.63,-191.11 625.97,-185.02 624.06,-191.75"/>
</a>
</g>
</g>
<!-- Node21&#45;&gt;Node15 -->
<g id="edge28_Node000021_Node000015" class="edge">
<title>Node21&#45;&gt;Node15</title>
<g id="a_edge28_Node000021_Node000015"><a xlink:title=" ">
<path fill="none" stroke="#63b8ff" d="M616.51,-188.41C593.05,-181.31 566.07,-170.82 544.5,-156 522.67,-141 503.91,-116.32 493.16,-100.36"/>
<polygon fill="#63b8ff" stroke="#63b8ff" points="615.33,-191.71 625.9,-191.12 617.26,-184.99 615.33,-191.71"/>
</a>
</g>
</g>
<!-- Node21&#45;&gt;Node17 -->
<g id="edge29_Node000021_Node000017" class="edge">
<title>Node21&#45;&gt;Node17</title>
<g id="a_edge29_Node000021_Node000017"><a xlink:title=" ">
<path fill="none" stroke="#63b8ff" d="M666.64,-180.77C663.71,-167.64 659.07,-150.36 652.5,-136 646.66,-123.23 637.8,-110.07 630.59,-100.31"/>
<polygon fill="#63b8ff" stroke="#63b8ff" points="663.17,-181.28 668.62,-190.37 670.03,-179.87 663.17,-181.28"/>
</a>
</g>
</g>
<!-- Node21&#45;&gt;Node19 -->
<g id="edge30_Node000021_Node000019" class="edge">
<title>Node21&#45;&gt;Node19</title>
<g id="a_edge30_Node000021_Node000019"><a xlink:title=" ">
<path fill="none" stroke="#63b8ff" d="M682.5,-181.92C696.85,-159.13 720.56,-121.45 733.8,-100.41"/>
<polygon fill="#63b8ff" stroke="#63b8ff" points="679.64,-179.9 677.28,-190.23 685.57,-183.63 679.64,-179.9"/>
</a>
</g>
</g>
</g>
</svg>
