<?xml version="1.0" encoding="UTF-8" standalone="no"?>
<!DOCTYPE svg PUBLIC "-//W3C//DTD SVG 1.1//EN"
 "http://www.w3.org/Graphics/SVG/1.1/DTD/svg11.dtd">
<!-- Generated by graphviz version 14.0.2 (0)
 -->
<!-- Title: ecs/Component.hpp Pages: 1 -->
<svg width="2256pt" height="232pt"
 viewBox="0.00 0.00 2256.00 232.00" xmlns="http://www.w3.org/2000/svg" xmlns:xlink="http://www.w3.org/1999/xlink">
<g id="graph0" class="graph" transform="scale(1 1) rotate(0) translate(4 228)">
<title>ecs/Component.hpp</title>
<!-- Node1 -->
<g id="Node000001" class="node">
<title>Node1</title>
<g id="a_Node000001"><a xlink:title=" ">
<polygon fill="#999999" stroke="#666666" points="1191,-224 1087.25,-224 1087.25,-204 1191,-204 1191,-224"/>
<text xml:space="preserve" text-anchor="middle" x="1139.12" y="-210.5" font-family="Helvetica,sans-Serif" font-size="10.00">ecs/Component.hpp</text>
</a>
</g>
</g>
<!-- Node2 -->
<g id="Node000002" class="node">
<title>Node2</title>
<g id="a_Node000002"><a xlink:href="AIControlled_8hpp.html" target="_top" xlink:title=" ">
<polygon fill="white" stroke="#666666" points="126.25,-168 0,-168 0,-136 126.25,-136 126.25,-168"/>
<text xml:space="preserve" text-anchor="start" x="8" y="-154.5" font-family="Helvetica,sans-Serif" font-size="10.00">components/AIControlled</text>
<text xml:space="preserve" text-anchor="middle" x="63.12" y="-142.5" font-family="Helvetica,sans-Serif" font-size="10.00">/src/AIControlled.hpp</text>
</a>
</g>
</g>
<!-- Node1&#45;&gt;Node2 -->
<g id="edge1_Node000001_Node000002" class="edge">
<title>Node1&#45;&gt;Node2</title>
<g id="a_edge1_Node000001_Node000002"><a xlink:title=" ">
<path fill="none" stroke="#63b8ff" d="M1075.44,-213.68C916.23,-214.62 488.32,-212.41 135.12,-168 132.34,-167.65 129.5,-167.25 126.64,-166.81"/>
<polygon fill="#63b8ff" stroke="#63b8ff" points="1075.39,-217.18 1085.37,-213.62 1075.34,-210.18 1075.39,-217.18"/>
</a>
</g>
</g>
<!-- Node3 -->
<g id="Node000003" class="node">
<title>Node3</title>
<g id="a_Node000003"><a xlink:href="Acceleration_8hpp.html" target="_top" xlink:title=" ">
<polygon fill="white" stroke="#666666" points="388.5,-168 263.75,-168 263.75,-136 388.5,-136 388.5,-168"/>
<text xml:space="preserve" text-anchor="start" x="271.75" y="-154.5" font-family="Helvetica,sans-Serif" font-size="10.00">components/acceleration</text>
<text xml:space="preserve" text-anchor="middle" x="326.12" y="-142.5" font-family="Helvetica,sans-Serif" font-size="10.00">/src/Acceleration.hpp</text>
</a>
</g>
</g>
<!-- Node1&#45;&gt;Node3 -->
<g id="edge2_Node000001_Node000003" class="edge">
<title>Node1&#45;&gt;Node3</title>
<g id="a_edge2_Node000001_Node000003"><a xlink:title=" ">
<path fill="none" stroke="#63b8ff" d="M1075.99,-212.31C947.58,-210.21 646.97,-201.78 397.12,-168 394.38,-167.63 391.58,-167.21 388.76,-166.76"/>
<polygon fill="#63b8ff" stroke="#63b8ff" points="1075.58,-215.8 1085.63,-212.46 1075.69,-208.8 1075.58,-215.8"/>
</a>
</g>
</g>
<!-- Node12 -->
<g id="Node000012" class="node">
<title>Node12</title>
<g id="a_Node000012"><a xlink:href="Audio_8hpp.html" target="_top" xlink:title=" ">
<polygon fill="white" stroke="#666666" points="1593.12,-168 1481.12,-168 1481.12,-136 1593.12,-136 1593.12,-168"/>
<text xml:space="preserve" text-anchor="start" x="1489.12" y="-154.5" font-family="Helvetica,sans-Serif" font-size="10.00">components/audio/src</text>
<text xml:space="preserve" text-anchor="middle" x="1537.12" y="-142.5" font-family="Helvetica,sans-Serif" font-size="10.00">/Audio.hpp</text>
</a>
</g>
</g>
<!-- Node1&#45;&gt;Node12 -->
<g id="edge11_Node000001_Node000012" class="edge">
<title>Node1&#45;&gt;Node12</title>
<g id="a_edge11_Node000001_Node000012"><a xlink:title=" ">
<path fill="none" stroke="#63b8ff" d="M1202.5,-206.2C1269.7,-198.58 1378.81,-185.03 1472.12,-168 1474.97,-167.48 1477.89,-166.92 1480.82,-166.33"/>
<polygon fill="#63b8ff" stroke="#63b8ff" points="1202.32,-202.7 1192.78,-207.3 1203.1,-209.66 1202.32,-202.7"/>
</a>
</g>
</g>
<!-- Node13 -->
<g id="Node000013" class="node">
<title>Node13</title>
<g id="a_Node000013"><a xlink:href="Collider_8hpp.html" target="_top" xlink:title=" ">
<polygon fill="white" stroke="#666666" points="1190.62,-168 1087.62,-168 1087.62,-136 1190.62,-136 1190.62,-168"/>
<text xml:space="preserve" text-anchor="start" x="1095.62" y="-154.5" font-family="Helvetica,sans-Serif" font-size="10.00">components/collider</text>
<text xml:space="preserve" text-anchor="middle" x="1139.12" y="-142.5" font-family="Helvetica,sans-Serif" font-size="10.00">/src/Collider.hpp</text>
</a>
</g>
</g>
<!-- Node1&#45;&gt;Node13 -->
<g id="edge12_Node000001_Node000013" class="edge">
<title>Node1&#45;&gt;Node13</title>
<g id="a_edge12_Node000001_Node000013"><a xlink:title=" ">
<path fill="none" stroke="#63b8ff" d="M1139.12,-192.31C1139.12,-184.37 1139.12,-175.46 1139.12,-168.14"/>
<polygon fill="#63b8ff" stroke="#63b8ff" points="1135.63,-192.11 1139.13,-202.11 1142.63,-192.11 1135.63,-192.11"/>
</a>
</g>
</g>
<!-- Node18 -->
<g id="Node000018" class="node">
<title>Node18</title>
<g id="a_Node000018"><a xlink:href="Damage_8hpp.html" target="_top" xlink:title=" ">
<polygon fill="white" stroke="#666666" points="1069.75,-168 946.5,-168 946.5,-136 1069.75,-136 1069.75,-168"/>
<text xml:space="preserve" text-anchor="start" x="954.5" y="-154.5" font-family="Helvetica,sans-Serif" font-size="10.00">components/damage/src</text>
<text xml:space="preserve" text-anchor="middle" x="1008.12" y="-142.5" font-family="Helvetica,sans-Serif" font-size="10.00">/Damage.hpp</text>
</a>
</g>
</g>
<!-- Node1&#45;&gt;Node18 -->
<g id="edge18_Node000001_Node000018" class="edge">
<title>Node1&#45;&gt;Node18</title>
<g id="a_edge18_Node000001_Node000018"><a xlink:title=" ">
<path fill="none" stroke="#63b8ff" d="M1108.28,-198.87C1088.36,-189.75 1062.43,-177.87 1041.95,-168.49"/>
<polygon fill="#63b8ff" stroke="#63b8ff" points="1106.73,-202.01 1117.28,-202.99 1109.65,-195.65 1106.73,-202.01"/>
</a>
</g>
</g>
<!-- Node19 -->
<g id="Node000019" class="node">
<title>Node19</title>
<g id="a_Node000019"><a xlink:href="Domain_8hpp.html" target="_top" xlink:title=" ">
<polygon fill="white" stroke="#666666" points="1329.25,-168 1209,-168 1209,-136 1329.25,-136 1329.25,-168"/>
<text xml:space="preserve" text-anchor="start" x="1217" y="-154.5" font-family="Helvetica,sans-Serif" font-size="10.00">components/domain/src</text>
<text xml:space="preserve" text-anchor="middle" x="1269.12" y="-142.5" font-family="Helvetica,sans-Serif" font-size="10.00">/Domain.hpp</text>
</a>
</g>
</g>
<!-- Node1&#45;&gt;Node19 -->
<g id="edge22_Node000001_Node000019" class="edge">
<title>Node1&#45;&gt;Node19</title>
<g id="a_edge22_Node000001_Node000019"><a xlink:title=" ">
<path fill="none" stroke="#63b8ff" d="M1169.74,-198.87C1189.5,-189.75 1215.24,-177.87 1235.56,-168.49"/>
<polygon fill="#63b8ff" stroke="#63b8ff" points="1168.42,-195.62 1160.81,-202.99 1171.36,-201.98 1168.42,-195.62"/>
</a>
</g>
</g>
<!-- Node22 -->
<g id="Node000022" class="node">
<title>Node22</title>
<g id="a_Node000022"><a xlink:href="Gravity_8hpp.html" target="_top" xlink:title=" ">
<polygon fill="white" stroke="#666666" points="245.88,-168 144.38,-168 144.38,-136 245.88,-136 245.88,-168"/>
<text xml:space="preserve" text-anchor="start" x="152.38" y="-154.5" font-family="Helvetica,sans-Serif" font-size="10.00">components/gravity</text>
<text xml:space="preserve" text-anchor="middle" x="195.12" y="-142.5" font-family="Helvetica,sans-Serif" font-size="10.00">/src/Gravity.hpp</text>
</a>
</g>
</g>
<!-- Node1&#45;&gt;Node22 -->
<g id="edge27_Node000001_Node000022" class="edge">
<title>Node1&#45;&gt;Node22</title>
<g id="a_edge27_Node000001_Node000022"><a xlink:title=" ">
<path fill="none" stroke="#63b8ff" d="M1075.64,-211.37C900.61,-206.62 413.63,-191.62 255.12,-168 252.15,-167.56 249.11,-167.03 246.05,-166.45"/>
<polygon fill="#63b8ff" stroke="#63b8ff" points="1075.36,-214.86 1085.45,-211.63 1075.55,-207.87 1075.36,-214.86"/>
</a>
</g>
</g>
<!-- Node23 -->
<g id="Node000023" class="node">
<title>Node23</title>
<g id="a_Node000023"><a xlink:href="Health_8hpp.html" target="_top" xlink:title=" ">
<polygon fill="white" stroke="#666666" points="1462.62,-168 1347.62,-168 1347.62,-136 1462.62,-136 1462.62,-168"/>
<text xml:space="preserve" text-anchor="start" x="1355.62" y="-154.5" font-family="Helvetica,sans-Serif" font-size="10.00">components/health/src</text>
<text xml:space="preserve" text-anchor="middle" x="1405.12" y="-142.5" font-family="Helvetica,sans-Serif" font-size="10.00">/Health.hpp</text>
</a>
</g>
</g>
<!-- Node1&#45;&gt;Node23 -->
<g id="edge30_Node000001_Node000023" class="edge">
<title>Node1&#45;&gt;Node23</title>
<g id="a_edge30_Node000001_Node000023"><a xlink:title=" ">
<path fill="none" stroke="#63b8ff" d="M1191.94,-201.09C1236.76,-190.98 1300.99,-176.49 1347.21,-166.06"/>
<polygon fill="#63b8ff" stroke="#63b8ff" points="1191.44,-197.61 1182.46,-203.23 1192.98,-204.44 1191.44,-197.61"/>
</a>
</g>
</g>
<!-- Node26 -->
<g id="Node000026" class="node">
<title>Node26</title>
<g id="a_Node000026"><a xlink:href="InputControlled_8hpp.html" target="_top" xlink:title=" ">
<polygon fill="white" stroke="#666666" points="543.88,-168 406.38,-168 406.38,-136 543.88,-136 543.88,-168"/>
<text xml:space="preserve" text-anchor="start" x="414.38" y="-154.5" font-family="Helvetica,sans-Serif" font-size="10.00">components/inputControlled</text>
<text xml:space="preserve" text-anchor="middle" x="475.12" y="-142.5" font-family="Helvetica,sans-Serif" font-size="10.00">/src/InputControlled.hpp</text>
</a>
</g>
</g>
<!-- Node1&#45;&gt;Node26 -->
<g id="edge36_Node000001_Node000026" class="edge">
<title>Node1&#45;&gt;Node26</title>
<g id="a_edge36_Node000001_Node000026"><a xlink:title=" ">
<path fill="none" stroke="#63b8ff" d="M1075.47,-210.48C967.6,-205.67 742.18,-193.35 553.12,-168 550.12,-167.6 547.05,-167.15 543.96,-166.68"/>
<polygon fill="#63b8ff" stroke="#63b8ff" points="1075.13,-213.97 1085.27,-210.91 1075.44,-206.97 1075.13,-213.97"/>
</a>
</g>
</g>
<!-- Node27 -->
<g id="Node000027" class="node">
<title>Node27</title>
<g id="a_Node000027"><a xlink:href="Lifetime_8hpp.html" target="_top" xlink:title=" ">
<polygon fill="white" stroke="#666666" points="1715,-168 1611.25,-168 1611.25,-136 1715,-136 1715,-168"/>
<text xml:space="preserve" text-anchor="start" x="1619.25" y="-154.5" font-family="Helvetica,sans-Serif" font-size="10.00">components/lifetime</text>
<text xml:space="preserve" text-anchor="middle" x="1663.12" y="-142.5" font-family="Helvetica,sans-Serif" font-size="10.00">/src/Lifetime.hpp</text>
</a>
</g>
</g>
<!-- Node1&#45;&gt;Node27 -->
<g id="edge40_Node000001_Node000027" class="edge">
<title>Node1&#45;&gt;Node27</title>
<g id="a_edge40_Node000001_Node000027"><a xlink:title=" ">
<path fill="none" stroke="#63b8ff" d="M1202.49,-209.74C1292.03,-204.48 1460.46,-192.17 1602.12,-168 1605.03,-167.5 1608,-166.95 1610.99,-166.35"/>
<polygon fill="#63b8ff" stroke="#63b8ff" points="1202.47,-206.24 1192.69,-210.31 1202.88,-213.23 1202.47,-206.24"/>
</a>
</g>
</g>
<!-- Node28 -->
<g id="Node000028" class="node">
<title>Node28</title>
<g id="a_Node000028"><a xlink:href="OnPickup_8hpp.html" target="_top" xlink:title=" ">
<polygon fill="white" stroke="#666666" points="1845.5,-168 1732.75,-168 1732.75,-136 1845.5,-136 1845.5,-168"/>
<text xml:space="preserve" text-anchor="start" x="1740.75" y="-154.5" font-family="Helvetica,sans-Serif" font-size="10.00">components/onPickup</text>
<text xml:space="preserve" text-anchor="middle" x="1789.12" y="-142.5" font-family="Helvetica,sans-Serif" font-size="10.00">/src/OnPickup.hpp</text>
</a>
</g>
</g>
<!-- Node1&#45;&gt;Node28 -->
<g id="edge41_Node000001_Node000028" class="edge">
<title>Node1&#45;&gt;Node28</title>
<g id="a_edge41_Node000001_Node000028"><a xlink:title=" ">
<path fill="none" stroke="#63b8ff" d="M1202.78,-211.23C1310.62,-207.53 1535.89,-196.79 1724.12,-168 1726.87,-167.58 1729.68,-167.11 1732.5,-166.59"/>
<polygon fill="#63b8ff" stroke="#63b8ff" points="1202.86,-207.72 1192.98,-211.55 1203.09,-214.72 1202.86,-207.72"/>
</a>
</g>
</g>
<!-- Node29 -->
<g id="Node000029" class="node">
<title>Node29</title>
<g id="a_Node000029"><a xlink:href="Position_8hpp.html" target="_top" xlink:title=" ">
<polygon fill="white" stroke="#666666" points="928.12,-168 822.12,-168 822.12,-136 928.12,-136 928.12,-168"/>
<text xml:space="preserve" text-anchor="start" x="830.12" y="-154.5" font-family="Helvetica,sans-Serif" font-size="10.00">components/position</text>
<text xml:space="preserve" text-anchor="middle" x="875.12" y="-142.5" font-family="Helvetica,sans-Serif" font-size="10.00">/src/Position.hpp</text>
</a>
</g>
</g>
<!-- Node1&#45;&gt;Node29 -->
<g id="edge42_Node000001_Node000029" class="edge">
<title>Node1&#45;&gt;Node29</title>
<g id="a_edge42_Node000001_Node000029"><a xlink:title=" ">
<path fill="none" stroke="#63b8ff" d="M1084.7,-201.16C1044.01,-192.23 987.03,-179.59 937.12,-168 934.32,-167.35 931.45,-166.67 928.54,-165.99"/>
<polygon fill="#63b8ff" stroke="#63b8ff" points="1083.73,-204.53 1094.25,-203.25 1085.23,-197.69 1083.73,-204.53"/>
</a>
</g>
</g>
<!-- Node30 -->
<g id="Node000030" class="node">
<title>Node30</title>
<g id="a_Node000030"><a xlink:href="Renderable_8hpp.html" target="_top" xlink:title=" ">
<polygon fill="white" stroke="#666666" points="803.75,-168 686.5,-168 686.5,-136 803.75,-136 803.75,-168"/>
<text xml:space="preserve" text-anchor="start" x="694.5" y="-154.5" font-family="Helvetica,sans-Serif" font-size="10.00">components/renderable</text>
<text xml:space="preserve" text-anchor="middle" x="745.12" y="-142.5" font-family="Helvetica,sans-Serif" font-size="10.00">/src/Renderable.hpp</text>
</a>
</g>
</g>
<!-- Node1&#45;&gt;Node30 -->
<g id="edge49_Node000001_Node000030" class="edge">
<title>Node1&#45;&gt;Node30</title>
<g id="a_edge49_Node000001_Node000030"><a xlink:title=" ">
<path fill="none" stroke="#63b8ff" d="M1075.56,-205.75C1009.68,-197.88 903.85,-184.24 813.12,-168 810.15,-167.47 807.11,-166.9 804.04,-166.3"/>
<polygon fill="#63b8ff" stroke="#63b8ff" points="1075.13,-209.23 1085.48,-206.93 1075.96,-202.27 1075.13,-209.23"/>
</a>
</g>
</g>
<!-- Node33 -->
<g id="Node000033" class="node">
<title>Node33</title>
<g id="a_Node000033"><a xlink:href="ScoreValue_8hpp.html" target="_top" xlink:title=" ">
<polygon fill="white" stroke="#666666" points="1984.25,-168 1864,-168 1864,-136 1984.25,-136 1984.25,-168"/>
<text xml:space="preserve" text-anchor="start" x="1872" y="-154.5" font-family="Helvetica,sans-Serif" font-size="10.00">components/scoreValue</text>
<text xml:space="preserve" text-anchor="middle" x="1924.12" y="-142.5" font-family="Helvetica,sans-Serif" font-size="10.00">/src/ScoreValue.hpp</text>
</a>
</g>
</g>
<!-- Node1&#45;&gt;Node33 -->
<g id="edge57_Node000001_Node000033" class="edge">
<title>Node1&#45;&gt;Node33</title>
<g id="a_edge57_Node000001_Node000033"><a xlink:title=" ">
<path fill="none" stroke="#63b8ff" d="M1202.67,-212.16C1327.9,-209.8 1615.16,-200.94 1854.12,-168 1857.2,-167.58 1860.35,-167.09 1863.52,-166.56"/>
<polygon fill="#63b8ff" stroke="#63b8ff" points="1202.87,-208.65 1192.94,-212.33 1203,-215.65 1202.87,-208.65"/>
</a>
</g>
</g>
<!-- Node34 -->
<g id="Node000034" class="node">
<title>Node34</title>
<g id="a_Node000034"><a xlink:href="Text_8hpp.html" target="_top" xlink:title=" ">
<polygon fill="white" stroke="#666666" points="2107.75,-168 2002.5,-168 2002.5,-136 2107.75,-136 2107.75,-168"/>
<text xml:space="preserve" text-anchor="start" x="2010.5" y="-154.5" font-family="Helvetica,sans-Serif" font-size="10.00">components/text/src</text>
<text xml:space="preserve" text-anchor="middle" x="2055.12" y="-142.5" font-family="Helvetica,sans-Serif" font-size="10.00">/Text.hpp</text>
</a>
</g>
</g>
<!-- Node1&#45;&gt;Node34 -->
<g id="edge58_Node000001_Node000034" class="edge">
<title>Node1&#45;&gt;Node34</title>
<g id="a_edge58_Node000001_Node000034"><a xlink:title=" ">
<path fill="none" stroke="#63b8ff" d="M1202.96,-213.65C1345.49,-214.22 1700.19,-210.78 1993.12,-168 1996.08,-167.57 1999.11,-167.06 2002.15,-166.5"/>
<polygon fill="#63b8ff" stroke="#63b8ff" points="1202.97,-210.15 1192.96,-213.6 1202.94,-217.15 1202.97,-210.15"/>
</a>
</g>
</g>
<!-- Node35 -->
<g id="Node000035" class="node">
<title>Node35</title>
<g id="a_Node000035"><a xlink:href="Velocity_8hpp.html" target="_top" xlink:title=" ">
<polygon fill="white" stroke="#666666" points="668.12,-168 562.12,-168 562.12,-136 668.12,-136 668.12,-168"/>
<text xml:space="preserve" text-anchor="start" x="570.12" y="-154.5" font-family="Helvetica,sans-Serif" font-size="10.00">components/velocity</text>
<text xml:space="preserve" text-anchor="middle" x="615.12" y="-142.5" font-family="Helvetica,sans-Serif" font-size="10.00">/src/Velocity.hpp</text>
</a>
</g>
</g>
<!-- Node1&#45;&gt;Node35 -->
<g id="edge59_Node000001_Node000035" class="edge">
<title>Node1&#45;&gt;Node35</title>
<g id="a_edge59_Node000001_Node000035"><a xlink:title=" ">
<path fill="none" stroke="#63b8ff" d="M1075.55,-209.64C986.13,-204.27 818.34,-191.84 677.12,-168 674.29,-167.52 671.38,-166.98 668.46,-166.41"/>
<polygon fill="#63b8ff" stroke="#63b8ff" points="1075.15,-213.12 1085.34,-210.21 1075.56,-206.13 1075.15,-213.12"/>
</a>
</g>
</g>
<!-- Node36 -->
<g id="Node000036" class="node">
<title>Node36</title>
<g id="a_Node000036"><a xlink:href="Weapon_8hpp.html" target="_top" xlink:title=" ">
<polygon fill="white" stroke="#666666" points="2248.38,-168 2125.88,-168 2125.88,-136 2248.38,-136 2248.38,-168"/>
<text xml:space="preserve" text-anchor="start" x="2133.88" y="-154.5" font-family="Helvetica,sans-Serif" font-size="10.00">components/weapon/src</text>
<text xml:space="preserve" text-anchor="middle" x="2187.12" y="-142.5" font-family="Helvetica,sans-Serif" font-size="10.00">/Weapon.hpp</text>
</a>
</g>
</g>
<!-- Node1&#45;&gt;Node36 -->
<g id="edge64_Node000001_Node000036" class="edge">
<title>Node1&#45;&gt;Node36</title>
<g id="a_edge64_Node000001_Node000036"><a xlink:title=" ">
<path fill="none" stroke="#63b8ff" d="M1202.58,-213.69C1358.8,-214.62 1774.24,-212.32 2117.12,-168 2119.84,-167.65 2122.6,-167.25 2125.38,-166.81"/>
<polygon fill="#63b8ff" stroke="#63b8ff" points="1202.88,-210.2 1192.85,-213.63 1202.83,-217.2 1202.88,-210.2"/>
</a>
</g>
</g>
<!-- Node4 -->
<g id="Node000004" class="node">
<title>Node4</title>
<g id="a_Node000004"><a xlink:href="FPApplyGravity_8hpp.html" target="_top" xlink:title=" ">
<polygon fill="white" stroke="#666666" points="388.5,-100 263.75,-100 263.75,-68 388.5,-68 388.5,-100"/>
<text xml:space="preserve" text-anchor="start" x="271.75" y="-86.5" font-family="Helvetica,sans-Serif" font-size="10.00">systems/FPApplyGravity</text>
<text xml:space="preserve" text-anchor="middle" x="326.12" y="-74.5" font-family="Helvetica,sans-Serif" font-size="10.00">/src/FPApplyGravity.hpp</text>
</a>
</g>
</g>
<!-- Node3&#45;&gt;Node4 -->
<g id="edge3_Node000003_Node000004" class="edge">
<title>Node3&#45;&gt;Node4</title>
<g id="a_edge3_Node000003_Node000004"><a xlink:title=" ">
<path fill="none" stroke="#63b8ff" d="M326.12,-124.31C326.12,-116.12 326.12,-107.38 326.12,-100.22"/>
<polygon fill="#63b8ff" stroke="#63b8ff" points="322.63,-124.18 326.13,-134.18 329.63,-124.18 322.63,-124.18"/>
</a>
</g>
</g>
<!-- Node6 -->
<g id="Node000006" class="node">
<title>Node6</title>
<g id="a_Node000006"><a xlink:href="FPMotion_8hpp.html" target="_top" xlink:title=" ">
<polygon fill="white" stroke="#666666" points="540.62,-100 425.62,-100 425.62,-68 540.62,-68 540.62,-100"/>
<text xml:space="preserve" text-anchor="start" x="433.62" y="-86.5" font-family="Helvetica,sans-Serif" font-size="10.00">systems/FPMotion/src</text>
<text xml:space="preserve" text-anchor="middle" x="483.12" y="-74.5" font-family="Helvetica,sans-Serif" font-size="10.00">/FPMotion.hpp</text>
</a>
</g>
</g>
<!-- Node3&#45;&gt;Node6 -->
<g id="edge5_Node000003_Node000006" class="edge">
<title>Node3&#45;&gt;Node6</title>
<g id="a_edge5_Node000003_Node000006"><a xlink:title=" ">
<path fill="none" stroke="#63b8ff" d="M373.32,-131.16C396.7,-121.33 424.5,-109.65 446.27,-100.49"/>
<polygon fill="#63b8ff" stroke="#63b8ff" points="372.19,-127.84 364.33,-134.94 374.9,-134.29 372.19,-127.84"/>
</a>
</g>
</g>
<!-- Node8 -->
<g id="Node000008" class="node">
<title>Node8</title>
<g id="a_Node000008"><a xlink:href="InputHandler_8hpp.html" target="_top" xlink:title=" ">
<polygon fill="white" stroke="#666666" points="923.75,-100 812.5,-100 812.5,-68 923.75,-68 923.75,-100"/>
<text xml:space="preserve" text-anchor="start" x="820.5" y="-86.5" font-family="Helvetica,sans-Serif" font-size="10.00">systems/inputHandler</text>
<text xml:space="preserve" text-anchor="middle" x="868.12" y="-74.5" font-family="Helvetica,sans-Serif" font-size="10.00">/src/InputHandler.hpp</text>
</a>
</g>
</g>
<!-- Node3&#45;&gt;Node8 -->
<g id="edge7_Node000003_Node000008" class="edge">
<title>Node3&#45;&gt;Node8</title>
<g id="a_edge7_Node000003_Node000008"><a xlink:title=" ">
<path fill="none" stroke="#63b8ff" d="M400.16,-135.67C578.76,-109.97 628.5,-128.2 804.12,-100 806.72,-99.58 809.36,-99.12 812.02,-98.62"/>
<polygon fill="#63b8ff" stroke="#63b8ff" points="399.65,-132.2 390.27,-137.12 400.67,-139.13 399.65,-132.2"/>
</a>
</g>
</g>
<!-- Node10 -->
<g id="Node000010" class="node">
<title>Node10</title>
<g id="a_Node000010"><a xlink:href="Motion_8hpp.html" target="_top" xlink:title=" ">
<polygon fill="white" stroke="#666666" points="661.25,-100 559,-100 559,-68 661.25,-68 661.25,-100"/>
<text xml:space="preserve" text-anchor="start" x="567" y="-86.5" font-family="Helvetica,sans-Serif" font-size="10.00">systems/motion/src</text>
<text xml:space="preserve" text-anchor="middle" x="610.12" y="-74.5" font-family="Helvetica,sans-Serif" font-size="10.00">/Motion.hpp</text>
</a>
</g>
</g>
<!-- Node3&#45;&gt;Node10 -->
<g id="edge9_Node000003_Node000010" class="edge">
<title>Node3&#45;&gt;Node10</title>
<g id="a_edge9_Node000003_Node000010"><a xlink:title=" ">
<path fill="none" stroke="#63b8ff" d="M400.08,-134.57C443.78,-124.77 500.16,-111.93 550.12,-100 552.94,-99.33 555.84,-98.63 558.76,-97.92"/>
<polygon fill="#63b8ff" stroke="#63b8ff" points="399.44,-131.13 390.44,-136.73 400.97,-137.96 399.44,-131.13"/>
</a>
</g>
</g>
<!-- Node5 -->
<g id="Node000005" class="node">
<title>Node5</title>
<g id="a_Node000005"><a xlink:href="FPApplyGravity_8cpp.html" target="_top" xlink:title=" ">
<polygon fill="white" stroke="#666666" points="388.5,-32 263.75,-32 263.75,0 388.5,0 388.5,-32"/>
<text xml:space="preserve" text-anchor="start" x="271.75" y="-18.5" font-family="Helvetica,sans-Serif" font-size="10.00">systems/FPApplyGravity</text>
<text xml:space="preserve" text-anchor="middle" x="326.12" y="-6.5" font-family="Helvetica,sans-Serif" font-size="10.00">/src/FPApplyGravity.cpp</text>
</a>
</g>
</g>
<!-- Node4&#45;&gt;Node5 -->
<g id="edge4_Node000004_Node000005" class="edge">
<title>Node4&#45;&gt;Node5</title>
<g id="a_edge4_Node000004_Node000005"><a xlink:title=" ">
<path fill="none" stroke="#63b8ff" d="M326.12,-56.31C326.12,-48.12 326.12,-39.38 326.12,-32.22"/>
<polygon fill="#63b8ff" stroke="#63b8ff" points="322.63,-56.18 326.13,-66.18 329.63,-56.18 322.63,-56.18"/>
</a>
</g>
</g>
<!-- Node7 -->
<g id="Node000007" class="node">
<title>Node7</title>
<g id="a_Node000007"><a xlink:href="FPMotion_8cpp.html" target="_top" xlink:title=" ">
<polygon fill="white" stroke="#666666" points="540.62,-32 425.62,-32 425.62,0 540.62,0 540.62,-32"/>
<text xml:space="preserve" text-anchor="start" x="433.62" y="-18.5" font-family="Helvetica,sans-Serif" font-size="10.00">systems/FPMotion/src</text>
<text xml:space="preserve" text-anchor="middle" x="483.12" y="-6.5" font-family="Helvetica,sans-Serif" font-size="10.00">/FPMotion.cpp</text>
</a>
</g>
</g>
<!-- Node6&#45;&gt;Node7 -->
<g id="edge6_Node000006_Node000007" class="edge">
<title>Node6&#45;&gt;Node7</title>
<g id="a_edge6_Node000006_Node000007"><a xlink:title=" ">
<path fill="none" stroke="#63b8ff" d="M483.12,-56.31C483.12,-48.12 483.12,-39.38 483.12,-32.22"/>
<polygon fill="#63b8ff" stroke="#63b8ff" points="479.63,-56.18 483.13,-66.18 486.63,-56.18 479.63,-56.18"/>
</a>
</g>
</g>
<!-- Node9 -->
<g id="Node000009" class="node">
<title>Node9</title>
<g id="a_Node000009"><a xlink:href="InputHandler_8cpp.html" target="_top" xlink:title=" ">
<polygon fill="white" stroke="#666666" points="923.75,-32 812.5,-32 812.5,0 923.75,0 923.75,-32"/>
<text xml:space="preserve" text-anchor="start" x="820.5" y="-18.5" font-family="Helvetica,sans-Serif" font-size="10.00">systems/inputHandler</text>
<text xml:space="preserve" text-anchor="middle" x="868.12" y="-6.5" font-family="Helvetica,sans-Serif" font-size="10.00">/src/InputHandler.cpp</text>
</a>
</g>
</g>
<!-- Node8&#45;&gt;Node9 -->
<g id="edge8_Node000008_Node000009" class="edge">
<title>Node8&#45;&gt;Node9</title>
<g id="a_edge8_Node000008_Node000009"><a xlink:title=" ">
<path fill="none" stroke="#63b8ff" d="M868.12,-56.31C868.12,-48.12 868.12,-39.38 868.12,-32.22"/>
<polygon fill="#63b8ff" stroke="#63b8ff" points="864.63,-56.18 868.13,-66.18 871.63,-56.18 864.63,-56.18"/>
</a>
</g>
</g>
<!-- Node11 -->
<g id="Node000011" class="node">
<title>Node11</title>
<g id="a_Node000011"><a xlink:href="Motion_8cpp.html" target="_top" xlink:title=" ">
<polygon fill="white" stroke="#666666" points="661.25,-32 559,-32 559,0 661.25,0 661.25,-32"/>
<text xml:space="preserve" text-anchor="start" x="567" y="-18.5" font-family="Helvetica,sans-Serif" font-size="10.00">systems/motion/src</text>
<text xml:space="preserve" text-anchor="middle" x="610.12" y="-6.5" font-family="Helvetica,sans-Serif" font-size="10.00">/Motion.cpp</text>
</a>
</g>
</g>
<!-- Node10&#45;&gt;Node11 -->
<g id="edge10_Node000010_Node000011" class="edge">
<title>Node10&#45;&gt;Node11</title>
<g id="a_edge10_Node000010_Node000011"><a xlink:title=" ">
<path fill="none" stroke="#63b8ff" d="M610.12,-56.31C610.12,-48.12 610.12,-39.38 610.12,-32.22"/>
<polygon fill="#63b8ff" stroke="#63b8ff" points="606.63,-56.18 610.13,-66.18 613.63,-56.18 606.63,-56.18"/>
</a>
</g>
</g>
<!-- Node13&#45;&gt;Node8 -->
<g id="edge17_Node000013_Node000008" class="edge">
<title>Node13&#45;&gt;Node8</title>
<g id="a_edge17_Node000013_Node000008"><a xlink:title=" ">
<path fill="none" stroke="#63b8ff" d="M1076.39,-135.34C1019.41,-121.35 964.09,-108.01 924.13,-98.41"/>
<polygon fill="#63b8ff" stroke="#63b8ff" points="1075.4,-138.7 1085.95,-137.69 1077.07,-131.9 1075.4,-138.7"/>
</a>
</g>
</g>
<!-- Node14 -->
<g id="Node000014" class="node">
<title>Node14</title>
<g id="a_Node000014"><a xlink:href="FPInputHandler_8hpp.html" target="_top" xlink:title=" ">
<polygon fill="white" stroke="#666666" points="1066.5,-100 941.75,-100 941.75,-68 1066.5,-68 1066.5,-100"/>
<text xml:space="preserve" text-anchor="start" x="949.75" y="-86.5" font-family="Helvetica,sans-Serif" font-size="10.00">systems/FPInputHandler</text>
<text xml:space="preserve" text-anchor="middle" x="1004.12" y="-74.5" font-family="Helvetica,sans-Serif" font-size="10.00">/src/FPInputHandler.hpp</text>
</a>
</g>
</g>
<!-- Node13&#45;&gt;Node14 -->
<g id="edge13_Node000013_Node000014" class="edge">
<title>Node13&#45;&gt;Node14</title>
<g id="a_edge13_Node000013_Node000014"><a xlink:title=" ">
<path fill="none" stroke="#63b8ff" d="M1097.14,-130.47C1077.25,-120.75 1053.91,-109.34 1035.58,-100.38"/>
<polygon fill="#63b8ff" stroke="#63b8ff" points="1095.59,-133.61 1106.11,-134.86 1098.67,-127.32 1095.59,-133.61"/>
</a>
</g>
</g>
<!-- Node16 -->
<g id="Node000016" class="node">
<title>Node16</title>
<g id="a_Node000016"><a xlink:href="Collision_8hpp.html" target="_top" xlink:title=" ">
<polygon fill="white" stroke="#666666" points="1193.25,-100 1085,-100 1085,-68 1193.25,-68 1193.25,-100"/>
<text xml:space="preserve" text-anchor="start" x="1093" y="-86.5" font-family="Helvetica,sans-Serif" font-size="10.00">systems/collision/src</text>
<text xml:space="preserve" text-anchor="middle" x="1139.12" y="-74.5" font-family="Helvetica,sans-Serif" font-size="10.00">/Collision.hpp</text>
</a>
</g>
</g>
<!-- Node13&#45;&gt;Node16 -->
<g id="edge15_Node000013_Node000016" class="edge">
<title>Node13&#45;&gt;Node16</title>
<g id="a_edge15_Node000013_Node000016"><a xlink:title=" ">
<path fill="none" stroke="#63b8ff" d="M1139.12,-124.31C1139.12,-116.12 1139.12,-107.38 1139.12,-100.22"/>
<polygon fill="#63b8ff" stroke="#63b8ff" points="1135.63,-124.18 1139.13,-134.18 1142.63,-124.18 1135.63,-124.18"/>
</a>
</g>
</g>
<!-- Node15 -->
<g id="Node000015" class="node">
<title>Node15</title>
<g id="a_Node000015"><a xlink:href="FPInputHandler_8cpp.html" target="_top" xlink:title=" ">
<polygon fill="white" stroke="#666666" points="1066.5,-32 941.75,-32 941.75,0 1066.5,0 1066.5,-32"/>
<text xml:space="preserve" text-anchor="start" x="949.75" y="-18.5" font-family="Helvetica,sans-Serif" font-size="10.00">systems/FPInputHandler</text>
<text xml:space="preserve" text-anchor="middle" x="1004.12" y="-6.5" font-family="Helvetica,sans-Serif" font-size="10.00">/src/FPInputHandler.cpp</text>
</a>
</g>
</g>
<!-- Node14&#45;&gt;Node15 -->
<g id="edge14_Node000014_Node000015" class="edge">
<title>Node14&#45;&gt;Node15</title>
<g id="a_edge14_Node000014_Node000015"><a xlink:title=" ">
<path fill="none" stroke="#63b8ff" d="M1004.12,-56.31C1004.12,-48.12 1004.12,-39.38 1004.12,-32.22"/>
<polygon fill="#63b8ff" stroke="#63b8ff" points="1000.63,-56.18 1004.13,-66.18 1007.63,-56.18 1000.63,-56.18"/>
</a>
</g>
</g>
<!-- Node17 -->
<g id="Node000017" class="node">
<title>Node17</title>
<g id="a_Node000017"><a xlink:href="Collision_8cpp.html" target="_top" xlink:title=" ">
<polygon fill="white" stroke="#666666" points="1193.25,-32 1085,-32 1085,0 1193.25,0 1193.25,-32"/>
<text xml:space="preserve" text-anchor="start" x="1093" y="-18.5" font-family="Helvetica,sans-Serif" font-size="10.00">systems/collision/src</text>
<text xml:space="preserve" text-anchor="middle" x="1139.12" y="-6.5" font-family="Helvetica,sans-Serif" font-size="10.00">/Collision.cpp</text>
</a>
</g>
</g>
<!-- Node16&#45;&gt;Node17 -->
<g id="edge16_Node000016_Node000017" class="edge">
<title>Node16&#45;&gt;Node17</title>
<g id="a_edge16_Node000016_Node000017"><a xlink:title=" ">
<path fill="none" stroke="#63b8ff" d="M1139.12,-56.31C1139.12,-48.12 1139.12,-39.38 1139.12,-32.22"/>
<polygon fill="#63b8ff" stroke="#63b8ff" points="1135.63,-56.18 1139.13,-66.18 1142.63,-56.18 1135.63,-56.18"/>
</a>
</g>
</g>
<!-- Node18&#45;&gt;Node8 -->
<g id="edge21_Node000018_Node000008" class="edge">
<title>Node18&#45;&gt;Node8</title>
<g id="a_edge21_Node000018_Node000008"><a xlink:title=" ">
<path fill="none" stroke="#63b8ff" d="M965.15,-130.74C944.41,-120.96 919.93,-109.42 900.74,-100.38"/>
<polygon fill="#63b8ff" stroke="#63b8ff" points="963.39,-133.78 973.93,-134.88 966.38,-127.45 963.39,-133.78"/>
</a>
</g>
</g>
<!-- Node18&#45;&gt;Node14 -->
<g id="edge19_Node000018_Node000014" class="edge">
<title>Node18&#45;&gt;Node14</title>
<g id="a_edge19_Node000018_Node000014"><a xlink:title=" ">
<path fill="none" stroke="#63b8ff" d="M1006.51,-124.31C1006.01,-116.12 1005.48,-107.38 1005.05,-100.22"/>
<polygon fill="#63b8ff" stroke="#63b8ff" points="1003.01,-124.41 1007.11,-134.18 1009.99,-123.99 1003.01,-124.41"/>
</a>
</g>
</g>
<!-- Node18&#45;&gt;Node16 -->
<g id="edge20_Node000018_Node000016" class="edge">
<title>Node18&#45;&gt;Node16</title>
<g id="a_edge20_Node000018_Node000016"><a xlink:title=" ">
<path fill="none" stroke="#63b8ff" d="M1048.87,-130.47C1068.16,-120.75 1090.82,-109.34 1108.6,-100.38"/>
<polygon fill="#63b8ff" stroke="#63b8ff" points="1047.55,-127.22 1040.19,-134.84 1050.7,-133.47 1047.55,-127.22"/>
</a>
</g>
</g>
<!-- Node19&#45;&gt;Node8 -->
<g id="edge26_Node000019_Node000008" class="edge">
<title>Node19&#45;&gt;Node8</title>
<g id="a_edge26_Node000019_Node000008"><a xlink:title=" ">
<path fill="none" stroke="#63b8ff" d="M1197.37,-135.61C1080.22,-115.62 1047.36,-120.84 933.12,-100 930.16,-99.46 927.13,-98.87 924.08,-98.26"/>
<polygon fill="#63b8ff" stroke="#63b8ff" points="1196.65,-139.03 1207.11,-137.3 1197.85,-132.14 1196.65,-139.03"/>
</a>
</g>
</g>
<!-- Node19&#45;&gt;Node14 -->
<g id="edge23_Node000019_Node000014" class="edge">
<title>Node19&#45;&gt;Node14</title>
<g id="a_edge23_Node000019_Node000014"><a xlink:title=" ">
<path fill="none" stroke="#63b8ff" d="M1197.64,-133.2C1156.58,-122.97 1105.53,-110.25 1066.17,-100.45"/>
<polygon fill="#63b8ff" stroke="#63b8ff" points="1196.64,-136.55 1207.19,-135.58 1198.33,-129.76 1196.64,-136.55"/>
</a>
</g>
</g>
<!-- Node20 -->
<g id="Node000020" class="node">
<title>Node20</title>
<g id="a_Node000020"><a xlink:href="DomainHandler_8hpp.html" target="_top" xlink:title=" ">
<polygon fill="white" stroke="#666666" points="1333,-100 1211.25,-100 1211.25,-68 1333,-68 1333,-100"/>
<text xml:space="preserve" text-anchor="start" x="1219.25" y="-86.5" font-family="Helvetica,sans-Serif" font-size="10.00">systems/domainHandler</text>
<text xml:space="preserve" text-anchor="middle" x="1272.12" y="-74.5" font-family="Helvetica,sans-Serif" font-size="10.00">/src/DomainHandler.hpp</text>
</a>
</g>
</g>
<!-- Node19&#45;&gt;Node20 -->
<g id="edge24_Node000019_Node000020" class="edge">
<title>Node19&#45;&gt;Node20</title>
<g id="a_edge24_Node000019_Node000020"><a xlink:title=" ">
<path fill="none" stroke="#63b8ff" d="M1270.34,-124.31C1270.71,-116.12 1271.11,-107.38 1271.43,-100.22"/>
<polygon fill="#63b8ff" stroke="#63b8ff" points="1266.85,-124.03 1269.89,-134.18 1273.84,-124.35 1266.85,-124.03"/>
</a>
</g>
</g>
<!-- Node21 -->
<g id="Node000021" class="node">
<title>Node21</title>
<g id="a_Node000021"><a xlink:href="DomainHandler_8cpp.html" target="_top" xlink:title=" ">
<polygon fill="white" stroke="#666666" points="1333,-32 1211.25,-32 1211.25,0 1333,0 1333,-32"/>
<text xml:space="preserve" text-anchor="start" x="1219.25" y="-18.5" font-family="Helvetica,sans-Serif" font-size="10.00">systems/domainHandler</text>
<text xml:space="preserve" text-anchor="middle" x="1272.12" y="-6.5" font-family="Helvetica,sans-Serif" font-size="10.00">/src/DomainHandler.cpp</text>
</a>
</g>
</g>
<!-- Node20&#45;&gt;Node21 -->
<g id="edge25_Node000020_Node000021" class="edge">
<title>Node20&#45;&gt;Node21</title>
<g id="a_edge25_Node000020_Node000021"><a xlink:title=" ">
<path fill="none" stroke="#63b8ff" d="M1272.12,-56.31C1272.12,-48.12 1272.12,-39.38 1272.12,-32.22"/>
<polygon fill="#63b8ff" stroke="#63b8ff" points="1268.63,-56.18 1272.13,-66.18 1275.63,-56.18 1268.63,-56.18"/>
</a>
</g>
</g>
<!-- Node22&#45;&gt;Node4 -->
<g id="edge28_Node000022_Node000004" class="edge">
<title>Node22&#45;&gt;Node4</title>
<g id="a_edge28_Node000022_Node000004"><a xlink:title=" ">
<path fill="none" stroke="#63b8ff" d="M235.87,-130.47C255.16,-120.75 277.82,-109.34 295.6,-100.38"/>
<polygon fill="#63b8ff" stroke="#63b8ff" points="234.55,-127.22 227.19,-134.84 237.7,-133.47 234.55,-127.22"/>
</a>
</g>
</g>
<!-- Node22&#45;&gt;Node6 -->
<g id="edge29_Node000022_Node000006" class="edge">
<title>Node22&#45;&gt;Node6</title>
<g id="a_edge29_Node000022_Node000006"><a xlink:title=" ">
<path fill="none" stroke="#63b8ff" d="M257.12,-135.56C320.14,-120.71 381.78,-107.03 425.41,-97.49"/>
<polygon fill="#63b8ff" stroke="#63b8ff" points="256.57,-132.09 247.64,-137.8 258.18,-138.9 256.57,-132.09"/>
</a>
</g>
</g>
<!-- Node23&#45;&gt;Node8 -->
<g id="edge35_Node000023_Node000008" class="edge">
<title>Node23&#45;&gt;Node8</title>
<g id="a_edge35_Node000023_Node000008"><a xlink:title=" ">
<path fill="none" stroke="#63b8ff" d="M1336.35,-135.88C1157.59,-108.99 1108.02,-127.82 933.12,-100 930.15,-99.53 927.11,-99 924.05,-98.42"/>
<polygon fill="#63b8ff" stroke="#63b8ff" points="1335.56,-139.3 1345.98,-137.36 1336.62,-132.38 1335.56,-139.3"/>
</a>
</g>
</g>
<!-- Node23&#45;&gt;Node14 -->
<g id="edge31_Node000023_Node000014" class="edge">
<title>Node23&#45;&gt;Node14</title>
<g id="a_edge31_Node000023_Node000014"><a xlink:title=" ">
<path fill="none" stroke="#63b8ff" d="M1336.35,-135.78C1220.53,-115.41 1188.44,-119.39 1076.12,-100 1073.11,-99.48 1070.02,-98.92 1066.9,-98.34"/>
<polygon fill="#63b8ff" stroke="#63b8ff" points="1335.49,-139.19 1345.95,-137.5 1336.72,-132.3 1335.49,-139.19"/>
</a>
</g>
</g>
<!-- Node23&#45;&gt;Node16 -->
<g id="edge32_Node000023_Node000016" class="edge">
<title>Node23&#45;&gt;Node16</title>
<g id="a_edge32_Node000023_Node000016"><a xlink:title=" ">
<path fill="none" stroke="#63b8ff" d="M1336.39,-133.95C1291.93,-122.91 1234.86,-108.75 1193.55,-98.5"/>
<polygon fill="#63b8ff" stroke="#63b8ff" points="1335.39,-137.3 1345.94,-136.31 1337.08,-130.51 1335.39,-137.3"/>
</a>
</g>
</g>
<!-- Node24 -->
<g id="Node000024" class="node">
<title>Node24</title>
<g id="a_Node000024"><a xlink:href="Death_8hpp.html" target="_top" xlink:title=" ">
<polygon fill="white" stroke="#666666" points="1495.62,-94 1350.62,-94 1350.62,-74 1495.62,-74 1495.62,-94"/>
<text xml:space="preserve" text-anchor="middle" x="1423.12" y="-80.5" font-family="Helvetica,sans-Serif" font-size="10.00">systems/death/src/Death.hpp</text>
</a>
</g>
</g>
<!-- Node23&#45;&gt;Node24 -->
<g id="edge33_Node000023_Node000024" class="edge">
<title>Node23&#45;&gt;Node24</title>
<g id="a_edge33_Node000023_Node000024"><a xlink:title=" ">
<path fill="none" stroke="#63b8ff" d="M1412.31,-124.66C1415.24,-113.92 1418.43,-102.21 1420.58,-94.32"/>
<polygon fill="#63b8ff" stroke="#63b8ff" points="1408.95,-123.66 1409.7,-134.23 1415.71,-125.51 1408.95,-123.66"/>
</a>
</g>
</g>
<!-- Node25 -->
<g id="Node000025" class="node">
<title>Node25</title>
<g id="a_Node000025"><a xlink:href="Death_8cpp.html" target="_top" xlink:title=" ">
<polygon fill="white" stroke="#666666" points="1495.62,-26 1350.62,-26 1350.62,-6 1495.62,-6 1495.62,-26"/>
<text xml:space="preserve" text-anchor="middle" x="1423.12" y="-12.5" font-family="Helvetica,sans-Serif" font-size="10.00">systems/death/src/Death.cpp</text>
</a>
</g>
</g>
<!-- Node24&#45;&gt;Node25 -->
<g id="edge34_Node000024_Node000025" class="edge">
<title>Node24&#45;&gt;Node25</title>
<g id="a_edge34_Node000024_Node000025"><a xlink:title=" ">
<path fill="none" stroke="#63b8ff" d="M1423.12,-62.28C1423.12,-50.27 1423.12,-35.74 1423.12,-26.44"/>
<polygon fill="#63b8ff" stroke="#63b8ff" points="1419.63,-62.03 1423.13,-72.03 1426.63,-62.03 1419.63,-62.03"/>
</a>
</g>
</g>
<!-- Node26&#45;&gt;Node4 -->
<g id="edge37_Node000026_Node000004" class="edge">
<title>Node26&#45;&gt;Node4</title>
<g id="a_edge37_Node000026_Node000004"><a xlink:title=" ">
<path fill="none" stroke="#63b8ff" d="M429.73,-130.89C407.67,-121.12 381.58,-109.56 361.1,-100.49"/>
<polygon fill="#63b8ff" stroke="#63b8ff" points="428.25,-134.06 438.81,-134.91 431.08,-127.66 428.25,-134.06"/>
</a>
</g>
</g>
<!-- Node26&#45;&gt;Node8 -->
<g id="edge39_Node000026_Node000008" class="edge">
<title>Node26&#45;&gt;Node8</title>
<g id="a_edge39_Node000026_Node000008"><a xlink:title=" ">
<path fill="none" stroke="#63b8ff" d="M555.35,-135.69C666.23,-117.56 696.95,-120.21 804.12,-100 806.82,-99.49 809.57,-98.95 812.34,-98.38"/>
<polygon fill="#63b8ff" stroke="#63b8ff" points="554.78,-132.23 545.49,-137.32 555.93,-139.14 554.78,-132.23"/>
</a>
</g>
</g>
<!-- Node26&#45;&gt;Node14 -->
<g id="edge38_Node000026_Node000014" class="edge">
<title>Node26&#45;&gt;Node14</title>
<g id="a_edge38_Node000026_Node000014"><a xlink:title=" ">
<path fill="none" stroke="#63b8ff" d="M555.2,-135.8C723.02,-112.52 769.02,-125.03 933.12,-100 935.86,-99.58 938.66,-99.13 941.48,-98.64"/>
<polygon fill="#63b8ff" stroke="#63b8ff" points="554.88,-132.32 545.47,-137.18 555.86,-139.25 554.88,-132.32"/>
</a>
</g>
</g>
<!-- Node29&#45;&gt;Node6 -->
<g id="edge44_Node000029_Node000006" class="edge">
<title>Node29&#45;&gt;Node6</title>
<g id="a_edge44_Node000029_Node000006"><a xlink:title=" ">
<path fill="none" stroke="#63b8ff" d="M810.7,-135.66C695.24,-114.49 662.72,-120.27 550.12,-100 547.07,-99.45 543.95,-98.86 540.81,-98.24"/>
<polygon fill="#63b8ff" stroke="#63b8ff" points="809.8,-139.06 820.28,-137.45 811.09,-132.17 809.8,-139.06"/>
</a>
</g>
</g>
<!-- Node29&#45;&gt;Node8 -->
<g id="edge47_Node000029_Node000008" class="edge">
<title>Node29&#45;&gt;Node8</title>
<g id="a_edge47_Node000029_Node000008"><a xlink:title=" ">
<path fill="none" stroke="#63b8ff" d="M872.29,-124.31C871.43,-116.12 870.5,-107.38 869.74,-100.22"/>
<polygon fill="#63b8ff" stroke="#63b8ff" points="868.81,-124.61 873.34,-134.19 875.77,-123.87 868.81,-124.61"/>
</a>
</g>
</g>
<!-- Node29&#45;&gt;Node10 -->
<g id="edge48_Node000029_Node000010" class="edge">
<title>Node29&#45;&gt;Node10</title>
<g id="a_edge48_Node000029_Node000010"><a xlink:title=" ">
<path fill="none" stroke="#63b8ff" d="M810.8,-134.98C764.96,-123.56 704.16,-108.42 661.55,-97.81"/>
<polygon fill="#63b8ff" stroke="#63b8ff" points="809.8,-138.34 820.35,-137.36 811.49,-131.54 809.8,-138.34"/>
</a>
</g>
</g>
<!-- Node29&#45;&gt;Node14 -->
<g id="edge43_Node000029_Node000014" class="edge">
<title>Node29&#45;&gt;Node14</title>
<g id="a_edge43_Node000029_Node000014"><a xlink:title=" ">
<path fill="none" stroke="#63b8ff" d="M915.51,-130.34C934.45,-120.65 956.64,-109.3 974.07,-100.38"/>
<polygon fill="#63b8ff" stroke="#63b8ff" points="914.03,-127.17 906.72,-134.84 917.21,-133.4 914.03,-127.17"/>
</a>
</g>
</g>
<!-- Node29&#45;&gt;Node16 -->
<g id="edge45_Node000029_Node000016" class="edge">
<title>Node29&#45;&gt;Node16</title>
<g id="a_edge45_Node000029_Node000016"><a xlink:title=" ">
<path fill="none" stroke="#63b8ff" d="M939.55,-134.89C984.1,-123.76 1042.71,-109.1 1084.87,-98.56"/>
<polygon fill="#63b8ff" stroke="#63b8ff" points="938.87,-131.46 930.02,-137.28 940.57,-138.25 938.87,-131.46"/>
</a>
</g>
</g>
<!-- Node29&#45;&gt;Node20 -->
<g id="edge46_Node000029_Node000020" class="edge">
<title>Node29&#45;&gt;Node20</title>
<g id="a_edge46_Node000029_Node000020"><a xlink:title=" ">
<path fill="none" stroke="#63b8ff" d="M939.62,-135.65C1055.89,-114.36 1088.59,-119.85 1202.12,-100 1205.06,-99.49 1208.07,-98.94 1211.09,-98.36"/>
<polygon fill="#63b8ff" stroke="#63b8ff" points="939.16,-132.18 929.97,-137.45 940.44,-139.06 939.16,-132.18"/>
</a>
</g>
</g>
<!-- Node30&#45;&gt;Node6 -->
<g id="edge51_Node000030_Node000006" class="edge">
<title>Node30&#45;&gt;Node6</title>
<g id="a_edge51_Node000030_Node000006"><a xlink:title=" ">
<path fill="none" stroke="#63b8ff" d="M675.01,-133.34C633,-122.75 580.24,-109.46 540.68,-99.5"/>
<polygon fill="#63b8ff" stroke="#63b8ff" points="673.98,-136.69 684.53,-135.74 675.69,-129.9 673.98,-136.69"/>
</a>
</g>
</g>
<!-- Node30&#45;&gt;Node8 -->
<g id="edge55_Node000030_Node000008" class="edge">
<title>Node30&#45;&gt;Node8</title>
<g id="a_edge55_Node000030_Node000008"><a xlink:title=" ">
<path fill="none" stroke="#63b8ff" d="M783.88,-130.2C801.89,-120.54 822.92,-109.26 839.47,-100.38"/>
<polygon fill="#63b8ff" stroke="#63b8ff" points="782.45,-127 775.3,-134.81 785.76,-133.17 782.45,-127"/>
</a>
</g>
</g>
<!-- Node30&#45;&gt;Node10 -->
<g id="edge56_Node000030_Node000010" class="edge">
<title>Node30&#45;&gt;Node10</title>
<g id="a_edge56_Node000030_Node000010"><a xlink:title=" ">
<path fill="none" stroke="#63b8ff" d="M703.14,-130.47C683.25,-120.75 659.91,-109.34 641.58,-100.38"/>
<polygon fill="#63b8ff" stroke="#63b8ff" points="701.59,-133.61 712.11,-134.86 704.67,-127.32 701.59,-133.61"/>
</a>
</g>
</g>
<!-- Node30&#45;&gt;Node14 -->
<g id="edge50_Node000030_Node000014" class="edge">
<title>Node30&#45;&gt;Node14</title>
<g id="a_edge50_Node000030_Node000014"><a xlink:title=" ">
<path fill="none" stroke="#63b8ff" d="M815.25,-133.13C855.33,-122.92 905.1,-110.23 943.49,-100.45"/>
<polygon fill="#63b8ff" stroke="#63b8ff" points="814.51,-129.71 805.69,-135.57 816.24,-136.49 814.51,-129.71"/>
</a>
</g>
</g>
<!-- Node30&#45;&gt;Node16 -->
<g id="edge54_Node000030_Node000016" class="edge">
<title>Node30&#45;&gt;Node16</title>
<g id="a_edge54_Node000030_Node000016"><a xlink:title=" ">
<path fill="none" stroke="#63b8ff" d="M815.12,-135.74C930.77,-115.67 963.06,-120.79 1075.12,-100 1078.27,-99.42 1081.49,-98.78 1084.73,-98.11"/>
<polygon fill="#63b8ff" stroke="#63b8ff" points="814.77,-132.25 805.53,-137.44 815.99,-139.15 814.77,-132.25"/>
</a>
</g>
</g>
<!-- Node31 -->
<g id="Node000031" class="node">
<title>Node31</title>
<g id="a_Node000031"><a xlink:href="Animation_8hpp.html" target="_top" xlink:title=" ">
<polygon fill="white" stroke="#666666" points="794.62,-100 679.62,-100 679.62,-68 794.62,-68 794.62,-100"/>
<text xml:space="preserve" text-anchor="start" x="687.62" y="-86.5" font-family="Helvetica,sans-Serif" font-size="10.00">systems/animation/src</text>
<text xml:space="preserve" text-anchor="middle" x="737.12" y="-74.5" font-family="Helvetica,sans-Serif" font-size="10.00">/Animation.hpp</text>
</a>
</g>
</g>
<!-- Node30&#45;&gt;Node31 -->
<g id="edge52_Node000030_Node000031" class="edge">
<title>Node30&#45;&gt;Node31</title>
<g id="a_edge52_Node000030_Node000031"><a xlink:title=" ">
<path fill="none" stroke="#63b8ff" d="M741.89,-124.31C740.9,-116.12 739.84,-107.38 738.97,-100.22"/>
<polygon fill="#63b8ff" stroke="#63b8ff" points="738.41,-124.68 743.09,-134.19 745.36,-123.84 738.41,-124.68"/>
</a>
</g>
</g>
<!-- Node32 -->
<g id="Node000032" class="node">
<title>Node32</title>
<g id="a_Node000032"><a xlink:href="Animation_8cpp.html" target="_top" xlink:title=" ">
<polygon fill="white" stroke="#666666" points="794.62,-32 679.62,-32 679.62,0 794.62,0 794.62,-32"/>
<text xml:space="preserve" text-anchor="start" x="687.62" y="-18.5" font-family="Helvetica,sans-Serif" font-size="10.00">systems/animation/src</text>
<text xml:space="preserve" text-anchor="middle" x="737.12" y="-6.5" font-family="Helvetica,sans-Serif" font-size="10.00">/Animation.cpp</text>
</a>
</g>
</g>
<!-- Node31&#45;&gt;Node32 -->
<g id="edge53_Node000031_Node000032" class="edge">
<title>Node31&#45;&gt;Node32</title>
<g id="a_edge53_Node000031_Node000032"><a xlink:title=" ">
<path fill="none" stroke="#63b8ff" d="M737.12,-56.31C737.12,-48.12 737.12,-39.38 737.12,-32.22"/>
<polygon fill="#63b8ff" stroke="#63b8ff" points="733.63,-56.18 737.13,-66.18 740.63,-56.18 733.63,-56.18"/>
</a>
</g>
</g>
<!-- Node35&#45;&gt;Node6 -->
<g id="edge61_Node000035_Node000006" class="edge">
<title>Node35&#45;&gt;Node6</title>
<g id="a_edge61_Node000035_Node000006"><a xlink:title=" ">
<path fill="none" stroke="#63b8ff" d="M574.07,-130.47C554.63,-120.75 531.8,-109.34 513.88,-100.38"/>
<polygon fill="#63b8ff" stroke="#63b8ff" points="572.31,-133.51 582.82,-134.85 575.44,-127.25 572.31,-133.51"/>
</a>
</g>
</g>
<!-- Node35&#45;&gt;Node8 -->
<g id="edge62_Node000035_Node000008" class="edge">
<title>Node35&#45;&gt;Node8</title>
<g id="a_edge62_Node000035_Node000008"><a xlink:title=" ">
<path fill="none" stroke="#63b8ff" d="M679.43,-134.22C720.41,-123.53 772.98,-109.82 812.22,-99.58"/>
<polygon fill="#63b8ff" stroke="#63b8ff" points="678.73,-130.79 669.94,-136.7 680.49,-137.56 678.73,-130.79"/>
</a>
</g>
</g>
<!-- Node35&#45;&gt;Node10 -->
<g id="edge63_Node000035_Node000010" class="edge">
<title>Node35&#45;&gt;Node10</title>
<g id="a_edge63_Node000035_Node000010"><a xlink:title=" ">
<path fill="none" stroke="#63b8ff" d="M613.1,-124.31C612.48,-116.12 611.82,-107.38 611.28,-100.22"/>
<polygon fill="#63b8ff" stroke="#63b8ff" points="609.61,-124.48 613.85,-134.18 616.59,-123.95 609.61,-124.48"/>
</a>
</g>
</g>
<!-- Node35&#45;&gt;Node14 -->
<g id="edge60_Node000035_Node000014" class="edge">
<title>Node35&#45;&gt;Node14</title>
<g id="a_edge60_Node000035_Node000014"><a xlink:title=" ">
<path fill="none" stroke="#63b8ff" d="M679.62,-135.64C791.94,-114.78 823.5,-119.27 933.12,-100 935.85,-99.52 938.64,-99.01 941.45,-98.48"/>
<polygon fill="#63b8ff" stroke="#63b8ff" points="679.15,-132.17 669.97,-137.46 680.45,-139.04 679.15,-132.17"/>
</a>
</g>
</g>
</g>
</svg>
