<?xml version="1.0" encoding="UTF-8" standalone="no"?>
<!DOCTYPE svg PUBLIC "-//W3C//DTD SVG 1.1//EN"
 "http://www.w3.org/Graphics/SVG/1.1/DTD/svg11.dtd">
<!-- Generated by graphviz version 14.0.1 (0)
 -->
<!-- Title: ecs/ComponentRegistry.hpp Pages: 1 -->
<svg width="799pt" height="208pt"
 viewBox="0.00 0.00 799.00 208.00" xmlns="http://www.w3.org/2000/svg" xmlns:xlink="http://www.w3.org/1999/xlink">
<g id="graph0" class="graph" transform="scale(1 1) rotate(0) translate(4 204)">
<title>ecs/ComponentRegistry.hpp</title>
<!-- Node1 -->
<g id="Node000001" class="node">
<title>Node1</title>
<g id="a_Node000001"><a xlink:title=" ">
<polygon fill="#999999" stroke="#666666" points="455.38,-200 315.62,-200 315.62,-180 455.38,-180 455.38,-200"/>
<text xml:space="preserve" text-anchor="middle" x="385.5" y="-186.5" font-family="Helvetica,sans-Serif" font-size="10.00">ecs/ComponentRegistry.hpp</text>
</a>
</g>
</g>
<!-- Node2 -->
<g id="Node000002" class="node">
<title>Node2</title>
<g id="a_Node000002"><a xlink:href="Registry_8hpp.html" target="_top" xlink:title=" ">
<polygon fill="white" stroke="#666666" points="394.25,-88 304.75,-88 304.75,-68 394.25,-68 394.25,-88"/>
<text xml:space="preserve" text-anchor="middle" x="349.5" y="-74.5" font-family="Helvetica,sans-Serif" font-size="10.00">ecs/Registry.hpp</text>
</a>
</g>
</g>
<!-- Node1&#45;&gt;Node2 -->
<g id="edge1_Node000001_Node000002" class="edge">
<title>Node1&#45;&gt;Node2</title>
<g id="a_edge1_Node000001_Node000002"><a xlink:title=" ">
<path fill="none" stroke="#63b8ff" d="M377.63,-169.16C374.64,-161.37 371.28,-152.31 368.5,-144 361.94,-124.38 355.42,-101.01 351.98,-88.33"/>
<polygon fill="#63b8ff" stroke="#63b8ff" points="374.32,-170.32 381.22,-178.36 380.84,-167.77 374.32,-170.32"/>
</a>
</g>
</g>
<!-- Node9 -->
<g id="Node000009" class="node">
<title>Node9</title>
<g id="a_Node000009"><a xlink:href="System_8hpp.html" target="_top" xlink:title=" ">
<polygon fill="white" stroke="#666666" points="465.12,-144 377.88,-144 377.88,-124 465.12,-124 465.12,-144"/>
<text xml:space="preserve" text-anchor="middle" x="421.5" y="-130.5" font-family="Helvetica,sans-Serif" font-size="10.00">ecs/System.hpp</text>
</a>
</g>
</g>
<!-- Node1&#45;&gt;Node9 -->
<g id="edge8_Node000001_Node000009" class="edge">
<title>Node1&#45;&gt;Node9</title>
<g id="a_edge8_Node000001_Node000009"><a xlink:title=" ">
<path fill="none" stroke="#63b8ff" d="M398.07,-170.15C403.9,-161.4 410.57,-151.39 415.3,-144.3"/>
<polygon fill="#63b8ff" stroke="#63b8ff" points="395.25,-168.07 392.61,-178.33 401.07,-171.96 395.25,-168.07"/>
</a>
</g>
</g>
<!-- Node3 -->
<g id="Node000003" class="node">
<title>Node3</title>
<g id="a_Node000003"><a xlink:href="ecs_2systems_2inputHandler_2src_2InputHandler_8hpp.html" target="_top" xlink:title=" ">
<polygon fill="white" stroke="#666666" points="542.5,-32 412.5,-32 412.5,0 542.5,0 542.5,-32"/>
<text xml:space="preserve" text-anchor="start" x="420.5" y="-18.5" font-family="Helvetica,sans-Serif" font-size="10.00">ecs/systems/inputHandler</text>
<text xml:space="preserve" text-anchor="middle" x="477.5" y="-6.5" font-family="Helvetica,sans-Serif" font-size="10.00">/src/InputHandler.hpp</text>
</a>
</g>
</g>
<!-- Node2&#45;&gt;Node3 -->
<g id="edge2_Node000002_Node000003" class="edge">
<title>Node2&#45;&gt;Node3</title>
<g id="a_edge2_Node000002_Node000003"><a xlink:title=" ">
<path fill="none" stroke="#63b8ff" d="M379.68,-62.85C399.22,-53.69 424.66,-41.77 444.7,-32.37"/>
<polygon fill="#63b8ff" stroke="#63b8ff" points="378.44,-59.57 370.87,-66.98 381.41,-65.91 378.44,-59.57"/>
</a>
</g>
</g>
<!-- Node4 -->
<g id="Node000004" class="node">
<title>Node4</title>
<g id="a_Node000004"><a xlink:href="ecs_2systems_2motion_2src_2Motion_8hpp.html" target="_top" xlink:title=" ">
<polygon fill="white" stroke="#666666" points="664.75,-32 560.25,-32 560.25,0 664.75,0 664.75,-32"/>
<text xml:space="preserve" text-anchor="start" x="568.25" y="-18.5" font-family="Helvetica,sans-Serif" font-size="10.00">ecs/systems/motion</text>
<text xml:space="preserve" text-anchor="middle" x="612.5" y="-6.5" font-family="Helvetica,sans-Serif" font-size="10.00">/src/Motion.hpp</text>
</a>
</g>
</g>
<!-- Node2&#45;&gt;Node4 -->
<g id="edge3_Node000002_Node000004" class="edge">
<title>Node2&#45;&gt;Node4</title>
<g id="a_edge3_Node000002_Node000004"><a xlink:title=" ">
<path fill="none" stroke="#63b8ff" d="M404.33,-65.13C445,-56.24 501.78,-43.65 551.5,-32 554.26,-31.35 557.09,-30.68 559.95,-30"/>
<polygon fill="#63b8ff" stroke="#63b8ff" points="403.8,-61.66 394.78,-67.21 405.3,-68.5 403.8,-61.66"/>
</a>
</g>
</g>
<!-- Node5 -->
<g id="Node000005" class="node">
<title>Node5</title>
<g id="a_Node000005"><a xlink:href="Collision_8hpp.html" target="_top" xlink:title=" ">
<polygon fill="white" stroke="#666666" points="790.62,-32 682.38,-32 682.38,0 790.62,0 790.62,-32"/>
<text xml:space="preserve" text-anchor="start" x="690.38" y="-18.5" font-family="Helvetica,sans-Serif" font-size="10.00">systems/collision/src</text>
<text xml:space="preserve" text-anchor="middle" x="736.5" y="-6.5" font-family="Helvetica,sans-Serif" font-size="10.00">/Collision.hpp</text>
</a>
</g>
</g>
<!-- Node2&#45;&gt;Node5 -->
<g id="edge4_Node000002_Node000005" class="edge">
<title>Node2&#45;&gt;Node5</title>
<g id="a_edge4_Node000002_Node000005"><a xlink:title=" ">
<path fill="none" stroke="#63b8ff" d="M405.71,-70.85C470.54,-63.37 580.18,-49.55 673.5,-32 676.26,-31.48 679.09,-30.92 681.93,-30.33"/>
<polygon fill="#63b8ff" stroke="#63b8ff" points="405.57,-67.34 396.04,-71.95 406.37,-74.3 405.57,-67.34"/>
</a>
</g>
</g>
<!-- Node6 -->
<g id="Node000006" class="node">
<title>Node6</title>
<g id="a_Node000006"><a xlink:href="Death_8hpp.html" target="_top" xlink:title=" ">
<polygon fill="white" stroke="#666666" points="145,-26 0,-26 0,-6 145,-6 145,-26"/>
<text xml:space="preserve" text-anchor="middle" x="72.5" y="-12.5" font-family="Helvetica,sans-Serif" font-size="10.00">systems/death/src/Death.hpp</text>
</a>
</g>
</g>
<!-- Node2&#45;&gt;Node6 -->
<g id="edge5_Node000002_Node000006" class="edge">
<title>Node2&#45;&gt;Node6</title>
<g id="a_edge5_Node000002_Node000006"><a xlink:title=" ">
<path fill="none" stroke="#63b8ff" d="M294.83,-65.16C242.52,-53.83 164.63,-36.96 116.29,-26.48"/>
<polygon fill="#63b8ff" stroke="#63b8ff" points="293.92,-68.54 304.43,-67.24 295.4,-61.7 293.92,-68.54"/>
</a>
</g>
</g>
<!-- Node7 -->
<g id="Node000007" class="node">
<title>Node7</title>
<g id="a_Node000007"><a xlink:href="systems_2inputHandler_2src_2InputHandler_8hpp.html" target="_top" xlink:title=" ">
<polygon fill="white" stroke="#666666" points="274.12,-32 162.88,-32 162.88,0 274.12,0 274.12,-32"/>
<text xml:space="preserve" text-anchor="start" x="170.88" y="-18.5" font-family="Helvetica,sans-Serif" font-size="10.00">systems/inputHandler</text>
<text xml:space="preserve" text-anchor="middle" x="218.5" y="-6.5" font-family="Helvetica,sans-Serif" font-size="10.00">/src/InputHandler.hpp</text>
</a>
</g>
</g>
<!-- Node2&#45;&gt;Node7 -->
<g id="edge6_Node000002_Node000007" class="edge">
<title>Node2&#45;&gt;Node7</title>
<g id="a_edge6_Node000002_Node000007"><a xlink:title=" ">
<path fill="none" stroke="#63b8ff" d="M318.65,-62.87C298.73,-53.75 272.8,-41.87 252.32,-32.49"/>
<polygon fill="#63b8ff" stroke="#63b8ff" points="317.11,-66.01 327.66,-66.99 320.02,-59.65 317.11,-66.01"/>
</a>
</g>
</g>
<!-- Node8 -->
<g id="Node000008" class="node">
<title>Node8</title>
<g id="a_Node000008"><a xlink:href="systems_2motion_2src_2Motion_8hpp.html" target="_top" xlink:title=" ">
<polygon fill="white" stroke="#666666" points="394.62,-32 292.38,-32 292.38,0 394.62,0 394.62,-32"/>
<text xml:space="preserve" text-anchor="start" x="300.38" y="-18.5" font-family="Helvetica,sans-Serif" font-size="10.00">systems/motion/src</text>
<text xml:space="preserve" text-anchor="middle" x="343.5" y="-6.5" font-family="Helvetica,sans-Serif" font-size="10.00">/Motion.hpp</text>
</a>
</g>
</g>
<!-- Node2&#45;&gt;Node8 -->
<g id="edge7_Node000002_Node000008" class="edge">
<title>Node2&#45;&gt;Node8</title>
<g id="a_edge7_Node000002_Node000008"><a xlink:title=" ">
<path fill="none" stroke="#63b8ff" d="M347.43,-56.31C346.64,-48.37 345.75,-39.46 345.01,-32.14"/>
<polygon fill="#63b8ff" stroke="#63b8ff" points="343.93,-56.52 348.41,-66.12 350.9,-55.82 343.93,-56.52"/>
</a>
</g>
</g>
<!-- Node9&#45;&gt;Node2 -->
<g id="edge9_Node000009_Node000002" class="edge">
<title>Node9&#45;&gt;Node2</title>
<g id="a_edge9_Node000009_Node000002"><a xlink:title=" ">
<path fill="none" stroke="#63b8ff" d="M400.11,-116.95C387.65,-107.61 372.39,-96.16 361.9,-88.3"/>
<polygon fill="#63b8ff" stroke="#63b8ff" points="397.65,-119.49 407.75,-122.69 401.85,-113.89 397.65,-119.49"/>
</a>
</g>
</g>
<!-- Node9&#45;&gt;Node3 -->
<g id="edge10_Node000009_Node000003" class="edge">
<title>Node9&#45;&gt;Node3</title>
<g id="a_edge10_Node000009_Node000003"><a xlink:title=" ">
<path fill="none" stroke="#63b8ff" d="M431.01,-113.3C442.04,-90.45 460,-53.26 470.06,-32.41"/>
<polygon fill="#63b8ff" stroke="#63b8ff" points="427.94,-111.62 426.74,-122.14 434.24,-114.66 427.94,-111.62"/>
</a>
</g>
</g>
<!-- Node9&#45;&gt;Node4 -->
<g id="edge11_Node000009_Node000004" class="edge">
<title>Node9&#45;&gt;Node4</title>
<g id="a_edge11_Node000009_Node000004"><a xlink:title=" ">
<path fill="none" stroke="#63b8ff" d="M446.55,-117.79C483.04,-95.62 550.45,-54.69 587.12,-32.41"/>
<polygon fill="#63b8ff" stroke="#63b8ff" points="445.15,-114.54 438.42,-122.72 448.79,-120.52 445.15,-114.54"/>
</a>
</g>
</g>
<!-- Node9&#45;&gt;Node5 -->
<g id="edge12_Node000009_Node000005" class="edge">
<title>Node9&#45;&gt;Node5</title>
<g id="a_edge12_Node000009_Node000005"><a xlink:title=" ">
<path fill="none" stroke="#63b8ff" d="M457.92,-119.59C516.78,-97.91 632.48,-55.31 694.65,-32.41"/>
<polygon fill="#63b8ff" stroke="#63b8ff" points="456.87,-116.24 448.7,-122.98 459.29,-122.81 456.87,-116.24"/>
</a>
</g>
</g>
<!-- Node9&#45;&gt;Node6 -->
<g id="edge13_Node000009_Node000006" class="edge">
<title>Node9&#45;&gt;Node6</title>
<g id="a_edge13_Node000009_Node000006"><a xlink:title=" ">
<path fill="none" stroke="#63b8ff" d="M375,-120.53C343.84,-111.94 302,-99.96 265.5,-88 203.92,-67.82 132.65,-40.57 96.38,-26.41"/>
<polygon fill="#63b8ff" stroke="#63b8ff" points="373.93,-123.86 384.5,-123.13 375.78,-117.11 373.93,-123.86"/>
</a>
</g>
</g>
<!-- Node9&#45;&gt;Node7 -->
<g id="edge14_Node000009_Node000007" class="edge">
<title>Node9&#45;&gt;Node7</title>
<g id="a_edge14_Node000009_Node000007"><a xlink:title=" ">
<path fill="none" stroke="#63b8ff" d="M371.74,-120.29C347.69,-112.9 319.01,-102.22 295.5,-88 270.14,-72.66 245.86,-48.07 231.56,-32.23"/>
<polygon fill="#63b8ff" stroke="#63b8ff" points="370.75,-123.64 381.33,-123.12 372.73,-116.93 370.75,-123.64"/>
</a>
</g>
</g>
<!-- Node9&#45;&gt;Node8 -->
<g id="edge15_Node000009_Node000008" class="edge">
<title>Node9&#45;&gt;Node8</title>
<g id="a_edge15_Node000009_Node000008"><a xlink:title=" ">
<path fill="none" stroke="#63b8ff" d="M419.09,-112.93C416.73,-99.4 412.18,-81.6 403.5,-68 394.38,-53.71 380.02,-41.3 367.63,-32.3"/>
<polygon fill="#63b8ff" stroke="#63b8ff" points="415.56,-113.02 420.46,-122.41 422.49,-112.02 415.56,-113.02"/>
</a>
</g>
</g>
</g>
</svg>
