<?xml version="1.0" encoding="UTF-8" standalone="no"?>
<!DOCTYPE svg PUBLIC "-//W3C//DTD SVG 1.1//EN"
 "http://www.w3.org/Graphics/SVG/1.1/DTD/svg11.dtd">
<!-- Generated by graphviz version 14.0.1 (0)
 -->
<!-- Title: ecs/ComponentRegistry.hpp Pages: 1 -->
<svg width="287pt" height="140pt"
 viewBox="0.00 0.00 287.00 140.00" xmlns="http://www.w3.org/2000/svg" xmlns:xlink="http://www.w3.org/1999/xlink">
<g id="graph0" class="graph" transform="scale(1 1) rotate(0) translate(4 136)">
<title>ecs/ComponentRegistry.hpp</title>
<!-- Node1 -->
<g id="Node000001" class="node">
<title>Node1</title>
<g id="a_Node000001"><a xlink:title=" ">
<polygon fill="#999999" stroke="#666666" points="226.5,-132 86.75,-132 86.75,-112 226.5,-112 226.5,-132"/>
<text xml:space="preserve" text-anchor="middle" x="156.62" y="-118.5" font-family="Helvetica,sans-Serif" font-size="10.00">ecs/ComponentRegistry.hpp</text>
</a>
</g>
</g>
<!-- Node2 -->
<g id="Node000002" class="node">
<title>Node2</title>
<g id="a_Node000002"><a xlink:href="Types_8hpp.html" target="_top" xlink:title="Core type definitions used throughout the ECS (Entity Component System).">
<polygon fill="white" stroke="#666666" points="83.12,-76 22.12,-76 22.12,-56 83.12,-56 83.12,-76"/>
<text xml:space="preserve" text-anchor="middle" x="52.62" y="-62.5" font-family="Helvetica,sans-Serif" font-size="10.00">Types.hpp</text>
</a>
</g>
</g>
<!-- Node1&#45;&gt;Node2 -->
<g id="edge1_Node000001_Node000002" class="edge">
<title>Node1&#45;&gt;Node2</title>
<g id="a_edge1_Node000001_Node000002"><a xlink:title=" ">
<path fill="none" stroke="#63b8ff" d="M138.51,-111.59C122.65,-103.36 99.34,-91.26 81.01,-81.74"/>
<polygon fill="#63b8ff" stroke="#63b8ff" points="82.71,-78.68 72.23,-77.18 79.49,-84.89 82.71,-78.68"/>
</a>
</g>
</g>
<!-- Node5 -->
<g id="Node000005" class="node">
<title>Node5</title>
<g id="a_Node000005"><a xlink:title=" ">
<polygon fill="#e0e0e0" stroke="#999999" points="144.12,-76 101.12,-76 101.12,-56 144.12,-56 144.12,-76"/>
<text xml:space="preserve" text-anchor="middle" x="122.62" y="-62.5" font-family="Helvetica,sans-Serif" font-size="10.00">vector</text>
</a>
</g>
</g>
<!-- Node1&#45;&gt;Node5 -->
<g id="edge4_Node000001_Node000005" class="edge">
<title>Node1&#45;&gt;Node5</title>
<g id="a_edge4_Node000001_Node000005"><a xlink:title=" ">
<path fill="none" stroke="#63b8ff" d="M150.7,-111.59C146.27,-104.55 140.05,-94.67 134.59,-86"/>
<polygon fill="#63b8ff" stroke="#63b8ff" points="137.58,-84.18 129.29,-77.58 131.65,-87.91 137.58,-84.18"/>
</a>
</g>
</g>
<!-- Node6 -->
<g id="Node000006" class="node">
<title>Node6</title>
<g id="a_Node000006"><a xlink:title=" ">
<polygon fill="#e0e0e0" stroke="#999999" points="220.62,-76 162.62,-76 162.62,-56 220.62,-56 220.62,-76"/>
<text xml:space="preserve" text-anchor="middle" x="191.62" y="-62.5" font-family="Helvetica,sans-Serif" font-size="10.00">typeindex</text>
</a>
</g>
</g>
<!-- Node1&#45;&gt;Node6 -->
<g id="edge5_Node000001_Node000006" class="edge">
<title>Node1&#45;&gt;Node6</title>
<g id="a_edge5_Node000001_Node000006"><a xlink:title=" ">
<path fill="none" stroke="#63b8ff" d="M162.72,-111.59C167.34,-104.47 173.83,-94.45 179.49,-85.72"/>
<polygon fill="#63b8ff" stroke="#63b8ff" points="182.27,-87.86 184.78,-77.57 176.4,-84.06 182.27,-87.86"/>
</a>
</g>
</g>
<!-- Node7 -->
<g id="Node000007" class="node">
<title>Node7</title>
<g id="a_Node000007"><a xlink:title=" ">
<polygon fill="#e0e0e0" stroke="#999999" points="278.62,-76 238.62,-76 238.62,-56 278.62,-56 278.62,-76"/>
<text xml:space="preserve" text-anchor="middle" x="258.62" y="-62.5" font-family="Helvetica,sans-Serif" font-size="10.00">string</text>
</a>
</g>
</g>
<!-- Node1&#45;&gt;Node7 -->
<g id="edge6_Node000001_Node000007" class="edge">
<title>Node1&#45;&gt;Node7</title>
<g id="a_edge6_Node000001_Node000007"><a xlink:title=" ">
<path fill="none" stroke="#63b8ff" d="M174.39,-111.59C189.95,-103.36 212.81,-91.26 230.79,-81.74"/>
<polygon fill="#63b8ff" stroke="#63b8ff" points="232.18,-84.96 239.38,-77.19 228.91,-78.77 232.18,-84.96"/>
</a>
</g>
</g>
<!-- Node3 -->
<g id="Node000003" class="node">
<title>Node3</title>
<g id="a_Node000003"><a xlink:title=" ">
<polygon fill="#e0e0e0" stroke="#999999" points="45.25,-20 0,-20 0,0 45.25,0 45.25,-20"/>
<text xml:space="preserve" text-anchor="middle" x="22.62" y="-6.5" font-family="Helvetica,sans-Serif" font-size="10.00">cstdint</text>
</a>
</g>
</g>
<!-- Node2&#45;&gt;Node3 -->
<g id="edge2_Node000002_Node000003" class="edge">
<title>Node2&#45;&gt;Node3</title>
<g id="a_edge2_Node000002_Node000003"><a xlink:title=" ">
<path fill="none" stroke="#63b8ff" d="M47.4,-55.59C43.53,-48.63 38.12,-38.89 33.34,-30.29"/>
<polygon fill="#63b8ff" stroke="#63b8ff" points="36.44,-28.66 28.53,-21.62 30.32,-32.06 36.44,-28.66"/>
</a>
</g>
</g>
<!-- Node4 -->
<g id="Node000004" class="node">
<title>Node4</title>
<g id="a_Node000004"><a xlink:title=" ">
<polygon fill="#e0e0e0" stroke="#999999" points="103.62,-20 63.62,-20 63.62,0 103.62,0 103.62,-20"/>
<text xml:space="preserve" text-anchor="middle" x="83.62" y="-6.5" font-family="Helvetica,sans-Serif" font-size="10.00">bitset</text>
</a>
</g>
</g>
<!-- Node2&#45;&gt;Node4 -->
<g id="edge3_Node000002_Node000004" class="edge">
<title>Node2&#45;&gt;Node4</title>
<g id="a_edge3_Node000002_Node000004"><a xlink:title=" ">
<path fill="none" stroke="#63b8ff" d="M58.02,-55.59C62.07,-48.55 67.74,-38.67 72.72,-30"/>
<polygon fill="#63b8ff" stroke="#63b8ff" points="75.59,-32.03 77.53,-21.61 69.52,-28.54 75.59,-32.03"/>
</a>
</g>
</g>
</g>
</svg>
