<?xml version="1.0" encoding="UTF-8" standalone="no"?>
<!DOCTYPE svg PUBLIC "-//W3C//DTD SVG 1.1//EN"
 "http://www.w3.org/Graphics/SVG/1.1/DTD/svg11.dtd">
<!-- Generated by graphviz version 14.0.2 (0)
 -->
<!-- Title: ecs/ComponentRegistry.hpp Pages: 1 -->
<svg width="387pt" height="140pt"
 viewBox="0.00 0.00 387.00 140.00" xmlns="http://www.w3.org/2000/svg" xmlns:xlink="http://www.w3.org/1999/xlink">
<g id="graph0" class="graph" transform="scale(1 1) rotate(0) translate(4 136)">
<title>ecs/ComponentRegistry.hpp</title>
<!-- Node1 -->
<g id="Node000001" class="node">
<title>Node1</title>
<g id="a_Node000001"><a xlink:title=" ">
<polygon fill="#999999" stroke="#666666" points="244.88,-132 105.12,-132 105.12,-112 244.88,-112 244.88,-132"/>
<text xml:space="preserve" text-anchor="middle" x="175" y="-118.5" font-family="Helvetica,sans-Serif" font-size="10.00">ecs/ComponentRegistry.hpp</text>
</a>
</g>
</g>
<!-- Node2 -->
<g id="Node000002" class="node">
<title>Node2</title>
<g id="a_Node000002"><a xlink:title=" ">
<polygon fill="#e0e0e0" stroke="#999999" points="40,-76 0,-76 0,-56 40,-56 40,-76"/>
<text xml:space="preserve" text-anchor="middle" x="20" y="-62.5" font-family="Helvetica,sans-Serif" font-size="10.00">string</text>
</a>
</g>
</g>
<!-- Node1&#45;&gt;Node2 -->
<g id="edge1_Node000001_Node000002" class="edge">
<title>Node1&#45;&gt;Node2</title>
<g id="a_edge1_Node000001_Node000002"><a xlink:title=" ">
<path fill="none" stroke="#63b8ff" d="M148,-111.59C120.89,-102.15 79.19,-87.62 50.81,-77.73"/>
<polygon fill="#63b8ff" stroke="#63b8ff" points="52.3,-74.55 41.7,-74.56 49.99,-81.16 52.3,-74.55"/>
</a>
</g>
</g>
<!-- Node3 -->
<g id="Node000003" class="node">
<title>Node3</title>
<g id="a_Node000003"><a xlink:title=" ">
<polygon fill="#e0e0e0" stroke="#999999" points="116,-76 58,-76 58,-56 116,-56 116,-76"/>
<text xml:space="preserve" text-anchor="middle" x="87" y="-62.5" font-family="Helvetica,sans-Serif" font-size="10.00">typeindex</text>
</a>
</g>
</g>
<!-- Node1&#45;&gt;Node3 -->
<g id="edge2_Node000001_Node000003" class="edge">
<title>Node1&#45;&gt;Node3</title>
<g id="a_edge2_Node000001_Node000003"><a xlink:title=" ">
<path fill="none" stroke="#63b8ff" d="M159.67,-111.59C146.5,-103.51 127.27,-91.71 111.89,-82.27"/>
<polygon fill="#63b8ff" stroke="#63b8ff" points="114.09,-79.52 103.74,-77.27 110.43,-85.48 114.09,-79.52"/>
</a>
</g>
</g>
<!-- Node4 -->
<g id="Node000004" class="node">
<title>Node4</title>
<g id="a_Node000004"><a xlink:title=" ">
<polygon fill="#e0e0e0" stroke="#999999" points="216.38,-76 133.62,-76 133.62,-56 216.38,-56 216.38,-76"/>
<text xml:space="preserve" text-anchor="middle" x="175" y="-62.5" font-family="Helvetica,sans-Serif" font-size="10.00">unordered_map</text>
</a>
</g>
</g>
<!-- Node1&#45;&gt;Node4 -->
<g id="edge3_Node000001_Node000004" class="edge">
<title>Node1&#45;&gt;Node4</title>
<g id="a_edge3_Node000001_Node000004"><a xlink:title=" ">
<path fill="none" stroke="#63b8ff" d="M175,-111.59C175,-105.01 175,-95.96 175,-87.73"/>
<polygon fill="#63b8ff" stroke="#63b8ff" points="178.5,-87.81 175,-77.81 171.5,-87.81 178.5,-87.81"/>
</a>
</g>
</g>
<!-- Node5 -->
<g id="Node000005" class="node">
<title>Node5</title>
<g id="a_Node000005"><a xlink:title=" ">
<polygon fill="#e0e0e0" stroke="#999999" points="277.5,-76 234.5,-76 234.5,-56 277.5,-56 277.5,-76"/>
<text xml:space="preserve" text-anchor="middle" x="256" y="-62.5" font-family="Helvetica,sans-Serif" font-size="10.00">vector</text>
</a>
</g>
</g>
<!-- Node1&#45;&gt;Node5 -->
<g id="edge4_Node000001_Node000005" class="edge">
<title>Node1&#45;&gt;Node5</title>
<g id="a_edge4_Node000001_Node000005"><a xlink:title=" ">
<path fill="none" stroke="#63b8ff" d="M189.11,-111.59C201,-103.67 218.27,-92.16 232.28,-82.82"/>
<polygon fill="#63b8ff" stroke="#63b8ff" points="234.14,-85.78 240.52,-77.32 230.26,-79.95 234.14,-85.78"/>
</a>
</g>
</g>
<!-- Node6 -->
<g id="Node000006" class="node">
<title>Node6</title>
<g id="a_Node000006"><a xlink:href="Types_8hpp.html" target="_top" xlink:title="Core type definitions used throughout the ECS (Entity Component System).">
<polygon fill="white" stroke="#666666" points="356.5,-76 295.5,-76 295.5,-56 356.5,-56 356.5,-76"/>
<text xml:space="preserve" text-anchor="middle" x="326" y="-62.5" font-family="Helvetica,sans-Serif" font-size="10.00">Types.hpp</text>
</a>
</g>
</g>
<!-- Node1&#45;&gt;Node6 -->
<g id="edge5_Node000001_Node000006" class="edge">
<title>Node1&#45;&gt;Node6</title>
<g id="a_edge5_Node000001_Node000006"><a xlink:title=" ">
<path fill="none" stroke="#63b8ff" d="M201.3,-111.59C225.51,-102.94 261.68,-90 288.84,-80.29"/>
<polygon fill="#63b8ff" stroke="#63b8ff" points="289.83,-83.65 298.07,-76.99 287.47,-77.06 289.83,-83.65"/>
</a>
</g>
</g>
<!-- Node7 -->
<g id="Node000007" class="node">
<title>Node7</title>
<g id="a_Node000007"><a xlink:title=" ">
<polygon fill="#e0e0e0" stroke="#999999" points="315,-20 275,-20 275,0 315,0 315,-20"/>
<text xml:space="preserve" text-anchor="middle" x="295" y="-6.5" font-family="Helvetica,sans-Serif" font-size="10.00">bitset</text>
</a>
</g>
</g>
<!-- Node6&#45;&gt;Node7 -->
<g id="edge6_Node000006_Node000007" class="edge">
<title>Node6&#45;&gt;Node7</title>
<g id="a_edge6_Node000006_Node000007"><a xlink:title=" ">
<path fill="none" stroke="#63b8ff" d="M320.6,-55.59C316.56,-48.55 310.88,-38.67 305.91,-30"/>
<polygon fill="#63b8ff" stroke="#63b8ff" points="309.11,-28.54 301.09,-21.61 303.03,-32.03 309.11,-28.54"/>
</a>
</g>
</g>
<!-- Node8 -->
<g id="Node000008" class="node">
<title>Node8</title>
<g id="a_Node000008"><a xlink:title=" ">
<polygon fill="#e0e0e0" stroke="#999999" points="378.62,-20 333.38,-20 333.38,0 378.62,0 378.62,-20"/>
<text xml:space="preserve" text-anchor="middle" x="356" y="-6.5" font-family="Helvetica,sans-Serif" font-size="10.00">cstdint</text>
</a>
</g>
</g>
<!-- Node6&#45;&gt;Node8 -->
<g id="edge7_Node000006_Node000008" class="edge">
<title>Node6&#45;&gt;Node8</title>
<g id="a_edge7_Node000006_Node000008"><a xlink:title=" ">
<path fill="none" stroke="#63b8ff" d="M331.23,-55.59C335.1,-48.63 340.51,-38.89 345.28,-30.29"/>
<polygon fill="#63b8ff" stroke="#63b8ff" points="348.3,-32.06 350.1,-21.62 342.18,-28.66 348.3,-32.06"/>
</a>
</g>
</g>
</g>
</svg>
