<?xml version="1.0" encoding="UTF-8" standalone="no"?>
<!DOCTYPE svg PUBLIC "-//W3C//DTD SVG 1.1//EN"
 "http://www.w3.org/Graphics/SVG/1.1/DTD/svg11.dtd">
<!-- Generated by graphviz version 14.0.1 (0)
 -->
<!-- Title: ecs/ComponentRegistry.hpp Pages: 1 -->
<svg width="669pt" height="208pt"
 viewBox="0.00 0.00 669.00 208.00" xmlns="http://www.w3.org/2000/svg" xmlns:xlink="http://www.w3.org/1999/xlink">
<g id="graph0" class="graph" transform="scale(1 1) rotate(0) translate(4 204)">
<title>ecs/ComponentRegistry.hpp</title>
<!-- Node1 -->
<g id="Node000001" class="node">
<title>Node1</title>
<g id="a_Node000001"><a xlink:title=" ">
<polygon fill="#999999" stroke="#666666" points="396.5,-200 256.75,-200 256.75,-180 396.5,-180 396.5,-200"/>
<text xml:space="preserve" text-anchor="middle" x="326.62" y="-186.5" font-family="Helvetica,sans-Serif" font-size="10.00">ecs/ComponentRegistry.hpp</text>
</a>
</g>
</g>
<!-- Node2 -->
<g id="Node000002" class="node">
<title>Node2</title>
<g id="a_Node000002"><a xlink:href="Registry_8hpp.html" target="_top" xlink:title=" ">
<polygon fill="white" stroke="#666666" points="335.38,-88 245.88,-88 245.88,-68 335.38,-68 335.38,-88"/>
<text xml:space="preserve" text-anchor="middle" x="290.62" y="-74.5" font-family="Helvetica,sans-Serif" font-size="10.00">ecs/Registry.hpp</text>
</a>
</g>
</g>
<!-- Node1&#45;&gt;Node2 -->
<g id="edge1_Node000001_Node000002" class="edge">
<title>Node1&#45;&gt;Node2</title>
<g id="a_edge1_Node000001_Node000002"><a xlink:title=" ">
<path fill="none" stroke="#63b8ff" d="M318.76,-169.16C315.76,-161.37 312.4,-152.31 309.62,-144 303.06,-124.38 296.54,-101.01 293.11,-88.33"/>
<polygon fill="#63b8ff" stroke="#63b8ff" points="315.45,-170.32 322.35,-178.36 321.97,-167.77 315.45,-170.32"/>
</a>
</g>
</g>
<!-- Node8 -->
<g id="Node000008" class="node">
<title>Node8</title>
<g id="a_Node000008"><a xlink:href="System_8hpp.html" target="_top" xlink:title=" ">
<polygon fill="white" stroke="#666666" points="406.25,-144 319,-144 319,-124 406.25,-124 406.25,-144"/>
<text xml:space="preserve" text-anchor="middle" x="362.62" y="-130.5" font-family="Helvetica,sans-Serif" font-size="10.00">ecs/System.hpp</text>
</a>
</g>
</g>
<!-- Node1&#45;&gt;Node8 -->
<g id="edge7_Node000001_Node000008" class="edge">
<title>Node1&#45;&gt;Node8</title>
<g id="a_edge7_Node000001_Node000008"><a xlink:title=" ">
<path fill="none" stroke="#63b8ff" d="M339.19,-170.15C345.02,-161.4 351.7,-151.39 356.43,-144.3"/>
<polygon fill="#63b8ff" stroke="#63b8ff" points="336.37,-168.07 333.74,-178.33 342.19,-171.96 336.37,-168.07"/>
</a>
</g>
</g>
<!-- Node3 -->
<g id="Node000003" class="node">
<title>Node3</title>
<g id="a_Node000003"><a xlink:href="Collision_8hpp.html" target="_top" xlink:title=" ">
<polygon fill="white" stroke="#666666" points="357.75,-32 249.5,-32 249.5,0 357.75,0 357.75,-32"/>
<text xml:space="preserve" text-anchor="start" x="257.5" y="-18.5" font-family="Helvetica,sans-Serif" font-size="10.00">systems/collision/src</text>
<text xml:space="preserve" text-anchor="middle" x="303.62" y="-6.5" font-family="Helvetica,sans-Serif" font-size="10.00">/Collision.hpp</text>
</a>
</g>
</g>
<!-- Node2&#45;&gt;Node3 -->
<g id="edge2_Node000002_Node000003" class="edge">
<title>Node2&#45;&gt;Node3</title>
<g id="a_edge2_Node000002_Node000003"><a xlink:title=" ">
<path fill="none" stroke="#63b8ff" d="M295.05,-56.59C296.78,-48.58 298.74,-39.55 300.34,-32.14"/>
<polygon fill="#63b8ff" stroke="#63b8ff" points="291.67,-55.63 292.98,-66.15 298.51,-57.11 291.67,-55.63"/>
</a>
</g>
</g>
<!-- Node4 -->
<g id="Node000004" class="node">
<title>Node4</title>
<g id="a_Node000004"><a xlink:href="Death_8hpp.html" target="_top" xlink:title=" ">
<polygon fill="white" stroke="#666666" points="521.12,-26 376.12,-26 376.12,-6 521.12,-6 521.12,-26"/>
<text xml:space="preserve" text-anchor="middle" x="448.62" y="-12.5" font-family="Helvetica,sans-Serif" font-size="10.00">systems/death/src/Death.hpp</text>
</a>
</g>
</g>
<!-- Node2&#45;&gt;Node4 -->
<g id="edge3_Node000002_Node000004" class="edge">
<title>Node2&#45;&gt;Node4</title>
<g id="a_edge3_Node000002_Node000004"><a xlink:title=" ">
<path fill="none" stroke="#63b8ff" d="M326.07,-63.54C355.83,-52.24 397.57,-36.39 423.85,-26.41"/>
<polygon fill="#63b8ff" stroke="#63b8ff" points="324.83,-60.27 316.73,-67.09 327.32,-66.81 324.83,-60.27"/>
</a>
</g>
</g>
<!-- Node5 -->
<g id="Node000005" class="node">
<title>Node5</title>
<g id="a_Node000005"><a xlink:href="DomainHandler_8hpp.html" target="_top" xlink:title=" ">
<polygon fill="white" stroke="#666666" points="660.5,-32 538.75,-32 538.75,0 660.5,0 660.5,-32"/>
<text xml:space="preserve" text-anchor="start" x="546.75" y="-18.5" font-family="Helvetica,sans-Serif" font-size="10.00">systems/domainHandler</text>
<text xml:space="preserve" text-anchor="middle" x="599.62" y="-6.5" font-family="Helvetica,sans-Serif" font-size="10.00">/src/DomainHandler.hpp</text>
</a>
</g>
</g>
<!-- Node2&#45;&gt;Node5 -->
<g id="edge4_Node000002_Node000005" class="edge">
<title>Node2&#45;&gt;Node5</title>
<g id="a_edge4_Node000002_Node000005"><a xlink:title=" ">
<path fill="none" stroke="#63b8ff" d="M347.06,-66.89C395.75,-58.06 467.92,-44.69 530.62,-32 533.15,-31.49 535.72,-30.96 538.32,-30.42"/>
<polygon fill="#63b8ff" stroke="#63b8ff" points="346.52,-63.43 337.31,-68.66 347.77,-70.32 346.52,-63.43"/>
</a>
</g>
</g>
<!-- Node6 -->
<g id="Node000006" class="node">
<title>Node6</title>
<g id="a_Node000006"><a xlink:href="InputHandler_8hpp.html" target="_top" xlink:title=" ">
<polygon fill="white" stroke="#666666" points="111.25,-32 0,-32 0,0 111.25,0 111.25,-32"/>
<text xml:space="preserve" text-anchor="start" x="8" y="-18.5" font-family="Helvetica,sans-Serif" font-size="10.00">systems/inputHandler</text>
<text xml:space="preserve" text-anchor="middle" x="55.62" y="-6.5" font-family="Helvetica,sans-Serif" font-size="10.00">/src/InputHandler.hpp</text>
</a>
</g>
</g>
<!-- Node2&#45;&gt;Node6 -->
<g id="edge5_Node000002_Node000006" class="edge">
<title>Node2&#45;&gt;Node6</title>
<g id="a_edge5_Node000002_Node000006"><a xlink:title=" ">
<path fill="none" stroke="#63b8ff" d="M242.87,-64.81C204.88,-55.11 151.64,-41.51 111.64,-31.3"/>
<polygon fill="#63b8ff" stroke="#63b8ff" points="241.63,-68.1 252.18,-67.18 243.36,-61.32 241.63,-68.1"/>
</a>
</g>
</g>
<!-- Node7 -->
<g id="Node000007" class="node">
<title>Node7</title>
<g id="a_Node000007"><a xlink:href="Motion_8hpp.html" target="_top" xlink:title=" ">
<polygon fill="white" stroke="#666666" points="231.75,-32 129.5,-32 129.5,0 231.75,0 231.75,-32"/>
<text xml:space="preserve" text-anchor="start" x="137.5" y="-18.5" font-family="Helvetica,sans-Serif" font-size="10.00">systems/motion/src</text>
<text xml:space="preserve" text-anchor="middle" x="180.62" y="-6.5" font-family="Helvetica,sans-Serif" font-size="10.00">/Motion.hpp</text>
</a>
</g>
</g>
<!-- Node2&#45;&gt;Node7 -->
<g id="edge6_Node000002_Node000007" class="edge">
<title>Node2&#45;&gt;Node7</title>
<g id="a_edge6_Node000002_Node000007"><a xlink:title=" ">
<path fill="none" stroke="#63b8ff" d="M263.75,-62.34C247.09,-53.25 225.71,-41.59 208.81,-32.37"/>
<polygon fill="#63b8ff" stroke="#63b8ff" points="261.65,-65.18 272.11,-66.9 265.01,-59.04 261.65,-65.18"/>
</a>
</g>
</g>
<!-- Node8&#45;&gt;Node2 -->
<g id="edge8_Node000008_Node000002" class="edge">
<title>Node8&#45;&gt;Node2</title>
<g id="a_edge8_Node000008_Node000002"><a xlink:title=" ">
<path fill="none" stroke="#63b8ff" d="M341.23,-116.95C328.78,-107.61 313.51,-96.16 303.02,-88.3"/>
<polygon fill="#63b8ff" stroke="#63b8ff" points="338.77,-119.49 348.87,-122.69 342.97,-113.89 338.77,-119.49"/>
</a>
</g>
</g>
<!-- Node8&#45;&gt;Node3 -->
<g id="edge9_Node000008_Node000003" class="edge">
<title>Node8&#45;&gt;Node3</title>
<g id="a_edge9_Node000008_Node000003"><a xlink:title=" ">
<path fill="none" stroke="#63b8ff" d="M359.19,-112.56C356.44,-99.35 351.83,-82.06 344.62,-68 337.89,-54.86 327.42,-41.91 318.75,-32.35"/>
<polygon fill="#63b8ff" stroke="#63b8ff" points="355.72,-113.07 361,-122.25 362.6,-111.78 355.72,-113.07"/>
</a>
</g>
</g>
<!-- Node8&#45;&gt;Node4 -->
<g id="edge10_Node000008_Node000004" class="edge">
<title>Node8&#45;&gt;Node4</title>
<g id="a_edge10_Node000008_Node000004"><a xlink:title=" ">
<path fill="none" stroke="#63b8ff" d="M376.5,-114.28C395.16,-89.12 427.61,-45.35 441.73,-26.3"/>
<polygon fill="#63b8ff" stroke="#63b8ff" points="373.71,-112.17 370.56,-122.29 379.33,-116.34 373.71,-112.17"/>
</a>
</g>
</g>
<!-- Node8&#45;&gt;Node5 -->
<g id="edge11_Node000008_Node000005" class="edge">
<title>Node8&#45;&gt;Node5</title>
<g id="a_edge11_Node000008_Node000005"><a xlink:title=" ">
<path fill="none" stroke="#63b8ff" d="M392.27,-118.49C437.2,-96.5 522.14,-54.92 568.13,-32.41"/>
<polygon fill="#63b8ff" stroke="#63b8ff" points="390.82,-115.3 383.38,-122.84 393.9,-121.59 390.82,-115.3"/>
</a>
</g>
</g>
<!-- Node8&#45;&gt;Node6 -->
<g id="edge12_Node000008_Node000006" class="edge">
<title>Node8&#45;&gt;Node6</title>
<g id="a_edge12_Node000008_Node000006"><a xlink:title=" ">
<path fill="none" stroke="#63b8ff" d="M315.18,-120.51C285.4,-112.25 246.38,-100.63 212.62,-88 167.8,-71.22 117.68,-47.68 86.39,-32.39"/>
<polygon fill="#63b8ff" stroke="#63b8ff" points="314.08,-123.84 324.65,-123.11 315.93,-117.09 314.08,-123.84"/>
</a>
</g>
</g>
<!-- Node8&#45;&gt;Node7 -->
<g id="edge13_Node000008_Node000007" class="edge">
<title>Node8&#45;&gt;Node7</title>
<g id="a_edge13_Node000008_Node000007"><a xlink:title=" ">
<path fill="none" stroke="#63b8ff" d="M307.8,-120.67C284.41,-113.65 257.71,-103.15 236.62,-88 215.84,-73.07 198.82,-48.37 189.2,-32.39"/>
<polygon fill="#63b8ff" stroke="#63b8ff" points="306.6,-123.97 317.17,-123.34 308.51,-117.24 306.6,-123.97"/>
</a>
</g>
</g>
</g>
</svg>
