<?xml version="1.0" encoding="UTF-8" standalone="no"?>
<!DOCTYPE svg PUBLIC "-//W3C//DTD SVG 1.1//EN"
 "http://www.w3.org/Graphics/SVG/1.1/DTD/svg11.dtd">
<!-- Generated by graphviz version 14.0.1 (0)
 -->
<!-- Title: systems/death/src/Death.hpp Pages: 1 -->
<svg width="617pt" height="320pt"
 viewBox="0.00 0.00 617.00 320.00" xmlns="http://www.w3.org/2000/svg" xmlns:xlink="http://www.w3.org/1999/xlink">
<g id="graph0" class="graph" transform="scale(1 1) rotate(0) translate(4 316)">
<title>systems/death/src/Death.hpp</title>
<!-- Node1 -->
<g id="Node000001" class="node">
<title>Node1</title>
<g id="a_Node000001"><a xlink:title=" ">
<polygon fill="#999999" stroke="#666666" points="441.5,-312 296.5,-312 296.5,-292 441.5,-292 441.5,-312"/>
<text xml:space="preserve" text-anchor="middle" x="369" y="-298.5" font-family="Helvetica,sans-Serif" font-size="10.00">systems/death/src/Death.hpp</text>
</a>
</g>
</g>
<!-- Node2 -->
<g id="Node000002" class="node">
<title>Node2</title>
<g id="a_Node000002"><a xlink:href="Registry_8hpp.html" target="_top" xlink:title=" ">
<polygon fill="white" stroke="#666666" points="384.25,-250 267.75,-250 267.75,-230 384.25,-230 384.25,-250"/>
<text xml:space="preserve" text-anchor="middle" x="326" y="-236.5" font-family="Helvetica,sans-Serif" font-size="10.00">../../../ecs/Registry.hpp</text>
</a>
</g>
</g>
<!-- Node1&#45;&gt;Node2 -->
<g id="edge1_Node000001_Node000002" class="edge">
<title>Node1&#45;&gt;Node2</title>
<g id="a_edge1_Node000001_Node000002"><a xlink:title=" ">
<path fill="none" stroke="#63b8ff" d="M362.28,-291.62C356.12,-283.03 346.83,-270.07 339.19,-259.41"/>
<polygon fill="#63b8ff" stroke="#63b8ff" points="342.08,-257.43 333.41,-251.34 336.39,-261.51 342.08,-257.43"/>
</a>
</g>
</g>
<!-- Node10 -->
<g id="Node000010" class="node">
<title>Node10</title>
<g id="a_Node000010"><a xlink:href="System_8hpp.html" target="_top" xlink:title=" ">
<polygon fill="white" stroke="#666666" points="87.25,-188 18.75,-188 18.75,-168 87.25,-168 87.25,-188"/>
<text xml:space="preserve" text-anchor="middle" x="53" y="-174.5" font-family="Helvetica,sans-Serif" font-size="10.00">System.hpp</text>
</a>
</g>
</g>
<!-- Node1&#45;&gt;Node10 -->
<g id="edge26_Node000001_Node000010" class="edge">
<title>Node1&#45;&gt;Node10</title>
<g id="a_edge26_Node000001_Node000010"><a xlink:title=" ">
<path fill="none" stroke="#63b8ff" d="M344.47,-291.53C288.68,-269.99 152.15,-217.28 87.73,-192.41"/>
<polygon fill="#63b8ff" stroke="#63b8ff" points="89.3,-189.26 78.71,-188.93 86.78,-195.79 89.3,-189.26"/>
</a>
</g>
</g>
<!-- Node14 -->
<g id="Node000014" class="node">
<title>Node14</title>
<g id="a_Node000014"><a xlink:title=" ">
<polygon fill="#e0e0e0" stroke="#999999" points="574.88,-188 519.12,-188 519.12,-168 574.88,-168 574.88,-188"/>
<text xml:space="preserve" text-anchor="middle" x="547" y="-174.5" font-family="Helvetica,sans-Serif" font-size="10.00">algorithm</text>
</a>
</g>
</g>
<!-- Node1&#45;&gt;Node14 -->
<g id="edge28_Node000001_Node000014" class="edge">
<title>Node1&#45;&gt;Node14</title>
<g id="a_edge28_Node000001_Node000014"><a xlink:title=" ">
<path fill="none" stroke="#63b8ff" d="M374.29,-291.62C383.73,-275.65 404.96,-243.05 431,-224 443.66,-214.74 479.29,-201.51 507.75,-191.78"/>
<polygon fill="#63b8ff" stroke="#63b8ff" points="508.84,-195.11 517.2,-188.6 506.6,-188.48 508.84,-195.11"/>
</a>
</g>
</g>
<!-- Node17 -->
<g id="Node000017" class="node">
<title>Node17</title>
<g id="a_Node000017"><a xlink:href="Health_8hpp.html" target="_top" xlink:title=" ">
<polygon fill="white" stroke="#666666" points="552,-256 440,-256 440,-224 552,-224 552,-256"/>
<text xml:space="preserve" text-anchor="start" x="448" y="-242.5" font-family="Helvetica,sans-Serif" font-size="10.00">../../../components</text>
<text xml:space="preserve" text-anchor="middle" x="496" y="-230.5" font-family="Helvetica,sans-Serif" font-size="10.00">/health/src/Health.hpp</text>
</a>
</g>
</g>
<!-- Node1&#45;&gt;Node17 -->
<g id="edge27_Node000001_Node000017" class="edge">
<title>Node1&#45;&gt;Node17</title>
<g id="a_edge27_Node000001_Node000017"><a xlink:title=" ">
<path fill="none" stroke="#63b8ff" d="M388.84,-291.62C405.99,-283.52 431.37,-271.53 453.12,-261.26"/>
<polygon fill="#63b8ff" stroke="#63b8ff" points="454.54,-264.46 462.09,-257.02 451.55,-258.13 454.54,-264.46"/>
</a>
</g>
</g>
<!-- Node3 -->
<g id="Node000003" class="node">
<title>Node3</title>
<g id="a_Node000003"><a xlink:href="Types_8hpp.html" target="_top" xlink:title="Core type definitions used throughout the ECS (Entity Component System).">
<polygon fill="white" stroke="#666666" points="128.5,-76 67.5,-76 67.5,-56 128.5,-56 128.5,-76"/>
<text xml:space="preserve" text-anchor="middle" x="98" y="-62.5" font-family="Helvetica,sans-Serif" font-size="10.00">Types.hpp</text>
</a>
</g>
</g>
<!-- Node2&#45;&gt;Node3 -->
<g id="edge2_Node000002_Node000003" class="edge">
<title>Node2&#45;&gt;Node3</title>
<g id="a_edge2_Node000002_Node000003"><a xlink:title=" ">
<path fill="none" stroke="#63b8ff" d="M286.68,-229.58C255.89,-221.25 212.62,-207.38 178,-188 143.84,-168.87 129.87,-165.74 110,-132 102.06,-118.51 99.17,-100.94 98.21,-87.47"/>
<polygon fill="#63b8ff" stroke="#63b8ff" points="101.71,-87.45 97.83,-77.59 94.72,-87.72 101.71,-87.45"/>
</a>
</g>
</g>
<!-- Node6 -->
<g id="Node000006" class="node">
<title>Node6</title>
<g id="a_Node000006"><a xlink:href="ComponentRegistry_8hpp.html" target="_top" xlink:title=" ">
<polygon fill="white" stroke="#666666" points="240.5,-132 119.5,-132 119.5,-112 240.5,-112 240.5,-132"/>
<text xml:space="preserve" text-anchor="middle" x="180" y="-118.5" font-family="Helvetica,sans-Serif" font-size="10.00">ComponentRegistry.hpp</text>
</a>
</g>
</g>
<!-- Node2&#45;&gt;Node6 -->
<g id="edge5_Node000002_Node000006" class="edge">
<title>Node2&#45;&gt;Node6</title>
<g id="a_edge5_Node000002_Node000006"><a xlink:title=" ">
<path fill="none" stroke="#63b8ff" d="M317.12,-229.69C303.41,-215.55 275.93,-188.18 250,-168 236.1,-157.18 219.56,-146.46 206.05,-138.2"/>
<polygon fill="#63b8ff" stroke="#63b8ff" points="208.08,-135.33 197.7,-133.18 204.47,-141.33 208.08,-135.33"/>
</a>
</g>
</g>
<!-- Node7 -->
<g id="Node000007" class="node">
<title>Node7</title>
<g id="a_Node000007"><a xlink:title=" ">
<polygon fill="#e0e0e0" stroke="#999999" points="328.5,-76 285.5,-76 285.5,-56 328.5,-56 328.5,-76"/>
<text xml:space="preserve" text-anchor="middle" x="307" y="-62.5" font-family="Helvetica,sans-Serif" font-size="10.00">vector</text>
</a>
</g>
</g>
<!-- Node2&#45;&gt;Node7 -->
<g id="edge20_Node000002_Node000007" class="edge">
<title>Node2&#45;&gt;Node7</title>
<g id="a_edge20_Node000002_Node000007"><a xlink:title=" ">
<path fill="none" stroke="#63b8ff" d="M324.95,-229.51C321.97,-202.54 313.41,-125.04 309.28,-87.65"/>
<polygon fill="#63b8ff" stroke="#63b8ff" points="312.77,-87.31 308.19,-77.76 305.81,-88.08 312.77,-87.31"/>
</a>
</g>
</g>
<!-- Node2&#45;&gt;Node10 -->
<g id="edge10_Node000002_Node000010" class="edge">
<title>Node2&#45;&gt;Node10</title>
<g id="a_edge10_Node000002_Node000010"><a xlink:title=" ">
<path fill="none" stroke="#63b8ff" d="M283.04,-229.56C232.79,-218.51 149.94,-200.3 98.58,-189.02"/>
<polygon fill="#63b8ff" stroke="#63b8ff" points="99.49,-185.63 88.97,-186.91 97.99,-192.47 99.49,-185.63"/>
</a>
</g>
</g>
<!-- Node11 -->
<g id="Node000011" class="node">
<title>Node11</title>
<g id="a_Node000011"><a xlink:href="EntityManager_8hpp.html" target="_top" xlink:title=" ">
<polygon fill="white" stroke="#666666" points="530.88,-132 433.12,-132 433.12,-112 530.88,-112 530.88,-132"/>
<text xml:space="preserve" text-anchor="middle" x="482" y="-118.5" font-family="Helvetica,sans-Serif" font-size="10.00">EntityManager.hpp</text>
</a>
</g>
</g>
<!-- Node2&#45;&gt;Node11 -->
<g id="edge15_Node000002_Node000011" class="edge">
<title>Node2&#45;&gt;Node11</title>
<g id="a_edge15_Node000002_Node000011"><a xlink:title=" ">
<path fill="none" stroke="#63b8ff" d="M335.5,-229.66C350.16,-215.48 379.5,-188.05 407,-168 422.11,-156.98 440.03,-146.16 454.57,-137.88"/>
<polygon fill="#63b8ff" stroke="#63b8ff" points="456.12,-141.02 463.14,-133.08 452.71,-134.91 456.12,-141.02"/>
</a>
</g>
</g>
<!-- Node12 -->
<g id="Node000012" class="node">
<title>Node12</title>
<g id="a_Node000012"><a xlink:href="SparseSet_8hpp.html" target="_top" xlink:title=" ">
<polygon fill="white" stroke="#666666" points="415.25,-132 334.75,-132 334.75,-112 415.25,-112 415.25,-132"/>
<text xml:space="preserve" text-anchor="middle" x="375" y="-118.5" font-family="Helvetica,sans-Serif" font-size="10.00">SparseSet.hpp</text>
</a>
</g>
</g>
<!-- Node2&#45;&gt;Node12 -->
<g id="edge18_Node000002_Node000012" class="edge">
<title>Node2&#45;&gt;Node12</title>
<g id="a_edge18_Node000002_Node000012"><a xlink:title=" ">
<path fill="none" stroke="#63b8ff" d="M330.01,-229.51C337.98,-210.64 355.97,-168.05 366.63,-142.82"/>
<polygon fill="#63b8ff" stroke="#63b8ff" points="369.82,-144.27 370.48,-133.69 363.37,-141.54 369.82,-144.27"/>
</a>
</g>
</g>
<!-- Node13 -->
<g id="Node000013" class="node">
<title>Node13</title>
<g id="a_Node000013"><a xlink:title=" ">
<polygon fill="#e0e0e0" stroke="#999999" points="500.62,-188 449.38,-188 449.38,-168 500.62,-168 500.62,-188"/>
<text xml:space="preserve" text-anchor="middle" x="475" y="-174.5" font-family="Helvetica,sans-Serif" font-size="10.00">memory</text>
</a>
</g>
</g>
<!-- Node2&#45;&gt;Node13 -->
<g id="edge21_Node000002_Node000013" class="edge">
<title>Node2&#45;&gt;Node13</title>
<g id="a_edge21_Node000002_Node000013"><a xlink:title=" ">
<path fill="none" stroke="#63b8ff" d="M349.28,-229.62C373.99,-219.67 413.28,-203.85 441.35,-192.55"/>
<polygon fill="#63b8ff" stroke="#63b8ff" points="442.51,-195.86 450.48,-188.87 439.89,-189.36 442.51,-195.86"/>
</a>
</g>
</g>
<!-- Node2&#45;&gt;Node14 -->
<g id="edge22_Node000002_Node000014" class="edge">
<title>Node2&#45;&gt;Node14</title>
<g id="a_edge22_Node000002_Node000014"><a xlink:title=" ">
<path fill="none" stroke="#63b8ff" d="M360.53,-229.62C400.45,-218.79 466.02,-200.99 507.81,-189.64"/>
<polygon fill="#63b8ff" stroke="#63b8ff" points="508.48,-193.08 517.21,-187.09 506.64,-186.33 508.48,-193.08"/>
</a>
</g>
</g>
<!-- Node15 -->
<g id="Node000015" class="node">
<title>Node15</title>
<g id="a_Node000015"><a xlink:title=" ">
<polygon fill="#e0e0e0" stroke="#999999" points="240.75,-188 187.25,-188 187.25,-168 240.75,-168 240.75,-188"/>
<text xml:space="preserve" text-anchor="middle" x="214" y="-174.5" font-family="Helvetica,sans-Serif" font-size="10.00">iostream</text>
</a>
</g>
</g>
<!-- Node2&#45;&gt;Node15 -->
<g id="edge23_Node000002_Node000015" class="edge">
<title>Node2&#45;&gt;Node15</title>
<g id="a_edge23_Node000002_Node000015"><a xlink:title=" ">
<path fill="none" stroke="#63b8ff" d="M308.5,-229.62C290.5,-219.98 262.21,-204.83 241.28,-193.61"/>
<polygon fill="#63b8ff" stroke="#63b8ff" points="243.18,-190.66 232.71,-189.02 239.87,-196.83 243.18,-190.66"/>
</a>
</g>
</g>
<!-- Node16 -->
<g id="Node000016" class="node">
<title>Node16</title>
<g id="a_Node000016"><a xlink:href="Clock_8hpp.html" target="_top" xlink:title=" ">
<polygon fill="white" stroke="#666666" points="609.12,-132 548.88,-132 548.88,-112 609.12,-112 609.12,-132"/>
<text xml:space="preserve" text-anchor="middle" x="579" y="-118.5" font-family="Helvetica,sans-Serif" font-size="10.00">Clock.hpp</text>
</a>
</g>
</g>
<!-- Node2&#45;&gt;Node16 -->
<g id="edge24_Node000002_Node000016" class="edge">
<title>Node2&#45;&gt;Node16</title>
<g id="a_edge24_Node000002_Node000016"><a xlink:title=" ">
<path fill="none" stroke="#63b8ff" d="M341,-229.52C370.75,-210.75 434.82,-170.41 440,-168 471.64,-153.3 509.41,-141.4 537.58,-133.54"/>
<polygon fill="#63b8ff" stroke="#63b8ff" points="538.46,-136.93 547.18,-130.93 536.61,-130.18 538.46,-136.93"/>
</a>
</g>
</g>
<!-- Node4 -->
<g id="Node000004" class="node">
<title>Node4</title>
<g id="a_Node000004"><a xlink:title=" ">
<polygon fill="#e0e0e0" stroke="#999999" points="504.62,-20 459.38,-20 459.38,0 504.62,0 504.62,-20"/>
<text xml:space="preserve" text-anchor="middle" x="482" y="-6.5" font-family="Helvetica,sans-Serif" font-size="10.00">cstdint</text>
</a>
</g>
</g>
<!-- Node3&#45;&gt;Node4 -->
<g id="edge3_Node000003_Node000004" class="edge">
<title>Node3&#45;&gt;Node4</title>
<g id="a_edge3_Node000003_Node000004"><a xlink:title=" ">
<path fill="none" stroke="#63b8ff" d="M128.72,-58.43C133.17,-57.56 137.69,-56.72 142,-56 253.47,-37.25 386.59,-21.56 447.95,-14.71"/>
<polygon fill="#63b8ff" stroke="#63b8ff" points="448.18,-18.2 457.73,-13.62 447.41,-11.24 448.18,-18.2"/>
</a>
</g>
</g>
<!-- Node5 -->
<g id="Node000005" class="node">
<title>Node5</title>
<g id="a_Node000005"><a xlink:title=" ">
<polygon fill="#e0e0e0" stroke="#999999" points="118,-20 78,-20 78,0 118,0 118,-20"/>
<text xml:space="preserve" text-anchor="middle" x="98" y="-6.5" font-family="Helvetica,sans-Serif" font-size="10.00">bitset</text>
</a>
</g>
</g>
<!-- Node3&#45;&gt;Node5 -->
<g id="edge4_Node000003_Node000005" class="edge">
<title>Node3&#45;&gt;Node5</title>
<g id="a_edge4_Node000003_Node000005"><a xlink:title=" ">
<path fill="none" stroke="#63b8ff" d="M98,-55.59C98,-49.01 98,-39.96 98,-31.73"/>
<polygon fill="#63b8ff" stroke="#63b8ff" points="101.5,-31.81 98,-21.81 94.5,-31.81 101.5,-31.81"/>
</a>
</g>
</g>
<!-- Node6&#45;&gt;Node3 -->
<g id="edge6_Node000006_Node000003" class="edge">
<title>Node6&#45;&gt;Node3</title>
<g id="a_edge6_Node000006_Node000003"><a xlink:title=" ">
<path fill="none" stroke="#63b8ff" d="M165.72,-111.59C153.56,-103.59 135.86,-91.93 121.6,-82.54"/>
<polygon fill="#63b8ff" stroke="#63b8ff" points="123.94,-79.89 113.66,-77.31 120.09,-85.73 123.94,-79.89"/>
</a>
</g>
</g>
<!-- Node6&#45;&gt;Node7 -->
<g id="edge7_Node000006_Node000007" class="edge">
<title>Node6&#45;&gt;Node7</title>
<g id="a_edge7_Node000006_Node000007"><a xlink:title=" ">
<path fill="none" stroke="#63b8ff" d="M202.12,-111.59C222.15,-103.08 251.92,-90.42 274.62,-80.77"/>
<polygon fill="#63b8ff" stroke="#63b8ff" points="275.91,-84.02 283.74,-76.89 273.17,-77.58 275.91,-84.02"/>
</a>
</g>
</g>
<!-- Node8 -->
<g id="Node000008" class="node">
<title>Node8</title>
<g id="a_Node000008"><a xlink:title=" ">
<polygon fill="#e0e0e0" stroke="#999999" points="209,-76 151,-76 151,-56 209,-56 209,-76"/>
<text xml:space="preserve" text-anchor="middle" x="180" y="-62.5" font-family="Helvetica,sans-Serif" font-size="10.00">typeindex</text>
</a>
</g>
</g>
<!-- Node6&#45;&gt;Node8 -->
<g id="edge8_Node000006_Node000008" class="edge">
<title>Node6&#45;&gt;Node8</title>
<g id="a_edge8_Node000006_Node000008"><a xlink:title=" ">
<path fill="none" stroke="#63b8ff" d="M180,-111.59C180,-105.01 180,-95.96 180,-87.73"/>
<polygon fill="#63b8ff" stroke="#63b8ff" points="183.5,-87.81 180,-77.81 176.5,-87.81 183.5,-87.81"/>
</a>
</g>
</g>
<!-- Node9 -->
<g id="Node000009" class="node">
<title>Node9</title>
<g id="a_Node000009"><a xlink:title=" ">
<polygon fill="#e0e0e0" stroke="#999999" points="40,-76 0,-76 0,-56 40,-56 40,-76"/>
<text xml:space="preserve" text-anchor="middle" x="20" y="-62.5" font-family="Helvetica,sans-Serif" font-size="10.00">string</text>
</a>
</g>
</g>
<!-- Node6&#45;&gt;Node9 -->
<g id="edge9_Node000006_Node000009" class="edge">
<title>Node6&#45;&gt;Node9</title>
<g id="a_edge9_Node000006_Node000009"><a xlink:title=" ">
<path fill="none" stroke="#63b8ff" d="M152.13,-111.59C123.99,-102.1 80.61,-87.46 51.31,-77.57"/>
<polygon fill="#63b8ff" stroke="#63b8ff" points="52.48,-74.27 41.88,-74.38 50.24,-80.9 52.48,-74.27"/>
</a>
</g>
</g>
<!-- Node10&#45;&gt;Node3 -->
<g id="edge11_Node000010_Node000003" class="edge">
<title>Node10&#45;&gt;Node3</title>
<g id="a_edge11_Node000010_Node000003"><a xlink:title=" ">
<path fill="none" stroke="#63b8ff" d="M56.18,-167.65C60.56,-154.94 68.85,-131.54 77,-112 80.52,-103.55 84.74,-94.37 88.46,-86.52"/>
<polygon fill="#63b8ff" stroke="#63b8ff" points="91.58,-88.1 92.77,-77.57 85.28,-85.06 91.58,-88.1"/>
</a>
</g>
</g>
<!-- Node10&#45;&gt;Node6 -->
<g id="edge12_Node000010_Node000006" class="edge">
<title>Node10&#45;&gt;Node6</title>
<g id="a_edge12_Node000010_Node000006"><a xlink:title=" ">
<path fill="none" stroke="#63b8ff" d="M75.12,-167.59C95.03,-159.13 124.55,-146.58 147.21,-136.94"/>
<polygon fill="#63b8ff" stroke="#63b8ff" points="148.48,-140.21 156.31,-133.07 145.74,-133.76 148.48,-140.21"/>
</a>
</g>
</g>
<!-- Node10&#45;&gt;Node7 -->
<g id="edge14_Node000010_Node000007" class="edge">
<title>Node10&#45;&gt;Node7</title>
<g id="a_edge14_Node000010_Node000007"><a xlink:title=" ">
<path fill="none" stroke="#63b8ff" d="M87.42,-175.52C128.71,-172.37 198.78,-162.55 250,-132 269.27,-120.51 285.47,-100.27 295.62,-85.42"/>
<polygon fill="#63b8ff" stroke="#63b8ff" points="298.29,-87.73 300.81,-77.44 292.42,-83.92 298.29,-87.73"/>
</a>
</g>
</g>
<!-- Node10&#45;&gt;Node9 -->
<g id="edge13_Node000010_Node000009" class="edge">
<title>Node10&#45;&gt;Node9</title>
<g id="a_edge13_Node000010_Node000009"><a xlink:title=" ">
<path fill="none" stroke="#63b8ff" d="M50.06,-167.71C47.19,-158.62 42.73,-144.38 39,-132 34.47,-116.99 29.5,-99.97 25.78,-87.12"/>
<polygon fill="#63b8ff" stroke="#63b8ff" points="29.21,-86.36 23.08,-77.73 22.48,-88.3 29.21,-86.36"/>
</a>
</g>
</g>
<!-- Node11&#45;&gt;Node4 -->
<g id="edge17_Node000011_Node000004" class="edge">
<title>Node11&#45;&gt;Node4</title>
<g id="a_edge17_Node000011_Node000004"><a xlink:title=" ">
<path fill="none" stroke="#63b8ff" d="M482,-111.62C482,-94.01 482,-55.59 482,-31.65"/>
<polygon fill="#63b8ff" stroke="#63b8ff" points="485.5,-31.87 482,-21.87 478.5,-31.87 485.5,-31.87"/>
</a>
</g>
</g>
<!-- Node11&#45;&gt;Node7 -->
<g id="edge16_Node000011_Node000007" class="edge">
<title>Node11&#45;&gt;Node7</title>
<g id="a_edge16_Node000011_Node000007"><a xlink:title=" ">
<path fill="none" stroke="#63b8ff" d="M451.52,-111.59C420.16,-101.92 371.49,-86.9 339.43,-77.01"/>
<polygon fill="#63b8ff" stroke="#63b8ff" points="340.88,-73.79 330.29,-74.19 338.81,-80.48 340.88,-73.79"/>
</a>
</g>
</g>
<!-- Node12&#45;&gt;Node7 -->
<g id="edge19_Node000012_Node000007" class="edge">
<title>Node12&#45;&gt;Node7</title>
<g id="a_edge19_Node000012_Node000007"><a xlink:title=" ">
<path fill="none" stroke="#63b8ff" d="M363.16,-111.59C353.31,-103.77 339.07,-92.46 327.39,-83.19"/>
<polygon fill="#63b8ff" stroke="#63b8ff" points="329.9,-80.72 319.89,-77.24 325.55,-86.2 329.9,-80.72"/>
</a>
</g>
</g>
<!-- Node16&#45;&gt;Node4 -->
<g id="edge25_Node000016_Node000004" class="edge">
<title>Node16&#45;&gt;Node4</title>
<g id="a_edge25_Node000016_Node000004"><a xlink:title=" ">
<path fill="none" stroke="#63b8ff" d="M570.73,-111.62C554.55,-93.27 518.48,-52.37 497.66,-28.75"/>
<polygon fill="#63b8ff" stroke="#63b8ff" points="500.49,-26.68 491.25,-21.49 495.24,-31.31 500.49,-26.68"/>
</a>
</g>
</g>
</g>
</svg>
