<?xml version="1.0" encoding="UTF-8" standalone="no"?>
<!DOCTYPE svg PUBLIC "-//W3C//DTD SVG 1.1//EN"
 "http://www.w3.org/Graphics/SVG/1.1/DTD/svg11.dtd">
<!-- Generated by graphviz version 14.0.2 (0)
 -->
<!-- Title: systems/death/src/Death.hpp Pages: 1 -->
<svg width="919pt" height="344pt"
 viewBox="0.00 0.00 919.00 344.00" xmlns="http://www.w3.org/2000/svg" xmlns:xlink="http://www.w3.org/1999/xlink">
<g id="graph0" class="graph" transform="scale(1 1) rotate(0) translate(4 340)">
<title>systems/death/src/Death.hpp</title>
<!-- Node1 -->
<g id="Node000001" class="node">
<title>Node1</title>
<g id="a_Node000001"><a xlink:title=" ">
<polygon fill="#999999" stroke="#666666" points="342.5,-336 197.5,-336 197.5,-316 342.5,-316 342.5,-336"/>
<text xml:space="preserve" text-anchor="middle" x="270" y="-322.5" font-family="Helvetica,sans-Serif" font-size="10.00">systems/death/src/Death.hpp</text>
</a>
</g>
</g>
<!-- Node2 -->
<g id="Node000002" class="node">
<title>Node2</title>
<g id="a_Node000002"><a xlink:title=" ">
<polygon fill="#e0e0e0" stroke="#999999" points="111.88,-200 56.12,-200 56.12,-180 111.88,-180 111.88,-200"/>
<text xml:space="preserve" text-anchor="middle" x="84" y="-186.5" font-family="Helvetica,sans-Serif" font-size="10.00">algorithm</text>
</a>
</g>
</g>
<!-- Node1&#45;&gt;Node2 -->
<g id="edge1_Node000001_Node000002" class="edge">
<title>Node1&#45;&gt;Node2</title>
<g id="a_edge1_Node000001_Node000002"><a xlink:title=" ">
<path fill="none" stroke="#63b8ff" d="M256.92,-315.58C225.43,-292.89 145.11,-235.02 106.03,-206.87"/>
<polygon fill="#63b8ff" stroke="#63b8ff" points="108.21,-204.12 98.05,-201.12 104.11,-209.8 108.21,-204.12"/>
</a>
</g>
</g>
<!-- Node3 -->
<g id="Node000003" class="node">
<title>Node3</title>
<g id="a_Node000003"><a xlink:title=" ">
<polygon fill="#e0e0e0" stroke="#999999" points="542,-274 484,-274 484,-254 542,-254 542,-274"/>
<text xml:space="preserve" text-anchor="middle" x="513" y="-260.5" font-family="Helvetica,sans-Serif" font-size="10.00">functional</text>
</a>
</g>
</g>
<!-- Node1&#45;&gt;Node3 -->
<g id="edge2_Node000001_Node000003" class="edge">
<title>Node1&#45;&gt;Node3</title>
<g id="a_edge2_Node000001_Node000003"><a xlink:title=" ">
<path fill="none" stroke="#63b8ff" d="M324.13,-315.57C365.82,-307.72 424.64,-295.36 475,-280 476.61,-279.51 478.25,-278.98 479.9,-278.42"/>
<polygon fill="#63b8ff" stroke="#63b8ff" points="481.09,-281.72 489.28,-275 478.69,-275.14 481.09,-281.72"/>
</a>
</g>
</g>
<!-- Node4 -->
<g id="Node000004" class="node">
<title>Node4</title>
<g id="a_Node000004"><a xlink:href="Health_8hpp.html" target="_top" xlink:title=" ">
<polygon fill="white" stroke="#666666" points="112,-280 0,-280 0,-248 112,-248 112,-280"/>
<text xml:space="preserve" text-anchor="start" x="8" y="-266.5" font-family="Helvetica,sans-Serif" font-size="10.00">../../../components</text>
<text xml:space="preserve" text-anchor="middle" x="56" y="-254.5" font-family="Helvetica,sans-Serif" font-size="10.00">/health/src/Health.hpp</text>
</a>
</g>
</g>
<!-- Node1&#45;&gt;Node4 -->
<g id="edge3_Node000001_Node000004" class="edge">
<title>Node1&#45;&gt;Node4</title>
<g id="a_edge3_Node000001_Node000004"><a xlink:title=" ">
<path fill="none" stroke="#63b8ff" d="M236.56,-315.62C206.07,-307.08 160.13,-294.19 122.22,-283.57"/>
<polygon fill="#63b8ff" stroke="#63b8ff" points="123.28,-280.23 112.71,-280.9 121.39,-286.97 123.28,-280.23"/>
</a>
</g>
</g>
<!-- Node11 -->
<g id="Node000011" class="node">
<title>Node11</title>
<g id="a_Node000011"><a xlink:href="InputControlled_8hpp.html" target="_top" xlink:title=" ">
<polygon fill="white" stroke="#666666" points="271.88,-212 168.12,-212 168.12,-168 271.88,-168 271.88,-212"/>
<text xml:space="preserve" text-anchor="start" x="176.12" y="-198.5" font-family="Helvetica,sans-Serif" font-size="10.00">../../../components</text>
<text xml:space="preserve" text-anchor="start" x="176.12" y="-186.5" font-family="Helvetica,sans-Serif" font-size="10.00">/inputControlled/src</text>
<text xml:space="preserve" text-anchor="middle" x="220" y="-174.5" font-family="Helvetica,sans-Serif" font-size="10.00">/InputControlled.hpp</text>
</a>
</g>
</g>
<!-- Node1&#45;&gt;Node11 -->
<g id="edge10_Node000001_Node000011" class="edge">
<title>Node1&#45;&gt;Node11</title>
<g id="a_edge10_Node000001_Node000011"><a xlink:title=" ">
<path fill="none" stroke="#63b8ff" d="M266.56,-315.79C259.53,-296.94 243.2,-253.17 231.88,-222.83"/>
<polygon fill="#63b8ff" stroke="#63b8ff" points="235.26,-221.9 228.49,-213.75 228.71,-224.34 235.26,-221.9"/>
</a>
</g>
</g>
<!-- Node13 -->
<g id="Node000013" class="node">
<title>Node13</title>
<g id="a_Node000013"><a xlink:href="Registry_8hpp.html" target="_top" xlink:title=" ">
<polygon fill="white" stroke="#666666" points="466.25,-274 349.75,-274 349.75,-254 466.25,-254 466.25,-274"/>
<text xml:space="preserve" text-anchor="middle" x="408" y="-260.5" font-family="Helvetica,sans-Serif" font-size="10.00">../../../ecs/Registry.hpp</text>
</a>
</g>
</g>
<!-- Node1&#45;&gt;Node13 -->
<g id="edge14_Node000001_Node000013" class="edge">
<title>Node1&#45;&gt;Node13</title>
<g id="a_edge14_Node000001_Node000013"><a xlink:title=" ">
<path fill="none" stroke="#63b8ff" d="M291.56,-315.62C314.25,-305.76 350.19,-290.13 376.15,-278.85"/>
<polygon fill="#63b8ff" stroke="#63b8ff" points="377.43,-282.11 385.2,-274.91 374.63,-275.69 377.43,-282.11"/>
</a>
</g>
</g>
<!-- Node21 -->
<g id="Node000021" class="node">
<title>Node21</title>
<g id="a_Node000021"><a xlink:href="System_8hpp.html" target="_top" xlink:title=" ">
<polygon fill="white" stroke="#666666" points="358.25,-200 289.75,-200 289.75,-180 358.25,-180 358.25,-200"/>
<text xml:space="preserve" text-anchor="middle" x="324" y="-186.5" font-family="Helvetica,sans-Serif" font-size="10.00">System.hpp</text>
</a>
</g>
</g>
<!-- Node1&#45;&gt;Node21 -->
<g id="edge38_Node000001_Node000021" class="edge">
<title>Node1&#45;&gt;Node21</title>
<g id="a_edge38_Node000001_Node000021"><a xlink:title=" ">
<path fill="none" stroke="#63b8ff" d="M273.71,-315.79C282.38,-294.27 304.13,-240.31 315.98,-210.89"/>
<polygon fill="#63b8ff" stroke="#63b8ff" points="319.21,-212.26 319.7,-201.68 312.71,-209.65 319.21,-212.26"/>
</a>
</g>
</g>
<!-- Node5 -->
<g id="Node000005" class="node">
<title>Node5</title>
<g id="a_Node000005"><a xlink:href="Component_8hpp.html" target="_top" xlink:title=" ">
<polygon fill="white" stroke="#666666" points="213.38,-132 82.62,-132 82.62,-112 213.38,-112 213.38,-132"/>
<text xml:space="preserve" text-anchor="middle" x="148" y="-118.5" font-family="Helvetica,sans-Serif" font-size="10.00">../../../ecs/Component.hpp</text>
</a>
</g>
</g>
<!-- Node4&#45;&gt;Node5 -->
<g id="edge4_Node000004_Node000005" class="edge">
<title>Node4&#45;&gt;Node5</title>
<g id="a_edge4_Node000004_Node000005"><a xlink:title=" ">
<path fill="none" stroke="#63b8ff" d="M49.13,-247.79C41.22,-227.78 31.21,-192.32 47,-168 56.65,-153.14 72.46,-143.15 88.75,-136.44"/>
<polygon fill="#63b8ff" stroke="#63b8ff" points="89.87,-139.76 98.04,-133.02 87.44,-133.19 89.87,-139.76"/>
</a>
</g>
</g>
<!-- Node6 -->
<g id="Node000006" class="node">
<title>Node6</title>
<g id="a_Node000006"><a xlink:title=" ">
<polygon fill="#e0e0e0" stroke="#999999" points="127.62,-76 76.38,-76 76.38,-56 127.62,-56 127.62,-76"/>
<text xml:space="preserve" text-anchor="middle" x="102" y="-62.5" font-family="Helvetica,sans-Serif" font-size="10.00">memory</text>
</a>
</g>
</g>
<!-- Node5&#45;&gt;Node6 -->
<g id="edge5_Node000005_Node000006" class="edge">
<title>Node5&#45;&gt;Node6</title>
<g id="a_edge5_Node000005_Node000006"><a xlink:title=" ">
<path fill="none" stroke="#63b8ff" d="M139.99,-111.59C133.72,-104.24 124.83,-93.8 117.22,-84.87"/>
<polygon fill="#63b8ff" stroke="#63b8ff" points="120.05,-82.79 110.9,-77.45 114.72,-87.33 120.05,-82.79"/>
</a>
</g>
</g>
<!-- Node7 -->
<g id="Node000007" class="node">
<title>Node7</title>
<g id="a_Node000007"><a xlink:title=" ">
<polygon fill="#e0e0e0" stroke="#999999" points="280,-76 240,-76 240,-56 280,-56 280,-76"/>
<text xml:space="preserve" text-anchor="middle" x="260" y="-62.5" font-family="Helvetica,sans-Serif" font-size="10.00">string</text>
</a>
</g>
</g>
<!-- Node5&#45;&gt;Node7 -->
<g id="edge6_Node000005_Node000007" class="edge">
<title>Node5&#45;&gt;Node7</title>
<g id="a_edge6_Node000005_Node000007"><a xlink:title=" ">
<path fill="none" stroke="#63b8ff" d="M167.51,-111.59C184.75,-103.28 210.16,-91.03 229.99,-81.47"/>
<polygon fill="#63b8ff" stroke="#63b8ff" points="231.49,-84.63 238.98,-77.14 228.45,-78.33 231.49,-84.63"/>
</a>
</g>
</g>
<!-- Node8 -->
<g id="Node000008" class="node">
<title>Node8</title>
<g id="a_Node000008"><a xlink:href="Types_8hpp.html" target="_top" xlink:title="Core type definitions used throughout the ECS (Entity Component System).">
<polygon fill="white" stroke="#666666" points="385.5,-76 324.5,-76 324.5,-56 385.5,-56 385.5,-76"/>
<text xml:space="preserve" text-anchor="middle" x="355" y="-62.5" font-family="Helvetica,sans-Serif" font-size="10.00">Types.hpp</text>
</a>
</g>
</g>
<!-- Node5&#45;&gt;Node8 -->
<g id="edge7_Node000005_Node000008" class="edge">
<title>Node5&#45;&gt;Node8</title>
<g id="a_edge7_Node000005_Node000008"><a xlink:title=" ">
<path fill="none" stroke="#63b8ff" d="M184.06,-111.59C220.11,-102.19 275.51,-87.74 313.4,-77.85"/>
<polygon fill="#63b8ff" stroke="#63b8ff" points="313.82,-81.36 322.62,-75.45 312.06,-74.59 313.82,-81.36"/>
</a>
</g>
</g>
<!-- Node9 -->
<g id="Node000009" class="node">
<title>Node9</title>
<g id="a_Node000009"><a xlink:title=" ">
<polygon fill="#e0e0e0" stroke="#999999" points="375,-20 335,-20 335,0 375,0 375,-20"/>
<text xml:space="preserve" text-anchor="middle" x="355" y="-6.5" font-family="Helvetica,sans-Serif" font-size="10.00">bitset</text>
</a>
</g>
</g>
<!-- Node8&#45;&gt;Node9 -->
<g id="edge8_Node000008_Node000009" class="edge">
<title>Node8&#45;&gt;Node9</title>
<g id="a_edge8_Node000008_Node000009"><a xlink:title=" ">
<path fill="none" stroke="#63b8ff" d="M355,-55.59C355,-49.01 355,-39.96 355,-31.73"/>
<polygon fill="#63b8ff" stroke="#63b8ff" points="358.5,-31.81 355,-21.81 351.5,-31.81 358.5,-31.81"/>
</a>
</g>
</g>
<!-- Node10 -->
<g id="Node000010" class="node">
<title>Node10</title>
<g id="a_Node000010"><a xlink:title=" ">
<polygon fill="#e0e0e0" stroke="#999999" points="806.62,-20 761.38,-20 761.38,0 806.62,0 806.62,-20"/>
<text xml:space="preserve" text-anchor="middle" x="784" y="-6.5" font-family="Helvetica,sans-Serif" font-size="10.00">cstdint</text>
</a>
</g>
</g>
<!-- Node8&#45;&gt;Node10 -->
<g id="edge9_Node000008_Node000010" class="edge">
<title>Node8&#45;&gt;Node10</title>
<g id="a_edge9_Node000008_Node000010"><a xlink:title=" ">
<path fill="none" stroke="#63b8ff" d="M385.67,-58.07C389.48,-57.32 393.32,-56.61 397,-56 526.7,-34.61 682.49,-19.77 750.03,-13.85"/>
<polygon fill="#63b8ff" stroke="#63b8ff" points="750.04,-17.36 759.7,-13.02 749.44,-10.39 750.04,-17.36"/>
</a>
</g>
</g>
<!-- Node11&#45;&gt;Node5 -->
<g id="edge13_Node000011_Node000005" class="edge">
<title>Node11&#45;&gt;Node5</title>
<g id="a_edge13_Node000011_Node000005"><a xlink:title=" ">
<path fill="none" stroke="#63b8ff" d="M196.82,-167.75C187.08,-158.82 175.9,-148.57 166.69,-140.13"/>
<polygon fill="#63b8ff" stroke="#63b8ff" points="169.13,-137.62 159.39,-133.44 164.4,-142.78 169.13,-137.62"/>
</a>
</g>
</g>
<!-- Node11&#45;&gt;Node7 -->
<g id="edge11_Node000011_Node000007" class="edge">
<title>Node11&#45;&gt;Node7</title>
<g id="a_edge11_Node000011_Node000007"><a xlink:title=" ">
<path fill="none" stroke="#63b8ff" d="M226.97,-167.75C234.41,-145.05 246.11,-109.36 253.41,-87.11"/>
<polygon fill="#63b8ff" stroke="#63b8ff" points="256.69,-88.33 256.48,-77.74 250.04,-86.15 256.69,-88.33"/>
</a>
</g>
</g>
<!-- Node12 -->
<g id="Node000012" class="node">
<title>Node12</title>
<g id="a_Node000012"><a xlink:title=" ">
<polygon fill="#e0e0e0" stroke="#999999" points="627.5,-76 584.5,-76 584.5,-56 627.5,-56 627.5,-76"/>
<text xml:space="preserve" text-anchor="middle" x="606" y="-62.5" font-family="Helvetica,sans-Serif" font-size="10.00">vector</text>
</a>
</g>
</g>
<!-- Node11&#45;&gt;Node12 -->
<g id="edge12_Node000011_Node000012" class="edge">
<title>Node11&#45;&gt;Node12</title>
<g id="a_edge12_Node000011_Node000012"><a xlink:title=" ">
<path fill="none" stroke="#63b8ff" d="M272.06,-170.39C275.07,-169.53 278.06,-168.73 281,-168 382.72,-142.85 416.85,-171.27 514,-132 529,-125.93 563.06,-100.54 585.26,-83.35"/>
<polygon fill="#63b8ff" stroke="#63b8ff" points="587.32,-86.19 593.05,-77.28 583.01,-80.67 587.32,-86.19"/>
</a>
</g>
</g>
<!-- Node13&#45;&gt;Node2 -->
<g id="edge15_Node000013_Node000002" class="edge">
<title>Node13&#45;&gt;Node2</title>
<g id="a_edge15_Node000013_Node000002"><a xlink:title=" ">
<path fill="none" stroke="#63b8ff" d="M349.28,-257.31C291.38,-250.56 200.94,-236.94 126,-212 120.67,-210.23 115.17,-207.89 109.98,-205.42"/>
<polygon fill="#63b8ff" stroke="#63b8ff" points="111.74,-202.39 101.24,-200.98 108.57,-208.63 111.74,-202.39"/>
</a>
</g>
</g>
<!-- Node13&#45;&gt;Node6 -->
<g id="edge17_Node000013_Node000006" class="edge">
<title>Node13&#45;&gt;Node6</title>
<g id="a_edge17_Node000013_Node000006"><a xlink:title=" ">
<path fill="none" stroke="#63b8ff" d="M349.35,-261.57C296.33,-257.92 217.81,-246.48 159,-212 136.71,-198.93 139.8,-185.73 121,-168 101.86,-149.95 85.65,-155.59 74,-132 66.3,-116.4 75.69,-98.16 85.61,-84.99"/>
<polygon fill="#63b8ff" stroke="#63b8ff" points="88.07,-87.5 91.74,-77.56 82.67,-83.05 88.07,-87.5"/>
</a>
</g>
</g>
<!-- Node13&#45;&gt;Node8 -->
<g id="edge37_Node000013_Node000008" class="edge">
<title>Node13&#45;&gt;Node8</title>
<g id="a_edge37_Node000013_Node000008"><a xlink:title=" ">
<path fill="none" stroke="#63b8ff" d="M405.44,-253.55C397.29,-223.41 371.8,-129.11 360.49,-87.31"/>
<polygon fill="#63b8ff" stroke="#63b8ff" points="363.91,-86.56 357.93,-77.82 357.16,-88.39 363.91,-86.56"/>
</a>
</g>
</g>
<!-- Node13&#45;&gt;Node12 -->
<g id="edge18_Node000013_Node000012" class="edge">
<title>Node13&#45;&gt;Node12</title>
<g id="a_edge18_Node000013_Node000012"><a xlink:title=" ">
<path fill="none" stroke="#63b8ff" d="M423.96,-253.64C455.77,-234.34 527.89,-187.24 573,-132 584.14,-118.35 592.93,-100.33 598.62,-86.72"/>
<polygon fill="#63b8ff" stroke="#63b8ff" points="601.83,-88.11 602.25,-77.53 595.32,-85.54 601.83,-88.11"/>
</a>
</g>
</g>
<!-- Node14 -->
<g id="Node000014" class="node">
<title>Node14</title>
<g id="a_Node000014"><a xlink:title=" ">
<polygon fill="#e0e0e0" stroke="#999999" points="804.75,-200 751.25,-200 751.25,-180 804.75,-180 804.75,-200"/>
<text xml:space="preserve" text-anchor="middle" x="778" y="-186.5" font-family="Helvetica,sans-Serif" font-size="10.00">iostream</text>
</a>
</g>
</g>
<!-- Node13&#45;&gt;Node14 -->
<g id="edge16_Node000013_Node000014" class="edge">
<title>Node13&#45;&gt;Node14</title>
<g id="a_edge16_Node000013_Node000014"><a xlink:title=" ">
<path fill="none" stroke="#63b8ff" d="M447.57,-253.57C456.56,-251.58 466.08,-249.61 475,-248 590.67,-227.14 624.88,-247.29 737,-212 742.25,-210.35 747.65,-208.06 752.73,-205.61"/>
<polygon fill="#63b8ff" stroke="#63b8ff" points="753.98,-208.9 761.22,-201.17 750.74,-202.7 753.98,-208.9"/>
</a>
</g>
</g>
<!-- Node15 -->
<g id="Node000015" class="node">
<title>Node15</title>
<g id="a_Node000015"><a xlink:href="Clock_8hpp.html" target="_top" xlink:title=" ">
<polygon fill="white" stroke="#666666" points="911.12,-132 850.88,-132 850.88,-112 911.12,-112 911.12,-132"/>
<text xml:space="preserve" text-anchor="middle" x="881" y="-118.5" font-family="Helvetica,sans-Serif" font-size="10.00">Clock.hpp</text>
</a>
</g>
</g>
<!-- Node13&#45;&gt;Node15 -->
<g id="edge19_Node000013_Node000015" class="edge">
<title>Node13&#45;&gt;Node15</title>
<g id="a_edge19_Node000013_Node000015"><a xlink:title=" ">
<path fill="none" stroke="#63b8ff" d="M448.31,-253.57C457.09,-251.63 466.34,-249.67 475,-248 572.71,-229.12 606.93,-256.39 696,-212 721.32,-199.38 717.71,-182.5 742,-168 758.66,-158.06 805.03,-143.93 839.66,-134.17"/>
<polygon fill="#63b8ff" stroke="#63b8ff" points="840.29,-137.63 848.98,-131.57 838.41,-130.89 840.29,-137.63"/>
</a>
</g>
</g>
<!-- Node16 -->
<g id="Node000016" class="node">
<title>Node16</title>
<g id="a_Node000016"><a xlink:href="ComponentRegistry_8hpp.html" target="_top" xlink:title=" ">
<polygon fill="white" stroke="#666666" points="504.5,-132 383.5,-132 383.5,-112 504.5,-112 504.5,-132"/>
<text xml:space="preserve" text-anchor="middle" x="444" y="-118.5" font-family="Helvetica,sans-Serif" font-size="10.00">ComponentRegistry.hpp</text>
</a>
</g>
</g>
<!-- Node13&#45;&gt;Node16 -->
<g id="edge21_Node000013_Node000016" class="edge">
<title>Node13&#45;&gt;Node16</title>
<g id="a_edge21_Node000013_Node000016"><a xlink:title=" ">
<path fill="none" stroke="#63b8ff" d="M410.36,-253.81C416.08,-231.57 430.79,-174.39 438.73,-143.51"/>
<polygon fill="#63b8ff" stroke="#63b8ff" points="442.1,-144.43 441.21,-133.87 435.32,-142.68 442.1,-144.43"/>
</a>
</g>
</g>
<!-- Node19 -->
<g id="Node000019" class="node">
<title>Node19</title>
<g id="a_Node000019"><a xlink:href="EntityManager_8hpp.html" target="_top" xlink:title=" ">
<polygon fill="white" stroke="#666666" points="832.88,-132 735.12,-132 735.12,-112 832.88,-112 832.88,-132"/>
<text xml:space="preserve" text-anchor="middle" x="784" y="-118.5" font-family="Helvetica,sans-Serif" font-size="10.00">EntityManager.hpp</text>
</a>
</g>
</g>
<!-- Node13&#45;&gt;Node19 -->
<g id="edge27_Node000013_Node000019" class="edge">
<title>Node13&#45;&gt;Node19</title>
<g id="a_edge27_Node000013_Node000019"><a xlink:title=" ">
<path fill="none" stroke="#63b8ff" d="M449.43,-253.57C457.88,-251.69 466.72,-249.75 475,-248 554.81,-231.09 581.21,-246.79 655,-212 683,-198.8 683.66,-185.79 709,-168 724.4,-157.19 742.47,-146.3 757.01,-137.94"/>
<polygon fill="#63b8ff" stroke="#63b8ff" points="758.6,-141.06 765.57,-133.09 755.14,-134.98 758.6,-141.06"/>
</a>
</g>
</g>
<!-- Node20 -->
<g id="Node000020" class="node">
<title>Node20</title>
<g id="a_Node000020"><a xlink:href="SparseSet_8hpp.html" target="_top" xlink:title=" ">
<polygon fill="white" stroke="#666666" points="717.25,-132 636.75,-132 636.75,-112 717.25,-112 717.25,-132"/>
<text xml:space="preserve" text-anchor="middle" x="677" y="-118.5" font-family="Helvetica,sans-Serif" font-size="10.00">SparseSet.hpp</text>
</a>
</g>
</g>
<!-- Node13&#45;&gt;Node20 -->
<g id="edge30_Node000013_Node000020" class="edge">
<title>Node13&#45;&gt;Node20</title>
<g id="a_edge30_Node000013_Node000020"><a xlink:title=" ">
<path fill="none" stroke="#63b8ff" d="M449.61,-253.55C511.11,-239.53 619.45,-214.58 623,-212 646.82,-194.66 662.2,-163.32 670.23,-142.84"/>
<polygon fill="#63b8ff" stroke="#63b8ff" points="673.44,-144.23 673.6,-133.64 666.87,-141.83 673.44,-144.23"/>
</a>
</g>
</g>
<!-- Node13&#45;&gt;Node21 -->
<g id="edge32_Node000013_Node000021" class="edge">
<title>Node13&#45;&gt;Node21</title>
<g id="a_edge32_Node000013_Node000021"><a xlink:title=" ">
<path fill="none" stroke="#63b8ff" d="M397.02,-253.59C383.44,-241.94 360.07,-221.92 343.43,-207.66"/>
<polygon fill="#63b8ff" stroke="#63b8ff" points="346,-205.25 336.13,-201.4 341.45,-210.57 346,-205.25"/>
</a>
</g>
</g>
<!-- Node15&#45;&gt;Node10 -->
<g id="edge20_Node000015_Node000010" class="edge">
<title>Node15&#45;&gt;Node10</title>
<g id="a_edge20_Node000015_Node000010"><a xlink:title=" ">
<path fill="none" stroke="#63b8ff" d="M872.73,-111.62C856.55,-93.27 820.48,-52.37 799.66,-28.75"/>
<polygon fill="#63b8ff" stroke="#63b8ff" points="802.49,-26.68 793.25,-21.49 797.24,-31.31 802.49,-26.68"/>
</a>
</g>
</g>
<!-- Node16&#45;&gt;Node7 -->
<g id="edge22_Node000016_Node000007" class="edge">
<title>Node16&#45;&gt;Node7</title>
<g id="a_edge22_Node000016_Node000007"><a xlink:title=" ">
<path fill="none" stroke="#63b8ff" d="M411.95,-111.59C378.06,-101.65 324.93,-86.06 291.32,-76.19"/>
<polygon fill="#63b8ff" stroke="#63b8ff" points="292.34,-72.84 281.76,-73.39 290.37,-79.56 292.34,-72.84"/>
</a>
</g>
</g>
<!-- Node16&#45;&gt;Node8 -->
<g id="edge26_Node000016_Node000008" class="edge">
<title>Node16&#45;&gt;Node8</title>
<g id="a_edge26_Node000016_Node000008"><a xlink:title=" ">
<path fill="none" stroke="#63b8ff" d="M428.5,-111.59C415.18,-103.51 395.72,-91.71 380.17,-82.27"/>
<polygon fill="#63b8ff" stroke="#63b8ff" points="382.28,-79.46 371.92,-77.26 378.65,-85.44 382.28,-79.46"/>
</a>
</g>
</g>
<!-- Node16&#45;&gt;Node12 -->
<g id="edge25_Node000016_Node000012" class="edge">
<title>Node16&#45;&gt;Node12</title>
<g id="a_edge25_Node000016_Node000012"><a xlink:title=" ">
<path fill="none" stroke="#63b8ff" d="M472.22,-111.59C500.51,-102.16 544.03,-87.66 573.69,-77.77"/>
<polygon fill="#63b8ff" stroke="#63b8ff" points="574.5,-81.19 582.88,-74.71 572.29,-74.55 574.5,-81.19"/>
</a>
</g>
</g>
<!-- Node17 -->
<g id="Node000017" class="node">
<title>Node17</title>
<g id="a_Node000017"><a xlink:title=" ">
<polygon fill="#e0e0e0" stroke="#999999" points="464,-76 406,-76 406,-56 464,-56 464,-76"/>
<text xml:space="preserve" text-anchor="middle" x="435" y="-62.5" font-family="Helvetica,sans-Serif" font-size="10.00">typeindex</text>
</a>
</g>
</g>
<!-- Node16&#45;&gt;Node17 -->
<g id="edge23_Node000016_Node000017" class="edge">
<title>Node16&#45;&gt;Node17</title>
<g id="a_edge23_Node000016_Node000017"><a xlink:title=" ">
<path fill="none" stroke="#63b8ff" d="M442.43,-111.59C441.32,-104.93 439.79,-95.75 438.41,-87.44"/>
<polygon fill="#63b8ff" stroke="#63b8ff" points="441.89,-87.08 436.8,-77.79 434.99,-88.23 441.89,-87.08"/>
</a>
</g>
</g>
<!-- Node18 -->
<g id="Node000018" class="node">
<title>Node18</title>
<g id="a_Node000018"><a xlink:title=" ">
<polygon fill="#e0e0e0" stroke="#999999" points="564.38,-76 481.62,-76 481.62,-56 564.38,-56 564.38,-76"/>
<text xml:space="preserve" text-anchor="middle" x="523" y="-62.5" font-family="Helvetica,sans-Serif" font-size="10.00">unordered_map</text>
</a>
</g>
</g>
<!-- Node16&#45;&gt;Node18 -->
<g id="edge24_Node000016_Node000018" class="edge">
<title>Node16&#45;&gt;Node18</title>
<g id="a_edge24_Node000016_Node000018"><a xlink:title=" ">
<path fill="none" stroke="#63b8ff" d="M457.76,-111.59C469.36,-103.67 486.2,-92.16 499.86,-82.82"/>
<polygon fill="#63b8ff" stroke="#63b8ff" points="501.6,-85.87 507.88,-77.33 497.65,-80.09 501.6,-85.87"/>
</a>
</g>
</g>
<!-- Node19&#45;&gt;Node10 -->
<g id="edge28_Node000019_Node000010" class="edge">
<title>Node19&#45;&gt;Node10</title>
<g id="a_edge28_Node000019_Node000010"><a xlink:title=" ">
<path fill="none" stroke="#63b8ff" d="M784,-111.62C784,-94.01 784,-55.59 784,-31.65"/>
<polygon fill="#63b8ff" stroke="#63b8ff" points="787.5,-31.87 784,-21.87 780.5,-31.87 787.5,-31.87"/>
</a>
</g>
</g>
<!-- Node19&#45;&gt;Node12 -->
<g id="edge29_Node000019_Node000012" class="edge">
<title>Node19&#45;&gt;Node12</title>
<g id="a_edge29_Node000019_Node000012"><a xlink:title=" ">
<path fill="none" stroke="#63b8ff" d="M752.99,-111.59C721.01,-101.89 671.32,-86.82 638.72,-76.93"/>
<polygon fill="#63b8ff" stroke="#63b8ff" points="639.99,-73.65 629.4,-74.1 637.96,-80.35 639.99,-73.65"/>
</a>
</g>
</g>
<!-- Node20&#45;&gt;Node12 -->
<g id="edge31_Node000020_Node000012" class="edge">
<title>Node20&#45;&gt;Node12</title>
<g id="a_edge31_Node000020_Node000012"><a xlink:title=" ">
<path fill="none" stroke="#63b8ff" d="M664.63,-111.59C654.35,-103.77 639.48,-92.46 627.29,-83.19"/>
<polygon fill="#63b8ff" stroke="#63b8ff" points="629.51,-80.48 619.43,-77.21 625.27,-86.05 629.51,-80.48"/>
</a>
</g>
</g>
<!-- Node21&#45;&gt;Node7 -->
<g id="edge33_Node000021_Node000007" class="edge">
<title>Node21&#45;&gt;Node7</title>
<g id="a_edge33_Node000021_Node000007"><a xlink:title=" ">
<path fill="none" stroke="#63b8ff" d="M319.19,-179.83C308.81,-160.05 284.13,-113 270.14,-86.32"/>
<polygon fill="#63b8ff" stroke="#63b8ff" points="273.31,-84.85 265.57,-77.62 267.12,-88.1 273.31,-84.85"/>
</a>
</g>
</g>
<!-- Node21&#45;&gt;Node8 -->
<g id="edge36_Node000021_Node000008" class="edge">
<title>Node21&#45;&gt;Node8</title>
<g id="a_edge36_Node000021_Node000008"><a xlink:title=" ">
<path fill="none" stroke="#63b8ff" d="M325.74,-179.93C328.58,-165.47 334.54,-136.35 341,-112 343.18,-103.8 345.89,-94.86 348.34,-87.13"/>
<polygon fill="#63b8ff" stroke="#63b8ff" points="351.65,-88.27 351.41,-77.68 344.99,-86.11 351.65,-88.27"/>
</a>
</g>
</g>
<!-- Node21&#45;&gt;Node12 -->
<g id="edge34_Node000021_Node000012" class="edge">
<title>Node21&#45;&gt;Node12</title>
<g id="a_edge34_Node000021_Node000012"><a xlink:title=" ">
<path fill="none" stroke="#63b8ff" d="M358.46,-186.37C404.41,-181.54 486.92,-168.18 547,-132 566.52,-120.25 583.36,-100.05 594,-85.29"/>
<polygon fill="#63b8ff" stroke="#63b8ff" points="596.68,-87.57 599.47,-77.35 590.91,-83.6 596.68,-87.57"/>
</a>
</g>
</g>
<!-- Node21&#45;&gt;Node16 -->
<g id="edge35_Node000021_Node000016" class="edge">
<title>Node21&#45;&gt;Node16</title>
<g id="a_edge35_Node000021_Node000016"><a xlink:title=" ">
<path fill="none" stroke="#63b8ff" d="M341.19,-179.54C360.98,-168.66 393.71,-150.66 416.92,-137.89"/>
<polygon fill="#63b8ff" stroke="#63b8ff" points="418.44,-141.05 425.51,-133.17 415.06,-134.92 418.44,-141.05"/>
</a>
</g>
</g>
</g>
</svg>
