<?xml version="1.0" encoding="UTF-8" standalone="no"?>
<!DOCTYPE svg PUBLIC "-//W3C//DTD SVG 1.1//EN"
 "http://www.w3.org/Graphics/SVG/1.1/DTD/svg11.dtd">
<!-- Generated by graphviz version 14.0.2 (0)
 -->
<!-- Title: systems/death/src/Death.hpp Pages: 1 -->
<svg width="795pt" height="320pt"
 viewBox="0.00 0.00 795.00 320.00" xmlns="http://www.w3.org/2000/svg" xmlns:xlink="http://www.w3.org/1999/xlink">
<g id="graph0" class="graph" transform="scale(1 1) rotate(0) translate(4 316)">
<title>systems/death/src/Death.hpp</title>
<!-- Node1 -->
<g id="Node000001" class="node">
<title>Node1</title>
<g id="a_Node000001"><a xlink:title=" ">
<polygon fill="#999999" stroke="#666666" points="336.88,-312 191.88,-312 191.88,-292 336.88,-292 336.88,-312"/>
<text xml:space="preserve" text-anchor="middle" x="264.38" y="-298.5" font-family="Helvetica,sans-Serif" font-size="10.00">systems/death/src/Death.hpp</text>
</a>
</g>
</g>
<!-- Node2 -->
<g id="Node000002" class="node">
<title>Node2</title>
<g id="a_Node000002"><a xlink:title=" ">
<polygon fill="#e0e0e0" stroke="#999999" points="204.25,-188 148.5,-188 148.5,-168 204.25,-168 204.25,-188"/>
<text xml:space="preserve" text-anchor="middle" x="176.38" y="-174.5" font-family="Helvetica,sans-Serif" font-size="10.00">algorithm</text>
</a>
</g>
</g>
<!-- Node1&#45;&gt;Node2 -->
<g id="edge1_Node000001_Node000002" class="edge">
<title>Node1&#45;&gt;Node2</title>
<g id="a_edge1_Node000001_Node000002"><a xlink:title=" ">
<path fill="none" stroke="#63b8ff" d="M257.76,-291.83C243.36,-271.87 208.95,-224.15 189.8,-197.61"/>
<polygon fill="#63b8ff" stroke="#63b8ff" points="192.64,-195.57 183.95,-189.5 186.96,-199.66 192.64,-195.57"/>
</a>
</g>
</g>
<!-- Node3 -->
<g id="Node000003" class="node">
<title>Node3</title>
<g id="a_Node000003"><a xlink:href="Health_8hpp.html" target="_top" xlink:title=" ">
<polygon fill="white" stroke="#666666" points="164.38,-256 52.37,-256 52.37,-224 164.38,-224 164.38,-256"/>
<text xml:space="preserve" text-anchor="start" x="60.38" y="-242.5" font-family="Helvetica,sans-Serif" font-size="10.00">../../../components</text>
<text xml:space="preserve" text-anchor="middle" x="108.38" y="-230.5" font-family="Helvetica,sans-Serif" font-size="10.00">/health/src/Health.hpp</text>
</a>
</g>
</g>
<!-- Node1&#45;&gt;Node3 -->
<g id="edge2_Node000001_Node000003" class="edge">
<title>Node1&#45;&gt;Node3</title>
<g id="a_edge2_Node000001_Node000003"><a xlink:title=" ">
<path fill="none" stroke="#63b8ff" d="M240,-291.62C218.44,-283.33 186.28,-270.96 159.15,-260.53"/>
<polygon fill="#63b8ff" stroke="#63b8ff" points="160.65,-257.36 150.06,-257.03 158.14,-263.89 160.65,-257.36"/>
</a>
</g>
</g>
<!-- Node10 -->
<g id="Node000010" class="node">
<title>Node10</title>
<g id="a_Node000010"><a xlink:href="Registry_8hpp.html" target="_top" xlink:title=" ">
<polygon fill="white" stroke="#666666" points="452.62,-250 336.12,-250 336.12,-230 452.62,-230 452.62,-250"/>
<text xml:space="preserve" text-anchor="middle" x="394.38" y="-236.5" font-family="Helvetica,sans-Serif" font-size="10.00">../../../ecs/Registry.hpp</text>
</a>
</g>
</g>
<!-- Node1&#45;&gt;Node10 -->
<g id="edge9_Node000001_Node000010" class="edge">
<title>Node1&#45;&gt;Node10</title>
<g id="a_edge9_Node000001_Node000010"><a xlink:title=" ">
<path fill="none" stroke="#63b8ff" d="M284.69,-291.62C305.96,-281.81 339.62,-266.27 364.04,-255"/>
<polygon fill="#63b8ff" stroke="#63b8ff" points="365.22,-258.31 372.83,-250.94 362.28,-251.96 365.22,-258.31"/>
</a>
</g>
</g>
<!-- Node19 -->
<g id="Node000019" class="node">
<title>Node19</title>
<g id="a_Node000019"><a xlink:href="System_8hpp.html" target="_top" xlink:title=" ">
<polygon fill="white" stroke="#666666" points="328.62,-188 260.12,-188 260.12,-168 328.62,-168 328.62,-188"/>
<text xml:space="preserve" text-anchor="middle" x="294.38" y="-174.5" font-family="Helvetica,sans-Serif" font-size="10.00">System.hpp</text>
</a>
</g>
</g>
<!-- Node1&#45;&gt;Node19 -->
<g id="edge33_Node000001_Node000019" class="edge">
<title>Node1&#45;&gt;Node19</title>
<g id="a_edge33_Node000001_Node000019"><a xlink:title=" ">
<path fill="none" stroke="#63b8ff" d="M266.63,-291.83C271.43,-272.31 282.76,-226.25 289.36,-199.4"/>
<polygon fill="#63b8ff" stroke="#63b8ff" points="292.74,-200.29 291.73,-189.75 285.95,-198.62 292.74,-200.29"/>
</a>
</g>
</g>
<!-- Node4 -->
<g id="Node000004" class="node">
<title>Node4</title>
<g id="a_Node000004"><a xlink:href="Component_8hpp.html" target="_top" xlink:title=" ">
<polygon fill="white" stroke="#666666" points="130.75,-188 0,-188 0,-168 130.75,-168 130.75,-188"/>
<text xml:space="preserve" text-anchor="middle" x="65.38" y="-174.5" font-family="Helvetica,sans-Serif" font-size="10.00">../../../ecs/Component.hpp</text>
</a>
</g>
</g>
<!-- Node3&#45;&gt;Node4 -->
<g id="edge3_Node000003_Node000004" class="edge">
<title>Node3&#45;&gt;Node4</title>
<g id="a_edge3_Node000003_Node000004"><a xlink:title=" ">
<path fill="none" stroke="#63b8ff" d="M97.3,-223.55C91.64,-215.65 84.71,-205.97 78.75,-197.66"/>
<polygon fill="#63b8ff" stroke="#63b8ff" points="81.67,-195.73 73,-189.64 75.98,-199.81 81.67,-195.73"/>
</a>
</g>
</g>
<!-- Node5 -->
<g id="Node000005" class="node">
<title>Node5</title>
<g id="a_Node000005"><a xlink:title=" ">
<polygon fill="#e0e0e0" stroke="#999999" points="164,-132 112.75,-132 112.75,-112 164,-112 164,-132"/>
<text xml:space="preserve" text-anchor="middle" x="138.38" y="-118.5" font-family="Helvetica,sans-Serif" font-size="10.00">memory</text>
</a>
</g>
</g>
<!-- Node4&#45;&gt;Node5 -->
<g id="edge4_Node000004_Node000005" class="edge">
<title>Node4&#45;&gt;Node5</title>
<g id="a_edge4_Node000004_Node000005"><a xlink:title=" ">
<path fill="none" stroke="#63b8ff" d="M78.09,-167.59C88.77,-159.7 104.25,-148.24 116.86,-138.92"/>
<polygon fill="#63b8ff" stroke="#63b8ff" points="118.63,-141.96 124.59,-133.2 114.47,-136.33 118.63,-141.96"/>
</a>
</g>
</g>
<!-- Node6 -->
<g id="Node000006" class="node">
<title>Node6</title>
<g id="a_Node000006"><a xlink:title=" ">
<polygon fill="#e0e0e0" stroke="#999999" points="212.38,-76 172.38,-76 172.38,-56 212.38,-56 212.38,-76"/>
<text xml:space="preserve" text-anchor="middle" x="192.38" y="-62.5" font-family="Helvetica,sans-Serif" font-size="10.00">string</text>
</a>
</g>
</g>
<!-- Node4&#45;&gt;Node6 -->
<g id="edge5_Node000004_Node000006" class="edge">
<title>Node4&#45;&gt;Node6</title>
<g id="a_edge5_Node000004_Node000006"><a xlink:title=" ">
<path fill="none" stroke="#63b8ff" d="M63.19,-167.51C60.61,-153.79 58.09,-128.25 70.38,-112 91.57,-83.95 132.14,-73.37 160.65,-69.39"/>
<polygon fill="#63b8ff" stroke="#63b8ff" points="161.02,-72.87 170.54,-68.23 160.2,-65.92 161.02,-72.87"/>
</a>
</g>
</g>
<!-- Node7 -->
<g id="Node000007" class="node">
<title>Node7</title>
<g id="a_Node000007"><a xlink:href="Types_8hpp.html" target="_top" xlink:title="Core type definitions used throughout the ECS (Entity Component System).">
<polygon fill="white" stroke="#666666" points="297.88,-76 236.88,-76 236.88,-56 297.88,-56 297.88,-76"/>
<text xml:space="preserve" text-anchor="middle" x="267.38" y="-62.5" font-family="Helvetica,sans-Serif" font-size="10.00">Types.hpp</text>
</a>
</g>
</g>
<!-- Node4&#45;&gt;Node7 -->
<g id="edge6_Node000004_Node000007" class="edge">
<title>Node4&#45;&gt;Node7</title>
<g id="a_edge6_Node000004_Node000007"><a xlink:title=" ">
<path fill="none" stroke="#63b8ff" d="M68.17,-167.94C73.01,-153.82 84.3,-126.65 103.38,-112 113.17,-104.48 180.22,-87.57 225.5,-76.75"/>
<polygon fill="#63b8ff" stroke="#63b8ff" points="226.1,-80.21 235.02,-74.49 224.48,-73.4 226.1,-80.21"/>
</a>
</g>
</g>
<!-- Node8 -->
<g id="Node000008" class="node">
<title>Node8</title>
<g id="a_Node000008"><a xlink:title=" ">
<polygon fill="#e0e0e0" stroke="#999999" points="287.38,-20 247.38,-20 247.38,0 287.38,0 287.38,-20"/>
<text xml:space="preserve" text-anchor="middle" x="267.38" y="-6.5" font-family="Helvetica,sans-Serif" font-size="10.00">bitset</text>
</a>
</g>
</g>
<!-- Node7&#45;&gt;Node8 -->
<g id="edge7_Node000007_Node000008" class="edge">
<title>Node7&#45;&gt;Node8</title>
<g id="a_edge7_Node000007_Node000008"><a xlink:title=" ">
<path fill="none" stroke="#63b8ff" d="M267.38,-55.59C267.38,-49.01 267.38,-39.96 267.38,-31.73"/>
<polygon fill="#63b8ff" stroke="#63b8ff" points="270.88,-31.81 267.38,-21.81 263.88,-31.81 270.88,-31.81"/>
</a>
</g>
</g>
<!-- Node9 -->
<g id="Node000009" class="node">
<title>Node9</title>
<g id="a_Node000009"><a xlink:title=" ">
<polygon fill="#e0e0e0" stroke="#999999" points="682,-20 636.75,-20 636.75,0 682,0 682,-20"/>
<text xml:space="preserve" text-anchor="middle" x="659.38" y="-6.5" font-family="Helvetica,sans-Serif" font-size="10.00">cstdint</text>
</a>
</g>
</g>
<!-- Node7&#45;&gt;Node9 -->
<g id="edge8_Node000007_Node000009" class="edge">
<title>Node7&#45;&gt;Node9</title>
<g id="a_edge8_Node000007_Node000009"><a xlink:title=" ">
<path fill="none" stroke="#63b8ff" d="M298.33,-57.73C301.38,-57.11 304.43,-56.52 307.38,-56 423.37,-35.58 562.43,-20.56 625.41,-14.27"/>
<polygon fill="#63b8ff" stroke="#63b8ff" points="625.5,-17.78 635.11,-13.31 624.81,-10.81 625.5,-17.78"/>
</a>
</g>
</g>
<!-- Node10&#45;&gt;Node2 -->
<g id="edge10_Node000010_Node000002" class="edge">
<title>Node10&#45;&gt;Node2</title>
<g id="a_edge10_Node000010_Node000002"><a xlink:title=" ">
<path fill="none" stroke="#63b8ff" d="M360.31,-229.62C321.13,-218.84 256.89,-201.16 215.64,-189.81"/>
<polygon fill="#63b8ff" stroke="#63b8ff" points="216.68,-186.46 206.11,-187.18 214.82,-193.21 216.68,-186.46"/>
</a>
</g>
</g>
<!-- Node10&#45;&gt;Node5 -->
<g id="edge12_Node000010_Node000005" class="edge">
<title>Node10&#45;&gt;Node5</title>
<g id="a_edge12_Node000010_Node000005"><a xlink:title=" ">
<path fill="none" stroke="#63b8ff" d="M362.77,-229.53C333.36,-220.3 288.59,-205.17 251.38,-188 234.25,-180.1 191.51,-154.92 163.78,-138.32"/>
<polygon fill="#63b8ff" stroke="#63b8ff" points="165.64,-135.36 155.27,-133.21 162.04,-141.36 165.64,-135.36"/>
</a>
</g>
</g>
<!-- Node10&#45;&gt;Node7 -->
<g id="edge32_Node000010_Node000007" class="edge">
<title>Node10&#45;&gt;Node7</title>
<g id="a_edge32_Node000010_Node000007"><a xlink:title=" ">
<path fill="none" stroke="#63b8ff" d="M388.05,-229.62C378.19,-215.39 358.15,-187.9 337.38,-168 317.86,-149.3 304.18,-153.92 288.38,-132 278.81,-118.74 273.46,-100.92 270.56,-87.29"/>
<polygon fill="#63b8ff" stroke="#63b8ff" points="274.04,-86.9 268.8,-77.7 267.16,-88.16 274.04,-86.9"/>
</a>
</g>
</g>
<!-- Node11 -->
<g id="Node000011" class="node">
<title>Node11</title>
<g id="a_Node000011"><a xlink:title=" ">
<polygon fill="#e0e0e0" stroke="#999999" points="740.12,-188 686.62,-188 686.62,-168 740.12,-168 740.12,-188"/>
<text xml:space="preserve" text-anchor="middle" x="713.38" y="-174.5" font-family="Helvetica,sans-Serif" font-size="10.00">iostream</text>
</a>
</g>
</g>
<!-- Node10&#45;&gt;Node11 -->
<g id="edge11_Node000010_Node000011" class="edge">
<title>Node10&#45;&gt;Node11</title>
<g id="a_edge11_Node000010_Node000011"><a xlink:title=" ">
<path fill="none" stroke="#63b8ff" d="M449.08,-229.54C505.22,-219.7 595.05,-203.57 672.38,-188 673.38,-187.8 674.39,-187.59 675.41,-187.38"/>
<polygon fill="#63b8ff" stroke="#63b8ff" points="675.96,-190.84 685.02,-185.35 674.51,-184 675.96,-190.84"/>
</a>
</g>
</g>
<!-- Node12 -->
<g id="Node000012" class="node">
<title>Node12</title>
<g id="a_Node000012"><a xlink:title=" ">
<polygon fill="#e0e0e0" stroke="#999999" points="535.88,-76 492.88,-76 492.88,-56 535.88,-56 535.88,-76"/>
<text xml:space="preserve" text-anchor="middle" x="514.38" y="-62.5" font-family="Helvetica,sans-Serif" font-size="10.00">vector</text>
</a>
</g>
</g>
<!-- Node10&#45;&gt;Node12 -->
<g id="edge13_Node000010_Node000012" class="edge">
<title>Node10&#45;&gt;Node12</title>
<g id="a_edge13_Node000010_Node000012"><a xlink:title=" ">
<path fill="none" stroke="#63b8ff" d="M425.97,-229.51C466.25,-215.52 534.15,-185.09 563.38,-132 573.32,-113.93 556,-95.33 539.26,-82.69"/>
<polygon fill="#63b8ff" stroke="#63b8ff" points="541.64,-80.08 531.44,-77.18 537.61,-85.8 541.64,-80.08"/>
</a>
</g>
</g>
<!-- Node13 -->
<g id="Node000013" class="node">
<title>Node13</title>
<g id="a_Node000013"><a xlink:href="Clock_8hpp.html" target="_top" xlink:title=" ">
<polygon fill="white" stroke="#666666" points="786.5,-132 726.25,-132 726.25,-112 786.5,-112 786.5,-132"/>
<text xml:space="preserve" text-anchor="middle" x="756.38" y="-118.5" font-family="Helvetica,sans-Serif" font-size="10.00">Clock.hpp</text>
</a>
</g>
</g>
<!-- Node10&#45;&gt;Node13 -->
<g id="edge14_Node000010_Node000013" class="edge">
<title>Node10&#45;&gt;Node13</title>
<g id="a_edge14_Node000010_Node000013"><a xlink:title=" ">
<path fill="none" stroke="#63b8ff" d="M452.83,-229.9C499.75,-221.67 566.87,-207.79 623.38,-188 662.17,-174.41 704.41,-152.43 730.65,-137.84"/>
<polygon fill="#63b8ff" stroke="#63b8ff" points="732.21,-140.98 739.21,-133.02 728.78,-134.88 732.21,-140.98"/>
</a>
</g>
</g>
<!-- Node14 -->
<g id="Node000014" class="node">
<title>Node14</title>
<g id="a_Node000014"><a xlink:href="ComponentRegistry_8hpp.html" target="_top" xlink:title=" ">
<polygon fill="white" stroke="#666666" points="417.88,-132 296.88,-132 296.88,-112 417.88,-112 417.88,-132"/>
<text xml:space="preserve" text-anchor="middle" x="357.38" y="-118.5" font-family="Helvetica,sans-Serif" font-size="10.00">ComponentRegistry.hpp</text>
</a>
</g>
</g>
<!-- Node10&#45;&gt;Node14 -->
<g id="edge16_Node000010_Node000014" class="edge">
<title>Node10&#45;&gt;Node14</title>
<g id="a_edge16_Node000010_Node000014"><a xlink:title=" ">
<path fill="none" stroke="#63b8ff" d="M391.35,-229.51C385.35,-210.72 371.87,-168.44 363.81,-143.16"/>
<polygon fill="#63b8ff" stroke="#63b8ff" points="367.17,-142.21 360.8,-133.74 360.51,-144.33 367.17,-142.21"/>
</a>
</g>
</g>
<!-- Node17 -->
<g id="Node000017" class="node">
<title>Node17</title>
<g id="a_Node000017"><a xlink:href="EntityManager_8hpp.html" target="_top" xlink:title=" ">
<polygon fill="white" stroke="#666666" points="708.25,-132 610.5,-132 610.5,-112 708.25,-112 708.25,-132"/>
<text xml:space="preserve" text-anchor="middle" x="659.38" y="-118.5" font-family="Helvetica,sans-Serif" font-size="10.00">EntityManager.hpp</text>
</a>
</g>
</g>
<!-- Node10&#45;&gt;Node17 -->
<g id="edge22_Node000010_Node000017" class="edge">
<title>Node10&#45;&gt;Node17</title>
<g id="a_edge22_Node000010_Node000017"><a xlink:title=" ">
<path fill="none" stroke="#63b8ff" d="M452.86,-232.89C495.03,-226.49 552.07,-213.62 596.38,-188 616.72,-176.24 634.78,-156.05 646.3,-141.28"/>
<polygon fill="#63b8ff" stroke="#63b8ff" points="649.07,-143.41 652.26,-133.31 643.47,-139.22 649.07,-143.41"/>
</a>
</g>
</g>
<!-- Node18 -->
<g id="Node000018" class="node">
<title>Node18</title>
<g id="a_Node000018"><a xlink:href="SparseSet_8hpp.html" target="_top" xlink:title=" ">
<polygon fill="white" stroke="#666666" points="554.62,-132 474.12,-132 474.12,-112 554.62,-112 554.62,-132"/>
<text xml:space="preserve" text-anchor="middle" x="514.38" y="-118.5" font-family="Helvetica,sans-Serif" font-size="10.00">SparseSet.hpp</text>
</a>
</g>
</g>
<!-- Node10&#45;&gt;Node18 -->
<g id="edge25_Node000010_Node000018" class="edge">
<title>Node10&#45;&gt;Node18</title>
<g id="a_edge25_Node000010_Node000018"><a xlink:title=" ">
<path fill="none" stroke="#63b8ff" d="M404.2,-229.51C424.42,-209.95 470.99,-164.94 496.63,-140.15"/>
<polygon fill="#63b8ff" stroke="#63b8ff" points="498.91,-142.82 503.67,-133.35 494.04,-137.79 498.91,-142.82"/>
</a>
</g>
</g>
<!-- Node10&#45;&gt;Node19 -->
<g id="edge27_Node000010_Node000019" class="edge">
<title>Node10&#45;&gt;Node19</title>
<g id="a_edge27_Node000010_Node000019"><a xlink:title=" ">
<path fill="none" stroke="#63b8ff" d="M378.75,-229.62C362.97,-220.16 338.34,-205.38 319.76,-194.23"/>
<polygon fill="#63b8ff" stroke="#63b8ff" points="321.56,-191.23 311.19,-189.09 317.96,-197.23 321.56,-191.23"/>
</a>
</g>
</g>
<!-- Node13&#45;&gt;Node9 -->
<g id="edge15_Node000013_Node000009" class="edge">
<title>Node13&#45;&gt;Node9</title>
<g id="a_edge15_Node000013_Node000009"><a xlink:title=" ">
<path fill="none" stroke="#63b8ff" d="M748.1,-111.62C731.93,-93.27 695.86,-52.37 675.03,-28.75"/>
<polygon fill="#63b8ff" stroke="#63b8ff" points="677.86,-26.68 668.63,-21.49 672.61,-31.31 677.86,-26.68"/>
</a>
</g>
</g>
<!-- Node14&#45;&gt;Node6 -->
<g id="edge17_Node000014_Node000006" class="edge">
<title>Node14&#45;&gt;Node6</title>
<g id="a_edge17_Node000014_Node000006"><a xlink:title=" ">
<path fill="none" stroke="#63b8ff" d="M328.63,-111.59C299.16,-101.95 253.47,-87 223.25,-77.1"/>
<polygon fill="#63b8ff" stroke="#63b8ff" points="224.51,-73.84 213.92,-74.05 222.34,-80.49 224.51,-73.84"/>
</a>
</g>
</g>
<!-- Node14&#45;&gt;Node7 -->
<g id="edge21_Node000014_Node000007" class="edge">
<title>Node14&#45;&gt;Node7</title>
<g id="a_edge21_Node000014_Node000007"><a xlink:title=" ">
<path fill="none" stroke="#63b8ff" d="M341.7,-111.59C328.23,-103.51 308.56,-91.71 292.83,-82.27"/>
<polygon fill="#63b8ff" stroke="#63b8ff" points="294.85,-79.4 284.47,-77.26 291.25,-85.4 294.85,-79.4"/>
</a>
</g>
</g>
<!-- Node14&#45;&gt;Node12 -->
<g id="edge20_Node000014_Node000012" class="edge">
<title>Node14&#45;&gt;Node12</title>
<g id="a_edge20_Node000014_Node000012"><a xlink:title=" ">
<path fill="none" stroke="#63b8ff" d="M384.72,-111.59C411.71,-102.31 452.99,-88.11 481.7,-78.24"/>
<polygon fill="#63b8ff" stroke="#63b8ff" points="482.65,-81.61 490.97,-75.05 480.37,-74.99 482.65,-81.61"/>
</a>
</g>
</g>
<!-- Node15 -->
<g id="Node000015" class="node">
<title>Node15</title>
<g id="a_Node000015"><a xlink:title=" ">
<polygon fill="#e0e0e0" stroke="#999999" points="474.38,-76 416.38,-76 416.38,-56 474.38,-56 474.38,-76"/>
<text xml:space="preserve" text-anchor="middle" x="445.38" y="-62.5" font-family="Helvetica,sans-Serif" font-size="10.00">typeindex</text>
</a>
</g>
</g>
<!-- Node14&#45;&gt;Node15 -->
<g id="edge18_Node000014_Node000015" class="edge">
<title>Node14&#45;&gt;Node15</title>
<g id="a_edge18_Node000014_Node000015"><a xlink:title=" ">
<path fill="none" stroke="#63b8ff" d="M372.7,-111.59C385.87,-103.51 405.11,-91.71 420.48,-82.27"/>
<polygon fill="#63b8ff" stroke="#63b8ff" points="421.94,-85.48 428.64,-77.27 418.28,-79.52 421.94,-85.48"/>
</a>
</g>
</g>
<!-- Node16 -->
<g id="Node000016" class="node">
<title>Node16</title>
<g id="a_Node000016"><a xlink:title=" ">
<polygon fill="#e0e0e0" stroke="#999999" points="398.75,-76 316,-76 316,-56 398.75,-56 398.75,-76"/>
<text xml:space="preserve" text-anchor="middle" x="357.38" y="-62.5" font-family="Helvetica,sans-Serif" font-size="10.00">unordered_map</text>
</a>
</g>
</g>
<!-- Node14&#45;&gt;Node16 -->
<g id="edge19_Node000014_Node000016" class="edge">
<title>Node14&#45;&gt;Node16</title>
<g id="a_edge19_Node000014_Node000016"><a xlink:title=" ">
<path fill="none" stroke="#63b8ff" d="M357.38,-111.59C357.38,-105.01 357.38,-95.96 357.38,-87.73"/>
<polygon fill="#63b8ff" stroke="#63b8ff" points="360.88,-87.81 357.38,-77.81 353.88,-87.81 360.88,-87.81"/>
</a>
</g>
</g>
<!-- Node17&#45;&gt;Node9 -->
<g id="edge23_Node000017_Node000009" class="edge">
<title>Node17&#45;&gt;Node9</title>
<g id="a_edge23_Node000017_Node000009"><a xlink:title=" ">
<path fill="none" stroke="#63b8ff" d="M659.38,-111.62C659.38,-94.01 659.38,-55.59 659.38,-31.65"/>
<polygon fill="#63b8ff" stroke="#63b8ff" points="662.88,-31.87 659.38,-21.87 655.88,-31.87 662.88,-31.87"/>
</a>
</g>
</g>
<!-- Node17&#45;&gt;Node12 -->
<g id="edge24_Node000017_Node000012" class="edge">
<title>Node17&#45;&gt;Node12</title>
<g id="a_edge24_Node000017_Node000012"><a xlink:title=" ">
<path fill="none" stroke="#63b8ff" d="M634.12,-111.59C609.84,-102.55 573.03,-88.85 546.64,-79.02"/>
<polygon fill="#63b8ff" stroke="#63b8ff" points="548.05,-75.8 537.45,-75.59 545.6,-82.36 548.05,-75.8"/>
</a>
</g>
</g>
<!-- Node18&#45;&gt;Node12 -->
<g id="edge26_Node000018_Node000012" class="edge">
<title>Node18&#45;&gt;Node12</title>
<g id="a_edge26_Node000018_Node000012"><a xlink:title=" ">
<path fill="none" stroke="#63b8ff" d="M514.38,-111.59C514.38,-105.01 514.38,-95.96 514.38,-87.73"/>
<polygon fill="#63b8ff" stroke="#63b8ff" points="517.88,-87.81 514.38,-77.81 510.88,-87.81 517.88,-87.81"/>
</a>
</g>
</g>
<!-- Node19&#45;&gt;Node6 -->
<g id="edge28_Node000019_Node000006" class="edge">
<title>Node19&#45;&gt;Node6</title>
<g id="a_edge28_Node000019_Node000006"><a xlink:title=" ">
<path fill="none" stroke="#63b8ff" d="M283.99,-167.64C274.26,-158.74 259.45,-144.84 247.38,-132 232.87,-116.58 217.38,-98.06 206.55,-84.75"/>
<polygon fill="#63b8ff" stroke="#63b8ff" points="209.51,-82.85 200.51,-77.27 204.06,-87.25 209.51,-82.85"/>
</a>
</g>
</g>
<!-- Node19&#45;&gt;Node7 -->
<g id="edge31_Node000019_Node000007" class="edge">
<title>Node19&#45;&gt;Node7</title>
<g id="a_edge31_Node000019_Node000007"><a xlink:title=" ">
<path fill="none" stroke="#63b8ff" d="M282.35,-167.78C272.72,-159.59 259.95,-146.66 254.38,-132 248.74,-117.19 252.93,-99.51 258,-86.33"/>
<polygon fill="#63b8ff" stroke="#63b8ff" points="261.07,-88.05 261.86,-77.48 254.65,-85.25 261.07,-88.05"/>
</a>
</g>
</g>
<!-- Node19&#45;&gt;Node12 -->
<g id="edge29_Node000019_Node000012" class="edge">
<title>Node19&#45;&gt;Node12</title>
<g id="a_edge29_Node000019_Node000012"><a xlink:title=" ">
<path fill="none" stroke="#63b8ff" d="M328.93,-168.54C356.51,-161.04 395.66,-148.67 427.38,-132 452.86,-118.6 478.9,-98.06 495.76,-83.66"/>
<polygon fill="#63b8ff" stroke="#63b8ff" points="497.74,-86.58 502.99,-77.37 493.15,-81.3 497.74,-86.58"/>
</a>
</g>
</g>
<!-- Node19&#45;&gt;Node14 -->
<g id="edge30_Node000019_Node000014" class="edge">
<title>Node19&#45;&gt;Node14</title>
<g id="a_edge30_Node000019_Node000014"><a xlink:title=" ">
<path fill="none" stroke="#63b8ff" d="M305.35,-167.59C314.29,-159.93 327.15,-148.91 337.84,-139.75"/>
<polygon fill="#63b8ff" stroke="#63b8ff" points="340.06,-142.45 345.38,-133.28 335.51,-137.13 340.06,-142.45"/>
</a>
</g>
</g>
</g>
</svg>
