<?xml version="1.0" encoding="UTF-8" standalone="no"?>
<!DOCTYPE svg PUBLIC "-//W3C//DTD SVG 1.1//EN"
 "http://www.w3.org/Graphics/SVG/1.1/DTD/svg11.dtd">
<!-- Generated by graphviz version 14.0.2 (0)
 -->
<!-- Title: systems Pages: 1 -->
<svg width="829pt" height="100pt"
 viewBox="0.00 0.00 829.00 100.00" xmlns="http://www.w3.org/2000/svg" xmlns:xlink="http://www.w3.org/1999/xlink">
<g id="graph0" class="graph" transform="scale(1 1) rotate(0) translate(4 96.02)">
<title>systems</title>
<g id="clust1" class="cluster">
<title>clusterdir_42100eec88c69628f959138af350aadf</title>
<g id="a_clust1"><a xlink:href="dir_42100eec88c69628f959138af350aadf.html" target="_top">
<polygon fill="#edf0f7" stroke="#404040" stroke-width="2" points="8,-48.02 8,-84.02 813,-84.02 813,-48.02 8,-48.02"/>
</a>
</g>
</g>
<!-- dir_42100eec88c69628f959138af350aadf -->
<g id="node1" class="node">
<title>dir_42100eec88c69628f959138af350aadf</title>
<text xml:space="preserve" text-anchor="middle" x="43" y="-62.52" font-family="Helvetica,sans-Serif" font-size="10.00">systems</text>
</g>
<!-- dir_7deb08e576331b63790161a23c3263b5 -->
<g id="node2" class="node">
<title>dir_7deb08e576331b63790161a23c3263b5</title>
<g id="a_node2"><a xlink:href="dir_7deb08e576331b63790161a23c3263b5.html" target="_top" xlink:title="animation">
<polygon fill="#a2b4d6" stroke="#404040" points="209,-76.02 151,-76.02 151,-56.02 209,-56.02 209,-76.02"/>
<text xml:space="preserve" text-anchor="middle" x="180" y="-62.52" font-family="Helvetica,sans-Serif" font-size="10.00">animation</text>
</a>
</g>
</g>
<!-- dir_409f97388efe006bc3438b95e9edef48 -->
<g id="node11" class="node">
<title>dir_409f97388efe006bc3438b95e9edef48</title>
<g id="a_node11"><a xlink:href="dir_409f97388efe006bc3438b95e9edef48.html" target="_top" xlink:title="components">
<polygon fill="#edf0f7" stroke="red" points="395.62,-20.02 326.38,-20.02 326.38,-0.02 395.62,-0.02 395.62,-20.02"/>
<text xml:space="preserve" text-anchor="middle" x="361" y="-6.52" font-family="Helvetica,sans-Serif" font-size="10.00">components</text>
</a>
</g>
</g>
<!-- dir_7deb08e576331b63790161a23c3263b5&#45;&gt;dir_409f97388efe006bc3438b95e9edef48 -->
<g id="edge1" class="edge">
<title>dir_7deb08e576331b63790161a23c3263b5&#45;&gt;dir_409f97388efe006bc3438b95e9edef48</title>
<g id="a_edge1"><a xlink:href="dir_000002_000006.html" target="_top">
<path fill="none" stroke="#63b8ff" d="M199.47,-55.56C205.34,-52.91 211.86,-50.17 218,-48.02 249.8,-36.88 286.63,-27.43 314.95,-20.86"/>
<polygon fill="#63b8ff" stroke="#63b8ff" points="315.68,-24.29 324.66,-18.66 314.13,-17.46 315.68,-24.29"/>
</a>
</g>
<g id="a_edge1&#45;headlabel"><a xlink:href="dir_000002_000006.html" target="_top" xlink:title="1">
<text xml:space="preserve" text-anchor="middle" x="314.28" y="-24.02" font-family="Helvetica,sans-Serif" font-size="10.00" fill="#63b8ff">1</text>
</a>
</g>
</g>
<!-- dir_eafb92770fbc727220bdaa0b1292f771 -->
<g id="node12" class="node">
<title>dir_eafb92770fbc727220bdaa0b1292f771</title>
<g id="a_node12"><a xlink:href="dir_eafb92770fbc727220bdaa0b1292f771.html" target="_top" xlink:title="ecs">
<polygon fill="#edf0f7" stroke="#404040" points="445.88,-20.02 414.12,-20.02 414.12,-0.02 445.88,-0.02 445.88,-20.02"/>
<text xml:space="preserve" text-anchor="middle" x="430" y="-6.52" font-family="Helvetica,sans-Serif" font-size="10.00">ecs</text>
</a>
</g>
</g>
<!-- dir_7deb08e576331b63790161a23c3263b5&#45;&gt;dir_eafb92770fbc727220bdaa0b1292f771 -->
<g id="edge2" class="edge">
<title>dir_7deb08e576331b63790161a23c3263b5&#45;&gt;dir_eafb92770fbc727220bdaa0b1292f771</title>
<g id="a_edge2"><a xlink:href="dir_000002_000012.html" target="_top">
<path fill="none" stroke="#63b8ff" d="M198.17,-55.68C204.33,-52.84 211.34,-49.97 218,-48.02 295.35,-25.39 321.38,-39.31 402.96,-20.05"/>
<polygon fill="#63b8ff" stroke="#63b8ff" points="403.4,-23.55 412.27,-17.75 401.72,-16.75 403.4,-23.55"/>
</a>
</g>
<g id="a_edge2&#45;headlabel"><a xlink:href="dir_000002_000012.html" target="_top" xlink:title="2">
<text xml:space="preserve" text-anchor="middle" x="402.06" y="-23.3" font-family="Helvetica,sans-Serif" font-size="10.00" fill="#63b8ff">2</text>
</a>
</g>
</g>
<!-- dir_e95470b6a5c73ace1450f0064bb5f94b -->
<g id="node3" class="node">
<title>dir_e95470b6a5c73ace1450f0064bb5f94b</title>
<g id="a_node3"><a xlink:href="dir_e95470b6a5c73ace1450f0064bb5f94b.html" target="_top" xlink:title="collision">
<polygon fill="#a2b4d6" stroke="#404040" points="278.62,-76.02 227.38,-76.02 227.38,-56.02 278.62,-56.02 278.62,-76.02"/>
<text xml:space="preserve" text-anchor="middle" x="253" y="-62.52" font-family="Helvetica,sans-Serif" font-size="10.00">collision</text>
</a>
</g>
</g>
<!-- dir_e95470b6a5c73ace1450f0064bb5f94b&#45;&gt;dir_409f97388efe006bc3438b95e9edef48 -->
<g id="edge3" class="edge">
<title>dir_e95470b6a5c73ace1450f0064bb5f94b&#45;&gt;dir_409f97388efe006bc3438b95e9edef48</title>
<g id="a_edge3"><a xlink:href="dir_000005_000006.html" target="_top">
<path fill="none" stroke="#63b8ff" d="M271.81,-55.61C288.36,-47.34 312.71,-35.16 331.79,-25.62"/>
<polygon fill="#63b8ff" stroke="#63b8ff" points="333.31,-28.78 340.69,-21.17 330.18,-22.52 333.31,-28.78"/>
</a>
</g>
<g id="a_edge3&#45;headlabel"><a xlink:href="dir_000005_000006.html" target="_top" xlink:title="5">
<text xml:space="preserve" text-anchor="middle" x="332.72" y="-28.75" font-family="Helvetica,sans-Serif" font-size="10.00" fill="#63b8ff">5</text>
</a>
</g>
</g>
<!-- dir_e95470b6a5c73ace1450f0064bb5f94b&#45;&gt;dir_eafb92770fbc727220bdaa0b1292f771 -->
<g id="edge4" class="edge">
<title>dir_e95470b6a5c73ace1450f0064bb5f94b&#45;&gt;dir_eafb92770fbc727220bdaa0b1292f771</title>
<g id="a_edge4"><a xlink:href="dir_000005_000012.html" target="_top">
<path fill="none" stroke="#63b8ff" d="M270.48,-55.6C275.98,-52.89 282.15,-50.11 288,-48.02 335.1,-31.17 351.63,-34.73 402.63,-20.41"/>
<polygon fill="#63b8ff" stroke="#63b8ff" points="403.61,-23.77 412.23,-17.61 401.65,-17.05 403.61,-23.77"/>
</a>
</g>
<g id="a_edge4&#45;headlabel"><a xlink:href="dir_000005_000012.html" target="_top" xlink:title="2">
<text xml:space="preserve" text-anchor="middle" x="402.41" y="-23.58" font-family="Helvetica,sans-Serif" font-size="10.00" fill="#63b8ff">2</text>
</a>
</g>
</g>
<!-- dir_7b064ad0e09f69d1c86624ea0479e150 -->
<g id="node4" class="node">
<title>dir_7b064ad0e09f69d1c86624ea0479e150</title>
<g id="a_node4"><a xlink:href="dir_7b064ad0e09f69d1c86624ea0479e150.html" target="_top" xlink:title="death">
<polygon fill="#a2b4d6" stroke="#404040" points="337,-76.02 297,-76.02 297,-56.02 337,-56.02 337,-76.02"/>
<text xml:space="preserve" text-anchor="middle" x="317" y="-62.52" font-family="Helvetica,sans-Serif" font-size="10.00">death</text>
</a>
</g>
</g>
<!-- dir_7b064ad0e09f69d1c86624ea0479e150&#45;&gt;dir_409f97388efe006bc3438b95e9edef48 -->
<g id="edge5" class="edge">
<title>dir_7b064ad0e09f69d1c86624ea0479e150&#45;&gt;dir_409f97388efe006bc3438b95e9edef48</title>
<g id="a_edge5"><a xlink:href="dir_000008_000006.html" target="_top">
<path fill="none" stroke="#63b8ff" d="M324.66,-55.61C330.59,-48.33 338.99,-38.03 346.21,-29.16"/>
<polygon fill="#63b8ff" stroke="#63b8ff" points="348.86,-31.45 352.47,-21.49 343.44,-27.03 348.86,-31.45"/>
</a>
</g>
<g id="a_edge5&#45;headlabel"><a xlink:href="dir_000008_000006.html" target="_top" xlink:title="2">
<text xml:space="preserve" text-anchor="middle" x="349.75" y="-31.36" font-family="Helvetica,sans-Serif" font-size="10.00" fill="#63b8ff">2</text>
</a>
</g>
</g>
<!-- dir_7b064ad0e09f69d1c86624ea0479e150&#45;&gt;dir_eafb92770fbc727220bdaa0b1292f771 -->
<g id="edge6" class="edge">
<title>dir_7b064ad0e09f69d1c86624ea0479e150&#45;&gt;dir_eafb92770fbc727220bdaa0b1292f771</title>
<g id="a_edge6"><a xlink:href="dir_000008_000012.html" target="_top">
<path fill="none" stroke="#63b8ff" d="M332.17,-55.68C336.57,-53.09 341.43,-50.35 346,-48.02 364.68,-38.47 386.35,-28.96 403.01,-21.97"/>
<polygon fill="#63b8ff" stroke="#63b8ff" points="404.34,-25.21 412.24,-18.15 401.66,-18.74 404.34,-25.21"/>
</a>
</g>
<g id="a_edge6&#45;headlabel"><a xlink:href="dir_000008_000012.html" target="_top" xlink:title="2">
<text xml:space="preserve" text-anchor="middle" x="403.51" y="-25.13" font-family="Helvetica,sans-Serif" font-size="10.00" fill="#63b8ff">2</text>
</a>
</g>
</g>
<!-- dir_5d6718b04de913509e54b4a5bf4f146a -->
<g id="node5" class="node">
<title>dir_5d6718b04de913509e54b4a5bf4f146a</title>
<g id="a_node5"><a xlink:href="dir_5d6718b04de913509e54b4a5bf4f146a.html" target="_top" xlink:title="domainHandler">
<polygon fill="#a2b4d6" stroke="#404040" points="436.62,-76.02 355.38,-76.02 355.38,-56.02 436.62,-56.02 436.62,-76.02"/>
<text xml:space="preserve" text-anchor="middle" x="396" y="-62.52" font-family="Helvetica,sans-Serif" font-size="10.00">domainHandler</text>
</a>
</g>
</g>
<!-- dir_5d6718b04de913509e54b4a5bf4f146a&#45;&gt;dir_409f97388efe006bc3438b95e9edef48 -->
<g id="edge7" class="edge">
<title>dir_5d6718b04de913509e54b4a5bf4f146a&#45;&gt;dir_409f97388efe006bc3438b95e9edef48</title>
<g id="a_edge7"><a xlink:href="dir_000011_000006.html" target="_top">
<path fill="none" stroke="#63b8ff" d="M389.9,-55.61C385.29,-48.49 378.79,-38.47 373.13,-29.73"/>
<polygon fill="#63b8ff" stroke="#63b8ff" points="376.23,-28.07 367.85,-21.59 370.35,-31.88 376.23,-28.07"/>
</a>
</g>
<g id="a_edge7&#45;headlabel"><a xlink:href="dir_000011_000006.html" target="_top" xlink:title="2">
<text xml:space="preserve" text-anchor="middle" x="379.74" y="-24.78" font-family="Helvetica,sans-Serif" font-size="10.00" fill="#63b8ff">2</text>
</a>
</g>
</g>
<!-- dir_5d6718b04de913509e54b4a5bf4f146a&#45;&gt;dir_eafb92770fbc727220bdaa0b1292f771 -->
<g id="edge8" class="edge">
<title>dir_5d6718b04de913509e54b4a5bf4f146a&#45;&gt;dir_eafb92770fbc727220bdaa0b1292f771</title>
<g id="a_edge8"><a xlink:href="dir_000011_000012.html" target="_top">
<path fill="none" stroke="#63b8ff" d="M401.92,-55.61C406.36,-48.56 412.58,-38.69 418.04,-30.02"/>
<polygon fill="#63b8ff" stroke="#63b8ff" points="420.97,-31.92 423.34,-21.6 415.05,-28.19 420.97,-31.92"/>
</a>
</g>
<g id="a_edge8&#45;headlabel"><a xlink:href="dir_000011_000012.html" target="_top" xlink:title="2">
<text xml:space="preserve" text-anchor="middle" x="422.27" y="-31.7" font-family="Helvetica,sans-Serif" font-size="10.00" fill="#63b8ff">2</text>
</a>
</g>
</g>
<!-- dir_187fa6ea593bfb0b13d6f6977645b81b -->
<g id="node6" class="node">
<title>dir_187fa6ea593bfb0b13d6f6977645b81b</title>
<g id="a_node6"><a xlink:href="dir_187fa6ea593bfb0b13d6f6977645b81b.html" target="_top" xlink:title="FPApplyGravity">
<polygon fill="#a2b4d6" stroke="#404040" points="539.12,-76.02 454.88,-76.02 454.88,-56.02 539.12,-56.02 539.12,-76.02"/>
<text xml:space="preserve" text-anchor="middle" x="497" y="-62.52" font-family="Helvetica,sans-Serif" font-size="10.00">FPApplyGravity</text>
</a>
</g>
</g>
<!-- dir_187fa6ea593bfb0b13d6f6977645b81b&#45;&gt;dir_409f97388efe006bc3438b95e9edef48 -->
<g id="edge9" class="edge">
<title>dir_187fa6ea593bfb0b13d6f6977645b81b&#45;&gt;dir_409f97388efe006bc3438b95e9edef48</title>
<g id="a_edge9"><a xlink:href="dir_000013_000006.html" target="_top">
<path fill="none" stroke="#63b8ff" d="M473.31,-55.61C451.8,-47.07 419.8,-34.36 395.46,-24.7"/>
<polygon fill="#63b8ff" stroke="#63b8ff" points="396.87,-21.49 386.28,-21.06 394.28,-28 396.87,-21.49"/>
</a>
</g>
<g id="a_edge9&#45;headlabel"><a xlink:href="dir_000013_000006.html" target="_top" xlink:title="3">
<text xml:space="preserve" text-anchor="middle" x="399.85" y="-16.12" font-family="Helvetica,sans-Serif" font-size="10.00" fill="#63b8ff">3</text>
</a>
</g>
</g>
<!-- dir_187fa6ea593bfb0b13d6f6977645b81b&#45;&gt;dir_eafb92770fbc727220bdaa0b1292f771 -->
<g id="edge10" class="edge">
<title>dir_187fa6ea593bfb0b13d6f6977645b81b&#45;&gt;dir_eafb92770fbc727220bdaa0b1292f771</title>
<g id="a_edge10"><a xlink:href="dir_000013_000012.html" target="_top">
<path fill="none" stroke="#63b8ff" d="M485.33,-55.61C475.72,-47.87 461.87,-36.71 450.43,-27.49"/>
<polygon fill="#63b8ff" stroke="#63b8ff" points="452.7,-24.82 442.72,-21.27 448.3,-30.27 452.7,-24.82"/>
</a>
</g>
<g id="a_edge10&#45;headlabel"><a xlink:href="dir_000013_000012.html" target="_top" xlink:title="2">
<text xml:space="preserve" text-anchor="middle" x="456.1" y="-20.41" font-family="Helvetica,sans-Serif" font-size="10.00" fill="#63b8ff">2</text>
</a>
</g>
</g>
<!-- dir_a5e693b2d89c68cf8100b1b09a1953f5 -->
<g id="node7" class="node">
<title>dir_a5e693b2d89c68cf8100b1b09a1953f5</title>
<g id="a_node7"><a xlink:href="dir_a5e693b2d89c68cf8100b1b09a1953f5.html" target="_top" xlink:title="FPInputHandler">
<polygon fill="#a2b4d6" stroke="#404040" points="641.12,-76.02 556.88,-76.02 556.88,-56.02 641.12,-56.02 641.12,-76.02"/>
<text xml:space="preserve" text-anchor="middle" x="599" y="-62.52" font-family="Helvetica,sans-Serif" font-size="10.00">FPInputHandler</text>
</a>
</g>
</g>
<!-- dir_a5e693b2d89c68cf8100b1b09a1953f5&#45;&gt;dir_409f97388efe006bc3438b95e9edef48 -->
<g id="edge11" class="edge">
<title>dir_a5e693b2d89c68cf8100b1b09a1953f5&#45;&gt;dir_409f97388efe006bc3438b95e9edef48</title>
<g id="a_edge11"><a xlink:href="dir_000014_000006.html" target="_top">
<path fill="none" stroke="#63b8ff" d="M572.72,-55.54C564.84,-52.89 556.12,-50.16 548,-48.02 488.68,-32.39 470.41,-32.65 407.07,-20.39"/>
<polygon fill="#63b8ff" stroke="#63b8ff" points="408.03,-17.01 397.54,-18.51 406.68,-23.88 408.03,-17.01"/>
</a>
</g>
<g id="a_edge11&#45;headlabel"><a xlink:href="dir_000014_000006.html" target="_top" xlink:title="8">
<text xml:space="preserve" text-anchor="middle" x="410.62" y="-11.12" font-family="Helvetica,sans-Serif" font-size="10.00" fill="#63b8ff">8</text>
</a>
</g>
</g>
<!-- dir_a5e693b2d89c68cf8100b1b09a1953f5&#45;&gt;dir_eafb92770fbc727220bdaa0b1292f771 -->
<g id="edge12" class="edge">
<title>dir_a5e693b2d89c68cf8100b1b09a1953f5&#45;&gt;dir_eafb92770fbc727220bdaa0b1292f771</title>
<g id="a_edge12"><a xlink:href="dir_000014_000012.html" target="_top">
<path fill="none" stroke="#63b8ff" d="M570.97,-55.57C563.51,-53.09 555.46,-50.43 548,-48.02 516.75,-37.91 480.72,-26.67 456.77,-19.26"/>
<polygon fill="#63b8ff" stroke="#63b8ff" points="458.09,-16.01 447.51,-16.4 456.03,-22.7 458.09,-16.01"/>
</a>
</g>
<g id="a_edge12&#45;headlabel"><a xlink:href="dir_000014_000012.html" target="_top" xlink:title="2">
<text xml:space="preserve" text-anchor="middle" x="460.92" y="-10.41" font-family="Helvetica,sans-Serif" font-size="10.00" fill="#63b8ff">2</text>
</a>
</g>
</g>
<!-- dir_961886c8c99537f3f7799ba6f498ee15 -->
<g id="node8" class="node">
<title>dir_961886c8c99537f3f7799ba6f498ee15</title>
<g id="a_node8"><a xlink:href="dir_961886c8c99537f3f7799ba6f498ee15.html" target="_top" xlink:title="FPMotion">
<polygon fill="#a2b4d6" stroke="#404040" points="717,-76.02 659,-76.02 659,-56.02 717,-56.02 717,-76.02"/>
<text xml:space="preserve" text-anchor="middle" x="688" y="-62.52" font-family="Helvetica,sans-Serif" font-size="10.00">FPMotion</text>
</a>
</g>
</g>
<!-- dir_961886c8c99537f3f7799ba6f498ee15&#45;&gt;dir_409f97388efe006bc3438b95e9edef48 -->
<g id="edge13" class="edge">
<title>dir_961886c8c99537f3f7799ba6f498ee15&#45;&gt;dir_409f97388efe006bc3438b95e9edef48</title>
<g id="a_edge13"><a xlink:href="dir_000015_000006.html" target="_top">
<path fill="none" stroke="#63b8ff" d="M669.87,-55.54C663.71,-52.7 656.69,-49.85 650,-48.02 547.7,-20.01 515.32,-36.12 407.08,-20.17"/>
<polygon fill="#63b8ff" stroke="#63b8ff" points="407.93,-16.76 397.51,-18.7 406.86,-23.68 407.93,-16.76"/>
</a>
</g>
<g id="a_edge13&#45;headlabel"><a xlink:href="dir_000015_000006.html" target="_top" xlink:title="5">
<text xml:space="preserve" text-anchor="middle" x="410.41" y="-10.77" font-family="Helvetica,sans-Serif" font-size="10.00" fill="#63b8ff">5</text>
</a>
</g>
</g>
<!-- dir_961886c8c99537f3f7799ba6f498ee15&#45;&gt;dir_eafb92770fbc727220bdaa0b1292f771 -->
<g id="edge14" class="edge">
<title>dir_961886c8c99537f3f7799ba6f498ee15&#45;&gt;dir_eafb92770fbc727220bdaa0b1292f771</title>
<g id="a_edge14"><a xlink:href="dir_000015_000012.html" target="_top">
<path fill="none" stroke="#63b8ff" d="M669.42,-55.57C663.35,-52.8 656.5,-49.98 650,-48.02 582.52,-27.61 499.77,-17.52 457.59,-13.39"/>
<polygon fill="#63b8ff" stroke="#63b8ff" points="458.12,-9.92 447.84,-12.48 457.47,-16.89 458.12,-9.92"/>
</a>
</g>
<g id="a_edge14&#45;headlabel"><a xlink:href="dir_000015_000012.html" target="_top" xlink:title="2">
<text xml:space="preserve" text-anchor="middle" x="460.46" y="-3.79" font-family="Helvetica,sans-Serif" font-size="10.00" fill="#63b8ff">2</text>
</a>
</g>
</g>
<!-- dir_57bfe1d713167b07ff06fc6d03c396bd -->
<g id="node9" class="node">
<title>dir_57bfe1d713167b07ff06fc6d03c396bd</title>
<g id="a_node9"><a xlink:href="dir_57bfe1d713167b07ff06fc6d03c396bd.html" target="_top" xlink:title="inputHandler">
<polygon fill="#a2b4d6" stroke="#404040" points="805.38,-76.02 734.62,-76.02 734.62,-56.02 805.38,-56.02 805.38,-76.02"/>
<text xml:space="preserve" text-anchor="middle" x="770" y="-62.52" font-family="Helvetica,sans-Serif" font-size="10.00">inputHandler</text>
</a>
</g>
</g>
<!-- dir_57bfe1d713167b07ff06fc6d03c396bd&#45;&gt;dir_409f97388efe006bc3438b95e9edef48 -->
<g id="edge15" class="edge">
<title>dir_57bfe1d713167b07ff06fc6d03c396bd&#45;&gt;dir_409f97388efe006bc3438b95e9edef48</title>
<g id="a_edge15"><a xlink:href="dir_000019_000006.html" target="_top">
<path fill="none" stroke="#63b8ff" d="M749.34,-55.66C742.1,-52.75 733.82,-49.83 726,-48.02 590.04,-16.49 548.8,-39.39 407.27,-20.15"/>
<polygon fill="#63b8ff" stroke="#63b8ff" points="407.89,-16.7 397.5,-18.77 406.91,-23.63 407.89,-16.7"/>
</a>
</g>
<g id="a_edge15&#45;headlabel"><a xlink:href="dir_000019_000006.html" target="_top" xlink:title="9">
<text xml:space="preserve" text-anchor="middle" x="410.35" y="-10.68" font-family="Helvetica,sans-Serif" font-size="10.00" fill="#63b8ff">9</text>
</a>
</g>
</g>
<!-- dir_57bfe1d713167b07ff06fc6d03c396bd&#45;&gt;dir_eafb92770fbc727220bdaa0b1292f771 -->
<g id="edge16" class="edge">
<title>dir_57bfe1d713167b07ff06fc6d03c396bd&#45;&gt;dir_eafb92770fbc727220bdaa0b1292f771</title>
<g id="a_edge16"><a xlink:href="dir_000019_000012.html" target="_top">
<path fill="none" stroke="#63b8ff" d="M748.86,-55.64C741.72,-52.81 733.62,-49.94 726,-48.02 629.29,-23.68 510.59,-15.02 457.7,-12.22"/>
<polygon fill="#63b8ff" stroke="#63b8ff" points="457.97,-8.73 447.81,-11.73 457.63,-15.72 457.97,-8.73"/>
</a>
</g>
<g id="a_edge16&#45;headlabel"><a xlink:href="dir_000019_000012.html" target="_top" xlink:title="2">
<text xml:space="preserve" text-anchor="middle" x="460.19" y="-2.5" font-family="Helvetica,sans-Serif" font-size="10.00" fill="#63b8ff">2</text>
</a>
</g>
</g>
<!-- dir_7dbe7c00c4d24f92ecc222f5e7d59048 -->
<g id="node10" class="node">
<title>dir_7dbe7c00c4d24f92ecc222f5e7d59048</title>
<g id="a_node10"><a xlink:href="dir_7dbe7c00c4d24f92ecc222f5e7d59048.html" target="_top" xlink:title="motion">
<polygon fill="#a2b4d6" stroke="#404040" points="132.62,-76.02 87.38,-76.02 87.38,-56.02 132.62,-56.02 132.62,-76.02"/>
<text xml:space="preserve" text-anchor="middle" x="110" y="-62.52" font-family="Helvetica,sans-Serif" font-size="10.00">motion</text>
</a>
</g>
</g>
<!-- dir_7dbe7c00c4d24f92ecc222f5e7d59048&#45;&gt;dir_409f97388efe006bc3438b95e9edef48 -->
<g id="edge17" class="edge">
<title>dir_7dbe7c00c4d24f92ecc222f5e7d59048&#45;&gt;dir_409f97388efe006bc3438b95e9edef48</title>
<g id="a_edge17"><a xlink:href="dir_000021_000006.html" target="_top">
<path fill="none" stroke="#63b8ff" d="M125.17,-55.68C130.35,-52.84 136.28,-49.96 142,-48.02 199.64,-28.41 269.49,-18.92 314.56,-14.52"/>
<polygon fill="#63b8ff" stroke="#63b8ff" points="314.88,-18 324.51,-13.6 314.23,-11.03 314.88,-18"/>
</a>
</g>
<g id="a_edge17&#45;headlabel"><a xlink:href="dir_000021_000006.html" target="_top" xlink:title="5">
<text xml:space="preserve" text-anchor="middle" x="313.07" y="-17.52" font-family="Helvetica,sans-Serif" font-size="10.00" fill="#63b8ff">5</text>
</a>
</g>
</g>
<!-- dir_7dbe7c00c4d24f92ecc222f5e7d59048&#45;&gt;dir_eafb92770fbc727220bdaa0b1292f771 -->
<g id="edge18" class="edge">
<title>dir_7dbe7c00c4d24f92ecc222f5e7d59048&#45;&gt;dir_eafb92770fbc727220bdaa0b1292f771</title>
<g id="a_edge18"><a xlink:href="dir_000021_000012.html" target="_top">
<path fill="none" stroke="#63b8ff" d="M124.79,-55.65C130.03,-52.74 136.11,-49.82 142,-48.02 250.99,-14.64 288.18,-44.42 402.8,-19.95"/>
<polygon fill="#63b8ff" stroke="#63b8ff" points="403.29,-23.43 412.28,-17.83 401.76,-16.59 403.29,-23.43"/>
</a>
</g>
<g id="a_edge18&#45;headlabel"><a xlink:href="dir_000021_000012.html" target="_top" xlink:title="2">
<text xml:space="preserve" text-anchor="middle" x="401.88" y="-23.15" font-family="Helvetica,sans-Serif" font-size="10.00" fill="#63b8ff">2</text>
</a>
</g>
</g>
</g>
</svg>
