<?xml version="1.0" encoding="UTF-8" standalone="no"?>
<!DOCTYPE svg PUBLIC "-//W3C//DTD SVG 1.1//EN"
 "http://www.w3.org/Graphics/SVG/1.1/DTD/svg11.dtd">
<!-- Generated by graphviz version 14.0.2 (0)
 -->
<!-- Title: components Pages: 1 -->
<svg width="1318pt" height="101pt"
 viewBox="0.00 0.00 1318.00 101.00" xmlns="http://www.w3.org/2000/svg" xmlns:xlink="http://www.w3.org/1999/xlink">
<g id="graph0" class="graph" transform="scale(1 1) rotate(0) translate(4 96.88)">
<title>components</title>
<g id="clust1" class="cluster">
<title>clusterdir_409f97388efe006bc3438b95e9edef48</title>
<g id="a_clust1"><a xlink:href="dir_409f97388efe006bc3438b95e9edef48.html" target="_top">
<polygon fill="#edf0f7" stroke="#404040" stroke-width="2" points="8,-48.88 8,-84.88 1302,-84.88 1302,-48.88 8,-48.88"/>
</a>
</g>
</g>
<!-- dir_409f97388efe006bc3438b95e9edef48 -->
<g id="node1" class="node">
<title>dir_409f97388efe006bc3438b95e9edef48</title>
<text xml:space="preserve" text-anchor="middle" x="51" y="-63.38" font-family="Helvetica,sans-Serif" font-size="10.00">components</text>
</g>
<!-- dir_98acdb4bffbea1efd53725909b452d2b -->
<g id="node2" class="node">
<title>dir_98acdb4bffbea1efd53725909b452d2b</title>
<g id="a_node2"><a xlink:href="dir_98acdb4bffbea1efd53725909b452d2b.html" target="_top" xlink:title="acceleration">
<polygon fill="#a2b4d6" stroke="#404040" points="172.25,-76.88 103.75,-76.88 103.75,-56.88 172.25,-56.88 172.25,-76.88"/>
<text xml:space="preserve" text-anchor="middle" x="138" y="-63.38" font-family="Helvetica,sans-Serif" font-size="10.00">acceleration</text>
</a>
</g>
</g>
<!-- dir_eafb92770fbc727220bdaa0b1292f771 -->
<g id="node19" class="node">
<title>dir_eafb92770fbc727220bdaa0b1292f771</title>
<g id="a_node19"><a xlink:href="dir_eafb92770fbc727220bdaa0b1292f771.html" target="_top" xlink:title="ecs">
<polygon fill="#edf0f7" stroke="#404040" points="714.88,-20.88 683.12,-20.88 683.12,-0.88 714.88,-0.88 714.88,-20.88"/>
<text xml:space="preserve" text-anchor="middle" x="699" y="-7.38" font-family="Helvetica,sans-Serif" font-size="10.00">ecs</text>
</a>
</g>
</g>
<!-- dir_98acdb4bffbea1efd53725909b452d2b&#45;&gt;dir_eafb92770fbc727220bdaa0b1292f771 -->
<g id="edge1" class="edge">
<title>dir_98acdb4bffbea1efd53725909b452d2b&#45;&gt;dir_eafb92770fbc727220bdaa0b1292f771</title>
<g id="a_edge1"><a xlink:href="dir_000000_000012.html" target="_top">
<path fill="none" stroke="#63b8ff" d="M158.15,-56.45C165.23,-53.53 173.33,-50.63 181,-48.88 275.75,-27.31 578.24,-15.83 671.41,-12.75"/>
<polygon fill="#63b8ff" stroke="#63b8ff" points="671.27,-16.25 681.15,-12.43 671.04,-9.26 671.27,-16.25"/>
</a>
</g>
<g id="a_edge1&#45;headlabel"><a xlink:href="dir_000000_000012.html" target="_top" xlink:title="1">
<text xml:space="preserve" text-anchor="middle" x="669.28" y="-15.66" font-family="Helvetica,sans-Serif" font-size="10.00" fill="#63b8ff">1</text>
</a>
</g>
</g>
<!-- dir_e88969f3b5f51b6fca4d6e7a1d8bfbac -->
<g id="node3" class="node">
<title>dir_e88969f3b5f51b6fca4d6e7a1d8bfbac</title>
<g id="a_node3"><a xlink:href="dir_e88969f3b5f51b6fca4d6e7a1d8bfbac.html" target="_top" xlink:title="AIControlled">
<polygon fill="#a2b4d6" stroke="#404040" points="260,-76.88 190,-76.88 190,-56.88 260,-56.88 260,-76.88"/>
<text xml:space="preserve" text-anchor="middle" x="225" y="-63.38" font-family="Helvetica,sans-Serif" font-size="10.00">AIControlled</text>
</a>
</g>
</g>
<!-- dir_e88969f3b5f51b6fca4d6e7a1d8bfbac&#45;&gt;dir_eafb92770fbc727220bdaa0b1292f771 -->
<g id="edge2" class="edge">
<title>dir_e88969f3b5f51b6fca4d6e7a1d8bfbac&#45;&gt;dir_eafb92770fbc727220bdaa0b1292f771</title>
<g id="a_edge2"><a xlink:href="dir_000001_000012.html" target="_top">
<path fill="none" stroke="#63b8ff" d="M245.66,-56.52C252.9,-53.61 261.18,-50.69 269,-48.88 417.79,-14.48 602.22,-11.4 671.23,-11.58"/>
<polygon fill="#63b8ff" stroke="#63b8ff" points="671.2,-15.08 681.22,-11.64 671.24,-8.08 671.2,-15.08"/>
</a>
</g>
<g id="a_edge2&#45;headlabel"><a xlink:href="dir_000001_000012.html" target="_top" xlink:title="1">
<text xml:space="preserve" text-anchor="middle" x="669.11" y="-14.41" font-family="Helvetica,sans-Serif" font-size="10.00" fill="#63b8ff">1</text>
</a>
</g>
</g>
<!-- dir_043befaf7bc3f6db074c9f769e83570a -->
<g id="node4" class="node">
<title>dir_043befaf7bc3f6db074c9f769e83570a</title>
<g id="a_node4"><a xlink:href="dir_043befaf7bc3f6db074c9f769e83570a.html" target="_top" xlink:title="audio">
<polygon fill="#a2b4d6" stroke="#404040" points="317.62,-76.88 278.38,-76.88 278.38,-56.88 317.62,-56.88 317.62,-76.88"/>
<text xml:space="preserve" text-anchor="middle" x="298" y="-63.38" font-family="Helvetica,sans-Serif" font-size="10.00">audio</text>
</a>
</g>
</g>
<!-- dir_043befaf7bc3f6db074c9f769e83570a&#45;&gt;dir_eafb92770fbc727220bdaa0b1292f771 -->
<g id="edge3" class="edge">
<title>dir_043befaf7bc3f6db074c9f769e83570a&#45;&gt;dir_eafb92770fbc727220bdaa0b1292f771</title>
<g id="a_edge3"><a xlink:href="dir_000003_000012.html" target="_top">
<path fill="none" stroke="#63b8ff" d="M311.29,-56.47C316.04,-53.56 321.56,-50.66 327,-48.88 391.31,-27.95 597.43,-16.58 671.87,-13.08"/>
<polygon fill="#63b8ff" stroke="#63b8ff" points="671.69,-16.59 681.52,-12.63 671.37,-9.6 671.69,-16.59"/>
</a>
</g>
<g id="a_edge3&#45;headlabel"><a xlink:href="dir_000003_000012.html" target="_top" xlink:title="1">
<text xml:space="preserve" text-anchor="middle" x="669.74" y="-16.02" font-family="Helvetica,sans-Serif" font-size="10.00" fill="#63b8ff">1</text>
</a>
</g>
</g>
<!-- dir_1ff88d99f58100638d3dc98d112763e3 -->
<g id="node5" class="node">
<title>dir_1ff88d99f58100638d3dc98d112763e3</title>
<g id="a_node5"><a xlink:href="dir_1ff88d99f58100638d3dc98d112763e3.html" target="_top" xlink:title="collider">
<polygon fill="#a2b4d6" stroke="#404040" points="382.38,-76.88 335.62,-76.88 335.62,-56.88 382.38,-56.88 382.38,-76.88"/>
<text xml:space="preserve" text-anchor="middle" x="359" y="-63.38" font-family="Helvetica,sans-Serif" font-size="10.00">collider</text>
</a>
</g>
</g>
<!-- dir_1ff88d99f58100638d3dc98d112763e3&#45;&gt;dir_eafb92770fbc727220bdaa0b1292f771 -->
<g id="edge4" class="edge">
<title>dir_1ff88d99f58100638d3dc98d112763e3&#45;&gt;dir_eafb92770fbc727220bdaa0b1292f771</title>
<g id="a_edge4"><a xlink:href="dir_000004_000012.html" target="_top">
<path fill="none" stroke="#63b8ff" d="M374.63,-56.39C379.97,-53.54 386.09,-50.7 392,-48.88 491.75,-18.27 616.99,-12.81 671.52,-11.96"/>
<polygon fill="#63b8ff" stroke="#63b8ff" points="671.46,-15.46 681.42,-11.85 671.38,-8.46 671.46,-15.46"/>
</a>
</g>
<g id="a_edge4&#45;headlabel"><a xlink:href="dir_000004_000012.html" target="_top" xlink:title="2">
<text xml:space="preserve" text-anchor="middle" x="669.41" y="-14.82" font-family="Helvetica,sans-Serif" font-size="10.00" fill="#63b8ff">2</text>
</a>
</g>
</g>
<!-- dir_c38972b1f2950f67621d164bceb32698 -->
<g id="node6" class="node">
<title>dir_c38972b1f2950f67621d164bceb32698</title>
<g id="a_node6"><a xlink:href="dir_c38972b1f2950f67621d164bceb32698.html" target="_top" xlink:title="damage">
<polygon fill="#a2b4d6" stroke="#404040" points="451.25,-76.88 400.75,-76.88 400.75,-56.88 451.25,-56.88 451.25,-76.88"/>
<text xml:space="preserve" text-anchor="middle" x="426" y="-63.38" font-family="Helvetica,sans-Serif" font-size="10.00">damage</text>
</a>
</g>
</g>
<!-- dir_c38972b1f2950f67621d164bceb32698&#45;&gt;dir_eafb92770fbc727220bdaa0b1292f771 -->
<g id="edge5" class="edge">
<title>dir_c38972b1f2950f67621d164bceb32698&#45;&gt;dir_eafb92770fbc727220bdaa0b1292f771</title>
<g id="a_edge5"><a xlink:href="dir_000007_000012.html" target="_top">
<path fill="none" stroke="#63b8ff" d="M442.17,-56.52C447.67,-53.68 453.96,-50.81 460,-48.88 534.05,-25.28 625.96,-16.47 671.2,-13.39"/>
<polygon fill="#63b8ff" stroke="#63b8ff" points="671.39,-16.89 681.15,-12.77 670.95,-9.9 671.39,-16.89"/>
</a>
</g>
<g id="a_edge5&#45;headlabel"><a xlink:href="dir_000007_000012.html" target="_top" xlink:title="1">
<text xml:space="preserve" text-anchor="middle" x="669.49" y="-16.35" font-family="Helvetica,sans-Serif" font-size="10.00" fill="#63b8ff">1</text>
</a>
</g>
</g>
<!-- dir_1cd45358307b6f205726a39c50e33898 -->
<g id="node7" class="node">
<title>dir_1cd45358307b6f205726a39c50e33898</title>
<g id="a_node7"><a xlink:href="dir_1cd45358307b6f205726a39c50e33898.html" target="_top" xlink:title="domain">
<polygon fill="#a2b4d6" stroke="#404040" points="516.75,-76.88 469.25,-76.88 469.25,-56.88 516.75,-56.88 516.75,-76.88"/>
<text xml:space="preserve" text-anchor="middle" x="493" y="-63.38" font-family="Helvetica,sans-Serif" font-size="10.00">domain</text>
</a>
</g>
</g>
<!-- dir_1cd45358307b6f205726a39c50e33898&#45;&gt;dir_eafb92770fbc727220bdaa0b1292f771 -->
<g id="edge6" class="edge">
<title>dir_1cd45358307b6f205726a39c50e33898&#45;&gt;dir_eafb92770fbc727220bdaa0b1292f771</title>
<g id="a_edge6"><a xlink:href="dir_000010_000012.html" target="_top">
<path fill="none" stroke="#63b8ff" d="M508.55,-56.51C513.65,-53.74 519.44,-50.91 525,-48.88 575.11,-30.66 636.77,-20.19 671.61,-15.3"/>
<polygon fill="#63b8ff" stroke="#63b8ff" points="671.81,-18.81 681.25,-14 670.87,-11.87 671.81,-18.81"/>
</a>
</g>
<g id="a_edge6&#45;headlabel"><a xlink:href="dir_000010_000012.html" target="_top" xlink:title="1">
<text xml:space="preserve" text-anchor="middle" x="670.12" y="-18.4" font-family="Helvetica,sans-Serif" font-size="10.00" fill="#63b8ff">1</text>
</a>
</g>
</g>
<!-- dir_1c3bc325184f126e07bf6049004046c0 -->
<g id="node8" class="node">
<title>dir_1c3bc325184f126e07bf6049004046c0</title>
<g id="a_node8"><a xlink:href="dir_1c3bc325184f126e07bf6049004046c0.html" target="_top" xlink:title="gravity">
<polygon fill="#a2b4d6" stroke="#404040" points="579.62,-76.88 534.38,-76.88 534.38,-56.88 579.62,-56.88 579.62,-76.88"/>
<text xml:space="preserve" text-anchor="middle" x="557" y="-63.38" font-family="Helvetica,sans-Serif" font-size="10.00">gravity</text>
</a>
</g>
</g>
<!-- dir_1c3bc325184f126e07bf6049004046c0&#45;&gt;dir_eafb92770fbc727220bdaa0b1292f771 -->
<g id="edge7" class="edge">
<title>dir_1c3bc325184f126e07bf6049004046c0&#45;&gt;dir_eafb92770fbc727220bdaa0b1292f771</title>
<g id="a_edge7"><a xlink:href="dir_000016_000012.html" target="_top">
<path fill="none" stroke="#63b8ff" d="M573.36,-56.53C578.3,-53.89 583.8,-51.12 589,-48.88 616.58,-37.02 649.33,-26.43 671.88,-19.65"/>
<polygon fill="#63b8ff" stroke="#63b8ff" points="672.61,-23.08 681.21,-16.9 670.63,-16.37 672.61,-23.08"/>
</a>
</g>
<g id="a_edge7&#45;headlabel"><a xlink:href="dir_000016_000012.html" target="_top" xlink:title="1">
<text xml:space="preserve" text-anchor="middle" x="671.42" y="-22.9" font-family="Helvetica,sans-Serif" font-size="10.00" fill="#63b8ff">1</text>
</a>
</g>
</g>
<!-- dir_1400034c277d5f5abfb62b4bd021b743 -->
<g id="node9" class="node">
<title>dir_1400034c277d5f5abfb62b4bd021b743</title>
<g id="a_node9"><a xlink:href="dir_1400034c277d5f5abfb62b4bd021b743.html" target="_top" xlink:title="health">
<polygon fill="#a2b4d6" stroke="#404040" points="640.12,-76.88 597.88,-76.88 597.88,-56.88 640.12,-56.88 640.12,-76.88"/>
<text xml:space="preserve" text-anchor="middle" x="619" y="-63.38" font-family="Helvetica,sans-Serif" font-size="10.00">health</text>
</a>
</g>
</g>
<!-- dir_1400034c277d5f5abfb62b4bd021b743&#45;&gt;dir_eafb92770fbc727220bdaa0b1292f771 -->
<g id="edge8" class="edge">
<title>dir_1400034c277d5f5abfb62b4bd021b743&#45;&gt;dir_eafb92770fbc727220bdaa0b1292f771</title>
<g id="a_edge8"><a xlink:href="dir_000017_000012.html" target="_top">
<path fill="none" stroke="#63b8ff" d="M632.93,-56.48C644.68,-48.55 661.73,-37.04 675.57,-27.7"/>
<polygon fill="#63b8ff" stroke="#63b8ff" points="677.37,-30.71 683.7,-22.21 673.46,-24.9 677.37,-30.71"/>
</a>
</g>
<g id="a_edge8&#45;headlabel"><a xlink:href="dir_000017_000012.html" target="_top" xlink:title="1">
<text xml:space="preserve" text-anchor="middle" x="677.24" y="-30.72" font-family="Helvetica,sans-Serif" font-size="10.00" fill="#63b8ff">1</text>
</a>
</g>
</g>
<!-- dir_e90d1c41c8cdf9ad6018804044d78e41 -->
<g id="node10" class="node">
<title>dir_e90d1c41c8cdf9ad6018804044d78e41</title>
<g id="a_node10"><a xlink:href="dir_e90d1c41c8cdf9ad6018804044d78e41.html" target="_top" xlink:title="inputControlled">
<polygon fill="#a2b4d6" stroke="#404040" points="739.62,-76.88 658.38,-76.88 658.38,-56.88 739.62,-56.88 739.62,-76.88"/>
<text xml:space="preserve" text-anchor="middle" x="699" y="-63.38" font-family="Helvetica,sans-Serif" font-size="10.00">inputControlled</text>
</a>
</g>
</g>
<!-- dir_e90d1c41c8cdf9ad6018804044d78e41&#45;&gt;dir_eafb92770fbc727220bdaa0b1292f771 -->
<g id="edge9" class="edge">
<title>dir_e90d1c41c8cdf9ad6018804044d78e41&#45;&gt;dir_eafb92770fbc727220bdaa0b1292f771</title>
<g id="a_edge9"><a xlink:href="dir_000018_000012.html" target="_top">
<path fill="none" stroke="#63b8ff" d="M699,-56.48C699,-49.9 699,-40.84 699,-32.62"/>
<polygon fill="#63b8ff" stroke="#63b8ff" points="702.5,-32.7 699,-22.7 695.5,-32.7 702.5,-32.7"/>
</a>
</g>
<g id="a_edge9&#45;headlabel"><a xlink:href="dir_000018_000012.html" target="_top" xlink:title="1">
<text xml:space="preserve" text-anchor="middle" x="705.34" y="-31.28" font-family="Helvetica,sans-Serif" font-size="10.00" fill="#63b8ff">1</text>
</a>
</g>
</g>
<!-- dir_c65a46b1b51094219d0c23f1483ec233 -->
<g id="node11" class="node">
<title>dir_c65a46b1b51094219d0c23f1483ec233</title>
<g id="a_node11"><a xlink:href="dir_c65a46b1b51094219d0c23f1483ec233.html" target="_top" xlink:title="lifetime">
<polygon fill="#a2b4d6" stroke="#404040" points="804.75,-76.88 757.25,-76.88 757.25,-56.88 804.75,-56.88 804.75,-76.88"/>
<text xml:space="preserve" text-anchor="middle" x="781" y="-63.38" font-family="Helvetica,sans-Serif" font-size="10.00">lifetime</text>
</a>
</g>
</g>
<!-- dir_c65a46b1b51094219d0c23f1483ec233&#45;&gt;dir_eafb92770fbc727220bdaa0b1292f771 -->
<g id="edge10" class="edge">
<title>dir_c65a46b1b51094219d0c23f1483ec233&#45;&gt;dir_eafb92770fbc727220bdaa0b1292f771</title>
<g id="a_edge10"><a xlink:href="dir_000020_000012.html" target="_top">
<path fill="none" stroke="#63b8ff" d="M766.72,-56.48C754.56,-48.47 736.86,-36.82 722.6,-27.43"/>
<polygon fill="#63b8ff" stroke="#63b8ff" points="724.94,-24.77 714.66,-22.2 721.09,-30.62 724.94,-24.77"/>
</a>
</g>
<g id="a_edge10&#45;headlabel"><a xlink:href="dir_000020_000012.html" target="_top" xlink:title="1">
<text xml:space="preserve" text-anchor="middle" x="728.24" y="-20.05" font-family="Helvetica,sans-Serif" font-size="10.00" fill="#63b8ff">1</text>
</a>
</g>
</g>
<!-- dir_9c11a20a7d1b20c152df76157f6edc5c -->
<g id="node12" class="node">
<title>dir_9c11a20a7d1b20c152df76157f6edc5c</title>
<g id="a_node12"><a xlink:href="dir_9c11a20a7d1b20c152df76157f6edc5c.html" target="_top" xlink:title="onPickup">
<polygon fill="#a2b4d6" stroke="#404040" points="879.25,-76.88 822.75,-76.88 822.75,-56.88 879.25,-56.88 879.25,-76.88"/>
<text xml:space="preserve" text-anchor="middle" x="851" y="-63.38" font-family="Helvetica,sans-Serif" font-size="10.00">onPickup</text>
</a>
</g>
</g>
<!-- dir_9c11a20a7d1b20c152df76157f6edc5c&#45;&gt;dir_eafb92770fbc727220bdaa0b1292f771 -->
<g id="edge11" class="edge">
<title>dir_9c11a20a7d1b20c152df76157f6edc5c&#45;&gt;dir_eafb92770fbc727220bdaa0b1292f771</title>
<g id="a_edge11"><a xlink:href="dir_000022_000012.html" target="_top">
<path fill="none" stroke="#63b8ff" d="M831.6,-56.44C825.98,-53.85 819.8,-51.14 814,-48.88 784.4,-37.37 749.59,-26.53 726.08,-19.6"/>
<polygon fill="#63b8ff" stroke="#63b8ff" points="727.24,-16.29 716.66,-16.86 725.29,-23.02 727.24,-16.29"/>
</a>
</g>
<g id="a_edge11&#45;headlabel"><a xlink:href="dir_000022_000012.html" target="_top" xlink:title="1">
<text xml:space="preserve" text-anchor="middle" x="730.04" y="-10.65" font-family="Helvetica,sans-Serif" font-size="10.00" fill="#63b8ff">1</text>
</a>
</g>
</g>
<!-- dir_a12e4a5e96cf1ebb6ee7a046b993bdd5 -->
<g id="node13" class="node">
<title>dir_a12e4a5e96cf1ebb6ee7a046b993bdd5</title>
<g id="a_node13"><a xlink:href="dir_a12e4a5e96cf1ebb6ee7a046b993bdd5.html" target="_top" xlink:title="position">
<polygon fill="#a2b4d6" stroke="#404040" points="946.88,-76.88 897.12,-76.88 897.12,-56.88 946.88,-56.88 946.88,-76.88"/>
<text xml:space="preserve" text-anchor="middle" x="922" y="-63.38" font-family="Helvetica,sans-Serif" font-size="10.00">position</text>
</a>
</g>
</g>
<!-- dir_a12e4a5e96cf1ebb6ee7a046b993bdd5&#45;&gt;dir_eafb92770fbc727220bdaa0b1292f771 -->
<g id="edge12" class="edge">
<title>dir_a12e4a5e96cf1ebb6ee7a046b993bdd5&#45;&gt;dir_eafb92770fbc727220bdaa0b1292f771</title>
<g id="a_edge12"><a xlink:href="dir_000023_000012.html" target="_top">
<path fill="none" stroke="#63b8ff" d="M905.44,-56.48C900.02,-53.71 893.87,-50.89 888,-48.88 832.41,-29.94 764.13,-19.57 726.74,-14.93"/>
<polygon fill="#63b8ff" stroke="#63b8ff" points="727.16,-11.46 716.81,-13.75 726.33,-18.41 727.16,-11.46"/>
</a>
</g>
<g id="a_edge12&#45;headlabel"><a xlink:href="dir_000023_000012.html" target="_top" xlink:title="2">
<text xml:space="preserve" text-anchor="middle" x="729.56" y="-5.38" font-family="Helvetica,sans-Serif" font-size="10.00" fill="#63b8ff">2</text>
</a>
</g>
</g>
<!-- dir_26aeb69069f58da6eb42e367c1f5a5eb -->
<g id="node14" class="node">
<title>dir_26aeb69069f58da6eb42e367c1f5a5eb</title>
<g id="a_node14"><a xlink:href="dir_26aeb69069f58da6eb42e367c1f5a5eb.html" target="_top" xlink:title="renderable">
<polygon fill="#a2b4d6" stroke="#404040" points="1025.5,-76.88 964.5,-76.88 964.5,-56.88 1025.5,-56.88 1025.5,-76.88"/>
<text xml:space="preserve" text-anchor="middle" x="995" y="-63.38" font-family="Helvetica,sans-Serif" font-size="10.00">renderable</text>
</a>
</g>
</g>
<!-- dir_26aeb69069f58da6eb42e367c1f5a5eb&#45;&gt;dir_eafb92770fbc727220bdaa0b1292f771 -->
<g id="edge13" class="edge">
<title>dir_26aeb69069f58da6eb42e367c1f5a5eb&#45;&gt;dir_eafb92770fbc727220bdaa0b1292f771</title>
<g id="a_edge13"><a xlink:href="dir_000024_000012.html" target="_top">
<path fill="none" stroke="#63b8ff" d="M976.33,-56.54C970.01,-53.7 962.82,-50.82 956,-48.88 874.6,-25.74 774.39,-16.64 726.72,-13.44"/>
<polygon fill="#63b8ff" stroke="#63b8ff" points="726.96,-9.95 716.76,-12.81 726.52,-16.93 726.96,-9.95"/>
</a>
</g>
<g id="a_edge13&#45;headlabel"><a xlink:href="dir_000024_000012.html" target="_top" xlink:title="2">
<text xml:space="preserve" text-anchor="middle" x="729.22" y="-3.74" font-family="Helvetica,sans-Serif" font-size="10.00" fill="#63b8ff">2</text>
</a>
</g>
</g>
<!-- dir_c4049e4dea6cb97476c8d04e0664c0f2 -->
<g id="node15" class="node">
<title>dir_c4049e4dea6cb97476c8d04e0664c0f2</title>
<g id="a_node15"><a xlink:href="dir_c4049e4dea6cb97476c8d04e0664c0f2.html" target="_top" xlink:title="scoreValue">
<polygon fill="#a2b4d6" stroke="#404040" points="1108,-76.88 1044,-76.88 1044,-56.88 1108,-56.88 1108,-76.88"/>
<text xml:space="preserve" text-anchor="middle" x="1076" y="-63.38" font-family="Helvetica,sans-Serif" font-size="10.00">scoreValue</text>
</a>
</g>
</g>
<!-- dir_c4049e4dea6cb97476c8d04e0664c0f2&#45;&gt;dir_eafb92770fbc727220bdaa0b1292f771 -->
<g id="edge14" class="edge">
<title>dir_c4049e4dea6cb97476c8d04e0664c0f2&#45;&gt;dir_eafb92770fbc727220bdaa0b1292f771</title>
<g id="a_edge14"><a xlink:href="dir_000025_000012.html" target="_top">
<path fill="none" stroke="#63b8ff" d="M1056.37,-56.42C1049.72,-53.58 1042.16,-50.72 1035,-48.88 923,-20.12 784.35,-13.72 726.43,-12.29"/>
<polygon fill="#63b8ff" stroke="#63b8ff" points="726.62,-8.79 716.54,-12.08 726.47,-15.79 726.62,-8.79"/>
</a>
</g>
<g id="a_edge14&#45;headlabel"><a xlink:href="dir_000025_000012.html" target="_top" xlink:title="1">
<text xml:space="preserve" text-anchor="middle" x="728.76" y="-2.5" font-family="Helvetica,sans-Serif" font-size="10.00" fill="#63b8ff">1</text>
</a>
</g>
</g>
<!-- dir_adddd79e8a1eee27dd4e83a22a569f28 -->
<g id="node16" class="node">
<title>dir_adddd79e8a1eee27dd4e83a22a569f28</title>
<g id="a_node16"><a xlink:href="dir_adddd79e8a1eee27dd4e83a22a569f28.html" target="_top" xlink:title="text">
<polygon fill="#a2b4d6" stroke="#404040" points="1158.25,-76.88 1125.75,-76.88 1125.75,-56.88 1158.25,-56.88 1158.25,-76.88"/>
<text xml:space="preserve" text-anchor="middle" x="1142" y="-63.38" font-family="Helvetica,sans-Serif" font-size="10.00">text</text>
</a>
</g>
</g>
<!-- dir_adddd79e8a1eee27dd4e83a22a569f28&#45;&gt;dir_eafb92770fbc727220bdaa0b1292f771 -->
<g id="edge15" class="edge">
<title>dir_adddd79e8a1eee27dd4e83a22a569f28&#45;&gt;dir_eafb92770fbc727220bdaa0b1292f771</title>
<g id="a_edge15"><a xlink:href="dir_000053_000012.html" target="_top">
<path fill="none" stroke="#63b8ff" d="M1130.97,-56.61C1126.84,-53.63 1121.94,-50.65 1117,-48.88 1044.63,-23.06 807.71,-14.67 726.56,-12.52"/>
<polygon fill="#63b8ff" stroke="#63b8ff" points="726.73,-9.02 716.64,-12.27 726.55,-16.02 726.73,-9.02"/>
</a>
</g>
<g id="a_edge15&#45;headlabel"><a xlink:href="dir_000053_000012.html" target="_top" xlink:title="2">
<text xml:space="preserve" text-anchor="middle" x="728.88" y="-2.74" font-family="Helvetica,sans-Serif" font-size="10.00" fill="#63b8ff">2</text>
</a>
</g>
</g>
<!-- dir_403375e8a4afbb99eba7e47afebadaba -->
<g id="node17" class="node">
<title>dir_403375e8a4afbb99eba7e47afebadaba</title>
<g id="a_node17"><a xlink:href="dir_403375e8a4afbb99eba7e47afebadaba.html" target="_top" xlink:title="velocity">
<polygon fill="#a2b4d6" stroke="#404040" points="1225.88,-76.88 1176.12,-76.88 1176.12,-56.88 1225.88,-56.88 1225.88,-76.88"/>
<text xml:space="preserve" text-anchor="middle" x="1201" y="-63.38" font-family="Helvetica,sans-Serif" font-size="10.00">velocity</text>
</a>
</g>
</g>
<!-- dir_403375e8a4afbb99eba7e47afebadaba&#45;&gt;dir_eafb92770fbc727220bdaa0b1292f771 -->
<g id="edge16" class="edge">
<title>dir_403375e8a4afbb99eba7e47afebadaba&#45;&gt;dir_eafb92770fbc727220bdaa0b1292f771</title>
<g id="a_edge16"><a xlink:href="dir_000054_000012.html" target="_top">
<path fill="none" stroke="#63b8ff" d="M1185.25,-56.43C1179.67,-53.52 1173.23,-50.62 1167,-48.88 1083.18,-25.57 813.66,-15.41 726.48,-12.68"/>
<polygon fill="#63b8ff" stroke="#63b8ff" points="726.6,-9.18 716.5,-12.37 726.39,-16.18 726.6,-9.18"/>
</a>
</g>
<g id="a_edge16&#45;headlabel"><a xlink:href="dir_000054_000012.html" target="_top" xlink:title="1">
<text xml:space="preserve" text-anchor="middle" x="728.77" y="-2.91" font-family="Helvetica,sans-Serif" font-size="10.00" fill="#63b8ff">1</text>
</a>
</g>
</g>
<!-- dir_35e3d20f68c3b213b97d9a77b2112d4b -->
<g id="node18" class="node">
<title>dir_35e3d20f68c3b213b97d9a77b2112d4b</title>
<g id="a_node18"><a xlink:href="dir_35e3d20f68c3b213b97d9a77b2112d4b.html" target="_top" xlink:title="weapon">
<polygon fill="#a2b4d6" stroke="#404040" points="1293.88,-76.88 1244.12,-76.88 1244.12,-56.88 1293.88,-56.88 1293.88,-76.88"/>
<text xml:space="preserve" text-anchor="middle" x="1269" y="-63.38" font-family="Helvetica,sans-Serif" font-size="10.00">weapon</text>
</a>
</g>
</g>
<!-- dir_35e3d20f68c3b213b97d9a77b2112d4b&#45;&gt;dir_eafb92770fbc727220bdaa0b1292f771 -->
<g id="edge17" class="edge">
<title>dir_35e3d20f68c3b213b97d9a77b2112d4b&#45;&gt;dir_eafb92770fbc727220bdaa0b1292f771</title>
<g id="a_edge17"><a xlink:href="dir_000055_000012.html" target="_top">
<path fill="none" stroke="#63b8ff" d="M1253.26,-56.4C1247.68,-53.48 1241.24,-50.59 1235,-48.88 1137.68,-22.34 822.2,-14.24 726.67,-12.36"/>
<polygon fill="#63b8ff" stroke="#63b8ff" points="726.75,-8.86 716.68,-12.18 726.61,-15.86 726.75,-8.86"/>
</a>
</g>
<g id="a_edge17&#45;headlabel"><a xlink:href="dir_000055_000012.html" target="_top" xlink:title="1">
<text xml:space="preserve" text-anchor="middle" x="728.88" y="-2.56" font-family="Helvetica,sans-Serif" font-size="10.00" fill="#63b8ff">1</text>
</a>
</g>
</g>
</g>
</svg>
