<?xml version="1.0" encoding="UTF-8" standalone="no"?>
<!DOCTYPE svg PUBLIC "-//W3C//DTD SVG 1.1//EN"
 "http://www.w3.org/Graphics/SVG/1.1/DTD/svg11.dtd">
<!-- Generated by graphviz version 14.0.2 (0)
 -->
<!-- Title: systems/domainHandler/src/DomainHandler.cpp Pages: 1 -->
<svg width="892pt" height="388pt"
 viewBox="0.00 0.00 892.00 388.00" xmlns="http://www.w3.org/2000/svg" xmlns:xlink="http://www.w3.org/1999/xlink">
<g id="graph0" class="graph" transform="scale(1 1) rotate(0) translate(4 384)">
<title>systems/domainHandler/src/DomainHandler.cpp</title>
<!-- Node1 -->
<g id="Node000001" class="node">
<title>Node1</title>
<g id="a_Node000001"><a xlink:title=" ">
<polygon fill="#999999" stroke="#666666" points="570,-380 448.25,-380 448.25,-348 570,-348 570,-380"/>
<text xml:space="preserve" text-anchor="start" x="456.25" y="-366.5" font-family="Helvetica,sans-Serif" font-size="10.00">systems/domainHandler</text>
<text xml:space="preserve" text-anchor="middle" x="509.12" y="-354.5" font-family="Helvetica,sans-Serif" font-size="10.00">/src/DomainHandler.cpp</text>
</a>
</g>
</g>
<!-- Node2 -->
<g id="Node000002" class="node">
<title>Node2</title>
<g id="a_Node000002"><a xlink:href="DomainHandler_8hpp.html" target="_top" xlink:title=" ">
<polygon fill="white" stroke="#666666" points="560.25,-312 458,-312 458,-292 560.25,-292 560.25,-312"/>
<text xml:space="preserve" text-anchor="middle" x="509.12" y="-298.5" font-family="Helvetica,sans-Serif" font-size="10.00">DomainHandler.hpp</text>
</a>
</g>
</g>
<!-- Node1&#45;&gt;Node2 -->
<g id="edge1_Node000001_Node000002" class="edge">
<title>Node1&#45;&gt;Node2</title>
<g id="a_edge1_Node000001_Node000002"><a xlink:title=" ">
<path fill="none" stroke="#63b8ff" d="M509.12,-347.55C509.12,-340.34 509.12,-331.66 509.12,-323.88"/>
<polygon fill="#63b8ff" stroke="#63b8ff" points="512.63,-323.92 509.13,-313.92 505.63,-323.92 512.63,-323.92"/>
</a>
</g>
</g>
<!-- Node3 -->
<g id="Node000003" class="node">
<title>Node3</title>
<g id="a_Node000003"><a xlink:title=" ">
<polygon fill="#e0e0e0" stroke="#999999" points="88,-188 32.25,-188 32.25,-168 88,-168 88,-188"/>
<text xml:space="preserve" text-anchor="middle" x="60.12" y="-174.5" font-family="Helvetica,sans-Serif" font-size="10.00">algorithm</text>
</a>
</g>
</g>
<!-- Node2&#45;&gt;Node3 -->
<g id="edge2_Node000002_Node000003" class="edge">
<title>Node2&#45;&gt;Node3</title>
<g id="a_edge2_Node000002_Node000003"><a xlink:title=" ">
<path fill="none" stroke="#63b8ff" d="M457.51,-296.43C401.77,-290.61 310.8,-278.47 235.12,-256 180.86,-239.89 121.23,-211.07 87.47,-193.63"/>
<polygon fill="#63b8ff" stroke="#63b8ff" points="89.28,-190.62 78.79,-189.09 86.04,-196.83 89.28,-190.62"/>
</a>
</g>
</g>
<!-- Node4 -->
<g id="Node000004" class="node">
<title>Node4</title>
<g id="a_Node000004"><a xlink:href="Domain_8hpp.html" target="_top" xlink:title=" ">
<polygon fill="white" stroke="#666666" points="659.38,-256 536.88,-256 536.88,-224 659.38,-224 659.38,-256"/>
<text xml:space="preserve" text-anchor="start" x="544.88" y="-242.5" font-family="Helvetica,sans-Serif" font-size="10.00">../../../components</text>
<text xml:space="preserve" text-anchor="middle" x="598.12" y="-230.5" font-family="Helvetica,sans-Serif" font-size="10.00">/domain/src/Domain.hpp</text>
</a>
</g>
</g>
<!-- Node2&#45;&gt;Node4 -->
<g id="edge3_Node000002_Node000004" class="edge">
<title>Node2&#45;&gt;Node4</title>
<g id="a_edge3_Node000002_Node000004"><a xlink:title=" ">
<path fill="none" stroke="#63b8ff" d="M523.03,-291.62C534.5,-283.89 551.23,-272.62 565.98,-262.67"/>
<polygon fill="#63b8ff" stroke="#63b8ff" points="567.73,-265.71 574.07,-257.22 563.82,-259.91 567.73,-265.71"/>
</a>
</g>
</g>
<!-- Node11 -->
<g id="Node000011" class="node">
<title>Node11</title>
<g id="a_Node000011"><a xlink:href="Position_8hpp.html" target="_top" xlink:title=" ">
<polygon fill="white" stroke="#666666" points="803.25,-256 677,-256 677,-224 803.25,-224 803.25,-256"/>
<text xml:space="preserve" text-anchor="start" x="685" y="-242.5" font-family="Helvetica,sans-Serif" font-size="10.00">../../../components</text>
<text xml:space="preserve" text-anchor="middle" x="740.12" y="-230.5" font-family="Helvetica,sans-Serif" font-size="10.00">/position/src/Position.hpp</text>
</a>
</g>
</g>
<!-- Node2&#45;&gt;Node11 -->
<g id="edge10_Node000002_Node000011" class="edge">
<title>Node2&#45;&gt;Node11</title>
<g id="a_edge10_Node000002_Node000011"><a xlink:title=" ">
<path fill="none" stroke="#63b8ff" d="M545.47,-291.56C578.64,-282.94 628.59,-269.97 669.59,-259.32"/>
<polygon fill="#63b8ff" stroke="#63b8ff" points="670.36,-262.74 679.15,-256.84 668.6,-255.96 670.36,-262.74"/>
</a>
</g>
</g>
<!-- Node13 -->
<g id="Node000013" class="node">
<title>Node13</title>
<g id="a_Node000013"><a xlink:href="Registry_8hpp.html" target="_top" xlink:title=" ">
<polygon fill="white" stroke="#666666" points="360.38,-250 243.88,-250 243.88,-230 360.38,-230 360.38,-250"/>
<text xml:space="preserve" text-anchor="middle" x="302.12" y="-236.5" font-family="Helvetica,sans-Serif" font-size="10.00">../../../ecs/Registry.hpp</text>
</a>
</g>
</g>
<!-- Node2&#45;&gt;Node13 -->
<g id="edge13_Node000002_Node000013" class="edge">
<title>Node2&#45;&gt;Node13</title>
<g id="a_edge13_Node000002_Node000013"><a xlink:title=" ">
<path fill="none" stroke="#63b8ff" d="M476.78,-291.62C441.49,-281.4 384.81,-264.97 345.63,-253.61"/>
<polygon fill="#63b8ff" stroke="#63b8ff" points="346.62,-250.25 336.04,-250.83 344.67,-256.98 346.62,-250.25"/>
</a>
</g>
</g>
<!-- Node22 -->
<g id="Node000022" class="node">
<title>Node22</title>
<g id="a_Node000022"><a xlink:href="System_8hpp.html" target="_top" xlink:title=" ">
<polygon fill="white" stroke="#666666" points="581.38,-188 512.88,-188 512.88,-168 581.38,-168 581.38,-188"/>
<text xml:space="preserve" text-anchor="middle" x="547.12" y="-174.5" font-family="Helvetica,sans-Serif" font-size="10.00">System.hpp</text>
</a>
</g>
</g>
<!-- Node2&#45;&gt;Node22 -->
<g id="edge37_Node000002_Node000022" class="edge">
<title>Node2&#45;&gt;Node22</title>
<g id="a_edge37_Node000002_Node000022"><a xlink:title=" ">
<path fill="none" stroke="#63b8ff" d="M510.89,-291.86C513.82,-277.3 520.14,-248.04 528.12,-224 530.93,-215.56 534.62,-206.49 538,-198.72"/>
<polygon fill="#63b8ff" stroke="#63b8ff" points="541.08,-200.42 541.98,-189.87 534.69,-197.56 541.08,-200.42"/>
</a>
</g>
</g>
<!-- Node5 -->
<g id="Node000005" class="node">
<title>Node5</title>
<g id="a_Node000005"><a xlink:href="Component_8hpp.html" target="_top" xlink:title=" ">
<polygon fill="white" stroke="#666666" points="767.5,-188 636.75,-188 636.75,-168 767.5,-168 767.5,-188"/>
<text xml:space="preserve" text-anchor="middle" x="702.12" y="-174.5" font-family="Helvetica,sans-Serif" font-size="10.00">../../../ecs/Component.hpp</text>
</a>
</g>
</g>
<!-- Node4&#45;&gt;Node5 -->
<g id="edge4_Node000004_Node000005" class="edge">
<title>Node4&#45;&gt;Node5</title>
<g id="a_edge4_Node000004_Node000005"><a xlink:title=" ">
<path fill="none" stroke="#63b8ff" d="M624.91,-223.55C640.71,-214.43 660.6,-202.96 676.24,-193.93"/>
<polygon fill="#63b8ff" stroke="#63b8ff" points="677.59,-197.19 684.51,-189.16 674.1,-191.13 677.59,-197.19"/>
</a>
</g>
</g>
<!-- Node6 -->
<g id="Node000006" class="node">
<title>Node6</title>
<g id="a_Node000006"><a xlink:title=" ">
<polygon fill="#e0e0e0" stroke="#999999" points="673.75,-132 622.5,-132 622.5,-112 673.75,-112 673.75,-132"/>
<text xml:space="preserve" text-anchor="middle" x="648.12" y="-118.5" font-family="Helvetica,sans-Serif" font-size="10.00">memory</text>
</a>
</g>
</g>
<!-- Node5&#45;&gt;Node6 -->
<g id="edge5_Node000005_Node000006" class="edge">
<title>Node5&#45;&gt;Node6</title>
<g id="a_edge5_Node000005_Node000006"><a xlink:title=" ">
<path fill="none" stroke="#63b8ff" d="M692.72,-167.59C685.21,-160.08 674.48,-149.35 665.43,-140.3"/>
<polygon fill="#63b8ff" stroke="#63b8ff" points="668.04,-137.96 658.49,-133.37 663.09,-142.91 668.04,-137.96"/>
</a>
</g>
</g>
<!-- Node7 -->
<g id="Node000007" class="node">
<title>Node7</title>
<g id="a_Node000007"><a xlink:title=" ">
<polygon fill="#e0e0e0" stroke="#999999" points="614.12,-76 574.12,-76 574.12,-56 614.12,-56 614.12,-76"/>
<text xml:space="preserve" text-anchor="middle" x="594.12" y="-62.5" font-family="Helvetica,sans-Serif" font-size="10.00">string</text>
</a>
</g>
</g>
<!-- Node5&#45;&gt;Node7 -->
<g id="edge6_Node000005_Node000007" class="edge">
<title>Node5&#45;&gt;Node7</title>
<g id="a_edge6_Node000005_Node000007"><a xlink:title=" ">
<path fill="none" stroke="#63b8ff" d="M708.24,-167.72C716.26,-154.26 728.01,-129.05 716.12,-112 695.82,-82.86 654.39,-72.54 625.48,-68.92"/>
<polygon fill="#63b8ff" stroke="#63b8ff" points="626.14,-65.47 615.83,-67.92 625.42,-72.43 626.14,-65.47"/>
</a>
</g>
</g>
<!-- Node8 -->
<g id="Node000008" class="node">
<title>Node8</title>
<g id="a_Node000008"><a xlink:href="Types_8hpp.html" target="_top" xlink:title="Core type definitions used throughout the ECS (Entity Component System).">
<polygon fill="white" stroke="#666666" points="552.62,-76 491.62,-76 491.62,-56 552.62,-56 552.62,-76"/>
<text xml:space="preserve" text-anchor="middle" x="522.12" y="-62.5" font-family="Helvetica,sans-Serif" font-size="10.00">Types.hpp</text>
</a>
</g>
</g>
<!-- Node5&#45;&gt;Node8 -->
<g id="edge7_Node000005_Node000008" class="edge">
<title>Node5&#45;&gt;Node8</title>
<g id="a_edge7_Node000005_Node000008"><a xlink:title=" ">
<path fill="none" stroke="#63b8ff" d="M702.1,-167.62C701.53,-153.55 698.34,-127.04 683.12,-112 674.53,-103.51 609.01,-87.03 564.25,-76.54"/>
<polygon fill="#63b8ff" stroke="#63b8ff" points="565.09,-73.14 554.55,-74.29 563.5,-79.96 565.09,-73.14"/>
</a>
</g>
</g>
<!-- Node9 -->
<g id="Node000009" class="node">
<title>Node9</title>
<g id="a_Node000009"><a xlink:title=" ">
<polygon fill="#e0e0e0" stroke="#999999" points="542.12,-20 502.12,-20 502.12,0 542.12,0 542.12,-20"/>
<text xml:space="preserve" text-anchor="middle" x="522.12" y="-6.5" font-family="Helvetica,sans-Serif" font-size="10.00">bitset</text>
</a>
</g>
</g>
<!-- Node8&#45;&gt;Node9 -->
<g id="edge8_Node000008_Node000009" class="edge">
<title>Node8&#45;&gt;Node9</title>
<g id="a_edge8_Node000008_Node000009"><a xlink:title=" ">
<path fill="none" stroke="#63b8ff" d="M522.12,-55.59C522.12,-49.01 522.12,-39.96 522.12,-31.73"/>
<polygon fill="#63b8ff" stroke="#63b8ff" points="525.63,-31.81 522.13,-21.81 518.63,-31.81 525.63,-31.81"/>
</a>
</g>
</g>
<!-- Node10 -->
<g id="Node000010" class="node">
<title>Node10</title>
<g id="a_Node000010"><a xlink:title=" ">
<polygon fill="#e0e0e0" stroke="#999999" points="149.75,-20 104.5,-20 104.5,0 149.75,0 149.75,-20"/>
<text xml:space="preserve" text-anchor="middle" x="127.12" y="-6.5" font-family="Helvetica,sans-Serif" font-size="10.00">cstdint</text>
</a>
</g>
</g>
<!-- Node8&#45;&gt;Node10 -->
<g id="edge9_Node000008_Node000010" class="edge">
<title>Node8&#45;&gt;Node10</title>
<g id="a_edge9_Node000008_Node000010"><a xlink:title=" ">
<path fill="none" stroke="#63b8ff" d="M491.17,-57.73C488.12,-57.11 485.07,-56.52 482.12,-56 365.14,-35.47 224.9,-20.51 161.38,-14.25"/>
<polygon fill="#63b8ff" stroke="#63b8ff" points="161.88,-10.78 151.59,-13.29 161.2,-17.75 161.88,-10.78"/>
</a>
</g>
</g>
<!-- Node11&#45;&gt;Node5 -->
<g id="edge11_Node000011_Node000005" class="edge">
<title>Node11&#45;&gt;Node5</title>
<g id="a_edge11_Node000011_Node000005"><a xlink:title=" ">
<path fill="none" stroke="#63b8ff" d="M730.34,-223.55C725.39,-215.74 719.34,-206.19 714.12,-197.94"/>
<polygon fill="#63b8ff" stroke="#63b8ff" points="717.2,-196.26 708.89,-189.69 711.29,-200.01 717.2,-196.26"/>
</a>
</g>
</g>
<!-- Node12 -->
<g id="Node000012" class="node">
<title>Node12</title>
<g id="a_Node000012"><a xlink:href="utils_8hpp.html" target="_top" xlink:title=" ">
<polygon fill="white" stroke="#666666" points="884.38,-188 785.88,-188 785.88,-168 884.38,-168 884.38,-188"/>
<text xml:space="preserve" text-anchor="middle" x="835.12" y="-174.5" font-family="Helvetica,sans-Serif" font-size="10.00">../../../ecs/utils.hpp</text>
</a>
</g>
</g>
<!-- Node11&#45;&gt;Node12 -->
<g id="edge12_Node000011_Node000012" class="edge">
<title>Node11&#45;&gt;Node12</title>
<g id="a_edge12_Node000011_Node000012"><a xlink:title=" ">
<path fill="none" stroke="#63b8ff" d="M764.59,-223.55C778.75,-214.61 796.5,-203.39 810.66,-194.45"/>
<polygon fill="#63b8ff" stroke="#63b8ff" points="812.36,-197.52 818.95,-189.22 808.63,-191.6 812.36,-197.52"/>
</a>
</g>
</g>
<!-- Node13&#45;&gt;Node3 -->
<g id="edge14_Node000013_Node000003" class="edge">
<title>Node13&#45;&gt;Node3</title>
<g id="a_edge14_Node000013_Node000003"><a xlink:title=" ">
<path fill="none" stroke="#63b8ff" d="M264.05,-229.56C219.11,-218.42 144.77,-199.99 99.34,-188.72"/>
<polygon fill="#63b8ff" stroke="#63b8ff" points="100.19,-185.33 89.64,-186.32 98.51,-192.12 100.19,-185.33"/>
</a>
</g>
</g>
<!-- Node13&#45;&gt;Node6 -->
<g id="edge16_Node000013_Node000006" class="edge">
<title>Node13&#45;&gt;Node6</title>
<g id="a_edge16_Node000013_Node000006"><a xlink:title=" ">
<path fill="none" stroke="#63b8ff" d="M360.76,-239.64C421.74,-237.88 518.17,-228.13 590.12,-188 609.87,-176.99 626.34,-156.67 636.62,-141.67"/>
<polygon fill="#63b8ff" stroke="#63b8ff" points="639.36,-143.87 641.88,-133.58 633.49,-140.05 639.36,-143.87"/>
</a>
</g>
</g>
<!-- Node13&#45;&gt;Node8 -->
<g id="edge36_Node000013_Node000008" class="edge">
<title>Node13&#45;&gt;Node8</title>
<g id="a_edge36_Node000013_Node000008"><a xlink:title=" ">
<path fill="none" stroke="#63b8ff" d="M334.42,-229.57C377.78,-215.31 454.52,-184.24 499.12,-132 509.84,-119.45 515.68,-101.58 518.79,-87.75"/>
<polygon fill="#63b8ff" stroke="#63b8ff" points="522.23,-88.42 520.66,-77.94 515.35,-87.11 522.23,-88.42"/>
</a>
</g>
</g>
<!-- Node14 -->
<g id="Node000014" class="node">
<title>Node14</title>
<g id="a_Node000014"><a xlink:title=" ">
<polygon fill="#e0e0e0" stroke="#999999" points="197.88,-188 144.38,-188 144.38,-168 197.88,-168 197.88,-188"/>
<text xml:space="preserve" text-anchor="middle" x="171.12" y="-174.5" font-family="Helvetica,sans-Serif" font-size="10.00">iostream</text>
</a>
</g>
</g>
<!-- Node13&#45;&gt;Node14 -->
<g id="edge15_Node000013_Node000014" class="edge">
<title>Node13&#45;&gt;Node14</title>
<g id="a_edge15_Node000013_Node000014"><a xlink:title=" ">
<path fill="none" stroke="#63b8ff" d="M281.66,-229.62C260.22,-219.81 226.31,-204.27 201.69,-193"/>
<polygon fill="#63b8ff" stroke="#63b8ff" points="203.38,-189.92 192.83,-188.94 200.46,-196.29 203.38,-189.92"/>
</a>
</g>
</g>
<!-- Node15 -->
<g id="Node000015" class="node">
<title>Node15</title>
<g id="a_Node000015"><a xlink:title=" ">
<polygon fill="#e0e0e0" stroke="#999999" points="296.62,-76 253.62,-76 253.62,-56 296.62,-56 296.62,-76"/>
<text xml:space="preserve" text-anchor="middle" x="275.12" y="-62.5" font-family="Helvetica,sans-Serif" font-size="10.00">vector</text>
</a>
</g>
</g>
<!-- Node13&#45;&gt;Node15 -->
<g id="edge17_Node000013_Node000015" class="edge">
<title>Node13&#45;&gt;Node15</title>
<g id="a_edge17_Node000013_Node000015"><a xlink:title=" ">
<path fill="none" stroke="#63b8ff" d="M300.83,-229.74C297.87,-208.77 290.33,-156 283.12,-112 281.81,-103.98 280.27,-95.17 278.89,-87.49"/>
<polygon fill="#63b8ff" stroke="#63b8ff" points="282.36,-87 277.13,-77.78 275.47,-88.25 282.36,-87"/>
</a>
</g>
</g>
<!-- Node16 -->
<g id="Node000016" class="node">
<title>Node16</title>
<g id="a_Node000016"><a xlink:href="Clock_8hpp.html" target="_top" xlink:title=" ">
<polygon fill="white" stroke="#666666" points="60.25,-132 0,-132 0,-112 60.25,-112 60.25,-132"/>
<text xml:space="preserve" text-anchor="middle" x="30.12" y="-118.5" font-family="Helvetica,sans-Serif" font-size="10.00">Clock.hpp</text>
</a>
</g>
</g>
<!-- Node13&#45;&gt;Node16 -->
<g id="edge18_Node000013_Node000016" class="edge">
<title>Node13&#45;&gt;Node16</title>
<g id="a_edge18_Node000013_Node000016"><a xlink:title=" ">
<path fill="none" stroke="#63b8ff" d="M260.9,-229.57C226.43,-220.95 176.41,-206.7 135.12,-188 104.75,-174.24 72.52,-153.2 51.91,-138.81"/>
<polygon fill="#63b8ff" stroke="#63b8ff" points="54.2,-136.15 44.01,-133.22 50.15,-141.86 54.2,-136.15"/>
</a>
</g>
</g>
<!-- Node17 -->
<g id="Node000017" class="node">
<title>Node17</title>
<g id="a_Node000017"><a xlink:href="ComponentRegistry_8hpp.html" target="_top" xlink:title=" ">
<polygon fill="white" stroke="#666666" points="489.62,-132 368.62,-132 368.62,-112 489.62,-112 489.62,-132"/>
<text xml:space="preserve" text-anchor="middle" x="429.12" y="-118.5" font-family="Helvetica,sans-Serif" font-size="10.00">ComponentRegistry.hpp</text>
</a>
</g>
</g>
<!-- Node13&#45;&gt;Node17 -->
<g id="edge20_Node000013_Node000017" class="edge">
<title>Node13&#45;&gt;Node17</title>
<g id="a_edge20_Node000013_Node000017"><a xlink:title=" ">
<path fill="none" stroke="#63b8ff" d="M312.52,-229.51C334.02,-209.87 383.64,-164.55 410.7,-139.83"/>
<polygon fill="#63b8ff" stroke="#63b8ff" points="412.8,-142.65 417.83,-133.32 408.08,-137.48 412.8,-142.65"/>
</a>
</g>
</g>
<!-- Node20 -->
<g id="Node000020" class="node">
<title>Node20</title>
<g id="a_Node000020"><a xlink:href="EntityManager_8hpp.html" target="_top" xlink:title=" ">
<polygon fill="white" stroke="#666666" points="176,-132 78.25,-132 78.25,-112 176,-112 176,-132"/>
<text xml:space="preserve" text-anchor="middle" x="127.12" y="-118.5" font-family="Helvetica,sans-Serif" font-size="10.00">EntityManager.hpp</text>
</a>
</g>
</g>
<!-- Node13&#45;&gt;Node20 -->
<g id="edge26_Node000013_Node000020" class="edge">
<title>Node13&#45;&gt;Node20</title>
<g id="a_edge26_Node000013_Node000020"><a xlink:title=" ">
<path fill="none" stroke="#63b8ff" d="M290.48,-229.52C272.92,-215.41 238.36,-188.33 207.12,-168 190.42,-157.12 170.93,-146.13 155.37,-137.73"/>
<polygon fill="#63b8ff" stroke="#63b8ff" points="157.12,-134.69 146.65,-133.07 153.82,-140.87 157.12,-134.69"/>
</a>
</g>
</g>
<!-- Node21 -->
<g id="Node000021" class="node">
<title>Node21</title>
<g id="a_Node000021"><a xlink:href="SparseSet_8hpp.html" target="_top" xlink:title=" ">
<polygon fill="white" stroke="#666666" points="274.38,-132 193.88,-132 193.88,-112 274.38,-112 274.38,-132"/>
<text xml:space="preserve" text-anchor="middle" x="234.12" y="-118.5" font-family="Helvetica,sans-Serif" font-size="10.00">SparseSet.hpp</text>
</a>
</g>
</g>
<!-- Node13&#45;&gt;Node21 -->
<g id="edge29_Node000013_Node000021" class="edge">
<title>Node13&#45;&gt;Node21</title>
<g id="a_edge29_Node000013_Node000021"><a xlink:title=" ">
<path fill="none" stroke="#63b8ff" d="M296.56,-229.51C285.4,-210.46 260.08,-167.28 245.34,-142.14"/>
<polygon fill="#63b8ff" stroke="#63b8ff" points="248.42,-140.46 240.34,-133.61 242.38,-144 248.42,-140.46"/>
</a>
</g>
</g>
<!-- Node13&#45;&gt;Node22 -->
<g id="edge31_Node000013_Node000022" class="edge">
<title>Node13&#45;&gt;Node22</title>
<g id="a_edge31_Node000013_Node000022"><a xlink:title=" ">
<path fill="none" stroke="#63b8ff" d="M340.68,-229.56C384.37,-218.86 455.53,-201.43 501.83,-190.09"/>
<polygon fill="#63b8ff" stroke="#63b8ff" points="502.4,-193.56 511.28,-187.78 500.74,-186.76 502.4,-193.56"/>
</a>
</g>
</g>
<!-- Node16&#45;&gt;Node10 -->
<g id="edge19_Node000016_Node000010" class="edge">
<title>Node16&#45;&gt;Node10</title>
<g id="a_edge19_Node000016_Node000010"><a xlink:title=" ">
<path fill="none" stroke="#63b8ff" d="M38.4,-111.62C54.57,-93.27 90.64,-52.37 111.47,-28.75"/>
<polygon fill="#63b8ff" stroke="#63b8ff" points="113.89,-31.31 117.87,-21.49 108.64,-26.68 113.89,-31.31"/>
</a>
</g>
</g>
<!-- Node17&#45;&gt;Node7 -->
<g id="edge21_Node000017_Node000007" class="edge">
<title>Node17&#45;&gt;Node7</title>
<g id="a_edge21_Node000017_Node000007"><a xlink:title=" ">
<path fill="none" stroke="#63b8ff" d="M457.87,-111.59C487.34,-101.95 533.03,-87 563.25,-77.1"/>
<polygon fill="#63b8ff" stroke="#63b8ff" points="564.16,-80.49 572.58,-74.05 561.99,-73.84 564.16,-80.49"/>
</a>
</g>
</g>
<!-- Node17&#45;&gt;Node8 -->
<g id="edge25_Node000017_Node000008" class="edge">
<title>Node17&#45;&gt;Node8</title>
<g id="a_edge25_Node000017_Node000008"><a xlink:title=" ">
<path fill="none" stroke="#63b8ff" d="M445.32,-111.59C459.37,-103.44 479.96,-91.48 496.28,-82"/>
<polygon fill="#63b8ff" stroke="#63b8ff" points="497.6,-85.29 504.49,-77.24 494.08,-79.23 497.6,-85.29"/>
</a>
</g>
</g>
<!-- Node17&#45;&gt;Node15 -->
<g id="edge24_Node000017_Node000015" class="edge">
<title>Node17&#45;&gt;Node15</title>
<g id="a_edge24_Node000017_Node000015"><a xlink:title=" ">
<path fill="none" stroke="#63b8ff" d="M402.3,-111.59C375.83,-102.31 335.33,-88.11 307.18,-78.24"/>
<polygon fill="#63b8ff" stroke="#63b8ff" points="308.7,-75.07 298.11,-75.06 306.39,-81.67 308.7,-75.07"/>
</a>
</g>
</g>
<!-- Node18 -->
<g id="Node000018" class="node">
<title>Node18</title>
<g id="a_Node000018"><a xlink:title=" ">
<polygon fill="#e0e0e0" stroke="#999999" points="373.12,-76 315.12,-76 315.12,-56 373.12,-56 373.12,-76"/>
<text xml:space="preserve" text-anchor="middle" x="344.12" y="-62.5" font-family="Helvetica,sans-Serif" font-size="10.00">typeindex</text>
</a>
</g>
</g>
<!-- Node17&#45;&gt;Node18 -->
<g id="edge22_Node000017_Node000018" class="edge">
<title>Node17&#45;&gt;Node18</title>
<g id="a_edge22_Node000017_Node000018"><a xlink:title=" ">
<path fill="none" stroke="#63b8ff" d="M414.32,-111.59C401.72,-103.59 383.37,-91.93 368.59,-82.54"/>
<polygon fill="#63b8ff" stroke="#63b8ff" points="370.64,-79.7 360.32,-77.29 366.89,-85.61 370.64,-79.7"/>
</a>
</g>
</g>
<!-- Node19 -->
<g id="Node000019" class="node">
<title>Node19</title>
<g id="a_Node000019"><a xlink:title=" ">
<polygon fill="#e0e0e0" stroke="#999999" points="473.5,-76 390.75,-76 390.75,-56 473.5,-56 473.5,-76"/>
<text xml:space="preserve" text-anchor="middle" x="432.12" y="-62.5" font-family="Helvetica,sans-Serif" font-size="10.00">unordered_map</text>
</a>
</g>
</g>
<!-- Node17&#45;&gt;Node19 -->
<g id="edge23_Node000017_Node000019" class="edge">
<title>Node17&#45;&gt;Node19</title>
<g id="a_edge23_Node000017_Node000019"><a xlink:title=" ">
<path fill="none" stroke="#63b8ff" d="M429.65,-111.59C430.01,-105.01 430.52,-95.96 430.97,-87.73"/>
<polygon fill="#63b8ff" stroke="#63b8ff" points="434.46,-87.99 431.52,-77.81 427.48,-87.6 434.46,-87.99"/>
</a>
</g>
</g>
<!-- Node20&#45;&gt;Node10 -->
<g id="edge27_Node000020_Node000010" class="edge">
<title>Node20&#45;&gt;Node10</title>
<g id="a_edge27_Node000020_Node000010"><a xlink:title=" ">
<path fill="none" stroke="#63b8ff" d="M127.12,-111.62C127.12,-94.01 127.12,-55.59 127.12,-31.65"/>
<polygon fill="#63b8ff" stroke="#63b8ff" points="130.63,-31.87 127.13,-21.87 123.63,-31.87 130.63,-31.87"/>
</a>
</g>
</g>
<!-- Node20&#45;&gt;Node15 -->
<g id="edge28_Node000020_Node000015" class="edge">
<title>Node20&#45;&gt;Node15</title>
<g id="a_edge28_Node000020_Node000015"><a xlink:title=" ">
<path fill="none" stroke="#63b8ff" d="M152.9,-111.59C177.94,-102.46 216.03,-88.56 243.02,-78.71"/>
<polygon fill="#63b8ff" stroke="#63b8ff" points="243.87,-82.13 252.06,-75.41 241.47,-75.55 243.87,-82.13"/>
</a>
</g>
</g>
<!-- Node21&#45;&gt;Node15 -->
<g id="edge30_Node000021_Node000015" class="edge">
<title>Node21&#45;&gt;Node15</title>
<g id="a_edge30_Node000021_Node000015"><a xlink:title=" ">
<path fill="none" stroke="#63b8ff" d="M241.27,-111.59C246.73,-104.39 254.45,-94.23 261.13,-85.43"/>
<polygon fill="#63b8ff" stroke="#63b8ff" points="263.89,-87.58 267.15,-77.5 258.32,-83.35 263.89,-87.58"/>
</a>
</g>
</g>
<!-- Node22&#45;&gt;Node7 -->
<g id="edge32_Node000022_Node000007" class="edge">
<title>Node22&#45;&gt;Node7</title>
<g id="a_edge32_Node000022_Node000007"><a xlink:title=" ">
<path fill="none" stroke="#63b8ff" d="M551.13,-167.62C558.76,-149.76 575.53,-110.53 585.72,-86.67"/>
<polygon fill="#63b8ff" stroke="#63b8ff" points="588.82,-88.32 589.53,-77.75 582.39,-85.57 588.82,-88.32"/>
</a>
</g>
</g>
<!-- Node22&#45;&gt;Node8 -->
<g id="edge35_Node000022_Node000008" class="edge">
<title>Node22&#45;&gt;Node8</title>
<g id="a_edge35_Node000022_Node000008"><a xlink:title=" ">
<path fill="none" stroke="#63b8ff" d="M544.99,-167.62C540.97,-149.92 532.18,-111.24 526.74,-87.32"/>
<polygon fill="#63b8ff" stroke="#63b8ff" points="530.22,-86.81 524.59,-77.83 523.39,-88.36 530.22,-86.81"/>
</a>
</g>
</g>
<!-- Node22&#45;&gt;Node15 -->
<g id="edge33_Node000022_Node000015" class="edge">
<title>Node22&#45;&gt;Node15</title>
<g id="a_edge33_Node000022_Node000015"><a xlink:title=" ">
<path fill="none" stroke="#63b8ff" d="M512.59,-173.06C473.94,-167.68 410.17,-155.84 360.12,-132 334.09,-119.6 308.37,-98.33 292.16,-83.52"/>
<polygon fill="#63b8ff" stroke="#63b8ff" points="294.98,-81.37 285.29,-77.08 290.2,-86.47 294.98,-81.37"/>
</a>
</g>
</g>
<!-- Node22&#45;&gt;Node17 -->
<g id="edge34_Node000022_Node000017" class="edge">
<title>Node22&#45;&gt;Node17</title>
<g id="a_edge34_Node000022_Node000017"><a xlink:title=" ">
<path fill="none" stroke="#63b8ff" d="M526.57,-167.59C508.24,-159.21 481.14,-146.8 460.17,-137.21"/>
<polygon fill="#63b8ff" stroke="#63b8ff" points="461.77,-134.09 451.22,-133.11 458.85,-140.45 461.77,-134.09"/>
</a>
</g>
</g>
</g>
</svg>
