<?xml version="1.0" encoding="UTF-8" standalone="no"?>
<!DOCTYPE svg PUBLIC "-//W3C//DTD SVG 1.1//EN"
 "http://www.w3.org/Graphics/SVG/1.1/DTD/svg11.dtd">
<!-- Generated by graphviz version 14.0.1 (0)
 -->
<!-- Title: ecs/systems/inputHandler/src/InputHandler.hpp Pages: 1 -->
<svg width="1669pt" height="344pt"
 viewBox="0.00 0.00 1669.00 344.00" xmlns="http://www.w3.org/2000/svg" xmlns:xlink="http://www.w3.org/1999/xlink">
<g id="graph0" class="graph" transform="scale(1 1) rotate(0) translate(4 340)">
<title>ecs/systems/inputHandler/src/InputHandler.hpp</title>
<!-- Node1 -->
<g id="Node000001" class="node">
<title>Node1</title>
<g id="a_Node000001"><a xlink:title=" ">
<polygon fill="#999999" stroke="#666666" points="1002.5,-336 872.5,-336 872.5,-304 1002.5,-304 1002.5,-336"/>
<text xml:space="preserve" text-anchor="start" x="880.5" y="-322.5" font-family="Helvetica,sans-Serif" font-size="10.00">ecs/systems/inputHandler</text>
<text xml:space="preserve" text-anchor="middle" x="937.5" y="-310.5" font-family="Helvetica,sans-Serif" font-size="10.00">/src/InputHandler.hpp</text>
</a>
</g>
</g>
<!-- Node2 -->
<g id="Node000002" class="node">
<title>Node2</title>
<g id="a_Node000002"><a xlink:title=" ">
<polygon fill="#e0e0e0" stroke="#999999" points="523.12,-20 477.88,-20 477.88,0 523.12,0 523.12,-20"/>
<text xml:space="preserve" text-anchor="middle" x="500.5" y="-6.5" font-family="Helvetica,sans-Serif" font-size="10.00">cstdint</text>
</a>
</g>
</g>
<!-- Node1&#45;&gt;Node2 -->
<g id="edge1_Node000001_Node000002" class="edge">
<title>Node1&#45;&gt;Node2</title>
<g id="a_edge1_Node000001_Node000002"><a xlink:title=" ">
<path fill="none" stroke="#63b8ff" d="M872.22,-316.45C793.28,-311.97 666.85,-299.91 633.5,-268 604.28,-240.04 614.5,-219.45 614.5,-179 614.5,-179 614.5,-179 614.5,-121 614.5,-75.39 566.66,-42.71 532.96,-25.35"/>
<polygon fill="#63b8ff" stroke="#63b8ff" points="534.9,-22.4 524.38,-21.12 531.81,-28.68 534.9,-22.4"/>
</a>
</g>
</g>
<!-- Node3 -->
<g id="Node000003" class="node">
<title>Node3</title>
<g id="a_Node000003"><a xlink:href="Registry_8hpp.html" target="_top" xlink:title=" ">
<polygon fill="white" stroke="#666666" points="393.38,-256 295.62,-256 295.62,-236 393.38,-236 393.38,-256"/>
<text xml:space="preserve" text-anchor="middle" x="344.5" y="-242.5" font-family="Helvetica,sans-Serif" font-size="10.00">../../../Registry.hpp</text>
</a>
</g>
</g>
<!-- Node1&#45;&gt;Node3 -->
<g id="edge2_Node000001_Node000003" class="edge">
<title>Node1&#45;&gt;Node3</title>
<g id="a_edge2_Node000001_Node000003"><a xlink:title=" ">
<path fill="none" stroke="#63b8ff" d="M872.06,-311.05C756.27,-297 516.98,-267.94 404.9,-254.33"/>
<polygon fill="#63b8ff" stroke="#63b8ff" points="405.34,-250.86 394.99,-253.13 404.49,-257.81 405.34,-250.86"/>
</a>
</g>
</g>
<!-- Node10 -->
<g id="Node000010" class="node">
<title>Node10</title>
<g id="a_Node000010"><a xlink:href="System_8hpp.html" target="_top" xlink:title=" ">
<polygon fill="white" stroke="#666666" points="134.75,-188 66.25,-188 66.25,-168 134.75,-168 134.75,-188"/>
<text xml:space="preserve" text-anchor="middle" x="100.5" y="-174.5" font-family="Helvetica,sans-Serif" font-size="10.00">System.hpp</text>
</a>
</g>
</g>
<!-- Node1&#45;&gt;Node10 -->
<g id="edge27_Node000001_Node000010" class="edge">
<title>Node1&#45;&gt;Node10</title>
<g id="a_edge27_Node000001_Node000010"><a xlink:title=" ">
<path fill="none" stroke="#63b8ff" d="M872.06,-316.92C729.65,-311.89 395.65,-297.3 286.5,-268 225.09,-251.52 159.35,-215.06 124.86,-194.28"/>
<polygon fill="#63b8ff" stroke="#63b8ff" points="126.84,-191.4 116.49,-189.17 123.19,-197.37 126.84,-191.4"/>
</a>
</g>
</g>
<!-- Node17 -->
<g id="Node000017" class="node">
<title>Node17</title>
<g id="a_Node000017"><a xlink:title=" ">
<polygon fill="#e0e0e0" stroke="#999999" points="924.5,-262 812.5,-262 812.5,-230 924.5,-230 924.5,-262"/>
<text xml:space="preserve" text-anchor="start" x="820.5" y="-248.5" font-family="Helvetica,sans-Serif" font-size="10.00">../../../components</text>
<text xml:space="preserve" text-anchor="middle" x="868.5" y="-236.5" font-family="Helvetica,sans-Serif" font-size="10.00">/health/src/Health.hpp</text>
</a>
</g>
</g>
<!-- Node1&#45;&gt;Node17 -->
<g id="edge28_Node000001_Node000017" class="edge">
<title>Node1&#45;&gt;Node17</title>
<g id="a_edge28_Node000001_Node000017"><a xlink:title=" ">
<path fill="none" stroke="#63b8ff" d="M922.87,-303.73C913.63,-294.09 901.5,-281.44 891.05,-270.53"/>
<polygon fill="#63b8ff" stroke="#63b8ff" points="893.61,-268.14 884.16,-263.34 888.55,-272.98 893.61,-268.14"/>
</a>
</g>
</g>
<!-- Node18 -->
<g id="Node000018" class="node">
<title>Node18</title>
<g id="a_Node000018"><a xlink:title=" ">
<polygon fill="#e0e0e0" stroke="#999999" points="1070.75,-262 942.25,-262 942.25,-230 1070.75,-230 1070.75,-262"/>
<text xml:space="preserve" text-anchor="start" x="950.25" y="-248.5" font-family="Helvetica,sans-Serif" font-size="10.00">../../../components</text>
<text xml:space="preserve" text-anchor="middle" x="1006.5" y="-236.5" font-family="Helvetica,sans-Serif" font-size="10.00">/damage/src/Damage.hpp</text>
</a>
</g>
</g>
<!-- Node1&#45;&gt;Node18 -->
<g id="edge29_Node000001_Node000018" class="edge">
<title>Node1&#45;&gt;Node18</title>
<g id="a_edge29_Node000001_Node000018"><a xlink:title=" ">
<path fill="none" stroke="#63b8ff" d="M952.13,-303.73C961.37,-294.09 973.5,-281.44 983.95,-270.53"/>
<polygon fill="#63b8ff" stroke="#63b8ff" points="986.45,-272.98 990.84,-263.34 981.39,-268.14 986.45,-272.98"/>
</a>
</g>
</g>
<!-- Node19 -->
<g id="Node000019" class="node">
<title>Node19</title>
<g id="a_Node000019"><a xlink:title=" ">
<polygon fill="#e0e0e0" stroke="#999999" points="1214.62,-262 1088.38,-262 1088.38,-230 1214.62,-230 1214.62,-262"/>
<text xml:space="preserve" text-anchor="start" x="1096.38" y="-248.5" font-family="Helvetica,sans-Serif" font-size="10.00">../../../components</text>
<text xml:space="preserve" text-anchor="middle" x="1151.5" y="-236.5" font-family="Helvetica,sans-Serif" font-size="10.00">/position/src/Position.hpp</text>
</a>
</g>
</g>
<!-- Node1&#45;&gt;Node19 -->
<g id="edge30_Node000001_Node000019" class="edge">
<title>Node1&#45;&gt;Node19</title>
<g id="a_edge30_Node000001_Node000019"><a xlink:title=" ">
<path fill="none" stroke="#63b8ff" d="M983.41,-303.55C1016.13,-292.54 1060.32,-277.68 1095.17,-265.95"/>
<polygon fill="#63b8ff" stroke="#63b8ff" points="1095.87,-269.41 1104.23,-262.9 1093.64,-262.77 1095.87,-269.41"/>
</a>
</g>
</g>
<!-- Node20 -->
<g id="Node000020" class="node">
<title>Node20</title>
<g id="a_Node000020"><a xlink:title=" ">
<polygon fill="#e0e0e0" stroke="#999999" points="1357.88,-262 1233.12,-262 1233.12,-230 1357.88,-230 1357.88,-262"/>
<text xml:space="preserve" text-anchor="start" x="1241.12" y="-248.5" font-family="Helvetica,sans-Serif" font-size="10.00">../../../components</text>
<text xml:space="preserve" text-anchor="middle" x="1295.5" y="-236.5" font-family="Helvetica,sans-Serif" font-size="10.00">/velocity/src/Velocity.hpp</text>
</a>
</g>
</g>
<!-- Node1&#45;&gt;Node20 -->
<g id="edge31_Node000001_Node000020" class="edge">
<title>Node1&#45;&gt;Node20</title>
<g id="a_edge31_Node000001_Node000020"><a xlink:title=" ">
<path fill="none" stroke="#63b8ff" d="M1002.94,-309.38C1061.17,-300.33 1148.49,-285.57 1223.5,-268 1226.99,-267.18 1230.55,-266.3 1234.15,-265.37"/>
<polygon fill="#63b8ff" stroke="#63b8ff" points="1234.72,-268.84 1243.48,-262.88 1232.91,-262.08 1234.72,-268.84"/>
</a>
</g>
</g>
<!-- Node21 -->
<g id="Node000021" class="node">
<title>Node21</title>
<g id="a_Node000021"><a xlink:title=" ">
<polygon fill="#e0e0e0" stroke="#999999" points="1539.38,-262 1375.62,-262 1375.62,-230 1539.38,-230 1539.38,-262"/>
<text xml:space="preserve" text-anchor="start" x="1383.62" y="-248.5" font-family="Helvetica,sans-Serif" font-size="10.00">../../../components</text>
<text xml:space="preserve" text-anchor="middle" x="1457.5" y="-236.5" font-family="Helvetica,sans-Serif" font-size="10.00">/acceleration/src/Acceleration.hpp</text>
</a>
</g>
</g>
<!-- Node1&#45;&gt;Node21 -->
<g id="edge32_Node000001_Node000021" class="edge">
<title>Node1&#45;&gt;Node21</title>
<g id="a_edge32_Node000001_Node000021"><a xlink:title=" ">
<path fill="none" stroke="#63b8ff" d="M1002.87,-313.45C1087.26,-305.78 1238.49,-290.31 1366.5,-268 1372.05,-267.03 1377.77,-265.94 1383.51,-264.78"/>
<polygon fill="#63b8ff" stroke="#63b8ff" points="1383.98,-268.25 1393.05,-262.77 1382.54,-261.4 1383.98,-268.25"/>
</a>
</g>
</g>
<!-- Node22 -->
<g id="Node000022" class="node">
<title>Node22</title>
<g id="a_Node000022"><a xlink:title=" ">
<polygon fill="#e0e0e0" stroke="#999999" points="1661.38,-268 1557.62,-268 1557.62,-224 1661.38,-224 1661.38,-268"/>
<text xml:space="preserve" text-anchor="start" x="1565.62" y="-254.5" font-family="Helvetica,sans-Serif" font-size="10.00">../../../components</text>
<text xml:space="preserve" text-anchor="start" x="1565.62" y="-242.5" font-family="Helvetica,sans-Serif" font-size="10.00">/inputControlled/src</text>
<text xml:space="preserve" text-anchor="middle" x="1609.5" y="-230.5" font-family="Helvetica,sans-Serif" font-size="10.00">/InputControlled.hpp</text>
</a>
</g>
</g>
<!-- Node1&#45;&gt;Node22 -->
<g id="edge33_Node000001_Node000022" class="edge">
<title>Node1&#45;&gt;Node22</title>
<g id="a_edge33_Node000001_Node000022"><a xlink:title=" ">
<path fill="none" stroke="#63b8ff" d="M1002.93,-318.83C1113.55,-317.4 1344.4,-309.45 1546.06,-268.25"/>
<polygon fill="#63b8ff" stroke="#63b8ff" points="1546.6,-271.71 1555.68,-266.25 1545.18,-264.86 1546.6,-271.71"/>
</a>
</g>
</g>
<!-- Node23 -->
<g id="Node000023" class="node">
<title>Node23</title>
<g id="a_Node000023"><a xlink:href="ecs_2components_2renderable_2src_2Renderable_8hpp.html" target="_top" xlink:title=" ">
<polygon fill="white" stroke="#666666" points="794.38,-262 642.62,-262 642.62,-230 794.38,-230 794.38,-262"/>
<text xml:space="preserve" text-anchor="start" x="650.62" y="-248.5" font-family="Helvetica,sans-Serif" font-size="10.00">../../../components</text>
<text xml:space="preserve" text-anchor="middle" x="718.5" y="-236.5" font-family="Helvetica,sans-Serif" font-size="10.00">/renderable/src/Renderable.hpp</text>
</a>
</g>
</g>
<!-- Node1&#45;&gt;Node23 -->
<g id="edge34_Node000001_Node000023" class="edge">
<title>Node1&#45;&gt;Node23</title>
<g id="a_edge34_Node000001_Node000023"><a xlink:title=" ">
<path fill="none" stroke="#63b8ff" d="M890.52,-303.55C857.03,-292.54 811.81,-277.68 776.14,-265.95"/>
<polygon fill="#63b8ff" stroke="#63b8ff" points="777.43,-262.69 766.84,-262.89 775.25,-269.34 777.43,-262.69"/>
</a>
</g>
</g>
<!-- Node4 -->
<g id="Node000004" class="node">
<title>Node4</title>
<g id="a_Node000004"><a xlink:href="Types_8hpp.html" target="_top" xlink:title="Core type definitions used throughout the ECS (Entity Component System).">
<polygon fill="white" stroke="#666666" points="61,-76 0,-76 0,-56 61,-56 61,-76"/>
<text xml:space="preserve" text-anchor="middle" x="30.5" y="-62.5" font-family="Helvetica,sans-Serif" font-size="10.00">Types.hpp</text>
</a>
</g>
</g>
<!-- Node3&#45;&gt;Node4 -->
<g id="edge3_Node000003_Node000004" class="edge">
<title>Node3&#45;&gt;Node4</title>
<g id="a_edge3_Node000003_Node000004"><a xlink:title=" ">
<path fill="none" stroke="#63b8ff" d="M295.31,-241.61C222.4,-235.57 90.66,-220.39 57.5,-188 30.52,-161.64 27.82,-114.67 28.81,-87.66"/>
<polygon fill="#63b8ff" stroke="#63b8ff" points="32.28,-88.19 29.38,-78 25.3,-87.77 32.28,-88.19"/>
</a>
</g>
</g>
<!-- Node6 -->
<g id="Node000006" class="node">
<title>Node6</title>
<g id="a_Node000006"><a xlink:href="ComponentRegistry_8hpp.html" target="_top" xlink:title=" ">
<polygon fill="white" stroke="#666666" points="218,-132 97,-132 97,-112 218,-112 218,-132"/>
<text xml:space="preserve" text-anchor="middle" x="157.5" y="-118.5" font-family="Helvetica,sans-Serif" font-size="10.00">ComponentRegistry.hpp</text>
</a>
</g>
</g>
<!-- Node3&#45;&gt;Node6 -->
<g id="edge6_Node000003_Node000006" class="edge">
<title>Node3&#45;&gt;Node6</title>
<g id="a_edge6_Node000003_Node000006"><a xlink:title=" ">
<path fill="none" stroke="#63b8ff" d="M295.13,-239.05C259.35,-232.31 212.07,-218.05 181.5,-188 169.42,-176.13 163.37,-157.66 160.37,-143.44"/>
<polygon fill="#63b8ff" stroke="#63b8ff" points="163.86,-143.05 158.7,-133.8 156.96,-144.25 163.86,-143.05"/>
</a>
</g>
</g>
<!-- Node7 -->
<g id="Node000007" class="node">
<title>Node7</title>
<g id="a_Node000007"><a xlink:title=" ">
<polygon fill="#e0e0e0" stroke="#999999" points="336,-76 293,-76 293,-56 336,-56 336,-76"/>
<text xml:space="preserve" text-anchor="middle" x="314.5" y="-62.5" font-family="Helvetica,sans-Serif" font-size="10.00">vector</text>
</a>
</g>
</g>
<!-- Node3&#45;&gt;Node7 -->
<g id="edge21_Node000003_Node000007" class="edge">
<title>Node3&#45;&gt;Node7</title>
<g id="a_edge21_Node000003_Node000007"><a xlink:title=" ">
<path fill="none" stroke="#63b8ff" d="M349.21,-235.5C359.67,-213.01 382.45,-155.14 363.5,-112 358.41,-100.42 348.71,-90.51 339.28,-82.97"/>
<polygon fill="#63b8ff" stroke="#63b8ff" points="341.46,-80.23 331.33,-77.13 337.32,-85.87 341.46,-80.23"/>
</a>
</g>
</g>
<!-- Node3&#45;&gt;Node10 -->
<g id="edge11_Node000003_Node000010" class="edge">
<title>Node3&#45;&gt;Node10</title>
<g id="a_edge11_Node000003_Node000010"><a xlink:title=" ">
<path fill="none" stroke="#63b8ff" d="M309.54,-235.54C266.48,-223.9 193.22,-204.08 145.86,-191.27"/>
<polygon fill="#63b8ff" stroke="#63b8ff" points="147.03,-187.96 136.46,-188.73 145.2,-194.72 147.03,-187.96"/>
</a>
</g>
</g>
<!-- Node11 -->
<g id="Node000011" class="node">
<title>Node11</title>
<g id="a_Node000011"><a xlink:href="EntityManager_8hpp.html" target="_top" xlink:title=" ">
<polygon fill="white" stroke="#666666" points="508.38,-132 410.62,-132 410.62,-112 508.38,-112 508.38,-132"/>
<text xml:space="preserve" text-anchor="middle" x="459.5" y="-118.5" font-family="Helvetica,sans-Serif" font-size="10.00">EntityManager.hpp</text>
</a>
</g>
</g>
<!-- Node3&#45;&gt;Node11 -->
<g id="edge16_Node000003_Node000011" class="edge">
<title>Node3&#45;&gt;Node11</title>
<g id="a_edge16_Node000003_Node000011"><a xlink:title=" ">
<path fill="none" stroke="#63b8ff" d="M353.14,-235.83C372.21,-215.61 418.14,-166.88 442.94,-140.57"/>
<polygon fill="#63b8ff" stroke="#63b8ff" points="445.41,-143.06 449.72,-133.38 440.31,-138.25 445.41,-143.06"/>
</a>
</g>
</g>
<!-- Node12 -->
<g id="Node000012" class="node">
<title>Node12</title>
<g id="a_Node000012"><a xlink:href="SparseSet_8hpp.html" target="_top" xlink:title=" ">
<polygon fill="white" stroke="#666666" points="354.75,-132 274.25,-132 274.25,-112 354.75,-112 354.75,-132"/>
<text xml:space="preserve" text-anchor="middle" x="314.5" y="-118.5" font-family="Helvetica,sans-Serif" font-size="10.00">SparseSet.hpp</text>
</a>
</g>
</g>
<!-- Node3&#45;&gt;Node12 -->
<g id="edge19_Node000003_Node000012" class="edge">
<title>Node3&#45;&gt;Node12</title>
<g id="a_edge19_Node000003_Node000012"><a xlink:title=" ">
<path fill="none" stroke="#63b8ff" d="M342.25,-235.83C337.45,-216.31 326.12,-170.25 319.52,-143.4"/>
<polygon fill="#63b8ff" stroke="#63b8ff" points="322.93,-142.62 317.14,-133.75 316.13,-144.29 322.93,-142.62"/>
</a>
</g>
</g>
<!-- Node13 -->
<g id="Node000013" class="node">
<title>Node13</title>
<g id="a_Node000013"><a xlink:title=" ">
<polygon fill="#e0e0e0" stroke="#999999" points="242.12,-188 190.88,-188 190.88,-168 242.12,-168 242.12,-188"/>
<text xml:space="preserve" text-anchor="middle" x="216.5" y="-174.5" font-family="Helvetica,sans-Serif" font-size="10.00">memory</text>
</a>
</g>
</g>
<!-- Node3&#45;&gt;Node13 -->
<g id="edge22_Node000003_Node000013" class="edge">
<title>Node3&#45;&gt;Node13</title>
<g id="a_edge22_Node000003_Node000013"><a xlink:title=" ">
<path fill="none" stroke="#63b8ff" d="M326.16,-235.54C304.87,-224.57 269.51,-206.33 244.71,-193.55"/>
<polygon fill="#63b8ff" stroke="#63b8ff" points="246.64,-190.6 236.15,-189.13 243.43,-196.83 246.64,-190.6"/>
</a>
</g>
</g>
<!-- Node14 -->
<g id="Node000014" class="node">
<title>Node14</title>
<g id="a_Node000014"><a xlink:title=" ">
<polygon fill="#e0e0e0" stroke="#999999" points="316.38,-188 260.62,-188 260.62,-168 316.38,-168 316.38,-188"/>
<text xml:space="preserve" text-anchor="middle" x="288.5" y="-174.5" font-family="Helvetica,sans-Serif" font-size="10.00">algorithm</text>
</a>
</g>
</g>
<!-- Node3&#45;&gt;Node14 -->
<g id="edge23_Node000003_Node000014" class="edge">
<title>Node3&#45;&gt;Node14</title>
<g id="a_edge23_Node000003_Node000014"><a xlink:title=" ">
<path fill="none" stroke="#63b8ff" d="M336.48,-235.54C327.99,-225.55 314.41,-209.53 303.85,-197.09"/>
<polygon fill="#63b8ff" stroke="#63b8ff" points="306.63,-194.95 297.49,-189.59 301.29,-199.48 306.63,-194.95"/>
</a>
</g>
</g>
<!-- Node15 -->
<g id="Node000015" class="node">
<title>Node15</title>
<g id="a_Node000015"><a xlink:title=" ">
<polygon fill="#e0e0e0" stroke="#999999" points="696.25,-188 642.75,-188 642.75,-168 696.25,-168 696.25,-188"/>
<text xml:space="preserve" text-anchor="middle" x="669.5" y="-174.5" font-family="Helvetica,sans-Serif" font-size="10.00">iostream</text>
</a>
</g>
</g>
<!-- Node3&#45;&gt;Node15 -->
<g id="edge24_Node000003_Node000015" class="edge">
<title>Node3&#45;&gt;Node15</title>
<g id="a_edge24_Node000003_Node000015"><a xlink:title=" ">
<path fill="none" stroke="#63b8ff" d="M391.06,-235.54C455.73,-222.41 571.51,-198.9 631.36,-186.75"/>
<polygon fill="#63b8ff" stroke="#63b8ff" points="631.96,-190.19 641.06,-184.77 630.57,-183.33 631.96,-190.19"/>
</a>
</g>
</g>
<!-- Node16 -->
<g id="Node000016" class="node">
<title>Node16</title>
<g id="a_Node000016"><a xlink:href="Clock_8hpp.html" target="_top" xlink:title=" ">
<polygon fill="white" stroke="#666666" points="586.62,-132 526.38,-132 526.38,-112 586.62,-112 586.62,-132"/>
<text xml:space="preserve" text-anchor="middle" x="556.5" y="-118.5" font-family="Helvetica,sans-Serif" font-size="10.00">Clock.hpp</text>
</a>
</g>
</g>
<!-- Node3&#45;&gt;Node16 -->
<g id="edge25_Node000003_Node000016" class="edge">
<title>Node3&#45;&gt;Node16</title>
<g id="a_edge25_Node000003_Node000016"><a xlink:title=" ">
<path fill="none" stroke="#63b8ff" d="M360.78,-235.63C397.32,-214.61 486.08,-163.53 530.41,-138.02"/>
<polygon fill="#63b8ff" stroke="#63b8ff" points="531.93,-141.18 538.85,-133.16 528.44,-135.11 531.93,-141.18"/>
</a>
</g>
</g>
<!-- Node4&#45;&gt;Node2 -->
<g id="edge4_Node000004_Node000002" class="edge">
<title>Node4&#45;&gt;Node2</title>
<g id="a_edge4_Node000004_Node000002"><a xlink:title=" ">
<path fill="none" stroke="#63b8ff" d="M61.44,-57.66C64.49,-57.05 67.55,-56.48 70.5,-56 216.79,-31.97 393.3,-18.23 466.32,-13.21"/>
<polygon fill="#63b8ff" stroke="#63b8ff" points="466.28,-16.72 476.02,-12.56 465.81,-9.74 466.28,-16.72"/>
</a>
</g>
</g>
<!-- Node5 -->
<g id="Node000005" class="node">
<title>Node5</title>
<g id="a_Node000005"><a xlink:title=" ">
<polygon fill="#e0e0e0" stroke="#999999" points="50.5,-20 10.5,-20 10.5,0 50.5,0 50.5,-20"/>
<text xml:space="preserve" text-anchor="middle" x="30.5" y="-6.5" font-family="Helvetica,sans-Serif" font-size="10.00">bitset</text>
</a>
</g>
</g>
<!-- Node4&#45;&gt;Node5 -->
<g id="edge5_Node000004_Node000005" class="edge">
<title>Node4&#45;&gt;Node5</title>
<g id="a_edge5_Node000004_Node000005"><a xlink:title=" ">
<path fill="none" stroke="#63b8ff" d="M30.5,-55.59C30.5,-49.01 30.5,-39.96 30.5,-31.73"/>
<polygon fill="#63b8ff" stroke="#63b8ff" points="34,-31.81 30.5,-21.81 27,-31.81 34,-31.81"/>
</a>
</g>
</g>
<!-- Node6&#45;&gt;Node4 -->
<g id="edge7_Node000006_Node000004" class="edge">
<title>Node6&#45;&gt;Node4</title>
<g id="a_edge7_Node000006_Node000004"><a xlink:title=" ">
<path fill="none" stroke="#63b8ff" d="M135.38,-111.59C115.47,-103.13 85.95,-90.58 63.29,-80.94"/>
<polygon fill="#63b8ff" stroke="#63b8ff" points="64.76,-77.76 54.19,-77.07 62.02,-84.21 64.76,-77.76"/>
</a>
</g>
</g>
<!-- Node6&#45;&gt;Node7 -->
<g id="edge8_Node000006_Node000007" class="edge">
<title>Node6&#45;&gt;Node7</title>
<g id="a_edge8_Node000006_Node000007"><a xlink:title=" ">
<path fill="none" stroke="#63b8ff" d="M184.85,-111.59C211.84,-102.31 253.12,-88.11 281.82,-78.24"/>
<polygon fill="#63b8ff" stroke="#63b8ff" points="282.78,-81.61 291.09,-75.05 280.5,-74.99 282.78,-81.61"/>
</a>
</g>
</g>
<!-- Node8 -->
<g id="Node000008" class="node">
<title>Node8</title>
<g id="a_Node000008"><a xlink:title=" ">
<polygon fill="#e0e0e0" stroke="#999999" points="195.5,-76 137.5,-76 137.5,-56 195.5,-56 195.5,-76"/>
<text xml:space="preserve" text-anchor="middle" x="166.5" y="-62.5" font-family="Helvetica,sans-Serif" font-size="10.00">typeindex</text>
</a>
</g>
</g>
<!-- Node6&#45;&gt;Node8 -->
<g id="edge9_Node000006_Node000008" class="edge">
<title>Node6&#45;&gt;Node8</title>
<g id="a_edge9_Node000006_Node000008"><a xlink:title=" ">
<path fill="none" stroke="#63b8ff" d="M159.07,-111.59C160.18,-104.93 161.71,-95.75 163.09,-87.44"/>
<polygon fill="#63b8ff" stroke="#63b8ff" points="166.51,-88.23 164.7,-77.79 159.61,-87.08 166.51,-88.23"/>
</a>
</g>
</g>
<!-- Node9 -->
<g id="Node000009" class="node">
<title>Node9</title>
<g id="a_Node000009"><a xlink:title=" ">
<polygon fill="#e0e0e0" stroke="#999999" points="119.5,-76 79.5,-76 79.5,-56 119.5,-56 119.5,-76"/>
<text xml:space="preserve" text-anchor="middle" x="99.5" y="-62.5" font-family="Helvetica,sans-Serif" font-size="10.00">string</text>
</a>
</g>
</g>
<!-- Node6&#45;&gt;Node9 -->
<g id="edge10_Node000006_Node000009" class="edge">
<title>Node6&#45;&gt;Node9</title>
<g id="a_edge10_Node000006_Node000009"><a xlink:title=" ">
<path fill="none" stroke="#63b8ff" d="M147.4,-111.59C139.25,-104.01 127.57,-93.13 117.78,-84.02"/>
<polygon fill="#63b8ff" stroke="#63b8ff" points="120.3,-81.58 110.59,-77.33 115.53,-86.71 120.3,-81.58"/>
</a>
</g>
</g>
<!-- Node10&#45;&gt;Node4 -->
<g id="edge12_Node000010_Node000004" class="edge">
<title>Node10&#45;&gt;Node4</title>
<g id="a_edge12_Node000010_Node000004"><a xlink:title=" ">
<path fill="none" stroke="#63b8ff" d="M94.53,-167.62C83.06,-149.6 57.74,-109.81 42.61,-86.02"/>
<polygon fill="#63b8ff" stroke="#63b8ff" points="45.59,-84.19 37.27,-77.63 39.68,-87.95 45.59,-84.19"/>
</a>
</g>
</g>
<!-- Node10&#45;&gt;Node6 -->
<g id="edge13_Node000010_Node000006" class="edge">
<title>Node10&#45;&gt;Node6</title>
<g id="a_edge13_Node000010_Node000006"><a xlink:title=" ">
<path fill="none" stroke="#63b8ff" d="M110.43,-167.59C118.44,-160.01 129.92,-149.13 139.53,-140.02"/>
<polygon fill="#63b8ff" stroke="#63b8ff" points="141.73,-142.76 146.59,-133.34 136.92,-137.68 141.73,-142.76"/>
</a>
</g>
</g>
<!-- Node10&#45;&gt;Node7 -->
<g id="edge15_Node000010_Node000007" class="edge">
<title>Node10&#45;&gt;Node7</title>
<g id="a_edge15_Node000010_Node000007"><a xlink:title=" ">
<path fill="none" stroke="#63b8ff" d="M135.07,-167.65C161.05,-159.92 197.08,-147.68 226.5,-132 252.1,-118.36 278.47,-97.86 295.59,-83.54"/>
<polygon fill="#63b8ff" stroke="#63b8ff" points="297.59,-86.44 302.93,-77.29 293.05,-81.11 297.59,-86.44"/>
</a>
</g>
</g>
<!-- Node10&#45;&gt;Node9 -->
<g id="edge14_Node000010_Node000009" class="edge">
<title>Node10&#45;&gt;Node9</title>
<g id="a_edge14_Node000010_Node000009"><a xlink:title=" ">
<path fill="none" stroke="#63b8ff" d="M96.91,-167.51C93.72,-158.52 89.28,-144.56 87.5,-132 85.35,-116.85 88.7,-99.84 92.4,-87.02"/>
<polygon fill="#63b8ff" stroke="#63b8ff" points="95.68,-88.25 95.42,-77.66 89.02,-86.1 95.68,-88.25"/>
</a>
</g>
</g>
<!-- Node11&#45;&gt;Node2 -->
<g id="edge18_Node000011_Node000002" class="edge">
<title>Node11&#45;&gt;Node2</title>
<g id="a_edge18_Node000011_Node000002"><a xlink:title=" ">
<path fill="none" stroke="#63b8ff" d="M463,-111.62C469.62,-93.84 484.14,-54.88 493.05,-31"/>
<polygon fill="#63b8ff" stroke="#63b8ff" points="496.27,-32.37 496.48,-21.77 489.71,-29.92 496.27,-32.37"/>
</a>
</g>
</g>
<!-- Node11&#45;&gt;Node7 -->
<g id="edge17_Node000011_Node000007" class="edge">
<title>Node11&#45;&gt;Node7</title>
<g id="a_edge17_Node000011_Node000007"><a xlink:title=" ">
<path fill="none" stroke="#63b8ff" d="M434.24,-111.59C409.96,-102.55 373.16,-88.85 346.77,-79.02"/>
<polygon fill="#63b8ff" stroke="#63b8ff" points="348.17,-75.8 337.58,-75.59 345.73,-82.36 348.17,-75.8"/>
</a>
</g>
</g>
<!-- Node12&#45;&gt;Node7 -->
<g id="edge20_Node000012_Node000007" class="edge">
<title>Node12&#45;&gt;Node7</title>
<g id="a_edge20_Node000012_Node000007"><a xlink:title=" ">
<path fill="none" stroke="#63b8ff" d="M314.5,-111.59C314.5,-105.01 314.5,-95.96 314.5,-87.73"/>
<polygon fill="#63b8ff" stroke="#63b8ff" points="318,-87.81 314.5,-77.81 311,-87.81 318,-87.81"/>
</a>
</g>
</g>
<!-- Node16&#45;&gt;Node2 -->
<g id="edge26_Node000016_Node000002" class="edge">
<title>Node16&#45;&gt;Node2</title>
<g id="a_edge26_Node000016_Node000002"><a xlink:title=" ">
<path fill="none" stroke="#63b8ff" d="M551.73,-111.62C542.59,-93.68 522.48,-54.17 510.35,-30.35"/>
<polygon fill="#63b8ff" stroke="#63b8ff" points="513.61,-29.03 505.95,-21.7 507.37,-32.2 513.61,-29.03"/>
</a>
</g>
</g>
<!-- Node23&#45;&gt;Node15 -->
<g id="edge36_Node000023_Node000015" class="edge">
<title>Node23&#45;&gt;Node15</title>
<g id="a_edge36_Node000023_Node000015"><a xlink:title=" ">
<path fill="none" stroke="#63b8ff" d="M707.14,-229.69C700.01,-220.1 690.78,-207.67 683.25,-197.52"/>
<polygon fill="#63b8ff" stroke="#63b8ff" points="686.09,-195.47 677.32,-189.53 680.47,-199.65 686.09,-195.47"/>
</a>
</g>
</g>
<!-- Node24 -->
<g id="Node000024" class="node">
<title>Node24</title>
<g id="a_Node000024"><a xlink:title=" ">
<polygon fill="#e0e0e0" stroke="#999999" points="860.62,-188 812.38,-188 812.38,-168 860.62,-168 860.62,-188"/>
<text xml:space="preserve" text-anchor="middle" x="836.5" y="-174.5" font-family="Helvetica,sans-Serif" font-size="10.00">cstddef</text>
</a>
</g>
</g>
<!-- Node23&#45;&gt;Node24 -->
<g id="edge35_Node000023_Node000024" class="edge">
<title>Node23&#45;&gt;Node24</title>
<g id="a_edge35_Node000023_Node000024"><a xlink:title=" ">
<path fill="none" stroke="#63b8ff" d="M746.17,-229.53C765.36,-218.79 790.79,-204.56 809.78,-193.94"/>
<polygon fill="#63b8ff" stroke="#63b8ff" points="811.25,-197.14 818.27,-189.2 807.83,-191.03 811.25,-197.14"/>
</a>
</g>
</g>
<!-- Node25 -->
<g id="Node000025" class="node">
<title>Node25</title>
<g id="a_Node000025"><a xlink:href="utils_8hpp.html" target="_top" xlink:title=" ">
<polygon fill="white" stroke="#666666" points="794.38,-188 714.62,-188 714.62,-168 794.38,-168 794.38,-188"/>
<text xml:space="preserve" text-anchor="middle" x="754.5" y="-174.5" font-family="Helvetica,sans-Serif" font-size="10.00">../../../utils.hpp</text>
</a>
</g>
</g>
<!-- Node23&#45;&gt;Node25 -->
<g id="edge37_Node000023_Node000025" class="edge">
<title>Node23&#45;&gt;Node25</title>
<g id="a_edge37_Node000023_Node000025"><a xlink:title=" ">
<path fill="none" stroke="#63b8ff" d="M726.85,-229.69C731.97,-220.3 738.58,-208.18 744.05,-198.15"/>
<polygon fill="#63b8ff" stroke="#63b8ff" points="746.98,-200.1 748.69,-189.64 740.83,-196.75 746.98,-200.1"/>
</a>
</g>
</g>
</g>
</svg>
