<?xml version="1.0" encoding="UTF-8" standalone="no"?>
<!DOCTYPE svg PUBLIC "-//W3C//DTD SVG 1.1//EN"
 "http://www.w3.org/Graphics/SVG/1.1/DTD/svg11.dtd">
<!-- Generated by graphviz version 14.0.2 (0)
 -->
<!-- Title: ecs/EntityManager.hpp Pages: 1 -->
<svg width="125pt" height="84pt"
 viewBox="0.00 0.00 125.00 84.00" xmlns="http://www.w3.org/2000/svg" xmlns:xlink="http://www.w3.org/1999/xlink">
<g id="graph0" class="graph" transform="scale(1 1) rotate(0) translate(4 80)">
<title>ecs/EntityManager.hpp</title>
<!-- Node1 -->
<g id="Node000001" class="node">
<title>Node1</title>
<g id="a_Node000001"><a xlink:title=" ">
<polygon fill="#999999" stroke="#666666" points="116.5,-76 0,-76 0,-56 116.5,-56 116.5,-76"/>
<text xml:space="preserve" text-anchor="middle" x="58.25" y="-62.5" font-family="Helvetica,sans-Serif" font-size="10.00">ecs/EntityManager.hpp</text>
</a>
</g>
</g>
<!-- Node2 -->
<g id="Node000002" class="node">
<title>Node2</title>
<g id="a_Node000002"><a xlink:title=" ">
<polygon fill="#e0e0e0" stroke="#999999" points="49.88,-20 4.62,-20 4.62,0 49.88,0 49.88,-20"/>
<text xml:space="preserve" text-anchor="middle" x="27.25" y="-6.5" font-family="Helvetica,sans-Serif" font-size="10.00">cstdint</text>
</a>
</g>
</g>
<!-- Node1&#45;&gt;Node2 -->
<g id="edge1_Node000001_Node000002" class="edge">
<title>Node1&#45;&gt;Node2</title>
<g id="a_edge1_Node000001_Node000002"><a xlink:title=" ">
<path fill="none" stroke="#63b8ff" d="M52.85,-55.59C48.81,-48.55 43.13,-38.67 38.16,-30"/>
<polygon fill="#63b8ff" stroke="#63b8ff" points="41.36,-28.54 33.34,-21.61 35.28,-32.03 41.36,-28.54"/>
</a>
</g>
</g>
<!-- Node3 -->
<g id="Node000003" class="node">
<title>Node3</title>
<g id="a_Node000003"><a xlink:title=" ">
<polygon fill="#e0e0e0" stroke="#999999" points="110.75,-20 67.75,-20 67.75,0 110.75,0 110.75,-20"/>
<text xml:space="preserve" text-anchor="middle" x="89.25" y="-6.5" font-family="Helvetica,sans-Serif" font-size="10.00">vector</text>
</a>
</g>
</g>
<!-- Node1&#45;&gt;Node3 -->
<g id="edge2_Node000001_Node000003" class="edge">
<title>Node1&#45;&gt;Node3</title>
<g id="a_edge2_Node000001_Node000003"><a xlink:title=" ">
<path fill="none" stroke="#63b8ff" d="M63.65,-55.59C67.69,-48.55 73.37,-38.67 78.34,-30"/>
<polygon fill="#63b8ff" stroke="#63b8ff" points="81.22,-32.03 83.16,-21.61 75.14,-28.54 81.22,-32.03"/>
</a>
</g>
</g>
</g>
</svg>
