<?xml version="1.0" encoding="UTF-8" standalone="no"?>
<!DOCTYPE svg PUBLIC "-//W3C//DTD SVG 1.1//EN"
 "http://www.w3.org/Graphics/SVG/1.1/DTD/svg11.dtd">
<!-- Generated by graphviz version 14.0.1 (0)
 -->
<!-- Title: ecs/EntityManager.hpp Pages: 1 -->
<svg width="799pt" height="152pt"
 viewBox="0.00 0.00 799.00 152.00" xmlns="http://www.w3.org/2000/svg" xmlns:xlink="http://www.w3.org/1999/xlink">
<g id="graph0" class="graph" transform="scale(1 1) rotate(0) translate(4 148)">
<title>ecs/EntityManager.hpp</title>
<!-- Node1 -->
<g id="Node000001" class="node">
<title>Node1</title>
<g id="a_Node000001"><a xlink:title=" ">
<polygon fill="#999999" stroke="#666666" points="454.25,-144 337.75,-144 337.75,-124 454.25,-124 454.25,-144"/>
<text xml:space="preserve" text-anchor="middle" x="396" y="-130.5" font-family="Helvetica,sans-Serif" font-size="10.00">ecs/EntityManager.hpp</text>
</a>
</g>
</g>
<!-- Node2 -->
<g id="Node000002" class="node">
<title>Node2</title>
<g id="a_Node000002"><a xlink:href="Registry_8hpp.html" target="_top" xlink:title=" ">
<polygon fill="white" stroke="#666666" points="440.75,-88 351.25,-88 351.25,-68 440.75,-68 440.75,-88"/>
<text xml:space="preserve" text-anchor="middle" x="396" y="-74.5" font-family="Helvetica,sans-Serif" font-size="10.00">ecs/Registry.hpp</text>
</a>
</g>
</g>
<!-- Node1&#45;&gt;Node2 -->
<g id="edge1_Node000001_Node000002" class="edge">
<title>Node1&#45;&gt;Node2</title>
<g id="a_edge1_Node000001_Node000002"><a xlink:title=" ">
<path fill="none" stroke="#63b8ff" d="M396,-112.13C396,-103.9 396,-94.85 396,-88.3"/>
<polygon fill="#63b8ff" stroke="#63b8ff" points="392.5,-112.08 396,-122.08 399.5,-112.08 392.5,-112.08"/>
</a>
</g>
</g>
<!-- Node3 -->
<g id="Node000003" class="node">
<title>Node3</title>
<g id="a_Node000003"><a xlink:href="ecs_2systems_2inputHandler_2src_2InputHandler_8hpp.html" target="_top" xlink:title=" ">
<polygon fill="white" stroke="#666666" points="130,-32 0,-32 0,0 130,0 130,-32"/>
<text xml:space="preserve" text-anchor="start" x="8" y="-18.5" font-family="Helvetica,sans-Serif" font-size="10.00">ecs/systems/inputHandler</text>
<text xml:space="preserve" text-anchor="middle" x="65" y="-6.5" font-family="Helvetica,sans-Serif" font-size="10.00">/src/InputHandler.hpp</text>
</a>
</g>
</g>
<!-- Node2&#45;&gt;Node3 -->
<g id="edge2_Node000002_Node000003" class="edge">
<title>Node2&#45;&gt;Node3</title>
<g id="a_edge2_Node000002_Node000003"><a xlink:title=" ">
<path fill="none" stroke="#63b8ff" d="M339.56,-67.56C287.44,-58.74 207.9,-45.01 139,-32 136.17,-31.46 133.27,-30.91 130.35,-30.35"/>
<polygon fill="#63b8ff" stroke="#63b8ff" points="338.97,-71.01 349.41,-69.23 340.13,-64.11 338.97,-71.01"/>
</a>
</g>
</g>
<!-- Node4 -->
<g id="Node000004" class="node">
<title>Node4</title>
<g id="a_Node000004"><a xlink:href="ecs_2systems_2motion_2src_2Motion_8hpp.html" target="_top" xlink:title=" ">
<polygon fill="white" stroke="#666666" points="252.25,-32 147.75,-32 147.75,0 252.25,0 252.25,-32"/>
<text xml:space="preserve" text-anchor="start" x="155.75" y="-18.5" font-family="Helvetica,sans-Serif" font-size="10.00">ecs/systems/motion</text>
<text xml:space="preserve" text-anchor="middle" x="200" y="-6.5" font-family="Helvetica,sans-Serif" font-size="10.00">/src/Motion.hpp</text>
</a>
</g>
</g>
<!-- Node2&#45;&gt;Node4 -->
<g id="edge3_Node000002_Node000004" class="edge">
<title>Node2&#45;&gt;Node4</title>
<g id="a_edge3_Node000002_Node000004"><a xlink:title=" ">
<path fill="none" stroke="#63b8ff" d="M354.73,-64.37C324.38,-55.08 282.95,-42.39 250.6,-32.49"/>
<polygon fill="#63b8ff" stroke="#63b8ff" points="353.34,-67.6 363.93,-67.18 355.39,-60.91 353.34,-67.6"/>
</a>
</g>
</g>
<!-- Node5 -->
<g id="Node000005" class="node">
<title>Node5</title>
<g id="a_Node000005"><a xlink:href="Collision_8hpp.html" target="_top" xlink:title=" ">
<polygon fill="white" stroke="#666666" points="378.12,-32 269.88,-32 269.88,0 378.12,0 378.12,-32"/>
<text xml:space="preserve" text-anchor="start" x="277.88" y="-18.5" font-family="Helvetica,sans-Serif" font-size="10.00">systems/collision/src</text>
<text xml:space="preserve" text-anchor="middle" x="324" y="-6.5" font-family="Helvetica,sans-Serif" font-size="10.00">/Collision.hpp</text>
</a>
</g>
</g>
<!-- Node2&#45;&gt;Node5 -->
<g id="edge4_Node000002_Node000005" class="edge">
<title>Node2&#45;&gt;Node5</title>
<g id="a_edge4_Node000002_Node000005"><a xlink:title=" ">
<path fill="none" stroke="#63b8ff" d="M376.21,-60.51C365.67,-51.72 352.78,-40.98 342.45,-32.37"/>
<polygon fill="#63b8ff" stroke="#63b8ff" points="373.66,-62.94 383.59,-66.66 378.15,-57.57 373.66,-62.94"/>
</a>
</g>
</g>
<!-- Node6 -->
<g id="Node000006" class="node">
<title>Node6</title>
<g id="a_Node000006"><a xlink:href="Death_8hpp.html" target="_top" xlink:title=" ">
<polygon fill="white" stroke="#666666" points="541.5,-26 396.5,-26 396.5,-6 541.5,-6 541.5,-26"/>
<text xml:space="preserve" text-anchor="middle" x="469" y="-12.5" font-family="Helvetica,sans-Serif" font-size="10.00">systems/death/src/Death.hpp</text>
</a>
</g>
</g>
<!-- Node2&#45;&gt;Node6 -->
<g id="edge5_Node000002_Node000006" class="edge">
<title>Node2&#45;&gt;Node6</title>
<g id="a_edge5_Node000002_Node000006"><a xlink:title=" ">
<path fill="none" stroke="#63b8ff" d="M416.02,-60.55C429.52,-49.45 446.82,-35.23 457.91,-26.11"/>
<polygon fill="#63b8ff" stroke="#63b8ff" points="414.08,-57.61 408.58,-66.66 418.52,-63.02 414.08,-57.61"/>
</a>
</g>
</g>
<!-- Node7 -->
<g id="Node000007" class="node">
<title>Node7</title>
<g id="a_Node000007"><a xlink:href="systems_2inputHandler_2src_2InputHandler_8hpp.html" target="_top" xlink:title=" ">
<polygon fill="white" stroke="#666666" points="670.62,-32 559.38,-32 559.38,0 670.62,0 670.62,-32"/>
<text xml:space="preserve" text-anchor="start" x="567.38" y="-18.5" font-family="Helvetica,sans-Serif" font-size="10.00">systems/inputHandler</text>
<text xml:space="preserve" text-anchor="middle" x="615" y="-6.5" font-family="Helvetica,sans-Serif" font-size="10.00">/src/InputHandler.hpp</text>
</a>
</g>
</g>
<!-- Node2&#45;&gt;Node7 -->
<g id="edge6_Node000002_Node000007" class="edge">
<title>Node2&#45;&gt;Node7</title>
<g id="a_edge6_Node000002_Node000007"><a xlink:title=" ">
<path fill="none" stroke="#63b8ff" d="M441.26,-64.6C475.38,-55.25 522.38,-42.38 558.89,-32.37"/>
<polygon fill="#63b8ff" stroke="#63b8ff" points="440.4,-61.21 431.68,-67.23 442.25,-67.96 440.4,-61.21"/>
</a>
</g>
</g>
<!-- Node8 -->
<g id="Node000008" class="node">
<title>Node8</title>
<g id="a_Node000008"><a xlink:href="systems_2motion_2src_2Motion_8hpp.html" target="_top" xlink:title=" ">
<polygon fill="white" stroke="#666666" points="791.12,-32 688.88,-32 688.88,0 791.12,0 791.12,-32"/>
<text xml:space="preserve" text-anchor="start" x="696.88" y="-18.5" font-family="Helvetica,sans-Serif" font-size="10.00">systems/motion/src</text>
<text xml:space="preserve" text-anchor="middle" x="740" y="-6.5" font-family="Helvetica,sans-Serif" font-size="10.00">/Motion.hpp</text>
</a>
</g>
</g>
<!-- Node2&#45;&gt;Node8 -->
<g id="edge7_Node000002_Node000008" class="edge">
<title>Node2&#45;&gt;Node8</title>
<g id="a_edge7_Node000002_Node000008"><a xlink:title=" ">
<path fill="none" stroke="#63b8ff" d="M452.36,-69.56C509.85,-61.62 601.52,-48 680,-32 682.84,-31.42 685.75,-30.8 688.68,-30.14"/>
<polygon fill="#63b8ff" stroke="#63b8ff" points="451.91,-66.09 442.48,-70.91 452.86,-73.02 451.91,-66.09"/>
</a>
</g>
</g>
</g>
</svg>
