<?xml version="1.0" encoding="UTF-8" standalone="no"?>
<!DOCTYPE svg PUBLIC "-//W3C//DTD SVG 1.1//EN"
 "http://www.w3.org/Graphics/SVG/1.1/DTD/svg11.dtd">
<!-- Generated by graphviz version 14.0.1 (0)
 -->
<!-- Title: ecs/EntityManager.hpp Pages: 1 -->
<svg width="669pt" height="152pt"
 viewBox="0.00 0.00 669.00 152.00" xmlns="http://www.w3.org/2000/svg" xmlns:xlink="http://www.w3.org/1999/xlink">
<g id="graph0" class="graph" transform="scale(1 1) rotate(0) translate(4 148)">
<title>ecs/EntityManager.hpp</title>
<!-- Node1 -->
<g id="Node000001" class="node">
<title>Node1</title>
<g id="a_Node000001"><a xlink:title=" ">
<polygon fill="#999999" stroke="#666666" points="408.38,-144 291.88,-144 291.88,-124 408.38,-124 408.38,-144"/>
<text xml:space="preserve" text-anchor="middle" x="350.12" y="-130.5" font-family="Helvetica,sans-Serif" font-size="10.00">ecs/EntityManager.hpp</text>
</a>
</g>
</g>
<!-- Node2 -->
<g id="Node000002" class="node">
<title>Node2</title>
<g id="a_Node000002"><a xlink:href="Registry_8hpp.html" target="_top" xlink:title=" ">
<polygon fill="white" stroke="#666666" points="394.88,-88 305.38,-88 305.38,-68 394.88,-68 394.88,-88"/>
<text xml:space="preserve" text-anchor="middle" x="350.12" y="-74.5" font-family="Helvetica,sans-Serif" font-size="10.00">ecs/Registry.hpp</text>
</a>
</g>
</g>
<!-- Node1&#45;&gt;Node2 -->
<g id="edge1_Node000001_Node000002" class="edge">
<title>Node1&#45;&gt;Node2</title>
<g id="a_edge1_Node000001_Node000002"><a xlink:title=" ">
<path fill="none" stroke="#63b8ff" d="M350.12,-112.13C350.12,-103.9 350.12,-94.85 350.12,-88.3"/>
<polygon fill="#63b8ff" stroke="#63b8ff" points="346.63,-112.08 350.13,-122.08 353.63,-112.08 346.63,-112.08"/>
</a>
</g>
</g>
<!-- Node3 -->
<g id="Node000003" class="node">
<title>Node3</title>
<g id="a_Node000003"><a xlink:href="Collision_8hpp.html" target="_top" xlink:title=" ">
<polygon fill="white" stroke="#666666" points="108.25,-32 0,-32 0,0 108.25,0 108.25,-32"/>
<text xml:space="preserve" text-anchor="start" x="8" y="-18.5" font-family="Helvetica,sans-Serif" font-size="10.00">systems/collision/src</text>
<text xml:space="preserve" text-anchor="middle" x="54.12" y="-6.5" font-family="Helvetica,sans-Serif" font-size="10.00">/Collision.hpp</text>
</a>
</g>
</g>
<!-- Node2&#45;&gt;Node3 -->
<g id="edge2_Node000002_Node000003" class="edge">
<title>Node2&#45;&gt;Node3</title>
<g id="a_edge2_Node000002_Node000003"><a xlink:title=" ">
<path fill="none" stroke="#63b8ff" d="M293.68,-66.8C246.4,-58.09 177.21,-44.95 117.12,-32 114.38,-31.41 111.57,-30.79 108.73,-30.15"/>
<polygon fill="#63b8ff" stroke="#63b8ff" points="292.95,-70.22 303.42,-68.59 294.21,-63.34 292.95,-70.22"/>
</a>
</g>
</g>
<!-- Node4 -->
<g id="Node000004" class="node">
<title>Node4</title>
<g id="a_Node000004"><a xlink:href="Death_8hpp.html" target="_top" xlink:title=" ">
<polygon fill="white" stroke="#666666" points="271.62,-26 126.62,-26 126.62,-6 271.62,-6 271.62,-26"/>
<text xml:space="preserve" text-anchor="middle" x="199.12" y="-12.5" font-family="Helvetica,sans-Serif" font-size="10.00">systems/death/src/Death.hpp</text>
</a>
</g>
</g>
<!-- Node2&#45;&gt;Node4 -->
<g id="edge3_Node000002_Node000004" class="edge">
<title>Node2&#45;&gt;Node4</title>
<g id="a_edge3_Node000002_Node000004"><a xlink:title=" ">
<path fill="none" stroke="#63b8ff" d="M315.84,-63.38C287.33,-52.05 247.53,-36.23 222.55,-26.31"/>
<polygon fill="#63b8ff" stroke="#63b8ff" points="314.54,-66.63 325.12,-67.07 317.12,-60.12 314.54,-66.63"/>
</a>
</g>
</g>
<!-- Node5 -->
<g id="Node000005" class="node">
<title>Node5</title>
<g id="a_Node000005"><a xlink:href="DomainHandler_8hpp.html" target="_top" xlink:title=" ">
<polygon fill="white" stroke="#666666" points="411,-32 289.25,-32 289.25,0 411,0 411,-32"/>
<text xml:space="preserve" text-anchor="start" x="297.25" y="-18.5" font-family="Helvetica,sans-Serif" font-size="10.00">systems/domainHandler</text>
<text xml:space="preserve" text-anchor="middle" x="350.12" y="-6.5" font-family="Helvetica,sans-Serif" font-size="10.00">/src/DomainHandler.hpp</text>
</a>
</g>
</g>
<!-- Node2&#45;&gt;Node5 -->
<g id="edge4_Node000002_Node000005" class="edge">
<title>Node2&#45;&gt;Node5</title>
<g id="a_edge4_Node000002_Node000005"><a xlink:title=" ">
<path fill="none" stroke="#63b8ff" d="M350.12,-56.31C350.12,-48.37 350.12,-39.46 350.12,-32.14"/>
<polygon fill="#63b8ff" stroke="#63b8ff" points="346.63,-56.11 350.13,-66.11 353.63,-56.11 346.63,-56.11"/>
</a>
</g>
</g>
<!-- Node6 -->
<g id="Node000006" class="node">
<title>Node6</title>
<g id="a_Node000006"><a xlink:href="InputHandler_8hpp.html" target="_top" xlink:title=" ">
<polygon fill="white" stroke="#666666" points="540.75,-32 429.5,-32 429.5,0 540.75,0 540.75,-32"/>
<text xml:space="preserve" text-anchor="start" x="437.5" y="-18.5" font-family="Helvetica,sans-Serif" font-size="10.00">systems/inputHandler</text>
<text xml:space="preserve" text-anchor="middle" x="485.12" y="-6.5" font-family="Helvetica,sans-Serif" font-size="10.00">/src/InputHandler.hpp</text>
</a>
</g>
</g>
<!-- Node2&#45;&gt;Node6 -->
<g id="edge5_Node000002_Node000006" class="edge">
<title>Node2&#45;&gt;Node6</title>
<g id="a_edge5_Node000002_Node000006"><a xlink:title=" ">
<path fill="none" stroke="#63b8ff" d="M381.63,-63C402.19,-53.86 429.06,-41.92 450.27,-32.49"/>
<polygon fill="#63b8ff" stroke="#63b8ff" points="380.32,-59.75 372.6,-67.01 383.16,-66.15 380.32,-59.75"/>
</a>
</g>
</g>
<!-- Node7 -->
<g id="Node000007" class="node">
<title>Node7</title>
<g id="a_Node000007"><a xlink:href="Motion_8hpp.html" target="_top" xlink:title=" ">
<polygon fill="white" stroke="#666666" points="661.25,-32 559,-32 559,0 661.25,0 661.25,-32"/>
<text xml:space="preserve" text-anchor="start" x="567" y="-18.5" font-family="Helvetica,sans-Serif" font-size="10.00">systems/motion/src</text>
<text xml:space="preserve" text-anchor="middle" x="610.12" y="-6.5" font-family="Helvetica,sans-Serif" font-size="10.00">/Motion.hpp</text>
</a>
</g>
</g>
<!-- Node2&#45;&gt;Node7 -->
<g id="edge6_Node000002_Node000007" class="edge">
<title>Node2&#45;&gt;Node7</title>
<g id="a_edge6_Node000002_Node000007"><a xlink:title=" ">
<path fill="none" stroke="#63b8ff" d="M404.67,-65.09C444.93,-56.22 501.01,-43.66 550.12,-32 552.95,-31.33 555.84,-30.63 558.76,-29.93"/>
<polygon fill="#63b8ff" stroke="#63b8ff" points="403.99,-61.66 394.98,-67.23 405.5,-68.49 403.99,-61.66"/>
</a>
</g>
</g>
</g>
</svg>
