<?xml version="1.0" encoding="UTF-8" standalone="no"?>
<!DOCTYPE svg PUBLIC "-//W3C//DTD SVG 1.1//EN"
 "http://www.w3.org/Graphics/SVG/1.1/DTD/svg11.dtd">
<!-- Generated by graphviz version 14.0.2 (0)
 -->
<!-- Title: systems/FPApplyGravity/src/FPApplyGravity.cpp Pages: 1 -->
<svg width="990pt" height="400pt"
 viewBox="0.00 0.00 990.00 400.00" xmlns="http://www.w3.org/2000/svg" xmlns:xlink="http://www.w3.org/1999/xlink">
<g id="graph0" class="graph" transform="scale(1 1) rotate(0) translate(4 396)">
<title>systems/FPApplyGravity/src/FPApplyGravity.cpp</title>
<!-- Node1 -->
<g id="Node000001" class="node">
<title>Node1</title>
<g id="a_Node000001"><a xlink:title=" ">
<polygon fill="#999999" stroke="#666666" points="468.25,-392 343.5,-392 343.5,-360 468.25,-360 468.25,-392"/>
<text xml:space="preserve" text-anchor="start" x="351.5" y="-378.5" font-family="Helvetica,sans-Serif" font-size="10.00">systems/FPApplyGravity</text>
<text xml:space="preserve" text-anchor="middle" x="405.88" y="-366.5" font-family="Helvetica,sans-Serif" font-size="10.00">/src/FPApplyGravity.cpp</text>
</a>
</g>
</g>
<!-- Node2 -->
<g id="Node000002" class="node">
<title>Node2</title>
<g id="a_Node000002"><a xlink:href="FPApplyGravity_8hpp.html" target="_top" xlink:title=" ">
<polygon fill="white" stroke="#666666" points="457,-324 354.75,-324 354.75,-304 457,-304 457,-324"/>
<text xml:space="preserve" text-anchor="middle" x="405.88" y="-310.5" font-family="Helvetica,sans-Serif" font-size="10.00">FPApplyGravity.hpp</text>
</a>
</g>
</g>
<!-- Node1&#45;&gt;Node2 -->
<g id="edge1_Node000001_Node000002" class="edge">
<title>Node1&#45;&gt;Node2</title>
<g id="a_edge1_Node000001_Node000002"><a xlink:title=" ">
<path fill="none" stroke="#63b8ff" d="M405.88,-359.55C405.88,-352.34 405.88,-343.66 405.88,-335.88"/>
<polygon fill="#63b8ff" stroke="#63b8ff" points="409.38,-335.92 405.88,-325.92 402.38,-335.92 409.38,-335.92"/>
</a>
</g>
</g>
<!-- Node3 -->
<g id="Node000003" class="node">
<title>Node3</title>
<g id="a_Node000003"><a xlink:title=" ">
<polygon fill="#e0e0e0" stroke="#999999" points="342.75,-188 287,-188 287,-168 342.75,-168 342.75,-188"/>
<text xml:space="preserve" text-anchor="middle" x="314.88" y="-174.5" font-family="Helvetica,sans-Serif" font-size="10.00">algorithm</text>
</a>
</g>
</g>
<!-- Node2&#45;&gt;Node3 -->
<g id="edge2_Node000002_Node000003" class="edge">
<title>Node2&#45;&gt;Node3</title>
<g id="a_edge2_Node000002_Node000003"><a xlink:title=" ">
<path fill="none" stroke="#63b8ff" d="M413.24,-303.59C425.75,-286.39 448.19,-249.29 430.88,-224 421.81,-210.76 384.22,-197.74 354.25,-189.14"/>
<polygon fill="#63b8ff" stroke="#63b8ff" points="355.25,-185.78 344.67,-186.47 353.37,-192.52 355.25,-185.78"/>
</a>
</g>
</g>
<!-- Node4 -->
<g id="Node000004" class="node">
<title>Node4</title>
<g id="a_Node000004"><a xlink:href="Acceleration_8hpp.html" target="_top" xlink:title=" ">
<polygon fill="white" stroke="#666666" points="285.75,-262 122,-262 122,-230 285.75,-230 285.75,-262"/>
<text xml:space="preserve" text-anchor="start" x="130" y="-248.5" font-family="Helvetica,sans-Serif" font-size="10.00">../../../components</text>
<text xml:space="preserve" text-anchor="middle" x="203.88" y="-236.5" font-family="Helvetica,sans-Serif" font-size="10.00">/acceleration/src/Acceleration.hpp</text>
</a>
</g>
</g>
<!-- Node2&#45;&gt;Node4 -->
<g id="edge3_Node000002_Node000004" class="edge">
<title>Node2&#45;&gt;Node4</title>
<g id="a_edge3_Node000002_Node000004"><a xlink:title=" ">
<path fill="none" stroke="#63b8ff" d="M376.93,-303.54C347.05,-293.78 299.6,-278.28 261.93,-265.97"/>
<polygon fill="#63b8ff" stroke="#63b8ff" points="263.12,-262.68 252.53,-262.9 260.95,-269.33 263.12,-262.68"/>
</a>
</g>
</g>
<!-- Node11 -->
<g id="Node000011" class="node">
<title>Node11</title>
<g id="a_Node000011"><a xlink:href="Gravity_8hpp.html" target="_top" xlink:title=" ">
<polygon fill="white" stroke="#666666" points="421.5,-262 304.25,-262 304.25,-230 421.5,-230 421.5,-262"/>
<text xml:space="preserve" text-anchor="start" x="312.25" y="-248.5" font-family="Helvetica,sans-Serif" font-size="10.00">../../../components</text>
<text xml:space="preserve" text-anchor="middle" x="362.88" y="-236.5" font-family="Helvetica,sans-Serif" font-size="10.00">/gravity/src/Gravity.hpp</text>
</a>
</g>
</g>
<!-- Node2&#45;&gt;Node11 -->
<g id="edge10_Node000002_Node000011" class="edge">
<title>Node2&#45;&gt;Node11</title>
<g id="a_edge10_Node000002_Node000011"><a xlink:title=" ">
<path fill="none" stroke="#63b8ff" d="M399.71,-303.54C394.34,-295.3 386.31,-282.97 379.12,-271.93"/>
<polygon fill="#63b8ff" stroke="#63b8ff" points="382.06,-270.04 373.67,-263.57 376.2,-273.86 382.06,-270.04"/>
</a>
</g>
</g>
<!-- Node12 -->
<g id="Node000012" class="node">
<title>Node12</title>
<g id="a_Node000012"><a xlink:href="InputControlled_8hpp.html" target="_top" xlink:title=" ">
<polygon fill="white" stroke="#666666" points="103.75,-268 0,-268 0,-224 103.75,-224 103.75,-268"/>
<text xml:space="preserve" text-anchor="start" x="8" y="-254.5" font-family="Helvetica,sans-Serif" font-size="10.00">../../../components</text>
<text xml:space="preserve" text-anchor="start" x="8" y="-242.5" font-family="Helvetica,sans-Serif" font-size="10.00">/inputControlled/src</text>
<text xml:space="preserve" text-anchor="middle" x="51.88" y="-230.5" font-family="Helvetica,sans-Serif" font-size="10.00">/InputControlled.hpp</text>
</a>
</g>
</g>
<!-- Node2&#45;&gt;Node12 -->
<g id="edge12_Node000002_Node000012" class="edge">
<title>Node2&#45;&gt;Node12</title>
<g id="a_edge12_Node000002_Node000012"><a xlink:title=" ">
<path fill="none" stroke="#63b8ff" d="M354.51,-307.93C297.94,-301.73 204.2,-289.61 115.06,-268.32"/>
<polygon fill="#63b8ff" stroke="#63b8ff" points="115.95,-264.94 105.41,-265.97 114.29,-271.74 115.95,-264.94"/>
</a>
</g>
</g>
<!-- Node14 -->
<g id="Node000014" class="node">
<title>Node14</title>
<g id="a_Node000014"><a xlink:href="Registry_8hpp.html" target="_top" xlink:title=" ">
<polygon fill="white" stroke="#666666" points="632.12,-256 515.62,-256 515.62,-236 632.12,-236 632.12,-256"/>
<text xml:space="preserve" text-anchor="middle" x="573.88" y="-242.5" font-family="Helvetica,sans-Serif" font-size="10.00">../../../ecs/Registry.hpp</text>
</a>
</g>
</g>
<!-- Node2&#45;&gt;Node14 -->
<g id="edge16_Node000002_Node000014" class="edge">
<title>Node2&#45;&gt;Node14</title>
<g id="a_edge16_Node000002_Node000014"><a xlink:title=" ">
<path fill="none" stroke="#63b8ff" d="M429.95,-303.54C458.64,-292.27 506.8,-273.35 539.43,-260.53"/>
<polygon fill="#63b8ff" stroke="#63b8ff" points="540.41,-263.91 548.44,-256.99 537.85,-257.39 540.41,-263.91"/>
</a>
</g>
</g>
<!-- Node22 -->
<g id="Node000022" class="node">
<title>Node22</title>
<g id="a_Node000022"><a xlink:href="System_8hpp.html" target="_top" xlink:title=" ">
<polygon fill="white" stroke="#666666" points="467.12,-188 398.62,-188 398.62,-168 467.12,-168 467.12,-188"/>
<text xml:space="preserve" text-anchor="middle" x="432.88" y="-174.5" font-family="Helvetica,sans-Serif" font-size="10.00">System.hpp</text>
</a>
</g>
</g>
<!-- Node2&#45;&gt;Node22 -->
<g id="edge40_Node000002_Node000022" class="edge">
<title>Node2&#45;&gt;Node22</title>
<g id="a_edge40_Node000002_Node000022"><a xlink:title=" ">
<path fill="none" stroke="#63b8ff" d="M425.97,-303.52C439.42,-295.98 456.03,-284.02 463.88,-268 472.48,-250.44 469.68,-242.67 463.88,-224 460.86,-214.32 454.96,-204.88 449.11,-197.16"/>
<polygon fill="#63b8ff" stroke="#63b8ff" points="451.95,-195.11 442.91,-189.6 446.54,-199.55 451.95,-195.11"/>
</a>
</g>
</g>
<!-- Node5 -->
<g id="Node000005" class="node">
<title>Node5</title>
<g id="a_Node000005"><a xlink:href="Component_8hpp.html" target="_top" xlink:title=" ">
<polygon fill="white" stroke="#666666" points="269.25,-188 138.5,-188 138.5,-168 269.25,-168 269.25,-188"/>
<text xml:space="preserve" text-anchor="middle" x="203.88" y="-174.5" font-family="Helvetica,sans-Serif" font-size="10.00">../../../ecs/Component.hpp</text>
</a>
</g>
</g>
<!-- Node4&#45;&gt;Node5 -->
<g id="edge4_Node000004_Node000005" class="edge">
<title>Node4&#45;&gt;Node5</title>
<g id="a_edge4_Node000004_Node000005"><a xlink:title=" ">
<path fill="none" stroke="#63b8ff" d="M203.88,-229.69C203.88,-220.8 203.88,-209.46 203.88,-199.77"/>
<polygon fill="#63b8ff" stroke="#63b8ff" points="207.38,-199.83 203.88,-189.83 200.38,-199.83 207.38,-199.83"/>
</a>
</g>
</g>
<!-- Node6 -->
<g id="Node000006" class="node">
<title>Node6</title>
<g id="a_Node000006"><a xlink:title=" ">
<polygon fill="#e0e0e0" stroke="#999999" points="321.5,-132 270.25,-132 270.25,-112 321.5,-112 321.5,-132"/>
<text xml:space="preserve" text-anchor="middle" x="295.88" y="-118.5" font-family="Helvetica,sans-Serif" font-size="10.00">memory</text>
</a>
</g>
</g>
<!-- Node5&#45;&gt;Node6 -->
<g id="edge5_Node000005_Node000006" class="edge">
<title>Node5&#45;&gt;Node6</title>
<g id="a_edge5_Node000005_Node000006"><a xlink:title=" ">
<path fill="none" stroke="#63b8ff" d="M219.9,-167.59C233.67,-159.51 253.78,-147.71 269.85,-138.27"/>
<polygon fill="#63b8ff" stroke="#63b8ff" points="271.57,-141.33 278.42,-133.25 268.02,-135.29 271.57,-141.33"/>
</a>
</g>
</g>
<!-- Node7 -->
<g id="Node000007" class="node">
<title>Node7</title>
<g id="a_Node000007"><a xlink:title=" ">
<polygon fill="#e0e0e0" stroke="#999999" points="296.88,-76 256.88,-76 256.88,-56 296.88,-56 296.88,-76"/>
<text xml:space="preserve" text-anchor="middle" x="276.88" y="-62.5" font-family="Helvetica,sans-Serif" font-size="10.00">string</text>
</a>
</g>
</g>
<!-- Node5&#45;&gt;Node7 -->
<g id="edge6_Node000005_Node000007" class="edge">
<title>Node5&#45;&gt;Node7</title>
<g id="a_edge6_Node000005_Node000007"><a xlink:title=" ">
<path fill="none" stroke="#63b8ff" d="M205.88,-167.53C209,-154.26 215.95,-129.78 227.88,-112 235.11,-101.21 245.45,-91.21 254.77,-83.39"/>
<polygon fill="#63b8ff" stroke="#63b8ff" points="256.78,-86.27 262.41,-77.3 252.41,-80.8 256.78,-86.27"/>
</a>
</g>
</g>
<!-- Node8 -->
<g id="Node000008" class="node">
<title>Node8</title>
<g id="a_Node000008"><a xlink:href="Types_8hpp.html" target="_top" xlink:title="Core type definitions used throughout the ECS (Entity Component System).">
<polygon fill="white" stroke="#666666" points="455.38,-76 394.38,-76 394.38,-56 455.38,-56 455.38,-76"/>
<text xml:space="preserve" text-anchor="middle" x="424.88" y="-62.5" font-family="Helvetica,sans-Serif" font-size="10.00">Types.hpp</text>
</a>
</g>
</g>
<!-- Node5&#45;&gt;Node8 -->
<g id="edge7_Node000005_Node000008" class="edge">
<title>Node5&#45;&gt;Node8</title>
<g id="a_edge7_Node000005_Node000008"><a xlink:title=" ">
<path fill="none" stroke="#63b8ff" d="M209.31,-167.94C218.26,-153.82 237.47,-126.65 260.88,-112 298.31,-88.56 347.99,-77.15 382.83,-71.71"/>
<polygon fill="#63b8ff" stroke="#63b8ff" points="383.14,-75.21 392.54,-70.31 382.14,-68.28 383.14,-75.21"/>
</a>
</g>
</g>
<!-- Node9 -->
<g id="Node000009" class="node">
<title>Node9</title>
<g id="a_Node000009"><a xlink:title=" ">
<polygon fill="#e0e0e0" stroke="#999999" points="444.88,-20 404.88,-20 404.88,0 444.88,0 444.88,-20"/>
<text xml:space="preserve" text-anchor="middle" x="424.88" y="-6.5" font-family="Helvetica,sans-Serif" font-size="10.00">bitset</text>
</a>
</g>
</g>
<!-- Node8&#45;&gt;Node9 -->
<g id="edge8_Node000008_Node000009" class="edge">
<title>Node8&#45;&gt;Node9</title>
<g id="a_edge8_Node000008_Node000009"><a xlink:title=" ">
<path fill="none" stroke="#63b8ff" d="M424.88,-55.59C424.88,-49.01 424.88,-39.96 424.88,-31.73"/>
<polygon fill="#63b8ff" stroke="#63b8ff" points="428.38,-31.81 424.88,-21.81 421.38,-31.81 428.38,-31.81"/>
</a>
</g>
</g>
<!-- Node10 -->
<g id="Node000010" class="node">
<title>Node10</title>
<g id="a_Node000010"><a xlink:title=" ">
<polygon fill="#e0e0e0" stroke="#999999" points="877.5,-20 832.25,-20 832.25,0 877.5,0 877.5,-20"/>
<text xml:space="preserve" text-anchor="middle" x="854.88" y="-6.5" font-family="Helvetica,sans-Serif" font-size="10.00">cstdint</text>
</a>
</g>
</g>
<!-- Node8&#45;&gt;Node10 -->
<g id="edge9_Node000008_Node000010" class="edge">
<title>Node8&#45;&gt;Node10</title>
<g id="a_edge9_Node000008_Node000010"><a xlink:title=" ">
<path fill="none" stroke="#63b8ff" d="M455.82,-57.7C458.87,-57.08 461.93,-56.5 464.88,-56 595.46,-33.84 752.52,-19.39 820.62,-13.72"/>
<polygon fill="#63b8ff" stroke="#63b8ff" points="820.71,-17.22 830.39,-12.92 820.13,-10.25 820.71,-17.22"/>
</a>
</g>
</g>
<!-- Node11&#45;&gt;Node5 -->
<g id="edge11_Node000011_Node000005" class="edge">
<title>Node11&#45;&gt;Node5</title>
<g id="a_edge11_Node000011_Node000005"><a xlink:title=" ">
<path fill="none" stroke="#63b8ff" d="M325.6,-229.53C298.77,-218.39 262.91,-203.51 237.07,-192.78"/>
<polygon fill="#63b8ff" stroke="#63b8ff" points="238.64,-189.64 228.06,-189.04 235.96,-196.11 238.64,-189.64"/>
</a>
</g>
</g>
<!-- Node12&#45;&gt;Node5 -->
<g id="edge15_Node000012_Node000005" class="edge">
<title>Node12&#45;&gt;Node5</title>
<g id="a_edge15_Node000012_Node000005"><a xlink:title=" ">
<path fill="none" stroke="#63b8ff" d="M101.23,-223.57C124.44,-213.49 151.46,-201.76 171.95,-192.86"/>
<polygon fill="#63b8ff" stroke="#63b8ff" points="173.14,-196.16 180.92,-188.97 170.35,-189.74 173.14,-196.16"/>
</a>
</g>
</g>
<!-- Node12&#45;&gt;Node7 -->
<g id="edge13_Node000012_Node000007" class="edge">
<title>Node12&#45;&gt;Node7</title>
<g id="a_edge13_Node000012_Node000007"><a xlink:title=" ">
<path fill="none" stroke="#63b8ff" d="M71.47,-223.7C86.71,-207.63 108.75,-185.45 129.88,-168 170.23,-134.66 221.4,-101.3 251.5,-82.5"/>
<polygon fill="#63b8ff" stroke="#63b8ff" points="253.27,-85.52 259.92,-77.27 249.58,-79.57 253.27,-85.52"/>
</a>
</g>
</g>
<!-- Node13 -->
<g id="Node000013" class="node">
<title>Node13</title>
<g id="a_Node000013"><a xlink:title=" ">
<polygon fill="#e0e0e0" stroke="#999999" points="697.38,-76 654.38,-76 654.38,-56 697.38,-56 697.38,-76"/>
<text xml:space="preserve" text-anchor="middle" x="675.88" y="-62.5" font-family="Helvetica,sans-Serif" font-size="10.00">vector</text>
</a>
</g>
</g>
<!-- Node12&#45;&gt;Node13 -->
<g id="edge14_Node000012_Node000013" class="edge">
<title>Node12&#45;&gt;Node13</title>
<g id="a_edge14_Node000012_Node000013"><a xlink:title=" ">
<path fill="none" stroke="#63b8ff" d="M104.23,-226.11C107.13,-225.33 110.03,-224.62 112.88,-224 271.26,-189.38 318.43,-226.68 475.88,-188 540.55,-172.11 559.91,-169.61 614.88,-132 633.76,-119.08 651.18,-99.4 662.53,-85.08"/>
<polygon fill="#63b8ff" stroke="#63b8ff" points="665.13,-87.43 668.44,-77.37 659.58,-83.18 665.13,-87.43"/>
</a>
</g>
</g>
<!-- Node14&#45;&gt;Node3 -->
<g id="edge17_Node000014_Node000003" class="edge">
<title>Node14&#45;&gt;Node3</title>
<g id="a_edge17_Node000014_Node000003"><a xlink:title=" ">
<path fill="none" stroke="#63b8ff" d="M536.77,-235.54C488.23,-223.18 403.58,-201.6 354.05,-188.98"/>
<polygon fill="#63b8ff" stroke="#63b8ff" points="355.16,-185.66 344.61,-186.58 353.44,-192.44 355.16,-185.66"/>
</a>
</g>
</g>
<!-- Node14&#45;&gt;Node6 -->
<g id="edge19_Node000014_Node000006" class="edge">
<title>Node14&#45;&gt;Node6</title>
<g id="a_edge19_Node000014_Node000006"><a xlink:title=" ">
<path fill="none" stroke="#63b8ff" d="M530.46,-235.52C492.25,-226.26 435.74,-210.31 389.88,-188 362.5,-174.69 334.17,-153.98 315.87,-139.53"/>
<polygon fill="#63b8ff" stroke="#63b8ff" points="318.2,-136.91 308.22,-133.37 313.81,-142.37 318.2,-136.91"/>
</a>
</g>
</g>
<!-- Node14&#45;&gt;Node8 -->
<g id="edge39_Node000014_Node000008" class="edge">
<title>Node14&#45;&gt;Node8</title>
<g id="a_edge39_Node000014_Node000008"><a xlink:title=" ">
<path fill="none" stroke="#63b8ff" d="M561.81,-235.71C533.19,-213.47 462.36,-157.17 445.88,-132 436.92,-118.33 431.52,-100.54 428.44,-87.03"/>
<polygon fill="#63b8ff" stroke="#63b8ff" points="431.94,-86.66 426.53,-77.55 425.08,-88.04 431.94,-86.66"/>
</a>
</g>
</g>
<!-- Node14&#45;&gt;Node13 -->
<g id="edge20_Node000014_Node000013" class="edge">
<title>Node14&#45;&gt;Node13</title>
<g id="a_edge20_Node000014_Node000013"><a xlink:title=" ">
<path fill="none" stroke="#63b8ff" d="M599.65,-235.53C620.11,-226.57 647.57,-211.04 661.88,-188 681.05,-157.11 680.79,-113.13 678.54,-87.57"/>
<polygon fill="#63b8ff" stroke="#63b8ff" points="682.05,-87.42 677.48,-77.86 675.09,-88.18 682.05,-87.42"/>
</a>
</g>
</g>
<!-- Node15 -->
<g id="Node000015" class="node">
<title>Node15</title>
<g id="a_Node000015"><a xlink:title=" ">
<polygon fill="#e0e0e0" stroke="#999999" points="652.62,-188 599.12,-188 599.12,-168 652.62,-168 652.62,-188"/>
<text xml:space="preserve" text-anchor="middle" x="625.88" y="-174.5" font-family="Helvetica,sans-Serif" font-size="10.00">iostream</text>
</a>
</g>
</g>
<!-- Node14&#45;&gt;Node15 -->
<g id="edge18_Node000014_Node000015" class="edge">
<title>Node14&#45;&gt;Node15</title>
<g id="a_edge18_Node000014_Node000015"><a xlink:title=" ">
<path fill="none" stroke="#63b8ff" d="M581.33,-235.54C589.13,-225.64 601.57,-209.84 611.33,-197.46"/>
<polygon fill="#63b8ff" stroke="#63b8ff" points="614.06,-199.65 617.5,-189.63 608.56,-195.32 614.06,-199.65"/>
</a>
</g>
</g>
<!-- Node16 -->
<g id="Node000016" class="node">
<title>Node16</title>
<g id="a_Node000016"><a xlink:href="Clock_8hpp.html" target="_top" xlink:title=" ">
<polygon fill="white" stroke="#666666" points="982,-132 921.75,-132 921.75,-112 982,-112 982,-132"/>
<text xml:space="preserve" text-anchor="middle" x="951.88" y="-118.5" font-family="Helvetica,sans-Serif" font-size="10.00">Clock.hpp</text>
</a>
</g>
</g>
<!-- Node14&#45;&gt;Node16 -->
<g id="edge21_Node000014_Node000016" class="edge">
<title>Node14&#45;&gt;Node16</title>
<g id="a_edge21_Node000014_Node000016"><a xlink:title=" ">
<path fill="none" stroke="#63b8ff" d="M604.16,-235.52C639.96,-224.28 701.31,-204.95 753.88,-188 809,-170.23 872.6,-149.27 912.53,-136.05"/>
<polygon fill="#63b8ff" stroke="#63b8ff" points="913.55,-139.4 921.94,-132.93 911.35,-132.76 913.55,-139.4"/>
</a>
</g>
</g>
<!-- Node17 -->
<g id="Node000017" class="node">
<title>Node17</title>
<g id="a_Node000017"><a xlink:href="ComponentRegistry_8hpp.html" target="_top" xlink:title=" ">
<polygon fill="white" stroke="#666666" points="575.38,-132 454.38,-132 454.38,-112 575.38,-112 575.38,-132"/>
<text xml:space="preserve" text-anchor="middle" x="514.88" y="-118.5" font-family="Helvetica,sans-Serif" font-size="10.00">ComponentRegistry.hpp</text>
</a>
</g>
</g>
<!-- Node14&#45;&gt;Node17 -->
<g id="edge23_Node000014_Node000017" class="edge">
<title>Node14&#45;&gt;Node17</title>
<g id="a_edge23_Node000014_Node000017"><a xlink:title=" ">
<path fill="none" stroke="#63b8ff" d="M571.51,-235.65C567.56,-220.8 558.86,-191.15 546.88,-168 542.1,-158.78 535.64,-149.31 529.78,-141.45"/>
<polygon fill="#63b8ff" stroke="#63b8ff" points="532.65,-139.45 523.76,-133.69 527.12,-143.74 532.65,-139.45"/>
</a>
</g>
</g>
<!-- Node20 -->
<g id="Node000020" class="node">
<title>Node20</title>
<g id="a_Node000020"><a xlink:href="EntityManager_8hpp.html" target="_top" xlink:title=" ">
<polygon fill="white" stroke="#666666" points="903.75,-132 806,-132 806,-112 903.75,-112 903.75,-132"/>
<text xml:space="preserve" text-anchor="middle" x="854.88" y="-118.5" font-family="Helvetica,sans-Serif" font-size="10.00">EntityManager.hpp</text>
</a>
</g>
</g>
<!-- Node14&#45;&gt;Node20 -->
<g id="edge29_Node000014_Node000020" class="edge">
<title>Node14&#45;&gt;Node20</title>
<g id="a_edge29_Node000014_Node000020"><a xlink:title=" ">
<path fill="none" stroke="#63b8ff" d="M599.51,-235.56C628.66,-224.67 677.57,-205.96 718.88,-188 756.37,-171.69 798.76,-151.08 826.1,-137.49"/>
<polygon fill="#63b8ff" stroke="#63b8ff" points="827.41,-140.75 834.8,-133.15 824.29,-134.48 827.41,-140.75"/>
</a>
</g>
</g>
<!-- Node21 -->
<g id="Node000021" class="node">
<title>Node21</title>
<g id="a_Node000021"><a xlink:href="SparseSet_8hpp.html" target="_top" xlink:title=" ">
<polygon fill="white" stroke="#666666" points="788.12,-132 707.62,-132 707.62,-112 788.12,-112 788.12,-132"/>
<text xml:space="preserve" text-anchor="middle" x="747.88" y="-118.5" font-family="Helvetica,sans-Serif" font-size="10.00">SparseSet.hpp</text>
</a>
</g>
</g>
<!-- Node14&#45;&gt;Node21 -->
<g id="edge32_Node000014_Node000021" class="edge">
<title>Node14&#45;&gt;Node21</title>
<g id="a_edge32_Node000014_Node000021"><a xlink:title=" ">
<path fill="none" stroke="#63b8ff" d="M602.78,-235.55C628.64,-226.18 666.7,-210.02 694.88,-188 711.68,-174.87 726.6,-155.49 736.29,-141.31"/>
<polygon fill="#63b8ff" stroke="#63b8ff" points="738.97,-143.6 741.55,-133.33 733.13,-139.75 738.97,-143.6"/>
</a>
</g>
</g>
<!-- Node14&#45;&gt;Node22 -->
<g id="edge34_Node000014_Node000022" class="edge">
<title>Node14&#45;&gt;Node22</title>
<g id="a_edge34_Node000014_Node000022"><a xlink:title=" ">
<path fill="none" stroke="#63b8ff" d="M553.67,-235.54C530.01,-224.47 490.57,-206.01 463.23,-193.21"/>
<polygon fill="#63b8ff" stroke="#63b8ff" points="464.95,-190.15 454.41,-189.08 461.98,-196.49 464.95,-190.15"/>
</a>
</g>
</g>
<!-- Node16&#45;&gt;Node10 -->
<g id="edge22_Node000016_Node000010" class="edge">
<title>Node16&#45;&gt;Node10</title>
<g id="a_edge22_Node000016_Node000010"><a xlink:title=" ">
<path fill="none" stroke="#63b8ff" d="M943.6,-111.62C927.43,-93.27 891.36,-52.37 870.53,-28.75"/>
<polygon fill="#63b8ff" stroke="#63b8ff" points="873.36,-26.68 864.13,-21.49 868.11,-31.31 873.36,-26.68"/>
</a>
</g>
</g>
<!-- Node17&#45;&gt;Node7 -->
<g id="edge24_Node000017_Node000007" class="edge">
<title>Node17&#45;&gt;Node7</title>
<g id="a_edge24_Node000017_Node000007"><a xlink:title=" ">
<path fill="none" stroke="#63b8ff" d="M473.15,-111.53C426.11,-100.86 350.69,-83.75 308.35,-74.14"/>
<polygon fill="#63b8ff" stroke="#63b8ff" points="309.34,-70.78 298.81,-71.98 307.79,-77.6 309.34,-70.78"/>
</a>
</g>
</g>
<!-- Node17&#45;&gt;Node8 -->
<g id="edge28_Node000017_Node000008" class="edge">
<title>Node17&#45;&gt;Node8</title>
<g id="a_edge28_Node000017_Node000008"><a xlink:title=" ">
<path fill="none" stroke="#63b8ff" d="M499.2,-111.59C485.73,-103.51 466.06,-91.71 450.33,-82.27"/>
<polygon fill="#63b8ff" stroke="#63b8ff" points="452.35,-79.4 441.97,-77.26 448.75,-85.4 452.35,-79.4"/>
</a>
</g>
</g>
<!-- Node17&#45;&gt;Node13 -->
<g id="edge27_Node000017_Node000013" class="edge">
<title>Node17&#45;&gt;Node13</title>
<g id="a_edge27_Node000017_Node000013"><a xlink:title=" ">
<path fill="none" stroke="#63b8ff" d="M542.92,-111.59C571.04,-102.16 614.29,-87.66 643.76,-77.77"/>
<polygon fill="#63b8ff" stroke="#63b8ff" points="644.53,-81.21 652.89,-74.71 642.3,-74.57 644.53,-81.21"/>
</a>
</g>
</g>
<!-- Node18 -->
<g id="Node000018" class="node">
<title>Node18</title>
<g id="a_Node000018"><a xlink:title=" ">
<polygon fill="#e0e0e0" stroke="#999999" points="631.88,-76 573.88,-76 573.88,-56 631.88,-56 631.88,-76"/>
<text xml:space="preserve" text-anchor="middle" x="602.88" y="-62.5" font-family="Helvetica,sans-Serif" font-size="10.00">typeindex</text>
</a>
</g>
</g>
<!-- Node17&#45;&gt;Node18 -->
<g id="edge25_Node000017_Node000018" class="edge">
<title>Node17&#45;&gt;Node18</title>
<g id="a_edge25_Node000017_Node000018"><a xlink:title=" ">
<path fill="none" stroke="#63b8ff" d="M530.2,-111.59C543.37,-103.51 562.61,-91.71 577.98,-82.27"/>
<polygon fill="#63b8ff" stroke="#63b8ff" points="579.44,-85.48 586.14,-77.27 575.78,-79.52 579.44,-85.48"/>
</a>
</g>
</g>
<!-- Node19 -->
<g id="Node000019" class="node">
<title>Node19</title>
<g id="a_Node000019"><a xlink:title=" ">
<polygon fill="#e0e0e0" stroke="#999999" points="556.25,-76 473.5,-76 473.5,-56 556.25,-56 556.25,-76"/>
<text xml:space="preserve" text-anchor="middle" x="514.88" y="-62.5" font-family="Helvetica,sans-Serif" font-size="10.00">unordered_map</text>
</a>
</g>
</g>
<!-- Node17&#45;&gt;Node19 -->
<g id="edge26_Node000017_Node000019" class="edge">
<title>Node17&#45;&gt;Node19</title>
<g id="a_edge26_Node000017_Node000019"><a xlink:title=" ">
<path fill="none" stroke="#63b8ff" d="M514.88,-111.59C514.88,-105.01 514.88,-95.96 514.88,-87.73"/>
<polygon fill="#63b8ff" stroke="#63b8ff" points="518.38,-87.81 514.88,-77.81 511.38,-87.81 518.38,-87.81"/>
</a>
</g>
</g>
<!-- Node20&#45;&gt;Node10 -->
<g id="edge30_Node000020_Node000010" class="edge">
<title>Node20&#45;&gt;Node10</title>
<g id="a_edge30_Node000020_Node000010"><a xlink:title=" ">
<path fill="none" stroke="#63b8ff" d="M854.88,-111.62C854.88,-94.01 854.88,-55.59 854.88,-31.65"/>
<polygon fill="#63b8ff" stroke="#63b8ff" points="858.38,-31.87 854.88,-21.87 851.38,-31.87 858.38,-31.87"/>
</a>
</g>
</g>
<!-- Node20&#45;&gt;Node13 -->
<g id="edge31_Node000020_Node000013" class="edge">
<title>Node20&#45;&gt;Node13</title>
<g id="a_edge31_Node000020_Node000013"><a xlink:title=" ">
<path fill="none" stroke="#63b8ff" d="M823.7,-111.59C791.44,-101.86 741.28,-86.73 708.5,-76.84"/>
<polygon fill="#63b8ff" stroke="#63b8ff" points="709.72,-73.56 699.14,-74.02 707.7,-80.26 709.72,-73.56"/>
</a>
</g>
</g>
<!-- Node21&#45;&gt;Node13 -->
<g id="edge33_Node000021_Node000013" class="edge">
<title>Node21&#45;&gt;Node13</title>
<g id="a_edge33_Node000021_Node000013"><a xlink:title=" ">
<path fill="none" stroke="#63b8ff" d="M735.33,-111.59C724.91,-103.77 709.83,-92.46 697.46,-83.19"/>
<polygon fill="#63b8ff" stroke="#63b8ff" points="699.58,-80.41 689.48,-77.21 695.38,-86.01 699.58,-80.41"/>
</a>
</g>
</g>
<!-- Node22&#45;&gt;Node7 -->
<g id="edge35_Node000022_Node000007" class="edge">
<title>Node22&#45;&gt;Node7</title>
<g id="a_edge35_Node000022_Node000007"><a xlink:title=" ">
<path fill="none" stroke="#63b8ff" d="M419.57,-167.62C392.86,-148.79 332.44,-106.18 299.44,-82.91"/>
<polygon fill="#63b8ff" stroke="#63b8ff" points="301.57,-80.13 291.38,-77.23 297.53,-85.85 301.57,-80.13"/>
</a>
</g>
</g>
<!-- Node22&#45;&gt;Node8 -->
<g id="edge38_Node000022_Node000008" class="edge">
<title>Node22&#45;&gt;Node8</title>
<g id="a_edge38_Node000022_Node000008"><a xlink:title=" ">
<path fill="none" stroke="#63b8ff" d="M427.1,-167.78C421.95,-158.97 414.79,-145.13 411.88,-132 408.52,-116.86 412.3,-99.65 416.63,-86.74"/>
<polygon fill="#63b8ff" stroke="#63b8ff" points="419.79,-88.29 420.04,-77.7 413.24,-85.82 419.79,-88.29"/>
</a>
</g>
</g>
<!-- Node22&#45;&gt;Node13 -->
<g id="edge36_Node000022_Node000013" class="edge">
<title>Node22&#45;&gt;Node13</title>
<g id="a_edge36_Node000022_Node000013"><a xlink:title=" ">
<path fill="none" stroke="#63b8ff" d="M467.59,-170.18C499.21,-163.18 546.66,-150.65 584.88,-132 611.52,-119 638.76,-98.37 656.4,-83.85"/>
<polygon fill="#63b8ff" stroke="#63b8ff" points="658.59,-86.59 663.99,-77.47 654.09,-81.23 658.59,-86.59"/>
</a>
</g>
</g>
<!-- Node22&#45;&gt;Node17 -->
<g id="edge37_Node000022_Node000017" class="edge">
<title>Node22&#45;&gt;Node17</title>
<g id="a_edge37_Node000022_Node000017"><a xlink:title=" ">
<path fill="none" stroke="#63b8ff" d="M447.16,-167.59C459.31,-159.59 477.01,-147.93 491.27,-138.54"/>
<polygon fill="#63b8ff" stroke="#63b8ff" points="492.79,-141.73 499.22,-133.31 488.94,-135.89 492.79,-141.73"/>
</a>
</g>
</g>
</g>
</svg>
