<?xml version="1.0" encoding="UTF-8" standalone="no"?>
<!DOCTYPE svg PUBLIC "-//W3C//DTD SVG 1.1//EN"
 "http://www.w3.org/Graphics/SVG/1.1/DTD/svg11.dtd">
<!-- Generated by graphviz version 14.0.2 (0)
 -->
<!-- Title: systems/FPInputHandler/src/FPInputHandler.cpp Pages: 1 -->
<svg width="1507pt" height="400pt"
 viewBox="0.00 0.00 1507.00 400.00" xmlns="http://www.w3.org/2000/svg" xmlns:xlink="http://www.w3.org/1999/xlink">
<g id="graph0" class="graph" transform="scale(1 1) rotate(0) translate(4 396)">
<title>systems/FPInputHandler/src/FPInputHandler.cpp</title>
<!-- Node1 -->
<g id="Node000001" class="node">
<title>Node1</title>
<g id="a_Node000001"><a xlink:title=" ">
<polygon fill="#999999" stroke="#666666" points="864.3,-392 739.55,-392 739.55,-360 864.3,-360 864.3,-392"/>
<text xml:space="preserve" text-anchor="start" x="747.55" y="-378.5" font-family="Helvetica,sans-Serif" font-size="10.00">systems/FPInputHandler</text>
<text xml:space="preserve" text-anchor="middle" x="801.92" y="-366.5" font-family="Helvetica,sans-Serif" font-size="10.00">/src/FPInputHandler.cpp</text>
</a>
</g>
</g>
<!-- Node2 -->
<g id="Node000002" class="node">
<title>Node2</title>
<g id="a_Node000002"><a xlink:href="FPInputHandler_8hpp.html" target="_top" xlink:title=" ">
<polygon fill="white" stroke="#666666" points="853.42,-324 750.42,-324 750.42,-304 853.42,-304 853.42,-324"/>
<text xml:space="preserve" text-anchor="middle" x="801.92" y="-310.5" font-family="Helvetica,sans-Serif" font-size="10.00">FPInputHandler.hpp</text>
</a>
</g>
</g>
<!-- Node1&#45;&gt;Node2 -->
<g id="edge1_Node000001_Node000002" class="edge">
<title>Node1&#45;&gt;Node2</title>
<g id="a_edge1_Node000001_Node000002"><a xlink:title=" ">
<path fill="none" stroke="#63b8ff" d="M801.92,-359.55C801.92,-352.34 801.92,-343.66 801.92,-335.88"/>
<polygon fill="#63b8ff" stroke="#63b8ff" points="805.42,-335.92 801.92,-325.92 798.42,-335.92 805.42,-335.92"/>
</a>
</g>
</g>
<!-- Node3 -->
<g id="Node000003" class="node">
<title>Node3</title>
<g id="a_Node000003"><a xlink:title=" ">
<polygon fill="#e0e0e0" stroke="#999999" points="85.92,-20 45.92,-20 45.92,0 85.92,0 85.92,-20"/>
<text xml:space="preserve" text-anchor="middle" x="65.92" y="-6.5" font-family="Helvetica,sans-Serif" font-size="10.00">bitset</text>
</a>
</g>
</g>
<!-- Node2&#45;&gt;Node3 -->
<g id="edge2_Node000002_Node000003" class="edge">
<title>Node2&#45;&gt;Node3</title>
<g id="a_edge2_Node000002_Node000003"><a xlink:title=" ">
<path fill="none" stroke="#63b8ff" d="M749.99,-313.58C584.46,-314.95 76.97,-315.22 21.92,-268 -8.77,-241.66 2.92,-219.45 2.92,-179 2.92,-179 2.92,-179 2.92,-121 2.92,-84.36 29.57,-48.85 48.21,-28.5"/>
<polygon fill="#63b8ff" stroke="#63b8ff" points="50.65,-31 55.03,-21.36 45.59,-26.17 50.65,-31"/>
</a>
</g>
</g>
<!-- Node4 -->
<g id="Node000004" class="node">
<title>Node4</title>
<g id="a_Node000004"><a xlink:title=" ">
<polygon fill="#e0e0e0" stroke="#999999" points="1101.55,-20 1056.3,-20 1056.3,0 1101.55,0 1101.55,-20"/>
<text xml:space="preserve" text-anchor="middle" x="1078.92" y="-6.5" font-family="Helvetica,sans-Serif" font-size="10.00">cstdint</text>
</a>
</g>
</g>
<!-- Node2&#45;&gt;Node4 -->
<g id="edge3_Node000002_Node000004" class="edge">
<title>Node2&#45;&gt;Node4</title>
<g id="a_edge3_Node000002_Node000004"><a xlink:title=" ">
<path fill="none" stroke="#63b8ff" d="M853.57,-312.91C978.03,-312.08 1291.37,-306.15 1387.92,-268 1446.73,-244.77 1498.92,-242.23 1498.92,-179 1498.92,-179 1498.92,-179 1498.92,-121 1498.92,-41.42 1213.15,-18.28 1113.06,-12.62"/>
<polygon fill="#63b8ff" stroke="#63b8ff" points="1113.49,-9.14 1103.32,-12.09 1113.11,-16.13 1113.49,-9.14"/>
</a>
</g>
</g>
<!-- Node5 -->
<g id="Node000005" class="node">
<title>Node5</title>
<g id="a_Node000005"><a xlink:title=" ">
<polygon fill="#e0e0e0" stroke="#999999" points="1085.42,-76 1042.42,-76 1042.42,-56 1085.42,-56 1085.42,-76"/>
<text xml:space="preserve" text-anchor="middle" x="1063.92" y="-62.5" font-family="Helvetica,sans-Serif" font-size="10.00">vector</text>
</a>
</g>
</g>
<!-- Node2&#45;&gt;Node5 -->
<g id="edge4_Node000002_Node000005" class="edge">
<title>Node2&#45;&gt;Node5</title>
<g id="a_edge4_Node000002_Node000005"><a xlink:title=" ">
<path fill="none" stroke="#63b8ff" d="M853.52,-312.1C968.86,-309.52 1244.27,-300.09 1330.92,-268 1387.95,-246.88 1414.21,-242.13 1441.92,-188 1475.16,-123.09 1195.01,-82.8 1096.99,-70.79"/>
<polygon fill="#63b8ff" stroke="#63b8ff" points="1097.56,-67.33 1087.22,-69.61 1096.73,-74.28 1097.56,-67.33"/>
</a>
</g>
</g>
<!-- Node6 -->
<g id="Node000006" class="node">
<title>Node6</title>
<g id="a_Node000006"><a xlink:href="Collider_8hpp.html" target="_top" xlink:title=" ">
<polygon fill="white" stroke="#666666" points="152.42,-262 31.42,-262 31.42,-230 152.42,-230 152.42,-262"/>
<text xml:space="preserve" text-anchor="start" x="39.42" y="-248.5" font-family="Helvetica,sans-Serif" font-size="10.00">../../../components</text>
<text xml:space="preserve" text-anchor="middle" x="91.92" y="-236.5" font-family="Helvetica,sans-Serif" font-size="10.00">/collider/src/Collider.hpp</text>
</a>
</g>
</g>
<!-- Node2&#45;&gt;Node6 -->
<g id="edge5_Node000002_Node000006" class="edge">
<title>Node2&#45;&gt;Node6</title>
<g id="a_edge5_Node000002_Node000006"><a xlink:title=" ">
<path fill="none" stroke="#63b8ff" d="M750.01,-313.22C640.41,-312.84 377.78,-307.46 161.92,-268 157.81,-267.25 153.6,-266.34 149.38,-265.33"/>
<polygon fill="#63b8ff" stroke="#63b8ff" points="150.29,-261.95 139.73,-262.84 148.54,-268.73 150.29,-261.95"/>
</a>
</g>
</g>
<!-- Node13 -->
<g id="Node000013" class="node">
<title>Node13</title>
<g id="a_Node000013"><a xlink:href="Damage_8hpp.html" target="_top" xlink:title=" ">
<polygon fill="white" stroke="#666666" points="587.17,-262 458.67,-262 458.67,-230 587.17,-230 587.17,-262"/>
<text xml:space="preserve" text-anchor="start" x="466.67" y="-248.5" font-family="Helvetica,sans-Serif" font-size="10.00">../../../components</text>
<text xml:space="preserve" text-anchor="middle" x="522.92" y="-236.5" font-family="Helvetica,sans-Serif" font-size="10.00">/damage/src/Damage.hpp</text>
</a>
</g>
</g>
<!-- Node2&#45;&gt;Node13 -->
<g id="edge15_Node000002_Node000013" class="edge">
<title>Node2&#45;&gt;Node13</title>
<g id="a_edge15_Node000002_Node000013"><a xlink:title=" ">
<path fill="none" stroke="#63b8ff" d="M754.92,-303.52C713.25,-294.92 650.82,-281.55 596.92,-268 593.6,-267.16 590.2,-266.28 586.77,-265.38"/>
<polygon fill="#63b8ff" stroke="#63b8ff" points="587.8,-262.03 577.24,-262.81 585.98,-268.79 587.8,-262.03"/>
</a>
</g>
</g>
<!-- Node14 -->
<g id="Node000014" class="node">
<title>Node14</title>
<g id="a_Node000014"><a xlink:href="Domain_8hpp.html" target="_top" xlink:title=" ">
<polygon fill="white" stroke="#666666" points="728.17,-262 605.67,-262 605.67,-230 728.17,-230 728.17,-262"/>
<text xml:space="preserve" text-anchor="start" x="613.67" y="-248.5" font-family="Helvetica,sans-Serif" font-size="10.00">../../../components</text>
<text xml:space="preserve" text-anchor="middle" x="666.92" y="-236.5" font-family="Helvetica,sans-Serif" font-size="10.00">/domain/src/Domain.hpp</text>
</a>
</g>
</g>
<!-- Node2&#45;&gt;Node14 -->
<g id="edge17_Node000002_Node000014" class="edge">
<title>Node2&#45;&gt;Node14</title>
<g id="a_edge17_Node000002_Node000014"><a xlink:title=" ">
<path fill="none" stroke="#63b8ff" d="M782.58,-303.54C763.38,-294.16 733.33,-279.46 708.67,-267.41"/>
<polygon fill="#63b8ff" stroke="#63b8ff" points="710.36,-264.34 699.84,-263.09 707.29,-270.63 710.36,-264.34"/>
</a>
</g>
</g>
<!-- Node15 -->
<g id="Node000015" class="node">
<title>Node15</title>
<g id="a_Node000015"><a xlink:href="Health_8hpp.html" target="_top" xlink:title=" ">
<polygon fill="white" stroke="#666666" points="857.92,-262 745.92,-262 745.92,-230 857.92,-230 857.92,-262"/>
<text xml:space="preserve" text-anchor="start" x="753.92" y="-248.5" font-family="Helvetica,sans-Serif" font-size="10.00">../../../components</text>
<text xml:space="preserve" text-anchor="middle" x="801.92" y="-236.5" font-family="Helvetica,sans-Serif" font-size="10.00">/health/src/Health.hpp</text>
</a>
</g>
</g>
<!-- Node2&#45;&gt;Node15 -->
<g id="edge19_Node000002_Node000015" class="edge">
<title>Node2&#45;&gt;Node15</title>
<g id="a_edge19_Node000002_Node000015"><a xlink:title=" ">
<path fill="none" stroke="#63b8ff" d="M801.92,-303.54C801.92,-295.72 801.92,-284.22 801.92,-273.63"/>
<polygon fill="#63b8ff" stroke="#63b8ff" points="805.42,-273.81 801.92,-263.81 798.42,-273.81 805.42,-273.81"/>
</a>
</g>
</g>
<!-- Node16 -->
<g id="Node000016" class="node">
<title>Node16</title>
<g id="a_Node000016"><a xlink:href="InputControlled_8hpp.html" target="_top" xlink:title=" ">
<polygon fill="white" stroke="#666666" points="979.8,-268 876.05,-268 876.05,-224 979.8,-224 979.8,-268"/>
<text xml:space="preserve" text-anchor="start" x="884.05" y="-254.5" font-family="Helvetica,sans-Serif" font-size="10.00">../../../components</text>
<text xml:space="preserve" text-anchor="start" x="884.05" y="-242.5" font-family="Helvetica,sans-Serif" font-size="10.00">/inputControlled/src</text>
<text xml:space="preserve" text-anchor="middle" x="927.92" y="-230.5" font-family="Helvetica,sans-Serif" font-size="10.00">/InputControlled.hpp</text>
</a>
</g>
</g>
<!-- Node2&#45;&gt;Node16 -->
<g id="edge21_Node000002_Node000016" class="edge">
<title>Node2&#45;&gt;Node16</title>
<g id="a_edge21_Node000002_Node000016"><a xlink:title=" ">
<path fill="none" stroke="#63b8ff" d="M819.98,-303.54C834.88,-295.74 856.78,-284.26 876.97,-273.69"/>
<polygon fill="#63b8ff" stroke="#63b8ff" points="878.44,-276.87 885.68,-269.13 875.19,-270.67 878.44,-276.87"/>
</a>
</g>
</g>
<!-- Node17 -->
<g id="Node000017" class="node">
<title>Node17</title>
<g id="a_Node000017"><a xlink:href="Position_8hpp.html" target="_top" xlink:title=" ">
<polygon fill="white" stroke="#666666" points="297.05,-262 170.8,-262 170.8,-230 297.05,-230 297.05,-262"/>
<text xml:space="preserve" text-anchor="start" x="178.8" y="-248.5" font-family="Helvetica,sans-Serif" font-size="10.00">../../../components</text>
<text xml:space="preserve" text-anchor="middle" x="233.92" y="-236.5" font-family="Helvetica,sans-Serif" font-size="10.00">/position/src/Position.hpp</text>
</a>
</g>
</g>
<!-- Node2&#45;&gt;Node17 -->
<g id="edge25_Node000002_Node000017" class="edge">
<title>Node2&#45;&gt;Node17</title>
<g id="a_edge25_Node000002_Node000017"><a xlink:title=" ">
<path fill="none" stroke="#63b8ff" d="M750.18,-311.52C659.61,-308.21 466.8,-297.98 306.92,-268 302.6,-267.19 298.16,-266.23 293.72,-265.18"/>
<polygon fill="#63b8ff" stroke="#63b8ff" points="294.72,-261.83 284.17,-262.78 293.01,-268.62 294.72,-261.83"/>
</a>
</g>
</g>
<!-- Node18 -->
<g id="Node000018" class="node">
<title>Node18</title>
<g id="a_Node000018"><a xlink:href="Renderable_8hpp.html" target="_top" xlink:title=" ">
<polygon fill="white" stroke="#666666" points="1321.8,-262 1170.05,-262 1170.05,-230 1321.8,-230 1321.8,-262"/>
<text xml:space="preserve" text-anchor="start" x="1178.05" y="-248.5" font-family="Helvetica,sans-Serif" font-size="10.00">../../../components</text>
<text xml:space="preserve" text-anchor="middle" x="1245.92" y="-236.5" font-family="Helvetica,sans-Serif" font-size="10.00">/renderable/src/Renderable.hpp</text>
</a>
</g>
</g>
<!-- Node2&#45;&gt;Node18 -->
<g id="edge28_Node000002_Node000018" class="edge">
<title>Node2&#45;&gt;Node18</title>
<g id="a_edge28_Node000002_Node000018"><a xlink:title=" ">
<path fill="none" stroke="#63b8ff" d="M853.64,-308.44C923.67,-301.84 1052.38,-288.14 1160.92,-268 1165.85,-267.09 1170.92,-266.06 1176,-264.96"/>
<polygon fill="#63b8ff" stroke="#63b8ff" points="1176.66,-268.4 1185.66,-262.81 1175.13,-261.57 1176.66,-268.4"/>
</a>
</g>
</g>
<!-- Node22 -->
<g id="Node000022" class="node">
<title>Node22</title>
<g id="a_Node000022"><a xlink:href="Velocity_8hpp.html" target="_top" xlink:title=" ">
<polygon fill="white" stroke="#666666" points="440.3,-262 315.55,-262 315.55,-230 440.3,-230 440.3,-262"/>
<text xml:space="preserve" text-anchor="start" x="323.55" y="-248.5" font-family="Helvetica,sans-Serif" font-size="10.00">../../../components</text>
<text xml:space="preserve" text-anchor="middle" x="377.92" y="-236.5" font-family="Helvetica,sans-Serif" font-size="10.00">/velocity/src/Velocity.hpp</text>
</a>
</g>
</g>
<!-- Node2&#45;&gt;Node22 -->
<g id="edge35_Node000002_Node000022" class="edge">
<title>Node2&#45;&gt;Node22</title>
<g id="a_edge35_Node000002_Node000022"><a xlink:title=" ">
<path fill="none" stroke="#63b8ff" d="M750.21,-308.94C681.21,-302.95 555.47,-290 449.92,-268 446.11,-267.21 442.21,-266.31 438.29,-265.35"/>
<polygon fill="#63b8ff" stroke="#63b8ff" points="439.27,-261.99 428.71,-262.87 437.51,-268.76 439.27,-261.99"/>
</a>
</g>
</g>
<!-- Node23 -->
<g id="Node000023" class="node">
<title>Node23</title>
<g id="a_Node000023"><a xlink:href="Registry_8hpp.html" target="_top" xlink:title=" ">
<polygon fill="white" stroke="#666666" points="1152.17,-256 1035.67,-256 1035.67,-236 1152.17,-236 1152.17,-256"/>
<text xml:space="preserve" text-anchor="middle" x="1093.92" y="-242.5" font-family="Helvetica,sans-Serif" font-size="10.00">../../../ecs/Registry.hpp</text>
</a>
</g>
</g>
<!-- Node2&#45;&gt;Node23 -->
<g id="edge37_Node000002_Node000023" class="edge">
<title>Node2&#45;&gt;Node23</title>
<g id="a_edge37_Node000002_Node000023"><a xlink:title=" ">
<path fill="none" stroke="#63b8ff" d="M853.76,-303.64C898.51,-295.27 964.78,-282.15 1021.92,-268 1031.93,-265.52 1042.64,-262.57 1052.66,-259.67"/>
<polygon fill="#63b8ff" stroke="#63b8ff" points="1053.54,-263.06 1062.14,-256.87 1051.56,-256.34 1053.54,-263.06"/>
</a>
</g>
</g>
<!-- Node31 -->
<g id="Node000031" class="node">
<title>Node31</title>
<g id="a_Node000031"><a xlink:href="System_8hpp.html" target="_top" xlink:title=" ">
<polygon fill="white" stroke="#666666" points="733.17,-188 664.67,-188 664.67,-168 733.17,-168 733.17,-188"/>
<text xml:space="preserve" text-anchor="middle" x="698.92" y="-174.5" font-family="Helvetica,sans-Serif" font-size="10.00">System.hpp</text>
</a>
</g>
</g>
<!-- Node2&#45;&gt;Node31 -->
<g id="edge61_Node000002_Node000031" class="edge">
<title>Node2&#45;&gt;Node31</title>
<g id="a_edge61_Node000002_Node000031"><a xlink:title=" ">
<path fill="none" stroke="#63b8ff" d="M853.66,-307.67C903.05,-301.39 972.34,-289.05 988.92,-268 1001.03,-252.64 1001.69,-238.81 988.92,-224 953.42,-182.82 800.54,-197.01 746.92,-188 746.11,-187.86 745.29,-187.72 744.46,-187.58"/>
<polygon fill="#63b8ff" stroke="#63b8ff" points="745.45,-184.2 735,-185.91 744.23,-191.1 745.45,-184.2"/>
</a>
</g>
</g>
<!-- Node6&#45;&gt;Node3 -->
<g id="edge6_Node000006_Node000003" class="edge">
<title>Node6&#45;&gt;Node3</title>
<g id="a_edge6_Node000006_Node000003"><a xlink:title=" ">
<path fill="none" stroke="#63b8ff" d="M89.96,-229.52C88.52,-218.06 86.54,-202.06 84.92,-188 78.41,-131.35 71.41,-64.42 68.02,-31.45"/>
<polygon fill="#63b8ff" stroke="#63b8ff" points="71.52,-31.31 67.02,-21.72 64.56,-32.03 71.52,-31.31"/>
</a>
</g>
</g>
<!-- Node7 -->
<g id="Node000007" class="node">
<title>Node7</title>
<g id="a_Node000007"><a xlink:title=" ">
<polygon fill="#e0e0e0" stroke="#999999" points="139.55,-188 94.3,-188 94.3,-168 139.55,-168 139.55,-188"/>
<text xml:space="preserve" text-anchor="middle" x="116.92" y="-174.5" font-family="Helvetica,sans-Serif" font-size="10.00">variant</text>
</a>
</g>
</g>
<!-- Node6&#45;&gt;Node7 -->
<g id="edge7_Node000006_Node000007" class="edge">
<title>Node6&#45;&gt;Node7</title>
<g id="a_edge7_Node000006_Node000007"><a xlink:title=" ">
<path fill="none" stroke="#63b8ff" d="M97.72,-229.69C101.21,-220.5 105.68,-208.7 109.43,-198.8"/>
<polygon fill="#63b8ff" stroke="#63b8ff" points="112.59,-200.32 112.86,-189.73 106.04,-197.84 112.59,-200.32"/>
</a>
</g>
</g>
<!-- Node8 -->
<g id="Node000008" class="node">
<title>Node8</title>
<g id="a_Node000008"><a xlink:href="Component_8hpp.html" target="_top" xlink:title=" ">
<polygon fill="white" stroke="#666666" points="571.3,-188 440.55,-188 440.55,-168 571.3,-168 571.3,-188"/>
<text xml:space="preserve" text-anchor="middle" x="505.92" y="-174.5" font-family="Helvetica,sans-Serif" font-size="10.00">../../../ecs/Component.hpp</text>
</a>
</g>
</g>
<!-- Node6&#45;&gt;Node8 -->
<g id="edge8_Node000006_Node000008" class="edge">
<title>Node6&#45;&gt;Node8</title>
<g id="a_edge8_Node000006_Node000008"><a xlink:title=" ">
<path fill="none" stroke="#63b8ff" d="M139.86,-229.51C147.2,-227.46 154.73,-225.54 161.92,-224 252.59,-204.6 358.59,-192.26 428.71,-185.51"/>
<polygon fill="#63b8ff" stroke="#63b8ff" points="428.95,-189 438.57,-184.57 428.29,-182.03 428.95,-189"/>
</a>
</g>
</g>
<!-- Node12 -->
<g id="Node000012" class="node">
<title>Node12</title>
<g id="a_Node000012"><a xlink:href="utils_8hpp.html" target="_top" xlink:title=" ">
<polygon fill="white" stroke="#666666" points="283.17,-188 184.67,-188 184.67,-168 283.17,-168 283.17,-188"/>
<text xml:space="preserve" text-anchor="middle" x="233.92" y="-174.5" font-family="Helvetica,sans-Serif" font-size="10.00">../../../ecs/utils.hpp</text>
</a>
</g>
</g>
<!-- Node6&#45;&gt;Node12 -->
<g id="edge14_Node000006_Node000012" class="edge">
<title>Node6&#45;&gt;Node12</title>
<g id="a_edge14_Node000006_Node000012"><a xlink:title=" ">
<path fill="none" stroke="#63b8ff" d="M125.22,-229.53C148.85,-218.54 180.34,-203.9 203.35,-193.21"/>
<polygon fill="#63b8ff" stroke="#63b8ff" points="204.61,-196.49 212.2,-189.1 201.66,-190.14 204.61,-196.49"/>
</a>
</g>
</g>
<!-- Node9 -->
<g id="Node000009" class="node">
<title>Node9</title>
<g id="a_Node000009"><a xlink:title=" ">
<polygon fill="#e0e0e0" stroke="#999999" points="570.55,-132 519.3,-132 519.3,-112 570.55,-112 570.55,-132"/>
<text xml:space="preserve" text-anchor="middle" x="544.92" y="-118.5" font-family="Helvetica,sans-Serif" font-size="10.00">memory</text>
</a>
</g>
</g>
<!-- Node8&#45;&gt;Node9 -->
<g id="edge9_Node000008_Node000009" class="edge">
<title>Node8&#45;&gt;Node9</title>
<g id="a_edge9_Node000008_Node000009"><a xlink:title=" ">
<path fill="none" stroke="#63b8ff" d="M512.72,-167.59C517.92,-160.39 525.26,-150.23 531.61,-141.43"/>
<polygon fill="#63b8ff" stroke="#63b8ff" points="534.31,-143.68 537.32,-133.53 528.63,-139.58 534.31,-143.68"/>
</a>
</g>
</g>
<!-- Node10 -->
<g id="Node000010" class="node">
<title>Node10</title>
<g id="a_Node000010"><a xlink:title=" ">
<polygon fill="#e0e0e0" stroke="#999999" points="637.92,-76 597.92,-76 597.92,-56 637.92,-56 637.92,-76"/>
<text xml:space="preserve" text-anchor="middle" x="617.92" y="-62.5" font-family="Helvetica,sans-Serif" font-size="10.00">string</text>
</a>
</g>
</g>
<!-- Node8&#45;&gt;Node10 -->
<g id="edge10_Node000008_Node000010" class="edge">
<title>Node8&#45;&gt;Node10</title>
<g id="a_edge10_Node000008_Node000010"><a xlink:title=" ">
<path fill="none" stroke="#63b8ff" d="M495.87,-167.52C483.04,-154.25 463.95,-129.76 476.92,-112 501.83,-77.91 552.86,-69.04 586.21,-67.06"/>
<polygon fill="#63b8ff" stroke="#63b8ff" points="586.25,-70.56 596.1,-66.67 585.97,-63.57 586.25,-70.56"/>
</a>
</g>
</g>
<!-- Node11 -->
<g id="Node000011" class="node">
<title>Node11</title>
<g id="a_Node000011"><a xlink:href="Types_8hpp.html" target="_top" xlink:title="Core type definitions used throughout the ECS (Entity Component System).">
<polygon fill="white" stroke="#666666" points="738.42,-76 677.42,-76 677.42,-56 738.42,-56 738.42,-76"/>
<text xml:space="preserve" text-anchor="middle" x="707.92" y="-62.5" font-family="Helvetica,sans-Serif" font-size="10.00">Types.hpp</text>
</a>
</g>
</g>
<!-- Node8&#45;&gt;Node11 -->
<g id="edge11_Node000008_Node000011" class="edge">
<title>Node8&#45;&gt;Node11</title>
<g id="a_edge11_Node000008_Node000011"><a xlink:title=" ">
<path fill="none" stroke="#63b8ff" d="M503.39,-167.78C500.2,-153.92 496.6,-127.68 509.92,-112 520.02,-100.12 610.73,-83.17 665.8,-73.83"/>
<polygon fill="#63b8ff" stroke="#63b8ff" points="666.2,-77.31 675.48,-72.21 665.04,-70.41 666.2,-77.31"/>
</a>
</g>
</g>
<!-- Node11&#45;&gt;Node3 -->
<g id="edge12_Node000011_Node000003" class="edge">
<title>Node11&#45;&gt;Node3</title>
<g id="a_edge12_Node000011_Node000003"><a xlink:title=" ">
<path fill="none" stroke="#63b8ff" d="M676.95,-60.01C667.34,-58.57 656.71,-57.1 646.92,-56 437.84,-32.51 185.03,-17.49 97.53,-12.68"/>
<polygon fill="#63b8ff" stroke="#63b8ff" points="97.99,-9.2 87.81,-12.15 97.6,-16.19 97.99,-9.2"/>
</a>
</g>
</g>
<!-- Node11&#45;&gt;Node4 -->
<g id="edge13_Node000011_Node000004" class="edge">
<title>Node11&#45;&gt;Node4</title>
<g id="a_edge13_Node000011_Node000004"><a xlink:title=" ">
<path fill="none" stroke="#63b8ff" d="M738.77,-57.95C742.19,-57.25 745.62,-56.59 748.92,-56 856.25,-36.94 984.45,-21.55 1044.59,-14.76"/>
<polygon fill="#63b8ff" stroke="#63b8ff" points="1044.97,-18.24 1054.52,-13.65 1044.19,-11.28 1044.97,-18.24"/>
</a>
</g>
</g>
<!-- Node13&#45;&gt;Node8 -->
<g id="edge16_Node000013_Node000008" class="edge">
<title>Node13&#45;&gt;Node8</title>
<g id="a_edge16_Node000013_Node000008"><a xlink:title=" ">
<path fill="none" stroke="#63b8ff" d="M518.98,-229.69C516.66,-220.7 513.71,-209.21 511.19,-199.44"/>
<polygon fill="#63b8ff" stroke="#63b8ff" points="514.59,-198.59 508.7,-189.78 507.81,-200.34 514.59,-198.59"/>
</a>
</g>
</g>
<!-- Node14&#45;&gt;Node8 -->
<g id="edge18_Node000014_Node000008" class="edge">
<title>Node14&#45;&gt;Node8</title>
<g id="a_edge18_Node000014_Node000008"><a xlink:title=" ">
<path fill="none" stroke="#63b8ff" d="M629.18,-229.53C602.01,-218.39 565.7,-203.51 539.54,-192.78"/>
<polygon fill="#63b8ff" stroke="#63b8ff" points="540.98,-189.59 530.4,-189.03 538.33,-196.07 540.98,-189.59"/>
</a>
</g>
</g>
<!-- Node15&#45;&gt;Node8 -->
<g id="edge20_Node000015_Node000008" class="edge">
<title>Node15&#45;&gt;Node8</title>
<g id="a_edge20_Node000015_Node000008"><a xlink:title=" ">
<path fill="none" stroke="#63b8ff" d="M756.32,-229.5C749.84,-227.53 743.24,-225.63 736.92,-224 683.38,-210.19 621.89,-198.4 575.82,-190.36"/>
<polygon fill="#63b8ff" stroke="#63b8ff" points="576.69,-186.96 566.24,-188.71 575.5,-193.86 576.69,-186.96"/>
</a>
</g>
</g>
<!-- Node16&#45;&gt;Node5 -->
<g id="edge23_Node000016_Node000005" class="edge">
<title>Node16&#45;&gt;Node5</title>
<g id="a_edge23_Node000016_Node000005"><a xlink:title=" ">
<path fill="none" stroke="#63b8ff" d="M948.34,-223.91C969.09,-201.92 1001.57,-165.99 1025.92,-132 1036.51,-117.22 1046.81,-99.32 1054.01,-86.05"/>
<polygon fill="#63b8ff" stroke="#63b8ff" points="1056.95,-87.97 1058.56,-77.49 1050.77,-84.68 1056.95,-87.97"/>
</a>
</g>
</g>
<!-- Node16&#45;&gt;Node8 -->
<g id="edge24_Node000016_Node000008" class="edge">
<title>Node16&#45;&gt;Node8</title>
<g id="a_edge24_Node000016_Node000008"><a xlink:title=" ">
<path fill="none" stroke="#63b8ff" d="M875.55,-226.2C872.65,-225.4 869.76,-224.66 866.92,-224 853.27,-220.83 684.83,-200.4 582.93,-188.19"/>
<polygon fill="#63b8ff" stroke="#63b8ff" points="583.61,-184.74 573.27,-187.03 582.78,-191.69 583.61,-184.74"/>
</a>
</g>
</g>
<!-- Node16&#45;&gt;Node10 -->
<g id="edge22_Node000016_Node000010" class="edge">
<title>Node16&#45;&gt;Node10</title>
<g id="a_edge22_Node000016_Node000010"><a xlink:title=" ">
<path fill="none" stroke="#63b8ff" d="M875.85,-226.45C872.84,-225.57 869.85,-224.75 866.92,-224 774.76,-200.44 727.59,-250.57 655.92,-188 626.71,-162.5 619.71,-114.82 618.18,-87.55"/>
<polygon fill="#63b8ff" stroke="#63b8ff" points="621.69,-87.68 617.85,-77.81 614.69,-87.92 621.69,-87.68"/>
</a>
</g>
</g>
<!-- Node17&#45;&gt;Node8 -->
<g id="edge26_Node000017_Node000008" class="edge">
<title>Node17&#45;&gt;Node8</title>
<g id="a_edge26_Node000017_Node000008"><a xlink:title=" ">
<path fill="none" stroke="#63b8ff" d="M286.06,-229.61C293.06,-227.66 300.15,-225.74 306.92,-224 354.8,-211.71 409.62,-199.45 449.58,-190.83"/>
<polygon fill="#63b8ff" stroke="#63b8ff" points="450.17,-194.29 459.22,-188.77 448.71,-187.44 450.17,-194.29"/>
</a>
</g>
</g>
<!-- Node17&#45;&gt;Node12 -->
<g id="edge27_Node000017_Node000012" class="edge">
<title>Node17&#45;&gt;Node12</title>
<g id="a_edge27_Node000017_Node000012"><a xlink:title=" ">
<path fill="none" stroke="#63b8ff" d="M233.92,-229.69C233.92,-220.8 233.92,-209.46 233.92,-199.77"/>
<polygon fill="#63b8ff" stroke="#63b8ff" points="237.42,-199.83 233.92,-189.83 230.42,-199.83 237.42,-199.83"/>
</a>
</g>
</g>
<!-- Node18&#45;&gt;Node5 -->
<g id="edge32_Node000018_Node000005" class="edge">
<title>Node18&#45;&gt;Node5</title>
<g id="a_edge32_Node000018_Node000005"><a xlink:title=" ">
<path fill="none" stroke="#63b8ff" d="M1257,-229.92C1275.28,-203.06 1306.98,-146.52 1277.92,-112 1255.08,-84.86 1151.56,-73.36 1097.32,-69.14"/>
<polygon fill="#63b8ff" stroke="#63b8ff" points="1097.65,-65.65 1087.42,-68.41 1097.14,-72.63 1097.65,-65.65"/>
</a>
</g>
</g>
<!-- Node18&#45;&gt;Node8 -->
<g id="edge33_Node000018_Node000008" class="edge">
<title>Node18&#45;&gt;Node8</title>
<g id="a_edge33_Node000018_Node000008"><a xlink:title=" ">
<path fill="none" stroke="#63b8ff" d="M1189.05,-229.51C1179.71,-227.38 1170.09,-225.44 1160.92,-224 1132.8,-219.59 749.65,-194.66 582.74,-183.92"/>
<polygon fill="#63b8ff" stroke="#63b8ff" points="583.3,-180.45 573.09,-183.3 582.85,-187.43 583.3,-180.45"/>
</a>
</g>
</g>
<!-- Node18&#45;&gt;Node12 -->
<g id="edge34_Node000018_Node000012" class="edge">
<title>Node18&#45;&gt;Node12</title>
<g id="a_edge34_Node000018_Node000012"><a xlink:title=" ">
<path fill="none" stroke="#63b8ff" d="M1189.99,-229.55C1180.36,-227.36 1170.4,-225.39 1160.92,-224 1139.46,-220.86 497.58,-191.13 294.74,-181.79"/>
<polygon fill="#63b8ff" stroke="#63b8ff" points="295.09,-178.31 284.94,-181.34 294.77,-185.3 295.09,-178.31"/>
</a>
</g>
</g>
<!-- Node19 -->
<g id="Node000019" class="node">
<title>Node19</title>
<g id="a_Node000019"><a xlink:title=" ">
<polygon fill="#e0e0e0" stroke="#999999" points="1375.05,-188 1326.8,-188 1326.8,-168 1375.05,-168 1375.05,-188"/>
<text xml:space="preserve" text-anchor="middle" x="1350.92" y="-174.5" font-family="Helvetica,sans-Serif" font-size="10.00">cstddef</text>
</a>
</g>
</g>
<!-- Node18&#45;&gt;Node19 -->
<g id="edge29_Node000018_Node000019" class="edge">
<title>Node18&#45;&gt;Node19</title>
<g id="a_edge29_Node000018_Node000019"><a xlink:title=" ">
<path fill="none" stroke="#63b8ff" d="M1270.54,-229.53C1287.31,-218.99 1309.42,-205.09 1326.21,-194.54"/>
<polygon fill="#63b8ff" stroke="#63b8ff" points="1327.99,-197.55 1334.59,-189.27 1324.26,-191.62 1327.99,-197.55"/>
</a>
</g>
</g>
<!-- Node20 -->
<g id="Node000020" class="node">
<title>Node20</title>
<g id="a_Node000020"><a xlink:title=" ">
<polygon fill="#e0e0e0" stroke="#999999" points="1270.67,-188 1217.17,-188 1217.17,-168 1270.67,-168 1270.67,-188"/>
<text xml:space="preserve" text-anchor="middle" x="1243.92" y="-174.5" font-family="Helvetica,sans-Serif" font-size="10.00">iostream</text>
</a>
</g>
</g>
<!-- Node18&#45;&gt;Node20 -->
<g id="edge30_Node000018_Node000020" class="edge">
<title>Node18&#45;&gt;Node20</title>
<g id="a_edge30_Node000018_Node000020"><a xlink:title=" ">
<path fill="none" stroke="#63b8ff" d="M1245.46,-229.69C1245.19,-220.8 1244.85,-209.46 1244.55,-199.77"/>
<polygon fill="#63b8ff" stroke="#63b8ff" points="1248.05,-199.72 1244.25,-189.83 1241.06,-199.93 1248.05,-199.72"/>
</a>
</g>
</g>
<!-- Node21 -->
<g id="Node000021" class="node">
<title>Node21</title>
<g id="a_Node000021"><a xlink:title=" ">
<polygon fill="#e0e0e0" stroke="#999999" points="1432.55,-188 1393.3,-188 1393.3,-168 1432.55,-168 1432.55,-188"/>
<text xml:space="preserve" text-anchor="middle" x="1412.92" y="-174.5" font-family="Helvetica,sans-Serif" font-size="10.00">utility</text>
</a>
</g>
</g>
<!-- Node18&#45;&gt;Node21 -->
<g id="edge31_Node000018_Node000021" class="edge">
<title>Node18&#45;&gt;Node21</title>
<g id="a_edge31_Node000018_Node000021"><a xlink:title=" ">
<path fill="none" stroke="#63b8ff" d="M1285.08,-229.53C1314.9,-217.74 1355.36,-201.75 1382.72,-190.94"/>
<polygon fill="#63b8ff" stroke="#63b8ff" points="1383.79,-194.28 1391.81,-187.35 1381.22,-187.77 1383.79,-194.28"/>
</a>
</g>
</g>
<!-- Node22&#45;&gt;Node8 -->
<g id="edge36_Node000022_Node000008" class="edge">
<title>Node22&#45;&gt;Node8</title>
<g id="a_edge36_Node000022_Node000008"><a xlink:title=" ">
<path fill="none" stroke="#63b8ff" d="M407.93,-229.53C428.95,-218.69 456.86,-204.3 477.51,-193.65"/>
<polygon fill="#63b8ff" stroke="#63b8ff" points="478.95,-196.85 486.23,-189.15 475.74,-190.63 478.95,-196.85"/>
</a>
</g>
</g>
<!-- Node23&#45;&gt;Node5 -->
<g id="edge41_Node000023_Node000005" class="edge">
<title>Node23&#45;&gt;Node5</title>
<g id="a_edge41_Node000023_Node000005"><a xlink:title=" ">
<path fill="none" stroke="#63b8ff" d="M1085.71,-235.74C1076.86,-225.09 1063.32,-206.66 1057.92,-188 1055.45,-179.46 1057.66,-176.88 1057.92,-168 1058.75,-140.21 1060.85,-108.19 1062.33,-87.78"/>
<polygon fill="#63b8ff" stroke="#63b8ff" points="1065.81,-88.2 1063.06,-77.97 1058.83,-87.68 1065.81,-88.2"/>
</a>
</g>
</g>
<!-- Node23&#45;&gt;Node9 -->
<g id="edge40_Node000023_Node000009" class="edge">
<title>Node23&#45;&gt;Node9</title>
<g id="a_edge40_Node000023_Node000009"><a xlink:title=" ">
<path fill="none" stroke="#63b8ff" d="M1051.17,-235.54C1032.17,-231.58 1009.5,-227.16 988.92,-224 841.79,-201.38 797.29,-234.65 655.92,-188 622.24,-176.88 587.62,-154.54 566.2,-139.18"/>
<polygon fill="#63b8ff" stroke="#63b8ff" points="568.42,-136.47 558.29,-133.37 564.28,-142.11 568.42,-136.47"/>
</a>
</g>
</g>
<!-- Node23&#45;&gt;Node11 -->
<g id="edge60_Node000023_Node000011" class="edge">
<title>Node23&#45;&gt;Node11</title>
<g id="a_edge60_Node000023_Node000011"><a xlink:title=" ">
<path fill="none" stroke="#63b8ff" d="M1057.67,-235.58C971.01,-212.8 757.24,-154.92 732.92,-132 720.54,-120.33 714.22,-101.84 711.03,-87.56"/>
<polygon fill="#63b8ff" stroke="#63b8ff" points="714.5,-87.06 709.24,-77.86 707.62,-88.33 714.5,-87.06"/>
</a>
</g>
</g>
<!-- Node23&#45;&gt;Node20 -->
<g id="edge39_Node000023_Node000020" class="edge">
<title>Node23&#45;&gt;Node20</title>
<g id="a_edge39_Node000023_Node000020"><a xlink:title=" ">
<path fill="none" stroke="#63b8ff" d="M1115.42,-235.54C1140.7,-224.42 1182.92,-205.84 1212.02,-193.04"/>
<polygon fill="#63b8ff" stroke="#63b8ff" points="1213.34,-196.28 1221.09,-189.05 1210.53,-189.87 1213.34,-196.28"/>
</a>
</g>
</g>
<!-- Node24 -->
<g id="Node000024" class="node">
<title>Node24</title>
<g id="a_Node000024"><a xlink:title=" ">
<polygon fill="#e0e0e0" stroke="#999999" points="1122.8,-188 1067.05,-188 1067.05,-168 1122.8,-168 1122.8,-188"/>
<text xml:space="preserve" text-anchor="middle" x="1094.92" y="-174.5" font-family="Helvetica,sans-Serif" font-size="10.00">algorithm</text>
</a>
</g>
</g>
<!-- Node23&#45;&gt;Node24 -->
<g id="edge38_Node000023_Node000024" class="edge">
<title>Node23&#45;&gt;Node24</title>
<g id="a_edge38_Node000023_Node000024"><a xlink:title=" ">
<path fill="none" stroke="#63b8ff" d="M1094.07,-235.54C1094.21,-226.23 1094.43,-211.7 1094.61,-199.7"/>
<polygon fill="#63b8ff" stroke="#63b8ff" points="1098.11,-200 1094.76,-189.95 1091.11,-199.9 1098.11,-200"/>
</a>
</g>
</g>
<!-- Node25 -->
<g id="Node000025" class="node">
<title>Node25</title>
<g id="a_Node000025"><a xlink:href="Clock_8hpp.html" target="_top" xlink:title=" ">
<polygon fill="white" stroke="#666666" points="1269.05,-132 1208.8,-132 1208.8,-112 1269.05,-112 1269.05,-132"/>
<text xml:space="preserve" text-anchor="middle" x="1238.92" y="-118.5" font-family="Helvetica,sans-Serif" font-size="10.00">Clock.hpp</text>
</a>
</g>
</g>
<!-- Node23&#45;&gt;Node25 -->
<g id="edge42_Node000023_Node000025" class="edge">
<title>Node23&#45;&gt;Node25</title>
<g id="a_edge42_Node000023_Node000025"><a xlink:title=" ">
<path fill="none" stroke="#63b8ff" d="M1104.82,-235.83C1129.18,-215.34 1188.29,-165.6 1219.26,-139.54"/>
<polygon fill="#63b8ff" stroke="#63b8ff" points="1221.34,-142.37 1226.74,-133.25 1216.84,-137.01 1221.34,-142.37"/>
</a>
</g>
</g>
<!-- Node26 -->
<g id="Node000026" class="node">
<title>Node26</title>
<g id="a_Node000026"><a xlink:href="ComponentRegistry_8hpp.html" target="_top" xlink:title=" ">
<polygon fill="white" stroke="#666666" points="862.42,-132 741.42,-132 741.42,-112 862.42,-112 862.42,-132"/>
<text xml:space="preserve" text-anchor="middle" x="801.92" y="-118.5" font-family="Helvetica,sans-Serif" font-size="10.00">ComponentRegistry.hpp</text>
</a>
</g>
</g>
<!-- Node23&#45;&gt;Node26 -->
<g id="edge44_Node000023_Node000026" class="edge">
<title>Node23&#45;&gt;Node26</title>
<g id="a_edge44_Node000023_Node000026"><a xlink:title=" ">
<path fill="none" stroke="#63b8ff" d="M1071.5,-235.63C1020.33,-214.25 894.78,-161.79 834.83,-136.75"/>
<polygon fill="#63b8ff" stroke="#63b8ff" points="836.4,-133.61 825.83,-132.99 833.7,-140.07 836.4,-133.61"/>
</a>
</g>
</g>
<!-- Node29 -->
<g id="Node000029" class="node">
<title>Node29</title>
<g id="a_Node000029"><a xlink:href="EntityManager_8hpp.html" target="_top" xlink:title=" ">
<polygon fill="white" stroke="#666666" points="1016.8,-132 919.05,-132 919.05,-112 1016.8,-112 1016.8,-132"/>
<text xml:space="preserve" text-anchor="middle" x="967.92" y="-118.5" font-family="Helvetica,sans-Serif" font-size="10.00">EntityManager.hpp</text>
</a>
</g>
</g>
<!-- Node23&#45;&gt;Node29 -->
<g id="edge50_Node000023_Node000029" class="edge">
<title>Node23&#45;&gt;Node29</title>
<g id="a_edge50_Node000023_Node000029"><a xlink:title=" ">
<path fill="none" stroke="#63b8ff" d="M1081.45,-235.68C1067.23,-224.82 1043.54,-206.08 1024.92,-188 1009.5,-173.02 993.49,-154.46 982.38,-141.01"/>
<polygon fill="#63b8ff" stroke="#63b8ff" points="985.22,-138.95 976.19,-133.42 979.8,-143.38 985.22,-138.95"/>
</a>
</g>
</g>
<!-- Node30 -->
<g id="Node000030" class="node">
<title>Node30</title>
<g id="a_Node000030"><a xlink:href="SparseSet_8hpp.html" target="_top" xlink:title=" ">
<polygon fill="white" stroke="#666666" points="1191.17,-132 1110.67,-132 1110.67,-112 1191.17,-112 1191.17,-132"/>
<text xml:space="preserve" text-anchor="middle" x="1150.92" y="-118.5" font-family="Helvetica,sans-Serif" font-size="10.00">SparseSet.hpp</text>
</a>
</g>
</g>
<!-- Node23&#45;&gt;Node30 -->
<g id="edge53_Node000023_Node000030" class="edge">
<title>Node23&#45;&gt;Node30</title>
<g id="a_edge53_Node000023_Node000030"><a xlink:title=" ">
<path fill="none" stroke="#63b8ff" d="M1101.32,-235.84C1109.76,-225 1123.48,-206.11 1131.92,-188 1138.62,-173.63 1143.54,-156.35 1146.69,-143.23"/>
<polygon fill="#63b8ff" stroke="#63b8ff" points="1150.07,-144.14 1148.84,-133.62 1143.24,-142.61 1150.07,-144.14"/>
</a>
</g>
</g>
<!-- Node23&#45;&gt;Node31 -->
<g id="edge55_Node000023_Node000031" class="edge">
<title>Node23&#45;&gt;Node31</title>
<g id="a_edge55_Node000023_Node000031"><a xlink:title=" ">
<path fill="none" stroke="#63b8ff" d="M1065.45,-235.6C1052.32,-231.55 1036.45,-227.05 1021.92,-224 901.29,-198.67 868.66,-207.37 746.92,-188 746.11,-187.87 745.28,-187.74 744.45,-187.6"/>
<polygon fill="#63b8ff" stroke="#63b8ff" points="745.43,-184.22 734.98,-185.97 744.25,-191.12 745.43,-184.22"/>
</a>
</g>
</g>
<!-- Node25&#45;&gt;Node4 -->
<g id="edge43_Node000025_Node000004" class="edge">
<title>Node25&#45;&gt;Node4</title>
<g id="a_edge43_Node000025_Node000004"><a xlink:title=" ">
<path fill="none" stroke="#63b8ff" d="M1225.28,-111.62C1197.77,-92.71 1135.38,-49.82 1101.63,-26.61"/>
<polygon fill="#63b8ff" stroke="#63b8ff" points="1104,-23.99 1093.78,-21.21 1100.04,-29.76 1104,-23.99"/>
</a>
</g>
</g>
<!-- Node26&#45;&gt;Node5 -->
<g id="edge48_Node000026_Node000005" class="edge">
<title>Node26&#45;&gt;Node5</title>
<g id="a_edge48_Node000026_Node000005"><a xlink:title=" ">
<path fill="none" stroke="#63b8ff" d="M847.86,-111.53C900.24,-100.74 984.6,-83.35 1030.89,-73.81"/>
<polygon fill="#63b8ff" stroke="#63b8ff" points="1031.49,-77.26 1040.58,-71.81 1030.08,-70.4 1031.49,-77.26"/>
</a>
</g>
</g>
<!-- Node26&#45;&gt;Node10 -->
<g id="edge45_Node000026_Node000010" class="edge">
<title>Node26&#45;&gt;Node10</title>
<g id="a_edge45_Node000026_Node000010"><a xlink:title=" ">
<path fill="none" stroke="#63b8ff" d="M769.87,-111.59C735.98,-101.65 682.86,-86.06 649.24,-76.19"/>
<polygon fill="#63b8ff" stroke="#63b8ff" points="650.26,-72.84 639.68,-73.39 648.29,-79.56 650.26,-72.84"/>
</a>
</g>
</g>
<!-- Node26&#45;&gt;Node11 -->
<g id="edge49_Node000026_Node000011" class="edge">
<title>Node26&#45;&gt;Node11</title>
<g id="a_edge49_Node000026_Node000011"><a xlink:title=" ">
<path fill="none" stroke="#63b8ff" d="M785.55,-111.59C771.35,-103.44 750.54,-91.48 734.04,-82"/>
<polygon fill="#63b8ff" stroke="#63b8ff" points="736.15,-79.18 725.74,-77.23 732.67,-85.25 736.15,-79.18"/>
</a>
</g>
</g>
<!-- Node27 -->
<g id="Node000027" class="node">
<title>Node27</title>
<g id="a_Node000027"><a xlink:title=" ">
<polygon fill="#e0e0e0" stroke="#999999" points="915.92,-76 857.92,-76 857.92,-56 915.92,-56 915.92,-76"/>
<text xml:space="preserve" text-anchor="middle" x="886.92" y="-62.5" font-family="Helvetica,sans-Serif" font-size="10.00">typeindex</text>
</a>
</g>
</g>
<!-- Node26&#45;&gt;Node27 -->
<g id="edge46_Node000026_Node000027" class="edge">
<title>Node26&#45;&gt;Node27</title>
<g id="a_edge46_Node000026_Node000027"><a xlink:title=" ">
<path fill="none" stroke="#63b8ff" d="M816.73,-111.59C829.33,-103.59 847.68,-91.93 862.46,-82.54"/>
<polygon fill="#63b8ff" stroke="#63b8ff" points="864.16,-85.61 870.73,-77.29 860.41,-79.7 864.16,-85.61"/>
</a>
</g>
</g>
<!-- Node28 -->
<g id="Node000028" class="node">
<title>Node28</title>
<g id="a_Node000028"><a xlink:title=" ">
<polygon fill="#e0e0e0" stroke="#999999" points="840.3,-76 757.55,-76 757.55,-56 840.3,-56 840.3,-76"/>
<text xml:space="preserve" text-anchor="middle" x="798.92" y="-62.5" font-family="Helvetica,sans-Serif" font-size="10.00">unordered_map</text>
</a>
</g>
</g>
<!-- Node26&#45;&gt;Node28 -->
<g id="edge47_Node000026_Node000028" class="edge">
<title>Node26&#45;&gt;Node28</title>
<g id="a_edge47_Node000026_Node000028"><a xlink:title=" ">
<path fill="none" stroke="#63b8ff" d="M801.4,-111.59C801.04,-105.01 800.53,-95.96 800.08,-87.73"/>
<polygon fill="#63b8ff" stroke="#63b8ff" points="803.57,-87.6 799.53,-77.81 796.59,-87.99 803.57,-87.6"/>
</a>
</g>
</g>
<!-- Node29&#45;&gt;Node4 -->
<g id="edge51_Node000029_Node000004" class="edge">
<title>Node29&#45;&gt;Node4</title>
<g id="a_edge51_Node000029_Node000004"><a xlink:title=" ">
<path fill="none" stroke="#63b8ff" d="M977.39,-111.62C995.98,-93.19 1037.54,-52.01 1061.33,-28.44"/>
<polygon fill="#63b8ff" stroke="#63b8ff" points="1063.77,-30.95 1068.41,-21.42 1058.84,-25.97 1063.77,-30.95"/>
</a>
</g>
</g>
<!-- Node29&#45;&gt;Node5 -->
<g id="edge52_Node000029_Node000005" class="edge">
<title>Node29&#45;&gt;Node5</title>
<g id="a_edge52_Node000029_Node000005"><a xlink:title=" ">
<path fill="none" stroke="#63b8ff" d="M984.65,-111.59C999.15,-103.44 1020.4,-91.48 1037.25,-82"/>
<polygon fill="#63b8ff" stroke="#63b8ff" points="1038.75,-85.17 1045.75,-77.22 1035.32,-79.07 1038.75,-85.17"/>
</a>
</g>
</g>
<!-- Node30&#45;&gt;Node5 -->
<g id="edge54_Node000030_Node000005" class="edge">
<title>Node30&#45;&gt;Node5</title>
<g id="a_edge54_Node000030_Node000005"><a xlink:title=" ">
<path fill="none" stroke="#63b8ff" d="M1135.77,-111.59C1122.88,-103.59 1104.09,-91.93 1088.97,-82.54"/>
<polygon fill="#63b8ff" stroke="#63b8ff" points="1090.83,-79.58 1080.48,-77.28 1087.13,-85.53 1090.83,-79.58"/>
</a>
</g>
</g>
<!-- Node31&#45;&gt;Node5 -->
<g id="edge57_Node000031_Node000005" class="edge">
<title>Node31&#45;&gt;Node5</title>
<g id="a_edge57_Node000031_Node000005"><a xlink:title=" ">
<path fill="none" stroke="#63b8ff" d="M733.47,-170.46C768.92,-163.19 825.33,-150.04 871.92,-132 889.72,-125.11 892.23,-119.16 909.92,-112 950.63,-95.53 999.6,-82.28 1031.22,-74.53"/>
<polygon fill="#63b8ff" stroke="#63b8ff" points="1031.66,-78.03 1040.57,-72.28 1030.02,-71.22 1031.66,-78.03"/>
</a>
</g>
</g>
<!-- Node31&#45;&gt;Node10 -->
<g id="edge56_Node000031_Node000010" class="edge">
<title>Node31&#45;&gt;Node10</title>
<g id="a_edge56_Node000031_Node000010"><a xlink:title=" ">
<path fill="none" stroke="#63b8ff" d="M692.02,-167.62C678.63,-149.44 648.92,-109.09 631.46,-85.38"/>
<polygon fill="#63b8ff" stroke="#63b8ff" points="634.46,-83.55 625.71,-77.57 628.82,-87.7 634.46,-83.55"/>
</a>
</g>
</g>
<!-- Node31&#45;&gt;Node11 -->
<g id="edge59_Node000031_Node000011" class="edge">
<title>Node31&#45;&gt;Node11</title>
<g id="a_edge59_Node000031_Node000011"><a xlink:title=" ">
<path fill="none" stroke="#63b8ff" d="M698.35,-167.71C697.7,-155.08 696.97,-131.76 698.92,-112 699.73,-103.88 701.33,-95.05 702.96,-87.38"/>
<polygon fill="#63b8ff" stroke="#63b8ff" points="706.36,-88.23 705.18,-77.7 699.54,-86.67 706.36,-88.23"/>
</a>
</g>
</g>
<!-- Node31&#45;&gt;Node26 -->
<g id="edge58_Node000031_Node000026" class="edge">
<title>Node31&#45;&gt;Node26</title>
<g id="a_edge58_Node000031_Node000026"><a xlink:title=" ">
<path fill="none" stroke="#63b8ff" d="M716.87,-167.59C732.57,-159.36 755.66,-147.26 773.81,-137.74"/>
<polygon fill="#63b8ff" stroke="#63b8ff" points="775.27,-140.93 782.5,-133.18 772.02,-134.73 775.27,-140.93"/>
</a>
</g>
</g>
</g>
</svg>
