<?xml version="1.0" encoding="UTF-8" standalone="no"?>
<!DOCTYPE svg PUBLIC "-//W3C//DTD SVG 1.1//EN"
 "http://www.w3.org/Graphics/SVG/1.1/DTD/svg11.dtd">
<!-- Generated by graphviz version 14.0.2 (0)
 -->
<!-- Title: systems/FPInputHandler/src/FPInputHandler.hpp Pages: 1 -->
<svg width="1507pt" height="344pt"
 viewBox="0.00 0.00 1507.00 344.00" xmlns="http://www.w3.org/2000/svg" xmlns:xlink="http://www.w3.org/1999/xlink">
<g id="graph0" class="graph" transform="scale(1 1) rotate(0) translate(4 340)">
<title>systems/FPInputHandler/src/FPInputHandler.hpp</title>
<!-- Node1 -->
<g id="Node000001" class="node">
<title>Node1</title>
<g id="a_Node000001"><a xlink:title=" ">
<polygon fill="#999999" stroke="#666666" points="864.27,-336 739.52,-336 739.52,-304 864.27,-304 864.27,-336"/>
<text xml:space="preserve" text-anchor="start" x="747.52" y="-322.5" font-family="Helvetica,sans-Serif" font-size="10.00">systems/FPInputHandler</text>
<text xml:space="preserve" text-anchor="middle" x="801.9" y="-310.5" font-family="Helvetica,sans-Serif" font-size="10.00">/src/FPInputHandler.hpp</text>
</a>
</g>
</g>
<!-- Node2 -->
<g id="Node000002" class="node">
<title>Node2</title>
<g id="a_Node000002"><a xlink:title=" ">
<polygon fill="#e0e0e0" stroke="#999999" points="85.9,-20 45.9,-20 45.9,0 85.9,0 85.9,-20"/>
<text xml:space="preserve" text-anchor="middle" x="65.9" y="-6.5" font-family="Helvetica,sans-Serif" font-size="10.00">bitset</text>
</a>
</g>
</g>
<!-- Node1&#45;&gt;Node2 -->
<g id="edge1_Node000001_Node000002" class="edge">
<title>Node1&#45;&gt;Node2</title>
<g id="a_edge1_Node000001_Node000002"><a xlink:title=" ">
<path fill="none" stroke="#63b8ff" d="M739.05,-319.16C563.23,-319.04 75.63,-314.46 21.9,-268 -8.7,-241.55 2.9,-219.45 2.9,-179 2.9,-179 2.9,-179 2.9,-121 2.9,-84.36 29.55,-48.85 48.18,-28.5"/>
<polygon fill="#63b8ff" stroke="#63b8ff" points="50.63,-31 55.01,-21.36 45.57,-26.17 50.63,-31"/>
</a>
</g>
</g>
<!-- Node3 -->
<g id="Node000003" class="node">
<title>Node3</title>
<g id="a_Node000003"><a xlink:title=" ">
<polygon fill="#e0e0e0" stroke="#999999" points="1101.52,-20 1056.27,-20 1056.27,0 1101.52,0 1101.52,-20"/>
<text xml:space="preserve" text-anchor="middle" x="1078.9" y="-6.5" font-family="Helvetica,sans-Serif" font-size="10.00">cstdint</text>
</a>
</g>
</g>
<!-- Node1&#45;&gt;Node3 -->
<g id="edge2_Node000001_Node000003" class="edge">
<title>Node1&#45;&gt;Node3</title>
<g id="a_edge2_Node000001_Node000003"><a xlink:title=" ">
<path fill="none" stroke="#63b8ff" d="M864.67,-319.62C1036,-319.63 1498.9,-307.75 1498.9,-179 1498.9,-179 1498.9,-179 1498.9,-121 1498.9,-41.42 1213.13,-18.28 1113.03,-12.62"/>
<polygon fill="#63b8ff" stroke="#63b8ff" points="1113.46,-9.14 1103.29,-12.09 1113.09,-16.13 1113.46,-9.14"/>
</a>
</g>
</g>
<!-- Node4 -->
<g id="Node000004" class="node">
<title>Node4</title>
<g id="a_Node000004"><a xlink:title=" ">
<polygon fill="#e0e0e0" stroke="#999999" points="1085.4,-76 1042.4,-76 1042.4,-56 1085.4,-56 1085.4,-76"/>
<text xml:space="preserve" text-anchor="middle" x="1063.9" y="-62.5" font-family="Helvetica,sans-Serif" font-size="10.00">vector</text>
</a>
</g>
</g>
<!-- Node1&#45;&gt;Node4 -->
<g id="edge3_Node000001_Node000004" class="edge">
<title>Node1&#45;&gt;Node4</title>
<g id="a_edge3_Node000001_Node000004"><a xlink:title=" ">
<path fill="none" stroke="#63b8ff" d="M864.75,-317.04C985.87,-312.61 1247.04,-299.59 1330.9,-268 1387.81,-246.56 1414.19,-242.13 1441.9,-188 1475.13,-123.09 1194.98,-82.8 1096.97,-70.79"/>
<polygon fill="#63b8ff" stroke="#63b8ff" points="1097.54,-67.33 1087.19,-69.61 1096.7,-74.28 1097.54,-67.33"/>
</a>
</g>
</g>
<!-- Node5 -->
<g id="Node000005" class="node">
<title>Node5</title>
<g id="a_Node000005"><a xlink:href="Collider_8hpp.html" target="_top" xlink:title=" ">
<polygon fill="white" stroke="#666666" points="152.4,-262 31.4,-262 31.4,-230 152.4,-230 152.4,-262"/>
<text xml:space="preserve" text-anchor="start" x="39.4" y="-248.5" font-family="Helvetica,sans-Serif" font-size="10.00">../../../components</text>
<text xml:space="preserve" text-anchor="middle" x="91.9" y="-236.5" font-family="Helvetica,sans-Serif" font-size="10.00">/collider/src/Collider.hpp</text>
</a>
</g>
</g>
<!-- Node1&#45;&gt;Node5 -->
<g id="edge4_Node000001_Node000005" class="edge">
<title>Node1&#45;&gt;Node5</title>
<g id="a_edge4_Node000001_Node000005"><a xlink:title=" ">
<path fill="none" stroke="#63b8ff" d="M739.09,-318.39C623.75,-316.3 370.87,-307.21 161.9,-268 157.79,-267.23 153.58,-266.31 149.37,-265.29"/>
<polygon fill="#63b8ff" stroke="#63b8ff" points="150.27,-261.91 139.72,-262.78 148.51,-268.69 150.27,-261.91"/>
</a>
</g>
</g>
<!-- Node12 -->
<g id="Node000012" class="node">
<title>Node12</title>
<g id="a_Node000012"><a xlink:href="Damage_8hpp.html" target="_top" xlink:title=" ">
<polygon fill="white" stroke="#666666" points="587.15,-262 458.65,-262 458.65,-230 587.15,-230 587.15,-262"/>
<text xml:space="preserve" text-anchor="start" x="466.65" y="-248.5" font-family="Helvetica,sans-Serif" font-size="10.00">../../../components</text>
<text xml:space="preserve" text-anchor="middle" x="522.9" y="-236.5" font-family="Helvetica,sans-Serif" font-size="10.00">/damage/src/Damage.hpp</text>
</a>
</g>
</g>
<!-- Node1&#45;&gt;Node12 -->
<g id="edge14_Node000001_Node000012" class="edge">
<title>Node1&#45;&gt;Node12</title>
<g id="a_edge14_Node000001_Node000012"><a xlink:title=" ">
<path fill="none" stroke="#63b8ff" d="M739.41,-304.02C698.73,-294.12 644.57,-280.69 596.9,-268 593.81,-267.18 590.66,-266.33 587.48,-265.46"/>
<polygon fill="#63b8ff" stroke="#63b8ff" points="588.63,-262.15 578.06,-262.86 586.77,-268.89 588.63,-262.15"/>
</a>
</g>
</g>
<!-- Node13 -->
<g id="Node000013" class="node">
<title>Node13</title>
<g id="a_Node000013"><a xlink:href="Domain_8hpp.html" target="_top" xlink:title=" ">
<polygon fill="white" stroke="#666666" points="728.15,-262 605.65,-262 605.65,-230 728.15,-230 728.15,-262"/>
<text xml:space="preserve" text-anchor="start" x="613.65" y="-248.5" font-family="Helvetica,sans-Serif" font-size="10.00">../../../components</text>
<text xml:space="preserve" text-anchor="middle" x="666.9" y="-236.5" font-family="Helvetica,sans-Serif" font-size="10.00">/domain/src/Domain.hpp</text>
</a>
</g>
</g>
<!-- Node1&#45;&gt;Node13 -->
<g id="edge16_Node000001_Node000013" class="edge">
<title>Node1&#45;&gt;Node13</title>
<g id="a_edge16_Node000001_Node000013"><a xlink:title=" ">
<path fill="none" stroke="#63b8ff" d="M772.94,-303.55C753.36,-293.11 727.29,-279.21 705.89,-267.8"/>
<polygon fill="#63b8ff" stroke="#63b8ff" points="707.62,-264.75 697.15,-263.13 704.32,-270.93 707.62,-264.75"/>
</a>
</g>
</g>
<!-- Node14 -->
<g id="Node000014" class="node">
<title>Node14</title>
<g id="a_Node000014"><a xlink:href="Health_8hpp.html" target="_top" xlink:title=" ">
<polygon fill="white" stroke="#666666" points="857.9,-262 745.9,-262 745.9,-230 857.9,-230 857.9,-262"/>
<text xml:space="preserve" text-anchor="start" x="753.9" y="-248.5" font-family="Helvetica,sans-Serif" font-size="10.00">../../../components</text>
<text xml:space="preserve" text-anchor="middle" x="801.9" y="-236.5" font-family="Helvetica,sans-Serif" font-size="10.00">/health/src/Health.hpp</text>
</a>
</g>
</g>
<!-- Node1&#45;&gt;Node14 -->
<g id="edge18_Node000001_Node000014" class="edge">
<title>Node1&#45;&gt;Node14</title>
<g id="a_edge18_Node000001_Node000014"><a xlink:title=" ">
<path fill="none" stroke="#63b8ff" d="M801.9,-303.73C801.9,-294.95 801.9,-283.67 801.9,-273.49"/>
<polygon fill="#63b8ff" stroke="#63b8ff" points="805.4,-273.76 801.9,-263.76 798.4,-273.76 805.4,-273.76"/>
</a>
</g>
</g>
<!-- Node15 -->
<g id="Node000015" class="node">
<title>Node15</title>
<g id="a_Node000015"><a xlink:href="InputControlled_8hpp.html" target="_top" xlink:title=" ">
<polygon fill="white" stroke="#666666" points="979.77,-268 876.02,-268 876.02,-224 979.77,-224 979.77,-268"/>
<text xml:space="preserve" text-anchor="start" x="884.02" y="-254.5" font-family="Helvetica,sans-Serif" font-size="10.00">../../../components</text>
<text xml:space="preserve" text-anchor="start" x="884.02" y="-242.5" font-family="Helvetica,sans-Serif" font-size="10.00">/inputControlled/src</text>
<text xml:space="preserve" text-anchor="middle" x="927.9" y="-230.5" font-family="Helvetica,sans-Serif" font-size="10.00">/InputControlled.hpp</text>
</a>
</g>
</g>
<!-- Node1&#45;&gt;Node15 -->
<g id="edge20_Node000001_Node000015" class="edge">
<title>Node1&#45;&gt;Node15</title>
<g id="a_edge20_Node000001_Node000015"><a xlink:title=" ">
<path fill="none" stroke="#63b8ff" d="M828.93,-303.55C844.06,-294.91 863.35,-283.88 880.88,-273.87"/>
<polygon fill="#63b8ff" stroke="#63b8ff" points="882.14,-277.18 889.08,-269.18 878.67,-271.1 882.14,-277.18"/>
</a>
</g>
</g>
<!-- Node16 -->
<g id="Node000016" class="node">
<title>Node16</title>
<g id="a_Node000016"><a xlink:href="Position_8hpp.html" target="_top" xlink:title=" ">
<polygon fill="white" stroke="#666666" points="297.02,-262 170.77,-262 170.77,-230 297.02,-230 297.02,-262"/>
<text xml:space="preserve" text-anchor="start" x="178.77" y="-248.5" font-family="Helvetica,sans-Serif" font-size="10.00">../../../components</text>
<text xml:space="preserve" text-anchor="middle" x="233.9" y="-236.5" font-family="Helvetica,sans-Serif" font-size="10.00">/position/src/Position.hpp</text>
</a>
</g>
</g>
<!-- Node1&#45;&gt;Node16 -->
<g id="edge24_Node000001_Node000016" class="edge">
<title>Node1&#45;&gt;Node16</title>
<g id="a_edge24_Node000001_Node000016"><a xlink:title=" ">
<path fill="none" stroke="#63b8ff" d="M739.26,-316.11C644.8,-310.96 460.63,-297.79 306.9,-268 302.65,-267.18 298.29,-266.22 293.92,-265.18"/>
<polygon fill="#63b8ff" stroke="#63b8ff" points="295.11,-261.87 284.56,-262.8 293.39,-268.65 295.11,-261.87"/>
</a>
</g>
</g>
<!-- Node17 -->
<g id="Node000017" class="node">
<title>Node17</title>
<g id="a_Node000017"><a xlink:href="Renderable_8hpp.html" target="_top" xlink:title=" ">
<polygon fill="white" stroke="#666666" points="1321.77,-262 1170.02,-262 1170.02,-230 1321.77,-230 1321.77,-262"/>
<text xml:space="preserve" text-anchor="start" x="1178.02" y="-248.5" font-family="Helvetica,sans-Serif" font-size="10.00">../../../components</text>
<text xml:space="preserve" text-anchor="middle" x="1245.9" y="-236.5" font-family="Helvetica,sans-Serif" font-size="10.00">/renderable/src/Renderable.hpp</text>
</a>
</g>
</g>
<!-- Node1&#45;&gt;Node17 -->
<g id="edge27_Node000001_Node000017" class="edge">
<title>Node1&#45;&gt;Node17</title>
<g id="a_edge27_Node000001_Node000017"><a xlink:title=" ">
<path fill="none" stroke="#63b8ff" d="M864.48,-312.06C936.37,-303.63 1057.69,-288.03 1160.9,-268 1165.73,-267.06 1170.7,-266.03 1175.69,-264.93"/>
<polygon fill="#63b8ff" stroke="#63b8ff" points="1176.17,-268.41 1185.15,-262.79 1174.62,-261.59 1176.17,-268.41"/>
</a>
</g>
</g>
<!-- Node21 -->
<g id="Node000021" class="node">
<title>Node21</title>
<g id="a_Node000021"><a xlink:href="Velocity_8hpp.html" target="_top" xlink:title=" ">
<polygon fill="white" stroke="#666666" points="440.27,-262 315.52,-262 315.52,-230 440.27,-230 440.27,-262"/>
<text xml:space="preserve" text-anchor="start" x="323.52" y="-248.5" font-family="Helvetica,sans-Serif" font-size="10.00">../../../components</text>
<text xml:space="preserve" text-anchor="middle" x="377.9" y="-236.5" font-family="Helvetica,sans-Serif" font-size="10.00">/velocity/src/Velocity.hpp</text>
</a>
</g>
</g>
<!-- Node1&#45;&gt;Node21 -->
<g id="edge34_Node000001_Node000021" class="edge">
<title>Node1&#45;&gt;Node21</title>
<g id="a_edge34_Node000001_Node000021"><a xlink:title=" ">
<path fill="none" stroke="#63b8ff" d="M739.11,-312.59C668.34,-304.74 550.07,-289.75 449.9,-268 446.16,-267.19 442.33,-266.29 438.48,-265.32"/>
<polygon fill="#63b8ff" stroke="#63b8ff" points="439.66,-262.01 429.1,-262.87 437.88,-268.79 439.66,-262.01"/>
</a>
</g>
</g>
<!-- Node22 -->
<g id="Node000022" class="node">
<title>Node22</title>
<g id="a_Node000022"><a xlink:href="Registry_8hpp.html" target="_top" xlink:title=" ">
<polygon fill="white" stroke="#666666" points="1152.15,-256 1035.65,-256 1035.65,-236 1152.15,-236 1152.15,-256"/>
<text xml:space="preserve" text-anchor="middle" x="1093.9" y="-242.5" font-family="Helvetica,sans-Serif" font-size="10.00">../../../ecs/Registry.hpp</text>
</a>
</g>
</g>
<!-- Node1&#45;&gt;Node22 -->
<g id="edge36_Node000001_Node000022" class="edge">
<title>Node1&#45;&gt;Node22</title>
<g id="a_edge36_Node000001_Node000022"><a xlink:title=" ">
<path fill="none" stroke="#63b8ff" d="M864.72,-305.42C908.85,-295.64 969.17,-281.79 1021.9,-268 1031.69,-265.44 1042.18,-262.5 1052.03,-259.64"/>
<polygon fill="#63b8ff" stroke="#63b8ff" points="1052.75,-263.08 1061.37,-256.9 1050.78,-256.36 1052.75,-263.08"/>
</a>
</g>
</g>
<!-- Node30 -->
<g id="Node000030" class="node">
<title>Node30</title>
<g id="a_Node000030"><a xlink:href="System_8hpp.html" target="_top" xlink:title=" ">
<polygon fill="white" stroke="#666666" points="733.15,-188 664.65,-188 664.65,-168 733.15,-168 733.15,-188"/>
<text xml:space="preserve" text-anchor="middle" x="698.9" y="-174.5" font-family="Helvetica,sans-Serif" font-size="10.00">System.hpp</text>
</a>
</g>
</g>
<!-- Node1&#45;&gt;Node30 -->
<g id="edge60_Node000001_Node000030" class="edge">
<title>Node1&#45;&gt;Node30</title>
<g id="a_edge60_Node000001_Node000030"><a xlink:title=" ">
<path fill="none" stroke="#63b8ff" d="M864.62,-310.16C912.83,-301.93 973.68,-287.92 988.9,-268 1000.77,-252.46 1001.67,-238.81 988.9,-224 953.4,-182.82 800.52,-197.01 746.9,-188 746.08,-187.86 745.26,-187.72 744.43,-187.58"/>
<polygon fill="#63b8ff" stroke="#63b8ff" points="745.43,-184.2 734.97,-185.91 744.21,-191.1 745.43,-184.2"/>
</a>
</g>
</g>
<!-- Node5&#45;&gt;Node2 -->
<g id="edge5_Node000005_Node000002" class="edge">
<title>Node5&#45;&gt;Node2</title>
<g id="a_edge5_Node000005_Node000002"><a xlink:title=" ">
<path fill="none" stroke="#63b8ff" d="M89.93,-229.52C88.49,-218.06 86.52,-202.06 84.9,-188 78.38,-131.35 71.39,-64.42 67.99,-31.45"/>
<polygon fill="#63b8ff" stroke="#63b8ff" points="71.5,-31.31 66.99,-21.72 64.53,-32.03 71.5,-31.31"/>
</a>
</g>
</g>
<!-- Node6 -->
<g id="Node000006" class="node">
<title>Node6</title>
<g id="a_Node000006"><a xlink:title=" ">
<polygon fill="#e0e0e0" stroke="#999999" points="139.52,-188 94.27,-188 94.27,-168 139.52,-168 139.52,-188"/>
<text xml:space="preserve" text-anchor="middle" x="116.9" y="-174.5" font-family="Helvetica,sans-Serif" font-size="10.00">variant</text>
</a>
</g>
</g>
<!-- Node5&#45;&gt;Node6 -->
<g id="edge6_Node000005_Node000006" class="edge">
<title>Node5&#45;&gt;Node6</title>
<g id="a_edge6_Node000005_Node000006"><a xlink:title=" ">
<path fill="none" stroke="#63b8ff" d="M97.7,-229.69C101.18,-220.5 105.65,-208.7 109.4,-198.8"/>
<polygon fill="#63b8ff" stroke="#63b8ff" points="112.57,-200.32 112.83,-189.73 106.02,-197.84 112.57,-200.32"/>
</a>
</g>
</g>
<!-- Node7 -->
<g id="Node000007" class="node">
<title>Node7</title>
<g id="a_Node000007"><a xlink:href="Component_8hpp.html" target="_top" xlink:title=" ">
<polygon fill="white" stroke="#666666" points="571.27,-188 440.52,-188 440.52,-168 571.27,-168 571.27,-188"/>
<text xml:space="preserve" text-anchor="middle" x="505.9" y="-174.5" font-family="Helvetica,sans-Serif" font-size="10.00">../../../ecs/Component.hpp</text>
</a>
</g>
</g>
<!-- Node5&#45;&gt;Node7 -->
<g id="edge7_Node000005_Node000007" class="edge">
<title>Node5&#45;&gt;Node7</title>
<g id="a_edge7_Node000005_Node000007"><a xlink:title=" ">
<path fill="none" stroke="#63b8ff" d="M139.83,-229.51C147.17,-227.46 154.7,-225.54 161.9,-224 252.56,-204.6 358.57,-192.26 428.69,-185.51"/>
<polygon fill="#63b8ff" stroke="#63b8ff" points="428.92,-189 438.55,-184.57 428.26,-182.03 428.92,-189"/>
</a>
</g>
</g>
<!-- Node11 -->
<g id="Node000011" class="node">
<title>Node11</title>
<g id="a_Node000011"><a xlink:href="utils_8hpp.html" target="_top" xlink:title=" ">
<polygon fill="white" stroke="#666666" points="283.15,-188 184.65,-188 184.65,-168 283.15,-168 283.15,-188"/>
<text xml:space="preserve" text-anchor="middle" x="233.9" y="-174.5" font-family="Helvetica,sans-Serif" font-size="10.00">../../../ecs/utils.hpp</text>
</a>
</g>
</g>
<!-- Node5&#45;&gt;Node11 -->
<g id="edge13_Node000005_Node000011" class="edge">
<title>Node5&#45;&gt;Node11</title>
<g id="a_edge13_Node000005_Node000011"><a xlink:title=" ">
<path fill="none" stroke="#63b8ff" d="M125.19,-229.53C148.83,-218.54 180.32,-203.9 203.32,-193.21"/>
<polygon fill="#63b8ff" stroke="#63b8ff" points="204.58,-196.49 212.17,-189.1 201.63,-190.14 204.58,-196.49"/>
</a>
</g>
</g>
<!-- Node8 -->
<g id="Node000008" class="node">
<title>Node8</title>
<g id="a_Node000008"><a xlink:title=" ">
<polygon fill="#e0e0e0" stroke="#999999" points="570.52,-132 519.27,-132 519.27,-112 570.52,-112 570.52,-132"/>
<text xml:space="preserve" text-anchor="middle" x="544.9" y="-118.5" font-family="Helvetica,sans-Serif" font-size="10.00">memory</text>
</a>
</g>
</g>
<!-- Node7&#45;&gt;Node8 -->
<g id="edge8_Node000007_Node000008" class="edge">
<title>Node7&#45;&gt;Node8</title>
<g id="a_edge8_Node000007_Node000008"><a xlink:title=" ">
<path fill="none" stroke="#63b8ff" d="M512.69,-167.59C517.89,-160.39 525.23,-150.23 531.59,-141.43"/>
<polygon fill="#63b8ff" stroke="#63b8ff" points="534.28,-143.68 537.3,-133.53 528.61,-139.58 534.28,-143.68"/>
</a>
</g>
</g>
<!-- Node9 -->
<g id="Node000009" class="node">
<title>Node9</title>
<g id="a_Node000009"><a xlink:title=" ">
<polygon fill="#e0e0e0" stroke="#999999" points="637.9,-76 597.9,-76 597.9,-56 637.9,-56 637.9,-76"/>
<text xml:space="preserve" text-anchor="middle" x="617.9" y="-62.5" font-family="Helvetica,sans-Serif" font-size="10.00">string</text>
</a>
</g>
</g>
<!-- Node7&#45;&gt;Node9 -->
<g id="edge9_Node000007_Node000009" class="edge">
<title>Node7&#45;&gt;Node9</title>
<g id="a_edge9_Node000007_Node000009"><a xlink:title=" ">
<path fill="none" stroke="#63b8ff" d="M495.85,-167.52C483.01,-154.25 463.92,-129.76 476.9,-112 501.81,-77.91 552.83,-69.04 586.18,-67.06"/>
<polygon fill="#63b8ff" stroke="#63b8ff" points="586.22,-70.56 596.08,-66.67 585.95,-63.57 586.22,-70.56"/>
</a>
</g>
</g>
<!-- Node10 -->
<g id="Node000010" class="node">
<title>Node10</title>
<g id="a_Node000010"><a xlink:href="Types_8hpp.html" target="_top" xlink:title="Core type definitions used throughout the ECS (Entity Component System).">
<polygon fill="white" stroke="#666666" points="738.4,-76 677.4,-76 677.4,-56 738.4,-56 738.4,-76"/>
<text xml:space="preserve" text-anchor="middle" x="707.9" y="-62.5" font-family="Helvetica,sans-Serif" font-size="10.00">Types.hpp</text>
</a>
</g>
</g>
<!-- Node7&#45;&gt;Node10 -->
<g id="edge10_Node000007_Node000010" class="edge">
<title>Node7&#45;&gt;Node10</title>
<g id="a_edge10_Node000007_Node000010"><a xlink:title=" ">
<path fill="none" stroke="#63b8ff" d="M503.37,-167.78C500.17,-153.92 496.57,-127.68 509.9,-112 520,-100.12 610.7,-83.17 665.78,-73.83"/>
<polygon fill="#63b8ff" stroke="#63b8ff" points="666.17,-77.31 675.46,-72.21 665.01,-70.41 666.17,-77.31"/>
</a>
</g>
</g>
<!-- Node10&#45;&gt;Node2 -->
<g id="edge11_Node000010_Node000002" class="edge">
<title>Node10&#45;&gt;Node2</title>
<g id="a_edge11_Node000010_Node000002"><a xlink:title=" ">
<path fill="none" stroke="#63b8ff" d="M676.92,-60.01C667.32,-58.57 656.69,-57.1 646.9,-56 437.81,-32.51 185.01,-17.49 97.5,-12.68"/>
<polygon fill="#63b8ff" stroke="#63b8ff" points="97.96,-9.2 87.78,-12.15 97.58,-16.19 97.96,-9.2"/>
</a>
</g>
</g>
<!-- Node10&#45;&gt;Node3 -->
<g id="edge12_Node000010_Node000003" class="edge">
<title>Node10&#45;&gt;Node3</title>
<g id="a_edge12_Node000010_Node000003"><a xlink:title=" ">
<path fill="none" stroke="#63b8ff" d="M738.74,-57.95C742.16,-57.25 745.6,-56.59 748.9,-56 856.22,-36.94 984.43,-21.55 1044.56,-14.76"/>
<polygon fill="#63b8ff" stroke="#63b8ff" points="1044.94,-18.24 1054.49,-13.65 1044.16,-11.28 1044.94,-18.24"/>
</a>
</g>
</g>
<!-- Node12&#45;&gt;Node7 -->
<g id="edge15_Node000012_Node000007" class="edge">
<title>Node12&#45;&gt;Node7</title>
<g id="a_edge15_Node000012_Node000007"><a xlink:title=" ">
<path fill="none" stroke="#63b8ff" d="M518.96,-229.69C516.64,-220.7 513.68,-209.21 511.17,-199.44"/>
<polygon fill="#63b8ff" stroke="#63b8ff" points="514.56,-198.59 508.68,-189.78 507.78,-200.34 514.56,-198.59"/>
</a>
</g>
</g>
<!-- Node13&#45;&gt;Node7 -->
<g id="edge17_Node000013_Node000007" class="edge">
<title>Node13&#45;&gt;Node7</title>
<g id="a_edge17_Node000013_Node000007"><a xlink:title=" ">
<path fill="none" stroke="#63b8ff" d="M629.15,-229.53C601.99,-218.39 565.68,-203.51 539.51,-192.78"/>
<polygon fill="#63b8ff" stroke="#63b8ff" points="540.96,-189.59 530.38,-189.03 538.3,-196.07 540.96,-189.59"/>
</a>
</g>
</g>
<!-- Node14&#45;&gt;Node7 -->
<g id="edge19_Node000014_Node000007" class="edge">
<title>Node14&#45;&gt;Node7</title>
<g id="a_edge19_Node000014_Node000007"><a xlink:title=" ">
<path fill="none" stroke="#63b8ff" d="M756.29,-229.5C749.82,-227.53 743.22,-225.63 736.9,-224 683.35,-210.19 621.86,-198.4 575.79,-190.36"/>
<polygon fill="#63b8ff" stroke="#63b8ff" points="576.66,-186.96 566.21,-188.71 575.47,-193.86 576.66,-186.96"/>
</a>
</g>
</g>
<!-- Node15&#45;&gt;Node4 -->
<g id="edge22_Node000015_Node000004" class="edge">
<title>Node15&#45;&gt;Node4</title>
<g id="a_edge22_Node000015_Node000004"><a xlink:title=" ">
<path fill="none" stroke="#63b8ff" d="M948.31,-223.91C969.07,-201.92 1001.55,-165.99 1025.9,-132 1036.49,-117.22 1046.78,-99.32 1053.98,-86.05"/>
<polygon fill="#63b8ff" stroke="#63b8ff" points="1056.93,-87.97 1058.53,-77.49 1050.75,-84.68 1056.93,-87.97"/>
</a>
</g>
</g>
<!-- Node15&#45;&gt;Node7 -->
<g id="edge23_Node000015_Node000007" class="edge">
<title>Node15&#45;&gt;Node7</title>
<g id="a_edge23_Node000015_Node000007"><a xlink:title=" ">
<path fill="none" stroke="#63b8ff" d="M875.53,-226.2C872.63,-225.4 869.74,-224.66 866.9,-224 853.24,-220.83 684.8,-200.4 582.9,-188.19"/>
<polygon fill="#63b8ff" stroke="#63b8ff" points="583.59,-184.74 573.24,-187.03 582.75,-191.69 583.59,-184.74"/>
</a>
</g>
</g>
<!-- Node15&#45;&gt;Node9 -->
<g id="edge21_Node000015_Node000009" class="edge">
<title>Node15&#45;&gt;Node9</title>
<g id="a_edge21_Node000015_Node000009"><a xlink:title=" ">
<path fill="none" stroke="#63b8ff" d="M875.83,-226.45C872.82,-225.57 869.83,-224.75 866.9,-224 774.73,-200.44 727.56,-250.57 655.9,-188 626.69,-162.5 619.68,-114.82 618.16,-87.55"/>
<polygon fill="#63b8ff" stroke="#63b8ff" points="621.66,-87.68 617.83,-77.81 614.67,-87.92 621.66,-87.68"/>
</a>
</g>
</g>
<!-- Node16&#45;&gt;Node7 -->
<g id="edge25_Node000016_Node000007" class="edge">
<title>Node16&#45;&gt;Node7</title>
<g id="a_edge25_Node000016_Node000007"><a xlink:title=" ">
<path fill="none" stroke="#63b8ff" d="M286.04,-229.61C293.03,-227.66 300.13,-225.74 306.9,-224 354.78,-211.71 409.59,-199.45 449.55,-190.83"/>
<polygon fill="#63b8ff" stroke="#63b8ff" points="450.15,-194.29 459.19,-188.77 448.68,-187.44 450.15,-194.29"/>
</a>
</g>
</g>
<!-- Node16&#45;&gt;Node11 -->
<g id="edge26_Node000016_Node000011" class="edge">
<title>Node16&#45;&gt;Node11</title>
<g id="a_edge26_Node000016_Node000011"><a xlink:title=" ">
<path fill="none" stroke="#63b8ff" d="M233.9,-229.69C233.9,-220.8 233.9,-209.46 233.9,-199.77"/>
<polygon fill="#63b8ff" stroke="#63b8ff" points="237.4,-199.83 233.9,-189.83 230.4,-199.83 237.4,-199.83"/>
</a>
</g>
</g>
<!-- Node17&#45;&gt;Node4 -->
<g id="edge31_Node000017_Node000004" class="edge">
<title>Node17&#45;&gt;Node4</title>
<g id="a_edge31_Node000017_Node000004"><a xlink:title=" ">
<path fill="none" stroke="#63b8ff" d="M1256.98,-229.92C1275.25,-203.06 1306.96,-146.52 1277.9,-112 1255.06,-84.86 1151.54,-73.36 1097.29,-69.14"/>
<polygon fill="#63b8ff" stroke="#63b8ff" points="1097.63,-65.65 1087.4,-68.41 1097.11,-72.63 1097.63,-65.65"/>
</a>
</g>
</g>
<!-- Node17&#45;&gt;Node7 -->
<g id="edge32_Node000017_Node000007" class="edge">
<title>Node17&#45;&gt;Node7</title>
<g id="a_edge32_Node000017_Node000007"><a xlink:title=" ">
<path fill="none" stroke="#63b8ff" d="M1189.02,-229.51C1179.68,-227.38 1170.06,-225.44 1160.9,-224 1132.78,-219.59 749.63,-194.66 582.71,-183.92"/>
<polygon fill="#63b8ff" stroke="#63b8ff" points="583.27,-180.45 573.07,-183.3 582.82,-187.43 583.27,-180.45"/>
</a>
</g>
</g>
<!-- Node17&#45;&gt;Node11 -->
<g id="edge33_Node000017_Node000011" class="edge">
<title>Node17&#45;&gt;Node11</title>
<g id="a_edge33_Node000017_Node000011"><a xlink:title=" ">
<path fill="none" stroke="#63b8ff" d="M1189.97,-229.55C1180.33,-227.36 1170.37,-225.39 1160.9,-224 1139.43,-220.86 497.55,-191.13 294.71,-181.79"/>
<polygon fill="#63b8ff" stroke="#63b8ff" points="295.06,-178.31 284.91,-181.34 294.74,-185.3 295.06,-178.31"/>
</a>
</g>
</g>
<!-- Node18 -->
<g id="Node000018" class="node">
<title>Node18</title>
<g id="a_Node000018"><a xlink:title=" ">
<polygon fill="#e0e0e0" stroke="#999999" points="1375.02,-188 1326.77,-188 1326.77,-168 1375.02,-168 1375.02,-188"/>
<text xml:space="preserve" text-anchor="middle" x="1350.9" y="-174.5" font-family="Helvetica,sans-Serif" font-size="10.00">cstddef</text>
</a>
</g>
</g>
<!-- Node17&#45;&gt;Node18 -->
<g id="edge28_Node000017_Node000018" class="edge">
<title>Node17&#45;&gt;Node18</title>
<g id="a_edge28_Node000017_Node000018"><a xlink:title=" ">
<path fill="none" stroke="#63b8ff" d="M1270.52,-229.53C1287.28,-218.99 1309.39,-205.09 1326.18,-194.54"/>
<polygon fill="#63b8ff" stroke="#63b8ff" points="1327.96,-197.55 1334.57,-189.27 1324.24,-191.62 1327.96,-197.55"/>
</a>
</g>
</g>
<!-- Node19 -->
<g id="Node000019" class="node">
<title>Node19</title>
<g id="a_Node000019"><a xlink:title=" ">
<polygon fill="#e0e0e0" stroke="#999999" points="1270.65,-188 1217.15,-188 1217.15,-168 1270.65,-168 1270.65,-188"/>
<text xml:space="preserve" text-anchor="middle" x="1243.9" y="-174.5" font-family="Helvetica,sans-Serif" font-size="10.00">iostream</text>
</a>
</g>
</g>
<!-- Node17&#45;&gt;Node19 -->
<g id="edge29_Node000017_Node000019" class="edge">
<title>Node17&#45;&gt;Node19</title>
<g id="a_edge29_Node000017_Node000019"><a xlink:title=" ">
<path fill="none" stroke="#63b8ff" d="M1245.44,-229.69C1245.17,-220.8 1244.82,-209.46 1244.53,-199.77"/>
<polygon fill="#63b8ff" stroke="#63b8ff" points="1248.03,-199.72 1244.23,-189.83 1241.03,-199.93 1248.03,-199.72"/>
</a>
</g>
</g>
<!-- Node20 -->
<g id="Node000020" class="node">
<title>Node20</title>
<g id="a_Node000020"><a xlink:title=" ">
<polygon fill="#e0e0e0" stroke="#999999" points="1432.52,-188 1393.27,-188 1393.27,-168 1432.52,-168 1432.52,-188"/>
<text xml:space="preserve" text-anchor="middle" x="1412.9" y="-174.5" font-family="Helvetica,sans-Serif" font-size="10.00">utility</text>
</a>
</g>
</g>
<!-- Node17&#45;&gt;Node20 -->
<g id="edge30_Node000017_Node000020" class="edge">
<title>Node17&#45;&gt;Node20</title>
<g id="a_edge30_Node000017_Node000020"><a xlink:title=" ">
<path fill="none" stroke="#63b8ff" d="M1285.05,-229.53C1314.88,-217.74 1355.34,-201.75 1382.69,-190.94"/>
<polygon fill="#63b8ff" stroke="#63b8ff" points="1383.77,-194.28 1391.78,-187.35 1381.2,-187.77 1383.77,-194.28"/>
</a>
</g>
</g>
<!-- Node21&#45;&gt;Node7 -->
<g id="edge35_Node000021_Node000007" class="edge">
<title>Node21&#45;&gt;Node7</title>
<g id="a_edge35_Node000021_Node000007"><a xlink:title=" ">
<path fill="none" stroke="#63b8ff" d="M407.91,-229.53C428.93,-218.69 456.83,-204.3 477.49,-193.65"/>
<polygon fill="#63b8ff" stroke="#63b8ff" points="478.92,-196.85 486.21,-189.15 475.72,-190.63 478.92,-196.85"/>
</a>
</g>
</g>
<!-- Node22&#45;&gt;Node4 -->
<g id="edge40_Node000022_Node000004" class="edge">
<title>Node22&#45;&gt;Node4</title>
<g id="a_edge40_Node000022_Node000004"><a xlink:title=" ">
<path fill="none" stroke="#63b8ff" d="M1085.68,-235.74C1076.83,-225.09 1063.3,-206.66 1057.9,-188 1055.43,-179.46 1057.64,-176.88 1057.9,-168 1058.72,-140.21 1060.82,-108.19 1062.3,-87.78"/>
<polygon fill="#63b8ff" stroke="#63b8ff" points="1065.78,-88.2 1063.04,-77.97 1058.8,-87.68 1065.78,-88.2"/>
</a>
</g>
</g>
<!-- Node22&#45;&gt;Node8 -->
<g id="edge39_Node000022_Node000008" class="edge">
<title>Node22&#45;&gt;Node8</title>
<g id="a_edge39_Node000022_Node000008"><a xlink:title=" ">
<path fill="none" stroke="#63b8ff" d="M1051.14,-235.54C1032.15,-231.58 1009.48,-227.16 988.9,-224 841.77,-201.38 797.26,-234.65 655.9,-188 622.21,-176.88 587.6,-154.54 566.17,-139.18"/>
<polygon fill="#63b8ff" stroke="#63b8ff" points="568.39,-136.47 558.26,-133.37 564.25,-142.11 568.39,-136.47"/>
</a>
</g>
</g>
<!-- Node22&#45;&gt;Node10 -->
<g id="edge59_Node000022_Node000010" class="edge">
<title>Node22&#45;&gt;Node10</title>
<g id="a_edge59_Node000022_Node000010"><a xlink:title=" ">
<path fill="none" stroke="#63b8ff" d="M1057.65,-235.58C970.99,-212.8 757.21,-154.92 732.9,-132 720.51,-120.33 714.19,-101.84 711.01,-87.56"/>
<polygon fill="#63b8ff" stroke="#63b8ff" points="714.47,-87.06 709.22,-77.86 707.59,-88.33 714.47,-87.06"/>
</a>
</g>
</g>
<!-- Node22&#45;&gt;Node19 -->
<g id="edge38_Node000022_Node000019" class="edge">
<title>Node22&#45;&gt;Node19</title>
<g id="a_edge38_Node000022_Node000019"><a xlink:title=" ">
<path fill="none" stroke="#63b8ff" d="M1115.39,-235.54C1140.68,-224.42 1182.89,-205.84 1212,-193.04"/>
<polygon fill="#63b8ff" stroke="#63b8ff" points="1213.32,-196.28 1221.06,-189.05 1210.5,-189.87 1213.32,-196.28"/>
</a>
</g>
</g>
<!-- Node23 -->
<g id="Node000023" class="node">
<title>Node23</title>
<g id="a_Node000023"><a xlink:title=" ">
<polygon fill="#e0e0e0" stroke="#999999" points="1122.77,-188 1067.02,-188 1067.02,-168 1122.77,-168 1122.77,-188"/>
<text xml:space="preserve" text-anchor="middle" x="1094.9" y="-174.5" font-family="Helvetica,sans-Serif" font-size="10.00">algorithm</text>
</a>
</g>
</g>
<!-- Node22&#45;&gt;Node23 -->
<g id="edge37_Node000022_Node000023" class="edge">
<title>Node22&#45;&gt;Node23</title>
<g id="a_edge37_Node000022_Node000023"><a xlink:title=" ">
<path fill="none" stroke="#63b8ff" d="M1094.04,-235.54C1094.18,-226.23 1094.4,-211.7 1094.59,-199.7"/>
<polygon fill="#63b8ff" stroke="#63b8ff" points="1098.08,-200 1094.73,-189.95 1091.08,-199.9 1098.08,-200"/>
</a>
</g>
</g>
<!-- Node24 -->
<g id="Node000024" class="node">
<title>Node24</title>
<g id="a_Node000024"><a xlink:href="Clock_8hpp.html" target="_top" xlink:title=" ">
<polygon fill="white" stroke="#666666" points="1269.02,-132 1208.77,-132 1208.77,-112 1269.02,-112 1269.02,-132"/>
<text xml:space="preserve" text-anchor="middle" x="1238.9" y="-118.5" font-family="Helvetica,sans-Serif" font-size="10.00">Clock.hpp</text>
</a>
</g>
</g>
<!-- Node22&#45;&gt;Node24 -->
<g id="edge41_Node000022_Node000024" class="edge">
<title>Node22&#45;&gt;Node24</title>
<g id="a_edge41_Node000022_Node000024"><a xlink:title=" ">
<path fill="none" stroke="#63b8ff" d="M1104.8,-235.83C1129.15,-215.34 1188.27,-165.6 1219.24,-139.54"/>
<polygon fill="#63b8ff" stroke="#63b8ff" points="1221.32,-142.37 1226.72,-133.25 1216.81,-137.01 1221.32,-142.37"/>
</a>
</g>
</g>
<!-- Node25 -->
<g id="Node000025" class="node">
<title>Node25</title>
<g id="a_Node000025"><a xlink:href="ComponentRegistry_8hpp.html" target="_top" xlink:title=" ">
<polygon fill="white" stroke="#666666" points="862.4,-132 741.4,-132 741.4,-112 862.4,-112 862.4,-132"/>
<text xml:space="preserve" text-anchor="middle" x="801.9" y="-118.5" font-family="Helvetica,sans-Serif" font-size="10.00">ComponentRegistry.hpp</text>
</a>
</g>
</g>
<!-- Node22&#45;&gt;Node25 -->
<g id="edge43_Node000022_Node000025" class="edge">
<title>Node22&#45;&gt;Node25</title>
<g id="a_edge43_Node000022_Node000025"><a xlink:title=" ">
<path fill="none" stroke="#63b8ff" d="M1071.47,-235.63C1020.3,-214.25 894.75,-161.79 834.8,-136.75"/>
<polygon fill="#63b8ff" stroke="#63b8ff" points="836.38,-133.61 825.8,-132.99 833.68,-140.07 836.38,-133.61"/>
</a>
</g>
</g>
<!-- Node28 -->
<g id="Node000028" class="node">
<title>Node28</title>
<g id="a_Node000028"><a xlink:href="EntityManager_8hpp.html" target="_top" xlink:title=" ">
<polygon fill="white" stroke="#666666" points="1016.77,-132 919.02,-132 919.02,-112 1016.77,-112 1016.77,-132"/>
<text xml:space="preserve" text-anchor="middle" x="967.9" y="-118.5" font-family="Helvetica,sans-Serif" font-size="10.00">EntityManager.hpp</text>
</a>
</g>
</g>
<!-- Node22&#45;&gt;Node28 -->
<g id="edge49_Node000022_Node000028" class="edge">
<title>Node22&#45;&gt;Node28</title>
<g id="a_edge49_Node000022_Node000028"><a xlink:title=" ">
<path fill="none" stroke="#63b8ff" d="M1081.43,-235.68C1067.21,-224.82 1043.52,-206.08 1024.9,-188 1009.48,-173.02 993.47,-154.46 982.36,-141.01"/>
<polygon fill="#63b8ff" stroke="#63b8ff" points="985.2,-138.95 976.17,-133.42 979.77,-143.38 985.2,-138.95"/>
</a>
</g>
</g>
<!-- Node29 -->
<g id="Node000029" class="node">
<title>Node29</title>
<g id="a_Node000029"><a xlink:href="SparseSet_8hpp.html" target="_top" xlink:title=" ">
<polygon fill="white" stroke="#666666" points="1191.15,-132 1110.65,-132 1110.65,-112 1191.15,-112 1191.15,-132"/>
<text xml:space="preserve" text-anchor="middle" x="1150.9" y="-118.5" font-family="Helvetica,sans-Serif" font-size="10.00">SparseSet.hpp</text>
</a>
</g>
</g>
<!-- Node22&#45;&gt;Node29 -->
<g id="edge52_Node000022_Node000029" class="edge">
<title>Node22&#45;&gt;Node29</title>
<g id="a_edge52_Node000022_Node000029"><a xlink:title=" ">
<path fill="none" stroke="#63b8ff" d="M1101.29,-235.84C1109.73,-225 1123.46,-206.11 1131.9,-188 1138.6,-173.63 1143.51,-156.35 1146.66,-143.23"/>
<polygon fill="#63b8ff" stroke="#63b8ff" points="1150.05,-144.14 1148.81,-133.62 1143.21,-142.61 1150.05,-144.14"/>
</a>
</g>
</g>
<!-- Node22&#45;&gt;Node30 -->
<g id="edge54_Node000022_Node000030" class="edge">
<title>Node22&#45;&gt;Node30</title>
<g id="a_edge54_Node000022_Node000030"><a xlink:title=" ">
<path fill="none" stroke="#63b8ff" d="M1065.43,-235.6C1052.29,-231.55 1036.43,-227.05 1021.9,-224 901.27,-198.67 868.63,-207.37 746.9,-188 746.08,-187.87 745.26,-187.74 744.43,-187.6"/>
<polygon fill="#63b8ff" stroke="#63b8ff" points="745.41,-184.22 734.96,-185.97 744.22,-191.12 745.41,-184.22"/>
</a>
</g>
</g>
<!-- Node24&#45;&gt;Node3 -->
<g id="edge42_Node000024_Node000003" class="edge">
<title>Node24&#45;&gt;Node3</title>
<g id="a_edge42_Node000024_Node000003"><a xlink:title=" ">
<path fill="none" stroke="#63b8ff" d="M1225.26,-111.62C1197.75,-92.71 1135.36,-49.82 1101.6,-26.61"/>
<polygon fill="#63b8ff" stroke="#63b8ff" points="1103.98,-23.99 1093.75,-21.21 1100.01,-29.76 1103.98,-23.99"/>
</a>
</g>
</g>
<!-- Node25&#45;&gt;Node4 -->
<g id="edge47_Node000025_Node000004" class="edge">
<title>Node25&#45;&gt;Node4</title>
<g id="a_edge47_Node000025_Node000004"><a xlink:title=" ">
<path fill="none" stroke="#63b8ff" d="M847.84,-111.53C900.22,-100.74 984.57,-83.35 1030.86,-73.81"/>
<polygon fill="#63b8ff" stroke="#63b8ff" points="1031.47,-77.26 1040.56,-71.81 1030.06,-70.4 1031.47,-77.26"/>
</a>
</g>
</g>
<!-- Node25&#45;&gt;Node9 -->
<g id="edge44_Node000025_Node000009" class="edge">
<title>Node25&#45;&gt;Node9</title>
<g id="a_edge44_Node000025_Node000009"><a xlink:title=" ">
<path fill="none" stroke="#63b8ff" d="M769.85,-111.59C735.95,-101.65 682.83,-86.06 649.22,-76.19"/>
<polygon fill="#63b8ff" stroke="#63b8ff" points="650.24,-72.84 639.66,-73.39 648.27,-79.56 650.24,-72.84"/>
</a>
</g>
</g>
<!-- Node25&#45;&gt;Node10 -->
<g id="edge48_Node000025_Node000010" class="edge">
<title>Node25&#45;&gt;Node10</title>
<g id="a_edge48_Node000025_Node000010"><a xlink:title=" ">
<path fill="none" stroke="#63b8ff" d="M785.53,-111.59C771.33,-103.44 750.52,-91.48 734.02,-82"/>
<polygon fill="#63b8ff" stroke="#63b8ff" points="736.13,-79.18 725.71,-77.23 732.64,-85.25 736.13,-79.18"/>
</a>
</g>
</g>
<!-- Node26 -->
<g id="Node000026" class="node">
<title>Node26</title>
<g id="a_Node000026"><a xlink:title=" ">
<polygon fill="#e0e0e0" stroke="#999999" points="915.9,-76 857.9,-76 857.9,-56 915.9,-56 915.9,-76"/>
<text xml:space="preserve" text-anchor="middle" x="886.9" y="-62.5" font-family="Helvetica,sans-Serif" font-size="10.00">typeindex</text>
</a>
</g>
</g>
<!-- Node25&#45;&gt;Node26 -->
<g id="edge45_Node000025_Node000026" class="edge">
<title>Node25&#45;&gt;Node26</title>
<g id="a_edge45_Node000025_Node000026"><a xlink:title=" ">
<path fill="none" stroke="#63b8ff" d="M816.71,-111.59C829.3,-103.59 847.65,-91.93 862.43,-82.54"/>
<polygon fill="#63b8ff" stroke="#63b8ff" points="864.14,-85.61 870.7,-77.29 860.38,-79.7 864.14,-85.61"/>
</a>
</g>
</g>
<!-- Node27 -->
<g id="Node000027" class="node">
<title>Node27</title>
<g id="a_Node000027"><a xlink:title=" ">
<polygon fill="#e0e0e0" stroke="#999999" points="840.27,-76 757.52,-76 757.52,-56 840.27,-56 840.27,-76"/>
<text xml:space="preserve" text-anchor="middle" x="798.9" y="-62.5" font-family="Helvetica,sans-Serif" font-size="10.00">unordered_map</text>
</a>
</g>
</g>
<!-- Node25&#45;&gt;Node27 -->
<g id="edge46_Node000025_Node000027" class="edge">
<title>Node25&#45;&gt;Node27</title>
<g id="a_edge46_Node000025_Node000027"><a xlink:title=" ">
<path fill="none" stroke="#63b8ff" d="M801.38,-111.59C801.01,-105.01 800.51,-95.96 800.05,-87.73"/>
<polygon fill="#63b8ff" stroke="#63b8ff" points="803.55,-87.6 799.5,-77.81 796.56,-87.99 803.55,-87.6"/>
</a>
</g>
</g>
<!-- Node28&#45;&gt;Node3 -->
<g id="edge50_Node000028_Node000003" class="edge">
<title>Node28&#45;&gt;Node3</title>
<g id="a_edge50_Node000028_Node000003"><a xlink:title=" ">
<path fill="none" stroke="#63b8ff" d="M977.36,-111.62C995.96,-93.19 1037.52,-52.01 1061.3,-28.44"/>
<polygon fill="#63b8ff" stroke="#63b8ff" points="1063.75,-30.95 1068.38,-21.42 1058.82,-25.97 1063.75,-30.95"/>
</a>
</g>
</g>
<!-- Node28&#45;&gt;Node4 -->
<g id="edge51_Node000028_Node000004" class="edge">
<title>Node28&#45;&gt;Node4</title>
<g id="a_edge51_Node000028_Node000004"><a xlink:title=" ">
<path fill="none" stroke="#63b8ff" d="M984.62,-111.59C999.12,-103.44 1020.37,-91.48 1037.22,-82"/>
<polygon fill="#63b8ff" stroke="#63b8ff" points="1038.73,-85.17 1045.73,-77.22 1035.3,-79.07 1038.73,-85.17"/>
</a>
</g>
</g>
<!-- Node29&#45;&gt;Node4 -->
<g id="edge53_Node000029_Node000004" class="edge">
<title>Node29&#45;&gt;Node4</title>
<g id="a_edge53_Node000029_Node000004"><a xlink:title=" ">
<path fill="none" stroke="#63b8ff" d="M1135.75,-111.59C1122.85,-103.59 1104.07,-91.93 1088.94,-82.54"/>
<polygon fill="#63b8ff" stroke="#63b8ff" points="1090.8,-79.58 1080.46,-77.28 1087.11,-85.53 1090.8,-79.58"/>
</a>
</g>
</g>
<!-- Node30&#45;&gt;Node4 -->
<g id="edge56_Node000030_Node000004" class="edge">
<title>Node30&#45;&gt;Node4</title>
<g id="a_edge56_Node000030_Node000004"><a xlink:title=" ">
<path fill="none" stroke="#63b8ff" d="M733.44,-170.46C768.89,-163.19 825.31,-150.04 871.9,-132 889.7,-125.11 892.21,-119.16 909.9,-112 950.6,-95.53 999.57,-82.28 1031.19,-74.53"/>
<polygon fill="#63b8ff" stroke="#63b8ff" points="1031.64,-78.03 1040.54,-72.28 1030,-71.22 1031.64,-78.03"/>
</a>
</g>
</g>
<!-- Node30&#45;&gt;Node9 -->
<g id="edge55_Node000030_Node000009" class="edge">
<title>Node30&#45;&gt;Node9</title>
<g id="a_edge55_Node000030_Node000009"><a xlink:title=" ">
<path fill="none" stroke="#63b8ff" d="M691.99,-167.62C678.6,-149.44 648.9,-109.09 631.44,-85.38"/>
<polygon fill="#63b8ff" stroke="#63b8ff" points="634.43,-83.55 625.69,-77.57 628.8,-87.7 634.43,-83.55"/>
</a>
</g>
</g>
<!-- Node30&#45;&gt;Node10 -->
<g id="edge58_Node000030_Node000010" class="edge">
<title>Node30&#45;&gt;Node10</title>
<g id="a_edge58_Node000030_Node000010"><a xlink:title=" ">
<path fill="none" stroke="#63b8ff" d="M698.33,-167.71C697.68,-155.08 696.94,-131.76 698.9,-112 699.7,-103.88 701.31,-95.05 702.94,-87.38"/>
<polygon fill="#63b8ff" stroke="#63b8ff" points="706.33,-88.23 705.16,-77.7 699.51,-86.67 706.33,-88.23"/>
</a>
</g>
</g>
<!-- Node30&#45;&gt;Node25 -->
<g id="edge57_Node000030_Node000025" class="edge">
<title>Node30&#45;&gt;Node25</title>
<g id="a_edge57_Node000030_Node000025"><a xlink:title=" ">
<path fill="none" stroke="#63b8ff" d="M716.84,-167.59C732.55,-159.36 755.63,-147.26 773.79,-137.74"/>
<polygon fill="#63b8ff" stroke="#63b8ff" points="775.25,-140.93 782.48,-133.18 772,-134.73 775.25,-140.93"/>
</a>
</g>
</g>
</g>
</svg>
