<?xml version="1.0" encoding="UTF-8" standalone="no"?>
<!DOCTYPE svg PUBLIC "-//W3C//DTD SVG 1.1//EN"
 "http://www.w3.org/Graphics/SVG/1.1/DTD/svg11.dtd">
<!-- Generated by graphviz version 14.0.2 (0)
 -->
<!-- Title: systems/FPMotion/src/FPMotion.cpp Pages: 1 -->
<svg width="1257pt" height="388pt"
 viewBox="0.00 0.00 1257.00 388.00" xmlns="http://www.w3.org/2000/svg" xmlns:xlink="http://www.w3.org/1999/xlink">
<g id="graph0" class="graph" transform="scale(1 1) rotate(0) translate(4 384)">
<title>systems/FPMotion/src/FPMotion.cpp</title>
<!-- Node1 -->
<g id="Node000001" class="node">
<title>Node1</title>
<g id="a_Node000001"><a xlink:title=" ">
<polygon fill="#999999" stroke="#666666" points="703.62,-380 588.62,-380 588.62,-348 703.62,-348 703.62,-380"/>
<text xml:space="preserve" text-anchor="start" x="596.62" y="-366.5" font-family="Helvetica,sans-Serif" font-size="10.00">systems/FPMotion/src</text>
<text xml:space="preserve" text-anchor="middle" x="646.12" y="-354.5" font-family="Helvetica,sans-Serif" font-size="10.00">/FPMotion.cpp</text>
</a>
</g>
</g>
<!-- Node2 -->
<g id="Node000002" class="node">
<title>Node2</title>
<g id="a_Node000002"><a xlink:href="FPMotion_8hpp.html" target="_top" xlink:title=" ">
<polygon fill="white" stroke="#666666" points="684.5,-312 607.75,-312 607.75,-292 684.5,-292 684.5,-312"/>
<text xml:space="preserve" text-anchor="middle" x="646.12" y="-298.5" font-family="Helvetica,sans-Serif" font-size="10.00">FPMotion.hpp</text>
</a>
</g>
</g>
<!-- Node1&#45;&gt;Node2 -->
<g id="edge1_Node000001_Node000002" class="edge">
<title>Node1&#45;&gt;Node2</title>
<g id="a_edge1_Node000001_Node000002"><a xlink:title=" ">
<path fill="none" stroke="#63b8ff" d="M646.12,-347.55C646.12,-340.34 646.12,-331.66 646.12,-323.88"/>
<polygon fill="#63b8ff" stroke="#63b8ff" points="649.63,-323.92 646.13,-313.92 642.63,-323.92 649.63,-323.92"/>
</a>
</g>
</g>
<!-- Node3 -->
<g id="Node000003" class="node">
<title>Node3</title>
<g id="a_Node000003"><a xlink:title=" ">
<polygon fill="#e0e0e0" stroke="#999999" points="100,-188 44.25,-188 44.25,-168 100,-168 100,-188"/>
<text xml:space="preserve" text-anchor="middle" x="72.12" y="-174.5" font-family="Helvetica,sans-Serif" font-size="10.00">algorithm</text>
</a>
</g>
</g>
<!-- Node2&#45;&gt;Node3 -->
<g id="edge2_Node000002_Node000003" class="edge">
<title>Node2&#45;&gt;Node3</title>
<g id="a_edge2_Node000002_Node000003"><a xlink:title=" ">
<path fill="none" stroke="#63b8ff" d="M607.55,-298.94C515.72,-293.73 286.37,-278.79 213.12,-256 168.02,-241.96 120.88,-212.8 94.14,-194.66"/>
<polygon fill="#63b8ff" stroke="#63b8ff" points="96.4,-191.97 86.19,-189.17 92.43,-197.73 96.4,-191.97"/>
</a>
</g>
</g>
<!-- Node4 -->
<g id="Node000004" class="node">
<title>Node4</title>
<g id="a_Node000004"><a xlink:href="Acceleration_8hpp.html" target="_top" xlink:title=" ">
<polygon fill="white" stroke="#666666" points="1113,-256 949.25,-256 949.25,-224 1113,-224 1113,-256"/>
<text xml:space="preserve" text-anchor="start" x="957.25" y="-242.5" font-family="Helvetica,sans-Serif" font-size="10.00">../../../components</text>
<text xml:space="preserve" text-anchor="middle" x="1031.12" y="-230.5" font-family="Helvetica,sans-Serif" font-size="10.00">/acceleration/src/Acceleration.hpp</text>
</a>
</g>
</g>
<!-- Node2&#45;&gt;Node4 -->
<g id="edge3_Node000002_Node000004" class="edge">
<title>Node2&#45;&gt;Node4</title>
<g id="a_edge3_Node000002_Node000004"><a xlink:title=" ">
<path fill="none" stroke="#63b8ff" d="M684.67,-295.24C738.79,-287.13 840.66,-271.75 937.61,-256.39"/>
<polygon fill="#63b8ff" stroke="#63b8ff" points="937.97,-259.88 947.3,-254.85 936.87,-252.96 937.97,-259.88"/>
</a>
</g>
</g>
<!-- Node11 -->
<g id="Node000011" class="node">
<title>Node11</title>
<g id="a_Node000011"><a xlink:href="Gravity_8hpp.html" target="_top" xlink:title=" ">
<polygon fill="white" stroke="#666666" points="1248.75,-256 1131.5,-256 1131.5,-224 1248.75,-224 1248.75,-256"/>
<text xml:space="preserve" text-anchor="start" x="1139.5" y="-242.5" font-family="Helvetica,sans-Serif" font-size="10.00">../../../components</text>
<text xml:space="preserve" text-anchor="middle" x="1190.12" y="-230.5" font-family="Helvetica,sans-Serif" font-size="10.00">/gravity/src/Gravity.hpp</text>
</a>
</g>
</g>
<!-- Node2&#45;&gt;Node11 -->
<g id="edge10_Node000002_Node000011" class="edge">
<title>Node2&#45;&gt;Node11</title>
<g id="a_edge10_Node000002_Node000011"><a xlink:title=" ">
<path fill="none" stroke="#63b8ff" d="M684.89,-298.95C764.49,-294.4 952.29,-281.89 1119.97,-256.21"/>
<polygon fill="#63b8ff" stroke="#63b8ff" points="1120.4,-259.68 1129.74,-254.69 1119.32,-252.76 1120.4,-259.68"/>
</a>
</g>
</g>
<!-- Node12 -->
<g id="Node000012" class="node">
<title>Node12</title>
<g id="a_Node000012"><a xlink:href="Position_8hpp.html" target="_top" xlink:title=" ">
<polygon fill="white" stroke="#666666" points="788.25,-256 662,-256 662,-224 788.25,-224 788.25,-256"/>
<text xml:space="preserve" text-anchor="start" x="670" y="-242.5" font-family="Helvetica,sans-Serif" font-size="10.00">../../../components</text>
<text xml:space="preserve" text-anchor="middle" x="725.12" y="-230.5" font-family="Helvetica,sans-Serif" font-size="10.00">/position/src/Position.hpp</text>
</a>
</g>
</g>
<!-- Node2&#45;&gt;Node12 -->
<g id="edge12_Node000002_Node000012" class="edge">
<title>Node2&#45;&gt;Node12</title>
<g id="a_edge12_Node000002_Node000012"><a xlink:title=" ">
<path fill="none" stroke="#63b8ff" d="M658.47,-291.62C668.46,-284.04 682.93,-273.05 695.84,-263.24"/>
<polygon fill="#63b8ff" stroke="#63b8ff" points="697.83,-266.12 703.68,-257.29 693.6,-260.55 697.83,-266.12"/>
</a>
</g>
</g>
<!-- Node14 -->
<g id="Node000014" class="node">
<title>Node14</title>
<g id="a_Node000014"><a xlink:href="Renderable_8hpp.html" target="_top" xlink:title=" ">
<polygon fill="white" stroke="#666666" points="644,-256 492.25,-256 492.25,-224 644,-224 644,-256"/>
<text xml:space="preserve" text-anchor="start" x="500.25" y="-242.5" font-family="Helvetica,sans-Serif" font-size="10.00">../../../components</text>
<text xml:space="preserve" text-anchor="middle" x="568.12" y="-230.5" font-family="Helvetica,sans-Serif" font-size="10.00">/renderable/src/Renderable.hpp</text>
</a>
</g>
</g>
<!-- Node2&#45;&gt;Node14 -->
<g id="edge15_Node000002_Node000014" class="edge">
<title>Node2&#45;&gt;Node14</title>
<g id="a_edge15_Node000002_Node000014"><a xlink:title=" ">
<path fill="none" stroke="#63b8ff" d="M633.94,-291.62C624.08,-284.04 609.78,-273.05 597.04,-263.24"/>
<polygon fill="#63b8ff" stroke="#63b8ff" points="599.37,-260.62 589.31,-257.3 595.1,-266.17 599.37,-260.62"/>
</a>
</g>
</g>
<!-- Node19 -->
<g id="Node000019" class="node">
<title>Node19</title>
<g id="a_Node000019"><a xlink:href="Velocity_8hpp.html" target="_top" xlink:title=" ">
<polygon fill="white" stroke="#666666" points="931.5,-256 806.75,-256 806.75,-224 931.5,-224 931.5,-256"/>
<text xml:space="preserve" text-anchor="start" x="814.75" y="-242.5" font-family="Helvetica,sans-Serif" font-size="10.00">../../../components</text>
<text xml:space="preserve" text-anchor="middle" x="869.12" y="-230.5" font-family="Helvetica,sans-Serif" font-size="10.00">/velocity/src/Velocity.hpp</text>
</a>
</g>
</g>
<!-- Node2&#45;&gt;Node19 -->
<g id="edge22_Node000002_Node000019" class="edge">
<title>Node2&#45;&gt;Node19</title>
<g id="a_edge22_Node000002_Node000019"><a xlink:title=" ">
<path fill="none" stroke="#63b8ff" d="M680.97,-291.62C712.88,-283.04 761.03,-270.08 800.63,-259.43"/>
<polygon fill="#63b8ff" stroke="#63b8ff" points="801.34,-262.86 810.09,-256.88 799.52,-256.1 801.34,-262.86"/>
</a>
</g>
</g>
<!-- Node20 -->
<g id="Node000020" class="node">
<title>Node20</title>
<g id="a_Node000020"><a xlink:href="Registry_8hpp.html" target="_top" xlink:title=" ">
<polygon fill="white" stroke="#666666" points="338.38,-250 221.88,-250 221.88,-230 338.38,-230 338.38,-250"/>
<text xml:space="preserve" text-anchor="middle" x="280.12" y="-236.5" font-family="Helvetica,sans-Serif" font-size="10.00">../../../ecs/Registry.hpp</text>
</a>
</g>
</g>
<!-- Node2&#45;&gt;Node20 -->
<g id="edge24_Node000002_Node000020" class="edge">
<title>Node2&#45;&gt;Node20</title>
<g id="a_edge24_Node000002_Node000020"><a xlink:title=" ">
<path fill="none" stroke="#63b8ff" d="M607.3,-294.64C545.84,-284.56 425.3,-264.8 348.93,-252.28"/>
<polygon fill="#63b8ff" stroke="#63b8ff" points="349.93,-248.9 339.49,-250.73 348.8,-255.8 349.93,-248.9"/>
</a>
</g>
</g>
<!-- Node27 -->
<g id="Node000027" class="node">
<title>Node27</title>
<g id="a_Node000027"><a xlink:href="System_8hpp.html" target="_top" xlink:title=" ">
<polygon fill="white" stroke="#666666" points="376.38,-188 307.88,-188 307.88,-168 376.38,-168 376.38,-188"/>
<text xml:space="preserve" text-anchor="middle" x="342.12" y="-174.5" font-family="Helvetica,sans-Serif" font-size="10.00">System.hpp</text>
</a>
</g>
</g>
<!-- Node2&#45;&gt;Node27 -->
<g id="edge48_Node000002_Node000027" class="edge">
<title>Node2&#45;&gt;Node27</title>
<g id="a_edge48_Node000002_Node000027"><a xlink:title=" ">
<path fill="none" stroke="#63b8ff" d="M607.43,-292.97C573.87,-285.38 524.35,-272.69 483.12,-256 440.03,-238.56 393.27,-211.18 365.89,-194.2"/>
<polygon fill="#63b8ff" stroke="#63b8ff" points="368.01,-191.4 357.68,-189.05 364.29,-197.33 368.01,-191.4"/>
</a>
</g>
</g>
<!-- Node5 -->
<g id="Node000005" class="node">
<title>Node5</title>
<g id="a_Node000005"><a xlink:href="Component_8hpp.html" target="_top" xlink:title=" ">
<polygon fill="white" stroke="#666666" points="951.5,-188 820.75,-188 820.75,-168 951.5,-168 951.5,-188"/>
<text xml:space="preserve" text-anchor="middle" x="886.12" y="-174.5" font-family="Helvetica,sans-Serif" font-size="10.00">../../../ecs/Component.hpp</text>
</a>
</g>
</g>
<!-- Node4&#45;&gt;Node5 -->
<g id="edge4_Node000004_Node000005" class="edge">
<title>Node4&#45;&gt;Node5</title>
<g id="a_edge4_Node000004_Node000005"><a xlink:title=" ">
<path fill="none" stroke="#63b8ff" d="M993.78,-223.55C970.81,-214.04 941.63,-201.97 919.44,-192.79"/>
<polygon fill="#63b8ff" stroke="#63b8ff" points="920.84,-189.58 910.26,-188.99 918.16,-196.04 920.84,-189.58"/>
</a>
</g>
</g>
<!-- Node6 -->
<g id="Node000006" class="node">
<title>Node6</title>
<g id="a_Node000006"><a xlink:title=" ">
<polygon fill="#e0e0e0" stroke="#999999" points="765.75,-132 714.5,-132 714.5,-112 765.75,-112 765.75,-132"/>
<text xml:space="preserve" text-anchor="middle" x="740.12" y="-118.5" font-family="Helvetica,sans-Serif" font-size="10.00">memory</text>
</a>
</g>
</g>
<!-- Node5&#45;&gt;Node6 -->
<g id="edge5_Node000005_Node000006" class="edge">
<title>Node5&#45;&gt;Node6</title>
<g id="a_edge5_Node000005_Node000006"><a xlink:title=" ">
<path fill="none" stroke="#63b8ff" d="M860.69,-167.59C837.39,-158.97 802.63,-146.12 776.41,-136.42"/>
<polygon fill="#63b8ff" stroke="#63b8ff" points="777.77,-133.19 767.17,-133 775.34,-139.76 777.77,-133.19"/>
</a>
</g>
</g>
<!-- Node7 -->
<g id="Node000007" class="node">
<title>Node7</title>
<g id="a_Node000007"><a xlink:title=" ">
<polygon fill="#e0e0e0" stroke="#999999" points="645.12,-76 605.12,-76 605.12,-56 645.12,-56 645.12,-76"/>
<text xml:space="preserve" text-anchor="middle" x="625.12" y="-62.5" font-family="Helvetica,sans-Serif" font-size="10.00">string</text>
</a>
</g>
</g>
<!-- Node5&#45;&gt;Node7 -->
<g id="edge6_Node000005_Node000007" class="edge">
<title>Node5&#45;&gt;Node7</title>
<g id="a_edge6_Node000005_Node000007"><a xlink:title=" ">
<path fill="none" stroke="#63b8ff" d="M881.6,-167.79C874.06,-153.44 857.51,-125.98 835.12,-112 779.19,-77.06 700.3,-68.92 656.88,-67.23"/>
<polygon fill="#63b8ff" stroke="#63b8ff" points="657.23,-63.74 647.13,-66.95 657.03,-70.73 657.23,-63.74"/>
</a>
</g>
</g>
<!-- Node8 -->
<g id="Node000008" class="node">
<title>Node8</title>
<g id="a_Node000008"><a xlink:href="Types_8hpp.html" target="_top" xlink:title="Core type definitions used throughout the ECS (Entity Component System).">
<polygon fill="white" stroke="#666666" points="586.62,-76 525.62,-76 525.62,-56 586.62,-56 586.62,-76"/>
<text xml:space="preserve" text-anchor="middle" x="556.12" y="-62.5" font-family="Helvetica,sans-Serif" font-size="10.00">Types.hpp</text>
</a>
</g>
</g>
<!-- Node5&#45;&gt;Node8 -->
<g id="edge7_Node000005_Node000008" class="edge">
<title>Node5&#45;&gt;Node8</title>
<g id="a_edge7_Node000005_Node000008"><a xlink:title=" ">
<path fill="none" stroke="#63b8ff" d="M873.51,-167.71C853.63,-153.52 813.31,-126.55 775.12,-112 702.55,-84.34 677.63,-92.14 598.16,-76.32"/>
<polygon fill="#63b8ff" stroke="#63b8ff" points="599.1,-72.94 588.6,-74.35 597.69,-79.8 599.1,-72.94"/>
</a>
</g>
</g>
<!-- Node9 -->
<g id="Node000009" class="node">
<title>Node9</title>
<g id="a_Node000009"><a xlink:title=" ">
<polygon fill="#e0e0e0" stroke="#999999" points="576.12,-20 536.12,-20 536.12,0 576.12,0 576.12,-20"/>
<text xml:space="preserve" text-anchor="middle" x="556.12" y="-6.5" font-family="Helvetica,sans-Serif" font-size="10.00">bitset</text>
</a>
</g>
</g>
<!-- Node8&#45;&gt;Node9 -->
<g id="edge8_Node000008_Node000009" class="edge">
<title>Node8&#45;&gt;Node9</title>
<g id="a_edge8_Node000008_Node000009"><a xlink:title=" ">
<path fill="none" stroke="#63b8ff" d="M556.12,-55.59C556.12,-49.01 556.12,-39.96 556.12,-31.73"/>
<polygon fill="#63b8ff" stroke="#63b8ff" points="559.63,-31.81 556.13,-21.81 552.63,-31.81 559.63,-31.81"/>
</a>
</g>
</g>
<!-- Node10 -->
<g id="Node000010" class="node">
<title>Node10</title>
<g id="a_Node000010"><a xlink:title=" ">
<polygon fill="#e0e0e0" stroke="#999999" points="149.75,-20 104.5,-20 104.5,0 149.75,0 149.75,-20"/>
<text xml:space="preserve" text-anchor="middle" x="127.12" y="-6.5" font-family="Helvetica,sans-Serif" font-size="10.00">cstdint</text>
</a>
</g>
</g>
<!-- Node8&#45;&gt;Node10 -->
<g id="edge9_Node000008_Node000010" class="edge">
<title>Node8&#45;&gt;Node10</title>
<g id="a_edge9_Node000008_Node000010"><a xlink:title=" ">
<path fill="none" stroke="#63b8ff" d="M525.18,-57.7C522.13,-57.08 519.07,-56.5 516.12,-56 385.87,-33.88 229.21,-19.41 161.29,-13.72"/>
<polygon fill="#63b8ff" stroke="#63b8ff" points="161.81,-10.26 151.55,-12.92 161.23,-17.23 161.81,-10.26"/>
</a>
</g>
</g>
<!-- Node11&#45;&gt;Node5 -->
<g id="edge11_Node000011_Node000005" class="edge">
<title>Node11&#45;&gt;Node5</title>
<g id="a_edge11_Node000011_Node000005"><a xlink:title=" ">
<path fill="none" stroke="#63b8ff" d="M1131.18,-225.89C1128.12,-225.24 1125.09,-224.61 1122.12,-224 1063.69,-211.99 996.88,-199.35 949.29,-190.54"/>
<polygon fill="#63b8ff" stroke="#63b8ff" points="950.19,-187.14 939.72,-188.77 948.92,-194.03 950.19,-187.14"/>
</a>
</g>
</g>
<!-- Node12&#45;&gt;Node5 -->
<g id="edge13_Node000012_Node000005" class="edge">
<title>Node12&#45;&gt;Node5</title>
<g id="a_edge13_Node000012_Node000005"><a xlink:title=" ">
<path fill="none" stroke="#63b8ff" d="M766.59,-223.55C792.44,-213.91 825.38,-201.64 850.14,-192.41"/>
<polygon fill="#63b8ff" stroke="#63b8ff" points="851.31,-195.71 859.46,-188.94 848.87,-189.15 851.31,-195.71"/>
</a>
</g>
</g>
<!-- Node13 -->
<g id="Node000013" class="node">
<title>Node13</title>
<g id="a_Node000013"><a xlink:href="utils_8hpp.html" target="_top" xlink:title=" ">
<polygon fill="white" stroke="#666666" points="802.38,-188 703.88,-188 703.88,-168 802.38,-168 802.38,-188"/>
<text xml:space="preserve" text-anchor="middle" x="753.12" y="-174.5" font-family="Helvetica,sans-Serif" font-size="10.00">../../../ecs/utils.hpp</text>
</a>
</g>
</g>
<!-- Node12&#45;&gt;Node13 -->
<g id="edge14_Node000012_Node000013" class="edge">
<title>Node12&#45;&gt;Node13</title>
<g id="a_edge14_Node000012_Node000013"><a xlink:title=" ">
<path fill="none" stroke="#63b8ff" d="M732.34,-223.55C735.86,-216 740.14,-206.82 743.9,-198.77"/>
<polygon fill="#63b8ff" stroke="#63b8ff" points="747.04,-200.32 748.09,-189.78 740.69,-197.36 747.04,-200.32"/>
</a>
</g>
</g>
<!-- Node14&#45;&gt;Node5 -->
<g id="edge20_Node000014_Node000005" class="edge">
<title>Node14&#45;&gt;Node5</title>
<g id="a_edge20_Node000014_Node000005"><a xlink:title=" ">
<path fill="none" stroke="#63b8ff" d="M644.29,-224.63C699.47,-214.22 773.11,-200.32 824.58,-190.61"/>
<polygon fill="#63b8ff" stroke="#63b8ff" points="825.19,-194.06 834.37,-188.77 823.89,-187.18 825.19,-194.06"/>
</a>
</g>
</g>
<!-- Node14&#45;&gt;Node13 -->
<g id="edge21_Node000014_Node000013" class="edge">
<title>Node14&#45;&gt;Node13</title>
<g id="a_edge21_Node000014_Node000013"><a xlink:title=" ">
<path fill="none" stroke="#63b8ff" d="M615.77,-223.55C645.92,-213.77 684.46,-201.27 713.03,-192"/>
<polygon fill="#63b8ff" stroke="#63b8ff" points="713.97,-195.38 722.4,-188.96 711.81,-188.72 713.97,-195.38"/>
</a>
</g>
</g>
<!-- Node15 -->
<g id="Node000015" class="node">
<title>Node15</title>
<g id="a_Node000015"><a xlink:title=" ">
<polygon fill="#e0e0e0" stroke="#999999" points="628.25,-188 580,-188 580,-168 628.25,-168 628.25,-188"/>
<text xml:space="preserve" text-anchor="middle" x="604.12" y="-174.5" font-family="Helvetica,sans-Serif" font-size="10.00">cstddef</text>
</a>
</g>
</g>
<!-- Node14&#45;&gt;Node15 -->
<g id="edge16_Node000014_Node000015" class="edge">
<title>Node14&#45;&gt;Node15</title>
<g id="a_edge16_Node000014_Node000015"><a xlink:title=" ">
<path fill="none" stroke="#63b8ff" d="M577.4,-223.55C582.03,-215.82 587.69,-206.4 592.6,-198.21"/>
<polygon fill="#63b8ff" stroke="#63b8ff" points="595.56,-200.08 597.7,-189.71 589.56,-196.48 595.56,-200.08"/>
</a>
</g>
</g>
<!-- Node16 -->
<g id="Node000016" class="node">
<title>Node16</title>
<g id="a_Node000016"><a xlink:title=" ">
<polygon fill="#e0e0e0" stroke="#999999" points="523.88,-188 470.38,-188 470.38,-168 523.88,-168 523.88,-188"/>
<text xml:space="preserve" text-anchor="middle" x="497.12" y="-174.5" font-family="Helvetica,sans-Serif" font-size="10.00">iostream</text>
</a>
</g>
</g>
<!-- Node14&#45;&gt;Node16 -->
<g id="edge17_Node000014_Node000016" class="edge">
<title>Node14&#45;&gt;Node16</title>
<g id="a_edge17_Node000014_Node000016"><a xlink:title=" ">
<path fill="none" stroke="#63b8ff" d="M549.84,-223.55C539.77,-215.04 527.27,-204.48 516.97,-195.77"/>
<polygon fill="#63b8ff" stroke="#63b8ff" points="519.31,-193.17 509.41,-189.38 514.79,-198.51 519.31,-193.17"/>
</a>
</g>
</g>
<!-- Node17 -->
<g id="Node000017" class="node">
<title>Node17</title>
<g id="a_Node000017"><a xlink:title=" ">
<polygon fill="#e0e0e0" stroke="#999999" points="685.75,-188 646.5,-188 646.5,-168 685.75,-168 685.75,-188"/>
<text xml:space="preserve" text-anchor="middle" x="666.12" y="-174.5" font-family="Helvetica,sans-Serif" font-size="10.00">utility</text>
</a>
</g>
</g>
<!-- Node14&#45;&gt;Node17 -->
<g id="edge18_Node000014_Node000017" class="edge">
<title>Node14&#45;&gt;Node17</title>
<g id="a_edge18_Node000014_Node000017"><a xlink:title=" ">
<path fill="none" stroke="#63b8ff" d="M593.36,-223.55C608.11,-214.52 626.64,-203.17 641.31,-194.19"/>
<polygon fill="#63b8ff" stroke="#63b8ff" points="642.77,-197.4 649.47,-189.2 639.11,-191.43 642.77,-197.4"/>
</a>
</g>
</g>
<!-- Node18 -->
<g id="Node000018" class="node">
<title>Node18</title>
<g id="a_Node000018"><a xlink:title=" ">
<polygon fill="#e0e0e0" stroke="#999999" points="311.62,-76 268.62,-76 268.62,-56 311.62,-56 311.62,-76"/>
<text xml:space="preserve" text-anchor="middle" x="290.12" y="-62.5" font-family="Helvetica,sans-Serif" font-size="10.00">vector</text>
</a>
</g>
</g>
<!-- Node14&#45;&gt;Node18 -->
<g id="edge19_Node000014_Node000018" class="edge">
<title>Node14&#45;&gt;Node18</title>
<g id="a_edge19_Node000014_Node000018"><a xlink:title=" ">
<path fill="none" stroke="#63b8ff" d="M564.57,-223.62C560.02,-207.41 550.55,-182.29 533.12,-168 485.1,-128.63 455.29,-156.25 398.12,-132 366.79,-118.71 333.66,-97.57 312.49,-83.03"/>
<polygon fill="#63b8ff" stroke="#63b8ff" points="314.56,-80.21 304.35,-77.35 310.55,-85.95 314.56,-80.21"/>
</a>
</g>
</g>
<!-- Node19&#45;&gt;Node5 -->
<g id="edge23_Node000019_Node000005" class="edge">
<title>Node19&#45;&gt;Node5</title>
<g id="a_edge23_Node000019_Node000005"><a xlink:title=" ">
<path fill="none" stroke="#63b8ff" d="M873.5,-223.55C875.59,-216.17 878.12,-207.24 880.37,-199.32"/>
<polygon fill="#63b8ff" stroke="#63b8ff" points="883.69,-200.44 883.05,-189.86 876.95,-198.53 883.69,-200.44"/>
</a>
</g>
</g>
<!-- Node20&#45;&gt;Node3 -->
<g id="edge25_Node000020_Node000003" class="edge">
<title>Node20&#45;&gt;Node3</title>
<g id="a_edge25_Node000020_Node000003"><a xlink:title=" ">
<path fill="none" stroke="#63b8ff" d="M247.62,-229.62C210.81,-219.01 150.83,-201.7 111.42,-190.34"/>
<polygon fill="#63b8ff" stroke="#63b8ff" points="112.43,-186.98 101.85,-187.57 110.49,-193.71 112.43,-186.98"/>
</a>
</g>
</g>
<!-- Node20&#45;&gt;Node6 -->
<g id="edge27_Node000020_Node000006" class="edge">
<title>Node20&#45;&gt;Node6</title>
<g id="a_edge27_Node000020_Node000006"><a xlink:title=" ">
<path fill="none" stroke="#63b8ff" d="M307.61,-229.58C335.65,-219.81 380.28,-203.76 418.12,-188 437.58,-179.9 440.97,-174.18 461.12,-168 505.72,-154.32 638.01,-136.13 703.11,-127.68"/>
<polygon fill="#63b8ff" stroke="#63b8ff" points="703.47,-131.17 712.94,-126.42 702.58,-124.22 703.47,-131.17"/>
</a>
</g>
</g>
<!-- Node20&#45;&gt;Node8 -->
<g id="edge47_Node000020_Node000008" class="edge">
<title>Node20&#45;&gt;Node8</title>
<g id="a_edge47_Node000020_Node000008"><a xlink:title=" ">
<path fill="none" stroke="#63b8ff" d="M300.93,-229.59C322.33,-219.75 356.47,-203.6 385.12,-188 400.19,-179.8 402.32,-174.67 418.12,-168 476.92,-143.2 518.06,-182.47 557.12,-132 566.85,-119.44 565.58,-101.04 562.46,-87.02"/>
<polygon fill="#63b8ff" stroke="#63b8ff" points="565.89,-86.27 559.88,-77.54 559.13,-88.11 565.89,-86.27"/>
</a>
</g>
</g>
<!-- Node20&#45;&gt;Node16 -->
<g id="edge26_Node000020_Node000016" class="edge">
<title>Node20&#45;&gt;Node16</title>
<g id="a_edge26_Node000020_Node000016"><a xlink:title=" ">
<path fill="none" stroke="#63b8ff" d="M314.03,-229.62C353.37,-218.75 418.05,-200.86 459.07,-189.52"/>
<polygon fill="#63b8ff" stroke="#63b8ff" points="459.81,-192.95 468.51,-186.91 457.94,-186.2 459.81,-192.95"/>
</a>
</g>
</g>
<!-- Node20&#45;&gt;Node18 -->
<g id="edge28_Node000020_Node000018" class="edge">
<title>Node20&#45;&gt;Node18</title>
<g id="a_edge28_Node000020_Node000018"><a xlink:title=" ">
<path fill="none" stroke="#63b8ff" d="M269.87,-229.55C247.97,-208.18 200.39,-154.65 223.12,-112 230.69,-97.81 244.93,-87.3 258.35,-80.02"/>
<polygon fill="#63b8ff" stroke="#63b8ff" points="259.56,-83.33 266.97,-75.75 256.45,-77.06 259.56,-83.33"/>
</a>
</g>
</g>
<!-- Node21 -->
<g id="Node000021" class="node">
<title>Node21</title>
<g id="a_Node000021"><a xlink:href="Clock_8hpp.html" target="_top" xlink:title=" ">
<polygon fill="white" stroke="#666666" points="60.25,-132 0,-132 0,-112 60.25,-112 60.25,-132"/>
<text xml:space="preserve" text-anchor="middle" x="30.12" y="-118.5" font-family="Helvetica,sans-Serif" font-size="10.00">Clock.hpp</text>
</a>
</g>
</g>
<!-- Node20&#45;&gt;Node21 -->
<g id="edge29_Node000020_Node000021" class="edge">
<title>Node20&#45;&gt;Node21</title>
<g id="a_edge29_Node000020_Node000021"><a xlink:title=" ">
<path fill="none" stroke="#63b8ff" d="M258.21,-229.65C234.8,-219.61 196.68,-203.04 164.12,-188 127.82,-171.22 86.46,-150.99 59.42,-137.6"/>
<polygon fill="#63b8ff" stroke="#63b8ff" points="60.97,-134.46 50.46,-133.16 57.86,-140.73 60.97,-134.46"/>
</a>
</g>
</g>
<!-- Node22 -->
<g id="Node000022" class="node">
<title>Node22</title>
<g id="a_Node000022"><a xlink:href="ComponentRegistry_8hpp.html" target="_top" xlink:title=" ">
<polygon fill="white" stroke="#666666" points="527.62,-132 406.62,-132 406.62,-112 527.62,-112 527.62,-132"/>
<text xml:space="preserve" text-anchor="middle" x="467.12" y="-118.5" font-family="Helvetica,sans-Serif" font-size="10.00">ComponentRegistry.hpp</text>
</a>
</g>
</g>
<!-- Node20&#45;&gt;Node22 -->
<g id="edge31_Node000020_Node000022" class="edge">
<title>Node20&#45;&gt;Node22</title>
<g id="a_edge31_Node000020_Node000022"><a xlink:title=" ">
<path fill="none" stroke="#63b8ff" d="M279.85,-229.74C279.92,-214.66 282.34,-184.78 299.12,-168 324.35,-142.77 362.07,-131.25 395.38,-126.15"/>
<polygon fill="#63b8ff" stroke="#63b8ff" points="395.54,-129.66 404.99,-124.86 394.61,-122.72 395.54,-129.66"/>
</a>
</g>
</g>
<!-- Node25 -->
<g id="Node000025" class="node">
<title>Node25</title>
<g id="a_Node000025"><a xlink:href="EntityManager_8hpp.html" target="_top" xlink:title=" ">
<polygon fill="white" stroke="#666666" points="176,-132 78.25,-132 78.25,-112 176,-112 176,-132"/>
<text xml:space="preserve" text-anchor="middle" x="127.12" y="-118.5" font-family="Helvetica,sans-Serif" font-size="10.00">EntityManager.hpp</text>
</a>
</g>
</g>
<!-- Node20&#45;&gt;Node25 -->
<g id="edge37_Node000020_Node000025" class="edge">
<title>Node20&#45;&gt;Node25</title>
<g id="a_edge37_Node000020_Node000025"><a xlink:title=" ">
<path fill="none" stroke="#63b8ff" d="M259.8,-229.58C240.86,-220.33 212.29,-205.14 190.12,-188 171.94,-173.94 153.97,-154.73 141.91,-140.84"/>
<polygon fill="#63b8ff" stroke="#63b8ff" points="144.69,-138.71 135.55,-133.36 139.36,-143.25 144.69,-138.71"/>
</a>
</g>
</g>
<!-- Node26 -->
<g id="Node000026" class="node">
<title>Node26</title>
<g id="a_Node000026"><a xlink:href="SparseSet_8hpp.html" target="_top" xlink:title=" ">
<polygon fill="white" stroke="#666666" points="312.38,-132 231.88,-132 231.88,-112 312.38,-112 312.38,-132"/>
<text xml:space="preserve" text-anchor="middle" x="272.12" y="-118.5" font-family="Helvetica,sans-Serif" font-size="10.00">SparseSet.hpp</text>
</a>
</g>
</g>
<!-- Node20&#45;&gt;Node26 -->
<g id="edge40_Node000020_Node000026" class="edge">
<title>Node20&#45;&gt;Node26</title>
<g id="a_edge40_Node000020_Node000026"><a xlink:title=" ">
<path fill="none" stroke="#63b8ff" d="M276.78,-229.76C273.32,-219.66 268.14,-202.92 266.12,-188 264.94,-179.19 265.54,-176.87 266.12,-168 266.66,-159.94 267.73,-151.13 268.82,-143.45"/>
<polygon fill="#63b8ff" stroke="#63b8ff" points="272.24,-144.18 270.29,-133.77 265.33,-143.13 272.24,-144.18"/>
</a>
</g>
</g>
<!-- Node20&#45;&gt;Node27 -->
<g id="edge42_Node000020_Node000027" class="edge">
<title>Node20&#45;&gt;Node27</title>
<g id="a_edge42_Node000020_Node000027"><a xlink:title=" ">
<path fill="none" stroke="#63b8ff" d="M289.81,-229.62C299.06,-220.68 313.2,-206.99 324.45,-196.1"/>
<polygon fill="#63b8ff" stroke="#63b8ff" points="326.87,-198.63 331.62,-189.17 322,-193.6 326.87,-198.63"/>
</a>
</g>
</g>
<!-- Node21&#45;&gt;Node10 -->
<g id="edge30_Node000021_Node000010" class="edge">
<title>Node21&#45;&gt;Node10</title>
<g id="a_edge30_Node000021_Node000010"><a xlink:title=" ">
<path fill="none" stroke="#63b8ff" d="M38.4,-111.62C54.57,-93.27 90.64,-52.37 111.47,-28.75"/>
<polygon fill="#63b8ff" stroke="#63b8ff" points="113.89,-31.31 117.87,-21.49 108.64,-26.68 113.89,-31.31"/>
</a>
</g>
</g>
<!-- Node22&#45;&gt;Node7 -->
<g id="edge32_Node000022_Node000007" class="edge">
<title>Node22&#45;&gt;Node7</title>
<g id="a_edge32_Node000022_Node000007"><a xlink:title=" ">
<path fill="none" stroke="#63b8ff" d="M494.65,-111.59C522.43,-102.1 565.27,-87.46 594.21,-77.57"/>
<polygon fill="#63b8ff" stroke="#63b8ff" points="595.17,-80.94 603.5,-74.39 592.91,-74.31 595.17,-80.94"/>
</a>
</g>
</g>
<!-- Node22&#45;&gt;Node8 -->
<g id="edge36_Node000022_Node000008" class="edge">
<title>Node22&#45;&gt;Node8</title>
<g id="a_edge36_Node000022_Node000008"><a xlink:title=" ">
<path fill="none" stroke="#63b8ff" d="M482.63,-111.59C495.95,-103.51 515.4,-91.71 530.95,-82.27"/>
<polygon fill="#63b8ff" stroke="#63b8ff" points="532.47,-85.44 539.21,-77.26 528.84,-79.46 532.47,-85.44"/>
</a>
</g>
</g>
<!-- Node22&#45;&gt;Node18 -->
<g id="edge35_Node000022_Node000018" class="edge">
<title>Node22&#45;&gt;Node18</title>
<g id="a_edge35_Node000022_Node000018"><a xlink:title=" ">
<path fill="none" stroke="#63b8ff" d="M436.29,-111.59C404.49,-101.89 355.08,-86.82 322.66,-76.93"/>
<polygon fill="#63b8ff" stroke="#63b8ff" points="323.99,-73.67 313.4,-74.1 321.95,-80.37 323.99,-73.67"/>
</a>
</g>
</g>
<!-- Node23 -->
<g id="Node000023" class="node">
<title>Node23</title>
<g id="a_Node000023"><a xlink:title=" ">
<polygon fill="#e0e0e0" stroke="#999999" points="407.12,-76 349.12,-76 349.12,-56 407.12,-56 407.12,-76"/>
<text xml:space="preserve" text-anchor="middle" x="378.12" y="-62.5" font-family="Helvetica,sans-Serif" font-size="10.00">typeindex</text>
</a>
</g>
</g>
<!-- Node22&#45;&gt;Node23 -->
<g id="edge33_Node000022_Node000023" class="edge">
<title>Node22&#45;&gt;Node23</title>
<g id="a_edge33_Node000022_Node000023"><a xlink:title=" ">
<path fill="none" stroke="#63b8ff" d="M451.62,-111.59C438.3,-103.51 418.85,-91.71 403.3,-82.27"/>
<polygon fill="#63b8ff" stroke="#63b8ff" points="405.41,-79.46 395.04,-77.26 401.78,-85.44 405.41,-79.46"/>
</a>
</g>
</g>
<!-- Node24 -->
<g id="Node000024" class="node">
<title>Node24</title>
<g id="a_Node000024"><a xlink:title=" ">
<polygon fill="#e0e0e0" stroke="#999999" points="507.5,-76 424.75,-76 424.75,-56 507.5,-56 507.5,-76"/>
<text xml:space="preserve" text-anchor="middle" x="466.12" y="-62.5" font-family="Helvetica,sans-Serif" font-size="10.00">unordered_map</text>
</a>
</g>
</g>
<!-- Node22&#45;&gt;Node24 -->
<g id="edge34_Node000022_Node000024" class="edge">
<title>Node22&#45;&gt;Node24</title>
<g id="a_edge34_Node000022_Node000024"><a xlink:title=" ">
<path fill="none" stroke="#63b8ff" d="M466.95,-111.59C466.83,-105.01 466.66,-95.96 466.51,-87.73"/>
<polygon fill="#63b8ff" stroke="#63b8ff" points="470.01,-87.75 466.33,-77.81 463.01,-87.87 470.01,-87.75"/>
</a>
</g>
</g>
<!-- Node25&#45;&gt;Node10 -->
<g id="edge38_Node000025_Node000010" class="edge">
<title>Node25&#45;&gt;Node10</title>
<g id="a_edge38_Node000025_Node000010"><a xlink:title=" ">
<path fill="none" stroke="#63b8ff" d="M127.12,-111.62C127.12,-94.01 127.12,-55.59 127.12,-31.65"/>
<polygon fill="#63b8ff" stroke="#63b8ff" points="130.63,-31.87 127.13,-21.87 123.63,-31.87 130.63,-31.87"/>
</a>
</g>
</g>
<!-- Node25&#45;&gt;Node18 -->
<g id="edge39_Node000025_Node000018" class="edge">
<title>Node25&#45;&gt;Node18</title>
<g id="a_edge39_Node000025_Node000018"><a xlink:title=" ">
<path fill="none" stroke="#63b8ff" d="M155.52,-111.59C183.99,-102.16 227.77,-87.66 257.62,-77.77"/>
<polygon fill="#63b8ff" stroke="#63b8ff" points="258.48,-81.17 266.87,-74.7 256.28,-74.53 258.48,-81.17"/>
</a>
</g>
</g>
<!-- Node26&#45;&gt;Node18 -->
<g id="edge41_Node000026_Node000018" class="edge">
<title>Node26&#45;&gt;Node18</title>
<g id="a_edge41_Node000026_Node000018"><a xlink:title=" ">
<path fill="none" stroke="#63b8ff" d="M275.26,-111.59C277.51,-104.86 280.61,-95.53 283.41,-87.15"/>
<polygon fill="#63b8ff" stroke="#63b8ff" points="286.7,-88.33 286.55,-77.73 280.06,-86.11 286.7,-88.33"/>
</a>
</g>
</g>
<!-- Node27&#45;&gt;Node7 -->
<g id="edge43_Node000027_Node000007" class="edge">
<title>Node27&#45;&gt;Node7</title>
<g id="a_edge43_Node000027_Node000007"><a xlink:title=" ">
<path fill="none" stroke="#63b8ff" d="M376.64,-172.14C429.12,-164.35 526.16,-148.3 557.12,-132 578.94,-120.52 598.67,-99.98 611.19,-85.06"/>
<polygon fill="#63b8ff" stroke="#63b8ff" points="613.82,-87.37 617.37,-77.39 608.37,-82.97 613.82,-87.37"/>
</a>
</g>
</g>
<!-- Node27&#45;&gt;Node8 -->
<g id="edge46_Node000027_Node000008" class="edge">
<title>Node27&#45;&gt;Node8</title>
<g id="a_edge46_Node000027_Node000008"><a xlink:title=" ">
<path fill="none" stroke="#63b8ff" d="M376.57,-169.99C430.97,-158.79 531.25,-137.55 537.12,-132 549.16,-120.64 553.7,-102.12 555.36,-87.75"/>
<polygon fill="#63b8ff" stroke="#63b8ff" points="558.83,-88.21 556.07,-77.98 551.85,-87.7 558.83,-88.21"/>
</a>
</g>
</g>
<!-- Node27&#45;&gt;Node18 -->
<g id="edge44_Node000027_Node000018" class="edge">
<title>Node27&#45;&gt;Node18</title>
<g id="a_edge44_Node000027_Node000018"><a xlink:title=" ">
<path fill="none" stroke="#63b8ff" d="M340.06,-167.85C336.96,-154.96 330.46,-130.93 321.12,-112 316.58,-102.79 310.34,-93.32 304.64,-85.45"/>
<polygon fill="#63b8ff" stroke="#63b8ff" points="307.62,-83.58 298.8,-77.71 302.03,-87.8 307.62,-83.58"/>
</a>
</g>
</g>
<!-- Node27&#45;&gt;Node22 -->
<g id="edge45_Node000027_Node000022" class="edge">
<title>Node27&#45;&gt;Node22</title>
<g id="a_edge45_Node000027_Node000022"><a xlink:title=" ">
<path fill="none" stroke="#63b8ff" d="M363.9,-167.59C383.49,-159.13 412.55,-146.58 434.85,-136.94"/>
<polygon fill="#63b8ff" stroke="#63b8ff" points="436,-140.26 443.79,-133.08 433.22,-133.83 436,-140.26"/>
</a>
</g>
</g>
</g>
</svg>
