<?xml version="1.0" encoding="UTF-8" standalone="no"?>
<!DOCTYPE svg PUBLIC "-//W3C//DTD SVG 1.1//EN"
 "http://www.w3.org/Graphics/SVG/1.1/DTD/svg11.dtd">
<!-- Generated by graphviz version 14.0.2 (0)
 -->
<!-- Title: components/health/src/Health.hpp Pages: 1 -->
<svg width="552pt" height="176pt"
 viewBox="0.00 0.00 552.00 176.00" xmlns="http://www.w3.org/2000/svg" xmlns:xlink="http://www.w3.org/1999/xlink">
<g id="graph0" class="graph" transform="scale(1 1) rotate(0) translate(4 172)">
<title>components/health/src/Health.hpp</title>
<!-- Node1 -->
<g id="Node000001" class="node">
<title>Node1</title>
<g id="a_Node000001"><a xlink:title=" ">
<polygon fill="#999999" stroke="#666666" points="326.88,-168 211.88,-168 211.88,-136 326.88,-136 326.88,-168"/>
<text xml:space="preserve" text-anchor="start" x="219.88" y="-154.5" font-family="Helvetica,sans-Serif" font-size="10.00">components/health/src</text>
<text xml:space="preserve" text-anchor="middle" x="269.38" y="-142.5" font-family="Helvetica,sans-Serif" font-size="10.00">/Health.hpp</text>
</a>
</g>
</g>
<!-- Node2 -->
<g id="Node000002" class="node">
<title>Node2</title>
<g id="a_Node000002"><a xlink:href="FPInputHandler_8hpp.html" target="_top" xlink:title=" ">
<polygon fill="white" stroke="#666666" points="124.75,-100 0,-100 0,-68 124.75,-68 124.75,-100"/>
<text xml:space="preserve" text-anchor="start" x="8" y="-86.5" font-family="Helvetica,sans-Serif" font-size="10.00">systems/FPInputHandler</text>
<text xml:space="preserve" text-anchor="middle" x="62.38" y="-74.5" font-family="Helvetica,sans-Serif" font-size="10.00">/src/FPInputHandler.hpp</text>
</a>
</g>
</g>
<!-- Node1&#45;&gt;Node2 -->
<g id="edge1_Node000001_Node000002" class="edge">
<title>Node1&#45;&gt;Node2</title>
<g id="a_edge1_Node000001_Node000002"><a xlink:title=" ">
<path fill="none" stroke="#63b8ff" d="M210.04,-132.08C178.65,-122.07 140.58,-109.94 110.96,-100.49"/>
<polygon fill="#63b8ff" stroke="#63b8ff" points="208.81,-135.36 219.4,-135.07 210.94,-128.69 208.81,-135.36"/>
</a>
</g>
</g>
<!-- Node4 -->
<g id="Node000004" class="node">
<title>Node4</title>
<g id="a_Node000004"><a xlink:href="Collision_8hpp.html" target="_top" xlink:title=" ">
<polygon fill="white" stroke="#666666" points="251.5,-100 143.25,-100 143.25,-68 251.5,-68 251.5,-100"/>
<text xml:space="preserve" text-anchor="start" x="151.25" y="-86.5" font-family="Helvetica,sans-Serif" font-size="10.00">systems/collision/src</text>
<text xml:space="preserve" text-anchor="middle" x="197.38" y="-74.5" font-family="Helvetica,sans-Serif" font-size="10.00">/Collision.hpp</text>
</a>
</g>
</g>
<!-- Node1&#45;&gt;Node4 -->
<g id="edge3_Node000001_Node000004" class="edge">
<title>Node1&#45;&gt;Node4</title>
<g id="a_edge3_Node000001_Node000004"><a xlink:title=" ">
<path fill="none" stroke="#63b8ff" d="M244.27,-127.99C234.24,-118.79 222.96,-108.46 213.98,-100.22"/>
<polygon fill="#63b8ff" stroke="#63b8ff" points="241.82,-130.49 251.56,-134.67 246.55,-125.33 241.82,-130.49"/>
</a>
</g>
</g>
<!-- Node6 -->
<g id="Node000006" class="node">
<title>Node6</title>
<g id="a_Node000006"><a xlink:href="Death_8hpp.html" target="_top" xlink:title=" ">
<polygon fill="white" stroke="#666666" points="414.88,-94 269.88,-94 269.88,-74 414.88,-74 414.88,-94"/>
<text xml:space="preserve" text-anchor="middle" x="342.38" y="-80.5" font-family="Helvetica,sans-Serif" font-size="10.00">systems/death/src/Death.hpp</text>
</a>
</g>
</g>
<!-- Node1&#45;&gt;Node6 -->
<g id="edge5_Node000001_Node000006" class="edge">
<title>Node1&#45;&gt;Node6</title>
<g id="a_edge5_Node000001_Node000006"><a xlink:title=" ">
<path fill="none" stroke="#63b8ff" d="M294.77,-128.04C307.58,-116.46 322.41,-103.05 332.07,-94.32"/>
<polygon fill="#63b8ff" stroke="#63b8ff" points="292.5,-125.37 287.43,-134.68 297.19,-130.57 292.5,-125.37"/>
</a>
</g>
</g>
<!-- Node8 -->
<g id="Node000008" class="node">
<title>Node8</title>
<g id="a_Node000008"><a xlink:href="InputHandler_8hpp.html" target="_top" xlink:title=" ">
<polygon fill="white" stroke="#666666" points="544,-100 432.75,-100 432.75,-68 544,-68 544,-100"/>
<text xml:space="preserve" text-anchor="start" x="440.75" y="-86.5" font-family="Helvetica,sans-Serif" font-size="10.00">systems/inputHandler</text>
<text xml:space="preserve" text-anchor="middle" x="488.38" y="-74.5" font-family="Helvetica,sans-Serif" font-size="10.00">/src/InputHandler.hpp</text>
</a>
</g>
</g>
<!-- Node1&#45;&gt;Node8 -->
<g id="edge7_Node000001_Node000008" class="edge">
<title>Node1&#45;&gt;Node8</title>
<g id="a_edge7_Node000001_Node000008"><a xlink:title=" ">
<path fill="none" stroke="#63b8ff" d="M331.71,-132.21C365.01,-122.18 405.5,-109.98 436.97,-100.49"/>
<polygon fill="#63b8ff" stroke="#63b8ff" points="330.73,-128.85 322.17,-135.09 332.75,-135.55 330.73,-128.85"/>
</a>
</g>
</g>
<!-- Node3 -->
<g id="Node000003" class="node">
<title>Node3</title>
<g id="a_Node000003"><a xlink:href="FPInputHandler_8cpp.html" target="_top" xlink:title=" ">
<polygon fill="white" stroke="#666666" points="124.75,-32 0,-32 0,0 124.75,0 124.75,-32"/>
<text xml:space="preserve" text-anchor="start" x="8" y="-18.5" font-family="Helvetica,sans-Serif" font-size="10.00">systems/FPInputHandler</text>
<text xml:space="preserve" text-anchor="middle" x="62.38" y="-6.5" font-family="Helvetica,sans-Serif" font-size="10.00">/src/FPInputHandler.cpp</text>
</a>
</g>
</g>
<!-- Node2&#45;&gt;Node3 -->
<g id="edge2_Node000002_Node000003" class="edge">
<title>Node2&#45;&gt;Node3</title>
<g id="a_edge2_Node000002_Node000003"><a xlink:title=" ">
<path fill="none" stroke="#63b8ff" d="M62.38,-56.31C62.38,-48.12 62.38,-39.38 62.38,-32.22"/>
<polygon fill="#63b8ff" stroke="#63b8ff" points="58.88,-56.18 62.38,-66.18 65.88,-56.18 58.88,-56.18"/>
</a>
</g>
</g>
<!-- Node5 -->
<g id="Node000005" class="node">
<title>Node5</title>
<g id="a_Node000005"><a xlink:href="Collision_8cpp.html" target="_top" xlink:title=" ">
<polygon fill="white" stroke="#666666" points="251.5,-32 143.25,-32 143.25,0 251.5,0 251.5,-32"/>
<text xml:space="preserve" text-anchor="start" x="151.25" y="-18.5" font-family="Helvetica,sans-Serif" font-size="10.00">systems/collision/src</text>
<text xml:space="preserve" text-anchor="middle" x="197.38" y="-6.5" font-family="Helvetica,sans-Serif" font-size="10.00">/Collision.cpp</text>
</a>
</g>
</g>
<!-- Node4&#45;&gt;Node5 -->
<g id="edge4_Node000004_Node000005" class="edge">
<title>Node4&#45;&gt;Node5</title>
<g id="a_edge4_Node000004_Node000005"><a xlink:title=" ">
<path fill="none" stroke="#63b8ff" d="M197.38,-56.31C197.38,-48.12 197.38,-39.38 197.38,-32.22"/>
<polygon fill="#63b8ff" stroke="#63b8ff" points="193.88,-56.18 197.38,-66.18 200.88,-56.18 193.88,-56.18"/>
</a>
</g>
</g>
<!-- Node7 -->
<g id="Node000007" class="node">
<title>Node7</title>
<g id="a_Node000007"><a xlink:href="Death_8cpp.html" target="_top" xlink:title=" ">
<polygon fill="white" stroke="#666666" points="414.88,-26 269.88,-26 269.88,-6 414.88,-6 414.88,-26"/>
<text xml:space="preserve" text-anchor="middle" x="342.38" y="-12.5" font-family="Helvetica,sans-Serif" font-size="10.00">systems/death/src/Death.cpp</text>
</a>
</g>
</g>
<!-- Node6&#45;&gt;Node7 -->
<g id="edge6_Node000006_Node000007" class="edge">
<title>Node6&#45;&gt;Node7</title>
<g id="a_edge6_Node000006_Node000007"><a xlink:title=" ">
<path fill="none" stroke="#63b8ff" d="M342.38,-62.28C342.38,-50.27 342.38,-35.74 342.38,-26.44"/>
<polygon fill="#63b8ff" stroke="#63b8ff" points="338.88,-62.03 342.38,-72.03 345.88,-62.03 338.88,-62.03"/>
</a>
</g>
</g>
<!-- Node9 -->
<g id="Node000009" class="node">
<title>Node9</title>
<g id="a_Node000009"><a xlink:href="InputHandler_8cpp.html" target="_top" xlink:title=" ">
<polygon fill="white" stroke="#666666" points="544,-32 432.75,-32 432.75,0 544,0 544,-32"/>
<text xml:space="preserve" text-anchor="start" x="440.75" y="-18.5" font-family="Helvetica,sans-Serif" font-size="10.00">systems/inputHandler</text>
<text xml:space="preserve" text-anchor="middle" x="488.38" y="-6.5" font-family="Helvetica,sans-Serif" font-size="10.00">/src/InputHandler.cpp</text>
</a>
</g>
</g>
<!-- Node8&#45;&gt;Node9 -->
<g id="edge8_Node000008_Node000009" class="edge">
<title>Node8&#45;&gt;Node9</title>
<g id="a_edge8_Node000008_Node000009"><a xlink:title=" ">
<path fill="none" stroke="#63b8ff" d="M488.38,-56.31C488.38,-48.12 488.38,-39.38 488.38,-32.22"/>
<polygon fill="#63b8ff" stroke="#63b8ff" points="484.88,-56.18 488.38,-66.18 491.88,-56.18 484.88,-56.18"/>
</a>
</g>
</g>
</g>
</svg>
