<?xml version="1.0" encoding="UTF-8" standalone="no"?>
<!DOCTYPE svg PUBLIC "-//W3C//DTD SVG 1.1//EN"
 "http://www.w3.org/Graphics/SVG/1.1/DTD/svg11.dtd">
<!-- Generated by graphviz version 14.0.1 (0)
 -->
<!-- Title: components/health/src/Health.hpp Pages: 1 -->
<svg width="409pt" height="108pt"
 viewBox="0.00 0.00 409.00 108.00" xmlns="http://www.w3.org/2000/svg" xmlns:xlink="http://www.w3.org/1999/xlink">
<g id="graph0" class="graph" transform="scale(1 1) rotate(0) translate(4 104)">
<title>components/health/src/Health.hpp</title>
<!-- Node1 -->
<g id="Node000001" class="node">
<title>Node1</title>
<g id="a_Node000001"><a xlink:title=" ">
<polygon fill="#999999" stroke="#666666" points="256.62,-100 141.62,-100 141.62,-68 256.62,-68 256.62,-100"/>
<text xml:space="preserve" text-anchor="start" x="149.62" y="-86.5" font-family="Helvetica,sans-Serif" font-size="10.00">components/health/src</text>
<text xml:space="preserve" text-anchor="middle" x="199.12" y="-74.5" font-family="Helvetica,sans-Serif" font-size="10.00">/Health.hpp</text>
</a>
</g>
</g>
<!-- Node2 -->
<g id="Node000002" class="node">
<title>Node2</title>
<g id="a_Node000002"><a xlink:href="Collision_8hpp.html" target="_top" xlink:title=" ">
<polygon fill="white" stroke="#666666" points="108.25,-32 0,-32 0,0 108.25,0 108.25,-32"/>
<text xml:space="preserve" text-anchor="start" x="8" y="-18.5" font-family="Helvetica,sans-Serif" font-size="10.00">systems/collision/src</text>
<text xml:space="preserve" text-anchor="middle" x="54.12" y="-6.5" font-family="Helvetica,sans-Serif" font-size="10.00">/Collision.hpp</text>
</a>
</g>
</g>
<!-- Node1&#45;&gt;Node2 -->
<g id="edge1_Node000001_Node000002" class="edge">
<title>Node1&#45;&gt;Node2</title>
<g id="a_edge1_Node000001_Node000002"><a xlink:title=" ">
<path fill="none" stroke="#63b8ff" d="M154.66,-62.76C133.25,-53.02 108,-41.52 88.16,-32.49"/>
<polygon fill="#63b8ff" stroke="#63b8ff" points="153.2,-65.94 163.75,-66.9 156.1,-59.57 153.2,-65.94"/>
</a>
</g>
</g>
<!-- Node3 -->
<g id="Node000003" class="node">
<title>Node3</title>
<g id="a_Node000003"><a xlink:href="Death_8hpp.html" target="_top" xlink:title=" ">
<polygon fill="white" stroke="#666666" points="271.62,-26 126.62,-26 126.62,-6 271.62,-6 271.62,-26"/>
<text xml:space="preserve" text-anchor="middle" x="199.12" y="-12.5" font-family="Helvetica,sans-Serif" font-size="10.00">systems/death/src/Death.hpp</text>
</a>
</g>
</g>
<!-- Node1&#45;&gt;Node3 -->
<g id="edge2_Node000001_Node000003" class="edge">
<title>Node1&#45;&gt;Node3</title>
<g id="a_edge2_Node000001_Node000003"><a xlink:title=" ">
<path fill="none" stroke="#63b8ff" d="M199.12,-56.31C199.12,-45.67 199.12,-34.13 199.12,-26.32"/>
<polygon fill="#63b8ff" stroke="#63b8ff" points="195.63,-56.18 199.13,-66.18 202.63,-56.18 195.63,-56.18"/>
</a>
</g>
</g>
<!-- Node4 -->
<g id="Node000004" class="node">
<title>Node4</title>
<g id="a_Node000004"><a xlink:href="InputHandler_8hpp.html" target="_top" xlink:title=" ">
<polygon fill="white" stroke="#666666" points="400.75,-32 289.5,-32 289.5,0 400.75,0 400.75,-32"/>
<text xml:space="preserve" text-anchor="start" x="297.5" y="-18.5" font-family="Helvetica,sans-Serif" font-size="10.00">systems/inputHandler</text>
<text xml:space="preserve" text-anchor="middle" x="345.12" y="-6.5" font-family="Helvetica,sans-Serif" font-size="10.00">/src/InputHandler.hpp</text>
</a>
</g>
</g>
<!-- Node1&#45;&gt;Node4 -->
<g id="edge3_Node000001_Node000004" class="edge">
<title>Node1&#45;&gt;Node4</title>
<g id="a_edge3_Node000001_Node000004"><a xlink:title=" ">
<path fill="none" stroke="#63b8ff" d="M243.61,-62.89C265.22,-53.12 290.79,-41.56 310.86,-32.49"/>
<polygon fill="#63b8ff" stroke="#63b8ff" points="242.41,-59.59 234.73,-66.9 245.29,-65.97 242.41,-59.59"/>
</a>
</g>
</g>
</g>
</svg>
