<?xml version="1.0" encoding="UTF-8" standalone="no"?>
<!DOCTYPE svg PUBLIC "-//W3C//DTD SVG 1.1//EN"
 "http://www.w3.org/Graphics/SVG/1.1/DTD/svg11.dtd">
<!-- Generated by graphviz version 14.0.1 (0)
 -->
<!-- Title: Graphical Class Hierarchy Pages: 1 -->
<svg width="414pt" height="218pt"
 viewBox="0.00 0.00 414.00 218.00" xmlns="http://www.w3.org/2000/svg" xmlns:xlink="http://www.w3.org/1999/xlink">
<g id="graph0" class="graph" transform="scale(1 1) rotate(0) translate(4 214)">
<title>Graphical Class Hierarchy</title>
<!-- Node0 -->
<g id="Node000000" class="node">
<title>Node0</title>
<g id="a_Node000000"><a xlink:href="classISystem.html" target="_top" xlink:title="Base interface for all systems within the ECS framework.">
<polygon fill="white" stroke="#666666" points="52.75,-115 0,-115 0,-95 52.75,-95 52.75,-115"/>
<text xml:space="preserve" text-anchor="middle" x="26.38" y="-101.5" font-family="Helvetica,sans-Serif" font-size="10.00">ISystem</text>
</a>
</g>
</g>
<!-- Node1 -->
<g id="Node000001" class="node">
<title>Node1</title>
<g id="a_Node000001"><a xlink:href="classSystem.html" target="_top" xlink:title=" ">
<polygon fill="white" stroke="#666666" points="209,-210 103.75,-210 103.75,-190 209,-190 209,-210"/>
<text xml:space="preserve" text-anchor="middle" x="156.38" y="-196.5" font-family="Helvetica,sans-Serif" font-size="10.00">System&lt; Collision &gt;</text>
</a>
</g>
</g>
<!-- Node0&#45;&gt;Node1 -->
<g id="edge1_Node000000_Node000001" class="edge">
<title>Node0&#45;&gt;Node1</title>
<g id="a_edge1_Node000000_Node000001"><a xlink:title=" ">
<path fill="none" stroke="#63b8ff" d="M38.63,-124.99C49.37,-142.27 67.08,-166.66 88.75,-181 93.97,-184.45 99.81,-187.29 105.82,-189.61"/>
<polygon fill="#63b8ff" stroke="#63b8ff" points="41.77,-123.41 33.65,-116.6 35.75,-126.99 41.77,-123.41"/>
</a>
</g>
</g>
<!-- Node3 -->
<g id="Node000003" class="node">
<title>Node3</title>
<g id="a_Node000003"><a xlink:href="classSystem.html" target="_top" xlink:title=" ">
<polygon fill="white" stroke="#666666" points="203.38,-172 109.38,-172 109.38,-152 203.38,-152 203.38,-172"/>
<text xml:space="preserve" text-anchor="middle" x="156.38" y="-158.5" font-family="Helvetica,sans-Serif" font-size="10.00">System&lt; Death &gt;</text>
</a>
</g>
</g>
<!-- Node0&#45;&gt;Node3 -->
<g id="edge3_Node000000_Node000003" class="edge">
<title>Node0&#45;&gt;Node3</title>
<g id="a_edge3_Node000000_Node000003"><a xlink:title=" ">
<path fill="none" stroke="#63b8ff" d="M50.77,-121.61C61.88,-128.94 75.59,-137.18 88.75,-143 96.12,-146.26 104.2,-149.11 112.11,-151.55"/>
<polygon fill="#63b8ff" stroke="#63b8ff" points="52.88,-118.81 42.64,-116.09 48.94,-124.6 52.88,-118.81"/>
</a>
</g>
</g>
<!-- Node5 -->
<g id="Node000005" class="node">
<title>Node5</title>
<g id="a_Node000005"><a xlink:href="classSystem.html" target="_top" xlink:title=" ">
<polygon fill="white" stroke="#666666" points="224,-134 88.75,-134 88.75,-114 224,-114 224,-134"/>
<text xml:space="preserve" text-anchor="middle" x="156.38" y="-120.5" font-family="Helvetica,sans-Serif" font-size="10.00">System&lt; DomainHandler &gt;</text>
</a>
</g>
</g>
<!-- Node0&#45;&gt;Node5 -->
<g id="edge5_Node000000_Node000005" class="edge">
<title>Node0&#45;&gt;Node5</title>
<g id="a_edge5_Node000000_Node000005"><a xlink:title=" ">
<path fill="none" stroke="#63b8ff" d="M64.33,-110.49C71.93,-111.61 80.17,-112.84 88.46,-114.07"/>
<polygon fill="#63b8ff" stroke="#63b8ff" points="64.87,-107.03 54.47,-109.02 63.84,-113.95 64.87,-107.03"/>
</a>
</g>
</g>
<!-- Node7 -->
<g id="Node000007" class="node">
<title>Node7</title>
<g id="a_Node000007"><a xlink:href="classSystem.html" target="_top" xlink:title=" ">
<polygon fill="white" stroke="#666666" points="218,-96 94.75,-96 94.75,-76 218,-76 218,-96"/>
<text xml:space="preserve" text-anchor="middle" x="156.38" y="-82.5" font-family="Helvetica,sans-Serif" font-size="10.00">System&lt; InputHandler &gt;</text>
</a>
</g>
</g>
<!-- Node0&#45;&gt;Node7 -->
<g id="edge7_Node000000_Node000007" class="edge">
<title>Node0&#45;&gt;Node7</title>
<g id="a_edge7_Node000000_Node000007"><a xlink:title=" ">
<path fill="none" stroke="#63b8ff" d="M64.3,-99.52C73.71,-98.12 84.08,-96.58 94.34,-95.06"/>
<polygon fill="#63b8ff" stroke="#63b8ff" points="63.84,-96.05 54.47,-100.98 64.87,-102.97 63.84,-96.05"/>
</a>
</g>
</g>
<!-- Node9 -->
<g id="Node000009" class="node">
<title>Node9</title>
<g id="a_Node000009"><a xlink:href="classSystem.html" target="_top" xlink:title=" ">
<polygon fill="white" stroke="#666666" points="204.88,-58 107.88,-58 107.88,-38 204.88,-38 204.88,-58"/>
<text xml:space="preserve" text-anchor="middle" x="156.38" y="-44.5" font-family="Helvetica,sans-Serif" font-size="10.00">System&lt; Motion &gt;</text>
</a>
</g>
</g>
<!-- Node0&#45;&gt;Node9 -->
<g id="edge9_Node000000_Node000009" class="edge">
<title>Node0&#45;&gt;Node9</title>
<g id="a_edge9_Node000000_Node000009"><a xlink:title=" ">
<path fill="none" stroke="#63b8ff" d="M50.77,-88.39C61.88,-81.06 75.59,-72.82 88.75,-67 96.12,-63.74 104.2,-60.89 112.11,-58.45"/>
<polygon fill="#63b8ff" stroke="#63b8ff" points="48.94,-85.4 42.64,-93.91 52.88,-91.19 48.94,-85.4"/>
</a>
</g>
</g>
<!-- Node11 -->
<g id="Node000011" class="node">
<title>Node11</title>
<g id="a_Node000011"><a xlink:href="classSystem.html" target="_top" xlink:title="CRTP (Curiously Recurring Template Pattern) base class for ECS systems.">
<polygon fill="white" stroke="#666666" points="207.12,-20 105.62,-20 105.62,0 207.12,0 207.12,-20"/>
<text xml:space="preserve" text-anchor="middle" x="156.38" y="-6.5" font-family="Helvetica,sans-Serif" font-size="10.00">System&lt; Derived &gt;</text>
</a>
</g>
</g>
<!-- Node0&#45;&gt;Node11 -->
<g id="edge11_Node000000_Node000011" class="edge">
<title>Node0&#45;&gt;Node11</title>
<g id="a_edge11_Node000000_Node000011"><a xlink:title=" ">
<path fill="none" stroke="#63b8ff" d="M38.63,-85.01C49.37,-67.73 67.08,-43.34 88.75,-29 93.97,-25.55 99.81,-22.71 105.82,-20.39"/>
<polygon fill="#63b8ff" stroke="#63b8ff" points="35.75,-83.01 33.65,-93.4 41.77,-86.59 35.75,-83.01"/>
</a>
</g>
</g>
<!-- Node2 -->
<g id="Node000002" class="node">
<title>Node2</title>
<g id="a_Node000002"><a xlink:href="classGameEngine_1_1Collision.html" target="_top" xlink:title=" ">
<polygon fill="white" stroke="#666666" points="390.75,-210 275,-210 275,-190 390.75,-190 390.75,-210"/>
<text xml:space="preserve" text-anchor="middle" x="332.88" y="-196.5" font-family="Helvetica,sans-Serif" font-size="10.00">GameEngine::Collision</text>
</a>
</g>
</g>
<!-- Node1&#45;&gt;Node2 -->
<g id="edge2_Node000001_Node000002" class="edge">
<title>Node1&#45;&gt;Node2</title>
<g id="a_edge2_Node000001_Node000002"><a xlink:title=" ">
<path fill="none" stroke="#63b8ff" d="M220.63,-200C238.31,-200 257.4,-200 274.7,-200"/>
<polygon fill="#63b8ff" stroke="#63b8ff" points="220.77,-196.5 210.77,-200 220.77,-203.5 220.77,-196.5"/>
</a>
</g>
</g>
<!-- Node4 -->
<g id="Node000004" class="node">
<title>Node4</title>
<g id="a_Node000004"><a xlink:href="classGameEngine_1_1Death.html" target="_top" xlink:title="System that removes entities with zero health from the simulation.">
<polygon fill="white" stroke="#666666" points="385.12,-172 280.62,-172 280.62,-152 385.12,-152 385.12,-172"/>
<text xml:space="preserve" text-anchor="middle" x="332.88" y="-158.5" font-family="Helvetica,sans-Serif" font-size="10.00">GameEngine::Death</text>
</a>
</g>
</g>
<!-- Node3&#45;&gt;Node4 -->
<g id="edge4_Node000003_Node000004" class="edge">
<title>Node3&#45;&gt;Node4</title>
<g id="a_edge4_Node000003_Node000004"><a xlink:title=" ">
<path fill="none" stroke="#63b8ff" d="M215.1,-162C236.2,-162 259.91,-162 280.43,-162"/>
<polygon fill="#63b8ff" stroke="#63b8ff" points="215.19,-158.5 205.19,-162 215.19,-165.5 215.19,-158.5"/>
</a>
</g>
</g>
<!-- Node6 -->
<g id="Node000006" class="node">
<title>Node6</title>
<g id="a_Node000006"><a xlink:href="classGameEngine_1_1DomainHandler.html" target="_top" xlink:title="System that manages entity domains and destroys entities outside their boundaries.">
<polygon fill="white" stroke="#666666" points="405.75,-134 260,-134 260,-114 405.75,-114 405.75,-134"/>
<text xml:space="preserve" text-anchor="middle" x="332.88" y="-120.5" font-family="Helvetica,sans-Serif" font-size="10.00">GameEngine::DomainHandler</text>
</a>
</g>
</g>
<!-- Node5&#45;&gt;Node6 -->
<g id="edge6_Node000005_Node000006" class="edge">
<title>Node5&#45;&gt;Node6</title>
<g id="a_edge6_Node000005_Node000006"><a xlink:title=" ">
<path fill="none" stroke="#63b8ff" d="M235.83,-124C243.73,-124 251.74,-124 259.58,-124"/>
<polygon fill="#63b8ff" stroke="#63b8ff" points="235.86,-120.5 225.86,-124 235.86,-127.5 235.86,-120.5"/>
</a>
</g>
</g>
<!-- Node8 -->
<g id="Node000008" class="node">
<title>Node8</title>
<g id="a_Node000008"><a xlink:href="classGameEngine_1_1InputHandler.html" target="_top" xlink:title="System that processes player input and manages input&#45;controlled entities.">
<polygon fill="white" stroke="#666666" points="399.75,-96 266,-96 266,-76 399.75,-76 399.75,-96"/>
<text xml:space="preserve" text-anchor="middle" x="332.88" y="-82.5" font-family="Helvetica,sans-Serif" font-size="10.00">GameEngine::InputHandler</text>
</a>
</g>
</g>
<!-- Node7&#45;&gt;Node8 -->
<g id="edge8_Node000007_Node000008" class="edge">
<title>Node7&#45;&gt;Node8</title>
<g id="a_edge8_Node000007_Node000008"><a xlink:title=" ">
<path fill="none" stroke="#63b8ff" d="M229.65,-86C241.53,-86 253.8,-86 265.53,-86"/>
<polygon fill="#63b8ff" stroke="#63b8ff" points="229.92,-82.5 219.92,-86 229.92,-89.5 229.92,-82.5"/>
</a>
</g>
</g>
<!-- Node10 -->
<g id="Node000010" class="node">
<title>Node10</title>
<g id="a_Node000010"><a xlink:href="classGameEngine_1_1Motion.html" target="_top" xlink:title="System that simulates entity movement using physics principles.">
<polygon fill="white" stroke="#666666" points="386.62,-58 279.12,-58 279.12,-38 386.62,-38 386.62,-58"/>
<text xml:space="preserve" text-anchor="middle" x="332.88" y="-44.5" font-family="Helvetica,sans-Serif" font-size="10.00">GameEngine::Motion</text>
</a>
</g>
</g>
<!-- Node9&#45;&gt;Node10 -->
<g id="edge10_Node000009_Node000010" class="edge">
<title>Node9&#45;&gt;Node10</title>
<g id="a_edge10_Node000009_Node000010"><a xlink:title=" ">
<path fill="none" stroke="#63b8ff" d="M216.33,-48C236.53,-48 259,-48 278.72,-48"/>
<polygon fill="#63b8ff" stroke="#63b8ff" points="216.57,-44.5 206.57,-48 216.57,-51.5 216.57,-44.5"/>
</a>
</g>
</g>
</g>
</svg>
