<?xml version="1.0" encoding="UTF-8" standalone="no"?>
<!DOCTYPE svg PUBLIC "-//W3C//DTD SVG 1.1//EN"
 "http://www.w3.org/Graphics/SVG/1.1/DTD/svg11.dtd">
<!-- Generated by graphviz version 14.0.2 (0)
 -->
<!-- Title: Graphical Class Hierarchy Pages: 1 -->
<svg width="415pt" height="370pt"
 viewBox="0.00 0.00 415.00 370.00" xmlns="http://www.w3.org/2000/svg" xmlns:xlink="http://www.w3.org/1999/xlink">
<g id="graph0" class="graph" transform="scale(1 1) rotate(0) translate(4 366)">
<title>Graphical Class Hierarchy</title>
<!-- Node0 -->
<g id="Node000000" class="node">
<title>Node0</title>
<g id="a_Node000000"><a xlink:href="classISystem.html" target="_top" xlink:title="Base interface for all systems within the ECS framework.">
<polygon fill="white" stroke="#666666" points="52.75,-191 0,-191 0,-171 52.75,-171 52.75,-191"/>
<text xml:space="preserve" text-anchor="middle" x="26.38" y="-177.5" font-family="Helvetica,sans-Serif" font-size="10.00">ISystem</text>
</a>
</g>
</g>
<!-- Node1 -->
<g id="Node000001" class="node">
<title>Node1</title>
<g id="a_Node000001"><a xlink:href="classSystem.html" target="_top" xlink:title=" ">
<polygon fill="white" stroke="#666666" points="212,-362 101.5,-362 101.5,-342 212,-342 212,-362"/>
<text xml:space="preserve" text-anchor="middle" x="156.75" y="-348.5" font-family="Helvetica,sans-Serif" font-size="10.00">System&lt; Animation &gt;</text>
</a>
</g>
</g>
<!-- Node0&#45;&gt;Node1 -->
<g id="edge36_Node000000_Node000001" class="edge">
<title>Node0&#45;&gt;Node1</title>
<g id="a_edge36_Node000000_Node000001"><a xlink:title=" ">
<path fill="none" stroke="#63b8ff" d="M30,-202.25C35.2,-235.11 49.88,-298.1 88.75,-333 92.62,-336.47 97.08,-339.32 101.82,-341.64"/>
<polygon fill="#63b8ff" stroke="#63b8ff" points="33.52,-202.16 28.65,-192.75 26.59,-203.14 33.52,-202.16"/>
</a>
</g>
</g>
<!-- Node3 -->
<g id="Node000003" class="node">
<title>Node3</title>
<g id="a_Node000003"><a xlink:href="classSystem.html" target="_top" xlink:title=" ">
<polygon fill="white" stroke="#666666" points="209.38,-324 104.12,-324 104.12,-304 209.38,-304 209.38,-324"/>
<text xml:space="preserve" text-anchor="middle" x="156.75" y="-310.5" font-family="Helvetica,sans-Serif" font-size="10.00">System&lt; Collision &gt;</text>
</a>
</g>
</g>
<!-- Node0&#45;&gt;Node3 -->
<g id="edge38_Node000000_Node000003" class="edge">
<title>Node0&#45;&gt;Node3</title>
<g id="a_edge38_Node000000_Node000003"><a xlink:title=" ">
<path fill="none" stroke="#63b8ff" d="M33.16,-202.04C41.3,-227.76 58.64,-270.82 88.75,-295 93.27,-298.63 98.46,-301.57 103.89,-303.95"/>
<polygon fill="#63b8ff" stroke="#63b8ff" points="36.59,-201.32 30.39,-192.72 29.88,-203.31 36.59,-201.32"/>
</a>
</g>
</g>
<!-- Node5 -->
<g id="Node000005" class="node">
<title>Node5</title>
<g id="a_Node000005"><a xlink:href="classSystem.html" target="_top" xlink:title=" ">
<polygon fill="white" stroke="#666666" points="203.75,-286 109.75,-286 109.75,-266 203.75,-266 203.75,-286"/>
<text xml:space="preserve" text-anchor="middle" x="156.75" y="-272.5" font-family="Helvetica,sans-Serif" font-size="10.00">System&lt; Death &gt;</text>
</a>
</g>
</g>
<!-- Node0&#45;&gt;Node5 -->
<g id="edge40_Node000000_Node000005" class="edge">
<title>Node0&#45;&gt;Node5</title>
<g id="a_edge40_Node000000_Node000005"><a xlink:title=" ">
<path fill="none" stroke="#63b8ff" d="M38.63,-200.99C49.36,-218.28 67.07,-242.68 88.75,-257 95,-261.13 102.16,-264.38 109.41,-266.92"/>
<polygon fill="#63b8ff" stroke="#63b8ff" points="41.77,-199.42 33.65,-192.61 35.75,-202.99 41.77,-199.42"/>
</a>
</g>
</g>
<!-- Node7 -->
<g id="Node000007" class="node">
<title>Node7</title>
<g id="a_Node000007"><a xlink:href="classSystem.html" target="_top" xlink:title=" ">
<polygon fill="white" stroke="#666666" points="224.38,-248 89.12,-248 89.12,-228 224.38,-228 224.38,-248"/>
<text xml:space="preserve" text-anchor="middle" x="156.75" y="-234.5" font-family="Helvetica,sans-Serif" font-size="10.00">System&lt; DomainHandler &gt;</text>
</a>
</g>
</g>
<!-- Node0&#45;&gt;Node7 -->
<g id="edge42_Node000000_Node000007" class="edge">
<title>Node0&#45;&gt;Node7</title>
<g id="a_edge42_Node000000_Node000007"><a xlink:title=" ">
<path fill="none" stroke="#63b8ff" d="M50.77,-197.62C61.88,-204.95 75.58,-213.19 88.75,-219 96.16,-222.27 104.28,-225.13 112.24,-227.57"/>
<polygon fill="#63b8ff" stroke="#63b8ff" points="52.87,-194.82 42.63,-192.1 48.94,-200.61 52.87,-194.82"/>
</a>
</g>
</g>
<!-- Node9 -->
<g id="Node000009" class="node">
<title>Node9</title>
<g id="a_Node000009"><a xlink:href="classSystem.html" target="_top" xlink:title=" ">
<polygon fill="white" stroke="#666666" points="224.75,-210 88.75,-210 88.75,-190 224.75,-190 224.75,-210"/>
<text xml:space="preserve" text-anchor="middle" x="156.75" y="-196.5" font-family="Helvetica,sans-Serif" font-size="10.00">System&lt; FPApplyGravity &gt;</text>
</a>
</g>
</g>
<!-- Node0&#45;&gt;Node9 -->
<g id="edge44_Node000000_Node000009" class="edge">
<title>Node0&#45;&gt;Node9</title>
<g id="a_edge44_Node000000_Node000009"><a xlink:title=" ">
<path fill="none" stroke="#63b8ff" d="M64.35,-186.47C71.92,-187.59 80.11,-188.81 88.37,-190.03"/>
<polygon fill="#63b8ff" stroke="#63b8ff" points="64.95,-183.02 54.54,-185.02 63.92,-189.95 64.95,-183.02"/>
</a>
</g>
</g>
<!-- Node11 -->
<g id="Node000011" class="node">
<title>Node11</title>
<g id="a_Node000011"><a xlink:href="classSystem.html" target="_top" xlink:title=" ">
<polygon fill="white" stroke="#666666" points="224.75,-172 88.75,-172 88.75,-152 224.75,-152 224.75,-172"/>
<text xml:space="preserve" text-anchor="middle" x="156.75" y="-158.5" font-family="Helvetica,sans-Serif" font-size="10.00">System&lt; FPInputHandler &gt;</text>
</a>
</g>
</g>
<!-- Node0&#45;&gt;Node11 -->
<g id="edge46_Node000000_Node000011" class="edge">
<title>Node0&#45;&gt;Node11</title>
<g id="a_edge46_Node000000_Node000011"><a xlink:title=" ">
<path fill="none" stroke="#63b8ff" d="M64.35,-175.53C71.92,-174.41 80.11,-173.19 88.37,-171.97"/>
<polygon fill="#63b8ff" stroke="#63b8ff" points="63.92,-172.05 54.54,-176.98 64.95,-178.98 63.92,-172.05"/>
</a>
</g>
</g>
<!-- Node13 -->
<g id="Node000013" class="node">
<title>Node13</title>
<g id="a_Node000013"><a xlink:href="classSystem.html" target="_top" xlink:title=" ">
<polygon fill="white" stroke="#666666" points="211.62,-134 101.88,-134 101.88,-114 211.62,-114 211.62,-134"/>
<text xml:space="preserve" text-anchor="middle" x="156.75" y="-120.5" font-family="Helvetica,sans-Serif" font-size="10.00">System&lt; FPMotion &gt;</text>
</a>
</g>
</g>
<!-- Node0&#45;&gt;Node13 -->
<g id="edge48_Node000000_Node000013" class="edge">
<title>Node0&#45;&gt;Node13</title>
<g id="a_edge48_Node000000_Node000013"><a xlink:title=" ">
<path fill="none" stroke="#63b8ff" d="M50.77,-164.38C61.88,-157.05 75.58,-148.81 88.75,-143 96.16,-139.73 104.28,-136.87 112.24,-134.43"/>
<polygon fill="#63b8ff" stroke="#63b8ff" points="48.94,-161.39 42.63,-169.9 52.87,-167.18 48.94,-161.39"/>
</a>
</g>
</g>
<!-- Node15 -->
<g id="Node000015" class="node">
<title>Node15</title>
<g id="a_Node000015"><a xlink:href="classSystem.html" target="_top" xlink:title=" ">
<polygon fill="white" stroke="#666666" points="218.38,-96 95.12,-96 95.12,-76 218.38,-76 218.38,-96"/>
<text xml:space="preserve" text-anchor="middle" x="156.75" y="-82.5" font-family="Helvetica,sans-Serif" font-size="10.00">System&lt; InputHandler &gt;</text>
</a>
</g>
</g>
<!-- Node0&#45;&gt;Node15 -->
<g id="edge50_Node000000_Node000015" class="edge">
<title>Node0&#45;&gt;Node15</title>
<g id="a_edge50_Node000000_Node000015"><a xlink:title=" ">
<path fill="none" stroke="#63b8ff" d="M38.63,-161.01C49.36,-143.72 67.07,-119.32 88.75,-105 93.89,-101.6 99.65,-98.8 105.56,-96.5"/>
<polygon fill="#63b8ff" stroke="#63b8ff" points="35.75,-159.01 33.65,-169.39 41.77,-162.58 35.75,-159.01"/>
</a>
</g>
</g>
<!-- Node17 -->
<g id="Node000017" class="node">
<title>Node17</title>
<g id="a_Node000017"><a xlink:href="classSystem.html" target="_top" xlink:title=" ">
<polygon fill="white" stroke="#666666" points="205.25,-58 108.25,-58 108.25,-38 205.25,-38 205.25,-58"/>
<text xml:space="preserve" text-anchor="middle" x="156.75" y="-44.5" font-family="Helvetica,sans-Serif" font-size="10.00">System&lt; Motion &gt;</text>
</a>
</g>
</g>
<!-- Node0&#45;&gt;Node17 -->
<g id="edge52_Node000000_Node000017" class="edge">
<title>Node0&#45;&gt;Node17</title>
<g id="a_edge52_Node000000_Node000017"><a xlink:title=" ">
<path fill="none" stroke="#63b8ff" d="M33.16,-159.96C41.3,-134.24 58.64,-91.18 88.75,-67 94.41,-62.46 101.09,-59 108.01,-56.37"/>
<polygon fill="#63b8ff" stroke="#63b8ff" points="29.88,-158.69 30.39,-169.28 36.59,-160.68 29.88,-158.69"/>
</a>
</g>
</g>
<!-- Node19 -->
<g id="Node000019" class="node">
<title>Node19</title>
<g id="a_Node000019"><a xlink:href="classSystem.html" target="_top" xlink:title="CRTP (Curiously Recurring Template Pattern) base class for ECS systems.">
<polygon fill="white" stroke="#666666" points="207.5,-20 106,-20 106,0 207.5,0 207.5,-20"/>
<text xml:space="preserve" text-anchor="middle" x="156.75" y="-6.5" font-family="Helvetica,sans-Serif" font-size="10.00">System&lt; Derived &gt;</text>
</a>
</g>
</g>
<!-- Node0&#45;&gt;Node19 -->
<g id="edge54_Node000000_Node000019" class="edge">
<title>Node0&#45;&gt;Node19</title>
<g id="a_edge54_Node000000_Node000019"><a xlink:title=" ">
<path fill="none" stroke="#63b8ff" d="M30,-159.75C35.2,-126.89 49.88,-63.9 88.75,-29 93.61,-24.64 99.4,-21.27 105.51,-18.67"/>
<polygon fill="#63b8ff" stroke="#63b8ff" points="26.59,-158.86 28.65,-169.25 33.52,-159.84 26.59,-158.86"/>
</a>
</g>
</g>
<!-- Node2 -->
<g id="Node000002" class="node">
<title>Node2</title>
<g id="a_Node000002"><a xlink:href="classGameEngine_1_1Animation.html" target="_top" xlink:title="System that manages sprite animation by cycling through texture rectangles.">
<polygon fill="white" stroke="#666666" points="394.88,-362 273.12,-362 273.12,-342 394.88,-342 394.88,-362"/>
<text xml:space="preserve" text-anchor="middle" x="334" y="-348.5" font-family="Helvetica,sans-Serif" font-size="10.00">GameEngine::Animation</text>
</a>
</g>
</g>
<!-- Node1&#45;&gt;Node2 -->
<g id="edge37_Node000001_Node000002" class="edge">
<title>Node1&#45;&gt;Node2</title>
<g id="a_edge37_Node000001_Node000002"><a xlink:title=" ">
<path fill="none" stroke="#63b8ff" d="M223.74,-352C239.82,-352 256.95,-352 272.75,-352"/>
<polygon fill="#63b8ff" stroke="#63b8ff" points="223.75,-348.5 213.75,-352 223.75,-355.5 223.75,-348.5"/>
</a>
</g>
</g>
<!-- Node4 -->
<g id="Node000004" class="node">
<title>Node4</title>
<g id="a_Node000004"><a xlink:href="classGameEngine_1_1Collision.html" target="_top" xlink:title=" ">
<polygon fill="white" stroke="#666666" points="391.88,-324 276.12,-324 276.12,-304 391.88,-304 391.88,-324"/>
<text xml:space="preserve" text-anchor="middle" x="334" y="-310.5" font-family="Helvetica,sans-Serif" font-size="10.00">GameEngine::Collision</text>
</a>
</g>
</g>
<!-- Node3&#45;&gt;Node4 -->
<g id="edge39_Node000003_Node000004" class="edge">
<title>Node3&#45;&gt;Node4</title>
<g id="a_edge39_Node000003_Node000004"><a xlink:title=" ">
<path fill="none" stroke="#63b8ff" d="M221.34,-314C239.18,-314 258.45,-314 275.89,-314"/>
<polygon fill="#63b8ff" stroke="#63b8ff" points="221.37,-310.5 211.37,-314 221.37,-317.5 221.37,-310.5"/>
</a>
</g>
</g>
<!-- Node6 -->
<g id="Node000006" class="node">
<title>Node6</title>
<g id="a_Node000006"><a xlink:href="classGameEngine_1_1Death.html" target="_top" xlink:title="System that removes entities with zero health from the simulation.">
<polygon fill="white" stroke="#666666" points="386.25,-286 281.75,-286 281.75,-266 386.25,-266 386.25,-286"/>
<text xml:space="preserve" text-anchor="middle" x="334" y="-272.5" font-family="Helvetica,sans-Serif" font-size="10.00">GameEngine::Death</text>
</a>
</g>
</g>
<!-- Node5&#45;&gt;Node6 -->
<g id="edge41_Node000005_Node000006" class="edge">
<title>Node5&#45;&gt;Node6</title>
<g id="a_edge41_Node000005_Node000006"><a xlink:title=" ">
<path fill="none" stroke="#63b8ff" d="M215.02,-276C236.41,-276 260.55,-276 281.39,-276"/>
<polygon fill="#63b8ff" stroke="#63b8ff" points="215.31,-272.5 205.31,-276 215.31,-279.5 215.31,-272.5"/>
</a>
</g>
</g>
<!-- Node8 -->
<g id="Node000008" class="node">
<title>Node8</title>
<g id="a_Node000008"><a xlink:href="classGameEngine_1_1DomainHandler.html" target="_top" xlink:title="System that manages entity domains and destroys entities outside their boundaries.">
<polygon fill="white" stroke="#666666" points="406.88,-248 261.12,-248 261.12,-228 406.88,-228 406.88,-248"/>
<text xml:space="preserve" text-anchor="middle" x="334" y="-234.5" font-family="Helvetica,sans-Serif" font-size="10.00">GameEngine::DomainHandler</text>
</a>
</g>
</g>
<!-- Node7&#45;&gt;Node8 -->
<g id="edge43_Node000007_Node000008" class="edge">
<title>Node7&#45;&gt;Node8</title>
<g id="a_edge43_Node000007_Node000008"><a xlink:title=" ">
<path fill="none" stroke="#63b8ff" d="M235.79,-238C244.14,-238 252.61,-238 260.88,-238"/>
<polygon fill="#63b8ff" stroke="#63b8ff" points="236.02,-234.5 226.02,-238 236.02,-241.5 236.02,-234.5"/>
</a>
</g>
</g>
<!-- Node10 -->
<g id="Node000010" class="node">
<title>Node10</title>
<g id="a_Node000010"><a xlink:href="classGameEngine_1_1FPApplyGravity.html" target="_top" xlink:title=" ">
<polygon fill="white" stroke="#666666" points="407.25,-210 260.75,-210 260.75,-190 407.25,-190 407.25,-210"/>
<text xml:space="preserve" text-anchor="middle" x="334" y="-196.5" font-family="Helvetica,sans-Serif" font-size="10.00">GameEngine::FPApplyGravity</text>
</a>
</g>
</g>
<!-- Node9&#45;&gt;Node10 -->
<g id="edge45_Node000009_Node000010" class="edge">
<title>Node9&#45;&gt;Node10</title>
<g id="a_edge45_Node000009_Node000010"><a xlink:title=" ">
<path fill="none" stroke="#63b8ff" d="M236.26,-200C244.29,-200 252.43,-200 260.39,-200"/>
<polygon fill="#63b8ff" stroke="#63b8ff" points="236.52,-196.5 226.52,-200 236.52,-203.5 236.52,-196.5"/>
</a>
</g>
</g>
<!-- Node12 -->
<g id="Node000012" class="node">
<title>Node12</title>
<g id="a_Node000012"><a xlink:href="classGameEngine_1_1FPInputHandler.html" target="_top" xlink:title="System that processes player input and manages input&#45;controlled entities.">
<polygon fill="white" stroke="#666666" points="407.25,-172 260.75,-172 260.75,-152 407.25,-152 407.25,-172"/>
<text xml:space="preserve" text-anchor="middle" x="334" y="-158.5" font-family="Helvetica,sans-Serif" font-size="10.00">GameEngine::FPInputHandler</text>
</a>
</g>
</g>
<!-- Node11&#45;&gt;Node12 -->
<g id="edge47_Node000011_Node000012" class="edge">
<title>Node11&#45;&gt;Node12</title>
<g id="a_edge47_Node000011_Node000012"><a xlink:title=" ">
<path fill="none" stroke="#63b8ff" d="M236.26,-162C244.29,-162 252.43,-162 260.39,-162"/>
<polygon fill="#63b8ff" stroke="#63b8ff" points="236.52,-158.5 226.52,-162 236.52,-165.5 236.52,-158.5"/>
</a>
</g>
</g>
<!-- Node14 -->
<g id="Node000014" class="node">
<title>Node14</title>
<g id="a_Node000014"><a xlink:href="classGameEngine_1_1FPMotion.html" target="_top" xlink:title=" ">
<polygon fill="white" stroke="#666666" points="394.12,-134 273.88,-134 273.88,-114 394.12,-114 394.12,-134"/>
<text xml:space="preserve" text-anchor="middle" x="334" y="-120.5" font-family="Helvetica,sans-Serif" font-size="10.00">GameEngine::FPMotion</text>
</a>
</g>
</g>
<!-- Node13&#45;&gt;Node14 -->
<g id="edge49_Node000013_Node000014" class="edge">
<title>Node13&#45;&gt;Node14</title>
<g id="a_edge49_Node000013_Node000014"><a xlink:title=" ">
<path fill="none" stroke="#63b8ff" d="M223.04,-124C239.64,-124 257.39,-124 273.68,-124"/>
<polygon fill="#63b8ff" stroke="#63b8ff" points="223.27,-120.5 213.27,-124 223.27,-127.5 223.27,-120.5"/>
</a>
</g>
</g>
<!-- Node16 -->
<g id="Node000016" class="node">
<title>Node16</title>
<g id="a_Node000016"><a xlink:href="classGameEngine_1_1InputHandler.html" target="_top" xlink:title="System that processes player input and manages input&#45;controlled entities.">
<polygon fill="white" stroke="#666666" points="400.88,-96 267.12,-96 267.12,-76 400.88,-76 400.88,-96"/>
<text xml:space="preserve" text-anchor="middle" x="334" y="-82.5" font-family="Helvetica,sans-Serif" font-size="10.00">GameEngine::InputHandler</text>
</a>
</g>
</g>
<!-- Node15&#45;&gt;Node16 -->
<g id="edge51_Node000015_Node000016" class="edge">
<title>Node15&#45;&gt;Node16</title>
<g id="a_edge51_Node000015_Node000016"><a xlink:title=" ">
<path fill="none" stroke="#63b8ff" d="M229.71,-86C242.03,-86 254.77,-86 266.92,-86"/>
<polygon fill="#63b8ff" stroke="#63b8ff" points="230.07,-82.5 220.07,-86 230.07,-89.5 230.07,-82.5"/>
</a>
</g>
</g>
<!-- Node18 -->
<g id="Node000018" class="node">
<title>Node18</title>
<g id="a_Node000018"><a xlink:href="classGameEngine_1_1Motion.html" target="_top" xlink:title="System that simulates entity movement using physics principles.">
<polygon fill="white" stroke="#666666" points="387.75,-58 280.25,-58 280.25,-38 387.75,-38 387.75,-58"/>
<text xml:space="preserve" text-anchor="middle" x="334" y="-44.5" font-family="Helvetica,sans-Serif" font-size="10.00">GameEngine::Motion</text>
</a>
</g>
</g>
<!-- Node17&#45;&gt;Node18 -->
<g id="edge53_Node000017_Node000018" class="edge">
<title>Node17&#45;&gt;Node18</title>
<g id="a_edge53_Node000017_Node000018"><a xlink:title=" ">
<path fill="none" stroke="#63b8ff" d="M217.01,-48C237.39,-48 260.07,-48 279.93,-48"/>
<polygon fill="#63b8ff" stroke="#63b8ff" points="217.15,-44.5 207.15,-48 217.15,-51.5 217.15,-44.5"/>
</a>
</g>
</g>
</g>
</svg>
