<?xml version="1.0" encoding="UTF-8" standalone="no"?>
<!DOCTYPE svg PUBLIC "-//W3C//DTD SVG 1.1//EN"
 "http://www.w3.org/Graphics/SVG/1.1/DTD/svg11.dtd">
<!-- Generated by graphviz version 14.0.1 (0)
 -->
<!-- Title: Graphical Class Hierarchy Pages: 1 -->
<svg width="431pt" height="114pt"
 viewBox="0.00 0.00 431.00 114.00" xmlns="http://www.w3.org/2000/svg" xmlns:xlink="http://www.w3.org/1999/xlink">
<g id="graph0" class="graph" transform="scale(1 1) rotate(0) translate(4 110)">
<title>Graphical Class Hierarchy</title>
<!-- Node0 -->
<g id="Node000000" class="node">
<title>Node0</title>
<g id="a_Node000000"><a xlink:href="classISystem.html" target="_top" xlink:title="Base interface for all systems within the ECS framework.">
<polygon fill="white" stroke="#666666" points="52.75,-58 0,-58 0,-38 52.75,-38 52.75,-58"/>
<text xml:space="preserve" text-anchor="middle" x="26.38" y="-44.5" font-family="Helvetica,sans-Serif" font-size="10.00">ISystem</text>
</a>
</g>
</g>
<!-- Node1 -->
<g id="Node000001" class="node">
<title>Node1</title>
<g id="a_Node000001"><a xlink:href="classSystem.html" target="_top" xlink:title=" ">
<polygon fill="white" stroke="#666666" points="245.75,-97 88.75,-97 88.75,-77 245.75,-77 245.75,-97"/>
<text xml:space="preserve" text-anchor="middle" x="167.25" y="-83.5" font-family="Helvetica,sans-Serif" font-size="10.00">System&lt; InputHandlerSystem &gt;</text>
</a>
</g>
</g>
<!-- Node0&#45;&gt;Node1 -->
<g id="edge1_Node000000_Node000001" class="edge">
<title>Node0&#45;&gt;Node1</title>
<g id="a_edge1_Node000000_Node000001"><a xlink:title=" ">
<path fill="none" stroke="#63b8ff" d="M63.76,-59.58C71.96,-62.1 80.63,-64.7 88.75,-67 100.25,-70.26 112.77,-73.59 124.32,-76.57"/>
<polygon fill="#63b8ff" stroke="#63b8ff" points="65.01,-56.3 54.42,-56.67 62.93,-62.98 65.01,-56.3"/>
</a>
</g>
</g>
<!-- Node3 -->
<g id="Node000003" class="node">
<title>Node3</title>
<g id="a_Node000003"><a xlink:href="classSystem.html" target="_top" xlink:title=" ">
<polygon fill="white" stroke="#666666" points="232.62,-58 101.88,-58 101.88,-38 232.62,-38 232.62,-58"/>
<text xml:space="preserve" text-anchor="middle" x="167.25" y="-44.5" font-family="Helvetica,sans-Serif" font-size="10.00">System&lt; MotionSystem &gt;</text>
</a>
</g>
</g>
<!-- Node0&#45;&gt;Node3 -->
<g id="edge3_Node000000_Node000003" class="edge">
<title>Node0&#45;&gt;Node3</title>
<g id="a_edge3_Node000000_Node000003"><a xlink:title=" ">
<path fill="none" stroke="#63b8ff" d="M64.48,-48C75.92,-48 88.88,-48 101.61,-48"/>
<polygon fill="#63b8ff" stroke="#63b8ff" points="64.68,-44.5 54.68,-48 64.68,-51.5 64.68,-44.5"/>
</a>
</g>
</g>
<!-- Node5 -->
<g id="Node000005" class="node">
<title>Node5</title>
<g id="a_Node000005"><a xlink:href="classSystem.html" target="_top" xlink:title="CRTP (Curiously Recurring Template Pattern) base class for ECS systems.">
<polygon fill="white" stroke="#666666" points="218,-20 116.5,-20 116.5,0 218,0 218,-20"/>
<text xml:space="preserve" text-anchor="middle" x="167.25" y="-6.5" font-family="Helvetica,sans-Serif" font-size="10.00">System&lt; Derived &gt;</text>
</a>
</g>
</g>
<!-- Node0&#45;&gt;Node5 -->
<g id="edge5_Node000000_Node000005" class="edge">
<title>Node0&#45;&gt;Node5</title>
<g id="a_edge5_Node000000_Node000005"><a xlink:title=" ">
<path fill="none" stroke="#63b8ff" d="M63.74,-36.35C71.94,-33.83 80.62,-31.25 88.75,-29 99.3,-26.08 110.71,-23.15 121.46,-20.5"/>
<polygon fill="#63b8ff" stroke="#63b8ff" points="62.91,-32.94 54.4,-39.26 64.99,-39.63 62.91,-32.94"/>
</a>
</g>
</g>
<!-- Node2 -->
<g id="Node000002" class="node">
<title>Node2</title>
<g id="a_Node000002"><a xlink:href="classGameEngine_1_1InputHandlerSystem.html" target="_top" xlink:title="System responsible for translating player input into entity actions and motion.">
<polygon fill="white" stroke="#666666" points="419.25,-106 285.5,-106 285.5,-74 419.25,-74 419.25,-106"/>
<text xml:space="preserve" text-anchor="start" x="293.5" y="-92.5" font-family="Helvetica,sans-Serif" font-size="10.00">GameEngine::InputHandler</text>
<text xml:space="preserve" text-anchor="middle" x="352.38" y="-80.5" font-family="Helvetica,sans-Serif" font-size="10.00">System</text>
</a>
</g>
</g>
<!-- Node1&#45;&gt;Node2 -->
<g id="edge2_Node000001_Node000002" class="edge">
<title>Node1&#45;&gt;Node2</title>
<g id="a_edge2_Node000001_Node000002"><a xlink:title=" ">
<path fill="none" stroke="#63b8ff" d="M257.47,-88.46C266.77,-88.61 276.09,-88.77 285.07,-88.91"/>
<polygon fill="#63b8ff" stroke="#63b8ff" points="257.75,-84.97 247.69,-88.3 257.63,-91.96 257.75,-84.97"/>
</a>
</g>
</g>
<!-- Node4 -->
<g id="Node000004" class="node">
<title>Node4</title>
<g id="a_Node000004"><a xlink:href="classGameEngine_1_1MotionSystem.html" target="_top" xlink:title="System responsible for detecting collisions and applying damage between entities.">
<polygon fill="white" stroke="#666666" points="423,-56 281.75,-56 281.75,-36 423,-36 423,-56"/>
<text xml:space="preserve" text-anchor="middle" x="352.38" y="-42.5" font-family="Helvetica,sans-Serif" font-size="10.00">GameEngine::MotionSystem</text>
</a>
</g>
</g>
<!-- Node3&#45;&gt;Node4 -->
<g id="edge4_Node000003_Node000004" class="edge">
<title>Node3&#45;&gt;Node4</title>
<g id="a_edge4_Node000003_Node000004"><a xlink:title=" ">
<path fill="none" stroke="#63b8ff" d="M244.23,-47.17C256.53,-47.04 269.21,-46.9 281.36,-46.76"/>
<polygon fill="#63b8ff" stroke="#63b8ff" points="244.55,-43.67 234.58,-47.28 244.62,-50.67 244.55,-43.67"/>
</a>
</g>
</g>
</g>
</svg>
