<?xml version="1.0" encoding="UTF-8" standalone="no"?>
<!DOCTYPE svg PUBLIC "-//W3C//DTD SVG 1.1//EN"
 "http://www.w3.org/Graphics/SVG/1.1/DTD/svg11.dtd">
<!-- Generated by graphviz version 14.0.1 (0)
 -->
<!-- Title: systems/inputHandler/src/InputHandler.hpp Pages: 1 -->
<svg width="1575pt" height="356pt"
 viewBox="0.00 0.00 1575.00 356.00" xmlns="http://www.w3.org/2000/svg" xmlns:xlink="http://www.w3.org/1999/xlink">
<g id="graph0" class="graph" transform="scale(1 1) rotate(0) translate(4 352)">
<title>systems/inputHandler/src/InputHandler.hpp</title>
<!-- Node1 -->
<g id="Node000001" class="node">
<title>Node1</title>
<g id="a_Node000001"><a xlink:title=" ">
<polygon fill="#999999" stroke="#666666" points="768.62,-348 657.38,-348 657.38,-316 768.62,-316 768.62,-348"/>
<text xml:space="preserve" text-anchor="start" x="665.38" y="-334.5" font-family="Helvetica,sans-Serif" font-size="10.00">systems/inputHandler</text>
<text xml:space="preserve" text-anchor="middle" x="713" y="-322.5" font-family="Helvetica,sans-Serif" font-size="10.00">/src/InputHandler.hpp</text>
</a>
</g>
</g>
<!-- Node2 -->
<g id="Node000002" class="node">
<title>Node2</title>
<g id="a_Node000002"><a xlink:title=" ">
<polygon fill="#e0e0e0" stroke="#999999" points="369,-20 329,-20 329,0 369,0 369,-20"/>
<text xml:space="preserve" text-anchor="middle" x="349" y="-6.5" font-family="Helvetica,sans-Serif" font-size="10.00">bitset</text>
</a>
</g>
</g>
<!-- Node1&#45;&gt;Node2 -->
<g id="edge1_Node000001_Node000002" class="edge">
<title>Node1&#45;&gt;Node2</title>
<g id="a_edge1_Node000001_Node000002"><a xlink:title=" ">
<path fill="none" stroke="#63b8ff" d="M657.1,-328.51C535.09,-322.65 248.36,-306.45 155,-280 80.99,-259.03 0,-279.92 0,-203 0,-203 0,-203 0,-133 0,-66.1 231.44,-27.25 317.38,-15.14"/>
<polygon fill="#63b8ff" stroke="#63b8ff" points="317.8,-18.61 327.23,-13.78 316.84,-11.68 317.8,-18.61"/>
</a>
</g>
</g>
<!-- Node3 -->
<g id="Node000003" class="node">
<title>Node3</title>
<g id="a_Node000003"><a xlink:title=" ">
<polygon fill="#e0e0e0" stroke="#999999" points="868.62,-20 823.38,-20 823.38,0 868.62,0 868.62,-20"/>
<text xml:space="preserve" text-anchor="middle" x="846" y="-6.5" font-family="Helvetica,sans-Serif" font-size="10.00">cstdint</text>
</a>
</g>
</g>
<!-- Node1&#45;&gt;Node3 -->
<g id="edge2_Node000001_Node000003" class="edge">
<title>Node1&#45;&gt;Node3</title>
<g id="a_edge2_Node000001_Node000003"><a xlink:title=" ">
<path fill="none" stroke="#63b8ff" d="M769.03,-331.34C946.27,-331.92 1486.57,-329.55 1546,-280 1573.07,-257.43 1565,-238.25 1565,-203 1565,-203 1565,-203 1565,-133 1565,-62.65 1023.07,-22.5 880.19,-13.13"/>
<polygon fill="#63b8ff" stroke="#63b8ff" points="880.82,-9.67 870.62,-12.51 880.37,-16.65 880.82,-9.67"/>
</a>
</g>
</g>
<!-- Node4 -->
<g id="Node000004" class="node">
<title>Node4</title>
<g id="a_Node000004"><a xlink:href="Registry_8hpp.html" target="_top" xlink:title=" ">
<polygon fill="white" stroke="#666666" points="343.25,-274 226.75,-274 226.75,-254 343.25,-254 343.25,-274"/>
<text xml:space="preserve" text-anchor="middle" x="285" y="-260.5" font-family="Helvetica,sans-Serif" font-size="10.00">../../../ecs/Registry.hpp</text>
</a>
</g>
</g>
<!-- Node1&#45;&gt;Node4 -->
<g id="edge3_Node000001_Node000004" class="edge">
<title>Node1&#45;&gt;Node4</title>
<g id="a_edge3_Node000001_Node000004"><a xlink:title=" ">
<path fill="none" stroke="#63b8ff" d="M657.12,-324.51C585.98,-315.93 459.42,-299.58 352,-280 346.78,-279.05 341.35,-277.97 335.93,-276.85"/>
<polygon fill="#63b8ff" stroke="#63b8ff" points="336.92,-273.48 326.41,-274.81 335.45,-280.32 336.92,-273.48"/>
</a>
</g>
</g>
<!-- Node10 -->
<g id="Node000010" class="node">
<title>Node10</title>
<g id="a_Node000010"><a xlink:href="System_8hpp.html" target="_top" xlink:title=" ">
<polygon fill="white" stroke="#666666" points="242.25,-212 173.75,-212 173.75,-192 242.25,-192 242.25,-212"/>
<text xml:space="preserve" text-anchor="middle" x="208" y="-198.5" font-family="Helvetica,sans-Serif" font-size="10.00">System.hpp</text>
</a>
</g>
</g>
<!-- Node1&#45;&gt;Node10 -->
<g id="edge28_Node000001_Node000010" class="edge">
<title>Node1&#45;&gt;Node10</title>
<g id="a_edge28_Node000001_Node000010"><a xlink:title=" ">
<path fill="none" stroke="#63b8ff" d="M657.21,-329.09C534.38,-324.35 248.98,-310.17 218,-280 203.31,-265.7 202.55,-241.21 204.35,-223.69"/>
<polygon fill="#63b8ff" stroke="#63b8ff" points="207.79,-224.3 205.73,-213.91 200.86,-223.32 207.79,-224.3"/>
</a>
</g>
</g>
<!-- Node17 -->
<g id="Node000017" class="node">
<title>Node17</title>
<g id="a_Node000017"><a xlink:href="Health_8hpp.html" target="_top" xlink:title=" ">
<polygon fill="white" stroke="#666666" points="473,-280 361,-280 361,-248 473,-248 473,-280"/>
<text xml:space="preserve" text-anchor="start" x="369" y="-266.5" font-family="Helvetica,sans-Serif" font-size="10.00">../../../components</text>
<text xml:space="preserve" text-anchor="middle" x="417" y="-254.5" font-family="Helvetica,sans-Serif" font-size="10.00">/health/src/Health.hpp</text>
</a>
</g>
</g>
<!-- Node1&#45;&gt;Node17 -->
<g id="edge29_Node000001_Node000017" class="edge">
<title>Node1&#45;&gt;Node17</title>
<g id="a_edge29_Node000001_Node000017"><a xlink:title=" ">
<path fill="none" stroke="#63b8ff" d="M656.95,-318.78C612.71,-309.1 549.11,-295.11 484.57,-280.57"/>
<polygon fill="#63b8ff" stroke="#63b8ff" points="485.36,-277.16 474.84,-278.37 483.82,-283.99 485.36,-277.16"/>
</a>
</g>
</g>
<!-- Node18 -->
<g id="Node000018" class="node">
<title>Node18</title>
<g id="a_Node000018"><a xlink:href="Damage_8hpp.html" target="_top" xlink:title=" ">
<polygon fill="white" stroke="#666666" points="619.25,-280 490.75,-280 490.75,-248 619.25,-248 619.25,-280"/>
<text xml:space="preserve" text-anchor="start" x="498.75" y="-266.5" font-family="Helvetica,sans-Serif" font-size="10.00">../../../components</text>
<text xml:space="preserve" text-anchor="middle" x="555" y="-254.5" font-family="Helvetica,sans-Serif" font-size="10.00">/damage/src/Damage.hpp</text>
</a>
</g>
</g>
<!-- Node1&#45;&gt;Node18 -->
<g id="edge30_Node000001_Node000018" class="edge">
<title>Node1&#45;&gt;Node18</title>
<g id="a_edge30_Node000001_Node000018"><a xlink:title=" ">
<path fill="none" stroke="#63b8ff" d="M675.96,-315.53C654.05,-306.37 626.07,-294.69 602.54,-284.86"/>
<polygon fill="#63b8ff" stroke="#63b8ff" points="604.06,-281.7 593.48,-281.07 601.36,-288.16 604.06,-281.7"/>
</a>
</g>
</g>
<!-- Node19 -->
<g id="Node000019" class="node">
<title>Node19</title>
<g id="a_Node000019"><a xlink:href="Position_8hpp.html" target="_top" xlink:title=" ">
<polygon fill="white" stroke="#666666" points="1257.12,-280 1130.88,-280 1130.88,-248 1257.12,-248 1257.12,-280"/>
<text xml:space="preserve" text-anchor="start" x="1138.88" y="-266.5" font-family="Helvetica,sans-Serif" font-size="10.00">../../../components</text>
<text xml:space="preserve" text-anchor="middle" x="1194" y="-254.5" font-family="Helvetica,sans-Serif" font-size="10.00">/position/src/Position.hpp</text>
</a>
</g>
</g>
<!-- Node1&#45;&gt;Node19 -->
<g id="edge31_Node000001_Node000019" class="edge">
<title>Node1&#45;&gt;Node19</title>
<g id="a_edge31_Node000001_Node000019"><a xlink:title=" ">
<path fill="none" stroke="#63b8ff" d="M769.11,-325.46C845.96,-317.56 988.46,-301.75 1119.43,-280.35"/>
<polygon fill="#63b8ff" stroke="#63b8ff" points="1119.66,-283.86 1128.96,-278.78 1118.52,-276.95 1119.66,-283.86"/>
</a>
</g>
</g>
<!-- Node21 -->
<g id="Node000021" class="node">
<title>Node21</title>
<g id="a_Node000021"><a xlink:href="Velocity_8hpp.html" target="_top" xlink:title=" ">
<polygon fill="white" stroke="#666666" points="931.38,-280 806.62,-280 806.62,-248 931.38,-248 931.38,-280"/>
<text xml:space="preserve" text-anchor="start" x="814.62" y="-266.5" font-family="Helvetica,sans-Serif" font-size="10.00">../../../components</text>
<text xml:space="preserve" text-anchor="middle" x="869" y="-254.5" font-family="Helvetica,sans-Serif" font-size="10.00">/velocity/src/Velocity.hpp</text>
</a>
</g>
</g>
<!-- Node1&#45;&gt;Node21 -->
<g id="edge33_Node000001_Node000021" class="edge">
<title>Node1&#45;&gt;Node21</title>
<g id="a_edge33_Node000001_Node000021"><a xlink:title=" ">
<path fill="none" stroke="#63b8ff" d="M749.58,-315.53C771.21,-306.37 798.83,-294.69 822.06,-284.86"/>
<polygon fill="#63b8ff" stroke="#63b8ff" points="823.14,-288.2 830.99,-281.08 820.42,-281.75 823.14,-288.2"/>
</a>
</g>
</g>
<!-- Node22 -->
<g id="Node000022" class="node">
<title>Node22</title>
<g id="a_Node000022"><a xlink:href="Acceleration_8hpp.html" target="_top" xlink:title=" ">
<polygon fill="white" stroke="#666666" points="1112.88,-280 949.12,-280 949.12,-248 1112.88,-248 1112.88,-280"/>
<text xml:space="preserve" text-anchor="start" x="957.12" y="-266.5" font-family="Helvetica,sans-Serif" font-size="10.00">../../../components</text>
<text xml:space="preserve" text-anchor="middle" x="1031" y="-254.5" font-family="Helvetica,sans-Serif" font-size="10.00">/acceleration/src/Acceleration.hpp</text>
</a>
</g>
</g>
<!-- Node1&#45;&gt;Node22 -->
<g id="edge34_Node000001_Node000022" class="edge">
<title>Node1&#45;&gt;Node22</title>
<g id="a_edge34_Node000001_Node000022"><a xlink:title=" ">
<path fill="none" stroke="#63b8ff" d="M769.12,-319.35C817.93,-309.22 889.41,-294.39 945.36,-282.77"/>
<polygon fill="#63b8ff" stroke="#63b8ff" points="945.77,-286.26 954.85,-280.8 944.35,-279.41 945.77,-286.26"/>
</a>
</g>
</g>
<!-- Node23 -->
<g id="Node000023" class="node">
<title>Node23</title>
<g id="a_Node000023"><a xlink:href="InputControlled_8hpp.html" target="_top" xlink:title=" ">
<polygon fill="white" stroke="#666666" points="131.88,-156 28.12,-156 28.12,-112 131.88,-112 131.88,-156"/>
<text xml:space="preserve" text-anchor="start" x="36.12" y="-142.5" font-family="Helvetica,sans-Serif" font-size="10.00">../../../components</text>
<text xml:space="preserve" text-anchor="start" x="36.12" y="-130.5" font-family="Helvetica,sans-Serif" font-size="10.00">/inputControlled/src</text>
<text xml:space="preserve" text-anchor="middle" x="80" y="-118.5" font-family="Helvetica,sans-Serif" font-size="10.00">/InputControlled.hpp</text>
</a>
</g>
</g>
<!-- Node1&#45;&gt;Node23 -->
<g id="edge35_Node000001_Node000023" class="edge">
<title>Node1&#45;&gt;Node23</title>
<g id="a_edge35_Node000001_Node000023"><a xlink:title=" ">
<path fill="none" stroke="#63b8ff" d="M657.1,-330.73C540.99,-329.34 278.01,-321.54 200,-280 151.91,-254.39 115.55,-200.62 96.05,-166.25"/>
<polygon fill="#63b8ff" stroke="#63b8ff" points="99.16,-164.65 91.27,-157.58 93.03,-168.03 99.16,-164.65"/>
</a>
</g>
</g>
<!-- Node24 -->
<g id="Node000024" class="node">
<title>Node24</title>
<g id="a_Node000024"><a xlink:href="Renderable_8hpp.html" target="_top" xlink:title=" ">
<polygon fill="white" stroke="#666666" points="788.88,-280 637.12,-280 637.12,-248 788.88,-248 788.88,-280"/>
<text xml:space="preserve" text-anchor="start" x="645.12" y="-266.5" font-family="Helvetica,sans-Serif" font-size="10.00">../../../components</text>
<text xml:space="preserve" text-anchor="middle" x="713" y="-254.5" font-family="Helvetica,sans-Serif" font-size="10.00">/renderable/src/Renderable.hpp</text>
</a>
</g>
</g>
<!-- Node1&#45;&gt;Node24 -->
<g id="edge38_Node000001_Node000024" class="edge">
<title>Node1&#45;&gt;Node24</title>
<g id="a_edge38_Node000001_Node000024"><a xlink:title=" ">
<path fill="none" stroke="#63b8ff" d="M713,-315.69C713,-308.53 713,-299.79 713,-291.59"/>
<polygon fill="#63b8ff" stroke="#63b8ff" points="716.5,-291.74 713,-281.74 709.5,-291.74 716.5,-291.74"/>
</a>
</g>
</g>
<!-- Node26 -->
<g id="Node000026" class="node">
<title>Node26</title>
<g id="a_Node000026"><a xlink:href="Domain_8hpp.html" target="_top" xlink:title=" ">
<polygon fill="white" stroke="#666666" points="1537.25,-280 1414.75,-280 1414.75,-248 1537.25,-248 1537.25,-280"/>
<text xml:space="preserve" text-anchor="start" x="1422.75" y="-266.5" font-family="Helvetica,sans-Serif" font-size="10.00">../../../components</text>
<text xml:space="preserve" text-anchor="middle" x="1476" y="-254.5" font-family="Helvetica,sans-Serif" font-size="10.00">/domain/src/Domain.hpp</text>
</a>
</g>
</g>
<!-- Node1&#45;&gt;Node26 -->
<g id="edge42_Node000001_Node000026" class="edge">
<title>Node1&#45;&gt;Node26</title>
<g id="a_edge42_Node000001_Node000026"><a xlink:title=" ">
<path fill="none" stroke="#63b8ff" d="M768.97,-329.49C885.39,-325.79 1162.2,-314.06 1403.52,-280.23"/>
<polygon fill="#63b8ff" stroke="#63b8ff" points="1403.72,-283.73 1413.13,-278.86 1402.73,-276.8 1403.72,-283.73"/>
</a>
</g>
</g>
<!-- Node27 -->
<g id="Node000027" class="node">
<title>Node27</title>
<g id="a_Node000027"><a xlink:href="Collider_8hpp.html" target="_top" xlink:title=" ">
<polygon fill="white" stroke="#666666" points="1396.5,-280 1275.5,-280 1275.5,-248 1396.5,-248 1396.5,-280"/>
<text xml:space="preserve" text-anchor="start" x="1283.5" y="-266.5" font-family="Helvetica,sans-Serif" font-size="10.00">../../../components</text>
<text xml:space="preserve" text-anchor="middle" x="1336" y="-254.5" font-family="Helvetica,sans-Serif" font-size="10.00">/collider/src/Collider.hpp</text>
</a>
</g>
</g>
<!-- Node1&#45;&gt;Node27 -->
<g id="edge43_Node000001_Node000027" class="edge">
<title>Node1&#45;&gt;Node27</title>
<g id="a_edge43_Node000001_Node000027"><a xlink:title=" ">
<path fill="none" stroke="#63b8ff" d="M769,-328.05C867.2,-322.39 1076.99,-308.15 1264.21,-280.14"/>
<polygon fill="#63b8ff" stroke="#63b8ff" points="1264.52,-283.64 1273.88,-278.68 1263.47,-276.72 1264.52,-283.64"/>
</a>
</g>
</g>
<!-- Node5 -->
<g id="Node000005" class="node">
<title>Node5</title>
<g id="a_Node000005"><a xlink:href="Types_8hpp.html" target="_top" xlink:title="Core type definitions used throughout the ECS (Entity Component System).">
<polygon fill="white" stroke="#666666" points="379.5,-76 318.5,-76 318.5,-56 379.5,-56 379.5,-76"/>
<text xml:space="preserve" text-anchor="middle" x="349" y="-62.5" font-family="Helvetica,sans-Serif" font-size="10.00">Types.hpp</text>
</a>
</g>
</g>
<!-- Node4&#45;&gt;Node5 -->
<g id="edge4_Node000004_Node000005" class="edge">
<title>Node4&#45;&gt;Node5</title>
<g id="a_edge4_Node000004_Node000005"><a xlink:title=" ">
<path fill="none" stroke="#63b8ff" d="M332.22,-253.59C355.34,-246.34 381.12,-233.73 395,-212 421.19,-170.98 385.84,-113.89 363.98,-85.11"/>
<polygon fill="#63b8ff" stroke="#63b8ff" points="366.81,-83.05 357.87,-77.37 361.32,-87.39 366.81,-83.05"/>
</a>
</g>
</g>
<!-- Node6 -->
<g id="Node000006" class="node">
<title>Node6</title>
<g id="a_Node000006"><a xlink:href="ComponentRegistry_8hpp.html" target="_top" xlink:title=" ">
<polygon fill="white" stroke="#666666" points="309.5,-144 188.5,-144 188.5,-124 309.5,-124 309.5,-144"/>
<text xml:space="preserve" text-anchor="middle" x="249" y="-130.5" font-family="Helvetica,sans-Serif" font-size="10.00">ComponentRegistry.hpp</text>
</a>
</g>
</g>
<!-- Node4&#45;&gt;Node6 -->
<g id="edge7_Node000004_Node000006" class="edge">
<title>Node4&#45;&gt;Node6</title>
<g id="a_edge7_Node000004_Node000006"><a xlink:title=" ">
<path fill="none" stroke="#63b8ff" d="M229.59,-253.57C205.49,-246.42 179.49,-233.9 165,-212 147.86,-186.1 183.33,-163.01 213.33,-149.02"/>
<polygon fill="#63b8ff" stroke="#63b8ff" points="214.51,-152.33 222.24,-145.08 211.68,-145.93 214.51,-152.33"/>
</a>
</g>
</g>
<!-- Node7 -->
<g id="Node000007" class="node">
<title>Node7</title>
<g id="a_Node000007"><a xlink:title=" ">
<polygon fill="#e0e0e0" stroke="#999999" points="451.5,-76 408.5,-76 408.5,-56 451.5,-56 451.5,-76"/>
<text xml:space="preserve" text-anchor="middle" x="430" y="-62.5" font-family="Helvetica,sans-Serif" font-size="10.00">vector</text>
</a>
</g>
</g>
<!-- Node4&#45;&gt;Node7 -->
<g id="edge22_Node000004_Node000007" class="edge">
<title>Node4&#45;&gt;Node7</title>
<g id="a_edge22_Node000004_Node000007"><a xlink:title=" ">
<path fill="none" stroke="#63b8ff" d="M319.64,-253.55C353.38,-243.61 401.25,-227.33 413,-212 440.94,-175.57 437.85,-118.11 433.66,-87.61"/>
<polygon fill="#63b8ff" stroke="#63b8ff" points="437.13,-87.16 432.11,-77.82 430.21,-88.25 437.13,-87.16"/>
</a>
</g>
</g>
<!-- Node4&#45;&gt;Node10 -->
<g id="edge12_Node000004_Node000010" class="edge">
<title>Node4&#45;&gt;Node10</title>
<g id="a_edge12_Node000004_Node000010"><a xlink:title=" ">
<path fill="none" stroke="#63b8ff" d="M272.97,-253.62C261.22,-244.47 243.08,-230.34 228.96,-219.33"/>
<polygon fill="#63b8ff" stroke="#63b8ff" points="231.18,-216.63 221.14,-213.24 226.88,-222.15 231.18,-216.63"/>
</a>
</g>
</g>
<!-- Node11 -->
<g id="Node000011" class="node">
<title>Node11</title>
<g id="a_Node000011"><a xlink:href="EntityManager_8hpp.html" target="_top" xlink:title=" ">
<polygon fill="white" stroke="#666666" points="675.88,-144 578.12,-144 578.12,-124 675.88,-124 675.88,-144"/>
<text xml:space="preserve" text-anchor="middle" x="627" y="-130.5" font-family="Helvetica,sans-Serif" font-size="10.00">EntityManager.hpp</text>
</a>
</g>
</g>
<!-- Node4&#45;&gt;Node11 -->
<g id="edge17_Node000004_Node000011" class="edge">
<title>Node4&#45;&gt;Node11</title>
<g id="a_edge17_Node000004_Node000011"><a xlink:title=" ">
<path fill="none" stroke="#63b8ff" d="M325.34,-253.58C380.6,-240.58 474.75,-218.06 490,-212 532.09,-195.29 577.19,-167.88 603.7,-150.67"/>
<polygon fill="#63b8ff" stroke="#63b8ff" points="605.53,-153.66 611.96,-145.24 601.68,-147.81 605.53,-153.66"/>
</a>
</g>
</g>
<!-- Node12 -->
<g id="Node000012" class="node">
<title>Node12</title>
<g id="a_Node000012"><a xlink:href="SparseSet_8hpp.html" target="_top" xlink:title=" ">
<polygon fill="white" stroke="#666666" points="560.25,-144 479.75,-144 479.75,-124 560.25,-124 560.25,-144"/>
<text xml:space="preserve" text-anchor="middle" x="520" y="-130.5" font-family="Helvetica,sans-Serif" font-size="10.00">SparseSet.hpp</text>
</a>
</g>
</g>
<!-- Node4&#45;&gt;Node12 -->
<g id="edge20_Node000004_Node000012" class="edge">
<title>Node4&#45;&gt;Node12</title>
<g id="a_edge20_Node000004_Node000012"><a xlink:title=" ">
<path fill="none" stroke="#63b8ff" d="M323.97,-253.5C373.59,-241.18 454.32,-220.29 466,-212 486.65,-197.35 502.09,-172.21 511.06,-154.65"/>
<polygon fill="#63b8ff" stroke="#63b8ff" points="514.16,-156.28 515.35,-145.76 507.86,-153.24 514.16,-156.28"/>
</a>
</g>
</g>
<!-- Node13 -->
<g id="Node000013" class="node">
<title>Node13</title>
<g id="a_Node000013"><a xlink:title=" ">
<polygon fill="#e0e0e0" stroke="#999999" points="311.62,-212 260.38,-212 260.38,-192 311.62,-192 311.62,-212"/>
<text xml:space="preserve" text-anchor="middle" x="286" y="-198.5" font-family="Helvetica,sans-Serif" font-size="10.00">memory</text>
</a>
</g>
</g>
<!-- Node4&#45;&gt;Node13 -->
<g id="edge23_Node000004_Node000013" class="edge">
<title>Node4&#45;&gt;Node13</title>
<g id="a_edge23_Node000004_Node000013"><a xlink:title=" ">
<path fill="none" stroke="#63b8ff" d="M285.16,-253.62C285.29,-245.56 285.49,-233.65 285.66,-223.41"/>
<polygon fill="#63b8ff" stroke="#63b8ff" points="289.16,-223.68 285.82,-213.63 282.16,-223.57 289.16,-223.68"/>
</a>
</g>
</g>
<!-- Node14 -->
<g id="Node000014" class="node">
<title>Node14</title>
<g id="a_Node000014"><a xlink:title=" ">
<polygon fill="#e0e0e0" stroke="#999999" points="385.88,-212 330.12,-212 330.12,-192 385.88,-192 385.88,-212"/>
<text xml:space="preserve" text-anchor="middle" x="358" y="-198.5" font-family="Helvetica,sans-Serif" font-size="10.00">algorithm</text>
</a>
</g>
</g>
<!-- Node4&#45;&gt;Node14 -->
<g id="edge24_Node000004_Node000014" class="edge">
<title>Node4&#45;&gt;Node14</title>
<g id="a_edge24_Node000004_Node000014"><a xlink:title=" ">
<path fill="none" stroke="#63b8ff" d="M296.41,-253.62C307.61,-244.41 324.94,-230.17 338.37,-219.14"/>
<polygon fill="#63b8ff" stroke="#63b8ff" points="340.24,-222.13 345.74,-213.07 335.8,-216.72 340.24,-222.13"/>
</a>
</g>
</g>
<!-- Node15 -->
<g id="Node000015" class="node">
<title>Node15</title>
<g id="a_Node000015"><a xlink:title=" ">
<polygon fill="#e0e0e0" stroke="#999999" points="669.75,-212 616.25,-212 616.25,-192 669.75,-192 669.75,-212"/>
<text xml:space="preserve" text-anchor="middle" x="643" y="-198.5" font-family="Helvetica,sans-Serif" font-size="10.00">iostream</text>
</a>
</g>
</g>
<!-- Node4&#45;&gt;Node15 -->
<g id="edge25_Node000004_Node000015" class="edge">
<title>Node4&#45;&gt;Node15</title>
<g id="a_edge25_Node000004_Node000015"><a xlink:title=" ">
<path fill="none" stroke="#63b8ff" d="M324.93,-253.53C333.82,-251.57 343.21,-249.62 352,-248 461.97,-227.77 490.94,-231.73 601,-212 602.21,-211.78 603.44,-211.56 604.68,-211.32"/>
<polygon fill="#63b8ff" stroke="#63b8ff" points="605.33,-214.76 614.46,-209.37 603.97,-207.9 605.33,-214.76"/>
</a>
</g>
</g>
<!-- Node16 -->
<g id="Node000016" class="node">
<title>Node16</title>
<g id="a_Node000016"><a xlink:href="Clock_8hpp.html" target="_top" xlink:title=" ">
<polygon fill="white" stroke="#666666" points="804.12,-144 743.88,-144 743.88,-124 804.12,-124 804.12,-144"/>
<text xml:space="preserve" text-anchor="middle" x="774" y="-130.5" font-family="Helvetica,sans-Serif" font-size="10.00">Clock.hpp</text>
</a>
</g>
</g>
<!-- Node4&#45;&gt;Node16 -->
<g id="edge26_Node000004_Node000016" class="edge">
<title>Node4&#45;&gt;Node16</title>
<g id="a_edge26_Node000004_Node000016"><a xlink:title=" ">
<path fill="none" stroke="#63b8ff" d="M326.79,-253.53C335.14,-251.67 343.84,-249.76 352,-248 429.2,-231.37 449.53,-231.73 526,-212 601.17,-192.6 687.42,-164.46 735.84,-148.12"/>
<polygon fill="#63b8ff" stroke="#63b8ff" points="736.95,-151.44 745.29,-144.91 734.7,-144.81 736.95,-151.44"/>
</a>
</g>
</g>
<!-- Node5&#45;&gt;Node2 -->
<g id="edge6_Node000005_Node000002" class="edge">
<title>Node5&#45;&gt;Node2</title>
<g id="a_edge6_Node000005_Node000002"><a xlink:title=" ">
<path fill="none" stroke="#63b8ff" d="M349,-55.59C349,-49.01 349,-39.96 349,-31.73"/>
<polygon fill="#63b8ff" stroke="#63b8ff" points="352.5,-31.81 349,-21.81 345.5,-31.81 352.5,-31.81"/>
</a>
</g>
</g>
<!-- Node5&#45;&gt;Node3 -->
<g id="edge5_Node000005_Node000003" class="edge">
<title>Node5&#45;&gt;Node3</title>
<g id="a_edge5_Node000005_Node000003"><a xlink:title=" ">
<path fill="none" stroke="#63b8ff" d="M379.88,-59.05C386.19,-57.95 392.8,-56.87 399,-56 552.6,-34.48 737.3,-19.24 812.09,-13.51"/>
<polygon fill="#63b8ff" stroke="#63b8ff" points="811.92,-17.03 821.62,-12.78 811.39,-10.05 811.92,-17.03"/>
</a>
</g>
</g>
<!-- Node6&#45;&gt;Node5 -->
<g id="edge8_Node000006_Node000005" class="edge">
<title>Node6&#45;&gt;Node5</title>
<g id="a_edge8_Node000006_Node000005"><a xlink:title=" ">
<path fill="none" stroke="#63b8ff" d="M263.33,-123.54C279.44,-112.91 305.87,-95.47 325.12,-82.76"/>
<polygon fill="#63b8ff" stroke="#63b8ff" points="327.02,-85.7 333.44,-77.27 323.16,-79.86 327.02,-85.7"/>
</a>
</g>
</g>
<!-- Node6&#45;&gt;Node7 -->
<g id="edge9_Node000006_Node000007" class="edge">
<title>Node6&#45;&gt;Node7</title>
<g id="a_edge9_Node000006_Node000007"><a xlink:title=" ">
<path fill="none" stroke="#63b8ff" d="M274.93,-123.54C307.22,-111.77 362.37,-91.66 397.46,-78.87"/>
<polygon fill="#63b8ff" stroke="#63b8ff" points="398.47,-82.22 406.67,-75.51 396.08,-75.64 398.47,-82.22"/>
</a>
</g>
</g>
<!-- Node8 -->
<g id="Node000008" class="node">
<title>Node8</title>
<g id="a_Node000008"><a xlink:title=" ">
<polygon fill="#e0e0e0" stroke="#999999" points="278,-76 220,-76 220,-56 278,-56 278,-76"/>
<text xml:space="preserve" text-anchor="middle" x="249" y="-62.5" font-family="Helvetica,sans-Serif" font-size="10.00">typeindex</text>
</a>
</g>
</g>
<!-- Node6&#45;&gt;Node8 -->
<g id="edge10_Node000006_Node000008" class="edge">
<title>Node6&#45;&gt;Node8</title>
<g id="a_edge10_Node000006_Node000008"><a xlink:title=" ">
<path fill="none" stroke="#63b8ff" d="M249,-123.54C249,-114.23 249,-99.7 249,-87.7"/>
<polygon fill="#63b8ff" stroke="#63b8ff" points="252.5,-87.95 249,-77.95 245.5,-87.95 252.5,-87.95"/>
</a>
</g>
</g>
<!-- Node9 -->
<g id="Node000009" class="node">
<title>Node9</title>
<g id="a_Node000009"><a xlink:title=" ">
<polygon fill="#e0e0e0" stroke="#999999" points="180,-76 140,-76 140,-56 180,-56 180,-76"/>
<text xml:space="preserve" text-anchor="middle" x="160" y="-62.5" font-family="Helvetica,sans-Serif" font-size="10.00">string</text>
</a>
</g>
</g>
<!-- Node6&#45;&gt;Node9 -->
<g id="edge11_Node000006_Node000009" class="edge">
<title>Node6&#45;&gt;Node9</title>
<g id="a_edge11_Node000006_Node000009"><a xlink:title=" ">
<path fill="none" stroke="#63b8ff" d="M236.25,-123.54C222.11,-113.06 199.03,-95.95 181.97,-83.29"/>
<polygon fill="#63b8ff" stroke="#63b8ff" points="184.06,-80.49 173.94,-77.34 179.89,-86.11 184.06,-80.49"/>
</a>
</g>
</g>
<!-- Node10&#45;&gt;Node5 -->
<g id="edge13_Node000010_Node000005" class="edge">
<title>Node10&#45;&gt;Node5</title>
<g id="a_edge13_Node000010_Node000005"><a xlink:title=" ">
<path fill="none" stroke="#63b8ff" d="M238.82,-191.55C267.26,-182.29 306.75,-167.87 318,-156 335.91,-137.11 343.53,-107.33 346.74,-87.49"/>
<polygon fill="#63b8ff" stroke="#63b8ff" points="350.17,-88.23 348.04,-77.85 343.23,-87.3 350.17,-88.23"/>
</a>
</g>
</g>
<!-- Node10&#45;&gt;Node6 -->
<g id="edge14_Node000010_Node000006" class="edge">
<title>Node10&#45;&gt;Node6</title>
<g id="a_edge14_Node000010_Node000006"><a xlink:title=" ">
<path fill="none" stroke="#63b8ff" d="M213.87,-191.54C219.9,-181.84 229.45,-166.47 237.07,-154.2"/>
<polygon fill="#63b8ff" stroke="#63b8ff" points="240.03,-156.07 242.34,-145.72 234.09,-152.37 240.03,-156.07"/>
</a>
</g>
</g>
<!-- Node10&#45;&gt;Node7 -->
<g id="edge16_Node000010_Node000007" class="edge">
<title>Node10&#45;&gt;Node7</title>
<g id="a_edge16_Node000010_Node000007"><a xlink:title=" ">
<path fill="none" stroke="#63b8ff" d="M242.38,-191.55C276.48,-181.82 326.04,-166.62 343,-156 373.24,-137.07 400.66,-105.54 416.32,-85.53"/>
<polygon fill="#63b8ff" stroke="#63b8ff" points="419.01,-87.78 422.29,-77.7 413.45,-83.53 419.01,-87.78"/>
</a>
</g>
</g>
<!-- Node10&#45;&gt;Node9 -->
<g id="edge15_Node000010_Node000009" class="edge">
<title>Node10&#45;&gt;Node9</title>
<g id="a_edge15_Node000010_Node000009"><a xlink:title=" ">
<path fill="none" stroke="#63b8ff" d="M200.46,-191.56C193.85,-182.83 184.46,-169.23 179,-156 169.79,-133.68 164.8,-106.29 162.28,-87.84"/>
<polygon fill="#63b8ff" stroke="#63b8ff" points="165.76,-87.43 161.07,-77.93 158.81,-88.28 165.76,-87.43"/>
</a>
</g>
</g>
<!-- Node11&#45;&gt;Node3 -->
<g id="edge19_Node000011_Node000003" class="edge">
<title>Node11&#45;&gt;Node3</title>
<g id="a_edge19_Node000011_Node000003"><a xlink:title=" ">
<path fill="none" stroke="#63b8ff" d="M643.82,-123.63C681.64,-102.56 773.64,-51.31 819.33,-25.86"/>
<polygon fill="#63b8ff" stroke="#63b8ff" points="820.77,-29.06 827.8,-21.14 817.36,-22.95 820.77,-29.06"/>
</a>
</g>
</g>
<!-- Node11&#45;&gt;Node7 -->
<g id="edge18_Node000011_Node000007" class="edge">
<title>Node11&#45;&gt;Node7</title>
<g id="a_edge18_Node000011_Node000007"><a xlink:title=" ">
<path fill="none" stroke="#63b8ff" d="M601.37,-123.51C591.31,-119.83 579.64,-115.65 569,-112 532.73,-99.57 490.82,-86.13 462.59,-77.2"/>
<polygon fill="#63b8ff" stroke="#63b8ff" points="463.78,-73.91 453.19,-74.24 461.67,-80.58 463.78,-73.91"/>
</a>
</g>
</g>
<!-- Node12&#45;&gt;Node7 -->
<g id="edge21_Node000012_Node000007" class="edge">
<title>Node12&#45;&gt;Node7</title>
<g id="a_edge21_Node000012_Node000007"><a xlink:title=" ">
<path fill="none" stroke="#63b8ff" d="M507.11,-123.54C492.67,-112.96 469.04,-95.63 451.73,-82.94"/>
<polygon fill="#63b8ff" stroke="#63b8ff" points="454.23,-80.42 444.09,-77.33 450.09,-86.07 454.23,-80.42"/>
</a>
</g>
</g>
<!-- Node16&#45;&gt;Node3 -->
<g id="edge27_Node000016_Node000003" class="edge">
<title>Node16&#45;&gt;Node3</title>
<g id="a_edge27_Node000016_Node000003"><a xlink:title=" ">
<path fill="none" stroke="#63b8ff" d="M779.41,-123.83C791.14,-103.96 819.1,-56.58 834.81,-29.97"/>
<polygon fill="#63b8ff" stroke="#63b8ff" points="837.69,-31.97 839.76,-21.58 831.66,-28.41 837.69,-31.97"/>
</a>
</g>
</g>
<!-- Node20 -->
<g id="Node000020" class="node">
<title>Node20</title>
<g id="a_Node000020"><a xlink:href="utils_8hpp.html" target="_top" xlink:title=" ">
<polygon fill="white" stroke="#666666" points="853.25,-212 754.75,-212 754.75,-192 853.25,-192 853.25,-212"/>
<text xml:space="preserve" text-anchor="middle" x="804" y="-198.5" font-family="Helvetica,sans-Serif" font-size="10.00">../../../ecs/utils.hpp</text>
</a>
</g>
</g>
<!-- Node19&#45;&gt;Node20 -->
<g id="edge32_Node000019_Node000020" class="edge">
<title>Node19&#45;&gt;Node20</title>
<g id="a_edge32_Node000019_Node000020"><a xlink:title=" ">
<path fill="none" stroke="#63b8ff" d="M1130.44,-249.52C1127.59,-248.99 1124.77,-248.48 1122,-248 1009.25,-228.32 980.32,-228.09 867,-212 866.18,-211.88 865.35,-211.77 864.52,-211.65"/>
<polygon fill="#63b8ff" stroke="#63b8ff" points="865.41,-208.24 855.02,-210.3 864.43,-215.17 865.41,-208.24"/>
</a>
</g>
</g>
<!-- Node23&#45;&gt;Node7 -->
<g id="edge37_Node000023_Node000007" class="edge">
<title>Node23&#45;&gt;Node7</title>
<g id="a_edge37_Node000023_Node000007"><a xlink:title=" ">
<path fill="none" stroke="#63b8ff" d="M132.33,-121.51C147.37,-118.31 163.82,-114.92 179,-112 271.56,-94.22 295.45,-93.88 388,-76 390.99,-75.42 394.09,-74.8 397.19,-74.16"/>
<polygon fill="#63b8ff" stroke="#63b8ff" points="397.69,-77.64 406.75,-72.15 396.25,-70.79 397.69,-77.64"/>
</a>
</g>
</g>
<!-- Node23&#45;&gt;Node9 -->
<g id="edge36_Node000023_Node000009" class="edge">
<title>Node23&#45;&gt;Node9</title>
<g id="a_edge36_Node000023_Node000009"><a xlink:title=" ">
<path fill="none" stroke="#63b8ff" d="M105.75,-111.75C116.8,-102.64 129.52,-92.14 139.87,-83.61"/>
<polygon fill="#63b8ff" stroke="#63b8ff" points="141.93,-86.45 147.42,-77.38 137.47,-81.05 141.93,-86.45"/>
</a>
</g>
</g>
<!-- Node24&#45;&gt;Node15 -->
<g id="edge40_Node000024_Node000015" class="edge">
<title>Node24&#45;&gt;Node15</title>
<g id="a_edge40_Node000024_Node000015"><a xlink:title=" ">
<path fill="none" stroke="#63b8ff" d="M694.97,-247.55C685.05,-239.04 672.72,-228.48 662.56,-219.77"/>
<polygon fill="#63b8ff" stroke="#63b8ff" points="665,-217.24 655.13,-213.39 660.44,-222.56 665,-217.24"/>
</a>
</g>
</g>
<!-- Node24&#45;&gt;Node20 -->
<g id="edge41_Node000024_Node000020" class="edge">
<title>Node24&#45;&gt;Node20</title>
<g id="a_edge41_Node000024_Node000020"><a xlink:title=" ">
<path fill="none" stroke="#63b8ff" d="M736.43,-247.55C749.86,-238.69 766.68,-227.61 780.17,-218.71"/>
<polygon fill="#63b8ff" stroke="#63b8ff" points="782.05,-221.67 788.47,-213.24 778.19,-215.82 782.05,-221.67"/>
</a>
</g>
</g>
<!-- Node25 -->
<g id="Node000025" class="node">
<title>Node25</title>
<g id="a_Node000025"><a xlink:title=" ">
<polygon fill="#e0e0e0" stroke="#999999" points="737.12,-212 688.88,-212 688.88,-192 737.12,-192 737.12,-212"/>
<text xml:space="preserve" text-anchor="middle" x="713" y="-198.5" font-family="Helvetica,sans-Serif" font-size="10.00">cstddef</text>
</a>
</g>
</g>
<!-- Node24&#45;&gt;Node25 -->
<g id="edge39_Node000024_Node000025" class="edge">
<title>Node24&#45;&gt;Node25</title>
<g id="a_edge39_Node000024_Node000025"><a xlink:title=" ">
<path fill="none" stroke="#63b8ff" d="M713,-247.55C713,-240.34 713,-231.66 713,-223.88"/>
<polygon fill="#63b8ff" stroke="#63b8ff" points="716.5,-223.92 713,-213.92 709.5,-223.92 716.5,-223.92"/>
</a>
</g>
</g>
<!-- Node27&#45;&gt;Node2 -->
<g id="edge44_Node000027_Node000002" class="edge">
<title>Node27&#45;&gt;Node2</title>
<g id="a_edge44_Node000027_Node000002"><a xlink:title=" ">
<path fill="none" stroke="#63b8ff" d="M1286.54,-247.52C1194.07,-218.86 988.46,-156.37 813,-112 651.4,-71.13 455.64,-31.82 380.47,-17.1"/>
<polygon fill="#63b8ff" stroke="#63b8ff" points="381.44,-13.72 370.95,-15.24 380.1,-20.59 381.44,-13.72"/>
</a>
</g>
</g>
<!-- Node27&#45;&gt;Node20 -->
<g id="edge46_Node000027_Node000020" class="edge">
<title>Node27&#45;&gt;Node20</title>
<g id="a_edge46_Node000027_Node000020"><a xlink:title=" ">
<path fill="none" stroke="#63b8ff" d="M1275.38,-249.54C1272.21,-248.98 1269.07,-248.47 1266,-248 1089.96,-221.3 1043.86,-232.6 867,-212 866.18,-211.9 865.35,-211.81 864.51,-211.71"/>
<polygon fill="#63b8ff" stroke="#63b8ff" points="865.35,-208.28 854.99,-210.51 864.48,-215.23 865.35,-208.28"/>
</a>
</g>
</g>
<!-- Node28 -->
<g id="Node000028" class="node">
<title>Node28</title>
<g id="a_Node000028"><a xlink:title=" ">
<polygon fill="#e0e0e0" stroke="#999999" points="1358.62,-212 1313.38,-212 1313.38,-192 1358.62,-192 1358.62,-212"/>
<text xml:space="preserve" text-anchor="middle" x="1336" y="-198.5" font-family="Helvetica,sans-Serif" font-size="10.00">variant</text>
</a>
</g>
</g>
<!-- Node27&#45;&gt;Node28 -->
<g id="edge45_Node000027_Node000028" class="edge">
<title>Node27&#45;&gt;Node28</title>
<g id="a_edge45_Node000027_Node000028"><a xlink:title=" ">
<path fill="none" stroke="#63b8ff" d="M1336,-247.55C1336,-240.34 1336,-231.66 1336,-223.88"/>
<polygon fill="#63b8ff" stroke="#63b8ff" points="1339.5,-223.92 1336,-213.92 1332.5,-223.92 1339.5,-223.92"/>
</a>
</g>
</g>
</g>
</svg>
