<?xml version="1.0" encoding="UTF-8" standalone="no"?>
<!DOCTYPE svg PUBLIC "-//W3C//DTD SVG 1.1//EN"
 "http://www.w3.org/Graphics/SVG/1.1/DTD/svg11.dtd">
<!-- Generated by graphviz version 14.0.2 (0)
 -->
<!-- Title: components/inputControlled/src/InputControlled.hpp Pages: 1 -->
<svg width="271pt" height="208pt"
 viewBox="0.00 0.00 271.00 208.00" xmlns="http://www.w3.org/2000/svg" xmlns:xlink="http://www.w3.org/1999/xlink">
<g id="graph0" class="graph" transform="scale(1 1) rotate(0) translate(4 204)">
<title>components/inputControlled/src/InputControlled.hpp</title>
<!-- Node1 -->
<g id="Node000001" class="node">
<title>Node1</title>
<g id="a_Node000001"><a xlink:title=" ">
<polygon fill="#999999" stroke="#666666" points="137.5,-200 0,-200 0,-168 137.5,-168 137.5,-200"/>
<text xml:space="preserve" text-anchor="start" x="8" y="-186.5" font-family="Helvetica,sans-Serif" font-size="10.00">components/inputControlled</text>
<text xml:space="preserve" text-anchor="middle" x="68.75" y="-174.5" font-family="Helvetica,sans-Serif" font-size="10.00">/src/InputControlled.hpp</text>
</a>
</g>
</g>
<!-- Node2 -->
<g id="Node000002" class="node">
<title>Node2</title>
<g id="a_Node000002"><a xlink:title=" ">
<polygon fill="#e0e0e0" stroke="#999999" points="84.75,-76 44.75,-76 44.75,-56 84.75,-56 84.75,-76"/>
<text xml:space="preserve" text-anchor="middle" x="64.75" y="-62.5" font-family="Helvetica,sans-Serif" font-size="10.00">string</text>
</a>
</g>
</g>
<!-- Node1&#45;&gt;Node2 -->
<g id="edge1_Node000001_Node000002" class="edge">
<title>Node1&#45;&gt;Node2</title>
<g id="a_edge1_Node000001_Node000002"><a xlink:title=" ">
<path fill="none" stroke="#63b8ff" d="M56.25,-167.52C49.32,-157.92 41.38,-144.97 37.75,-132 33.23,-115.84 41.32,-98.32 49.8,-85.55"/>
<polygon fill="#63b8ff" stroke="#63b8ff" points="52.49,-87.8 55.56,-77.66 46.83,-83.67 52.49,-87.8"/>
</a>
</g>
</g>
<!-- Node3 -->
<g id="Node000003" class="node">
<title>Node3</title>
<g id="a_Node000003"><a xlink:title=" ">
<polygon fill="#e0e0e0" stroke="#999999" points="90.25,-132 47.25,-132 47.25,-112 90.25,-112 90.25,-132"/>
<text xml:space="preserve" text-anchor="middle" x="68.75" y="-118.5" font-family="Helvetica,sans-Serif" font-size="10.00">vector</text>
</a>
</g>
</g>
<!-- Node1&#45;&gt;Node3 -->
<g id="edge2_Node000001_Node000003" class="edge">
<title>Node1&#45;&gt;Node3</title>
<g id="a_edge2_Node000001_Node000003"><a xlink:title=" ">
<path fill="none" stroke="#63b8ff" d="M68.75,-167.55C68.75,-160.34 68.75,-151.66 68.75,-143.88"/>
<polygon fill="#63b8ff" stroke="#63b8ff" points="72.25,-143.92 68.75,-133.92 65.25,-143.92 72.25,-143.92"/>
</a>
</g>
</g>
<!-- Node4 -->
<g id="Node000004" class="node">
<title>Node4</title>
<g id="a_Node000004"><a xlink:href="Component_8hpp.html" target="_top" xlink:title=" ">
<polygon fill="white" stroke="#666666" points="239.12,-132 108.38,-132 108.38,-112 239.12,-112 239.12,-132"/>
<text xml:space="preserve" text-anchor="middle" x="173.75" y="-118.5" font-family="Helvetica,sans-Serif" font-size="10.00">../../../ecs/Component.hpp</text>
</a>
</g>
</g>
<!-- Node1&#45;&gt;Node4 -->
<g id="edge3_Node000001_Node000004" class="edge">
<title>Node1&#45;&gt;Node4</title>
<g id="a_edge3_Node000001_Node000004"><a xlink:title=" ">
<path fill="none" stroke="#63b8ff" d="M95.79,-167.55C111.74,-158.43 131.83,-146.96 147.62,-137.93"/>
<polygon fill="#63b8ff" stroke="#63b8ff" points="149.03,-141.16 155.97,-133.16 145.55,-135.08 149.03,-141.16"/>
</a>
</g>
</g>
<!-- Node4&#45;&gt;Node2 -->
<g id="edge5_Node000004_Node000002" class="edge">
<title>Node4&#45;&gt;Node2</title>
<g id="a_edge5_Node000004_Node000002"><a xlink:title=" ">
<path fill="none" stroke="#63b8ff" d="M154.76,-111.59C137.99,-103.28 113.26,-91.03 93.96,-81.47"/>
<polygon fill="#63b8ff" stroke="#63b8ff" points="95.76,-78.45 85.24,-77.15 92.65,-84.73 95.76,-78.45"/>
</a>
</g>
</g>
<!-- Node5 -->
<g id="Node000005" class="node">
<title>Node5</title>
<g id="a_Node000005"><a xlink:title=" ">
<polygon fill="#e0e0e0" stroke="#999999" points="162.38,-76 111.12,-76 111.12,-56 162.38,-56 162.38,-76"/>
<text xml:space="preserve" text-anchor="middle" x="136.75" y="-62.5" font-family="Helvetica,sans-Serif" font-size="10.00">memory</text>
</a>
</g>
</g>
<!-- Node4&#45;&gt;Node5 -->
<g id="edge4_Node000004_Node000005" class="edge">
<title>Node4&#45;&gt;Node5</title>
<g id="a_edge4_Node000004_Node000005"><a xlink:title=" ">
<path fill="none" stroke="#63b8ff" d="M167.31,-111.59C162.42,-104.47 155.56,-94.45 149.57,-85.72"/>
<polygon fill="#63b8ff" stroke="#63b8ff" points="152.52,-83.82 143.98,-77.55 146.74,-87.77 152.52,-83.82"/>
</a>
</g>
</g>
<!-- Node6 -->
<g id="Node000006" class="node">
<title>Node6</title>
<g id="a_Node000006"><a xlink:href="Types_8hpp.html" target="_top" xlink:title="Core type definitions used throughout the ECS (Entity Component System).">
<polygon fill="white" stroke="#666666" points="241.25,-76 180.25,-76 180.25,-56 241.25,-56 241.25,-76"/>
<text xml:space="preserve" text-anchor="middle" x="210.75" y="-62.5" font-family="Helvetica,sans-Serif" font-size="10.00">Types.hpp</text>
</a>
</g>
</g>
<!-- Node4&#45;&gt;Node6 -->
<g id="edge6_Node000004_Node000006" class="edge">
<title>Node4&#45;&gt;Node6</title>
<g id="a_edge6_Node000004_Node000006"><a xlink:title=" ">
<path fill="none" stroke="#63b8ff" d="M180.19,-111.59C185.08,-104.47 191.94,-94.45 197.93,-85.72"/>
<polygon fill="#63b8ff" stroke="#63b8ff" points="200.76,-87.77 203.52,-77.55 194.98,-83.82 200.76,-87.77"/>
</a>
</g>
</g>
<!-- Node7 -->
<g id="Node000007" class="node">
<title>Node7</title>
<g id="a_Node000007"><a xlink:title=" ">
<polygon fill="#e0e0e0" stroke="#999999" points="199.75,-20 159.75,-20 159.75,0 199.75,0 199.75,-20"/>
<text xml:space="preserve" text-anchor="middle" x="179.75" y="-6.5" font-family="Helvetica,sans-Serif" font-size="10.00">bitset</text>
</a>
</g>
</g>
<!-- Node6&#45;&gt;Node7 -->
<g id="edge7_Node000006_Node000007" class="edge">
<title>Node6&#45;&gt;Node7</title>
<g id="a_edge7_Node000006_Node000007"><a xlink:title=" ">
<path fill="none" stroke="#63b8ff" d="M205.35,-55.59C201.31,-48.55 195.63,-38.67 190.66,-30"/>
<polygon fill="#63b8ff" stroke="#63b8ff" points="193.86,-28.54 185.84,-21.61 187.78,-32.03 193.86,-28.54"/>
</a>
</g>
</g>
<!-- Node8 -->
<g id="Node000008" class="node">
<title>Node8</title>
<g id="a_Node000008"><a xlink:title=" ">
<polygon fill="#e0e0e0" stroke="#999999" points="263.38,-20 218.12,-20 218.12,0 263.38,0 263.38,-20"/>
<text xml:space="preserve" text-anchor="middle" x="240.75" y="-6.5" font-family="Helvetica,sans-Serif" font-size="10.00">cstdint</text>
</a>
</g>
</g>
<!-- Node6&#45;&gt;Node8 -->
<g id="edge8_Node000006_Node000008" class="edge">
<title>Node6&#45;&gt;Node8</title>
<g id="a_edge8_Node000006_Node000008"><a xlink:title=" ">
<path fill="none" stroke="#63b8ff" d="M215.98,-55.59C219.85,-48.63 225.26,-38.89 230.03,-30.29"/>
<polygon fill="#63b8ff" stroke="#63b8ff" points="233.05,-32.06 234.85,-21.62 226.93,-28.66 233.05,-32.06"/>
</a>
</g>
</g>
</g>
</svg>
