<?xml version="1.0" encoding="UTF-8" standalone="no"?>
<!DOCTYPE svg PUBLIC "-//W3C//DTD SVG 1.1//EN"
 "http://www.w3.org/Graphics/SVG/1.1/DTD/svg11.dtd">
<!-- Generated by graphviz version 14.0.2 (0)
 -->
<!-- Title: components/inputControlled/src/InputControlled.hpp Pages: 1 -->
<svg width="405pt" height="176pt"
 viewBox="0.00 0.00 405.00 176.00" xmlns="http://www.w3.org/2000/svg" xmlns:xlink="http://www.w3.org/1999/xlink">
<g id="graph0" class="graph" transform="scale(1 1) rotate(0) translate(4 172)">
<title>components/inputControlled/src/InputControlled.hpp</title>
<!-- Node1 -->
<g id="Node000001" class="node">
<title>Node1</title>
<g id="a_Node000001"><a xlink:title=" ">
<polygon fill="#999999" stroke="#666666" points="274.12,-168 136.62,-168 136.62,-136 274.12,-136 274.12,-168"/>
<text xml:space="preserve" text-anchor="start" x="144.62" y="-154.5" font-family="Helvetica,sans-Serif" font-size="10.00">components/inputControlled</text>
<text xml:space="preserve" text-anchor="middle" x="205.38" y="-142.5" font-family="Helvetica,sans-Serif" font-size="10.00">/src/InputControlled.hpp</text>
</a>
</g>
</g>
<!-- Node2 -->
<g id="Node000002" class="node">
<title>Node2</title>
<g id="a_Node000002"><a xlink:href="FPApplyGravity_8hpp.html" target="_top" xlink:title=" ">
<polygon fill="white" stroke="#666666" points="124.75,-100 0,-100 0,-68 124.75,-68 124.75,-100"/>
<text xml:space="preserve" text-anchor="start" x="8" y="-86.5" font-family="Helvetica,sans-Serif" font-size="10.00">systems/FPApplyGravity</text>
<text xml:space="preserve" text-anchor="middle" x="62.38" y="-74.5" font-family="Helvetica,sans-Serif" font-size="10.00">/src/FPApplyGravity.hpp</text>
</a>
</g>
</g>
<!-- Node1&#45;&gt;Node2 -->
<g id="edge1_Node000001_Node000002" class="edge">
<title>Node1&#45;&gt;Node2</title>
<g id="a_edge1_Node000001_Node000002"><a xlink:title=" ">
<path fill="none" stroke="#63b8ff" d="M161.48,-130.74C140.29,-120.96 115.29,-109.42 95.69,-100.38"/>
<polygon fill="#63b8ff" stroke="#63b8ff" points="159.93,-133.88 170.47,-134.89 162.86,-127.52 159.93,-133.88"/>
</a>
</g>
</g>
<!-- Node4 -->
<g id="Node000004" class="node">
<title>Node4</title>
<g id="a_Node000004"><a xlink:href="FPInputHandler_8hpp.html" target="_top" xlink:title=" ">
<polygon fill="white" stroke="#666666" points="267.75,-100 143,-100 143,-68 267.75,-68 267.75,-100"/>
<text xml:space="preserve" text-anchor="start" x="151" y="-86.5" font-family="Helvetica,sans-Serif" font-size="10.00">systems/FPInputHandler</text>
<text xml:space="preserve" text-anchor="middle" x="205.38" y="-74.5" font-family="Helvetica,sans-Serif" font-size="10.00">/src/FPInputHandler.hpp</text>
</a>
</g>
</g>
<!-- Node1&#45;&gt;Node4 -->
<g id="edge3_Node000001_Node000004" class="edge">
<title>Node1&#45;&gt;Node4</title>
<g id="a_edge3_Node000001_Node000004"><a xlink:title=" ">
<path fill="none" stroke="#63b8ff" d="M205.38,-124.31C205.38,-116.12 205.38,-107.38 205.38,-100.22"/>
<polygon fill="#63b8ff" stroke="#63b8ff" points="201.88,-124.18 205.38,-134.18 208.88,-124.18 201.88,-124.18"/>
</a>
</g>
</g>
<!-- Node6 -->
<g id="Node000006" class="node">
<title>Node6</title>
<g id="a_Node000006"><a xlink:href="InputHandler_8hpp.html" target="_top" xlink:title=" ">
<polygon fill="white" stroke="#666666" points="397,-100 285.75,-100 285.75,-68 397,-68 397,-100"/>
<text xml:space="preserve" text-anchor="start" x="293.75" y="-86.5" font-family="Helvetica,sans-Serif" font-size="10.00">systems/inputHandler</text>
<text xml:space="preserve" text-anchor="middle" x="341.38" y="-74.5" font-family="Helvetica,sans-Serif" font-size="10.00">/src/InputHandler.hpp</text>
</a>
</g>
</g>
<!-- Node1&#45;&gt;Node6 -->
<g id="edge5_Node000001_Node000006" class="edge">
<title>Node1&#45;&gt;Node6</title>
<g id="a_edge5_Node000001_Node000006"><a xlink:title=" ">
<path fill="none" stroke="#63b8ff" d="M247.4,-130.61C267.49,-120.86 291.14,-109.38 309.69,-100.38"/>
<polygon fill="#63b8ff" stroke="#63b8ff" points="246.09,-127.35 238.62,-134.87 249.15,-133.65 246.09,-127.35"/>
</a>
</g>
</g>
<!-- Node3 -->
<g id="Node000003" class="node">
<title>Node3</title>
<g id="a_Node000003"><a xlink:href="FPApplyGravity_8cpp.html" target="_top" xlink:title=" ">
<polygon fill="white" stroke="#666666" points="124.75,-32 0,-32 0,0 124.75,0 124.75,-32"/>
<text xml:space="preserve" text-anchor="start" x="8" y="-18.5" font-family="Helvetica,sans-Serif" font-size="10.00">systems/FPApplyGravity</text>
<text xml:space="preserve" text-anchor="middle" x="62.38" y="-6.5" font-family="Helvetica,sans-Serif" font-size="10.00">/src/FPApplyGravity.cpp</text>
</a>
</g>
</g>
<!-- Node2&#45;&gt;Node3 -->
<g id="edge2_Node000002_Node000003" class="edge">
<title>Node2&#45;&gt;Node3</title>
<g id="a_edge2_Node000002_Node000003"><a xlink:title=" ">
<path fill="none" stroke="#63b8ff" d="M62.38,-56.31C62.38,-48.12 62.38,-39.38 62.38,-32.22"/>
<polygon fill="#63b8ff" stroke="#63b8ff" points="58.88,-56.18 62.38,-66.18 65.88,-56.18 58.88,-56.18"/>
</a>
</g>
</g>
<!-- Node5 -->
<g id="Node000005" class="node">
<title>Node5</title>
<g id="a_Node000005"><a xlink:href="FPInputHandler_8cpp.html" target="_top" xlink:title=" ">
<polygon fill="white" stroke="#666666" points="267.75,-32 143,-32 143,0 267.75,0 267.75,-32"/>
<text xml:space="preserve" text-anchor="start" x="151" y="-18.5" font-family="Helvetica,sans-Serif" font-size="10.00">systems/FPInputHandler</text>
<text xml:space="preserve" text-anchor="middle" x="205.38" y="-6.5" font-family="Helvetica,sans-Serif" font-size="10.00">/src/FPInputHandler.cpp</text>
</a>
</g>
</g>
<!-- Node4&#45;&gt;Node5 -->
<g id="edge4_Node000004_Node000005" class="edge">
<title>Node4&#45;&gt;Node5</title>
<g id="a_edge4_Node000004_Node000005"><a xlink:title=" ">
<path fill="none" stroke="#63b8ff" d="M205.38,-56.31C205.38,-48.12 205.38,-39.38 205.38,-32.22"/>
<polygon fill="#63b8ff" stroke="#63b8ff" points="201.88,-56.18 205.38,-66.18 208.88,-56.18 201.88,-56.18"/>
</a>
</g>
</g>
<!-- Node7 -->
<g id="Node000007" class="node">
<title>Node7</title>
<g id="a_Node000007"><a xlink:href="InputHandler_8cpp.html" target="_top" xlink:title=" ">
<polygon fill="white" stroke="#666666" points="397,-32 285.75,-32 285.75,0 397,0 397,-32"/>
<text xml:space="preserve" text-anchor="start" x="293.75" y="-18.5" font-family="Helvetica,sans-Serif" font-size="10.00">systems/inputHandler</text>
<text xml:space="preserve" text-anchor="middle" x="341.38" y="-6.5" font-family="Helvetica,sans-Serif" font-size="10.00">/src/InputHandler.cpp</text>
</a>
</g>
</g>
<!-- Node6&#45;&gt;Node7 -->
<g id="edge6_Node000006_Node000007" class="edge">
<title>Node6&#45;&gt;Node7</title>
<g id="a_edge6_Node000006_Node000007"><a xlink:title=" ">
<path fill="none" stroke="#63b8ff" d="M341.38,-56.31C341.38,-48.12 341.38,-39.38 341.38,-32.22"/>
<polygon fill="#63b8ff" stroke="#63b8ff" points="337.88,-56.18 341.38,-66.18 344.88,-56.18 337.88,-56.18"/>
</a>
</g>
</g>
</g>
</svg>
