<?xml version="1.0" encoding="UTF-8" standalone="no"?>
<!DOCTYPE svg PUBLIC "-//W3C//DTD SVG 1.1//EN"
 "http://www.w3.org/Graphics/SVG/1.1/DTD/svg11.dtd">
<!-- Generated by graphviz version 14.0.2 (0)
 -->
<!-- Title: systems/inputHandler/src/InputHandler.cpp Pages: 1 -->
<svg width="1678pt" height="400pt"
 viewBox="0.00 0.00 1678.00 400.00" xmlns="http://www.w3.org/2000/svg" xmlns:xlink="http://www.w3.org/1999/xlink">
<g id="graph0" class="graph" transform="scale(1 1) rotate(0) translate(4 396)">
<title>systems/inputHandler/src/InputHandler.cpp</title>
<!-- Node1 -->
<g id="Node000001" class="node">
<title>Node1</title>
<g id="a_Node000001"><a xlink:title=" ">
<polygon fill="#999999" stroke="#666666" points="963.57,-392 852.32,-392 852.32,-360 963.57,-360 963.57,-392"/>
<text xml:space="preserve" text-anchor="start" x="860.32" y="-378.5" font-family="Helvetica,sans-Serif" font-size="10.00">systems/inputHandler</text>
<text xml:space="preserve" text-anchor="middle" x="907.95" y="-366.5" font-family="Helvetica,sans-Serif" font-size="10.00">/src/InputHandler.cpp</text>
</a>
</g>
</g>
<!-- Node2 -->
<g id="Node000002" class="node">
<title>Node2</title>
<g id="a_Node000002"><a xlink:href="InputHandler_8hpp.html" target="_top" xlink:title=" ">
<polygon fill="white" stroke="#666666" points="953.07,-324 862.82,-324 862.82,-304 953.07,-304 953.07,-324"/>
<text xml:space="preserve" text-anchor="middle" x="907.95" y="-310.5" font-family="Helvetica,sans-Serif" font-size="10.00">InputHandler.hpp</text>
</a>
</g>
</g>
<!-- Node1&#45;&gt;Node2 -->
<g id="edge1_Node000001_Node000002" class="edge">
<title>Node1&#45;&gt;Node2</title>
<g id="a_edge1_Node000001_Node000002"><a xlink:title=" ">
<path fill="none" stroke="#63b8ff" d="M907.95,-359.55C907.95,-352.34 907.95,-343.66 907.95,-335.88"/>
<polygon fill="#63b8ff" stroke="#63b8ff" points="911.45,-335.92 907.95,-325.92 904.45,-335.92 911.45,-335.92"/>
</a>
</g>
</g>
<!-- Node3 -->
<g id="Node000003" class="node">
<title>Node3</title>
<g id="a_Node000003"><a xlink:title=" ">
<polygon fill="#e0e0e0" stroke="#999999" points="85.95,-20 45.95,-20 45.95,0 85.95,0 85.95,-20"/>
<text xml:space="preserve" text-anchor="middle" x="65.95" y="-6.5" font-family="Helvetica,sans-Serif" font-size="10.00">bitset</text>
</a>
</g>
</g>
<!-- Node2&#45;&gt;Node3 -->
<g id="edge2_Node000002_Node000003" class="edge">
<title>Node2&#45;&gt;Node3</title>
<g id="a_edge2_Node000002_Node000003"><a xlink:title=" ">
<path fill="none" stroke="#63b8ff" d="M862.53,-312.22C686.07,-308.97 54.21,-295.48 21.95,-268 -8.84,-241.77 2.95,-219.45 2.95,-179 2.95,-179 2.95,-179 2.95,-121 2.95,-84.36 29.6,-48.85 48.23,-28.5"/>
<polygon fill="#63b8ff" stroke="#63b8ff" points="50.68,-31 55.06,-21.36 45.62,-26.17 50.68,-31"/>
</a>
</g>
</g>
<!-- Node4 -->
<g id="Node000004" class="node">
<title>Node4</title>
<g id="a_Node000004"><a xlink:title=" ">
<polygon fill="#e0e0e0" stroke="#999999" points="1412.57,-20 1367.32,-20 1367.32,0 1412.57,0 1412.57,-20"/>
<text xml:space="preserve" text-anchor="middle" x="1389.95" y="-6.5" font-family="Helvetica,sans-Serif" font-size="10.00">cstdint</text>
</a>
</g>
</g>
<!-- Node2&#45;&gt;Node4 -->
<g id="edge3_Node000002_Node000004" class="edge">
<title>Node2&#45;&gt;Node4</title>
<g id="a_edge3_Node000002_Node000004"><a xlink:title=" ">
<path fill="none" stroke="#63b8ff" d="M953.17,-313.18C1081.01,-313.18 1442.9,-309.42 1552.95,-268 1614.09,-244.99 1669.95,-244.33 1669.95,-179 1669.95,-179 1669.95,-179 1669.95,-121 1669.95,-68.7 1498.56,-30.9 1423.96,-16.93"/>
<polygon fill="#63b8ff" stroke="#63b8ff" points="1424.82,-13.53 1414.35,-15.17 1423.55,-20.41 1424.82,-13.53"/>
</a>
</g>
</g>
<!-- Node5 -->
<g id="Node000005" class="node">
<title>Node5</title>
<g id="a_Node000005"><a xlink:title=" ">
<polygon fill="#e0e0e0" stroke="#999999" points="1386.45,-76 1343.45,-76 1343.45,-56 1386.45,-56 1386.45,-76"/>
<text xml:space="preserve" text-anchor="middle" x="1364.95" y="-62.5" font-family="Helvetica,sans-Serif" font-size="10.00">vector</text>
</a>
</g>
</g>
<!-- Node2&#45;&gt;Node5 -->
<g id="edge4_Node000002_Node000005" class="edge">
<title>Node2&#45;&gt;Node5</title>
<g id="a_edge4_Node000002_Node000005"><a xlink:title=" ">
<path fill="none" stroke="#63b8ff" d="M953.56,-313.62C1076.41,-314.65 1411.68,-313.14 1510.95,-268 1557.01,-247.05 1564.42,-230.46 1591.95,-188 1611.01,-158.6 1635.41,-138.9 1612.95,-112 1585.93,-79.64 1459.12,-70.5 1398.02,-67.96"/>
<polygon fill="#63b8ff" stroke="#63b8ff" points="1398.36,-64.47 1388.24,-67.59 1398.1,-71.46 1398.36,-64.47"/>
</a>
</g>
</g>
<!-- Node6 -->
<g id="Node000006" class="node">
<title>Node6</title>
<g id="a_Node000006"><a xlink:href="Acceleration_8hpp.html" target="_top" xlink:title=" ">
<polygon fill="white" stroke="#666666" points="478.82,-262 315.07,-262 315.07,-230 478.82,-230 478.82,-262"/>
<text xml:space="preserve" text-anchor="start" x="323.07" y="-248.5" font-family="Helvetica,sans-Serif" font-size="10.00">../../../components</text>
<text xml:space="preserve" text-anchor="middle" x="396.95" y="-236.5" font-family="Helvetica,sans-Serif" font-size="10.00">/acceleration/src/Acceleration.hpp</text>
</a>
</g>
</g>
<!-- Node2&#45;&gt;Node6 -->
<g id="edge5_Node000002_Node000006" class="edge">
<title>Node2&#45;&gt;Node6</title>
<g id="a_edge5_Node000002_Node000006"><a xlink:title=" ">
<path fill="none" stroke="#63b8ff" d="M862.33,-309.92C784.95,-304.28 623.18,-290.76 487.95,-268 482.3,-267.05 476.47,-265.96 470.63,-264.79"/>
<polygon fill="#63b8ff" stroke="#63b8ff" points="471.39,-261.37 460.89,-262.76 469.97,-268.23 471.39,-261.37"/>
</a>
</g>
</g>
<!-- Node11 -->
<g id="Node000011" class="node">
<title>Node11</title>
<g id="a_Node000011"><a xlink:href="Collider_8hpp.html" target="_top" xlink:title=" ">
<polygon fill="white" stroke="#666666" points="152.45,-262 31.45,-262 31.45,-230 152.45,-230 152.45,-262"/>
<text xml:space="preserve" text-anchor="start" x="39.45" y="-248.5" font-family="Helvetica,sans-Serif" font-size="10.00">../../../components</text>
<text xml:space="preserve" text-anchor="middle" x="91.95" y="-236.5" font-family="Helvetica,sans-Serif" font-size="10.00">/collider/src/Collider.hpp</text>
</a>
</g>
</g>
<!-- Node2&#45;&gt;Node11 -->
<g id="edge12_Node000002_Node000011" class="edge">
<title>Node2&#45;&gt;Node11</title>
<g id="a_edge12_Node000002_Node000011"><a xlink:title=" ">
<path fill="none" stroke="#63b8ff" d="M862.41,-311.63C722.09,-307.2 297.68,-292.12 161.95,-268 157.64,-267.24 153.23,-266.3 148.81,-265.24"/>
<polygon fill="#63b8ff" stroke="#63b8ff" points="149.92,-261.91 139.36,-262.8 148.17,-268.69 149.92,-261.91"/>
</a>
</g>
</g>
<!-- Node14 -->
<g id="Node000014" class="node">
<title>Node14</title>
<g id="a_Node000014"><a xlink:href="Damage_8hpp.html" target="_top" xlink:title=" ">
<polygon fill="white" stroke="#666666" points="625.2,-262 496.7,-262 496.7,-230 625.2,-230 625.2,-262"/>
<text xml:space="preserve" text-anchor="start" x="504.7" y="-248.5" font-family="Helvetica,sans-Serif" font-size="10.00">../../../components</text>
<text xml:space="preserve" text-anchor="middle" x="560.95" y="-236.5" font-family="Helvetica,sans-Serif" font-size="10.00">/damage/src/Damage.hpp</text>
</a>
</g>
</g>
<!-- Node2&#45;&gt;Node14 -->
<g id="edge17_Node000002_Node000014" class="edge">
<title>Node2&#45;&gt;Node14</title>
<g id="a_edge17_Node000002_Node000014"><a xlink:title=" ">
<path fill="none" stroke="#63b8ff" d="M862.72,-307.14C808.32,-299.73 714.41,-285.76 634.95,-268 631.18,-267.16 627.33,-266.24 623.45,-265.27"/>
<polygon fill="#63b8ff" stroke="#63b8ff" points="624.53,-261.94 613.97,-262.82 622.78,-268.71 624.53,-261.94"/>
</a>
</g>
</g>
<!-- Node15 -->
<g id="Node000015" class="node">
<title>Node15</title>
<g id="a_Node000015"><a xlink:href="Domain_8hpp.html" target="_top" xlink:title=" ">
<polygon fill="white" stroke="#666666" points="766.2,-262 643.7,-262 643.7,-230 766.2,-230 766.2,-262"/>
<text xml:space="preserve" text-anchor="start" x="651.7" y="-248.5" font-family="Helvetica,sans-Serif" font-size="10.00">../../../components</text>
<text xml:space="preserve" text-anchor="middle" x="704.95" y="-236.5" font-family="Helvetica,sans-Serif" font-size="10.00">/domain/src/Domain.hpp</text>
</a>
</g>
</g>
<!-- Node2&#45;&gt;Node15 -->
<g id="edge19_Node000002_Node000015" class="edge">
<title>Node2&#45;&gt;Node15</title>
<g id="a_edge19_Node000002_Node000015"><a xlink:title=" ">
<path fill="none" stroke="#63b8ff" d="M878.86,-303.54C848.83,-293.78 801.14,-278.28 763.29,-265.97"/>
<polygon fill="#63b8ff" stroke="#63b8ff" points="764.43,-262.66 753.84,-262.9 762.27,-269.32 764.43,-262.66"/>
</a>
</g>
</g>
<!-- Node16 -->
<g id="Node000016" class="node">
<title>Node16</title>
<g id="a_Node000016"><a xlink:href="Health_8hpp.html" target="_top" xlink:title=" ">
<polygon fill="white" stroke="#666666" points="895.95,-262 783.95,-262 783.95,-230 895.95,-230 895.95,-262"/>
<text xml:space="preserve" text-anchor="start" x="791.95" y="-248.5" font-family="Helvetica,sans-Serif" font-size="10.00">../../../components</text>
<text xml:space="preserve" text-anchor="middle" x="839.95" y="-236.5" font-family="Helvetica,sans-Serif" font-size="10.00">/health/src/Health.hpp</text>
</a>
</g>
</g>
<!-- Node2&#45;&gt;Node16 -->
<g id="edge21_Node000002_Node000016" class="edge">
<title>Node2&#45;&gt;Node16</title>
<g id="a_edge21_Node000002_Node000016"><a xlink:title=" ">
<path fill="none" stroke="#63b8ff" d="M898.2,-303.54C889.28,-294.88 875.7,-281.7 863.9,-270.25"/>
<polygon fill="#63b8ff" stroke="#63b8ff" points="866.41,-267.81 856.8,-263.36 861.54,-272.83 866.41,-267.81"/>
</a>
</g>
</g>
<!-- Node17 -->
<g id="Node000017" class="node">
<title>Node17</title>
<g id="a_Node000017"><a xlink:href="InputControlled_8hpp.html" target="_top" xlink:title=" ">
<polygon fill="white" stroke="#666666" points="1159.82,-268 1056.07,-268 1056.07,-224 1159.82,-224 1159.82,-268"/>
<text xml:space="preserve" text-anchor="start" x="1064.07" y="-254.5" font-family="Helvetica,sans-Serif" font-size="10.00">../../../components</text>
<text xml:space="preserve" text-anchor="start" x="1064.07" y="-242.5" font-family="Helvetica,sans-Serif" font-size="10.00">/inputControlled/src</text>
<text xml:space="preserve" text-anchor="middle" x="1107.95" y="-230.5" font-family="Helvetica,sans-Serif" font-size="10.00">/InputControlled.hpp</text>
</a>
</g>
</g>
<!-- Node2&#45;&gt;Node17 -->
<g id="edge23_Node000002_Node000017" class="edge">
<title>Node2&#45;&gt;Node17</title>
<g id="a_edge23_Node000002_Node000017"><a xlink:title=" ">
<path fill="none" stroke="#63b8ff" d="M937.83,-303.5C963.81,-295.21 1002.73,-282.69 1044.93,-268.65"/>
<polygon fill="#63b8ff" stroke="#63b8ff" points="1045.91,-272.01 1054.29,-265.53 1043.7,-265.37 1045.91,-272.01"/>
</a>
</g>
</g>
<!-- Node18 -->
<g id="Node000018" class="node">
<title>Node18</title>
<g id="a_Node000018"><a xlink:href="Position_8hpp.html" target="_top" xlink:title=" ">
<polygon fill="white" stroke="#666666" points="297.07,-262 170.82,-262 170.82,-230 297.07,-230 297.07,-262"/>
<text xml:space="preserve" text-anchor="start" x="178.82" y="-248.5" font-family="Helvetica,sans-Serif" font-size="10.00">../../../components</text>
<text xml:space="preserve" text-anchor="middle" x="233.95" y="-236.5" font-family="Helvetica,sans-Serif" font-size="10.00">/position/src/Position.hpp</text>
</a>
</g>
</g>
<!-- Node2&#45;&gt;Node18 -->
<g id="edge27_Node000002_Node000018" class="edge">
<title>Node2&#45;&gt;Node18</title>
<g id="a_edge27_Node000002_Node000018"><a xlink:title=" ">
<path fill="none" stroke="#63b8ff" d="M862.61,-312.83C761.73,-311.76 511.43,-305.22 305.95,-268 301.6,-267.21 297.15,-266.27 292.68,-265.22"/>
<polygon fill="#63b8ff" stroke="#63b8ff" points="293.66,-261.85 283.11,-262.79 291.94,-268.64 293.66,-261.85"/>
</a>
</g>
</g>
<!-- Node19 -->
<g id="Node000019" class="node">
<title>Node19</title>
<g id="a_Node000019"><a xlink:href="Renderable_8hpp.html" target="_top" xlink:title=" ">
<polygon fill="white" stroke="#666666" points="1501.82,-262 1350.07,-262 1350.07,-230 1501.82,-230 1501.82,-262"/>
<text xml:space="preserve" text-anchor="start" x="1358.07" y="-248.5" font-family="Helvetica,sans-Serif" font-size="10.00">../../../components</text>
<text xml:space="preserve" text-anchor="middle" x="1425.95" y="-236.5" font-family="Helvetica,sans-Serif" font-size="10.00">/renderable/src/Renderable.hpp</text>
</a>
</g>
</g>
<!-- Node2&#45;&gt;Node19 -->
<g id="edge30_Node000002_Node000019" class="edge">
<title>Node2&#45;&gt;Node19</title>
<g id="a_edge30_Node000002_Node000019"><a xlink:title=" ">
<path fill="none" stroke="#63b8ff" d="M953.43,-310.36C1032.62,-305.29 1200.79,-292.47 1340.95,-268 1346.19,-267.08 1351.59,-266.03 1357.01,-264.88"/>
<polygon fill="#63b8ff" stroke="#63b8ff" points="1357.62,-268.33 1366.63,-262.75 1356.11,-261.5 1357.62,-268.33"/>
</a>
</g>
</g>
<!-- Node23 -->
<g id="Node000023" class="node">
<title>Node23</title>
<g id="a_Node000023"><a xlink:href="Velocity_8hpp.html" target="_top" xlink:title=" ">
<polygon fill="white" stroke="#666666" points="1038.32,-262 913.57,-262 913.57,-230 1038.32,-230 1038.32,-262"/>
<text xml:space="preserve" text-anchor="start" x="921.57" y="-248.5" font-family="Helvetica,sans-Serif" font-size="10.00">../../../components</text>
<text xml:space="preserve" text-anchor="middle" x="975.95" y="-236.5" font-family="Helvetica,sans-Serif" font-size="10.00">/velocity/src/Velocity.hpp</text>
</a>
</g>
</g>
<!-- Node2&#45;&gt;Node23 -->
<g id="edge37_Node000002_Node000023" class="edge">
<title>Node2&#45;&gt;Node23</title>
<g id="a_edge37_Node000002_Node000023"><a xlink:title=" ">
<path fill="none" stroke="#63b8ff" d="M917.69,-303.54C926.61,-294.88 940.19,-281.7 951.99,-270.25"/>
<polygon fill="#63b8ff" stroke="#63b8ff" points="954.36,-272.83 959.1,-263.36 949.48,-267.81 954.36,-272.83"/>
</a>
</g>
</g>
<!-- Node24 -->
<g id="Node000024" class="node">
<title>Node24</title>
<g id="a_Node000024"><a xlink:href="Registry_8hpp.html" target="_top" xlink:title=" ">
<polygon fill="white" stroke="#666666" points="1332.2,-256 1215.7,-256 1215.7,-236 1332.2,-236 1332.2,-256"/>
<text xml:space="preserve" text-anchor="middle" x="1273.95" y="-242.5" font-family="Helvetica,sans-Serif" font-size="10.00">../../../ecs/Registry.hpp</text>
</a>
</g>
</g>
<!-- Node2&#45;&gt;Node24 -->
<g id="edge39_Node000002_Node000024" class="edge">
<title>Node2&#45;&gt;Node24</title>
<g id="a_edge39_Node000002_Node000024"><a xlink:title=" ">
<path fill="none" stroke="#63b8ff" d="M953.37,-307.93C1011.43,-301.03 1114.85,-287.28 1201.95,-268 1212.4,-265.69 1223.57,-262.69 1233.92,-259.69"/>
<polygon fill="#63b8ff" stroke="#63b8ff" points="1234.71,-263.11 1243.3,-256.9 1232.71,-256.4 1234.71,-263.11"/>
</a>
</g>
</g>
<!-- Node32 -->
<g id="Node000032" class="node">
<title>Node32</title>
<g id="a_Node000032"><a xlink:href="System_8hpp.html" target="_top" xlink:title=" ">
<polygon fill="white" stroke="#666666" points="1030.2,-188 961.7,-188 961.7,-168 1030.2,-168 1030.2,-188"/>
<text xml:space="preserve" text-anchor="middle" x="995.95" y="-174.5" font-family="Helvetica,sans-Serif" font-size="10.00">System.hpp</text>
</a>
</g>
</g>
<!-- Node2&#45;&gt;Node32 -->
<g id="edge63_Node000002_Node000032" class="edge">
<title>Node2&#45;&gt;Node32</title>
<g id="a_edge63_Node000002_Node000032"><a xlink:title=" ">
<path fill="none" stroke="#63b8ff" d="M953.45,-311.94C1020.78,-309.3 1141.92,-300.09 1168.95,-268 1181.55,-253.04 1180.91,-239.47 1168.95,-224 1153.46,-203.97 1087.43,-191.19 1041.58,-184.56"/>
<polygon fill="#63b8ff" stroke="#63b8ff" points="1042.29,-181.12 1031.9,-183.21 1041.33,-188.06 1042.29,-181.12"/>
</a>
</g>
</g>
<!-- Node7 -->
<g id="Node000007" class="node">
<title>Node7</title>
<g id="a_Node000007"><a xlink:href="Component_8hpp.html" target="_top" xlink:title=" ">
<polygon fill="white" stroke="#666666" points="770.32,-188 639.57,-188 639.57,-168 770.32,-168 770.32,-188"/>
<text xml:space="preserve" text-anchor="middle" x="704.95" y="-174.5" font-family="Helvetica,sans-Serif" font-size="10.00">../../../ecs/Component.hpp</text>
</a>
</g>
</g>
<!-- Node6&#45;&gt;Node7 -->
<g id="edge6_Node000006_Node000007" class="edge">
<title>Node6&#45;&gt;Node7</title>
<g id="a_edge6_Node000006_Node000007"><a xlink:title=" ">
<path fill="none" stroke="#63b8ff" d="M463.01,-229.57C471.4,-227.67 479.87,-225.77 487.95,-224 541.71,-212.22 603.15,-199.56 646.89,-190.67"/>
<polygon fill="#63b8ff" stroke="#63b8ff" points="647.31,-194.16 656.41,-188.74 645.92,-187.3 647.31,-194.16"/>
</a>
</g>
</g>
<!-- Node8 -->
<g id="Node000008" class="node">
<title>Node8</title>
<g id="a_Node000008"><a xlink:title=" ">
<polygon fill="#e0e0e0" stroke="#999999" points="875.57,-132 824.32,-132 824.32,-112 875.57,-112 875.57,-132"/>
<text xml:space="preserve" text-anchor="middle" x="849.95" y="-118.5" font-family="Helvetica,sans-Serif" font-size="10.00">memory</text>
</a>
</g>
</g>
<!-- Node7&#45;&gt;Node8 -->
<g id="edge7_Node000007_Node000008" class="edge">
<title>Node7&#45;&gt;Node8</title>
<g id="a_edge7_Node000007_Node000008"><a xlink:title=" ">
<path fill="none" stroke="#63b8ff" d="M730.2,-167.59C753.35,-158.97 787.87,-146.12 813.91,-136.42"/>
<polygon fill="#63b8ff" stroke="#63b8ff" points="814.92,-139.78 823.07,-133.01 812.48,-133.22 814.92,-139.78"/>
</a>
</g>
</g>
<!-- Node9 -->
<g id="Node000009" class="node">
<title>Node9</title>
<g id="a_Node000009"><a xlink:title=" ">
<polygon fill="#e0e0e0" stroke="#999999" points="853.95,-76 813.95,-76 813.95,-56 853.95,-56 853.95,-76"/>
<text xml:space="preserve" text-anchor="middle" x="833.95" y="-62.5" font-family="Helvetica,sans-Serif" font-size="10.00">string</text>
</a>
</g>
</g>
<!-- Node7&#45;&gt;Node9 -->
<g id="edge8_Node000007_Node000009" class="edge">
<title>Node7&#45;&gt;Node9</title>
<g id="a_edge8_Node000007_Node000009"><a xlink:title=" ">
<path fill="none" stroke="#63b8ff" d="M707.96,-167.89C712.89,-154.18 723.89,-128.14 740.95,-112 758.48,-95.41 783.28,-83.82 802.86,-76.57"/>
<polygon fill="#63b8ff" stroke="#63b8ff" points="803.98,-79.89 812.27,-73.29 801.67,-73.28 803.98,-79.89"/>
</a>
</g>
</g>
<!-- Node10 -->
<g id="Node000010" class="node">
<title>Node10</title>
<g id="a_Node000010"><a xlink:href="Types_8hpp.html" target="_top" xlink:title="Core type definitions used throughout the ECS (Entity Component System).">
<polygon fill="white" stroke="#666666" points="984.45,-76 923.45,-76 923.45,-56 984.45,-56 984.45,-76"/>
<text xml:space="preserve" text-anchor="middle" x="953.95" y="-62.5" font-family="Helvetica,sans-Serif" font-size="10.00">Types.hpp</text>
</a>
</g>
</g>
<!-- Node7&#45;&gt;Node10 -->
<g id="edge9_Node000007_Node000010" class="edge">
<title>Node7&#45;&gt;Node10</title>
<g id="a_edge9_Node000007_Node000010"><a xlink:title=" ">
<path fill="none" stroke="#63b8ff" d="M718.65,-167.55C738.95,-153.88 778.55,-128.4 814.95,-112 846.55,-97.76 884.03,-85.9 912.1,-77.93"/>
<polygon fill="#63b8ff" stroke="#63b8ff" points="912.97,-81.32 921.67,-75.27 911.1,-74.58 912.97,-81.32"/>
</a>
</g>
</g>
<!-- Node10&#45;&gt;Node3 -->
<g id="edge10_Node000010_Node000003" class="edge">
<title>Node10&#45;&gt;Node3</title>
<g id="a_edge10_Node000010_Node000003"><a xlink:title=" ">
<path fill="none" stroke="#63b8ff" d="M923.23,-61.64C905.6,-59.79 883.05,-57.56 862.95,-56 565.59,-32.91 204.95,-16.84 97.56,-12.3"/>
<polygon fill="#63b8ff" stroke="#63b8ff" points="97.94,-8.82 87.8,-11.9 97.65,-15.81 97.94,-8.82"/>
</a>
</g>
</g>
<!-- Node10&#45;&gt;Node4 -->
<g id="edge11_Node000010_Node000004" class="edge">
<title>Node10&#45;&gt;Node4</title>
<g id="a_edge11_Node000010_Node000004"><a xlink:title=" ">
<path fill="none" stroke="#63b8ff" d="M984.86,-60.53C995.35,-59.05 1007.16,-57.41 1017.95,-56 1142.13,-39.76 1289.92,-22.5 1355.58,-14.93"/>
<polygon fill="#63b8ff" stroke="#63b8ff" points="1355.82,-18.43 1365.35,-13.81 1355.02,-11.47 1355.82,-18.43"/>
</a>
</g>
</g>
<!-- Node11&#45;&gt;Node3 -->
<g id="edge13_Node000011_Node000003" class="edge">
<title>Node11&#45;&gt;Node3</title>
<g id="a_edge13_Node000011_Node000003"><a xlink:title=" ">
<path fill="none" stroke="#63b8ff" d="M89.98,-229.52C88.54,-218.06 86.57,-202.06 84.95,-188 78.43,-131.35 71.44,-64.42 68.04,-31.45"/>
<polygon fill="#63b8ff" stroke="#63b8ff" points="71.54,-31.31 67.04,-21.72 64.58,-32.03 71.54,-31.31"/>
</a>
</g>
</g>
<!-- Node11&#45;&gt;Node7 -->
<g id="edge15_Node000011_Node000007" class="edge">
<title>Node11&#45;&gt;Node7</title>
<g id="a_edge15_Node000011_Node000007"><a xlink:title=" ">
<path fill="none" stroke="#63b8ff" d="M138.68,-229.51C146.39,-227.39 154.34,-225.44 161.95,-224 326.05,-192.94 522.09,-183.32 627.95,-180.34"/>
<polygon fill="#63b8ff" stroke="#63b8ff" points="627.74,-183.84 637.65,-180.08 627.56,-176.85 627.74,-183.84"/>
</a>
</g>
</g>
<!-- Node12 -->
<g id="Node000012" class="node">
<title>Node12</title>
<g id="a_Node000012"><a xlink:title=" ">
<polygon fill="#e0e0e0" stroke="#999999" points="139.57,-188 94.32,-188 94.32,-168 139.57,-168 139.57,-188"/>
<text xml:space="preserve" text-anchor="middle" x="116.95" y="-174.5" font-family="Helvetica,sans-Serif" font-size="10.00">variant</text>
</a>
</g>
</g>
<!-- Node11&#45;&gt;Node12 -->
<g id="edge14_Node000011_Node000012" class="edge">
<title>Node11&#45;&gt;Node12</title>
<g id="a_edge14_Node000011_Node000012"><a xlink:title=" ">
<path fill="none" stroke="#63b8ff" d="M97.75,-229.69C101.23,-220.5 105.7,-208.7 109.45,-198.8"/>
<polygon fill="#63b8ff" stroke="#63b8ff" points="112.61,-200.32 112.88,-189.73 106.07,-197.84 112.61,-200.32"/>
</a>
</g>
</g>
<!-- Node13 -->
<g id="Node000013" class="node">
<title>Node13</title>
<g id="a_Node000013"><a xlink:href="utils_8hpp.html" target="_top" xlink:title=" ">
<polygon fill="white" stroke="#666666" points="283.2,-188 184.7,-188 184.7,-168 283.2,-168 283.2,-188"/>
<text xml:space="preserve" text-anchor="middle" x="233.95" y="-174.5" font-family="Helvetica,sans-Serif" font-size="10.00">../../../ecs/utils.hpp</text>
</a>
</g>
</g>
<!-- Node11&#45;&gt;Node13 -->
<g id="edge16_Node000011_Node000013" class="edge">
<title>Node11&#45;&gt;Node13</title>
<g id="a_edge16_Node000011_Node000013"><a xlink:title=" ">
<path fill="none" stroke="#63b8ff" d="M125.24,-229.53C148.88,-218.54 180.37,-203.9 203.37,-193.21"/>
<polygon fill="#63b8ff" stroke="#63b8ff" points="204.63,-196.49 212.22,-189.1 201.68,-190.14 204.63,-196.49"/>
</a>
</g>
</g>
<!-- Node14&#45;&gt;Node7 -->
<g id="edge18_Node000014_Node000007" class="edge">
<title>Node14&#45;&gt;Node7</title>
<g id="a_edge18_Node000014_Node000007"><a xlink:title=" ">
<path fill="none" stroke="#63b8ff" d="M594.71,-229.53C618.68,-218.54 650.61,-203.9 673.94,-193.21"/>
<polygon fill="#63b8ff" stroke="#63b8ff" points="675.3,-196.44 682.93,-189.09 672.38,-190.08 675.3,-196.44"/>
</a>
</g>
</g>
<!-- Node15&#45;&gt;Node7 -->
<g id="edge20_Node000015_Node000007" class="edge">
<title>Node15&#45;&gt;Node7</title>
<g id="a_edge20_Node000015_Node000007"><a xlink:title=" ">
<path fill="none" stroke="#63b8ff" d="M704.95,-229.69C704.95,-220.8 704.95,-209.46 704.95,-199.77"/>
<polygon fill="#63b8ff" stroke="#63b8ff" points="708.45,-199.83 704.95,-189.83 701.45,-199.83 708.45,-199.83"/>
</a>
</g>
</g>
<!-- Node16&#45;&gt;Node7 -->
<g id="edge22_Node000016_Node000007" class="edge">
<title>Node16&#45;&gt;Node7</title>
<g id="a_edge22_Node000016_Node000007"><a xlink:title=" ">
<path fill="none" stroke="#63b8ff" d="M808.3,-229.53C786.03,-218.64 756.43,-204.17 734.61,-193.5"/>
<polygon fill="#63b8ff" stroke="#63b8ff" points="736.18,-190.37 725.66,-189.12 733.1,-196.66 736.18,-190.37"/>
</a>
</g>
</g>
<!-- Node17&#45;&gt;Node5 -->
<g id="edge25_Node000017_Node000005" class="edge">
<title>Node17&#45;&gt;Node5</title>
<g id="a_edge25_Node000017_Node000005"><a xlink:title=" ">
<path fill="none" stroke="#63b8ff" d="M1088.77,-223.79C1076.52,-207.56 1064.99,-185.13 1076.95,-168 1103.51,-129.95 1132.35,-150.4 1174.95,-132 1193.19,-124.12 1196.47,-119.33 1214.95,-112 1254.39,-96.36 1301.49,-83.06 1332.25,-75.07"/>
<polygon fill="#63b8ff" stroke="#63b8ff" points="1332.9,-78.51 1341.72,-72.64 1331.17,-71.73 1332.9,-78.51"/>
</a>
</g>
</g>
<!-- Node17&#45;&gt;Node7 -->
<g id="edge26_Node000017_Node000007" class="edge">
<title>Node17&#45;&gt;Node7</title>
<g id="a_edge26_Node000017_Node000007"><a xlink:title=" ">
<path fill="none" stroke="#63b8ff" d="M1055.91,-226.31C1052.89,-225.47 1049.89,-224.69 1046.95,-224 1021.77,-218.07 874.77,-199.65 781.87,-188.29"/>
<polygon fill="#63b8ff" stroke="#63b8ff" points="782.39,-184.83 772.04,-187.09 781.55,-191.78 782.39,-184.83"/>
</a>
</g>
</g>
<!-- Node17&#45;&gt;Node9 -->
<g id="edge24_Node000017_Node000009" class="edge">
<title>Node17&#45;&gt;Node9</title>
<g id="a_edge24_Node000017_Node000009"><a xlink:title=" ">
<path fill="none" stroke="#63b8ff" d="M1055.79,-226.76C1052.8,-225.8 1049.84,-224.88 1046.95,-224 940.79,-191.83 869.97,-228.31 814.95,-132 806.76,-117.66 813.27,-99.49 820.82,-86.01"/>
<polygon fill="#63b8ff" stroke="#63b8ff" points="823.71,-87.99 826.04,-77.65 817.78,-84.28 823.71,-87.99"/>
</a>
</g>
</g>
<!-- Node18&#45;&gt;Node7 -->
<g id="edge28_Node000018_Node000007" class="edge">
<title>Node18&#45;&gt;Node7</title>
<g id="a_edge28_Node000018_Node000007"><a xlink:title=" ">
<path fill="none" stroke="#63b8ff" d="M282.86,-229.52C290.53,-227.44 298.42,-225.51 305.95,-224 416.75,-201.76 547.24,-189.64 628.04,-183.74"/>
<polygon fill="#63b8ff" stroke="#63b8ff" points="627.87,-187.27 637.59,-183.06 627.37,-180.28 627.87,-187.27"/>
</a>
</g>
</g>
<!-- Node18&#45;&gt;Node13 -->
<g id="edge29_Node000018_Node000013" class="edge">
<title>Node18&#45;&gt;Node13</title>
<g id="a_edge29_Node000018_Node000013"><a xlink:title=" ">
<path fill="none" stroke="#63b8ff" d="M233.95,-229.69C233.95,-220.8 233.95,-209.46 233.95,-199.77"/>
<polygon fill="#63b8ff" stroke="#63b8ff" points="237.45,-199.83 233.95,-189.83 230.45,-199.83 237.45,-199.83"/>
</a>
</g>
</g>
<!-- Node19&#45;&gt;Node5 -->
<g id="edge34_Node000019_Node000005" class="edge">
<title>Node19&#45;&gt;Node5</title>
<g id="a_edge34_Node000019_Node000005"><a xlink:title=" ">
<path fill="none" stroke="#63b8ff" d="M1502.24,-233.47C1549.19,-222.7 1596.59,-202.89 1574.95,-168 1554.93,-135.75 1451.43,-96.51 1397.58,-77.86"/>
<polygon fill="#63b8ff" stroke="#63b8ff" points="1398.92,-74.62 1388.33,-74.69 1396.65,-81.24 1398.92,-74.62"/>
</a>
</g>
</g>
<!-- Node19&#45;&gt;Node7 -->
<g id="edge35_Node000019_Node000007" class="edge">
<title>Node19&#45;&gt;Node7</title>
<g id="a_edge35_Node000019_Node000007"><a xlink:title=" ">
<path fill="none" stroke="#63b8ff" d="M1369.07,-229.52C1359.73,-227.39 1350.11,-225.44 1340.95,-224 1235.35,-207.35 927.07,-190.21 782.05,-182.79"/>
<polygon fill="#63b8ff" stroke="#63b8ff" points="782.31,-179.3 772.14,-182.29 781.95,-186.29 782.31,-179.3"/>
</a>
</g>
</g>
<!-- Node19&#45;&gt;Node13 -->
<g id="edge36_Node000019_Node000013" class="edge">
<title>Node19&#45;&gt;Node13</title>
<g id="a_edge36_Node000019_Node000013"><a xlink:title=" ">
<path fill="none" stroke="#63b8ff" d="M1370.48,-229.6C1360.71,-227.37 1350.58,-225.37 1340.95,-224 1237.46,-209.27 511.56,-187.11 294.87,-180.76"/>
<polygon fill="#63b8ff" stroke="#63b8ff" points="295.05,-177.26 284.95,-180.47 294.84,-184.26 295.05,-177.26"/>
</a>
</g>
</g>
<!-- Node20 -->
<g id="Node000020" class="node">
<title>Node20</title>
<g id="a_Node000020"><a xlink:title=" ">
<polygon fill="#e0e0e0" stroke="#999999" points="1508.07,-188 1459.82,-188 1459.82,-168 1508.07,-168 1508.07,-188"/>
<text xml:space="preserve" text-anchor="middle" x="1483.95" y="-174.5" font-family="Helvetica,sans-Serif" font-size="10.00">cstddef</text>
</a>
</g>
</g>
<!-- Node19&#45;&gt;Node20 -->
<g id="edge31_Node000019_Node000020" class="edge">
<title>Node19&#45;&gt;Node20</title>
<g id="a_edge31_Node000019_Node000020"><a xlink:title=" ">
<path fill="none" stroke="#63b8ff" d="M1439.4,-229.69C1448.01,-219.9 1459.21,-207.15 1468.23,-196.89"/>
<polygon fill="#63b8ff" stroke="#63b8ff" points="1470.79,-199.28 1474.76,-189.45 1465.53,-194.65 1470.79,-199.28"/>
</a>
</g>
</g>
<!-- Node21 -->
<g id="Node000021" class="node">
<title>Node21</title>
<g id="a_Node000021"><a xlink:title=" ">
<polygon fill="#e0e0e0" stroke="#999999" points="1441.7,-188 1388.2,-188 1388.2,-168 1441.7,-168 1441.7,-188"/>
<text xml:space="preserve" text-anchor="middle" x="1414.95" y="-174.5" font-family="Helvetica,sans-Serif" font-size="10.00">iostream</text>
</a>
</g>
</g>
<!-- Node19&#45;&gt;Node21 -->
<g id="edge32_Node000019_Node000021" class="edge">
<title>Node19&#45;&gt;Node21</title>
<g id="a_edge32_Node000019_Node000021"><a xlink:title=" ">
<path fill="none" stroke="#63b8ff" d="M1423.4,-229.69C1421.9,-220.7 1419.98,-209.21 1418.35,-199.44"/>
<polygon fill="#63b8ff" stroke="#63b8ff" points="1421.85,-199.1 1416.75,-189.81 1414.94,-200.25 1421.85,-199.1"/>
</a>
</g>
</g>
<!-- Node22 -->
<g id="Node000022" class="node">
<title>Node22</title>
<g id="a_Node000022"><a xlink:title=" ">
<polygon fill="#e0e0e0" stroke="#999999" points="1565.57,-188 1526.32,-188 1526.32,-168 1565.57,-168 1565.57,-188"/>
<text xml:space="preserve" text-anchor="middle" x="1545.95" y="-174.5" font-family="Helvetica,sans-Serif" font-size="10.00">utility</text>
</a>
</g>
</g>
<!-- Node19&#45;&gt;Node22 -->
<g id="edge33_Node000019_Node000022" class="edge">
<title>Node19&#45;&gt;Node22</title>
<g id="a_edge33_Node000019_Node000022"><a xlink:title=" ">
<path fill="none" stroke="#63b8ff" d="M1454.08,-229.53C1473.6,-218.79 1499.47,-204.56 1518.78,-193.94"/>
<polygon fill="#63b8ff" stroke="#63b8ff" points="1520.35,-197.08 1527.42,-189.19 1516.97,-190.94 1520.35,-197.08"/>
</a>
</g>
</g>
<!-- Node23&#45;&gt;Node7 -->
<g id="edge38_Node000023_Node000007" class="edge">
<title>Node23&#45;&gt;Node7</title>
<g id="a_edge38_Node000023_Node000007"><a xlink:title=" ">
<path fill="none" stroke="#63b8ff" d="M925.25,-229.56C918.45,-227.62 911.54,-225.71 904.95,-224 857.04,-211.54 802.14,-199.33 762,-190.79"/>
<polygon fill="#63b8ff" stroke="#63b8ff" points="762.82,-187.38 752.31,-188.73 761.37,-194.23 762.82,-187.38"/>
</a>
</g>
</g>
<!-- Node24&#45;&gt;Node5 -->
<g id="edge43_Node000024_Node000005" class="edge">
<title>Node24&#45;&gt;Node5</title>
<g id="a_edge43_Node000024_Node000005"><a xlink:title=" ">
<path fill="none" stroke="#63b8ff" d="M1279.88,-235.69C1290.43,-219.83 1313.86,-187.4 1340.95,-168 1375.3,-143.39 1405.39,-167.08 1428.95,-132 1442.04,-112.5 1418.49,-93.78 1396.35,-81.48"/>
<polygon fill="#63b8ff" stroke="#63b8ff" points="1398.25,-78.52 1387.76,-77 1395.01,-84.73 1398.25,-78.52"/>
</a>
</g>
</g>
<!-- Node24&#45;&gt;Node8 -->
<g id="edge42_Node000024_Node000008" class="edge">
<title>Node24&#45;&gt;Node8</title>
<g id="a_edge42_Node000024_Node000008"><a xlink:title=" ">
<path fill="none" stroke="#63b8ff" d="M1228.27,-235.53C1209.86,-231.8 1188.42,-227.57 1168.95,-224 1073.22,-206.45 1043.89,-222.65 952.95,-188 922.01,-176.21 890.4,-154.53 870.5,-139.47"/>
<polygon fill="#63b8ff" stroke="#63b8ff" points="872.72,-136.77 862.67,-133.41 868.43,-142.3 872.72,-136.77"/>
</a>
</g>
</g>
<!-- Node24&#45;&gt;Node10 -->
<g id="edge62_Node000024_Node000010" class="edge">
<title>Node24&#45;&gt;Node10</title>
<g id="a_edge62_Node000024_Node000010"><a xlink:title=" ">
<path fill="none" stroke="#63b8ff" d="M1259.28,-235.73C1227.29,-215.53 1153.85,-169.22 1150.95,-168 1087.31,-141.34 1057.1,-170.64 999.95,-132 983.15,-120.65 970.51,-100.98 962.77,-86.24"/>
<polygon fill="#63b8ff" stroke="#63b8ff" points="966.03,-84.95 958.48,-77.51 959.75,-88.03 966.03,-84.95"/>
</a>
</g>
</g>
<!-- Node24&#45;&gt;Node21 -->
<g id="edge41_Node000024_Node000021" class="edge">
<title>Node24&#45;&gt;Node21</title>
<g id="a_edge41_Node000024_Node000021"><a xlink:title=" ">
<path fill="none" stroke="#63b8ff" d="M1294.15,-235.54C1317.81,-224.47 1357.25,-206.01 1384.6,-193.21"/>
<polygon fill="#63b8ff" stroke="#63b8ff" points="1385.84,-196.49 1393.41,-189.08 1382.87,-190.15 1385.84,-196.49"/>
</a>
</g>
</g>
<!-- Node25 -->
<g id="Node000025" class="node">
<title>Node25</title>
<g id="a_Node000025"><a xlink:title=" ">
<polygon fill="#e0e0e0" stroke="#999999" points="1141.82,-188 1086.07,-188 1086.07,-168 1141.82,-168 1141.82,-188"/>
<text xml:space="preserve" text-anchor="middle" x="1113.95" y="-174.5" font-family="Helvetica,sans-Serif" font-size="10.00">algorithm</text>
</a>
</g>
</g>
<!-- Node24&#45;&gt;Node25 -->
<g id="edge40_Node000024_Node000025" class="edge">
<title>Node24&#45;&gt;Node25</title>
<g id="a_edge40_Node000024_Node000025"><a xlink:title=" ">
<path fill="none" stroke="#63b8ff" d="M1251.02,-235.54C1223.82,-224.32 1178.23,-205.52 1147.16,-192.7"/>
<polygon fill="#63b8ff" stroke="#63b8ff" points="1148.81,-189.59 1138.23,-189.02 1146.14,-196.06 1148.81,-189.59"/>
</a>
</g>
</g>
<!-- Node26 -->
<g id="Node000026" class="node">
<title>Node26</title>
<g id="a_Node000026"><a xlink:href="Clock_8hpp.html" target="_top" xlink:title=" ">
<polygon fill="white" stroke="#666666" points="1604.07,-132 1543.82,-132 1543.82,-112 1604.07,-112 1604.07,-132"/>
<text xml:space="preserve" text-anchor="middle" x="1573.95" y="-118.5" font-family="Helvetica,sans-Serif" font-size="10.00">Clock.hpp</text>
</a>
</g>
</g>
<!-- Node24&#45;&gt;Node26 -->
<g id="edge44_Node000024_Node000026" class="edge">
<title>Node24&#45;&gt;Node26</title>
<g id="a_edge44_Node000024_Node000026"><a xlink:title=" ">
<path fill="none" stroke="#63b8ff" d="M1283.78,-235.6C1301.39,-219.29 1340.11,-185.8 1378.95,-168 1428.97,-145.07 1491.72,-133.29 1532.32,-127.64"/>
<polygon fill="#63b8ff" stroke="#63b8ff" points="1532.7,-131.12 1542.16,-126.34 1531.79,-124.18 1532.7,-131.12"/>
</a>
</g>
</g>
<!-- Node27 -->
<g id="Node000027" class="node">
<title>Node27</title>
<g id="a_Node000027"><a xlink:href="ComponentRegistry_8hpp.html" target="_top" xlink:title=" ">
<polygon fill="white" stroke="#666666" points="1129.45,-132 1008.45,-132 1008.45,-112 1129.45,-112 1129.45,-132"/>
<text xml:space="preserve" text-anchor="middle" x="1068.95" y="-118.5" font-family="Helvetica,sans-Serif" font-size="10.00">ComponentRegistry.hpp</text>
</a>
</g>
</g>
<!-- Node24&#45;&gt;Node27 -->
<g id="edge46_Node000024_Node000027" class="edge">
<title>Node24&#45;&gt;Node27</title>
<g id="a_edge46_Node000024_Node000027"><a xlink:title=" ">
<path fill="none" stroke="#63b8ff" d="M1265.04,-235.55C1249.75,-219.75 1216.92,-187.78 1183.95,-168 1161.54,-154.55 1134.39,-143.71 1112.1,-136.04"/>
<polygon fill="#63b8ff" stroke="#63b8ff" points="1113.3,-132.75 1102.7,-132.9 1111.08,-139.39 1113.3,-132.75"/>
</a>
</g>
</g>
<!-- Node30 -->
<g id="Node000030" class="node">
<title>Node30</title>
<g id="a_Node000030"><a xlink:href="EntityManager_8hpp.html" target="_top" xlink:title=" ">
<polygon fill="white" stroke="#666666" points="1321.82,-132 1224.07,-132 1224.07,-112 1321.82,-112 1321.82,-132"/>
<text xml:space="preserve" text-anchor="middle" x="1272.95" y="-118.5" font-family="Helvetica,sans-Serif" font-size="10.00">EntityManager.hpp</text>
</a>
</g>
</g>
<!-- Node24&#45;&gt;Node30 -->
<g id="edge52_Node000024_Node000030" class="edge">
<title>Node24&#45;&gt;Node30</title>
<g id="a_edge52_Node000024_Node000030"><a xlink:title=" ">
<path fill="none" stroke="#63b8ff" d="M1272.93,-235.52C1271.5,-221 1269.14,-192.35 1269.95,-168 1270.21,-160.08 1270.74,-151.39 1271.27,-143.77"/>
<polygon fill="#63b8ff" stroke="#63b8ff" points="1274.76,-144.04 1272.03,-133.81 1267.78,-143.51 1274.76,-144.04"/>
</a>
</g>
</g>
<!-- Node31 -->
<g id="Node000031" class="node">
<title>Node31</title>
<g id="a_Node000031"><a xlink:href="SparseSet_8hpp.html" target="_top" xlink:title=" ">
<polygon fill="white" stroke="#666666" points="1420.2,-132 1339.7,-132 1339.7,-112 1420.2,-112 1420.2,-132"/>
<text xml:space="preserve" text-anchor="middle" x="1379.95" y="-118.5" font-family="Helvetica,sans-Serif" font-size="10.00">SparseSet.hpp</text>
</a>
</g>
</g>
<!-- Node24&#45;&gt;Node31 -->
<g id="edge55_Node000024_Node000031" class="edge">
<title>Node24&#45;&gt;Node31</title>
<g id="a_edge55_Node000024_Node000031"><a xlink:title=" ">
<path fill="none" stroke="#63b8ff" d="M1276.06,-235.98C1280.05,-220.56 1289.96,-188.76 1307.95,-168 1318.87,-155.39 1334.2,-145.14 1347.92,-137.62"/>
<polygon fill="#63b8ff" stroke="#63b8ff" points="1349.37,-140.81 1356.64,-133.11 1346.15,-134.59 1349.37,-140.81"/>
</a>
</g>
</g>
<!-- Node24&#45;&gt;Node32 -->
<g id="edge57_Node000024_Node000032" class="edge">
<title>Node24&#45;&gt;Node32</title>
<g id="a_edge57_Node000024_Node000032"><a xlink:title=" ">
<path fill="none" stroke="#63b8ff" d="M1243.24,-235.54C1230.52,-231.75 1215.57,-227.47 1201.95,-224 1147.15,-210.04 1083.47,-196.54 1041.59,-188.03"/>
<polygon fill="#63b8ff" stroke="#63b8ff" points="1042.36,-184.62 1031.86,-186.07 1040.97,-191.48 1042.36,-184.62"/>
</a>
</g>
</g>
<!-- Node26&#45;&gt;Node4 -->
<g id="edge45_Node000026_Node000004" class="edge">
<title>Node26&#45;&gt;Node4</title>
<g id="a_edge45_Node000026_Node000004"><a xlink:title=" ">
<path fill="none" stroke="#63b8ff" d="M1558.26,-111.62C1526.35,-92.54 1453.64,-49.08 1415.07,-26.02"/>
<polygon fill="#63b8ff" stroke="#63b8ff" points="1417.27,-23.26 1406.89,-21.13 1413.68,-29.27 1417.27,-23.26"/>
</a>
</g>
</g>
<!-- Node27&#45;&gt;Node5 -->
<g id="edge50_Node000027_Node000005" class="edge">
<title>Node27&#45;&gt;Node5</title>
<g id="a_edge50_Node000027_Node000005"><a xlink:title=" ">
<path fill="none" stroke="#63b8ff" d="M1120.85,-111.53C1181.76,-100.42 1280.94,-82.33 1332.1,-72.99"/>
<polygon fill="#63b8ff" stroke="#63b8ff" points="1332.45,-76.49 1341.66,-71.25 1331.19,-69.6 1332.45,-76.49"/>
</a>
</g>
</g>
<!-- Node27&#45;&gt;Node9 -->
<g id="edge47_Node000027_Node000009" class="edge">
<title>Node27&#45;&gt;Node9</title>
<g id="a_edge47_Node000027_Node000009"><a xlink:title=" ">
<path fill="none" stroke="#63b8ff" d="M1027.74,-111.53C981.4,-100.88 907.15,-83.82 865.29,-74.2"/>
<polygon fill="#63b8ff" stroke="#63b8ff" points="866.15,-70.81 855.62,-71.98 864.59,-77.63 866.15,-70.81"/>
</a>
</g>
</g>
<!-- Node27&#45;&gt;Node10 -->
<g id="edge51_Node000027_Node000010" class="edge">
<title>Node27&#45;&gt;Node10</title>
<g id="a_edge51_Node000027_Node000010"><a xlink:title=" ">
<path fill="none" stroke="#63b8ff" d="M1048.92,-111.59C1031.13,-103.24 1004.88,-90.92 984.48,-81.34"/>
<polygon fill="#63b8ff" stroke="#63b8ff" points="986.04,-78.21 975.51,-77.12 983.07,-84.54 986.04,-78.21"/>
</a>
</g>
</g>
<!-- Node28 -->
<g id="Node000028" class="node">
<title>Node28</title>
<g id="a_Node000028"><a xlink:title=" ">
<polygon fill="#e0e0e0" stroke="#999999" points="1084.95,-76 1026.95,-76 1026.95,-56 1084.95,-56 1084.95,-76"/>
<text xml:space="preserve" text-anchor="middle" x="1055.95" y="-62.5" font-family="Helvetica,sans-Serif" font-size="10.00">typeindex</text>
</a>
</g>
</g>
<!-- Node27&#45;&gt;Node28 -->
<g id="edge48_Node000027_Node000028" class="edge">
<title>Node27&#45;&gt;Node28</title>
<g id="a_edge48_Node000027_Node000028"><a xlink:title=" ">
<path fill="none" stroke="#63b8ff" d="M1066.68,-111.59C1065.08,-104.93 1062.87,-95.75 1060.87,-87.44"/>
<polygon fill="#63b8ff" stroke="#63b8ff" points="1064.28,-86.67 1058.54,-77.77 1057.48,-88.31 1064.28,-86.67"/>
</a>
</g>
</g>
<!-- Node29 -->
<g id="Node000029" class="node">
<title>Node29</title>
<g id="a_Node000029"><a xlink:title=" ">
<polygon fill="#e0e0e0" stroke="#999999" points="1185.32,-76 1102.57,-76 1102.57,-56 1185.32,-56 1185.32,-76"/>
<text xml:space="preserve" text-anchor="middle" x="1143.95" y="-62.5" font-family="Helvetica,sans-Serif" font-size="10.00">unordered_map</text>
</a>
</g>
</g>
<!-- Node27&#45;&gt;Node29 -->
<g id="edge49_Node000027_Node000029" class="edge">
<title>Node27&#45;&gt;Node29</title>
<g id="a_edge49_Node000027_Node000029"><a xlink:title=" ">
<path fill="none" stroke="#63b8ff" d="M1082.01,-111.59C1092.91,-103.74 1108.7,-92.38 1121.6,-83.09"/>
<polygon fill="#63b8ff" stroke="#63b8ff" points="1123.48,-86.05 1129.55,-77.36 1119.39,-80.37 1123.48,-86.05"/>
</a>
</g>
</g>
<!-- Node30&#45;&gt;Node4 -->
<g id="edge53_Node000030_Node000004" class="edge">
<title>Node30&#45;&gt;Node4</title>
<g id="a_edge53_Node000030_Node000004"><a xlink:title=" ">
<path fill="none" stroke="#63b8ff" d="M1281.04,-111.83C1292.57,-98.92 1314.59,-74.87 1334.95,-56 1345.76,-45.98 1358.45,-35.52 1368.92,-27.2"/>
<polygon fill="#63b8ff" stroke="#63b8ff" points="1370.89,-30.11 1376.6,-21.18 1366.57,-24.6 1370.89,-30.11"/>
</a>
</g>
</g>
<!-- Node30&#45;&gt;Node5 -->
<g id="edge54_Node000030_Node000005" class="edge">
<title>Node30&#45;&gt;Node5</title>
<g id="a_edge54_Node000030_Node000005"><a xlink:title=" ">
<path fill="none" stroke="#63b8ff" d="M1288.97,-111.59C1302.74,-103.51 1322.85,-91.71 1338.93,-82.27"/>
<polygon fill="#63b8ff" stroke="#63b8ff" points="1340.64,-85.33 1347.49,-77.25 1337.1,-79.29 1340.64,-85.33"/>
</a>
</g>
</g>
<!-- Node31&#45;&gt;Node5 -->
<g id="edge56_Node000031_Node000005" class="edge">
<title>Node31&#45;&gt;Node5</title>
<g id="a_edge56_Node000031_Node000005"><a xlink:title=" ">
<path fill="none" stroke="#63b8ff" d="M1377.33,-111.59C1375.46,-104.86 1372.87,-95.53 1370.54,-87.15"/>
<polygon fill="#63b8ff" stroke="#63b8ff" points="1373.98,-86.46 1367.94,-77.76 1367.24,-88.33 1373.98,-86.46"/>
</a>
</g>
</g>
<!-- Node32&#45;&gt;Node5 -->
<g id="edge59_Node000032_Node000005" class="edge">
<title>Node32&#45;&gt;Node5</title>
<g id="a_edge59_Node000032_Node000005"><a xlink:title=" ">
<path fill="none" stroke="#63b8ff" d="M1030.47,-167.51C1059.71,-159.14 1102.55,-146.12 1138.95,-132 1158.6,-124.38 1162.06,-118.99 1181.95,-112 1233.19,-93.98 1294.94,-80.4 1332.01,-73.09"/>
<polygon fill="#63b8ff" stroke="#63b8ff" points="1332.5,-76.56 1341.65,-71.22 1331.17,-69.69 1332.5,-76.56"/>
</a>
</g>
</g>
<!-- Node32&#45;&gt;Node9 -->
<g id="edge58_Node000032_Node000009" class="edge">
<title>Node32&#45;&gt;Node9</title>
<g id="a_edge58_Node000032_Node000009"><a xlink:title=" ">
<path fill="none" stroke="#63b8ff" d="M982.14,-167.62C954.28,-148.71 891.11,-105.82 856.94,-82.61"/>
<polygon fill="#63b8ff" stroke="#63b8ff" points="859.22,-79.93 848.98,-77.21 855.28,-85.72 859.22,-79.93"/>
</a>
</g>
</g>
<!-- Node32&#45;&gt;Node10 -->
<g id="edge61_Node000032_Node000010" class="edge">
<title>Node32&#45;&gt;Node10</title>
<g id="a_edge61_Node000032_Node000010"><a xlink:title=" ">
<path fill="none" stroke="#63b8ff" d="M988.04,-167.64C981.13,-158.96 971.38,-145.4 965.95,-132 960.13,-117.66 957.11,-100.38 955.56,-87.25"/>
<polygon fill="#63b8ff" stroke="#63b8ff" points="959.08,-87.27 954.62,-77.66 952.11,-87.95 959.08,-87.27"/>
</a>
</g>
</g>
<!-- Node32&#45;&gt;Node27 -->
<g id="edge60_Node000032_Node000027" class="edge">
<title>Node32&#45;&gt;Node27</title>
<g id="a_edge60_Node000032_Node000027"><a xlink:title=" ">
<path fill="none" stroke="#63b8ff" d="M1008.66,-167.59C1019.34,-159.7 1034.83,-148.24 1047.43,-138.92"/>
<polygon fill="#63b8ff" stroke="#63b8ff" points="1049.2,-141.96 1055.16,-133.2 1045.04,-136.33 1049.2,-141.96"/>
</a>
</g>
</g>
</g>
</svg>
