<?xml version="1.0" encoding="UTF-8" standalone="no"?>
<!DOCTYPE svg PUBLIC "-//W3C//DTD SVG 1.1//EN"
 "http://www.w3.org/Graphics/SVG/1.1/DTD/svg11.dtd">
<!-- Generated by graphviz version 14.0.2 (0)
 -->
<!-- Title: systems/inputHandler/src/InputHandler.hpp Pages: 1 -->
<svg width="1678pt" height="344pt"
 viewBox="0.00 0.00 1678.00 344.00" xmlns="http://www.w3.org/2000/svg" xmlns:xlink="http://www.w3.org/1999/xlink">
<g id="graph0" class="graph" transform="scale(1 1) rotate(0) translate(4 340)">
<title>systems/inputHandler/src/InputHandler.hpp</title>
<!-- Node1 -->
<g id="Node000001" class="node">
<title>Node1</title>
<g id="a_Node000001"><a xlink:title=" ">
<polygon fill="#999999" stroke="#666666" points="963.55,-336 852.3,-336 852.3,-304 963.55,-304 963.55,-336"/>
<text xml:space="preserve" text-anchor="start" x="860.3" y="-322.5" font-family="Helvetica,sans-Serif" font-size="10.00">systems/inputHandler</text>
<text xml:space="preserve" text-anchor="middle" x="907.93" y="-310.5" font-family="Helvetica,sans-Serif" font-size="10.00">/src/InputHandler.hpp</text>
</a>
</g>
</g>
<!-- Node2 -->
<g id="Node000002" class="node">
<title>Node2</title>
<g id="a_Node000002"><a xlink:title=" ">
<polygon fill="#e0e0e0" stroke="#999999" points="85.93,-20 45.93,-20 45.93,0 85.93,0 85.93,-20"/>
<text xml:space="preserve" text-anchor="middle" x="65.93" y="-6.5" font-family="Helvetica,sans-Serif" font-size="10.00">bitset</text>
</a>
</g>
</g>
<!-- Node1&#45;&gt;Node2 -->
<g id="edge1_Node000001_Node000002" class="edge">
<title>Node1&#45;&gt;Node2</title>
<g id="a_edge1_Node000001_Node000002"><a xlink:title=" ">
<path fill="none" stroke="#63b8ff" d="M852.1,-317.64C662.55,-312.77 53.5,-295.08 21.93,-268 -8.78,-241.67 2.93,-219.45 2.93,-179 2.93,-179 2.93,-179 2.93,-121 2.93,-84.36 29.57,-48.85 48.21,-28.5"/>
<polygon fill="#63b8ff" stroke="#63b8ff" points="50.65,-31 55.04,-21.36 45.59,-26.17 50.65,-31"/>
</a>
</g>
</g>
<!-- Node3 -->
<g id="Node000003" class="node">
<title>Node3</title>
<g id="a_Node000003"><a xlink:title=" ">
<polygon fill="#e0e0e0" stroke="#999999" points="1412.55,-20 1367.3,-20 1367.3,0 1412.55,0 1412.55,-20"/>
<text xml:space="preserve" text-anchor="middle" x="1389.93" y="-6.5" font-family="Helvetica,sans-Serif" font-size="10.00">cstdint</text>
</a>
</g>
</g>
<!-- Node1&#45;&gt;Node3 -->
<g id="edge2_Node000001_Node000003" class="edge">
<title>Node1&#45;&gt;Node3</title>
<g id="a_edge2_Node000001_Node000003"><a xlink:title=" ">
<path fill="none" stroke="#63b8ff" d="M963.95,-318.6C1100.28,-316.97 1445.95,-308.83 1552.93,-268 1613.97,-244.7 1669.93,-244.33 1669.93,-179 1669.93,-179 1669.93,-179 1669.93,-121 1669.93,-68.7 1498.54,-30.9 1423.94,-16.93"/>
<polygon fill="#63b8ff" stroke="#63b8ff" points="1424.79,-13.53 1414.33,-15.17 1423.53,-20.41 1424.79,-13.53"/>
</a>
</g>
</g>
<!-- Node4 -->
<g id="Node000004" class="node">
<title>Node4</title>
<g id="a_Node000004"><a xlink:title=" ">
<polygon fill="#e0e0e0" stroke="#999999" points="1386.43,-76 1343.43,-76 1343.43,-56 1386.43,-56 1386.43,-76"/>
<text xml:space="preserve" text-anchor="middle" x="1364.93" y="-62.5" font-family="Helvetica,sans-Serif" font-size="10.00">vector</text>
</a>
</g>
</g>
<!-- Node1&#45;&gt;Node4 -->
<g id="edge3_Node000001_Node000004" class="edge">
<title>Node1&#45;&gt;Node4</title>
<g id="a_edge3_Node000001_Node000004"><a xlink:title=" ">
<path fill="none" stroke="#63b8ff" d="M963.75,-319.08C1094.04,-318.5 1414.43,-312.46 1510.93,-268 1556.88,-246.83 1564.4,-230.46 1591.93,-188 1610.99,-158.6 1635.38,-138.9 1612.93,-112 1585.91,-79.64 1459.1,-70.5 1398,-67.96"/>
<polygon fill="#63b8ff" stroke="#63b8ff" points="1398.34,-64.47 1388.22,-67.59 1398.08,-71.46 1398.34,-64.47"/>
</a>
</g>
</g>
<!-- Node5 -->
<g id="Node000005" class="node">
<title>Node5</title>
<g id="a_Node000005"><a xlink:href="Acceleration_8hpp.html" target="_top" xlink:title=" ">
<polygon fill="white" stroke="#666666" points="478.8,-262 315.05,-262 315.05,-230 478.8,-230 478.8,-262"/>
<text xml:space="preserve" text-anchor="start" x="323.05" y="-248.5" font-family="Helvetica,sans-Serif" font-size="10.00">../../../components</text>
<text xml:space="preserve" text-anchor="middle" x="396.93" y="-236.5" font-family="Helvetica,sans-Serif" font-size="10.00">/acceleration/src/Acceleration.hpp</text>
</a>
</g>
</g>
<!-- Node1&#45;&gt;Node5 -->
<g id="edge4_Node000001_Node000005" class="edge">
<title>Node1&#45;&gt;Node5</title>
<g id="a_edge4_Node000001_Node000005"><a xlink:title=" ">
<path fill="none" stroke="#63b8ff" d="M851.94,-314.11C771.17,-306.61 617.42,-290.74 487.93,-268 482.38,-267.03 476.66,-265.93 470.92,-264.76"/>
<polygon fill="#63b8ff" stroke="#63b8ff" points="471.89,-261.39 461.38,-262.75 470.44,-268.24 471.89,-261.39"/>
</a>
</g>
</g>
<!-- Node10 -->
<g id="Node000010" class="node">
<title>Node10</title>
<g id="a_Node000010"><a xlink:href="Collider_8hpp.html" target="_top" xlink:title=" ">
<polygon fill="white" stroke="#666666" points="152.43,-262 31.43,-262 31.43,-230 152.43,-230 152.43,-262"/>
<text xml:space="preserve" text-anchor="start" x="39.43" y="-248.5" font-family="Helvetica,sans-Serif" font-size="10.00">../../../components</text>
<text xml:space="preserve" text-anchor="middle" x="91.93" y="-236.5" font-family="Helvetica,sans-Serif" font-size="10.00">/collider/src/Collider.hpp</text>
</a>
</g>
</g>
<!-- Node1&#45;&gt;Node10 -->
<g id="edge11_Node000001_Node000010" class="edge">
<title>Node1&#45;&gt;Node10</title>
<g id="a_edge11_Node000001_Node000010"><a xlink:title=" ">
<path fill="none" stroke="#63b8ff" d="M852.19,-319.41C727.45,-319.42 416.73,-314.33 161.93,-268 157.81,-267.25 153.6,-266.35 149.38,-265.34"/>
<polygon fill="#63b8ff" stroke="#63b8ff" points="150.29,-261.96 139.73,-262.85 148.54,-268.74 150.29,-261.96"/>
</a>
</g>
</g>
<!-- Node13 -->
<g id="Node000013" class="node">
<title>Node13</title>
<g id="a_Node000013"><a xlink:href="Damage_8hpp.html" target="_top" xlink:title=" ">
<polygon fill="white" stroke="#666666" points="625.18,-262 496.68,-262 496.68,-230 625.18,-230 625.18,-262"/>
<text xml:space="preserve" text-anchor="start" x="504.68" y="-248.5" font-family="Helvetica,sans-Serif" font-size="10.00">../../../components</text>
<text xml:space="preserve" text-anchor="middle" x="560.93" y="-236.5" font-family="Helvetica,sans-Serif" font-size="10.00">/damage/src/Damage.hpp</text>
</a>
</g>
</g>
<!-- Node1&#45;&gt;Node13 -->
<g id="edge16_Node000001_Node000013" class="edge">
<title>Node1&#45;&gt;Node13</title>
<g id="a_edge16_Node000001_Node000013"><a xlink:title=" ">
<path fill="none" stroke="#63b8ff" d="M851.93,-310.09C796.52,-300.9 709.44,-285.49 634.93,-268 631.35,-267.16 627.69,-266.26 624,-265.32"/>
<polygon fill="#63b8ff" stroke="#63b8ff" points="624.95,-261.95 614.39,-262.79 623.17,-268.72 624.95,-261.95"/>
</a>
</g>
</g>
<!-- Node14 -->
<g id="Node000014" class="node">
<title>Node14</title>
<g id="a_Node000014"><a xlink:href="Domain_8hpp.html" target="_top" xlink:title=" ">
<polygon fill="white" stroke="#666666" points="766.18,-262 643.68,-262 643.68,-230 766.18,-230 766.18,-262"/>
<text xml:space="preserve" text-anchor="start" x="651.68" y="-248.5" font-family="Helvetica,sans-Serif" font-size="10.00">../../../components</text>
<text xml:space="preserve" text-anchor="middle" x="704.93" y="-236.5" font-family="Helvetica,sans-Serif" font-size="10.00">/domain/src/Domain.hpp</text>
</a>
</g>
</g>
<!-- Node1&#45;&gt;Node14 -->
<g id="edge18_Node000001_Node000014" class="edge">
<title>Node1&#45;&gt;Node14</title>
<g id="a_edge18_Node000001_Node000014"><a xlink:title=" ">
<path fill="none" stroke="#63b8ff" d="M864.38,-303.55C833.6,-292.64 792.14,-277.93 759.21,-266.26"/>
<polygon fill="#63b8ff" stroke="#63b8ff" points="760.42,-262.97 749.83,-262.93 758.08,-269.57 760.42,-262.97"/>
</a>
</g>
</g>
<!-- Node15 -->
<g id="Node000015" class="node">
<title>Node15</title>
<g id="a_Node000015"><a xlink:href="Health_8hpp.html" target="_top" xlink:title=" ">
<polygon fill="white" stroke="#666666" points="895.93,-262 783.93,-262 783.93,-230 895.93,-230 895.93,-262"/>
<text xml:space="preserve" text-anchor="start" x="791.93" y="-248.5" font-family="Helvetica,sans-Serif" font-size="10.00">../../../components</text>
<text xml:space="preserve" text-anchor="middle" x="839.93" y="-236.5" font-family="Helvetica,sans-Serif" font-size="10.00">/health/src/Health.hpp</text>
</a>
</g>
</g>
<!-- Node1&#45;&gt;Node15 -->
<g id="edge20_Node000001_Node000015" class="edge">
<title>Node1&#45;&gt;Node15</title>
<g id="a_edge20_Node000001_Node000015"><a xlink:title=" ">
<path fill="none" stroke="#63b8ff" d="M893.5,-303.73C884.4,-294.09 872.45,-281.44 862.15,-270.53"/>
<polygon fill="#63b8ff" stroke="#63b8ff" points="864.78,-268.21 855.36,-263.35 859.69,-273.02 864.78,-268.21"/>
</a>
</g>
</g>
<!-- Node16 -->
<g id="Node000016" class="node">
<title>Node16</title>
<g id="a_Node000016"><a xlink:href="InputControlled_8hpp.html" target="_top" xlink:title=" ">
<polygon fill="white" stroke="#666666" points="1159.8,-268 1056.05,-268 1056.05,-224 1159.8,-224 1159.8,-268"/>
<text xml:space="preserve" text-anchor="start" x="1064.05" y="-254.5" font-family="Helvetica,sans-Serif" font-size="10.00">../../../components</text>
<text xml:space="preserve" text-anchor="start" x="1064.05" y="-242.5" font-family="Helvetica,sans-Serif" font-size="10.00">/inputControlled/src</text>
<text xml:space="preserve" text-anchor="middle" x="1107.93" y="-230.5" font-family="Helvetica,sans-Serif" font-size="10.00">/InputControlled.hpp</text>
</a>
</g>
</g>
<!-- Node1&#45;&gt;Node16 -->
<g id="edge22_Node000001_Node000016" class="edge">
<title>Node1&#45;&gt;Node16</title>
<g id="a_edge22_Node000001_Node000016"><a xlink:title=" ">
<path fill="none" stroke="#63b8ff" d="M950.83,-303.55C978.35,-293.65 1014.54,-280.62 1045.24,-269.56"/>
<polygon fill="#63b8ff" stroke="#63b8ff" points="1046.21,-272.94 1054.43,-266.26 1043.84,-266.35 1046.21,-272.94"/>
</a>
</g>
</g>
<!-- Node17 -->
<g id="Node000017" class="node">
<title>Node17</title>
<g id="a_Node000017"><a xlink:href="Position_8hpp.html" target="_top" xlink:title=" ">
<polygon fill="white" stroke="#666666" points="297.05,-262 170.8,-262 170.8,-230 297.05,-230 297.05,-262"/>
<text xml:space="preserve" text-anchor="start" x="178.8" y="-248.5" font-family="Helvetica,sans-Serif" font-size="10.00">../../../components</text>
<text xml:space="preserve" text-anchor="middle" x="233.93" y="-236.5" font-family="Helvetica,sans-Serif" font-size="10.00">/position/src/Position.hpp</text>
</a>
</g>
</g>
<!-- Node1&#45;&gt;Node17 -->
<g id="edge26_Node000001_Node000017" class="edge">
<title>Node1&#45;&gt;Node17</title>
<g id="a_edge26_Node000001_Node000017"><a xlink:title=" ">
<path fill="none" stroke="#63b8ff" d="M851.82,-317.97C744.79,-315.18 504.42,-304.97 305.93,-268 301.65,-267.2 297.27,-266.26 292.89,-265.22"/>
<polygon fill="#63b8ff" stroke="#63b8ff" points="294.04,-261.9 283.48,-262.83 292.32,-268.68 294.04,-261.9"/>
</a>
</g>
</g>
<!-- Node18 -->
<g id="Node000018" class="node">
<title>Node18</title>
<g id="a_Node000018"><a xlink:href="Renderable_8hpp.html" target="_top" xlink:title=" ">
<polygon fill="white" stroke="#666666" points="1501.8,-262 1350.05,-262 1350.05,-230 1501.8,-230 1501.8,-262"/>
<text xml:space="preserve" text-anchor="start" x="1358.05" y="-248.5" font-family="Helvetica,sans-Serif" font-size="10.00">../../../components</text>
<text xml:space="preserve" text-anchor="middle" x="1425.93" y="-236.5" font-family="Helvetica,sans-Serif" font-size="10.00">/renderable/src/Renderable.hpp</text>
</a>
</g>
</g>
<!-- Node1&#45;&gt;Node18 -->
<g id="edge29_Node000001_Node000018" class="edge">
<title>Node1&#45;&gt;Node18</title>
<g id="a_edge29_Node000001_Node000018"><a xlink:title=" ">
<path fill="none" stroke="#63b8ff" d="M963.96,-314.65C1046.82,-307.72 1206.69,-292.39 1340.93,-268 1346.08,-267.06 1351.38,-266 1356.7,-264.86"/>
<polygon fill="#63b8ff" stroke="#63b8ff" points="1357.13,-268.35 1366.13,-262.76 1355.61,-261.52 1357.13,-268.35"/>
</a>
</g>
</g>
<!-- Node22 -->
<g id="Node000022" class="node">
<title>Node22</title>
<g id="a_Node000022"><a xlink:href="Velocity_8hpp.html" target="_top" xlink:title=" ">
<polygon fill="white" stroke="#666666" points="1038.3,-262 913.55,-262 913.55,-230 1038.3,-230 1038.3,-262"/>
<text xml:space="preserve" text-anchor="start" x="921.55" y="-248.5" font-family="Helvetica,sans-Serif" font-size="10.00">../../../components</text>
<text xml:space="preserve" text-anchor="middle" x="975.93" y="-236.5" font-family="Helvetica,sans-Serif" font-size="10.00">/velocity/src/Velocity.hpp</text>
</a>
</g>
</g>
<!-- Node1&#45;&gt;Node22 -->
<g id="edge36_Node000001_Node000022" class="edge">
<title>Node1&#45;&gt;Node22</title>
<g id="a_edge36_Node000001_Node000022"><a xlink:title=" ">
<path fill="none" stroke="#63b8ff" d="M922.35,-303.73C931.45,-294.09 943.4,-281.44 953.7,-270.53"/>
<polygon fill="#63b8ff" stroke="#63b8ff" points="956.16,-273.02 960.49,-263.35 951.07,-268.21 956.16,-273.02"/>
</a>
</g>
</g>
<!-- Node23 -->
<g id="Node000023" class="node">
<title>Node23</title>
<g id="a_Node000023"><a xlink:href="Registry_8hpp.html" target="_top" xlink:title=" ">
<polygon fill="white" stroke="#666666" points="1332.18,-256 1215.68,-256 1215.68,-236 1332.18,-236 1332.18,-256"/>
<text xml:space="preserve" text-anchor="middle" x="1273.93" y="-242.5" font-family="Helvetica,sans-Serif" font-size="10.00">../../../ecs/Registry.hpp</text>
</a>
</g>
</g>
<!-- Node1&#45;&gt;Node23 -->
<g id="edge38_Node000001_Node000023" class="edge">
<title>Node1&#45;&gt;Node23</title>
<g id="a_edge38_Node000001_Node000023"><a xlink:title=" ">
<path fill="none" stroke="#63b8ff" d="M963.84,-311.21C1023.26,-302.48 1119.79,-287.04 1201.93,-268 1212.26,-265.6 1223.32,-262.6 1233.59,-259.63"/>
<polygon fill="#63b8ff" stroke="#63b8ff" points="1234.3,-263.07 1242.9,-256.87 1232.31,-256.36 1234.3,-263.07"/>
</a>
</g>
</g>
<!-- Node31 -->
<g id="Node000031" class="node">
<title>Node31</title>
<g id="a_Node000031"><a xlink:href="System_8hpp.html" target="_top" xlink:title=" ">
<polygon fill="white" stroke="#666666" points="1030.18,-188 961.68,-188 961.68,-168 1030.18,-168 1030.18,-188"/>
<text xml:space="preserve" text-anchor="middle" x="995.93" y="-174.5" font-family="Helvetica,sans-Serif" font-size="10.00">System.hpp</text>
</a>
</g>
</g>
<!-- Node1&#45;&gt;Node31 -->
<g id="edge62_Node000001_Node000031" class="edge">
<title>Node1&#45;&gt;Node31</title>
<g id="a_edge62_Node000001_Node000031"><a xlink:title=" ">
<path fill="none" stroke="#63b8ff" d="M963.84,-316.16C1032.63,-311.35 1143.46,-298.92 1168.93,-268 1181.36,-252.9 1180.89,-239.47 1168.93,-224 1153.44,-203.97 1087.41,-191.19 1041.56,-184.56"/>
<polygon fill="#63b8ff" stroke="#63b8ff" points="1042.27,-181.12 1031.88,-183.21 1041.3,-188.06 1042.27,-181.12"/>
</a>
</g>
</g>
<!-- Node6 -->
<g id="Node000006" class="node">
<title>Node6</title>
<g id="a_Node000006"><a xlink:href="Component_8hpp.html" target="_top" xlink:title=" ">
<polygon fill="white" stroke="#666666" points="770.3,-188 639.55,-188 639.55,-168 770.3,-168 770.3,-188"/>
<text xml:space="preserve" text-anchor="middle" x="704.93" y="-174.5" font-family="Helvetica,sans-Serif" font-size="10.00">../../../ecs/Component.hpp</text>
</a>
</g>
</g>
<!-- Node5&#45;&gt;Node6 -->
<g id="edge5_Node000005_Node000006" class="edge">
<title>Node5&#45;&gt;Node6</title>
<g id="a_edge5_Node000005_Node000006"><a xlink:title=" ">
<path fill="none" stroke="#63b8ff" d="M462.99,-229.57C471.38,-227.67 479.85,-225.77 487.93,-224 541.69,-212.22 603.12,-199.56 646.87,-190.67"/>
<polygon fill="#63b8ff" stroke="#63b8ff" points="647.29,-194.16 656.39,-188.74 645.89,-187.3 647.29,-194.16"/>
</a>
</g>
</g>
<!-- Node7 -->
<g id="Node000007" class="node">
<title>Node7</title>
<g id="a_Node000007"><a xlink:title=" ">
<polygon fill="#e0e0e0" stroke="#999999" points="875.55,-132 824.3,-132 824.3,-112 875.55,-112 875.55,-132"/>
<text xml:space="preserve" text-anchor="middle" x="849.93" y="-118.5" font-family="Helvetica,sans-Serif" font-size="10.00">memory</text>
</a>
</g>
</g>
<!-- Node6&#45;&gt;Node7 -->
<g id="edge6_Node000006_Node000007" class="edge">
<title>Node6&#45;&gt;Node7</title>
<g id="a_edge6_Node000006_Node000007"><a xlink:title=" ">
<path fill="none" stroke="#63b8ff" d="M730.18,-167.59C753.33,-158.97 787.85,-146.12 813.89,-136.42"/>
<polygon fill="#63b8ff" stroke="#63b8ff" points="814.9,-139.78 823.05,-133.01 812.46,-133.22 814.9,-139.78"/>
</a>
</g>
</g>
<!-- Node8 -->
<g id="Node000008" class="node">
<title>Node8</title>
<g id="a_Node000008"><a xlink:title=" ">
<polygon fill="#e0e0e0" stroke="#999999" points="853.93,-76 813.93,-76 813.93,-56 853.93,-56 853.93,-76"/>
<text xml:space="preserve" text-anchor="middle" x="833.93" y="-62.5" font-family="Helvetica,sans-Serif" font-size="10.00">string</text>
</a>
</g>
</g>
<!-- Node6&#45;&gt;Node8 -->
<g id="edge7_Node000006_Node000008" class="edge">
<title>Node6&#45;&gt;Node8</title>
<g id="a_edge7_Node000006_Node000008"><a xlink:title=" ">
<path fill="none" stroke="#63b8ff" d="M707.94,-167.89C712.87,-154.18 723.87,-128.14 740.93,-112 758.46,-95.41 783.26,-83.82 802.84,-76.57"/>
<polygon fill="#63b8ff" stroke="#63b8ff" points="803.96,-79.89 812.25,-73.29 801.65,-73.28 803.96,-79.89"/>
</a>
</g>
</g>
<!-- Node9 -->
<g id="Node000009" class="node">
<title>Node9</title>
<g id="a_Node000009"><a xlink:href="Types_8hpp.html" target="_top" xlink:title="Core type definitions used throughout the ECS (Entity Component System).">
<polygon fill="white" stroke="#666666" points="984.43,-76 923.43,-76 923.43,-56 984.43,-56 984.43,-76"/>
<text xml:space="preserve" text-anchor="middle" x="953.93" y="-62.5" font-family="Helvetica,sans-Serif" font-size="10.00">Types.hpp</text>
</a>
</g>
</g>
<!-- Node6&#45;&gt;Node9 -->
<g id="edge8_Node000006_Node000009" class="edge">
<title>Node6&#45;&gt;Node9</title>
<g id="a_edge8_Node000006_Node000009"><a xlink:title=" ">
<path fill="none" stroke="#63b8ff" d="M718.63,-167.55C738.93,-153.88 778.52,-128.4 814.93,-112 846.53,-97.76 884.01,-85.9 912.08,-77.93"/>
<polygon fill="#63b8ff" stroke="#63b8ff" points="912.95,-81.32 921.65,-75.27 911.07,-74.58 912.95,-81.32"/>
</a>
</g>
</g>
<!-- Node9&#45;&gt;Node2 -->
<g id="edge9_Node000009_Node000002" class="edge">
<title>Node9&#45;&gt;Node2</title>
<g id="a_edge9_Node000009_Node000002"><a xlink:title=" ">
<path fill="none" stroke="#63b8ff" d="M923.2,-61.64C905.58,-59.79 883.03,-57.56 862.93,-56 565.57,-32.91 204.92,-16.84 97.54,-12.3"/>
<polygon fill="#63b8ff" stroke="#63b8ff" points="97.92,-8.82 87.78,-11.9 97.62,-15.81 97.92,-8.82"/>
</a>
</g>
</g>
<!-- Node9&#45;&gt;Node3 -->
<g id="edge10_Node000009_Node000003" class="edge">
<title>Node9&#45;&gt;Node3</title>
<g id="a_edge10_Node000009_Node000003"><a xlink:title=" ">
<path fill="none" stroke="#63b8ff" d="M984.83,-60.53C995.33,-59.05 1007.13,-57.41 1017.93,-56 1142.11,-39.76 1289.89,-22.5 1355.55,-14.93"/>
<polygon fill="#63b8ff" stroke="#63b8ff" points="1355.79,-18.43 1365.33,-13.81 1355,-11.47 1355.79,-18.43"/>
</a>
</g>
</g>
<!-- Node10&#45;&gt;Node2 -->
<g id="edge12_Node000010_Node000002" class="edge">
<title>Node10&#45;&gt;Node2</title>
<g id="a_edge12_Node000010_Node000002"><a xlink:title=" ">
<path fill="none" stroke="#63b8ff" d="M89.96,-229.52C88.52,-218.06 86.54,-202.06 84.93,-188 78.41,-131.35 71.41,-64.42 68.02,-31.45"/>
<polygon fill="#63b8ff" stroke="#63b8ff" points="71.52,-31.31 67.02,-21.72 64.56,-32.03 71.52,-31.31"/>
</a>
</g>
</g>
<!-- Node10&#45;&gt;Node6 -->
<g id="edge14_Node000010_Node000006" class="edge">
<title>Node10&#45;&gt;Node6</title>
<g id="a_edge14_Node000010_Node000006"><a xlink:title=" ">
<path fill="none" stroke="#63b8ff" d="M138.66,-229.51C146.37,-227.39 154.32,-225.44 161.93,-224 326.03,-192.94 522.07,-183.32 627.93,-180.34"/>
<polygon fill="#63b8ff" stroke="#63b8ff" points="627.72,-183.84 637.62,-180.08 627.53,-176.85 627.72,-183.84"/>
</a>
</g>
</g>
<!-- Node11 -->
<g id="Node000011" class="node">
<title>Node11</title>
<g id="a_Node000011"><a xlink:title=" ">
<polygon fill="#e0e0e0" stroke="#999999" points="139.55,-188 94.3,-188 94.3,-168 139.55,-168 139.55,-188"/>
<text xml:space="preserve" text-anchor="middle" x="116.93" y="-174.5" font-family="Helvetica,sans-Serif" font-size="10.00">variant</text>
</a>
</g>
</g>
<!-- Node10&#45;&gt;Node11 -->
<g id="edge13_Node000010_Node000011" class="edge">
<title>Node10&#45;&gt;Node11</title>
<g id="a_edge13_Node000010_Node000011"><a xlink:title=" ">
<path fill="none" stroke="#63b8ff" d="M97.72,-229.69C101.21,-220.5 105.68,-208.7 109.43,-198.8"/>
<polygon fill="#63b8ff" stroke="#63b8ff" points="112.59,-200.32 112.86,-189.73 106.04,-197.84 112.59,-200.32"/>
</a>
</g>
</g>
<!-- Node12 -->
<g id="Node000012" class="node">
<title>Node12</title>
<g id="a_Node000012"><a xlink:href="utils_8hpp.html" target="_top" xlink:title=" ">
<polygon fill="white" stroke="#666666" points="283.18,-188 184.68,-188 184.68,-168 283.18,-168 283.18,-188"/>
<text xml:space="preserve" text-anchor="middle" x="233.93" y="-174.5" font-family="Helvetica,sans-Serif" font-size="10.00">../../../ecs/utils.hpp</text>
</a>
</g>
</g>
<!-- Node10&#45;&gt;Node12 -->
<g id="edge15_Node000010_Node000012" class="edge">
<title>Node10&#45;&gt;Node12</title>
<g id="a_edge15_Node000010_Node000012"><a xlink:title=" ">
<path fill="none" stroke="#63b8ff" d="M125.22,-229.53C148.85,-218.54 180.34,-203.9 203.35,-193.21"/>
<polygon fill="#63b8ff" stroke="#63b8ff" points="204.61,-196.49 212.2,-189.1 201.66,-190.14 204.61,-196.49"/>
</a>
</g>
</g>
<!-- Node13&#45;&gt;Node6 -->
<g id="edge17_Node000013_Node000006" class="edge">
<title>Node13&#45;&gt;Node6</title>
<g id="a_edge17_Node000013_Node000006"><a xlink:title=" ">
<path fill="none" stroke="#63b8ff" d="M594.69,-229.53C618.66,-218.54 650.59,-203.9 673.92,-193.21"/>
<polygon fill="#63b8ff" stroke="#63b8ff" points="675.28,-196.44 682.91,-189.09 672.36,-190.08 675.28,-196.44"/>
</a>
</g>
</g>
<!-- Node14&#45;&gt;Node6 -->
<g id="edge19_Node000014_Node000006" class="edge">
<title>Node14&#45;&gt;Node6</title>
<g id="a_edge19_Node000014_Node000006"><a xlink:title=" ">
<path fill="none" stroke="#63b8ff" d="M704.93,-229.69C704.93,-220.8 704.93,-209.46 704.93,-199.77"/>
<polygon fill="#63b8ff" stroke="#63b8ff" points="708.43,-199.83 704.93,-189.83 701.43,-199.83 708.43,-199.83"/>
</a>
</g>
</g>
<!-- Node15&#45;&gt;Node6 -->
<g id="edge21_Node000015_Node000006" class="edge">
<title>Node15&#45;&gt;Node6</title>
<g id="a_edge21_Node000015_Node000006"><a xlink:title=" ">
<path fill="none" stroke="#63b8ff" d="M808.27,-229.53C786.01,-218.64 756.41,-204.17 734.59,-193.5"/>
<polygon fill="#63b8ff" stroke="#63b8ff" points="736.16,-190.37 725.63,-189.12 733.08,-196.66 736.16,-190.37"/>
</a>
</g>
</g>
<!-- Node16&#45;&gt;Node4 -->
<g id="edge24_Node000016_Node000004" class="edge">
<title>Node16&#45;&gt;Node4</title>
<g id="a_edge24_Node000016_Node000004"><a xlink:title=" ">
<path fill="none" stroke="#63b8ff" d="M1088.75,-223.79C1076.5,-207.56 1064.97,-185.13 1076.93,-168 1103.48,-129.95 1132.33,-150.4 1174.93,-132 1193.17,-124.12 1196.45,-119.33 1214.93,-112 1254.37,-96.36 1301.47,-83.06 1332.23,-75.07"/>
<polygon fill="#63b8ff" stroke="#63b8ff" points="1332.88,-78.51 1341.7,-72.64 1331.14,-71.73 1332.88,-78.51"/>
</a>
</g>
</g>
<!-- Node16&#45;&gt;Node6 -->
<g id="edge25_Node000016_Node000006" class="edge">
<title>Node16&#45;&gt;Node6</title>
<g id="a_edge25_Node000016_Node000006"><a xlink:title=" ">
<path fill="none" stroke="#63b8ff" d="M1055.88,-226.31C1052.87,-225.47 1049.87,-224.69 1046.93,-224 1021.74,-218.07 874.74,-199.65 781.85,-188.29"/>
<polygon fill="#63b8ff" stroke="#63b8ff" points="782.37,-184.83 772.02,-187.09 781.52,-191.78 782.37,-184.83"/>
</a>
</g>
</g>
<!-- Node16&#45;&gt;Node8 -->
<g id="edge23_Node000016_Node000008" class="edge">
<title>Node16&#45;&gt;Node8</title>
<g id="a_edge23_Node000016_Node000008"><a xlink:title=" ">
<path fill="none" stroke="#63b8ff" d="M1055.76,-226.76C1052.78,-225.8 1049.82,-224.88 1046.93,-224 940.77,-191.83 869.95,-228.31 814.93,-132 806.73,-117.66 813.25,-99.49 820.8,-86.01"/>
<polygon fill="#63b8ff" stroke="#63b8ff" points="823.69,-87.99 826.02,-77.65 817.75,-84.28 823.69,-87.99"/>
</a>
</g>
</g>
<!-- Node17&#45;&gt;Node6 -->
<g id="edge27_Node000017_Node000006" class="edge">
<title>Node17&#45;&gt;Node6</title>
<g id="a_edge27_Node000017_Node000006"><a xlink:title=" ">
<path fill="none" stroke="#63b8ff" d="M282.83,-229.52C290.51,-227.44 298.39,-225.51 305.93,-224 416.73,-201.76 547.22,-189.64 628.02,-183.74"/>
<polygon fill="#63b8ff" stroke="#63b8ff" points="627.84,-187.27 637.57,-183.06 627.35,-180.28 627.84,-187.27"/>
</a>
</g>
</g>
<!-- Node17&#45;&gt;Node12 -->
<g id="edge28_Node000017_Node000012" class="edge">
<title>Node17&#45;&gt;Node12</title>
<g id="a_edge28_Node000017_Node000012"><a xlink:title=" ">
<path fill="none" stroke="#63b8ff" d="M233.93,-229.69C233.93,-220.8 233.93,-209.46 233.93,-199.77"/>
<polygon fill="#63b8ff" stroke="#63b8ff" points="237.43,-199.83 233.93,-189.83 230.43,-199.83 237.43,-199.83"/>
</a>
</g>
</g>
<!-- Node18&#45;&gt;Node4 -->
<g id="edge33_Node000018_Node000004" class="edge">
<title>Node18&#45;&gt;Node4</title>
<g id="a_edge33_Node000018_Node000004"><a xlink:title=" ">
<path fill="none" stroke="#63b8ff" d="M1502.22,-233.47C1549.17,-222.7 1596.57,-202.89 1574.93,-168 1554.91,-135.75 1451.4,-96.51 1397.56,-77.86"/>
<polygon fill="#63b8ff" stroke="#63b8ff" points="1398.9,-74.62 1388.3,-74.69 1396.63,-81.24 1398.9,-74.62"/>
</a>
</g>
</g>
<!-- Node18&#45;&gt;Node6 -->
<g id="edge34_Node000018_Node000006" class="edge">
<title>Node18&#45;&gt;Node6</title>
<g id="a_edge34_Node000018_Node000006"><a xlink:title=" ">
<path fill="none" stroke="#63b8ff" d="M1369.05,-229.52C1359.7,-227.39 1350.08,-225.44 1340.93,-224 1235.33,-207.35 927.05,-190.21 782.02,-182.79"/>
<polygon fill="#63b8ff" stroke="#63b8ff" points="782.28,-179.3 772.12,-182.29 781.93,-186.29 782.28,-179.3"/>
</a>
</g>
</g>
<!-- Node18&#45;&gt;Node12 -->
<g id="edge35_Node000018_Node000012" class="edge">
<title>Node18&#45;&gt;Node12</title>
<g id="a_edge35_Node000018_Node000012"><a xlink:title=" ">
<path fill="none" stroke="#63b8ff" d="M1370.46,-229.6C1360.68,-227.37 1350.56,-225.37 1340.93,-224 1237.44,-209.27 511.54,-187.11 294.85,-180.76"/>
<polygon fill="#63b8ff" stroke="#63b8ff" points="295.03,-177.26 284.93,-180.47 294.82,-184.26 295.03,-177.26"/>
</a>
</g>
</g>
<!-- Node19 -->
<g id="Node000019" class="node">
<title>Node19</title>
<g id="a_Node000019"><a xlink:title=" ">
<polygon fill="#e0e0e0" stroke="#999999" points="1508.05,-188 1459.8,-188 1459.8,-168 1508.05,-168 1508.05,-188"/>
<text xml:space="preserve" text-anchor="middle" x="1483.93" y="-174.5" font-family="Helvetica,sans-Serif" font-size="10.00">cstddef</text>
</a>
</g>
</g>
<!-- Node18&#45;&gt;Node19 -->
<g id="edge30_Node000018_Node000019" class="edge">
<title>Node18&#45;&gt;Node19</title>
<g id="a_edge30_Node000018_Node000019"><a xlink:title=" ">
<path fill="none" stroke="#63b8ff" d="M1439.38,-229.69C1447.99,-219.9 1459.19,-207.15 1468.21,-196.89"/>
<polygon fill="#63b8ff" stroke="#63b8ff" points="1470.77,-199.28 1474.74,-189.45 1465.51,-194.65 1470.77,-199.28"/>
</a>
</g>
</g>
<!-- Node20 -->
<g id="Node000020" class="node">
<title>Node20</title>
<g id="a_Node000020"><a xlink:title=" ">
<polygon fill="#e0e0e0" stroke="#999999" points="1441.68,-188 1388.18,-188 1388.18,-168 1441.68,-168 1441.68,-188"/>
<text xml:space="preserve" text-anchor="middle" x="1414.93" y="-174.5" font-family="Helvetica,sans-Serif" font-size="10.00">iostream</text>
</a>
</g>
</g>
<!-- Node18&#45;&gt;Node20 -->
<g id="edge31_Node000018_Node000020" class="edge">
<title>Node18&#45;&gt;Node20</title>
<g id="a_edge31_Node000018_Node000020"><a xlink:title=" ">
<path fill="none" stroke="#63b8ff" d="M1423.37,-229.69C1421.87,-220.7 1419.96,-209.21 1418.33,-199.44"/>
<polygon fill="#63b8ff" stroke="#63b8ff" points="1421.82,-199.1 1416.73,-189.81 1414.92,-200.25 1421.82,-199.1"/>
</a>
</g>
</g>
<!-- Node21 -->
<g id="Node000021" class="node">
<title>Node21</title>
<g id="a_Node000021"><a xlink:title=" ">
<polygon fill="#e0e0e0" stroke="#999999" points="1565.55,-188 1526.3,-188 1526.3,-168 1565.55,-168 1565.55,-188"/>
<text xml:space="preserve" text-anchor="middle" x="1545.93" y="-174.5" font-family="Helvetica,sans-Serif" font-size="10.00">utility</text>
</a>
</g>
</g>
<!-- Node18&#45;&gt;Node21 -->
<g id="edge32_Node000018_Node000021" class="edge">
<title>Node18&#45;&gt;Node21</title>
<g id="a_edge32_Node000018_Node000021"><a xlink:title=" ">
<path fill="none" stroke="#63b8ff" d="M1454.06,-229.53C1473.58,-218.79 1499.44,-204.56 1518.75,-193.94"/>
<polygon fill="#63b8ff" stroke="#63b8ff" points="1520.32,-197.08 1527.4,-189.19 1516.95,-190.94 1520.32,-197.08"/>
</a>
</g>
</g>
<!-- Node22&#45;&gt;Node6 -->
<g id="edge37_Node000022_Node000006" class="edge">
<title>Node22&#45;&gt;Node6</title>
<g id="a_edge37_Node000022_Node000006"><a xlink:title=" ">
<path fill="none" stroke="#63b8ff" d="M925.23,-229.56C918.42,-227.62 911.52,-225.71 904.93,-224 857.01,-211.54 802.12,-199.33 761.98,-190.79"/>
<polygon fill="#63b8ff" stroke="#63b8ff" points="762.8,-187.38 752.29,-188.73 761.35,-194.23 762.8,-187.38"/>
</a>
</g>
</g>
<!-- Node23&#45;&gt;Node4 -->
<g id="edge42_Node000023_Node000004" class="edge">
<title>Node23&#45;&gt;Node4</title>
<g id="a_edge42_Node000023_Node000004"><a xlink:title=" ">
<path fill="none" stroke="#63b8ff" d="M1279.86,-235.69C1290.4,-219.83 1313.84,-187.4 1340.93,-168 1375.28,-143.39 1405.37,-167.08 1428.93,-132 1442.01,-112.5 1418.47,-93.78 1396.33,-81.48"/>
<polygon fill="#63b8ff" stroke="#63b8ff" points="1398.23,-78.52 1387.74,-77 1394.99,-84.73 1398.23,-78.52"/>
</a>
</g>
</g>
<!-- Node23&#45;&gt;Node7 -->
<g id="edge41_Node000023_Node000007" class="edge">
<title>Node23&#45;&gt;Node7</title>
<g id="a_edge41_Node000023_Node000007"><a xlink:title=" ">
<path fill="none" stroke="#63b8ff" d="M1228.25,-235.53C1209.84,-231.8 1188.4,-227.57 1168.93,-224 1073.2,-206.45 1043.87,-222.65 952.93,-188 921.99,-176.21 890.37,-154.53 870.48,-139.47"/>
<polygon fill="#63b8ff" stroke="#63b8ff" points="872.7,-136.77 862.65,-133.41 868.41,-142.3 872.7,-136.77"/>
</a>
</g>
</g>
<!-- Node23&#45;&gt;Node9 -->
<g id="edge61_Node000023_Node000009" class="edge">
<title>Node23&#45;&gt;Node9</title>
<g id="a_edge61_Node000023_Node000009"><a xlink:title=" ">
<path fill="none" stroke="#63b8ff" d="M1259.26,-235.73C1227.27,-215.53 1153.83,-169.22 1150.93,-168 1087.29,-141.34 1057.08,-170.64 999.93,-132 983.13,-120.65 970.49,-100.98 962.74,-86.24"/>
<polygon fill="#63b8ff" stroke="#63b8ff" points="966.01,-84.95 958.46,-77.51 959.72,-88.03 966.01,-84.95"/>
</a>
</g>
</g>
<!-- Node23&#45;&gt;Node20 -->
<g id="edge40_Node000023_Node000020" class="edge">
<title>Node23&#45;&gt;Node20</title>
<g id="a_edge40_Node000023_Node000020"><a xlink:title=" ">
<path fill="none" stroke="#63b8ff" d="M1294.13,-235.54C1317.79,-224.47 1357.23,-206.01 1384.57,-193.21"/>
<polygon fill="#63b8ff" stroke="#63b8ff" points="1385.82,-196.49 1393.39,-189.08 1382.85,-190.15 1385.82,-196.49"/>
</a>
</g>
</g>
<!-- Node24 -->
<g id="Node000024" class="node">
<title>Node24</title>
<g id="a_Node000024"><a xlink:title=" ">
<polygon fill="#e0e0e0" stroke="#999999" points="1141.8,-188 1086.05,-188 1086.05,-168 1141.8,-168 1141.8,-188"/>
<text xml:space="preserve" text-anchor="middle" x="1113.93" y="-174.5" font-family="Helvetica,sans-Serif" font-size="10.00">algorithm</text>
</a>
</g>
</g>
<!-- Node23&#45;&gt;Node24 -->
<g id="edge39_Node000023_Node000024" class="edge">
<title>Node23&#45;&gt;Node24</title>
<g id="a_edge39_Node000023_Node000024"><a xlink:title=" ">
<path fill="none" stroke="#63b8ff" d="M1251,-235.54C1223.79,-224.32 1178.21,-205.52 1147.14,-192.7"/>
<polygon fill="#63b8ff" stroke="#63b8ff" points="1148.78,-189.59 1138.21,-189.02 1146.12,-196.06 1148.78,-189.59"/>
</a>
</g>
</g>
<!-- Node25 -->
<g id="Node000025" class="node">
<title>Node25</title>
<g id="a_Node000025"><a xlink:href="Clock_8hpp.html" target="_top" xlink:title=" ">
<polygon fill="white" stroke="#666666" points="1604.05,-132 1543.8,-132 1543.8,-112 1604.05,-112 1604.05,-132"/>
<text xml:space="preserve" text-anchor="middle" x="1573.93" y="-118.5" font-family="Helvetica,sans-Serif" font-size="10.00">Clock.hpp</text>
</a>
</g>
</g>
<!-- Node23&#45;&gt;Node25 -->
<g id="edge43_Node000023_Node000025" class="edge">
<title>Node23&#45;&gt;Node25</title>
<g id="a_edge43_Node000023_Node000025"><a xlink:title=" ">
<path fill="none" stroke="#63b8ff" d="M1283.76,-235.6C1301.36,-219.29 1340.09,-185.8 1378.93,-168 1428.94,-145.07 1491.7,-133.29 1532.3,-127.64"/>
<polygon fill="#63b8ff" stroke="#63b8ff" points="1532.68,-131.12 1542.14,-126.34 1531.76,-124.18 1532.68,-131.12"/>
</a>
</g>
</g>
<!-- Node26 -->
<g id="Node000026" class="node">
<title>Node26</title>
<g id="a_Node000026"><a xlink:href="ComponentRegistry_8hpp.html" target="_top" xlink:title=" ">
<polygon fill="white" stroke="#666666" points="1129.43,-132 1008.43,-132 1008.43,-112 1129.43,-112 1129.43,-132"/>
<text xml:space="preserve" text-anchor="middle" x="1068.93" y="-118.5" font-family="Helvetica,sans-Serif" font-size="10.00">ComponentRegistry.hpp</text>
</a>
</g>
</g>
<!-- Node23&#45;&gt;Node26 -->
<g id="edge45_Node000023_Node000026" class="edge">
<title>Node23&#45;&gt;Node26</title>
<g id="a_edge45_Node000023_Node000026"><a xlink:title=" ">
<path fill="none" stroke="#63b8ff" d="M1265.02,-235.55C1249.72,-219.75 1216.9,-187.78 1183.93,-168 1161.51,-154.55 1134.37,-143.71 1112.08,-136.04"/>
<polygon fill="#63b8ff" stroke="#63b8ff" points="1113.28,-132.75 1102.68,-132.9 1111.06,-139.39 1113.28,-132.75"/>
</a>
</g>
</g>
<!-- Node29 -->
<g id="Node000029" class="node">
<title>Node29</title>
<g id="a_Node000029"><a xlink:href="EntityManager_8hpp.html" target="_top" xlink:title=" ">
<polygon fill="white" stroke="#666666" points="1321.8,-132 1224.05,-132 1224.05,-112 1321.8,-112 1321.8,-132"/>
<text xml:space="preserve" text-anchor="middle" x="1272.93" y="-118.5" font-family="Helvetica,sans-Serif" font-size="10.00">EntityManager.hpp</text>
</a>
</g>
</g>
<!-- Node23&#45;&gt;Node29 -->
<g id="edge51_Node000023_Node000029" class="edge">
<title>Node23&#45;&gt;Node29</title>
<g id="a_edge51_Node000023_Node000029"><a xlink:title=" ">
<path fill="none" stroke="#63b8ff" d="M1272.91,-235.52C1271.48,-221 1269.11,-192.35 1269.93,-168 1270.19,-160.08 1270.71,-151.39 1271.25,-143.77"/>
<polygon fill="#63b8ff" stroke="#63b8ff" points="1274.74,-144.04 1272.01,-133.81 1267.76,-143.51 1274.74,-144.04"/>
</a>
</g>
</g>
<!-- Node30 -->
<g id="Node000030" class="node">
<title>Node30</title>
<g id="a_Node000030"><a xlink:href="SparseSet_8hpp.html" target="_top" xlink:title=" ">
<polygon fill="white" stroke="#666666" points="1420.18,-132 1339.68,-132 1339.68,-112 1420.18,-112 1420.18,-132"/>
<text xml:space="preserve" text-anchor="middle" x="1379.93" y="-118.5" font-family="Helvetica,sans-Serif" font-size="10.00">SparseSet.hpp</text>
</a>
</g>
</g>
<!-- Node23&#45;&gt;Node30 -->
<g id="edge54_Node000023_Node000030" class="edge">
<title>Node23&#45;&gt;Node30</title>
<g id="a_edge54_Node000023_Node000030"><a xlink:title=" ">
<path fill="none" stroke="#63b8ff" d="M1276.04,-235.98C1280.03,-220.56 1289.93,-188.76 1307.93,-168 1318.85,-155.39 1334.18,-145.14 1347.89,-137.62"/>
<polygon fill="#63b8ff" stroke="#63b8ff" points="1349.34,-140.81 1356.62,-133.11 1346.13,-134.59 1349.34,-140.81"/>
</a>
</g>
</g>
<!-- Node23&#45;&gt;Node31 -->
<g id="edge56_Node000023_Node000031" class="edge">
<title>Node23&#45;&gt;Node31</title>
<g id="a_edge56_Node000023_Node000031"><a xlink:title=" ">
<path fill="none" stroke="#63b8ff" d="M1243.22,-235.54C1230.5,-231.75 1215.55,-227.47 1201.93,-224 1147.13,-210.04 1083.45,-196.54 1041.57,-188.03"/>
<polygon fill="#63b8ff" stroke="#63b8ff" points="1042.34,-184.62 1031.84,-186.07 1040.95,-191.48 1042.34,-184.62"/>
</a>
</g>
</g>
<!-- Node25&#45;&gt;Node3 -->
<g id="edge44_Node000025_Node000003" class="edge">
<title>Node25&#45;&gt;Node3</title>
<g id="a_edge44_Node000025_Node000003"><a xlink:title=" ">
<path fill="none" stroke="#63b8ff" d="M1558.24,-111.62C1526.33,-92.54 1453.62,-49.08 1415.04,-26.02"/>
<polygon fill="#63b8ff" stroke="#63b8ff" points="1417.25,-23.26 1406.87,-21.13 1413.66,-29.27 1417.25,-23.26"/>
</a>
</g>
</g>
<!-- Node26&#45;&gt;Node4 -->
<g id="edge49_Node000026_Node000004" class="edge">
<title>Node26&#45;&gt;Node4</title>
<g id="a_edge49_Node000026_Node000004"><a xlink:title=" ">
<path fill="none" stroke="#63b8ff" d="M1120.82,-111.53C1181.74,-100.42 1280.91,-82.33 1332.08,-72.99"/>
<polygon fill="#63b8ff" stroke="#63b8ff" points="1332.43,-76.49 1341.63,-71.25 1331.17,-69.6 1332.43,-76.49"/>
</a>
</g>
</g>
<!-- Node26&#45;&gt;Node8 -->
<g id="edge46_Node000026_Node000008" class="edge">
<title>Node26&#45;&gt;Node8</title>
<g id="a_edge46_Node000026_Node000008"><a xlink:title=" ">
<path fill="none" stroke="#63b8ff" d="M1027.72,-111.53C981.38,-100.88 907.13,-83.82 865.27,-74.2"/>
<polygon fill="#63b8ff" stroke="#63b8ff" points="866.13,-70.81 855.6,-71.98 864.56,-77.63 866.13,-70.81"/>
</a>
</g>
</g>
<!-- Node26&#45;&gt;Node9 -->
<g id="edge50_Node000026_Node000009" class="edge">
<title>Node26&#45;&gt;Node9</title>
<g id="a_edge50_Node000026_Node000009"><a xlink:title=" ">
<path fill="none" stroke="#63b8ff" d="M1048.89,-111.59C1031.11,-103.24 1004.86,-90.92 984.46,-81.34"/>
<polygon fill="#63b8ff" stroke="#63b8ff" points="986.02,-78.21 975.48,-77.12 983.05,-84.54 986.02,-78.21"/>
</a>
</g>
</g>
<!-- Node27 -->
<g id="Node000027" class="node">
<title>Node27</title>
<g id="a_Node000027"><a xlink:title=" ">
<polygon fill="#e0e0e0" stroke="#999999" points="1084.93,-76 1026.93,-76 1026.93,-56 1084.93,-56 1084.93,-76"/>
<text xml:space="preserve" text-anchor="middle" x="1055.93" y="-62.5" font-family="Helvetica,sans-Serif" font-size="10.00">typeindex</text>
</a>
</g>
</g>
<!-- Node26&#45;&gt;Node27 -->
<g id="edge47_Node000026_Node000027" class="edge">
<title>Node26&#45;&gt;Node27</title>
<g id="a_edge47_Node000026_Node000027"><a xlink:title=" ">
<path fill="none" stroke="#63b8ff" d="M1066.66,-111.59C1065.06,-104.93 1062.85,-95.75 1060.85,-87.44"/>
<polygon fill="#63b8ff" stroke="#63b8ff" points="1064.26,-86.67 1058.52,-77.77 1057.46,-88.31 1064.26,-86.67"/>
</a>
</g>
</g>
<!-- Node28 -->
<g id="Node000028" class="node">
<title>Node28</title>
<g id="a_Node000028"><a xlink:title=" ">
<polygon fill="#e0e0e0" stroke="#999999" points="1185.3,-76 1102.55,-76 1102.55,-56 1185.3,-56 1185.3,-76"/>
<text xml:space="preserve" text-anchor="middle" x="1143.93" y="-62.5" font-family="Helvetica,sans-Serif" font-size="10.00">unordered_map</text>
</a>
</g>
</g>
<!-- Node26&#45;&gt;Node28 -->
<g id="edge48_Node000026_Node000028" class="edge">
<title>Node26&#45;&gt;Node28</title>
<g id="a_edge48_Node000026_Node000028"><a xlink:title=" ">
<path fill="none" stroke="#63b8ff" d="M1081.99,-111.59C1092.89,-103.74 1108.68,-92.38 1121.58,-83.09"/>
<polygon fill="#63b8ff" stroke="#63b8ff" points="1123.46,-86.05 1129.53,-77.36 1119.37,-80.37 1123.46,-86.05"/>
</a>
</g>
</g>
<!-- Node29&#45;&gt;Node3 -->
<g id="edge52_Node000029_Node000003" class="edge">
<title>Node29&#45;&gt;Node3</title>
<g id="a_edge52_Node000029_Node000003"><a xlink:title=" ">
<path fill="none" stroke="#63b8ff" d="M1281.01,-111.83C1292.54,-98.92 1314.56,-74.87 1334.93,-56 1345.73,-45.98 1358.43,-35.52 1368.9,-27.2"/>
<polygon fill="#63b8ff" stroke="#63b8ff" points="1370.87,-30.11 1376.58,-21.18 1366.55,-24.6 1370.87,-30.11"/>
</a>
</g>
</g>
<!-- Node29&#45;&gt;Node4 -->
<g id="edge53_Node000029_Node000004" class="edge">
<title>Node29&#45;&gt;Node4</title>
<g id="a_edge53_Node000029_Node000004"><a xlink:title=" ">
<path fill="none" stroke="#63b8ff" d="M1288.95,-111.59C1302.72,-103.51 1322.83,-91.71 1338.9,-82.27"/>
<polygon fill="#63b8ff" stroke="#63b8ff" points="1340.62,-85.33 1347.47,-77.25 1337.07,-79.29 1340.62,-85.33"/>
</a>
</g>
</g>
<!-- Node30&#45;&gt;Node4 -->
<g id="edge55_Node000030_Node000004" class="edge">
<title>Node30&#45;&gt;Node4</title>
<g id="a_edge55_Node000030_Node000004"><a xlink:title=" ">
<path fill="none" stroke="#63b8ff" d="M1377.31,-111.59C1375.44,-104.86 1372.85,-95.53 1370.52,-87.15"/>
<polygon fill="#63b8ff" stroke="#63b8ff" points="1373.96,-86.46 1367.91,-77.76 1367.22,-88.33 1373.96,-86.46"/>
</a>
</g>
</g>
<!-- Node31&#45;&gt;Node4 -->
<g id="edge58_Node000031_Node000004" class="edge">
<title>Node31&#45;&gt;Node4</title>
<g id="a_edge58_Node000031_Node000004"><a xlink:title=" ">
<path fill="none" stroke="#63b8ff" d="M1030.45,-167.51C1059.69,-159.14 1102.53,-146.12 1138.93,-132 1158.57,-124.38 1162.04,-118.99 1181.93,-112 1233.17,-93.98 1294.92,-80.4 1331.99,-73.09"/>
<polygon fill="#63b8ff" stroke="#63b8ff" points="1332.48,-76.56 1341.63,-71.22 1331.15,-69.69 1332.48,-76.56"/>
</a>
</g>
</g>
<!-- Node31&#45;&gt;Node8 -->
<g id="edge57_Node000031_Node000008" class="edge">
<title>Node31&#45;&gt;Node8</title>
<g id="a_edge57_Node000031_Node000008"><a xlink:title=" ">
<path fill="none" stroke="#63b8ff" d="M982.11,-167.62C954.26,-148.71 891.09,-105.82 856.91,-82.61"/>
<polygon fill="#63b8ff" stroke="#63b8ff" points="859.19,-79.93 848.95,-77.21 855.26,-85.72 859.19,-79.93"/>
</a>
</g>
</g>
<!-- Node31&#45;&gt;Node9 -->
<g id="edge60_Node000031_Node000009" class="edge">
<title>Node31&#45;&gt;Node9</title>
<g id="a_edge60_Node000031_Node000009"><a xlink:title=" ">
<path fill="none" stroke="#63b8ff" d="M988.02,-167.64C981.11,-158.96 971.36,-145.4 965.93,-132 960.11,-117.66 957.09,-100.38 955.54,-87.25"/>
<polygon fill="#63b8ff" stroke="#63b8ff" points="959.05,-87.27 954.6,-77.66 952.09,-87.95 959.05,-87.27"/>
</a>
</g>
</g>
<!-- Node31&#45;&gt;Node26 -->
<g id="edge59_Node000031_Node000026" class="edge">
<title>Node31&#45;&gt;Node26</title>
<g id="a_edge59_Node000031_Node000026"><a xlink:title=" ">
<path fill="none" stroke="#63b8ff" d="M1008.64,-167.59C1019.32,-159.7 1034.8,-148.24 1047.41,-138.92"/>
<polygon fill="#63b8ff" stroke="#63b8ff" points="1049.18,-141.96 1055.14,-133.2 1045.02,-136.33 1049.18,-141.96"/>
</a>
</g>
</g>
</g>
</svg>
