<?xml version="1.0" encoding="UTF-8" standalone="no"?>
<!DOCTYPE svg PUBLIC "-//W3C//DTD SVG 1.1//EN"
 "http://www.w3.org/Graphics/SVG/1.1/DTD/svg11.dtd">
<!-- Generated by graphviz version 14.0.2 (0)
 -->
<!-- Title: systems/motion/src/Motion.hpp Pages: 1 -->
<svg width="1312pt" height="332pt"
 viewBox="0.00 0.00 1312.00 332.00" xmlns="http://www.w3.org/2000/svg" xmlns:xlink="http://www.w3.org/1999/xlink">
<g id="graph0" class="graph" transform="scale(1 1) rotate(0) translate(4 328)">
<title>systems/motion/src/Motion.hpp</title>
<!-- Node1 -->
<g id="Node000001" class="node">
<title>Node1</title>
<g id="a_Node000001"><a xlink:title=" ">
<polygon fill="#999999" stroke="#666666" points="655.62,-324 553.38,-324 553.38,-292 655.62,-292 655.62,-324"/>
<text xml:space="preserve" text-anchor="start" x="561.38" y="-310.5" font-family="Helvetica,sans-Serif" font-size="10.00">systems/motion/src</text>
<text xml:space="preserve" text-anchor="middle" x="604.5" y="-298.5" font-family="Helvetica,sans-Serif" font-size="10.00">/Motion.hpp</text>
</a>
</g>
</g>
<!-- Node2 -->
<g id="Node000002" class="node">
<title>Node2</title>
<g id="a_Node000002"><a xlink:title=" ">
<polygon fill="#e0e0e0" stroke="#999999" points="833.38,-188 777.62,-188 777.62,-168 833.38,-168 833.38,-188"/>
<text xml:space="preserve" text-anchor="middle" x="805.5" y="-174.5" font-family="Helvetica,sans-Serif" font-size="10.00">algorithm</text>
</a>
</g>
</g>
<!-- Node1&#45;&gt;Node2 -->
<g id="edge1_Node000001_Node000002" class="edge">
<title>Node1&#45;&gt;Node2</title>
<g id="a_edge1_Node000001_Node000002"><a xlink:title=" ">
<path fill="none" stroke="#63b8ff" d="M655.92,-301.81C691.15,-295.88 737.02,-283.18 768.5,-256 785.66,-241.19 795.52,-216.62 800.67,-199.22"/>
<polygon fill="#63b8ff" stroke="#63b8ff" points="804,-200.32 803.19,-189.76 797.24,-198.52 804,-200.32"/>
</a>
</g>
</g>
<!-- Node3 -->
<g id="Node000003" class="node">
<title>Node3</title>
<g id="a_Node000003"><a xlink:href="Acceleration_8hpp.html" target="_top" xlink:title=" ">
<polygon fill="white" stroke="#666666" points="302.38,-256 138.62,-256 138.62,-224 302.38,-224 302.38,-256"/>
<text xml:space="preserve" text-anchor="start" x="146.62" y="-242.5" font-family="Helvetica,sans-Serif" font-size="10.00">../../../components</text>
<text xml:space="preserve" text-anchor="middle" x="220.5" y="-230.5" font-family="Helvetica,sans-Serif" font-size="10.00">/acceleration/src/Acceleration.hpp</text>
</a>
</g>
</g>
<!-- Node1&#45;&gt;Node3 -->
<g id="edge2_Node000001_Node000003" class="edge">
<title>Node1&#45;&gt;Node3</title>
<g id="a_edge2_Node000001_Node000003"><a xlink:title=" ">
<path fill="none" stroke="#63b8ff" d="M553.11,-298.17C492.04,-287.67 388.97,-269.96 313.72,-257.02"/>
<polygon fill="#63b8ff" stroke="#63b8ff" points="314.77,-253.65 304.32,-255.41 313.58,-260.55 314.77,-253.65"/>
</a>
</g>
</g>
<!-- Node10 -->
<g id="Node000010" class="node">
<title>Node10</title>
<g id="a_Node000010"><a xlink:href="Collider_8hpp.html" target="_top" xlink:title=" ">
<polygon fill="white" stroke="#666666" points="121,-256 0,-256 0,-224 121,-224 121,-256"/>
<text xml:space="preserve" text-anchor="start" x="8" y="-242.5" font-family="Helvetica,sans-Serif" font-size="10.00">../../../components</text>
<text xml:space="preserve" text-anchor="middle" x="60.5" y="-230.5" font-family="Helvetica,sans-Serif" font-size="10.00">/collider/src/Collider.hpp</text>
</a>
</g>
</g>
<!-- Node1&#45;&gt;Node10 -->
<g id="edge9_Node000001_Node000010" class="edge">
<title>Node1&#45;&gt;Node10</title>
<g id="a_edge9_Node000001_Node000010"><a xlink:title=" ">
<path fill="none" stroke="#63b8ff" d="M552.95,-303.28C467.45,-296.73 290.77,-281.49 132.28,-256.35"/>
<polygon fill="#63b8ff" stroke="#63b8ff" points="133.31,-252.98 122.88,-254.85 132.2,-259.89 133.31,-252.98"/>
</a>
</g>
</g>
<!-- Node13 -->
<g id="Node000013" class="node">
<title>Node13</title>
<g id="a_Node000013"><a xlink:href="Position_8hpp.html" target="_top" xlink:title=" ">
<polygon fill="white" stroke="#666666" points="589.62,-256 463.38,-256 463.38,-224 589.62,-224 589.62,-256"/>
<text xml:space="preserve" text-anchor="start" x="471.38" y="-242.5" font-family="Helvetica,sans-Serif" font-size="10.00">../../../components</text>
<text xml:space="preserve" text-anchor="middle" x="526.5" y="-230.5" font-family="Helvetica,sans-Serif" font-size="10.00">/position/src/Position.hpp</text>
</a>
</g>
</g>
<!-- Node1&#45;&gt;Node13 -->
<g id="edge14_Node000001_Node000013" class="edge">
<title>Node1&#45;&gt;Node13</title>
<g id="a_edge14_Node000001_Node000013"><a xlink:title=" ">
<path fill="none" stroke="#63b8ff" d="M586.41,-291.69C576.63,-283.42 564.37,-273.05 553.49,-263.84"/>
<polygon fill="#63b8ff" stroke="#63b8ff" points="555.81,-261.22 545.92,-257.43 551.29,-266.56 555.81,-261.22"/>
</a>
</g>
</g>
<!-- Node14 -->
<g id="Node000014" class="node">
<title>Node14</title>
<g id="a_Node000014"><a xlink:href="Renderable_8hpp.html" target="_top" xlink:title=" ">
<polygon fill="white" stroke="#666666" points="759.38,-256 607.62,-256 607.62,-224 759.38,-224 759.38,-256"/>
<text xml:space="preserve" text-anchor="start" x="615.62" y="-242.5" font-family="Helvetica,sans-Serif" font-size="10.00">../../../components</text>
<text xml:space="preserve" text-anchor="middle" x="683.5" y="-230.5" font-family="Helvetica,sans-Serif" font-size="10.00">/renderable/src/Renderable.hpp</text>
</a>
</g>
</g>
<!-- Node1&#45;&gt;Node14 -->
<g id="edge17_Node000001_Node000014" class="edge">
<title>Node1&#45;&gt;Node14</title>
<g id="a_edge17_Node000001_Node000014"><a xlink:title=" ">
<path fill="none" stroke="#63b8ff" d="M622.82,-291.69C632.82,-283.34 645.39,-272.84 656.49,-263.56"/>
<polygon fill="#63b8ff" stroke="#63b8ff" points="658.41,-266.52 663.84,-257.42 653.92,-261.15 658.41,-266.52"/>
</a>
</g>
</g>
<!-- Node19 -->
<g id="Node000019" class="node">
<title>Node19</title>
<g id="a_Node000019"><a xlink:href="Velocity_8hpp.html" target="_top" xlink:title=" ">
<polygon fill="white" stroke="#666666" points="444.88,-256 320.12,-256 320.12,-224 444.88,-224 444.88,-256"/>
<text xml:space="preserve" text-anchor="start" x="328.12" y="-242.5" font-family="Helvetica,sans-Serif" font-size="10.00">../../../components</text>
<text xml:space="preserve" text-anchor="middle" x="382.5" y="-230.5" font-family="Helvetica,sans-Serif" font-size="10.00">/velocity/src/Velocity.hpp</text>
</a>
</g>
</g>
<!-- Node1&#45;&gt;Node19 -->
<g id="edge24_Node000001_Node000019" class="edge">
<title>Node1&#45;&gt;Node19</title>
<g id="a_edge24_Node000001_Node000019"><a xlink:title=" ">
<path fill="none" stroke="#63b8ff" d="M553.01,-291.69C520.88,-282.14 479.3,-269.78 445.25,-259.66"/>
<polygon fill="#63b8ff" stroke="#63b8ff" points="446.51,-256.38 435.93,-256.88 444.52,-263.09 446.51,-256.38"/>
</a>
</g>
</g>
<!-- Node20 -->
<g id="Node000020" class="node">
<title>Node20</title>
<g id="a_Node000020"><a xlink:href="Registry_8hpp.html" target="_top" xlink:title=" ">
<polygon fill="white" stroke="#666666" points="1043.75,-250 927.25,-250 927.25,-230 1043.75,-230 1043.75,-250"/>
<text xml:space="preserve" text-anchor="middle" x="985.5" y="-236.5" font-family="Helvetica,sans-Serif" font-size="10.00">../../../ecs/Registry.hpp</text>
</a>
</g>
</g>
<!-- Node1&#45;&gt;Node20 -->
<g id="edge26_Node000001_Node000020" class="edge">
<title>Node1&#45;&gt;Node20</title>
<g id="a_edge26_Node000001_Node000020"><a xlink:title=" ">
<path fill="none" stroke="#63b8ff" d="M655.88,-298.1C724.18,-286.27 844.93,-265.35 919.78,-252.38"/>
<polygon fill="#63b8ff" stroke="#63b8ff" points="920.19,-255.87 929.44,-250.71 918.99,-248.97 920.19,-255.87"/>
</a>
</g>
</g>
<!-- Node27 -->
<g id="Node000027" class="node">
<title>Node27</title>
<g id="a_Node000027"><a xlink:href="System_8hpp.html" target="_top" xlink:title=" ">
<polygon fill="white" stroke="#666666" points="957.75,-188 889.25,-188 889.25,-168 957.75,-168 957.75,-188"/>
<text xml:space="preserve" text-anchor="middle" x="923.5" y="-174.5" font-family="Helvetica,sans-Serif" font-size="10.00">System.hpp</text>
</a>
</g>
</g>
<!-- Node1&#45;&gt;Node27 -->
<g id="edge50_Node000001_Node000027" class="edge">
<title>Node1&#45;&gt;Node27</title>
<g id="a_edge50_Node000001_Node000027"><a xlink:title=" ">
<path fill="none" stroke="#63b8ff" d="M655.88,-297.09C694.62,-288.68 748.56,-274.95 793.5,-256 833.44,-239.16 875.98,-211.98 901.12,-194.82"/>
<polygon fill="#63b8ff" stroke="#63b8ff" points="902.99,-197.78 909.23,-189.22 899.01,-192.03 902.99,-197.78"/>
</a>
</g>
</g>
<!-- Node4 -->
<g id="Node000004" class="node">
<title>Node4</title>
<g id="a_Node000004"><a xlink:href="Component_8hpp.html" target="_top" xlink:title=" ">
<polygon fill="white" stroke="#666666" points="408.88,-188 278.12,-188 278.12,-168 408.88,-168 408.88,-188"/>
<text xml:space="preserve" text-anchor="middle" x="343.5" y="-174.5" font-family="Helvetica,sans-Serif" font-size="10.00">../../../ecs/Component.hpp</text>
</a>
</g>
</g>
<!-- Node3&#45;&gt;Node4 -->
<g id="edge3_Node000003_Node000004" class="edge">
<title>Node3&#45;&gt;Node4</title>
<g id="a_edge3_Node000003_Node000004"><a xlink:title=" ">
<path fill="none" stroke="#63b8ff" d="M252.18,-223.55C271.22,-214.26 295.29,-202.52 313.94,-193.42"/>
<polygon fill="#63b8ff" stroke="#63b8ff" points="315.4,-196.6 322.85,-189.07 312.33,-190.31 315.4,-196.6"/>
</a>
</g>
</g>
<!-- Node5 -->
<g id="Node000005" class="node">
<title>Node5</title>
<g id="a_Node000005"><a xlink:title=" ">
<polygon fill="#e0e0e0" stroke="#999999" points="598.12,-132 546.88,-132 546.88,-112 598.12,-112 598.12,-132"/>
<text xml:space="preserve" text-anchor="middle" x="572.5" y="-118.5" font-family="Helvetica,sans-Serif" font-size="10.00">memory</text>
</a>
</g>
</g>
<!-- Node4&#45;&gt;Node5 -->
<g id="edge4_Node000004_Node000005" class="edge">
<title>Node4&#45;&gt;Node5</title>
<g id="a_edge4_Node000004_Node000005"><a xlink:title=" ">
<path fill="none" stroke="#63b8ff" d="M383.65,-167.53C426.56,-157.41 494.03,-141.5 535.63,-131.69"/>
<polygon fill="#63b8ff" stroke="#63b8ff" points="536.24,-135.15 545.17,-129.44 534.63,-128.33 536.24,-135.15"/>
</a>
</g>
</g>
<!-- Node6 -->
<g id="Node000006" class="node">
<title>Node6</title>
<g id="a_Node000006"><a xlink:title=" ">
<polygon fill="#e0e0e0" stroke="#999999" points="691.5,-76 651.5,-76 651.5,-56 691.5,-56 691.5,-76"/>
<text xml:space="preserve" text-anchor="middle" x="671.5" y="-62.5" font-family="Helvetica,sans-Serif" font-size="10.00">string</text>
</a>
</g>
</g>
<!-- Node4&#45;&gt;Node6 -->
<g id="edge5_Node000004_Node000006" class="edge">
<title>Node4&#45;&gt;Node6</title>
<g id="a_edge5_Node000004_Node000006"><a xlink:title=" ">
<path fill="none" stroke="#63b8ff" d="M350.51,-167.69C361.96,-153.21 386.16,-125.56 413.5,-112 488.57,-74.76 589.27,-67.82 639.79,-66.85"/>
<polygon fill="#63b8ff" stroke="#63b8ff" points="639.75,-70.35 649.71,-66.73 639.67,-63.35 639.75,-70.35"/>
</a>
</g>
</g>
<!-- Node7 -->
<g id="Node000007" class="node">
<title>Node7</title>
<g id="a_Node000007"><a xlink:href="Types_8hpp.html" target="_top" xlink:title="Core type definitions used throughout the ECS (Entity Component System).">
<polygon fill="white" stroke="#666666" points="775,-76 714,-76 714,-56 775,-56 775,-76"/>
<text xml:space="preserve" text-anchor="middle" x="744.5" y="-62.5" font-family="Helvetica,sans-Serif" font-size="10.00">Types.hpp</text>
</a>
</g>
</g>
<!-- Node4&#45;&gt;Node7 -->
<g id="edge6_Node000004_Node000007" class="edge">
<title>Node4&#45;&gt;Node7</title>
<g id="a_edge6_Node000004_Node000007"><a xlink:title=" ">
<path fill="none" stroke="#63b8ff" d="M368.65,-167.59C405.38,-154.07 476.03,-128.93 537.5,-112 553.26,-107.66 646.93,-87.65 702.72,-75.83"/>
<polygon fill="#63b8ff" stroke="#63b8ff" points="703.14,-79.32 712.2,-73.82 701.69,-72.47 703.14,-79.32"/>
</a>
</g>
</g>
<!-- Node8 -->
<g id="Node000008" class="node">
<title>Node8</title>
<g id="a_Node000008"><a xlink:title=" ">
<polygon fill="#e0e0e0" stroke="#999999" points="422.5,-20 382.5,-20 382.5,0 422.5,0 422.5,-20"/>
<text xml:space="preserve" text-anchor="middle" x="402.5" y="-6.5" font-family="Helvetica,sans-Serif" font-size="10.00">bitset</text>
</a>
</g>
</g>
<!-- Node7&#45;&gt;Node8 -->
<g id="edge7_Node000007_Node000008" class="edge">
<title>Node7&#45;&gt;Node8</title>
<g id="a_edge7_Node000007_Node000008"><a xlink:title=" ">
<path fill="none" stroke="#63b8ff" d="M713.77,-58.5C709.32,-57.62 704.8,-56.76 700.5,-56 603.75,-38.81 488.58,-22.63 434.08,-15.22"/>
<polygon fill="#63b8ff" stroke="#63b8ff" points="434.67,-11.77 424.29,-13.9 433.73,-18.71 434.67,-11.77"/>
</a>
</g>
</g>
<!-- Node9 -->
<g id="Node000009" class="node">
<title>Node9</title>
<g id="a_Node000009"><a xlink:title=" ">
<polygon fill="#e0e0e0" stroke="#999999" points="1199.12,-20 1153.88,-20 1153.88,0 1199.12,0 1199.12,-20"/>
<text xml:space="preserve" text-anchor="middle" x="1176.5" y="-6.5" font-family="Helvetica,sans-Serif" font-size="10.00">cstdint</text>
</a>
</g>
</g>
<!-- Node7&#45;&gt;Node9 -->
<g id="edge8_Node000007_Node000009" class="edge">
<title>Node7&#45;&gt;Node9</title>
<g id="a_edge8_Node000007_Node000009"><a xlink:title=" ">
<path fill="none" stroke="#63b8ff" d="M775.29,-58.77C780.68,-57.78 786.24,-56.81 791.5,-56 920.44,-36.15 1074.88,-20.56 1142.25,-14.16"/>
<polygon fill="#63b8ff" stroke="#63b8ff" points="1142.29,-17.67 1151.91,-13.25 1141.63,-10.7 1142.29,-17.67"/>
</a>
</g>
</g>
<!-- Node10&#45;&gt;Node4 -->
<g id="edge12_Node000010_Node000004" class="edge">
<title>Node10&#45;&gt;Node4</title>
<g id="a_edge12_Node000010_Node000004"><a xlink:title=" ">
<path fill="none" stroke="#63b8ff" d="M121.45,-225.73C124.17,-225.14 126.86,-224.56 129.5,-224 182.84,-212.59 243.7,-199.82 286.85,-190.8"/>
<polygon fill="#63b8ff" stroke="#63b8ff" points="287.42,-194.26 296.5,-188.79 285.99,-187.41 287.42,-194.26"/>
</a>
</g>
</g>
<!-- Node10&#45;&gt;Node8 -->
<g id="edge10_Node000010_Node000008" class="edge">
<title>Node10&#45;&gt;Node8</title>
<g id="a_edge10_Node000010_Node000008"><a xlink:title=" ">
<path fill="none" stroke="#63b8ff" d="M60.98,-223.76C62.23,-208.14 66.34,-183.94 79.5,-168 157.58,-73.38 306.44,-31.46 371.15,-17.13"/>
<polygon fill="#63b8ff" stroke="#63b8ff" points="371.69,-20.59 380.74,-15.09 370.23,-13.75 371.69,-20.59"/>
</a>
</g>
</g>
<!-- Node11 -->
<g id="Node000011" class="node">
<title>Node11</title>
<g id="a_Node000011"><a xlink:title=" ">
<polygon fill="#e0e0e0" stroke="#999999" points="134.12,-188 88.88,-188 88.88,-168 134.12,-168 134.12,-188"/>
<text xml:space="preserve" text-anchor="middle" x="111.5" y="-174.5" font-family="Helvetica,sans-Serif" font-size="10.00">variant</text>
</a>
</g>
</g>
<!-- Node10&#45;&gt;Node11 -->
<g id="edge11_Node000010_Node000011" class="edge">
<title>Node10&#45;&gt;Node11</title>
<g id="a_edge11_Node000010_Node000011"><a xlink:title=" ">
<path fill="none" stroke="#63b8ff" d="M73.63,-223.55C80.5,-215.48 88.93,-205.55 96.1,-197.12"/>
<polygon fill="#63b8ff" stroke="#63b8ff" points="98.71,-199.45 102.52,-189.56 93.38,-194.91 98.71,-199.45"/>
</a>
</g>
</g>
<!-- Node12 -->
<g id="Node000012" class="node">
<title>Node12</title>
<g id="a_Node000012"><a xlink:href="utils_8hpp.html" target="_top" xlink:title=" ">
<polygon fill="white" stroke="#666666" points="525.75,-188 427.25,-188 427.25,-168 525.75,-168 525.75,-188"/>
<text xml:space="preserve" text-anchor="middle" x="476.5" y="-174.5" font-family="Helvetica,sans-Serif" font-size="10.00">../../../ecs/utils.hpp</text>
</a>
</g>
</g>
<!-- Node10&#45;&gt;Node12 -->
<g id="edge13_Node000010_Node000012" class="edge">
<title>Node10&#45;&gt;Node12</title>
<g id="a_edge13_Node000010_Node000012"><a xlink:title=" ">
<path fill="none" stroke="#63b8ff" d="M121.4,-225.45C124.13,-224.94 126.84,-224.45 129.5,-224 253.18,-202.87 287.85,-205.56 415.91,-188.17"/>
<polygon fill="#63b8ff" stroke="#63b8ff" points="416.01,-191.69 425.44,-186.87 415.06,-184.76 416.01,-191.69"/>
</a>
</g>
</g>
<!-- Node13&#45;&gt;Node4 -->
<g id="edge15_Node000013_Node000004" class="edge">
<title>Node13&#45;&gt;Node4</title>
<g id="a_edge15_Node000013_Node000004"><a xlink:title=" ">
<path fill="none" stroke="#63b8ff" d="M479.37,-223.55C449.55,-213.77 411.43,-201.27 383.16,-192"/>
<polygon fill="#63b8ff" stroke="#63b8ff" points="384.49,-188.76 373.9,-188.97 382.31,-195.41 384.49,-188.76"/>
</a>
</g>
</g>
<!-- Node13&#45;&gt;Node12 -->
<g id="edge16_Node000013_Node000012" class="edge">
<title>Node13&#45;&gt;Node12</title>
<g id="a_edge16_Node000013_Node000012"><a xlink:title=" ">
<path fill="none" stroke="#63b8ff" d="M513.62,-223.55C506.9,-215.48 498.62,-205.55 491.6,-197.12"/>
<polygon fill="#63b8ff" stroke="#63b8ff" points="494.4,-195.01 485.31,-189.57 489.02,-199.49 494.4,-195.01"/>
</a>
</g>
</g>
<!-- Node14&#45;&gt;Node4 -->
<g id="edge22_Node000014_Node000004" class="edge">
<title>Node14&#45;&gt;Node4</title>
<g id="a_edge22_Node000014_Node000004"><a xlink:title=" ">
<path fill="none" stroke="#63b8ff" d="M607.2,-225.53C547.39,-214.98 465.09,-200.46 408.42,-190.46"/>
<polygon fill="#63b8ff" stroke="#63b8ff" points="409.03,-187.01 398.58,-188.72 407.82,-193.9 409.03,-187.01"/>
</a>
</g>
</g>
<!-- Node14&#45;&gt;Node12 -->
<g id="edge23_Node000014_Node000012" class="edge">
<title>Node14&#45;&gt;Node12</title>
<g id="a_edge23_Node000014_Node000012"><a xlink:title=" ">
<path fill="none" stroke="#63b8ff" d="M630.19,-223.55C596.01,-213.64 552.19,-200.94 520.09,-191.64"/>
<polygon fill="#63b8ff" stroke="#63b8ff" points="521.3,-188.34 510.72,-188.92 519.35,-195.06 521.3,-188.34"/>
</a>
</g>
</g>
<!-- Node15 -->
<g id="Node000015" class="node">
<title>Node15</title>
<g id="a_Node000015"><a xlink:title=" ">
<polygon fill="#e0e0e0" stroke="#999999" points="649.62,-188 601.38,-188 601.38,-168 649.62,-168 649.62,-188"/>
<text xml:space="preserve" text-anchor="middle" x="625.5" y="-174.5" font-family="Helvetica,sans-Serif" font-size="10.00">cstddef</text>
</a>
</g>
</g>
<!-- Node14&#45;&gt;Node15 -->
<g id="edge18_Node000014_Node000015" class="edge">
<title>Node14&#45;&gt;Node15</title>
<g id="a_edge18_Node000014_Node000015"><a xlink:title=" ">
<path fill="none" stroke="#63b8ff" d="M668.56,-223.55C660.59,-215.3 650.75,-205.12 642.49,-196.57"/>
<polygon fill="#63b8ff" stroke="#63b8ff" points="645.11,-194.25 635.65,-189.5 640.08,-199.12 645.11,-194.25"/>
</a>
</g>
</g>
<!-- Node16 -->
<g id="Node000016" class="node">
<title>Node16</title>
<g id="a_Node000016"><a xlink:title=" ">
<polygon fill="#e0e0e0" stroke="#999999" points="759.25,-188 705.75,-188 705.75,-168 759.25,-168 759.25,-188"/>
<text xml:space="preserve" text-anchor="middle" x="732.5" y="-174.5" font-family="Helvetica,sans-Serif" font-size="10.00">iostream</text>
</a>
</g>
</g>
<!-- Node14&#45;&gt;Node16 -->
<g id="edge19_Node000014_Node000016" class="edge">
<title>Node14&#45;&gt;Node16</title>
<g id="a_edge19_Node000014_Node000016"><a xlink:title=" ">
<path fill="none" stroke="#63b8ff" d="M696.12,-223.55C702.71,-215.48 710.82,-205.55 717.71,-197.12"/>
<polygon fill="#63b8ff" stroke="#63b8ff" points="720.24,-199.54 723.86,-189.58 714.82,-195.11 720.24,-199.54"/>
</a>
</g>
</g>
<!-- Node17 -->
<g id="Node000017" class="node">
<title>Node17</title>
<g id="a_Node000017"><a xlink:title=" ">
<polygon fill="#e0e0e0" stroke="#999999" points="583.12,-188 543.88,-188 543.88,-168 583.12,-168 583.12,-188"/>
<text xml:space="preserve" text-anchor="middle" x="563.5" y="-174.5" font-family="Helvetica,sans-Serif" font-size="10.00">utility</text>
</a>
</g>
</g>
<!-- Node14&#45;&gt;Node17 -->
<g id="edge20_Node000014_Node000017" class="edge">
<title>Node14&#45;&gt;Node17</title>
<g id="a_edge20_Node000014_Node000017"><a xlink:title=" ">
<path fill="none" stroke="#63b8ff" d="M652.6,-223.55C634.11,-214.3 610.75,-202.63 592.6,-193.55"/>
<polygon fill="#63b8ff" stroke="#63b8ff" points="594.18,-190.43 583.67,-189.08 591.05,-196.69 594.18,-190.43"/>
</a>
</g>
</g>
<!-- Node18 -->
<g id="Node000018" class="node">
<title>Node18</title>
<g id="a_Node000018"><a xlink:title=" ">
<polygon fill="#e0e0e0" stroke="#999999" points="1037,-76 994,-76 994,-56 1037,-56 1037,-76"/>
<text xml:space="preserve" text-anchor="middle" x="1015.5" y="-62.5" font-family="Helvetica,sans-Serif" font-size="10.00">vector</text>
</a>
</g>
</g>
<!-- Node14&#45;&gt;Node18 -->
<g id="edge21_Node000014_Node000018" class="edge">
<title>Node14&#45;&gt;Node18</title>
<g id="a_edge21_Node000014_Node000018"><a xlink:title=" ">
<path fill="none" stroke="#63b8ff" d="M681.67,-223.68C680.66,-207.52 681.89,-182.45 696.5,-168 763.84,-101.42 817.67,-164.8 906.5,-132 939,-120 972.71,-98.21 993.87,-83.19"/>
<polygon fill="#63b8ff" stroke="#63b8ff" points="995.92,-86.03 1001.97,-77.32 991.82,-80.36 995.92,-86.03"/>
</a>
</g>
</g>
<!-- Node19&#45;&gt;Node4 -->
<g id="edge25_Node000019_Node000004" class="edge">
<title>Node19&#45;&gt;Node4</title>
<g id="a_edge25_Node000019_Node000004"><a xlink:title=" ">
<path fill="none" stroke="#63b8ff" d="M372.46,-223.55C367.38,-215.74 361.17,-206.19 355.81,-197.94"/>
<polygon fill="#63b8ff" stroke="#63b8ff" points="358.82,-196.15 350.44,-189.68 352.96,-199.97 358.82,-196.15"/>
</a>
</g>
</g>
<!-- Node20&#45;&gt;Node2 -->
<g id="edge27_Node000020_Node000002" class="edge">
<title>Node20&#45;&gt;Node2</title>
<g id="a_edge27_Node000020_Node000002"><a xlink:title=" ">
<path fill="none" stroke="#63b8ff" d="M957.38,-229.62C926.95,-219.48 878.24,-203.25 844.21,-191.9"/>
<polygon fill="#63b8ff" stroke="#63b8ff" points="845.75,-188.73 835.16,-188.89 843.54,-195.37 845.75,-188.73"/>
</a>
</g>
</g>
<!-- Node20&#45;&gt;Node5 -->
<g id="edge29_Node000020_Node000005" class="edge">
<title>Node20&#45;&gt;Node5</title>
<g id="a_edge29_Node000020_Node000005"><a xlink:title=" ">
<path fill="none" stroke="#63b8ff" d="M965.67,-229.6C944.48,-219.51 909.98,-202.91 880.5,-188 863.47,-179.39 860.59,-174.09 842.5,-168 762.11,-140.93 662.56,-129.73 609.65,-125.43"/>
<polygon fill="#63b8ff" stroke="#63b8ff" points="610.22,-121.97 599.98,-124.69 609.68,-128.95 610.22,-121.97"/>
</a>
</g>
</g>
<!-- Node20&#45;&gt;Node7 -->
<g id="edge49_Node000020_Node000007" class="edge">
<title>Node20&#45;&gt;Node7</title>
<g id="a_edge49_Node000020_Node000007"><a xlink:title=" ">
<path fill="none" stroke="#63b8ff" d="M985.93,-229.58C986.08,-214.27 983.96,-184.08 966.5,-168 900.38,-107.12 835.96,-190.23 767.5,-132 754.52,-120.96 748.87,-102.11 746.4,-87.54"/>
<polygon fill="#63b8ff" stroke="#63b8ff" points="749.88,-87.13 745.14,-77.65 742.93,-88.01 749.88,-87.13"/>
</a>
</g>
</g>
<!-- Node20&#45;&gt;Node16 -->
<g id="edge28_Node000020_Node000016" class="edge">
<title>Node20&#45;&gt;Node16</title>
<g id="a_edge28_Node000020_Node000016"><a xlink:title=" ">
<path fill="none" stroke="#63b8ff" d="M944.66,-229.58C903.32,-220.01 837.24,-204.6 770.72,-188.51"/>
<polygon fill="#63b8ff" stroke="#63b8ff" points="771.63,-185.13 761.09,-186.18 769.98,-191.94 771.63,-185.13"/>
</a>
</g>
</g>
<!-- Node20&#45;&gt;Node18 -->
<g id="edge30_Node000020_Node000018" class="edge">
<title>Node20&#45;&gt;Node18</title>
<g id="a_edge30_Node000020_Node000018"><a xlink:title=" ">
<path fill="none" stroke="#63b8ff" d="M1002.41,-229.52C1017.39,-220.44 1039.06,-205.55 1053.5,-188 1071.05,-166.66 1074.35,-158.94 1080.5,-132 1082.48,-123.33 1084.63,-119.87 1080.5,-112 1073.36,-98.38 1060.02,-88.06 1047.27,-80.76"/>
<polygon fill="#63b8ff" stroke="#63b8ff" points="1049.13,-77.79 1038.65,-76.25 1045.89,-83.99 1049.13,-77.79"/>
</a>
</g>
</g>
<!-- Node21 -->
<g id="Node000021" class="node">
<title>Node21</title>
<g id="a_Node000021"><a xlink:href="Clock_8hpp.html" target="_top" xlink:title=" ">
<polygon fill="white" stroke="#666666" points="1303.62,-132 1243.38,-132 1243.38,-112 1303.62,-112 1303.62,-132"/>
<text xml:space="preserve" text-anchor="middle" x="1273.5" y="-118.5" font-family="Helvetica,sans-Serif" font-size="10.00">Clock.hpp</text>
</a>
</g>
</g>
<!-- Node20&#45;&gt;Node21 -->
<g id="edge31_Node000020_Node000021" class="edge">
<title>Node20&#45;&gt;Node21</title>
<g id="a_edge31_Node000020_Node000021"><a xlink:title=" ">
<path fill="none" stroke="#63b8ff" d="M1018.1,-229.57C1049.58,-220.15 1098.4,-204.69 1139.5,-188 1177.19,-172.7 1219.16,-151.65 1245.92,-137.71"/>
<polygon fill="#63b8ff" stroke="#63b8ff" points="1247.5,-140.83 1254.72,-133.08 1244.24,-134.63 1247.5,-140.83"/>
</a>
</g>
</g>
<!-- Node22 -->
<g id="Node000022" class="node">
<title>Node22</title>
<g id="a_Node000022"><a xlink:href="ComponentRegistry_8hpp.html" target="_top" xlink:title=" ">
<polygon fill="white" stroke="#666666" points="897,-132 776,-132 776,-112 897,-112 897,-132"/>
<text xml:space="preserve" text-anchor="middle" x="836.5" y="-118.5" font-family="Helvetica,sans-Serif" font-size="10.00">ComponentRegistry.hpp</text>
</a>
</g>
</g>
<!-- Node20&#45;&gt;Node22 -->
<g id="edge33_Node000020_Node000022" class="edge">
<title>Node20&#45;&gt;Node22</title>
<g id="a_edge33_Node000020_Node000022"><a xlink:title=" ">
<path fill="none" stroke="#63b8ff" d="M991.52,-229.68C1000.14,-215.02 1013.5,-186.39 999.5,-168 988.01,-152.91 946.57,-141.58 908.36,-134.07"/>
<polygon fill="#63b8ff" stroke="#63b8ff" points="909.13,-130.65 898.66,-132.24 907.83,-137.53 909.13,-130.65"/>
</a>
</g>
</g>
<!-- Node25 -->
<g id="Node000025" class="node">
<title>Node25</title>
<g id="a_Node000025"><a xlink:href="EntityManager_8hpp.html" target="_top" xlink:title=" ">
<polygon fill="white" stroke="#666666" points="1225.38,-132 1127.62,-132 1127.62,-112 1225.38,-112 1225.38,-132"/>
<text xml:space="preserve" text-anchor="middle" x="1176.5" y="-118.5" font-family="Helvetica,sans-Serif" font-size="10.00">EntityManager.hpp</text>
</a>
</g>
</g>
<!-- Node20&#45;&gt;Node25 -->
<g id="edge39_Node000020_Node000025" class="edge">
<title>Node20&#45;&gt;Node25</title>
<g id="a_edge39_Node000020_Node000025"><a xlink:title=" ">
<path fill="none" stroke="#63b8ff" d="M1020.29,-229.52C1047.19,-221.19 1084.58,-207.37 1113.5,-188 1132.81,-175.07 1150.83,-155.39 1162.61,-141.07"/>
<polygon fill="#63b8ff" stroke="#63b8ff" points="1165.27,-143.35 1168.77,-133.35 1159.8,-138.99 1165.27,-143.35"/>
</a>
</g>
</g>
<!-- Node26 -->
<g id="Node000026" class="node">
<title>Node26</title>
<g id="a_Node000026"><a xlink:href="SparseSet_8hpp.html" target="_top" xlink:title=" ">
<polygon fill="white" stroke="#666666" points="1071.75,-132 991.25,-132 991.25,-112 1071.75,-112 1071.75,-132"/>
<text xml:space="preserve" text-anchor="middle" x="1031.5" y="-118.5" font-family="Helvetica,sans-Serif" font-size="10.00">SparseSet.hpp</text>
</a>
</g>
</g>
<!-- Node20&#45;&gt;Node26 -->
<g id="edge42_Node000020_Node000026" class="edge">
<title>Node20&#45;&gt;Node26</title>
<g id="a_edge42_Node000020_Node000026"><a xlink:title=" ">
<path fill="none" stroke="#63b8ff" d="M1000.1,-229.71C1012.67,-220.76 1029.96,-205.95 1037.5,-188 1043.48,-173.76 1041.39,-156.26 1038.13,-143.01"/>
<polygon fill="#63b8ff" stroke="#63b8ff" points="1041.58,-142.33 1035.43,-133.7 1034.86,-144.28 1041.58,-142.33"/>
</a>
</g>
</g>
<!-- Node20&#45;&gt;Node27 -->
<g id="edge44_Node000020_Node000027" class="edge">
<title>Node20&#45;&gt;Node27</title>
<g id="a_edge44_Node000020_Node000027"><a xlink:title=" ">
<path fill="none" stroke="#63b8ff" d="M975.81,-229.62C966.57,-220.68 952.42,-206.99 941.17,-196.1"/>
<polygon fill="#63b8ff" stroke="#63b8ff" points="943.62,-193.6 934,-189.17 938.76,-198.63 943.62,-193.6"/>
</a>
</g>
</g>
<!-- Node21&#45;&gt;Node9 -->
<g id="edge32_Node000021_Node000009" class="edge">
<title>Node21&#45;&gt;Node9</title>
<g id="a_edge32_Node000021_Node000009"><a xlink:title=" ">
<path fill="none" stroke="#63b8ff" d="M1265.23,-111.62C1249.05,-93.27 1212.98,-52.37 1192.16,-28.75"/>
<polygon fill="#63b8ff" stroke="#63b8ff" points="1194.99,-26.68 1185.75,-21.49 1189.74,-31.31 1194.99,-26.68"/>
</a>
</g>
</g>
<!-- Node22&#45;&gt;Node6 -->
<g id="edge34_Node000022_Node000006" class="edge">
<title>Node22&#45;&gt;Node6</title>
<g id="a_edge34_Node000022_Node000006"><a xlink:title=" ">
<path fill="none" stroke="#63b8ff" d="M807.76,-111.59C778.29,-101.95 732.6,-87 702.37,-77.1"/>
<polygon fill="#63b8ff" stroke="#63b8ff" points="703.64,-73.84 693.05,-74.05 701.46,-80.49 703.64,-73.84"/>
</a>
</g>
</g>
<!-- Node22&#45;&gt;Node7 -->
<g id="edge38_Node000022_Node000007" class="edge">
<title>Node22&#45;&gt;Node7</title>
<g id="a_edge38_Node000022_Node000007"><a xlink:title=" ">
<path fill="none" stroke="#63b8ff" d="M820.47,-111.59C806.71,-103.51 786.6,-91.71 770.52,-82.27"/>
<polygon fill="#63b8ff" stroke="#63b8ff" points="772.35,-79.29 761.96,-77.25 768.81,-85.33 772.35,-79.29"/>
</a>
</g>
</g>
<!-- Node22&#45;&gt;Node18 -->
<g id="edge37_Node000022_Node000018" class="edge">
<title>Node22&#45;&gt;Node18</title>
<g id="a_edge37_Node000022_Node000018"><a xlink:title=" ">
<path fill="none" stroke="#63b8ff" d="M867.68,-111.59C899.94,-101.86 950.09,-86.73 982.87,-76.84"/>
<polygon fill="#63b8ff" stroke="#63b8ff" points="983.67,-80.26 992.24,-74.02 981.65,-73.56 983.67,-80.26"/>
</a>
</g>
</g>
<!-- Node23 -->
<g id="Node000023" class="node">
<title>Node23</title>
<g id="a_Node000023"><a xlink:title=" ">
<polygon fill="#e0e0e0" stroke="#999999" points="858.5,-76 800.5,-76 800.5,-56 858.5,-56 858.5,-76"/>
<text xml:space="preserve" text-anchor="middle" x="829.5" y="-62.5" font-family="Helvetica,sans-Serif" font-size="10.00">typeindex</text>
</a>
</g>
</g>
<!-- Node22&#45;&gt;Node23 -->
<g id="edge35_Node000022_Node000023" class="edge">
<title>Node22&#45;&gt;Node23</title>
<g id="a_edge35_Node000022_Node000023"><a xlink:title=" ">
<path fill="none" stroke="#63b8ff" d="M835.28,-111.59C834.42,-104.93 833.23,-95.75 832.15,-87.44"/>
<polygon fill="#63b8ff" stroke="#63b8ff" points="835.66,-87.27 830.9,-77.8 828.71,-88.17 835.66,-87.27"/>
</a>
</g>
</g>
<!-- Node24 -->
<g id="Node000024" class="node">
<title>Node24</title>
<g id="a_Node000024"><a xlink:title=" ">
<polygon fill="#e0e0e0" stroke="#999999" points="958.88,-76 876.12,-76 876.12,-56 958.88,-56 958.88,-76"/>
<text xml:space="preserve" text-anchor="middle" x="917.5" y="-62.5" font-family="Helvetica,sans-Serif" font-size="10.00">unordered_map</text>
</a>
</g>
</g>
<!-- Node22&#45;&gt;Node24 -->
<g id="edge36_Node000022_Node000024" class="edge">
<title>Node22&#45;&gt;Node24</title>
<g id="a_edge36_Node000022_Node000024"><a xlink:title=" ">
<path fill="none" stroke="#63b8ff" d="M850.61,-111.59C862.5,-103.67 879.77,-92.16 893.78,-82.82"/>
<polygon fill="#63b8ff" stroke="#63b8ff" points="895.64,-85.78 902.02,-77.32 891.76,-79.95 895.64,-85.78"/>
</a>
</g>
</g>
<!-- Node25&#45;&gt;Node9 -->
<g id="edge40_Node000025_Node000009" class="edge">
<title>Node25&#45;&gt;Node9</title>
<g id="a_edge40_Node000025_Node000009"><a xlink:title=" ">
<path fill="none" stroke="#63b8ff" d="M1176.5,-111.62C1176.5,-94.01 1176.5,-55.59 1176.5,-31.65"/>
<polygon fill="#63b8ff" stroke="#63b8ff" points="1180,-31.87 1176.5,-21.87 1173,-31.87 1180,-31.87"/>
</a>
</g>
</g>
<!-- Node25&#45;&gt;Node18 -->
<g id="edge41_Node000025_Node000018" class="edge">
<title>Node25&#45;&gt;Node18</title>
<g id="a_edge41_Node000025_Node000018"><a xlink:title=" ">
<path fill="none" stroke="#63b8ff" d="M1148.46,-111.59C1120.34,-102.16 1077.09,-87.66 1047.61,-77.77"/>
<polygon fill="#63b8ff" stroke="#63b8ff" points="1049.08,-74.57 1038.48,-74.71 1046.85,-81.21 1049.08,-74.57"/>
</a>
</g>
</g>
<!-- Node26&#45;&gt;Node18 -->
<g id="edge43_Node000026_Node000018" class="edge">
<title>Node26&#45;&gt;Node18</title>
<g id="a_edge43_Node000026_Node000018"><a xlink:title=" ">
<path fill="none" stroke="#63b8ff" d="M1028.71,-111.59C1026.72,-104.86 1023.95,-95.53 1021.47,-87.15"/>
<polygon fill="#63b8ff" stroke="#63b8ff" points="1024.88,-86.34 1018.69,-77.75 1018.17,-88.33 1024.88,-86.34"/>
</a>
</g>
</g>
<!-- Node27&#45;&gt;Node6 -->
<g id="edge45_Node000027_Node000006" class="edge">
<title>Node27&#45;&gt;Node6</title>
<g id="a_edge45_Node000027_Node000006"><a xlink:title=" ">
<path fill="none" stroke="#63b8ff" d="M889.1,-170.55C835.69,-160.34 737.46,-140.73 723.5,-132 705.36,-120.66 690.81,-100.69 681.76,-85.87"/>
<polygon fill="#63b8ff" stroke="#63b8ff" points="684.96,-84.41 676.93,-77.5 678.9,-87.91 684.96,-84.41"/>
</a>
</g>
</g>
<!-- Node27&#45;&gt;Node7 -->
<g id="edge48_Node000027_Node000007" class="edge">
<title>Node27&#45;&gt;Node7</title>
<g id="a_edge48_Node000027_Node000007"><a xlink:title=" ">
<path fill="none" stroke="#63b8ff" d="M888.88,-169.95C835.42,-158.91 738.36,-138.15 733.5,-132 723.3,-119.11 728.01,-100.23 734.11,-86.13"/>
<polygon fill="#63b8ff" stroke="#63b8ff" points="737.12,-87.94 738.37,-77.42 730.83,-84.86 737.12,-87.94"/>
</a>
</g>
</g>
<!-- Node27&#45;&gt;Node18 -->
<g id="edge46_Node000027_Node000018" class="edge">
<title>Node27&#45;&gt;Node18</title>
<g id="a_edge46_Node000027_Node000018"><a xlink:title=" ">
<path fill="none" stroke="#63b8ff" d="M931.34,-167.62C946.62,-149.36 980.6,-108.73 1000.39,-85.07"/>
<polygon fill="#63b8ff" stroke="#63b8ff" points="1002.97,-87.43 1006.7,-77.52 997.6,-82.94 1002.97,-87.43"/>
</a>
</g>
</g>
<!-- Node27&#45;&gt;Node22 -->
<g id="edge47_Node000027_Node000022" class="edge">
<title>Node27&#45;&gt;Node22</title>
<g id="a_edge47_Node000027_Node000022"><a xlink:title=" ">
<path fill="none" stroke="#63b8ff" d="M908.35,-167.59C895.45,-159.59 876.67,-147.93 861.54,-138.54"/>
<polygon fill="#63b8ff" stroke="#63b8ff" points="863.4,-135.58 853.06,-133.28 859.71,-141.53 863.4,-135.58"/>
</a>
</g>
</g>
</g>
</svg>
