<?xml version="1.0" encoding="UTF-8" standalone="no"?>
<!DOCTYPE svg PUBLIC "-//W3C//DTD SVG 1.1//EN"
 "http://www.w3.org/Graphics/SVG/1.1/DTD/svg11.dtd">
<!-- Generated by graphviz version 14.0.1 (0)
 -->
<!-- Title: systems/motion/src/Motion.hpp Pages: 1 -->
<svg width="1166pt" height="332pt"
 viewBox="0.00 0.00 1166.00 332.00" xmlns="http://www.w3.org/2000/svg" xmlns:xlink="http://www.w3.org/1999/xlink">
<g id="graph0" class="graph" transform="scale(1 1) rotate(0) translate(4 328)">
<title>systems/motion/src/Motion.hpp</title>
<!-- Node1 -->
<g id="Node000001" class="node">
<title>Node1</title>
<g id="a_Node000001"><a xlink:title=" ">
<polygon fill="#999999" stroke="#666666" points="664.12,-324 561.88,-324 561.88,-292 664.12,-292 664.12,-324"/>
<text xml:space="preserve" text-anchor="start" x="569.88" y="-310.5" font-family="Helvetica,sans-Serif" font-size="10.00">systems/motion/src</text>
<text xml:space="preserve" text-anchor="middle" x="613" y="-298.5" font-family="Helvetica,sans-Serif" font-size="10.00">/Motion.hpp</text>
</a>
</g>
</g>
<!-- Node2 -->
<g id="Node000002" class="node">
<title>Node2</title>
<g id="a_Node000002"><a xlink:href="Registry_8hpp.html" target="_top" xlink:title=" ">
<polygon fill="white" stroke="#666666" points="463.25,-250 346.75,-250 346.75,-230 463.25,-230 463.25,-250"/>
<text xml:space="preserve" text-anchor="middle" x="405" y="-236.5" font-family="Helvetica,sans-Serif" font-size="10.00">../../../ecs/Registry.hpp</text>
</a>
</g>
</g>
<!-- Node1&#45;&gt;Node2 -->
<g id="edge1_Node000001_Node000002" class="edge">
<title>Node1&#45;&gt;Node2</title>
<g id="a_edge1_Node000001_Node000002"><a xlink:title=" ">
<path fill="none" stroke="#63b8ff" d="M564.23,-291.53C528.2,-280.09 479.71,-264.71 445.74,-253.93"/>
<polygon fill="#63b8ff" stroke="#63b8ff" points="446.85,-250.61 436.26,-250.92 444.73,-257.28 446.85,-250.61"/>
</a>
</g>
</g>
<!-- Node10 -->
<g id="Node000010" class="node">
<title>Node10</title>
<g id="a_Node000010"><a xlink:href="System_8hpp.html" target="_top" xlink:title=" ">
<polygon fill="white" stroke="#666666" points="87.25,-188 18.75,-188 18.75,-168 87.25,-168 87.25,-188"/>
<text xml:space="preserve" text-anchor="middle" x="53" y="-174.5" font-family="Helvetica,sans-Serif" font-size="10.00">System.hpp</text>
</a>
</g>
</g>
<!-- Node1&#45;&gt;Node10 -->
<g id="edge26_Node000001_Node000010" class="edge">
<title>Node1&#45;&gt;Node10</title>
<g id="a_edge26_Node000001_Node000010"><a xlink:title=" ">
<path fill="none" stroke="#63b8ff" d="M561.56,-298.73C506.12,-289.53 415.41,-273.61 338,-256 251.03,-236.22 150.61,-207.75 95.21,-191.55"/>
<polygon fill="#63b8ff" stroke="#63b8ff" points="96.46,-188.27 85.87,-188.81 94.48,-194.98 96.46,-188.27"/>
</a>
</g>
</g>
<!-- Node14 -->
<g id="Node000014" class="node">
<title>Node14</title>
<g id="a_Node000014"><a xlink:title=" ">
<polygon fill="#e0e0e0" stroke="#999999" points="564.88,-188 509.12,-188 509.12,-168 564.88,-168 564.88,-188"/>
<text xml:space="preserve" text-anchor="middle" x="537" y="-174.5" font-family="Helvetica,sans-Serif" font-size="10.00">algorithm</text>
</a>
</g>
</g>
<!-- Node1&#45;&gt;Node14 -->
<g id="edge35_Node000001_Node000014" class="edge">
<title>Node1&#45;&gt;Node14</title>
<g id="a_edge35_Node000001_Node000014"><a xlink:title=" ">
<path fill="none" stroke="#63b8ff" d="M569.36,-291.57C553.41,-283.56 537.07,-272.02 528,-256 518.07,-238.47 522.83,-215.12 528.5,-198.74"/>
<polygon fill="#63b8ff" stroke="#63b8ff" points="531.67,-200.24 532.03,-189.65 525.15,-197.7 531.67,-200.24"/>
</a>
</g>
</g>
<!-- Node17 -->
<g id="Node000017" class="node">
<title>Node17</title>
<g id="a_Node000017"><a xlink:href="Position_8hpp.html" target="_top" xlink:title=" ">
<polygon fill="white" stroke="#666666" points="833.12,-256 706.88,-256 706.88,-224 833.12,-224 833.12,-256"/>
<text xml:space="preserve" text-anchor="start" x="714.88" y="-242.5" font-family="Helvetica,sans-Serif" font-size="10.00">../../../components</text>
<text xml:space="preserve" text-anchor="middle" x="770" y="-230.5" font-family="Helvetica,sans-Serif" font-size="10.00">/position/src/Position.hpp</text>
</a>
</g>
</g>
<!-- Node1&#45;&gt;Node17 -->
<g id="edge27_Node000001_Node000017" class="edge">
<title>Node1&#45;&gt;Node17</title>
<g id="a_edge27_Node000001_Node000017"><a xlink:title=" ">
<path fill="none" stroke="#63b8ff" d="M649.81,-291.53C671.58,-282.37 699.38,-270.69 722.76,-260.86"/>
<polygon fill="#63b8ff" stroke="#63b8ff" points="723.89,-264.18 731.75,-257.08 721.18,-257.73 723.89,-264.18"/>
</a>
</g>
</g>
<!-- Node19 -->
<g id="Node000019" class="node">
<title>Node19</title>
<g id="a_Node000019"><a xlink:href="Velocity_8hpp.html" target="_top" xlink:title=" ">
<polygon fill="white" stroke="#666666" points="976.38,-256 851.62,-256 851.62,-224 976.38,-224 976.38,-256"/>
<text xml:space="preserve" text-anchor="start" x="859.62" y="-242.5" font-family="Helvetica,sans-Serif" font-size="10.00">../../../components</text>
<text xml:space="preserve" text-anchor="middle" x="914" y="-230.5" font-family="Helvetica,sans-Serif" font-size="10.00">/velocity/src/Velocity.hpp</text>
</a>
</g>
</g>
<!-- Node1&#45;&gt;Node19 -->
<g id="edge29_Node000001_Node000019" class="edge">
<title>Node1&#45;&gt;Node19</title>
<g id="a_edge29_Node000001_Node000019"><a xlink:title=" ">
<path fill="none" stroke="#63b8ff" d="M664.4,-295.73C712.78,-285.12 785.76,-269.12 840.33,-257.15"/>
<polygon fill="#63b8ff" stroke="#63b8ff" points="840.84,-260.63 849.85,-255.07 839.34,-253.79 840.84,-260.63"/>
</a>
</g>
</g>
<!-- Node20 -->
<g id="Node000020" class="node">
<title>Node20</title>
<g id="a_Node000020"><a xlink:href="Acceleration_8hpp.html" target="_top" xlink:title=" ">
<polygon fill="white" stroke="#666666" points="1157.88,-256 994.12,-256 994.12,-224 1157.88,-224 1157.88,-256"/>
<text xml:space="preserve" text-anchor="start" x="1002.12" y="-242.5" font-family="Helvetica,sans-Serif" font-size="10.00">../../../components</text>
<text xml:space="preserve" text-anchor="middle" x="1076" y="-230.5" font-family="Helvetica,sans-Serif" font-size="10.00">/acceleration/src/Acceleration.hpp</text>
</a>
</g>
</g>
<!-- Node1&#45;&gt;Node20 -->
<g id="edge30_Node000001_Node000020" class="edge">
<title>Node1&#45;&gt;Node20</title>
<g id="a_edge30_Node000001_Node000020"><a xlink:title=" ">
<path fill="none" stroke="#63b8ff" d="M664.51,-300.39C734.2,-291.34 862.67,-274.32 982.48,-256.36"/>
<polygon fill="#63b8ff" stroke="#63b8ff" points="982.81,-259.85 992.18,-254.9 981.77,-252.92 982.81,-259.85"/>
</a>
</g>
</g>
<!-- Node21 -->
<g id="Node000021" class="node">
<title>Node21</title>
<g id="a_Node000021"><a xlink:href="Renderable_8hpp.html" target="_top" xlink:title=" ">
<polygon fill="white" stroke="#666666" points="688.88,-256 537.12,-256 537.12,-224 688.88,-224 688.88,-256"/>
<text xml:space="preserve" text-anchor="start" x="545.12" y="-242.5" font-family="Helvetica,sans-Serif" font-size="10.00">../../../components</text>
<text xml:space="preserve" text-anchor="middle" x="613" y="-230.5" font-family="Helvetica,sans-Serif" font-size="10.00">/renderable/src/Renderable.hpp</text>
</a>
</g>
</g>
<!-- Node1&#45;&gt;Node21 -->
<g id="edge31_Node000001_Node000021" class="edge">
<title>Node1&#45;&gt;Node21</title>
<g id="a_edge31_Node000001_Node000021"><a xlink:title=" ">
<path fill="none" stroke="#63b8ff" d="M613,-291.69C613,-284.53 613,-275.79 613,-267.59"/>
<polygon fill="#63b8ff" stroke="#63b8ff" points="616.5,-267.74 613,-257.74 609.5,-267.74 616.5,-267.74"/>
</a>
</g>
</g>
<!-- Node3 -->
<g id="Node000003" class="node">
<title>Node3</title>
<g id="a_Node000003"><a xlink:href="Types_8hpp.html" target="_top" xlink:title="Core type definitions used throughout the ECS (Entity Component System).">
<polygon fill="white" stroke="#666666" points="128.5,-76 67.5,-76 67.5,-56 128.5,-56 128.5,-76"/>
<text xml:space="preserve" text-anchor="middle" x="98" y="-62.5" font-family="Helvetica,sans-Serif" font-size="10.00">Types.hpp</text>
</a>
</g>
</g>
<!-- Node2&#45;&gt;Node3 -->
<g id="edge2_Node000002_Node000003" class="edge">
<title>Node2&#45;&gt;Node3</title>
<g id="a_edge2_Node000002_Node000003"><a xlink:title=" ">
<path fill="none" stroke="#63b8ff" d="M363.3,-229.54C289.91,-212.01 142.36,-172.57 110,-132 100.03,-119.5 97.36,-101.35 96.99,-87.4"/>
<polygon fill="#63b8ff" stroke="#63b8ff" points="100.49,-87.63 97.14,-77.57 93.49,-87.52 100.49,-87.63"/>
</a>
</g>
</g>
<!-- Node6 -->
<g id="Node000006" class="node">
<title>Node6</title>
<g id="a_Node000006"><a xlink:href="ComponentRegistry_8hpp.html" target="_top" xlink:title=" ">
<polygon fill="white" stroke="#666666" points="240.5,-132 119.5,-132 119.5,-112 240.5,-112 240.5,-132"/>
<text xml:space="preserve" text-anchor="middle" x="180" y="-118.5" font-family="Helvetica,sans-Serif" font-size="10.00">ComponentRegistry.hpp</text>
</a>
</g>
</g>
<!-- Node2&#45;&gt;Node6 -->
<g id="edge5_Node000002_Node000006" class="edge">
<title>Node2&#45;&gt;Node6</title>
<g id="a_edge5_Node000002_Node000006"><a xlink:title=" ">
<path fill="none" stroke="#63b8ff" d="M394.63,-229.52C377.91,-214.66 343.47,-185.75 310,-168 283.99,-154.21 252.89,-143.27 227.63,-135.63"/>
<polygon fill="#63b8ff" stroke="#63b8ff" points="228.87,-132.34 218.29,-132.88 226.9,-139.06 228.87,-132.34"/>
</a>
</g>
</g>
<!-- Node7 -->
<g id="Node000007" class="node">
<title>Node7</title>
<g id="a_Node000007"><a xlink:title=" ">
<polygon fill="#e0e0e0" stroke="#999999" points="358.5,-76 315.5,-76 315.5,-56 358.5,-56 358.5,-76"/>
<text xml:space="preserve" text-anchor="middle" x="337" y="-62.5" font-family="Helvetica,sans-Serif" font-size="10.00">vector</text>
</a>
</g>
</g>
<!-- Node2&#45;&gt;Node7 -->
<g id="edge20_Node000002_Node000007" class="edge">
<title>Node2&#45;&gt;Node7</title>
<g id="a_edge20_Node000002_Node000007"><a xlink:title=" ">
<path fill="none" stroke="#63b8ff" d="M405.64,-229.74C406.74,-207.85 407.12,-151.77 386,-112 379.99,-100.68 369.98,-90.71 360.56,-83.06"/>
<polygon fill="#63b8ff" stroke="#63b8ff" points="362.81,-80.37 352.73,-77.12 358.59,-85.95 362.81,-80.37"/>
</a>
</g>
</g>
<!-- Node2&#45;&gt;Node10 -->
<g id="edge10_Node000002_Node000010" class="edge">
<title>Node2&#45;&gt;Node10</title>
<g id="a_edge10_Node000002_Node000010"><a xlink:title=" ">
<path fill="none" stroke="#63b8ff" d="M346.38,-229.51C285.12,-219.51 186.23,-203.14 101,-188 100.19,-187.86 99.36,-187.71 98.54,-187.56"/>
<polygon fill="#63b8ff" stroke="#63b8ff" points="99.55,-184.19 89.08,-185.84 98.29,-191.07 99.55,-184.19"/>
</a>
</g>
</g>
<!-- Node11 -->
<g id="Node000011" class="node">
<title>Node11</title>
<g id="a_Node000011"><a xlink:href="EntityManager_8hpp.html" target="_top" xlink:title=" ">
<polygon fill="white" stroke="#666666" points="530.88,-132 433.12,-132 433.12,-112 530.88,-112 530.88,-132"/>
<text xml:space="preserve" text-anchor="middle" x="482" y="-118.5" font-family="Helvetica,sans-Serif" font-size="10.00">EntityManager.hpp</text>
</a>
</g>
</g>
<!-- Node2&#45;&gt;Node11 -->
<g id="edge15_Node000002_Node000011" class="edge">
<title>Node2&#45;&gt;Node11</title>
<g id="a_edge15_Node000002_Node000011"><a xlink:title=" ">
<path fill="none" stroke="#63b8ff" d="M411.3,-229.51C424,-210.38 452.86,-166.89 469.52,-141.8"/>
<polygon fill="#63b8ff" stroke="#63b8ff" points="472.38,-143.83 474.99,-133.56 466.54,-139.96 472.38,-143.83"/>
</a>
</g>
</g>
<!-- Node12 -->
<g id="Node000012" class="node">
<title>Node12</title>
<g id="a_Node000012"><a xlink:href="SparseSet_8hpp.html" target="_top" xlink:title=" ">
<polygon fill="white" stroke="#666666" points="377.25,-132 296.75,-132 296.75,-112 377.25,-112 377.25,-132"/>
<text xml:space="preserve" text-anchor="middle" x="337" y="-118.5" font-family="Helvetica,sans-Serif" font-size="10.00">SparseSet.hpp</text>
</a>
</g>
</g>
<!-- Node2&#45;&gt;Node12 -->
<g id="edge18_Node000002_Node000012" class="edge">
<title>Node2&#45;&gt;Node12</title>
<g id="a_edge18_Node000002_Node000012"><a xlink:title=" ">
<path fill="none" stroke="#63b8ff" d="M399.44,-229.51C388.27,-210.46 362.96,-167.28 348.22,-142.14"/>
<polygon fill="#63b8ff" stroke="#63b8ff" points="351.29,-140.46 343.22,-133.61 345.25,-144 351.29,-140.46"/>
</a>
</g>
</g>
<!-- Node13 -->
<g id="Node000013" class="node">
<title>Node13</title>
<g id="a_Node000013"><a xlink:title=" ">
<polygon fill="#e0e0e0" stroke="#999999" points="300.62,-188 249.38,-188 249.38,-168 300.62,-168 300.62,-188"/>
<text xml:space="preserve" text-anchor="middle" x="275" y="-174.5" font-family="Helvetica,sans-Serif" font-size="10.00">memory</text>
</a>
</g>
</g>
<!-- Node2&#45;&gt;Node13 -->
<g id="edge21_Node000002_Node000013" class="edge">
<title>Node2&#45;&gt;Node13</title>
<g id="a_edge21_Node000002_Node000013"><a xlink:title=" ">
<path fill="none" stroke="#63b8ff" d="M384.69,-229.62C363.41,-219.81 329.76,-204.27 305.34,-193"/>
<polygon fill="#63b8ff" stroke="#63b8ff" points="307.09,-189.96 296.54,-188.94 304.16,-196.31 307.09,-189.96"/>
</a>
</g>
</g>
<!-- Node2&#45;&gt;Node14 -->
<g id="edge22_Node000002_Node000014" class="edge">
<title>Node2&#45;&gt;Node14</title>
<g id="a_edge22_Node000002_Node000014"><a xlink:title=" ">
<path fill="none" stroke="#63b8ff" d="M425.62,-229.62C447.23,-219.81 481.4,-204.27 506.2,-193"/>
<polygon fill="#63b8ff" stroke="#63b8ff" points="507.49,-196.26 515.14,-188.94 504.59,-189.89 507.49,-196.26"/>
</a>
</g>
</g>
<!-- Node15 -->
<g id="Node000015" class="node">
<title>Node15</title>
<g id="a_Node000015"><a xlink:title=" ">
<polygon fill="#e0e0e0" stroke="#999999" points="636.75,-188 583.25,-188 583.25,-168 636.75,-168 636.75,-188"/>
<text xml:space="preserve" text-anchor="middle" x="610" y="-174.5" font-family="Helvetica,sans-Serif" font-size="10.00">iostream</text>
</a>
</g>
</g>
<!-- Node2&#45;&gt;Node15 -->
<g id="edge23_Node000002_Node000015" class="edge">
<title>Node2&#45;&gt;Node15</title>
<g id="a_edge23_Node000002_Node000015"><a xlink:title=" ">
<path fill="none" stroke="#63b8ff" d="M437.03,-229.62C473.52,-218.95 533.1,-201.51 571.93,-190.14"/>
<polygon fill="#63b8ff" stroke="#63b8ff" points="572.71,-193.56 581.32,-187.39 570.74,-186.84 572.71,-193.56"/>
</a>
</g>
</g>
<!-- Node16 -->
<g id="Node000016" class="node">
<title>Node16</title>
<g id="a_Node000016"><a xlink:href="Clock_8hpp.html" target="_top" xlink:title=" ">
<polygon fill="white" stroke="#666666" points="609.12,-132 548.88,-132 548.88,-112 609.12,-112 609.12,-132"/>
<text xml:space="preserve" text-anchor="middle" x="579" y="-118.5" font-family="Helvetica,sans-Serif" font-size="10.00">Clock.hpp</text>
</a>
</g>
</g>
<!-- Node2&#45;&gt;Node16 -->
<g id="edge24_Node000002_Node000016" class="edge">
<title>Node2&#45;&gt;Node16</title>
<g id="a_edge24_Node000002_Node000016"><a xlink:title=" ">
<path fill="none" stroke="#63b8ff" d="M416.66,-229.55C434.24,-215.46 468.82,-188.42 500,-168 516.52,-157.18 535.77,-146.19 551.12,-137.77"/>
<polygon fill="#63b8ff" stroke="#63b8ff" points="552.6,-140.96 559.72,-133.12 549.26,-134.8 552.6,-140.96"/>
</a>
</g>
</g>
<!-- Node4 -->
<g id="Node000004" class="node">
<title>Node4</title>
<g id="a_Node000004"><a xlink:title=" ">
<polygon fill="#e0e0e0" stroke="#999999" points="504.62,-20 459.38,-20 459.38,0 504.62,0 504.62,-20"/>
<text xml:space="preserve" text-anchor="middle" x="482" y="-6.5" font-family="Helvetica,sans-Serif" font-size="10.00">cstdint</text>
</a>
</g>
</g>
<!-- Node3&#45;&gt;Node4 -->
<g id="edge3_Node000003_Node000004" class="edge">
<title>Node3&#45;&gt;Node4</title>
<g id="a_edge3_Node000003_Node000004"><a xlink:title=" ">
<path fill="none" stroke="#63b8ff" d="M128.72,-58.43C133.17,-57.56 137.69,-56.72 142,-56 253.47,-37.25 386.59,-21.56 447.95,-14.71"/>
<polygon fill="#63b8ff" stroke="#63b8ff" points="448.18,-18.2 457.73,-13.62 447.41,-11.24 448.18,-18.2"/>
</a>
</g>
</g>
<!-- Node5 -->
<g id="Node000005" class="node">
<title>Node5</title>
<g id="a_Node000005"><a xlink:title=" ">
<polygon fill="#e0e0e0" stroke="#999999" points="118,-20 78,-20 78,0 118,0 118,-20"/>
<text xml:space="preserve" text-anchor="middle" x="98" y="-6.5" font-family="Helvetica,sans-Serif" font-size="10.00">bitset</text>
</a>
</g>
</g>
<!-- Node3&#45;&gt;Node5 -->
<g id="edge4_Node000003_Node000005" class="edge">
<title>Node3&#45;&gt;Node5</title>
<g id="a_edge4_Node000003_Node000005"><a xlink:title=" ">
<path fill="none" stroke="#63b8ff" d="M98,-55.59C98,-49.01 98,-39.96 98,-31.73"/>
<polygon fill="#63b8ff" stroke="#63b8ff" points="101.5,-31.81 98,-21.81 94.5,-31.81 101.5,-31.81"/>
</a>
</g>
</g>
<!-- Node6&#45;&gt;Node3 -->
<g id="edge6_Node000006_Node000003" class="edge">
<title>Node6&#45;&gt;Node3</title>
<g id="a_edge6_Node000006_Node000003"><a xlink:title=" ">
<path fill="none" stroke="#63b8ff" d="M165.72,-111.59C153.56,-103.59 135.86,-91.93 121.6,-82.54"/>
<polygon fill="#63b8ff" stroke="#63b8ff" points="123.94,-79.89 113.66,-77.31 120.09,-85.73 123.94,-79.89"/>
</a>
</g>
</g>
<!-- Node6&#45;&gt;Node7 -->
<g id="edge7_Node000006_Node000007" class="edge">
<title>Node6&#45;&gt;Node7</title>
<g id="a_edge7_Node000006_Node000007"><a xlink:title=" ">
<path fill="none" stroke="#63b8ff" d="M207.35,-111.59C234.34,-102.31 275.62,-88.11 304.32,-78.24"/>
<polygon fill="#63b8ff" stroke="#63b8ff" points="305.28,-81.61 313.59,-75.05 303,-74.99 305.28,-81.61"/>
</a>
</g>
</g>
<!-- Node8 -->
<g id="Node000008" class="node">
<title>Node8</title>
<g id="a_Node000008"><a xlink:title=" ">
<polygon fill="#e0e0e0" stroke="#999999" points="209,-76 151,-76 151,-56 209,-56 209,-76"/>
<text xml:space="preserve" text-anchor="middle" x="180" y="-62.5" font-family="Helvetica,sans-Serif" font-size="10.00">typeindex</text>
</a>
</g>
</g>
<!-- Node6&#45;&gt;Node8 -->
<g id="edge8_Node000006_Node000008" class="edge">
<title>Node6&#45;&gt;Node8</title>
<g id="a_edge8_Node000006_Node000008"><a xlink:title=" ">
<path fill="none" stroke="#63b8ff" d="M180,-111.59C180,-105.01 180,-95.96 180,-87.73"/>
<polygon fill="#63b8ff" stroke="#63b8ff" points="183.5,-87.81 180,-77.81 176.5,-87.81 183.5,-87.81"/>
</a>
</g>
</g>
<!-- Node9 -->
<g id="Node000009" class="node">
<title>Node9</title>
<g id="a_Node000009"><a xlink:title=" ">
<polygon fill="#e0e0e0" stroke="#999999" points="40,-76 0,-76 0,-56 40,-56 40,-76"/>
<text xml:space="preserve" text-anchor="middle" x="20" y="-62.5" font-family="Helvetica,sans-Serif" font-size="10.00">string</text>
</a>
</g>
</g>
<!-- Node6&#45;&gt;Node9 -->
<g id="edge9_Node000006_Node000009" class="edge">
<title>Node6&#45;&gt;Node9</title>
<g id="a_edge9_Node000006_Node000009"><a xlink:title=" ">
<path fill="none" stroke="#63b8ff" d="M152.13,-111.59C123.99,-102.1 80.61,-87.46 51.31,-77.57"/>
<polygon fill="#63b8ff" stroke="#63b8ff" points="52.48,-74.27 41.88,-74.38 50.24,-80.9 52.48,-74.27"/>
</a>
</g>
</g>
<!-- Node10&#45;&gt;Node3 -->
<g id="edge11_Node000010_Node000003" class="edge">
<title>Node10&#45;&gt;Node3</title>
<g id="a_edge11_Node000010_Node000003"><a xlink:title=" ">
<path fill="none" stroke="#63b8ff" d="M56.18,-167.65C60.56,-154.94 68.85,-131.54 77,-112 80.52,-103.55 84.74,-94.37 88.46,-86.52"/>
<polygon fill="#63b8ff" stroke="#63b8ff" points="91.58,-88.1 92.77,-77.57 85.28,-85.06 91.58,-88.1"/>
</a>
</g>
</g>
<!-- Node10&#45;&gt;Node6 -->
<g id="edge12_Node000010_Node000006" class="edge">
<title>Node10&#45;&gt;Node6</title>
<g id="a_edge12_Node000010_Node000006"><a xlink:title=" ">
<path fill="none" stroke="#63b8ff" d="M75.12,-167.59C95.03,-159.13 124.55,-146.58 147.21,-136.94"/>
<polygon fill="#63b8ff" stroke="#63b8ff" points="148.48,-140.21 156.31,-133.07 145.74,-133.76 148.48,-140.21"/>
</a>
</g>
</g>
<!-- Node10&#45;&gt;Node7 -->
<g id="edge14_Node000010_Node000007" class="edge">
<title>Node10&#45;&gt;Node7</title>
<g id="a_edge14_Node000010_Node000007"><a xlink:title=" ">
<path fill="none" stroke="#63b8ff" d="M87.67,-173.39C127.95,-168.22 195.71,-156.5 249,-132 275.65,-119.75 302.16,-98.63 319.01,-83.8"/>
<polygon fill="#63b8ff" stroke="#63b8ff" points="321.12,-86.61 326.19,-77.31 316.43,-81.42 321.12,-86.61"/>
</a>
</g>
</g>
<!-- Node10&#45;&gt;Node9 -->
<g id="edge13_Node000010_Node000009" class="edge">
<title>Node10&#45;&gt;Node9</title>
<g id="a_edge13_Node000010_Node000009"><a xlink:title=" ">
<path fill="none" stroke="#63b8ff" d="M50.06,-167.71C47.19,-158.62 42.73,-144.38 39,-132 34.47,-116.99 29.5,-99.97 25.78,-87.12"/>
<polygon fill="#63b8ff" stroke="#63b8ff" points="29.21,-86.36 23.08,-77.73 22.48,-88.3 29.21,-86.36"/>
</a>
</g>
</g>
<!-- Node11&#45;&gt;Node4 -->
<g id="edge17_Node000011_Node000004" class="edge">
<title>Node11&#45;&gt;Node4</title>
<g id="a_edge17_Node000011_Node000004"><a xlink:title=" ">
<path fill="none" stroke="#63b8ff" d="M482,-111.62C482,-94.01 482,-55.59 482,-31.65"/>
<polygon fill="#63b8ff" stroke="#63b8ff" points="485.5,-31.87 482,-21.87 478.5,-31.87 485.5,-31.87"/>
</a>
</g>
</g>
<!-- Node11&#45;&gt;Node7 -->
<g id="edge16_Node000011_Node000007" class="edge">
<title>Node11&#45;&gt;Node7</title>
<g id="a_edge16_Node000011_Node000007"><a xlink:title=" ">
<path fill="none" stroke="#63b8ff" d="M456.74,-111.59C432.46,-102.55 395.66,-88.85 369.27,-79.02"/>
<polygon fill="#63b8ff" stroke="#63b8ff" points="370.67,-75.8 360.08,-75.59 368.23,-82.36 370.67,-75.8"/>
</a>
</g>
</g>
<!-- Node12&#45;&gt;Node7 -->
<g id="edge19_Node000012_Node000007" class="edge">
<title>Node12&#45;&gt;Node7</title>
<g id="a_edge19_Node000012_Node000007"><a xlink:title=" ">
<path fill="none" stroke="#63b8ff" d="M337,-111.59C337,-105.01 337,-95.96 337,-87.73"/>
<polygon fill="#63b8ff" stroke="#63b8ff" points="340.5,-87.81 337,-77.81 333.5,-87.81 340.5,-87.81"/>
</a>
</g>
</g>
<!-- Node16&#45;&gt;Node4 -->
<g id="edge25_Node000016_Node000004" class="edge">
<title>Node16&#45;&gt;Node4</title>
<g id="a_edge25_Node000016_Node000004"><a xlink:title=" ">
<path fill="none" stroke="#63b8ff" d="M570.73,-111.62C554.55,-93.27 518.48,-52.37 497.66,-28.75"/>
<polygon fill="#63b8ff" stroke="#63b8ff" points="500.49,-26.68 491.25,-21.49 495.24,-31.31 500.49,-26.68"/>
</a>
</g>
</g>
<!-- Node18 -->
<g id="Node000018" class="node">
<title>Node18</title>
<g id="a_Node000018"><a xlink:href="utils_8hpp.html" target="_top" xlink:title=" ">
<polygon fill="white" stroke="#666666" points="819.25,-188 720.75,-188 720.75,-168 819.25,-168 819.25,-188"/>
<text xml:space="preserve" text-anchor="middle" x="770" y="-174.5" font-family="Helvetica,sans-Serif" font-size="10.00">../../../ecs/utils.hpp</text>
</a>
</g>
</g>
<!-- Node17&#45;&gt;Node18 -->
<g id="edge28_Node000017_Node000018" class="edge">
<title>Node17&#45;&gt;Node18</title>
<g id="a_edge28_Node000017_Node000018"><a xlink:title=" ">
<path fill="none" stroke="#63b8ff" d="M770,-223.55C770,-216.34 770,-207.66 770,-199.88"/>
<polygon fill="#63b8ff" stroke="#63b8ff" points="773.5,-199.92 770,-189.92 766.5,-199.92 773.5,-199.92"/>
</a>
</g>
</g>
<!-- Node21&#45;&gt;Node15 -->
<g id="edge33_Node000021_Node000015" class="edge">
<title>Node21&#45;&gt;Node15</title>
<g id="a_edge33_Node000021_Node000015"><a xlink:title=" ">
<path fill="none" stroke="#63b8ff" d="M612.23,-223.55C611.87,-216.34 611.43,-207.66 611.04,-199.88"/>
<polygon fill="#63b8ff" stroke="#63b8ff" points="614.54,-199.73 610.55,-189.92 607.55,-200.08 614.54,-199.73"/>
</a>
</g>
</g>
<!-- Node21&#45;&gt;Node18 -->
<g id="edge34_Node000021_Node000018" class="edge">
<title>Node21&#45;&gt;Node18</title>
<g id="a_edge34_Node000021_Node000018"><a xlink:title=" ">
<path fill="none" stroke="#63b8ff" d="M653.43,-223.55C678.64,-213.91 710.77,-201.64 734.91,-192.41"/>
<polygon fill="#63b8ff" stroke="#63b8ff" points="735.88,-195.79 743.97,-188.95 733.38,-189.25 735.88,-195.79"/>
</a>
</g>
</g>
<!-- Node22 -->
<g id="Node000022" class="node">
<title>Node22</title>
<g id="a_Node000022"><a xlink:title=" ">
<polygon fill="#e0e0e0" stroke="#999999" points="703.12,-188 654.88,-188 654.88,-168 703.12,-168 703.12,-188"/>
<text xml:space="preserve" text-anchor="middle" x="679" y="-174.5" font-family="Helvetica,sans-Serif" font-size="10.00">cstddef</text>
</a>
</g>
</g>
<!-- Node21&#45;&gt;Node22 -->
<g id="edge32_Node000021_Node000022" class="edge">
<title>Node21&#45;&gt;Node22</title>
<g id="a_edge32_Node000021_Node000022"><a xlink:title=" ">
<path fill="none" stroke="#63b8ff" d="M630,-223.55C639.26,-215.13 650.74,-204.69 660.26,-196.04"/>
<polygon fill="#63b8ff" stroke="#63b8ff" points="662.49,-198.74 667.53,-189.43 657.78,-193.56 662.49,-198.74"/>
</a>
</g>
</g>
</g>
</svg>
