<?xml version="1.0" encoding="UTF-8" standalone="no"?>
<!DOCTYPE svg PUBLIC "-//W3C//DTD SVG 1.1//EN"
 "http://www.w3.org/Graphics/SVG/1.1/DTD/svg11.dtd">
<!-- Generated by graphviz version 14.0.2 (0)
 -->
<!-- Title: systems/motion/src/Motion.hpp Pages: 1 -->
<svg width="1043pt" height="332pt"
 viewBox="0.00 0.00 1043.00 332.00" xmlns="http://www.w3.org/2000/svg" xmlns:xlink="http://www.w3.org/1999/xlink">
<g id="graph0" class="graph" transform="scale(1 1) rotate(0) translate(4 328)">
<title>systems/motion/src/Motion.hpp</title>
<!-- Node1 -->
<g id="Node000001" class="node">
<title>Node1</title>
<g id="a_Node000001"><a xlink:title=" ">
<polygon fill="#999999" stroke="#666666" points="589.25,-324 487,-324 487,-292 589.25,-292 589.25,-324"/>
<text xml:space="preserve" text-anchor="start" x="495" y="-310.5" font-family="Helvetica,sans-Serif" font-size="10.00">systems/motion/src</text>
<text xml:space="preserve" text-anchor="middle" x="538.12" y="-298.5" font-family="Helvetica,sans-Serif" font-size="10.00">/Motion.hpp</text>
</a>
</g>
</g>
<!-- Node2 -->
<g id="Node000002" class="node">
<title>Node2</title>
<g id="a_Node000002"><a xlink:title=" ">
<polygon fill="#e0e0e0" stroke="#999999" points="583,-188 527.25,-188 527.25,-168 583,-168 583,-188"/>
<text xml:space="preserve" text-anchor="middle" x="555.12" y="-174.5" font-family="Helvetica,sans-Serif" font-size="10.00">algorithm</text>
</a>
</g>
</g>
<!-- Node1&#45;&gt;Node2 -->
<g id="edge1_Node000001_Node000002" class="edge">
<title>Node1&#45;&gt;Node2</title>
<g id="a_edge1_Node000001_Node000002"><a xlink:title=" ">
<path fill="none" stroke="#63b8ff" d="M586.2,-291.6C602.8,-283.72 619.6,-272.25 629.12,-256 636.31,-243.73 636.1,-236.4 629.12,-224 621.31,-210.11 607.29,-200.01 593.53,-192.94"/>
<polygon fill="#63b8ff" stroke="#63b8ff" points="595.08,-189.8 584.54,-188.75 592.13,-196.15 595.08,-189.8"/>
</a>
</g>
</g>
<!-- Node3 -->
<g id="Node000003" class="node">
<title>Node3</title>
<g id="a_Node000003"><a xlink:href="Acceleration_8hpp.html" target="_top" xlink:title=" ">
<polygon fill="white" stroke="#666666" points="620,-256 456.25,-256 456.25,-224 620,-224 620,-256"/>
<text xml:space="preserve" text-anchor="start" x="464.25" y="-242.5" font-family="Helvetica,sans-Serif" font-size="10.00">../../../components</text>
<text xml:space="preserve" text-anchor="middle" x="538.12" y="-230.5" font-family="Helvetica,sans-Serif" font-size="10.00">/acceleration/src/Acceleration.hpp</text>
</a>
</g>
</g>
<!-- Node1&#45;&gt;Node3 -->
<g id="edge2_Node000001_Node000003" class="edge">
<title>Node1&#45;&gt;Node3</title>
<g id="a_edge2_Node000001_Node000003"><a xlink:title=" ">
<path fill="none" stroke="#63b8ff" d="M538.12,-291.69C538.12,-284.53 538.12,-275.79 538.12,-267.59"/>
<polygon fill="#63b8ff" stroke="#63b8ff" points="541.63,-267.74 538.13,-257.74 534.63,-267.74 541.63,-267.74"/>
</a>
</g>
</g>
<!-- Node10 -->
<g id="Node000010" class="node">
<title>Node10</title>
<g id="a_Node000010"><a xlink:href="Position_8hpp.html" target="_top" xlink:title=" ">
<polygon fill="white" stroke="#666666" points="126.25,-256 0,-256 0,-224 126.25,-224 126.25,-256"/>
<text xml:space="preserve" text-anchor="start" x="8" y="-242.5" font-family="Helvetica,sans-Serif" font-size="10.00">../../../components</text>
<text xml:space="preserve" text-anchor="middle" x="63.12" y="-230.5" font-family="Helvetica,sans-Serif" font-size="10.00">/position/src/Position.hpp</text>
</a>
</g>
</g>
<!-- Node1&#45;&gt;Node10 -->
<g id="edge9_Node000001_Node000010" class="edge">
<title>Node1&#45;&gt;Node10</title>
<g id="a_edge9_Node000001_Node000010"><a xlink:title=" ">
<path fill="none" stroke="#63b8ff" d="M486.72,-301.82C412.04,-294 268.95,-277.93 137.71,-256.36"/>
<polygon fill="#63b8ff" stroke="#63b8ff" points="138.61,-252.96 128.17,-254.77 137.46,-259.86 138.61,-252.96"/>
</a>
</g>
</g>
<!-- Node12 -->
<g id="Node000012" class="node">
<title>Node12</title>
<g id="a_Node000012"><a xlink:href="Renderable_8hpp.html" target="_top" xlink:title=" ">
<polygon fill="white" stroke="#666666" points="296,-256 144.25,-256 144.25,-224 296,-224 296,-256"/>
<text xml:space="preserve" text-anchor="start" x="152.25" y="-242.5" font-family="Helvetica,sans-Serif" font-size="10.00">../../../components</text>
<text xml:space="preserve" text-anchor="middle" x="220.12" y="-230.5" font-family="Helvetica,sans-Serif" font-size="10.00">/renderable/src/Renderable.hpp</text>
</a>
</g>
</g>
<!-- Node1&#45;&gt;Node12 -->
<g id="edge12_Node000001_Node000012" class="edge">
<title>Node1&#45;&gt;Node12</title>
<g id="a_edge12_Node000001_Node000012"><a xlink:title=" ">
<path fill="none" stroke="#63b8ff" d="M486.68,-296.32C437.8,-286.18 363.39,-270.73 305.59,-258.74"/>
<polygon fill="#63b8ff" stroke="#63b8ff" points="306.62,-255.38 296.12,-256.77 305.2,-262.23 306.62,-255.38"/>
</a>
</g>
</g>
<!-- Node17 -->
<g id="Node000017" class="node">
<title>Node17</title>
<g id="a_Node000017"><a xlink:href="Velocity_8hpp.html" target="_top" xlink:title=" ">
<polygon fill="white" stroke="#666666" points="438.5,-256 313.75,-256 313.75,-224 438.5,-224 438.5,-256"/>
<text xml:space="preserve" text-anchor="start" x="321.75" y="-242.5" font-family="Helvetica,sans-Serif" font-size="10.00">../../../components</text>
<text xml:space="preserve" text-anchor="middle" x="376.12" y="-230.5" font-family="Helvetica,sans-Serif" font-size="10.00">/velocity/src/Velocity.hpp</text>
</a>
</g>
</g>
<!-- Node1&#45;&gt;Node17 -->
<g id="edge19_Node000001_Node000017" class="edge">
<title>Node1&#45;&gt;Node17</title>
<g id="a_edge19_Node000001_Node000017"><a xlink:title=" ">
<path fill="none" stroke="#63b8ff" d="M500.14,-291.53C477.58,-282.33 448.74,-270.58 424.55,-260.73"/>
<polygon fill="#63b8ff" stroke="#63b8ff" points="426.13,-257.59 415.55,-257.06 423.49,-264.08 426.13,-257.59"/>
</a>
</g>
</g>
<!-- Node18 -->
<g id="Node000018" class="node">
<title>Node18</title>
<g id="a_Node000018"><a xlink:href="Registry_8hpp.html" target="_top" xlink:title=" ">
<polygon fill="white" stroke="#666666" points="792.38,-250 675.88,-250 675.88,-230 792.38,-230 792.38,-250"/>
<text xml:space="preserve" text-anchor="middle" x="734.12" y="-236.5" font-family="Helvetica,sans-Serif" font-size="10.00">../../../ecs/Registry.hpp</text>
</a>
</g>
</g>
<!-- Node1&#45;&gt;Node18 -->
<g id="edge21_Node000001_Node000018" class="edge">
<title>Node1&#45;&gt;Node18</title>
<g id="a_edge21_Node000001_Node000018"><a xlink:title=" ">
<path fill="none" stroke="#63b8ff" d="M584.08,-291.53C617.88,-280.14 663.33,-264.84 695.32,-254.07"/>
<polygon fill="#63b8ff" stroke="#63b8ff" points="696.24,-257.45 704.6,-250.94 694,-250.82 696.24,-257.45"/>
</a>
</g>
</g>
<!-- Node25 -->
<g id="Node000025" class="node">
<title>Node25</title>
<g id="a_Node000025"><a xlink:href="System_8hpp.html" target="_top" xlink:title=" ">
<polygon fill="white" stroke="#666666" points="938.38,-188 869.88,-188 869.88,-168 938.38,-168 938.38,-188"/>
<text xml:space="preserve" text-anchor="middle" x="904.12" y="-174.5" font-family="Helvetica,sans-Serif" font-size="10.00">System.hpp</text>
</a>
</g>
</g>
<!-- Node1&#45;&gt;Node25 -->
<g id="edge45_Node000001_Node000025" class="edge">
<title>Node1&#45;&gt;Node25</title>
<g id="a_edge45_Node000001_Node000025"><a xlink:title=" ">
<path fill="none" stroke="#63b8ff" d="M589.59,-303.85C644.13,-298.97 731.8,-286.69 801.12,-256 834.46,-241.24 867.17,-213.99 886.5,-196.18"/>
<polygon fill="#63b8ff" stroke="#63b8ff" points="888.88,-198.74 893.75,-189.33 884.08,-193.65 888.88,-198.74"/>
</a>
</g>
</g>
<!-- Node4 -->
<g id="Node000004" class="node">
<title>Node4</title>
<g id="a_Node000004"><a xlink:href="Component_8hpp.html" target="_top" xlink:title=" ">
<polygon fill="white" stroke="#666666" points="437.5,-188 306.75,-188 306.75,-168 437.5,-168 437.5,-188"/>
<text xml:space="preserve" text-anchor="middle" x="372.12" y="-174.5" font-family="Helvetica,sans-Serif" font-size="10.00">../../../ecs/Component.hpp</text>
</a>
</g>
</g>
<!-- Node3&#45;&gt;Node4 -->
<g id="edge3_Node000003_Node000004" class="edge">
<title>Node3&#45;&gt;Node4</title>
<g id="a_edge3_Node000003_Node000004"><a xlink:title=" ">
<path fill="none" stroke="#63b8ff" d="M495.38,-223.55C468.6,-213.87 434.45,-201.53 408.88,-192.29"/>
<polygon fill="#63b8ff" stroke="#63b8ff" points="410.17,-189.03 399.58,-188.92 407.79,-195.61 410.17,-189.03"/>
</a>
</g>
</g>
<!-- Node5 -->
<g id="Node000005" class="node">
<title>Node5</title>
<g id="a_Node000005"><a xlink:title=" ">
<polygon fill="#e0e0e0" stroke="#999999" points="485.75,-132 434.5,-132 434.5,-112 485.75,-112 485.75,-132"/>
<text xml:space="preserve" text-anchor="middle" x="460.12" y="-118.5" font-family="Helvetica,sans-Serif" font-size="10.00">memory</text>
</a>
</g>
</g>
<!-- Node4&#45;&gt;Node5 -->
<g id="edge4_Node000004_Node000005" class="edge">
<title>Node4&#45;&gt;Node5</title>
<g id="a_edge4_Node000004_Node000005"><a xlink:title=" ">
<path fill="none" stroke="#63b8ff" d="M387.45,-167.59C400.62,-159.51 419.86,-147.71 435.23,-138.27"/>
<polygon fill="#63b8ff" stroke="#63b8ff" points="436.69,-141.48 443.39,-133.27 433.03,-135.52 436.69,-141.48"/>
</a>
</g>
</g>
<!-- Node6 -->
<g id="Node000006" class="node">
<title>Node6</title>
<g id="a_Node000006"><a xlink:title=" ">
<polygon fill="#e0e0e0" stroke="#999999" points="1035.12,-76 995.12,-76 995.12,-56 1035.12,-56 1035.12,-76"/>
<text xml:space="preserve" text-anchor="middle" x="1015.12" y="-62.5" font-family="Helvetica,sans-Serif" font-size="10.00">string</text>
</a>
</g>
</g>
<!-- Node4&#45;&gt;Node6 -->
<g id="edge5_Node000004_Node000006" class="edge">
<title>Node4&#45;&gt;Node6</title>
<g id="a_edge5_Node000004_Node000006"><a xlink:title=" ">
<path fill="none" stroke="#63b8ff" d="M376.44,-167.86C383.98,-153.09 401.05,-124.4 425.12,-112 533.16,-56.39 845.55,-96.35 983.47,-75.88"/>
<polygon fill="#63b8ff" stroke="#63b8ff" points="983.9,-79.35 993.19,-74.25 982.75,-72.45 983.9,-79.35"/>
</a>
</g>
</g>
<!-- Node7 -->
<g id="Node000007" class="node">
<title>Node7</title>
<g id="a_Node000007"><a xlink:href="Types_8hpp.html" target="_top" xlink:title="Core type definitions used throughout the ECS (Entity Component System).">
<polygon fill="white" stroke="#666666" points="800.62,-76 739.62,-76 739.62,-56 800.62,-56 800.62,-76"/>
<text xml:space="preserve" text-anchor="middle" x="770.12" y="-62.5" font-family="Helvetica,sans-Serif" font-size="10.00">Types.hpp</text>
</a>
</g>
</g>
<!-- Node4&#45;&gt;Node7 -->
<g id="edge6_Node000004_Node000007" class="edge">
<title>Node4&#45;&gt;Node7</title>
<g id="a_edge6_Node000004_Node000007"><a xlink:title=" ">
<path fill="none" stroke="#63b8ff" d="M372.02,-167.77C372.41,-153.41 375.44,-125.92 392.12,-112 392.93,-111.33 629.58,-83.49 727.98,-71.94"/>
<polygon fill="#63b8ff" stroke="#63b8ff" points="728.24,-75.44 737.77,-70.79 727.43,-68.48 728.24,-75.44"/>
</a>
</g>
</g>
<!-- Node8 -->
<g id="Node000008" class="node">
<title>Node8</title>
<g id="a_Node000008"><a xlink:title=" ">
<polygon fill="#e0e0e0" stroke="#999999" points="790.12,-20 750.12,-20 750.12,0 790.12,0 790.12,-20"/>
<text xml:space="preserve" text-anchor="middle" x="770.12" y="-6.5" font-family="Helvetica,sans-Serif" font-size="10.00">bitset</text>
</a>
</g>
</g>
<!-- Node7&#45;&gt;Node8 -->
<g id="edge7_Node000007_Node000008" class="edge">
<title>Node7&#45;&gt;Node8</title>
<g id="a_edge7_Node000007_Node000008"><a xlink:title=" ">
<path fill="none" stroke="#63b8ff" d="M770.12,-55.59C770.12,-49.01 770.12,-39.96 770.12,-31.73"/>
<polygon fill="#63b8ff" stroke="#63b8ff" points="773.63,-31.81 770.13,-21.81 766.63,-31.81 773.63,-31.81"/>
</a>
</g>
</g>
<!-- Node9 -->
<g id="Node000009" class="node">
<title>Node9</title>
<g id="a_Node000009"><a xlink:title=" ">
<polygon fill="#e0e0e0" stroke="#999999" points="575.75,-20 530.5,-20 530.5,0 575.75,0 575.75,-20"/>
<text xml:space="preserve" text-anchor="middle" x="553.12" y="-6.5" font-family="Helvetica,sans-Serif" font-size="10.00">cstdint</text>
</a>
</g>
</g>
<!-- Node7&#45;&gt;Node9 -->
<g id="edge8_Node000007_Node000009" class="edge">
<title>Node7&#45;&gt;Node9</title>
<g id="a_edge8_Node000007_Node000009"><a xlink:title=" ">
<path fill="none" stroke="#63b8ff" d="M739.49,-57.38C699.24,-47.36 628.74,-29.82 586.95,-19.42"/>
<polygon fill="#63b8ff" stroke="#63b8ff" points="587.99,-16.07 577.45,-17.05 586.3,-22.86 587.99,-16.07"/>
</a>
</g>
</g>
<!-- Node10&#45;&gt;Node4 -->
<g id="edge10_Node000010_Node000004" class="edge">
<title>Node10&#45;&gt;Node4</title>
<g id="a_edge10_Node000010_Node000004"><a xlink:title=" ">
<path fill="none" stroke="#63b8ff" d="M126.72,-225.69C129.56,-225.11 132.37,-224.55 135.12,-224 194.26,-212.23 261.83,-199.47 309.65,-190.55"/>
<polygon fill="#63b8ff" stroke="#63b8ff" points="310.08,-194.03 319.27,-188.76 308.8,-187.15 310.08,-194.03"/>
</a>
</g>
</g>
<!-- Node11 -->
<g id="Node000011" class="node">
<title>Node11</title>
<g id="a_Node000011"><a xlink:href="utils_8hpp.html" target="_top" xlink:title=" ">
<polygon fill="white" stroke="#666666" points="118.38,-188 19.88,-188 19.88,-168 118.38,-168 118.38,-188"/>
<text xml:space="preserve" text-anchor="middle" x="69.12" y="-174.5" font-family="Helvetica,sans-Serif" font-size="10.00">../../../ecs/utils.hpp</text>
</a>
</g>
</g>
<!-- Node10&#45;&gt;Node11 -->
<g id="edge11_Node000010_Node000011" class="edge">
<title>Node10&#45;&gt;Node11</title>
<g id="a_edge11_Node000010_Node000011"><a xlink:title=" ">
<path fill="none" stroke="#63b8ff" d="M64.67,-223.55C65.4,-216.26 66.28,-207.45 67.06,-199.6"/>
<polygon fill="#63b8ff" stroke="#63b8ff" points="70.52,-200.21 68.03,-189.91 63.56,-199.52 70.52,-200.21"/>
</a>
</g>
</g>
<!-- Node12&#45;&gt;Node4 -->
<g id="edge17_Node000012_Node000004" class="edge">
<title>Node12&#45;&gt;Node4</title>
<g id="a_edge17_Node000012_Node000004"><a xlink:title=" ">
<path fill="none" stroke="#63b8ff" d="M259.27,-223.55C283.57,-213.96 314.5,-201.75 337.83,-192.54"/>
<polygon fill="#63b8ff" stroke="#63b8ff" points="338.87,-195.89 346.88,-188.96 336.3,-189.38 338.87,-195.89"/>
</a>
</g>
</g>
<!-- Node12&#45;&gt;Node11 -->
<g id="edge18_Node000012_Node000011" class="edge">
<title>Node12&#45;&gt;Node11</title>
<g id="a_edge18_Node000012_Node000011"><a xlink:title=" ">
<path fill="none" stroke="#63b8ff" d="M181.24,-223.55C157.1,-213.96 126.37,-201.75 103.19,-192.54"/>
<polygon fill="#63b8ff" stroke="#63b8ff" points="104.79,-189.41 94.21,-188.97 102.21,-195.91 104.79,-189.41"/>
</a>
</g>
</g>
<!-- Node13 -->
<g id="Node000013" class="node">
<title>Node13</title>
<g id="a_Node000013"><a xlink:title=" ">
<polygon fill="#e0e0e0" stroke="#999999" points="186.25,-188 138,-188 138,-168 186.25,-168 186.25,-188"/>
<text xml:space="preserve" text-anchor="middle" x="162.12" y="-174.5" font-family="Helvetica,sans-Serif" font-size="10.00">cstddef</text>
</a>
</g>
</g>
<!-- Node12&#45;&gt;Node13 -->
<g id="edge13_Node000012_Node000013" class="edge">
<title>Node12&#45;&gt;Node13</title>
<g id="a_edge13_Node000012_Node000013"><a xlink:title=" ">
<path fill="none" stroke="#63b8ff" d="M205.19,-223.55C197.22,-215.3 187.37,-205.12 179.11,-196.57"/>
<polygon fill="#63b8ff" stroke="#63b8ff" points="181.74,-194.25 172.27,-189.5 176.71,-199.12 181.74,-194.25"/>
</a>
</g>
</g>
<!-- Node14 -->
<g id="Node000014" class="node">
<title>Node14</title>
<g id="a_Node000014"><a xlink:title=" ">
<polygon fill="#e0e0e0" stroke="#999999" points="508.88,-188 455.38,-188 455.38,-168 508.88,-168 508.88,-188"/>
<text xml:space="preserve" text-anchor="middle" x="482.12" y="-174.5" font-family="Helvetica,sans-Serif" font-size="10.00">iostream</text>
</a>
</g>
</g>
<!-- Node12&#45;&gt;Node14 -->
<g id="edge14_Node000012_Node000014" class="edge">
<title>Node12&#45;&gt;Node14</title>
<g id="a_edge14_Node000012_Node000014"><a xlink:title=" ">
<path fill="none" stroke="#63b8ff" d="M290.72,-223.51C332.63,-214.21 387.1,-201.95 443.99,-188.47"/>
<polygon fill="#63b8ff" stroke="#63b8ff" points="444.62,-191.92 453.54,-186.2 443,-185.11 444.62,-191.92"/>
</a>
</g>
</g>
<!-- Node15 -->
<g id="Node000015" class="node">
<title>Node15</title>
<g id="a_Node000015"><a xlink:title=" ">
<polygon fill="#e0e0e0" stroke="#999999" points="243.75,-188 204.5,-188 204.5,-168 243.75,-168 243.75,-188"/>
<text xml:space="preserve" text-anchor="middle" x="224.12" y="-174.5" font-family="Helvetica,sans-Serif" font-size="10.00">utility</text>
</a>
</g>
</g>
<!-- Node12&#45;&gt;Node15 -->
<g id="edge15_Node000012_Node000015" class="edge">
<title>Node12&#45;&gt;Node15</title>
<g id="a_edge15_Node000012_Node000015"><a xlink:title=" ">
<path fill="none" stroke="#63b8ff" d="M221.16,-223.55C221.64,-216.34 222.21,-207.66 222.73,-199.88"/>
<polygon fill="#63b8ff" stroke="#63b8ff" points="226.22,-200.13 223.4,-189.92 219.24,-199.66 226.22,-200.13"/>
</a>
</g>
</g>
<!-- Node16 -->
<g id="Node000016" class="node">
<title>Node16</title>
<g id="a_Node000016"><a xlink:title=" ">
<polygon fill="#e0e0e0" stroke="#999999" points="683.62,-76 640.62,-76 640.62,-56 683.62,-56 683.62,-76"/>
<text xml:space="preserve" text-anchor="middle" x="662.12" y="-62.5" font-family="Helvetica,sans-Serif" font-size="10.00">vector</text>
</a>
</g>
</g>
<!-- Node12&#45;&gt;Node16 -->
<g id="edge16_Node000012_Node000016" class="edge">
<title>Node12&#45;&gt;Node16</title>
<g id="a_edge16_Node000012_Node000016"><a xlink:title=" ">
<path fill="none" stroke="#63b8ff" d="M233.15,-223.51C257.66,-195.59 313.72,-137.4 375.12,-112 461.78,-76.16 573.96,-68.64 628.87,-67.21"/>
<polygon fill="#63b8ff" stroke="#63b8ff" points="628.87,-70.71 638.8,-67.01 628.73,-63.72 628.87,-70.71"/>
</a>
</g>
</g>
<!-- Node17&#45;&gt;Node4 -->
<g id="edge20_Node000017_Node000004" class="edge">
<title>Node17&#45;&gt;Node4</title>
<g id="a_edge20_Node000017_Node000004"><a xlink:title=" ">
<path fill="none" stroke="#63b8ff" d="M375.09,-223.55C374.61,-216.34 374.04,-207.66 373.52,-199.88"/>
<polygon fill="#63b8ff" stroke="#63b8ff" points="377.01,-199.66 372.85,-189.92 370.03,-200.13 377.01,-199.66"/>
</a>
</g>
</g>
<!-- Node18&#45;&gt;Node2 -->
<g id="edge22_Node000018_Node000002" class="edge">
<title>Node18&#45;&gt;Node2</title>
<g id="a_edge22_Node000018_Node000002"><a xlink:title=" ">
<path fill="none" stroke="#63b8ff" d="M706.16,-229.62C676.03,-219.53 627.88,-203.39 594.06,-192.05"/>
<polygon fill="#63b8ff" stroke="#63b8ff" points="595.22,-188.75 584.63,-188.89 593,-195.39 595.22,-188.75"/>
</a>
</g>
</g>
<!-- Node18&#45;&gt;Node5 -->
<g id="edge24_Node000018_Node000005" class="edge">
<title>Node18&#45;&gt;Node5</title>
<g id="a_edge24_Node000018_Node000005"><a xlink:title=" ">
<path fill="none" stroke="#63b8ff" d="M722.42,-229.59C703.19,-214.57 663.24,-185.11 625.12,-168 619.18,-165.33 543.82,-145.17 497.03,-132.75"/>
<polygon fill="#63b8ff" stroke="#63b8ff" points="498.11,-129.42 487.55,-130.24 496.32,-136.19 498.11,-129.42"/>
</a>
</g>
</g>
<!-- Node18&#45;&gt;Node7 -->
<g id="edge44_Node000018_Node000007" class="edge">
<title>Node18&#45;&gt;Node7</title>
<g id="a_edge44_Node000018_Node000007"><a xlink:title=" ">
<path fill="none" stroke="#63b8ff" d="M738.77,-229.86C743.64,-219.85 751.13,-203.19 755.12,-188 764.2,-153.47 767.83,-111.91 769.25,-87.57"/>
<polygon fill="#63b8ff" stroke="#63b8ff" points="772.73,-87.94 769.74,-77.78 765.74,-87.59 772.73,-87.94"/>
</a>
</g>
</g>
<!-- Node18&#45;&gt;Node14 -->
<g id="edge23_Node000018_Node000014" class="edge">
<title>Node18&#45;&gt;Node14</title>
<g id="a_edge23_Node000018_Node000014"><a xlink:title=" ">
<path fill="none" stroke="#63b8ff" d="M693.48,-229.57C652.33,-219.99 586.55,-204.57 520.31,-188.51"/>
<polygon fill="#63b8ff" stroke="#63b8ff" points="521.26,-185.14 510.71,-186.18 519.6,-191.94 521.26,-185.14"/>
</a>
</g>
</g>
<!-- Node18&#45;&gt;Node16 -->
<g id="edge25_Node000018_Node000016" class="edge">
<title>Node18&#45;&gt;Node16</title>
<g id="a_edge25_Node000018_Node000016"><a xlink:title=" ">
<path fill="none" stroke="#63b8ff" d="M729.32,-229.72C721.78,-215.62 706.27,-188.29 689.12,-168 673.69,-149.73 658.86,-153.85 649.12,-132 642.68,-117.53 646.93,-99.82 652.23,-86.55"/>
<polygon fill="#63b8ff" stroke="#63b8ff" points="655.35,-88.14 656.29,-77.59 648.97,-85.25 655.35,-88.14"/>
</a>
</g>
</g>
<!-- Node19 -->
<g id="Node000019" class="node">
<title>Node19</title>
<g id="a_Node000019"><a xlink:href="Clock_8hpp.html" target="_top" xlink:title=" ">
<polygon fill="white" stroke="#666666" points="251.25,-132 191,-132 191,-112 251.25,-112 251.25,-132"/>
<text xml:space="preserve" text-anchor="middle" x="221.12" y="-118.5" font-family="Helvetica,sans-Serif" font-size="10.00">Clock.hpp</text>
</a>
</g>
</g>
<!-- Node18&#45;&gt;Node19 -->
<g id="edge26_Node000018_Node000019" class="edge">
<title>Node18&#45;&gt;Node19</title>
<g id="a_edge26_Node000018_Node000019"><a xlink:title=" ">
<path fill="none" stroke="#63b8ff" d="M712.07,-229.52C689.81,-219.75 654.6,-203.77 625.12,-188 610,-179.91 608.33,-173.6 592.12,-168 477.64,-128.43 332.82,-122.64 262.8,-122.41"/>
<polygon fill="#63b8ff" stroke="#63b8ff" points="262.93,-118.91 252.93,-122.42 262.93,-125.91 262.93,-118.91"/>
</a>
</g>
</g>
<!-- Node20 -->
<g id="Node000020" class="node">
<title>Node20</title>
<g id="a_Node000020"><a xlink:href="ComponentRegistry_8hpp.html" target="_top" xlink:title=" ">
<polygon fill="white" stroke="#666666" points="991.62,-132 870.62,-132 870.62,-112 991.62,-112 991.62,-132"/>
<text xml:space="preserve" text-anchor="middle" x="931.12" y="-118.5" font-family="Helvetica,sans-Serif" font-size="10.00">ComponentRegistry.hpp</text>
</a>
</g>
</g>
<!-- Node18&#45;&gt;Node20 -->
<g id="edge28_Node000018_Node000020" class="edge">
<title>Node18&#45;&gt;Node20</title>
<g id="a_edge28_Node000018_Node000020"><a xlink:title=" ">
<path fill="none" stroke="#63b8ff" d="M750.25,-229.51C784.31,-209.45 863.88,-162.6 905.19,-138.27"/>
<polygon fill="#63b8ff" stroke="#63b8ff" points="906.91,-141.32 913.75,-133.23 903.36,-135.29 906.91,-141.32"/>
</a>
</g>
</g>
<!-- Node23 -->
<g id="Node000023" class="node">
<title>Node23</title>
<g id="a_Node000023"><a xlink:href="EntityManager_8hpp.html" target="_top" xlink:title=" ">
<polygon fill="white" stroke="#666666" points="602,-132 504.25,-132 504.25,-112 602,-112 602,-132"/>
<text xml:space="preserve" text-anchor="middle" x="553.12" y="-118.5" font-family="Helvetica,sans-Serif" font-size="10.00">EntityManager.hpp</text>
</a>
</g>
</g>
<!-- Node18&#45;&gt;Node23 -->
<g id="edge34_Node000018_Node000023" class="edge">
<title>Node18&#45;&gt;Node23</title>
<g id="a_edge34_Node000018_Node000023"><a xlink:title=" ">
<path fill="none" stroke="#63b8ff" d="M726.77,-229.53C714.83,-214.67 689.83,-185.76 663.12,-168 642.64,-154.38 617.38,-143.68 596.23,-136.15"/>
<polygon fill="#63b8ff" stroke="#63b8ff" points="597.62,-132.92 587.03,-132.98 595.35,-139.54 597.62,-132.92"/>
</a>
</g>
</g>
<!-- Node24 -->
<g id="Node000024" class="node">
<title>Node24</title>
<g id="a_Node000024"><a xlink:href="SparseSet_8hpp.html" target="_top" xlink:title=" ">
<polygon fill="white" stroke="#666666" points="738.38,-132 657.88,-132 657.88,-112 738.38,-112 738.38,-132"/>
<text xml:space="preserve" text-anchor="middle" x="698.12" y="-118.5" font-family="Helvetica,sans-Serif" font-size="10.00">SparseSet.hpp</text>
</a>
</g>
</g>
<!-- Node18&#45;&gt;Node24 -->
<g id="edge37_Node000018_Node000024" class="edge">
<title>Node18&#45;&gt;Node24</title>
<g id="a_edge37_Node000018_Node000024"><a xlink:title=" ">
<path fill="none" stroke="#63b8ff" d="M737.17,-229.89C741.29,-216.01 747.25,-188.97 739.12,-168 735.02,-157.4 727.13,-147.77 719.36,-140.16"/>
<polygon fill="#63b8ff" stroke="#63b8ff" points="721.74,-137.59 711.97,-133.49 717.05,-142.79 721.74,-137.59"/>
</a>
</g>
</g>
<!-- Node18&#45;&gt;Node25 -->
<g id="edge39_Node000018_Node000025" class="edge">
<title>Node18&#45;&gt;Node25</title>
<g id="a_edge39_Node000018_Node000025"><a xlink:title=" ">
<path fill="none" stroke="#63b8ff" d="M760.69,-229.62C789.17,-219.57 834.63,-203.53 866.72,-192.2"/>
<polygon fill="#63b8ff" stroke="#63b8ff" points="867.78,-195.54 876.04,-188.91 865.45,-188.94 867.78,-195.54"/>
</a>
</g>
</g>
<!-- Node19&#45;&gt;Node9 -->
<g id="edge27_Node000019_Node000009" class="edge">
<title>Node19&#45;&gt;Node9</title>
<g id="a_edge27_Node000019_Node000009"><a xlink:title=" ">
<path fill="none" stroke="#63b8ff" d="M249.72,-111.53C310.85,-91.27 454.01,-43.84 519.43,-22.16"/>
<polygon fill="#63b8ff" stroke="#63b8ff" points="520.51,-25.49 528.9,-19.03 518.31,-18.85 520.51,-25.49"/>
</a>
</g>
</g>
<!-- Node20&#45;&gt;Node6 -->
<g id="edge29_Node000020_Node000006" class="edge">
<title>Node20&#45;&gt;Node6</title>
<g id="a_edge29_Node000020_Node000006"><a xlink:title=" ">
<path fill="none" stroke="#63b8ff" d="M945.76,-111.59C958.21,-103.59 976.34,-91.93 990.95,-82.54"/>
<polygon fill="#63b8ff" stroke="#63b8ff" points="992.59,-85.65 999.11,-77.3 988.8,-79.76 992.59,-85.65"/>
</a>
</g>
</g>
<!-- Node20&#45;&gt;Node7 -->
<g id="edge33_Node000020_Node000007" class="edge">
<title>Node20&#45;&gt;Node7</title>
<g id="a_edge33_Node000020_Node000007"><a xlink:title=" ">
<path fill="none" stroke="#63b8ff" d="M903.08,-111.59C877.04,-102.86 838.02,-89.77 808.98,-80.03"/>
<polygon fill="#63b8ff" stroke="#63b8ff" points="810.42,-76.82 799.82,-76.96 808.19,-83.46 810.42,-76.82"/>
</a>
</g>
</g>
<!-- Node20&#45;&gt;Node16 -->
<g id="edge32_Node000020_Node000016" class="edge">
<title>Node20&#45;&gt;Node16</title>
<g id="a_edge32_Node000020_Node000016"><a xlink:title=" ">
<path fill="none" stroke="#63b8ff" d="M883.96,-111.53C829.79,-100.66 742.31,-83.1 695.01,-73.6"/>
<polygon fill="#63b8ff" stroke="#63b8ff" points="695.88,-70.21 685.38,-71.67 694.5,-77.07 695.88,-70.21"/>
</a>
</g>
</g>
<!-- Node21 -->
<g id="Node000021" class="node">
<title>Node21</title>
<g id="a_Node000021"><a xlink:title=" ">
<polygon fill="#e0e0e0" stroke="#999999" points="877.12,-76 819.12,-76 819.12,-56 877.12,-56 877.12,-76"/>
<text xml:space="preserve" text-anchor="middle" x="848.12" y="-62.5" font-family="Helvetica,sans-Serif" font-size="10.00">typeindex</text>
</a>
</g>
</g>
<!-- Node20&#45;&gt;Node21 -->
<g id="edge30_Node000020_Node000021" class="edge">
<title>Node20&#45;&gt;Node21</title>
<g id="a_edge30_Node000020_Node000021"><a xlink:title=" ">
<path fill="none" stroke="#63b8ff" d="M916.67,-111.59C904.37,-103.59 886.45,-91.93 872.02,-82.54"/>
<polygon fill="#63b8ff" stroke="#63b8ff" points="874.25,-79.82 863.96,-77.3 870.44,-85.69 874.25,-79.82"/>
</a>
</g>
</g>
<!-- Node22 -->
<g id="Node000022" class="node">
<title>Node22</title>
<g id="a_Node000022"><a xlink:title=" ">
<polygon fill="#e0e0e0" stroke="#999999" points="977.5,-76 894.75,-76 894.75,-56 977.5,-56 977.5,-76"/>
<text xml:space="preserve" text-anchor="middle" x="936.12" y="-62.5" font-family="Helvetica,sans-Serif" font-size="10.00">unordered_map</text>
</a>
</g>
</g>
<!-- Node20&#45;&gt;Node22 -->
<g id="edge31_Node000020_Node000022" class="edge">
<title>Node20&#45;&gt;Node22</title>
<g id="a_edge31_Node000020_Node000022"><a xlink:title=" ">
<path fill="none" stroke="#63b8ff" d="M932,-111.59C932.61,-105.01 933.44,-95.96 934.21,-87.73"/>
<polygon fill="#63b8ff" stroke="#63b8ff" points="937.69,-88.09 935.12,-77.81 930.72,-87.44 937.69,-88.09"/>
</a>
</g>
</g>
<!-- Node23&#45;&gt;Node9 -->
<g id="edge35_Node000023_Node000009" class="edge">
<title>Node23&#45;&gt;Node9</title>
<g id="a_edge35_Node000023_Node000009"><a xlink:title=" ">
<path fill="none" stroke="#63b8ff" d="M553.12,-111.62C553.12,-94.01 553.12,-55.59 553.12,-31.65"/>
<polygon fill="#63b8ff" stroke="#63b8ff" points="556.63,-31.87 553.13,-21.87 549.63,-31.87 556.63,-31.87"/>
</a>
</g>
</g>
<!-- Node23&#45;&gt;Node16 -->
<g id="edge36_Node000023_Node000016" class="edge">
<title>Node23&#45;&gt;Node16</title>
<g id="a_edge36_Node000023_Node000016"><a xlink:title=" ">
<path fill="none" stroke="#63b8ff" d="M572.11,-111.59C588.89,-103.28 613.62,-91.03 632.91,-81.47"/>
<polygon fill="#63b8ff" stroke="#63b8ff" points="634.23,-84.73 641.63,-77.15 631.12,-78.45 634.23,-84.73"/>
</a>
</g>
</g>
<!-- Node24&#45;&gt;Node16 -->
<g id="edge38_Node000024_Node000016" class="edge">
<title>Node24&#45;&gt;Node16</title>
<g id="a_edge38_Node000024_Node000016"><a xlink:title=" ">
<path fill="none" stroke="#63b8ff" d="M691.85,-111.59C687.11,-104.47 680.43,-94.45 674.6,-85.72"/>
<polygon fill="#63b8ff" stroke="#63b8ff" points="677.62,-83.94 669.16,-77.56 671.8,-87.82 677.62,-83.94"/>
</a>
</g>
</g>
<!-- Node25&#45;&gt;Node6 -->
<g id="edge40_Node000025_Node000006" class="edge">
<title>Node25&#45;&gt;Node6</title>
<g id="a_edge40_Node000025_Node000006"><a xlink:title=" ">
<path fill="none" stroke="#63b8ff" d="M938.64,-169.32C959.75,-162.85 985.59,-151.43 1001.12,-132 1011.06,-119.57 1014.35,-101.69 1015.28,-87.82"/>
<polygon fill="#63b8ff" stroke="#63b8ff" points="1018.77,-88.1 1015.55,-78.01 1011.78,-87.91 1018.77,-88.1"/>
</a>
</g>
</g>
<!-- Node25&#45;&gt;Node7 -->
<g id="edge43_Node000025_Node000007" class="edge">
<title>Node25&#45;&gt;Node7</title>
<g id="a_edge43_Node000025_Node000007"><a xlink:title=" ">
<path fill="none" stroke="#63b8ff" d="M892.7,-167.62C869.96,-148.95 818.75,-106.92 790.24,-83.52"/>
<polygon fill="#63b8ff" stroke="#63b8ff" points="792.64,-80.95 782.69,-77.32 788.2,-86.37 792.64,-80.95"/>
</a>
</g>
</g>
<!-- Node25&#45;&gt;Node16 -->
<g id="edge41_Node000025_Node000016" class="edge">
<title>Node25&#45;&gt;Node16</title>
<g id="a_edge41_Node000025_Node000016"><a xlink:title=" ">
<path fill="none" stroke="#63b8ff" d="M883.49,-167.62C840.9,-148.26 743.04,-103.78 692.92,-81"/>
<polygon fill="#63b8ff" stroke="#63b8ff" points="694.64,-77.93 684.08,-76.98 691.74,-84.31 694.64,-77.93"/>
</a>
</g>
</g>
<!-- Node25&#45;&gt;Node20 -->
<g id="edge42_Node000025_Node000020" class="edge">
<title>Node25&#45;&gt;Node20</title>
<g id="a_edge42_Node000025_Node000020"><a xlink:title=" ">
<path fill="none" stroke="#63b8ff" d="M908.83,-167.59C912.27,-160.7 917.07,-151.1 921.34,-142.57"/>
<polygon fill="#63b8ff" stroke="#63b8ff" points="924.46,-144.16 925.8,-133.65 918.2,-141.03 924.46,-144.16"/>
</a>
</g>
</g>
</g>
</svg>
