<?xml version="1.0" encoding="UTF-8" standalone="no"?>
<!DOCTYPE svg PUBLIC "-//W3C//DTD SVG 1.1//EN"
 "http://www.w3.org/Graphics/SVG/1.1/DTD/svg11.dtd">
<!-- Generated by graphviz version 14.0.2 (0)
 -->
<!-- Title: ecs/Registry.hpp Pages: 1 -->
<svg width="806pt" height="252pt"
 viewBox="0.00 0.00 806.00 252.00" xmlns="http://www.w3.org/2000/svg" xmlns:xlink="http://www.w3.org/1999/xlink">
<g id="graph0" class="graph" transform="scale(1 1) rotate(0) translate(4 248)">
<title>ecs/Registry.hpp</title>
<!-- Node1 -->
<g id="Node000001" class="node">
<title>Node1</title>
<g id="a_Node000001"><a xlink:title=" ">
<polygon fill="#999999" stroke="#666666" points="382.62,-244 293.12,-244 293.12,-224 382.62,-224 382.62,-244"/>
<text xml:space="preserve" text-anchor="middle" x="337.88" y="-230.5" font-family="Helvetica,sans-Serif" font-size="10.00">ecs/Registry.hpp</text>
</a>
</g>
</g>
<!-- Node2 -->
<g id="Node000002" class="node">
<title>Node2</title>
<g id="a_Node000002"><a xlink:title=" ">
<polygon fill="#e0e0e0" stroke="#999999" points="55.75,-188 0,-188 0,-168 55.75,-168 55.75,-188"/>
<text xml:space="preserve" text-anchor="middle" x="27.88" y="-174.5" font-family="Helvetica,sans-Serif" font-size="10.00">algorithm</text>
</a>
</g>
</g>
<!-- Node1&#45;&gt;Node2 -->
<g id="edge1_Node000001_Node000002" class="edge">
<title>Node1&#45;&gt;Node2</title>
<g id="a_edge1_Node000001_Node000002"><a xlink:title=" ">
<path fill="none" stroke="#63b8ff" d="M292.76,-226.63C240.75,-219.04 152.47,-205.46 67.29,-188.37"/>
<polygon fill="#63b8ff" stroke="#63b8ff" points="68.09,-184.96 57.59,-186.4 66.7,-191.82 68.09,-184.96"/>
</a>
</g>
</g>
<!-- Node3 -->
<g id="Node000003" class="node">
<title>Node3</title>
<g id="a_Node000003"><a xlink:title=" ">
<polygon fill="#e0e0e0" stroke="#999999" points="127.62,-188 74.12,-188 74.12,-168 127.62,-168 127.62,-188"/>
<text xml:space="preserve" text-anchor="middle" x="100.88" y="-174.5" font-family="Helvetica,sans-Serif" font-size="10.00">iostream</text>
</a>
</g>
</g>
<!-- Node1&#45;&gt;Node3 -->
<g id="edge2_Node000001_Node000003" class="edge">
<title>Node1&#45;&gt;Node3</title>
<g id="a_edge2_Node000001_Node000003"><a xlink:title=" ">
<path fill="none" stroke="#63b8ff" d="M293.65,-223.58C255.06,-215.26 197.29,-202.59 138.89,-188.68"/>
<polygon fill="#63b8ff" stroke="#63b8ff" points="140,-185.34 129.46,-186.42 138.37,-192.15 140,-185.34"/>
</a>
</g>
</g>
<!-- Node4 -->
<g id="Node000004" class="node">
<title>Node4</title>
<g id="a_Node000004"><a xlink:title=" ">
<polygon fill="#e0e0e0" stroke="#999999" points="196.5,-188 145.25,-188 145.25,-168 196.5,-168 196.5,-188"/>
<text xml:space="preserve" text-anchor="middle" x="170.88" y="-174.5" font-family="Helvetica,sans-Serif" font-size="10.00">memory</text>
</a>
</g>
</g>
<!-- Node1&#45;&gt;Node4 -->
<g id="edge3_Node000001_Node000004" class="edge">
<title>Node1&#45;&gt;Node4</title>
<g id="a_edge3_Node000001_Node000004"><a xlink:title=" ">
<path fill="none" stroke="#63b8ff" d="M308.79,-223.59C280.65,-214.5 237.93,-200.68 207.5,-190.84"/>
<polygon fill="#63b8ff" stroke="#63b8ff" points="208.92,-187.62 198.33,-187.88 206.77,-194.28 208.92,-187.62"/>
</a>
</g>
</g>
<!-- Node5 -->
<g id="Node000005" class="node">
<title>Node5</title>
<g id="a_Node000005"><a xlink:title=" ">
<polygon fill="#e0e0e0" stroke="#999999" points="559.38,-76 516.38,-76 516.38,-56 559.38,-56 559.38,-76"/>
<text xml:space="preserve" text-anchor="middle" x="537.88" y="-62.5" font-family="Helvetica,sans-Serif" font-size="10.00">vector</text>
</a>
</g>
</g>
<!-- Node1&#45;&gt;Node5 -->
<g id="edge4_Node000001_Node000005" class="edge">
<title>Node1&#45;&gt;Node5</title>
<g id="a_edge4_Node000001_Node000005"><a xlink:title=" ">
<path fill="none" stroke="#63b8ff" d="M350.99,-223.7C375.14,-206.42 428.01,-167.84 469.88,-132 487.99,-116.49 507.56,-97.53 521.04,-84.1"/>
<polygon fill="#63b8ff" stroke="#63b8ff" points="523.29,-86.79 527.87,-77.23 518.33,-81.85 523.29,-86.79"/>
</a>
</g>
</g>
<!-- Node6 -->
<g id="Node000006" class="node">
<title>Node6</title>
<g id="a_Node000006"><a xlink:href="Clock_8hpp.html" target="_top" xlink:title=" ">
<polygon fill="white" stroke="#666666" points="682,-132 621.75,-132 621.75,-112 682,-112 682,-132"/>
<text xml:space="preserve" text-anchor="middle" x="651.88" y="-118.5" font-family="Helvetica,sans-Serif" font-size="10.00">Clock.hpp</text>
</a>
</g>
</g>
<!-- Node1&#45;&gt;Node6 -->
<g id="edge5_Node000001_Node000006" class="edge">
<title>Node1&#45;&gt;Node6</title>
<g id="a_edge5_Node000001_Node000006"><a xlink:title=" ">
<path fill="none" stroke="#63b8ff" d="M382.75,-226.47C423.38,-219.69 484.42,-207.33 534.88,-188 569.12,-174.88 605.61,-153.23 628.56,-138.56"/>
<polygon fill="#63b8ff" stroke="#63b8ff" points="630.35,-141.57 636.83,-133.19 626.54,-135.7 630.35,-141.57"/>
</a>
</g>
</g>
<!-- Node8 -->
<g id="Node000008" class="node">
<title>Node8</title>
<g id="a_Node000008"><a xlink:href="ComponentRegistry_8hpp.html" target="_top" xlink:title=" ">
<polygon fill="white" stroke="#666666" points="429.38,-132 308.38,-132 308.38,-112 429.38,-112 429.38,-132"/>
<text xml:space="preserve" text-anchor="middle" x="368.88" y="-118.5" font-family="Helvetica,sans-Serif" font-size="10.00">ComponentRegistry.hpp</text>
</a>
</g>
</g>
<!-- Node1&#45;&gt;Node8 -->
<g id="edge7_Node000001_Node000008" class="edge">
<title>Node1&#45;&gt;Node8</title>
<g id="a_edge7_Node000001_Node000008"><a xlink:title=" ">
<path fill="none" stroke="#63b8ff" d="M340.52,-223.62C345.51,-205.92 356.41,-167.24 363.15,-143.32"/>
<polygon fill="#63b8ff" stroke="#63b8ff" points="366.48,-144.39 365.83,-133.81 359.75,-142.49 366.48,-144.39"/>
</a>
</g>
</g>
<!-- Node12 -->
<g id="Node000012" class="node">
<title>Node12</title>
<g id="a_Node000012"><a xlink:href="Types_8hpp.html" target="_top" xlink:title="Core type definitions used throughout the ECS (Entity Component System).">
<polygon fill="white" stroke="#666666" points="263.38,-76 202.38,-76 202.38,-56 263.38,-56 263.38,-76"/>
<text xml:space="preserve" text-anchor="middle" x="232.88" y="-62.5" font-family="Helvetica,sans-Serif" font-size="10.00">Types.hpp</text>
</a>
</g>
</g>
<!-- Node1&#45;&gt;Node12 -->
<g id="edge25_Node000001_Node000012" class="edge">
<title>Node1&#45;&gt;Node12</title>
<g id="a_edge25_Node000001_Node000012"><a xlink:title=" ">
<path fill="none" stroke="#63b8ff" d="M312.72,-223.6C296.47,-216.28 276.14,-204.55 263.88,-188 241.57,-157.89 235.25,-113.3 233.5,-87.49"/>
<polygon fill="#63b8ff" stroke="#63b8ff" points="237.01,-87.51 233.02,-77.69 230.01,-87.85 237.01,-87.51"/>
</a>
</g>
</g>
<!-- Node14 -->
<g id="Node000014" class="node">
<title>Node14</title>
<g id="a_Node000014"><a xlink:href="EntityManager_8hpp.html" target="_top" xlink:title=" ">
<polygon fill="white" stroke="#666666" points="797.75,-132 700,-132 700,-112 797.75,-112 797.75,-132"/>
<text xml:space="preserve" text-anchor="middle" x="748.88" y="-118.5" font-family="Helvetica,sans-Serif" font-size="10.00">EntityManager.hpp</text>
</a>
</g>
</g>
<!-- Node1&#45;&gt;Node14 -->
<g id="edge15_Node000001_Node000014" class="edge">
<title>Node1&#45;&gt;Node14</title>
<g id="a_edge15_Node000001_Node000014"><a xlink:title=" ">
<path fill="none" stroke="#63b8ff" d="M383.03,-226.47C430.34,-219.12 506.56,-205.83 570.88,-188 622.51,-173.68 680.49,-151.27 715.85,-136.86"/>
<polygon fill="#63b8ff" stroke="#63b8ff" points="717.17,-140.1 725.09,-133.06 714.51,-133.63 717.17,-140.1"/>
</a>
</g>
</g>
<!-- Node15 -->
<g id="Node000015" class="node">
<title>Node15</title>
<g id="a_Node000015"><a xlink:href="SparseSet_8hpp.html" target="_top" xlink:title=" ">
<polygon fill="white" stroke="#666666" points="604.12,-132 523.62,-132 523.62,-112 604.12,-112 604.12,-132"/>
<text xml:space="preserve" text-anchor="middle" x="563.88" y="-118.5" font-family="Helvetica,sans-Serif" font-size="10.00">SparseSet.hpp</text>
</a>
</g>
</g>
<!-- Node1&#45;&gt;Node15 -->
<g id="edge18_Node000001_Node000015" class="edge">
<title>Node1&#45;&gt;Node15</title>
<g id="a_edge18_Node000001_Node000015"><a xlink:title=" ">
<path fill="none" stroke="#63b8ff" d="M382.93,-228.88C419.52,-223.81 471.2,-212.61 509.88,-188 528.2,-176.34 543.39,-156.42 552.94,-141.7"/>
<polygon fill="#63b8ff" stroke="#63b8ff" points="555.81,-143.73 558.07,-133.38 549.85,-140.06 555.81,-143.73"/>
</a>
</g>
</g>
<!-- Node16 -->
<g id="Node000016" class="node">
<title>Node16</title>
<g id="a_Node000016"><a xlink:href="System_8hpp.html" target="_top" xlink:title=" ">
<polygon fill="white" stroke="#666666" points="341.12,-188 272.62,-188 272.62,-168 341.12,-168 341.12,-188"/>
<text xml:space="preserve" text-anchor="middle" x="306.88" y="-174.5" font-family="Helvetica,sans-Serif" font-size="10.00">System.hpp</text>
</a>
</g>
</g>
<!-- Node1&#45;&gt;Node16 -->
<g id="edge20_Node000001_Node000016" class="edge">
<title>Node1&#45;&gt;Node16</title>
<g id="a_edge20_Node000001_Node000016"><a xlink:title=" ">
<path fill="none" stroke="#63b8ff" d="M332.48,-223.59C328.43,-216.55 322.76,-206.67 317.78,-198"/>
<polygon fill="#63b8ff" stroke="#63b8ff" points="320.98,-196.54 312.97,-189.61 314.91,-200.03 320.98,-196.54"/>
</a>
</g>
</g>
<!-- Node7 -->
<g id="Node000007" class="node">
<title>Node7</title>
<g id="a_Node000007"><a xlink:title=" ">
<polygon fill="#e0e0e0" stroke="#999999" points="674.5,-20 629.25,-20 629.25,0 674.5,0 674.5,-20"/>
<text xml:space="preserve" text-anchor="middle" x="651.88" y="-6.5" font-family="Helvetica,sans-Serif" font-size="10.00">cstdint</text>
</a>
</g>
</g>
<!-- Node6&#45;&gt;Node7 -->
<g id="edge6_Node000006_Node000007" class="edge">
<title>Node6&#45;&gt;Node7</title>
<g id="a_edge6_Node000006_Node000007"><a xlink:title=" ">
<path fill="none" stroke="#63b8ff" d="M651.88,-111.62C651.88,-94.01 651.88,-55.59 651.88,-31.65"/>
<polygon fill="#63b8ff" stroke="#63b8ff" points="655.38,-31.87 651.88,-21.87 648.38,-31.87 655.38,-31.87"/>
</a>
</g>
</g>
<!-- Node8&#45;&gt;Node5 -->
<g id="edge11_Node000008_Node000005" class="edge">
<title>Node8&#45;&gt;Node5</title>
<g id="a_edge11_Node000008_Node000005"><a xlink:title=" ">
<path fill="none" stroke="#63b8ff" d="M398.31,-111.59C428.21,-102.04 474.4,-87.28 505.37,-77.39"/>
<polygon fill="#63b8ff" stroke="#63b8ff" points="506.12,-80.82 514.58,-74.44 503.99,-74.15 506.12,-80.82"/>
</a>
</g>
</g>
<!-- Node9 -->
<g id="Node000009" class="node">
<title>Node9</title>
<g id="a_Node000009"><a xlink:title=" ">
<polygon fill="#e0e0e0" stroke="#999999" points="321.88,-76 281.88,-76 281.88,-56 321.88,-56 321.88,-76"/>
<text xml:space="preserve" text-anchor="middle" x="301.88" y="-62.5" font-family="Helvetica,sans-Serif" font-size="10.00">string</text>
</a>
</g>
</g>
<!-- Node8&#45;&gt;Node9 -->
<g id="edge8_Node000008_Node000009" class="edge">
<title>Node8&#45;&gt;Node9</title>
<g id="a_edge8_Node000008_Node000009"><a xlink:title=" ">
<path fill="none" stroke="#63b8ff" d="M357.2,-111.59C347.6,-103.85 333.75,-92.69 322.31,-83.47"/>
<polygon fill="#63b8ff" stroke="#63b8ff" points="324.57,-80.8 314.59,-77.25 320.18,-86.25 324.57,-80.8"/>
</a>
</g>
</g>
<!-- Node10 -->
<g id="Node000010" class="node">
<title>Node10</title>
<g id="a_Node000010"><a xlink:title=" ">
<polygon fill="#e0e0e0" stroke="#999999" points="397.88,-76 339.88,-76 339.88,-56 397.88,-56 397.88,-76"/>
<text xml:space="preserve" text-anchor="middle" x="368.88" y="-62.5" font-family="Helvetica,sans-Serif" font-size="10.00">typeindex</text>
</a>
</g>
</g>
<!-- Node8&#45;&gt;Node10 -->
<g id="edge9_Node000008_Node000010" class="edge">
<title>Node8&#45;&gt;Node10</title>
<g id="a_edge9_Node000008_Node000010"><a xlink:title=" ">
<path fill="none" stroke="#63b8ff" d="M368.88,-111.59C368.88,-105.01 368.88,-95.96 368.88,-87.73"/>
<polygon fill="#63b8ff" stroke="#63b8ff" points="372.38,-87.81 368.88,-77.81 365.38,-87.81 372.38,-87.81"/>
</a>
</g>
</g>
<!-- Node11 -->
<g id="Node000011" class="node">
<title>Node11</title>
<g id="a_Node000011"><a xlink:title=" ">
<polygon fill="#e0e0e0" stroke="#999999" points="498.25,-76 415.5,-76 415.5,-56 498.25,-56 498.25,-76"/>
<text xml:space="preserve" text-anchor="middle" x="456.88" y="-62.5" font-family="Helvetica,sans-Serif" font-size="10.00">unordered_map</text>
</a>
</g>
</g>
<!-- Node8&#45;&gt;Node11 -->
<g id="edge10_Node000008_Node000011" class="edge">
<title>Node8&#45;&gt;Node11</title>
<g id="a_edge10_Node000008_Node000011"><a xlink:title=" ">
<path fill="none" stroke="#63b8ff" d="M384.2,-111.59C397.37,-103.51 416.61,-91.71 431.98,-82.27"/>
<polygon fill="#63b8ff" stroke="#63b8ff" points="433.44,-85.48 440.14,-77.27 429.78,-79.52 433.44,-85.48"/>
</a>
</g>
</g>
<!-- Node8&#45;&gt;Node12 -->
<g id="edge12_Node000008_Node000012" class="edge">
<title>Node8&#45;&gt;Node12</title>
<g id="a_edge12_Node000008_Node000012"><a xlink:title=" ">
<path fill="none" stroke="#63b8ff" d="M345.19,-111.59C323.67,-103.05 291.67,-90.35 267.33,-80.68"/>
<polygon fill="#63b8ff" stroke="#63b8ff" points="268.74,-77.48 258.16,-77.04 266.16,-83.98 268.74,-77.48"/>
</a>
</g>
</g>
<!-- Node12&#45;&gt;Node7 -->
<g id="edge14_Node000012_Node000007" class="edge">
<title>Node12&#45;&gt;Node7</title>
<g id="a_edge14_Node000012_Node000007"><a xlink:title=" ">
<path fill="none" stroke="#63b8ff" d="M263.82,-57.71C266.87,-57.09 269.93,-56.51 272.88,-56 399.22,-34.34 551.05,-19.72 617.69,-13.87"/>
<polygon fill="#63b8ff" stroke="#63b8ff" points="617.95,-17.36 627.61,-13.01 617.34,-10.38 617.95,-17.36"/>
</a>
</g>
</g>
<!-- Node13 -->
<g id="Node000013" class="node">
<title>Node13</title>
<g id="a_Node000013"><a xlink:title=" ">
<polygon fill="#e0e0e0" stroke="#999999" points="252.88,-20 212.88,-20 212.88,0 252.88,0 252.88,-20"/>
<text xml:space="preserve" text-anchor="middle" x="232.88" y="-6.5" font-family="Helvetica,sans-Serif" font-size="10.00">bitset</text>
</a>
</g>
</g>
<!-- Node12&#45;&gt;Node13 -->
<g id="edge13_Node000012_Node000013" class="edge">
<title>Node12&#45;&gt;Node13</title>
<g id="a_edge13_Node000012_Node000013"><a xlink:title=" ">
<path fill="none" stroke="#63b8ff" d="M232.88,-55.59C232.88,-49.01 232.88,-39.96 232.88,-31.73"/>
<polygon fill="#63b8ff" stroke="#63b8ff" points="236.38,-31.81 232.88,-21.81 229.38,-31.81 236.38,-31.81"/>
</a>
</g>
</g>
<!-- Node14&#45;&gt;Node5 -->
<g id="edge17_Node000014_Node000005" class="edge">
<title>Node14&#45;&gt;Node5</title>
<g id="a_edge17_Node000014_Node000005"><a xlink:title=" ">
<path fill="none" stroke="#63b8ff" d="M712.12,-111.59C672.21,-101.38 609.05,-85.21 570.73,-75.41"/>
<polygon fill="#63b8ff" stroke="#63b8ff" points="571.71,-72.05 561.16,-72.96 569.98,-78.83 571.71,-72.05"/>
</a>
</g>
</g>
<!-- Node14&#45;&gt;Node7 -->
<g id="edge16_Node000014_Node000007" class="edge">
<title>Node14&#45;&gt;Node7</title>
<g id="a_edge16_Node000014_Node000007"><a xlink:title=" ">
<path fill="none" stroke="#63b8ff" d="M740.6,-111.62C724.43,-93.27 688.36,-52.37 667.53,-28.75"/>
<polygon fill="#63b8ff" stroke="#63b8ff" points="670.36,-26.68 661.13,-21.49 665.11,-31.31 670.36,-26.68"/>
</a>
</g>
</g>
<!-- Node15&#45;&gt;Node5 -->
<g id="edge19_Node000015_Node000005" class="edge">
<title>Node15&#45;&gt;Node5</title>
<g id="a_edge19_Node000015_Node000005"><a xlink:title=" ">
<path fill="none" stroke="#63b8ff" d="M559.35,-111.59C556.03,-104.7 551.41,-95.1 547.3,-86.57"/>
<polygon fill="#63b8ff" stroke="#63b8ff" points="550.5,-85.15 543.01,-77.66 544.19,-88.19 550.5,-85.15"/>
</a>
</g>
</g>
<!-- Node16&#45;&gt;Node5 -->
<g id="edge22_Node000016_Node000005" class="edge">
<title>Node16&#45;&gt;Node5</title>
<g id="a_edge22_Node000016_Node000005"><a xlink:title=" ">
<path fill="none" stroke="#63b8ff" d="M341.46,-167.82C368.65,-159.98 407.12,-147.53 438.88,-132 467.19,-118.16 497.09,-97.59 516.52,-83.31"/>
<polygon fill="#63b8ff" stroke="#63b8ff" points="518.54,-86.18 524.46,-77.39 514.35,-80.57 518.54,-86.18"/>
</a>
</g>
</g>
<!-- Node16&#45;&gt;Node8 -->
<g id="edge23_Node000016_Node000008" class="edge">
<title>Node16&#45;&gt;Node8</title>
<g id="a_edge23_Node000016_Node000008"><a xlink:title=" ">
<path fill="none" stroke="#63b8ff" d="M317.67,-167.59C326.48,-159.93 339.13,-148.91 349.65,-139.75"/>
<polygon fill="#63b8ff" stroke="#63b8ff" points="351.82,-142.5 357.06,-133.29 347.22,-137.22 351.82,-142.5"/>
</a>
</g>
</g>
<!-- Node16&#45;&gt;Node9 -->
<g id="edge21_Node000016_Node000009" class="edge">
<title>Node16&#45;&gt;Node9</title>
<g id="a_edge21_Node000016_Node000009"><a xlink:title=" ">
<path fill="none" stroke="#63b8ff" d="M305.01,-167.74C303.28,-158.68 300.84,-144.46 299.88,-132 298.73,-117.14 299.29,-100.32 300.11,-87.52"/>
<polygon fill="#63b8ff" stroke="#63b8ff" points="303.59,-88.02 300.85,-77.78 296.61,-87.49 303.59,-88.02"/>
</a>
</g>
</g>
<!-- Node16&#45;&gt;Node12 -->
<g id="edge24_Node000016_Node000012" class="edge">
<title>Node16&#45;&gt;Node12</title>
<g id="a_edge24_Node000016_Node000012"><a xlink:title=" ">
<path fill="none" stroke="#63b8ff" d="M300.57,-167.62C288.39,-149.52 261.43,-109.45 245.46,-85.7"/>
<polygon fill="#63b8ff" stroke="#63b8ff" points="248.5,-83.95 240.01,-77.61 242.69,-87.86 248.5,-83.95"/>
</a>
</g>
</g>
</g>
</svg>
