<?xml version="1.0" encoding="UTF-8" standalone="no"?>
<!DOCTYPE svg PUBLIC "-//W3C//DTD SVG 1.1//EN"
 "http://www.w3.org/Graphics/SVG/1.1/DTD/svg11.dtd">
<!-- Generated by graphviz version 14.0.1 (0)
 -->
<!-- Title: ecs/Registry.hpp Pages: 1 -->
<svg width="659pt" height="252pt"
 viewBox="0.00 0.00 659.00 252.00" xmlns="http://www.w3.org/2000/svg" xmlns:xlink="http://www.w3.org/1999/xlink">
<g id="graph0" class="graph" transform="scale(1 1) rotate(0) translate(4 248)">
<title>ecs/Registry.hpp</title>
<!-- Node1 -->
<g id="Node000001" class="node">
<title>Node1</title>
<g id="a_Node000001"><a xlink:title=" ">
<polygon fill="#999999" stroke="#666666" points="432.25,-244 342.75,-244 342.75,-224 432.25,-224 432.25,-244"/>
<text xml:space="preserve" text-anchor="middle" x="387.5" y="-230.5" font-family="Helvetica,sans-Serif" font-size="10.00">ecs/Registry.hpp</text>
</a>
</g>
</g>
<!-- Node2 -->
<g id="Node000002" class="node">
<title>Node2</title>
<g id="a_Node000002"><a xlink:href="Types_8hpp.html" target="_top" xlink:title="Core type definitions used throughout the ECS (Entity Component System).">
<polygon fill="white" stroke="#666666" points="61,-76 0,-76 0,-56 61,-56 61,-76"/>
<text xml:space="preserve" text-anchor="middle" x="30.5" y="-62.5" font-family="Helvetica,sans-Serif" font-size="10.00">Types.hpp</text>
</a>
</g>
</g>
<!-- Node1&#45;&gt;Node2 -->
<g id="edge1_Node000001_Node000002" class="edge">
<title>Node1&#45;&gt;Node2</title>
<g id="a_edge1_Node000001_Node000002"><a xlink:title=" ">
<path fill="none" stroke="#63b8ff" d="M342.29,-229.17C291.02,-223.87 205.47,-212.07 135.5,-188 85.12,-170.67 57,-177.63 29.5,-132 21.47,-118.68 22.38,-100.86 24.92,-87.25"/>
<polygon fill="#63b8ff" stroke="#63b8ff" points="28.3,-88.19 27.17,-77.66 21.48,-86.6 28.3,-88.19"/>
</a>
</g>
</g>
<!-- Node5 -->
<g id="Node000005" class="node">
<title>Node5</title>
<g id="a_Node000005"><a xlink:href="ComponentRegistry_8hpp.html" target="_top" xlink:title=" ">
<polygon fill="white" stroke="#666666" points="174,-132 53,-132 53,-112 174,-112 174,-132"/>
<text xml:space="preserve" text-anchor="middle" x="113.5" y="-118.5" font-family="Helvetica,sans-Serif" font-size="10.00">ComponentRegistry.hpp</text>
</a>
</g>
</g>
<!-- Node1&#45;&gt;Node5 -->
<g id="edge4_Node000001_Node000005" class="edge">
<title>Node1&#45;&gt;Node5</title>
<g id="a_edge4_Node000001_Node000005"><a xlink:title=" ">
<path fill="none" stroke="#63b8ff" d="M342.29,-233.69C293.46,-232.38 215.2,-224.09 159.5,-188 142.49,-176.98 129.87,-157.26 122.2,-142.42"/>
<polygon fill="#63b8ff" stroke="#63b8ff" points="125.45,-141.11 117.96,-133.61 119.14,-144.14 125.45,-141.11"/>
</a>
</g>
</g>
<!-- Node6 -->
<g id="Node000006" class="node">
<title>Node6</title>
<g id="a_Node000006"><a xlink:title=" ">
<polygon fill="#e0e0e0" stroke="#999999" points="330,-76 287,-76 287,-56 330,-56 330,-76"/>
<text xml:space="preserve" text-anchor="middle" x="308.5" y="-62.5" font-family="Helvetica,sans-Serif" font-size="10.00">vector</text>
</a>
</g>
</g>
<!-- Node1&#45;&gt;Node6 -->
<g id="edge19_Node000001_Node000006" class="edge">
<title>Node1&#45;&gt;Node6</title>
<g id="a_edge19_Node000001_Node000006"><a xlink:title=" ">
<path fill="none" stroke="#63b8ff" d="M386.99,-223.51C385.47,-202.14 379.59,-149.23 357.5,-112 350.96,-100.97 340.88,-91.05 331.56,-83.34"/>
<polygon fill="#63b8ff" stroke="#63b8ff" points="333.89,-80.72 323.84,-77.35 329.59,-86.25 333.89,-80.72"/>
</a>
</g>
</g>
<!-- Node9 -->
<g id="Node000009" class="node">
<title>Node9</title>
<g id="a_Node000009"><a xlink:href="System_8hpp.html" target="_top" xlink:title=" ">
<polygon fill="white" stroke="#666666" points="236.75,-188 168.25,-188 168.25,-168 236.75,-168 236.75,-188"/>
<text xml:space="preserve" text-anchor="middle" x="202.5" y="-174.5" font-family="Helvetica,sans-Serif" font-size="10.00">System.hpp</text>
</a>
</g>
</g>
<!-- Node1&#45;&gt;Node9 -->
<g id="edge9_Node000001_Node000009" class="edge">
<title>Node1&#45;&gt;Node9</title>
<g id="a_edge9_Node000001_Node000009"><a xlink:title=" ">
<path fill="none" stroke="#63b8ff" d="M355.28,-223.59C324.95,-214.74 279.33,-201.43 245.83,-191.65"/>
<polygon fill="#63b8ff" stroke="#63b8ff" points="247.01,-188.35 236.43,-188.9 245.05,-195.07 247.01,-188.35"/>
</a>
</g>
</g>
<!-- Node10 -->
<g id="Node000010" class="node">
<title>Node10</title>
<g id="a_Node000010"><a xlink:href="EntityManager_8hpp.html" target="_top" xlink:title=" ">
<polygon fill="white" stroke="#666666" points="502.38,-132 404.62,-132 404.62,-112 502.38,-112 502.38,-132"/>
<text xml:space="preserve" text-anchor="middle" x="453.5" y="-118.5" font-family="Helvetica,sans-Serif" font-size="10.00">EntityManager.hpp</text>
</a>
</g>
</g>
<!-- Node1&#45;&gt;Node10 -->
<g id="edge14_Node000001_Node000010" class="edge">
<title>Node1&#45;&gt;Node10</title>
<g id="a_edge14_Node000001_Node000010"><a xlink:title=" ">
<path fill="none" stroke="#63b8ff" d="M392.83,-223.7C400.11,-211.03 413.62,-187.7 425.5,-168 430.72,-159.34 436.62,-149.83 441.65,-141.79"/>
<polygon fill="#63b8ff" stroke="#63b8ff" points="444.47,-143.87 446.83,-133.54 438.55,-140.15 444.47,-143.87"/>
</a>
</g>
</g>
<!-- Node11 -->
<g id="Node000011" class="node">
<title>Node11</title>
<g id="a_Node000011"><a xlink:href="SparseSet_8hpp.html" target="_top" xlink:title=" ">
<polygon fill="white" stroke="#666666" points="348.75,-132 268.25,-132 268.25,-112 348.75,-112 348.75,-132"/>
<text xml:space="preserve" text-anchor="middle" x="308.5" y="-118.5" font-family="Helvetica,sans-Serif" font-size="10.00">SparseSet.hpp</text>
</a>
</g>
</g>
<!-- Node1&#45;&gt;Node11 -->
<g id="edge17_Node000001_Node000011" class="edge">
<title>Node1&#45;&gt;Node11</title>
<g id="a_edge17_Node000001_Node000011"><a xlink:title=" ">
<path fill="none" stroke="#63b8ff" d="M380.63,-223.73C373.92,-214.65 363.45,-200.42 354.5,-188 343.28,-172.42 330.69,-154.62 321.53,-141.59"/>
<polygon fill="#63b8ff" stroke="#63b8ff" points="324.48,-139.7 315.87,-133.53 318.75,-143.73 324.48,-139.7"/>
</a>
</g>
</g>
<!-- Node12 -->
<g id="Node000012" class="node">
<title>Node12</title>
<g id="a_Node000012"><a xlink:title=" ">
<polygon fill="#e0e0e0" stroke="#999999" points="486.12,-188 434.88,-188 434.88,-168 486.12,-168 486.12,-188"/>
<text xml:space="preserve" text-anchor="middle" x="460.5" y="-174.5" font-family="Helvetica,sans-Serif" font-size="10.00">memory</text>
</a>
</g>
</g>
<!-- Node1&#45;&gt;Node12 -->
<g id="edge20_Node000001_Node000012" class="edge">
<title>Node1&#45;&gt;Node12</title>
<g id="a_edge20_Node000001_Node000012"><a xlink:title=" ">
<path fill="none" stroke="#63b8ff" d="M400.22,-223.59C410.89,-215.7 426.38,-204.24 438.98,-194.92"/>
<polygon fill="#63b8ff" stroke="#63b8ff" points="440.76,-197.96 446.71,-189.2 436.59,-192.33 440.76,-197.96"/>
</a>
</g>
</g>
<!-- Node13 -->
<g id="Node000013" class="node">
<title>Node13</title>
<g id="a_Node000013"><a xlink:title=" ">
<polygon fill="#e0e0e0" stroke="#999999" points="560.38,-188 504.62,-188 504.62,-168 560.38,-168 560.38,-188"/>
<text xml:space="preserve" text-anchor="middle" x="532.5" y="-174.5" font-family="Helvetica,sans-Serif" font-size="10.00">algorithm</text>
</a>
</g>
</g>
<!-- Node1&#45;&gt;Node13 -->
<g id="edge21_Node000001_Node000013" class="edge">
<title>Node1&#45;&gt;Node13</title>
<g id="a_edge21_Node000001_Node000013"><a xlink:title=" ">
<path fill="none" stroke="#63b8ff" d="M412.76,-223.59C435.9,-214.97 470.42,-202.12 496.46,-192.42"/>
<polygon fill="#63b8ff" stroke="#63b8ff" points="497.48,-195.78 505.63,-189.01 495.03,-189.22 497.48,-195.78"/>
</a>
</g>
</g>
<!-- Node14 -->
<g id="Node000014" class="node">
<title>Node14</title>
<g id="a_Node000014"><a xlink:title=" ">
<polygon fill="#e0e0e0" stroke="#999999" points="632.25,-188 578.75,-188 578.75,-168 632.25,-168 632.25,-188"/>
<text xml:space="preserve" text-anchor="middle" x="605.5" y="-174.5" font-family="Helvetica,sans-Serif" font-size="10.00">iostream</text>
</a>
</g>
</g>
<!-- Node1&#45;&gt;Node14 -->
<g id="edge22_Node000001_Node000014" class="edge">
<title>Node1&#45;&gt;Node14</title>
<g id="a_edge22_Node000001_Node000014"><a xlink:title=" ">
<path fill="none" stroke="#63b8ff" d="M425.85,-223.55C460.39,-215.03 512.84,-202.08 567.43,-188.51"/>
<polygon fill="#63b8ff" stroke="#63b8ff" points="568.05,-191.96 576.91,-186.15 566.36,-185.17 568.05,-191.96"/>
</a>
</g>
</g>
<!-- Node15 -->
<g id="Node000015" class="node">
<title>Node15</title>
<g id="a_Node000015"><a xlink:href="Clock_8hpp.html" target="_top" xlink:title=" ">
<polygon fill="white" stroke="#666666" points="650.62,-132 590.38,-132 590.38,-112 650.62,-112 650.62,-132"/>
<text xml:space="preserve" text-anchor="middle" x="620.5" y="-118.5" font-family="Helvetica,sans-Serif" font-size="10.00">Clock.hpp</text>
</a>
</g>
</g>
<!-- Node1&#45;&gt;Node15 -->
<g id="edge23_Node000001_Node000015" class="edge">
<title>Node1&#45;&gt;Node15</title>
<g id="a_edge23_Node000001_Node000015"><a xlink:title=" ">
<path fill="none" stroke="#63b8ff" d="M432.61,-231.71C498.31,-228.77 615.35,-219.19 641.5,-188 652.54,-174.84 644.36,-155.76 635.18,-141.68"/>
<polygon fill="#63b8ff" stroke="#63b8ff" points="638.13,-139.78 629.46,-133.69 632.44,-143.86 638.13,-139.78"/>
</a>
</g>
</g>
<!-- Node3 -->
<g id="Node000003" class="node">
<title>Node3</title>
<g id="a_Node000003"><a xlink:title=" ">
<polygon fill="#e0e0e0" stroke="#999999" points="476.12,-20 430.88,-20 430.88,0 476.12,0 476.12,-20"/>
<text xml:space="preserve" text-anchor="middle" x="453.5" y="-6.5" font-family="Helvetica,sans-Serif" font-size="10.00">cstdint</text>
</a>
</g>
</g>
<!-- Node2&#45;&gt;Node3 -->
<g id="edge2_Node000002_Node000003" class="edge">
<title>Node2&#45;&gt;Node3</title>
<g id="a_edge2_Node000002_Node000003"><a xlink:title=" ">
<path fill="none" stroke="#63b8ff" d="M61.43,-58.48C66.13,-57.59 70.94,-56.73 75.5,-56 201.46,-35.94 352.32,-20.55 418.96,-14.19"/>
<polygon fill="#63b8ff" stroke="#63b8ff" points="419.27,-17.68 428.89,-13.25 418.61,-10.71 419.27,-17.68"/>
</a>
</g>
</g>
<!-- Node4 -->
<g id="Node000004" class="node">
<title>Node4</title>
<g id="a_Node000004"><a xlink:title=" ">
<polygon fill="#e0e0e0" stroke="#999999" points="50.5,-20 10.5,-20 10.5,0 50.5,0 50.5,-20"/>
<text xml:space="preserve" text-anchor="middle" x="30.5" y="-6.5" font-family="Helvetica,sans-Serif" font-size="10.00">bitset</text>
</a>
</g>
</g>
<!-- Node2&#45;&gt;Node4 -->
<g id="edge3_Node000002_Node000004" class="edge">
<title>Node2&#45;&gt;Node4</title>
<g id="a_edge3_Node000002_Node000004"><a xlink:title=" ">
<path fill="none" stroke="#63b8ff" d="M30.5,-55.59C30.5,-49.01 30.5,-39.96 30.5,-31.73"/>
<polygon fill="#63b8ff" stroke="#63b8ff" points="34,-31.81 30.5,-21.81 27,-31.81 34,-31.81"/>
</a>
</g>
</g>
<!-- Node5&#45;&gt;Node2 -->
<g id="edge5_Node000005_Node000002" class="edge">
<title>Node5&#45;&gt;Node2</title>
<g id="a_edge5_Node000005_Node000002"><a xlink:title=" ">
<path fill="none" stroke="#63b8ff" d="M99.04,-111.59C86.74,-103.59 68.82,-91.93 54.39,-82.54"/>
<polygon fill="#63b8ff" stroke="#63b8ff" points="56.63,-79.82 46.34,-77.3 52.81,-85.69 56.63,-79.82"/>
</a>
</g>
</g>
<!-- Node5&#45;&gt;Node6 -->
<g id="edge6_Node000005_Node000006" class="edge">
<title>Node5&#45;&gt;Node6</title>
<g id="a_edge6_Node000005_Node000006"><a xlink:title=" ">
<path fill="none" stroke="#63b8ff" d="M147.47,-111.59C183.6,-101.59 240.36,-85.87 275.95,-76.01"/>
<polygon fill="#63b8ff" stroke="#63b8ff" points="276.54,-79.48 285.25,-73.44 274.67,-72.74 276.54,-79.48"/>
</a>
</g>
</g>
<!-- Node7 -->
<g id="Node000007" class="node">
<title>Node7</title>
<g id="a_Node000007"><a xlink:title=" ">
<polygon fill="#e0e0e0" stroke="#999999" points="142.5,-76 84.5,-76 84.5,-56 142.5,-56 142.5,-76"/>
<text xml:space="preserve" text-anchor="middle" x="113.5" y="-62.5" font-family="Helvetica,sans-Serif" font-size="10.00">typeindex</text>
</a>
</g>
</g>
<!-- Node5&#45;&gt;Node7 -->
<g id="edge7_Node000005_Node000007" class="edge">
<title>Node5&#45;&gt;Node7</title>
<g id="a_edge7_Node000005_Node000007"><a xlink:title=" ">
<path fill="none" stroke="#63b8ff" d="M113.5,-111.59C113.5,-105.01 113.5,-95.96 113.5,-87.73"/>
<polygon fill="#63b8ff" stroke="#63b8ff" points="117,-87.81 113.5,-77.81 110,-87.81 117,-87.81"/>
</a>
</g>
</g>
<!-- Node8 -->
<g id="Node000008" class="node">
<title>Node8</title>
<g id="a_Node000008"><a xlink:title=" ">
<polygon fill="#e0e0e0" stroke="#999999" points="211.5,-76 171.5,-76 171.5,-56 211.5,-56 211.5,-76"/>
<text xml:space="preserve" text-anchor="middle" x="191.5" y="-62.5" font-family="Helvetica,sans-Serif" font-size="10.00">string</text>
</a>
</g>
</g>
<!-- Node5&#45;&gt;Node8 -->
<g id="edge8_Node000005_Node000008" class="edge">
<title>Node5&#45;&gt;Node8</title>
<g id="a_edge8_Node000005_Node000008"><a xlink:title=" ">
<path fill="none" stroke="#63b8ff" d="M127.09,-111.59C138.54,-103.67 155.16,-92.16 168.66,-82.82"/>
<polygon fill="#63b8ff" stroke="#63b8ff" points="170.33,-85.91 176.56,-77.34 166.35,-80.16 170.33,-85.91"/>
</a>
</g>
</g>
<!-- Node9&#45;&gt;Node2 -->
<g id="edge10_Node000009_Node000002" class="edge">
<title>Node9&#45;&gt;Node2</title>
<g id="a_edge10_Node000009_Node000002"><a xlink:title=" ">
<path fill="none" stroke="#63b8ff" d="M168.03,-177.13C131.71,-175.3 75.44,-166.55 43.5,-132 32.5,-120.1 29.67,-101.64 29.35,-87.42"/>
<polygon fill="#63b8ff" stroke="#63b8ff" points="32.84,-87.88 29.54,-77.81 25.84,-87.74 32.84,-87.88"/>
</a>
</g>
</g>
<!-- Node9&#45;&gt;Node5 -->
<g id="edge11_Node000009_Node000005" class="edge">
<title>Node9&#45;&gt;Node5</title>
<g id="a_edge11_Node000009_Node000005"><a xlink:title=" ">
<path fill="none" stroke="#63b8ff" d="M187,-167.59C173.68,-159.51 154.22,-147.71 138.67,-138.27"/>
<polygon fill="#63b8ff" stroke="#63b8ff" points="140.78,-135.46 130.42,-133.26 137.15,-141.44 140.78,-135.46"/>
</a>
</g>
</g>
<!-- Node9&#45;&gt;Node6 -->
<g id="edge13_Node000009_Node000006" class="edge">
<title>Node9&#45;&gt;Node6</title>
<g id="a_edge13_Node000009_Node000006"><a xlink:title=" ">
<path fill="none" stroke="#63b8ff" d="M209.95,-167.9C220.56,-155.07 240.83,-131.11 259.5,-112 268.95,-102.34 279.99,-92.11 289.2,-83.85"/>
<polygon fill="#63b8ff" stroke="#63b8ff" points="291.38,-86.59 296.54,-77.34 286.74,-81.35 291.38,-86.59"/>
</a>
</g>
</g>
<!-- Node9&#45;&gt;Node8 -->
<g id="edge12_Node000009_Node000008" class="edge">
<title>Node9&#45;&gt;Node8</title>
<g id="a_edge12_Node000009_Node000008"><a xlink:title=" ">
<path fill="none" stroke="#63b8ff" d="M201.56,-167.62C199.8,-150.01 195.96,-111.59 193.57,-87.65"/>
<polygon fill="#63b8ff" stroke="#63b8ff" points="197.06,-87.46 192.59,-77.86 190.1,-88.16 197.06,-87.46"/>
</a>
</g>
</g>
<!-- Node10&#45;&gt;Node3 -->
<g id="edge16_Node000010_Node000003" class="edge">
<title>Node10&#45;&gt;Node3</title>
<g id="a_edge16_Node000010_Node000003"><a xlink:title=" ">
<path fill="none" stroke="#63b8ff" d="M453.5,-111.62C453.5,-94.01 453.5,-55.59 453.5,-31.65"/>
<polygon fill="#63b8ff" stroke="#63b8ff" points="457,-31.87 453.5,-21.87 450,-31.87 457,-31.87"/>
</a>
</g>
</g>
<!-- Node10&#45;&gt;Node6 -->
<g id="edge15_Node000010_Node000006" class="edge">
<title>Node10&#45;&gt;Node6</title>
<g id="a_edge15_Node000010_Node000006"><a xlink:title=" ">
<path fill="none" stroke="#63b8ff" d="M428.24,-111.59C403.96,-102.55 367.16,-88.85 340.77,-79.02"/>
<polygon fill="#63b8ff" stroke="#63b8ff" points="342.17,-75.8 331.58,-75.59 339.73,-82.36 342.17,-75.8"/>
</a>
</g>
</g>
<!-- Node11&#45;&gt;Node6 -->
<g id="edge18_Node000011_Node000006" class="edge">
<title>Node11&#45;&gt;Node6</title>
<g id="a_edge18_Node000011_Node000006"><a xlink:title=" ">
<path fill="none" stroke="#63b8ff" d="M308.5,-111.59C308.5,-105.01 308.5,-95.96 308.5,-87.73"/>
<polygon fill="#63b8ff" stroke="#63b8ff" points="312,-87.81 308.5,-77.81 305,-87.81 312,-87.81"/>
</a>
</g>
</g>
<!-- Node15&#45;&gt;Node3 -->
<g id="edge24_Node000015_Node000003" class="edge">
<title>Node15&#45;&gt;Node3</title>
<g id="a_edge24_Node000015_Node000003"><a xlink:title=" ">
<path fill="none" stroke="#63b8ff" d="M606.26,-111.62C577.55,-92.71 512.43,-49.82 477.2,-26.61"/>
<polygon fill="#63b8ff" stroke="#63b8ff" points="479.24,-23.77 468.97,-21.19 475.39,-29.61 479.24,-23.77"/>
</a>
</g>
</g>
</g>
</svg>
