<?xml version="1.0" encoding="UTF-8" standalone="no"?>
<!DOCTYPE svg PUBLIC "-//W3C//DTD SVG 1.1//EN"
 "http://www.w3.org/Graphics/SVG/1.1/DTD/svg11.dtd">
<!-- Generated by graphviz version 14.0.1 (0)
 -->
<!-- Title: components/renderable/src/Renderable.hpp Pages: 1 -->
<svg width="244pt" height="96pt"
 viewBox="0.00 0.00 244.00 96.00" xmlns="http://www.w3.org/2000/svg" xmlns:xlink="http://www.w3.org/1999/xlink">
<g id="graph0" class="graph" transform="scale(1 1) rotate(0) translate(4 92)">
<title>components/renderable/src/Renderable.hpp</title>
<!-- Node1 -->
<g id="Node000001" class="node">
<title>Node1</title>
<g id="a_Node000001"><a xlink:title=" ">
<polygon fill="#999999" stroke="#666666" points="151.75,-88 34.5,-88 34.5,-56 151.75,-56 151.75,-88"/>
<text xml:space="preserve" text-anchor="start" x="42.5" y="-74.5" font-family="Helvetica,sans-Serif" font-size="10.00">components/renderable</text>
<text xml:space="preserve" text-anchor="middle" x="93.12" y="-62.5" font-family="Helvetica,sans-Serif" font-size="10.00">/src/Renderable.hpp</text>
</a>
</g>
</g>
<!-- Node2 -->
<g id="Node000002" class="node">
<title>Node2</title>
<g id="a_Node000002"><a xlink:title=" ">
<polygon fill="#e0e0e0" stroke="#999999" points="48.25,-20 0,-20 0,0 48.25,0 48.25,-20"/>
<text xml:space="preserve" text-anchor="middle" x="24.12" y="-6.5" font-family="Helvetica,sans-Serif" font-size="10.00">cstddef</text>
</a>
</g>
</g>
<!-- Node1&#45;&gt;Node2 -->
<g id="edge1_Node000001_Node000002" class="edge">
<title>Node1&#45;&gt;Node2</title>
<g id="a_edge1_Node000001_Node000002"><a xlink:title=" ">
<path fill="none" stroke="#63b8ff" d="M75.36,-55.55C65.57,-47.04 53.42,-36.48 43.41,-27.77"/>
<polygon fill="#63b8ff" stroke="#63b8ff" points="45.93,-25.32 36.09,-21.4 41.34,-30.6 45.93,-25.32"/>
</a>
</g>
</g>
<!-- Node3 -->
<g id="Node000003" class="node">
<title>Node3</title>
<g id="a_Node000003"><a xlink:title=" ">
<polygon fill="#e0e0e0" stroke="#999999" points="119.88,-20 66.38,-20 66.38,0 119.88,0 119.88,-20"/>
<text xml:space="preserve" text-anchor="middle" x="93.12" y="-6.5" font-family="Helvetica,sans-Serif" font-size="10.00">iostream</text>
</a>
</g>
</g>
<!-- Node1&#45;&gt;Node3 -->
<g id="edge2_Node000001_Node000003" class="edge">
<title>Node1&#45;&gt;Node3</title>
<g id="a_edge2_Node000001_Node000003"><a xlink:title=" ">
<path fill="none" stroke="#63b8ff" d="M93.12,-55.55C93.12,-48.34 93.12,-39.66 93.12,-31.88"/>
<polygon fill="#63b8ff" stroke="#63b8ff" points="96.63,-31.92 93.13,-21.92 89.63,-31.92 96.63,-31.92"/>
</a>
</g>
</g>
<!-- Node4 -->
<g id="Node000004" class="node">
<title>Node4</title>
<g id="a_Node000004"><a xlink:href="utils_8hpp.html" target="_top" xlink:title=" ">
<polygon fill="white" stroke="#666666" points="236.38,-20 137.88,-20 137.88,0 236.38,0 236.38,-20"/>
<text xml:space="preserve" text-anchor="middle" x="187.12" y="-6.5" font-family="Helvetica,sans-Serif" font-size="10.00">../../../ecs/utils.hpp</text>
</a>
</g>
</g>
<!-- Node1&#45;&gt;Node4 -->
<g id="edge3_Node000001_Node000004" class="edge">
<title>Node1&#45;&gt;Node4</title>
<g id="a_edge3_Node000001_Node000004"><a xlink:title=" ">
<path fill="none" stroke="#63b8ff" d="M117.33,-55.55C131.34,-46.61 148.91,-35.39 162.92,-26.45"/>
<polygon fill="#63b8ff" stroke="#63b8ff" points="164.56,-29.55 171.11,-21.22 160.8,-23.65 164.56,-29.55"/>
</a>
</g>
</g>
</g>
</svg>
