<?xml version="1.0" encoding="UTF-8" standalone="no"?>
<!DOCTYPE svg PUBLIC "-//W3C//DTD SVG 1.1//EN"
 "http://www.w3.org/Graphics/SVG/1.1/DTD/svg11.dtd">
<!-- Generated by graphviz version 14.0.2 (0)
 -->
<!-- Title: components/renderable/src/Renderable.hpp Pages: 1 -->
<svg width="776pt" height="176pt"
 viewBox="0.00 0.00 776.00 176.00" xmlns="http://www.w3.org/2000/svg" xmlns:xlink="http://www.w3.org/1999/xlink">
<g id="graph0" class="graph" transform="scale(1 1) rotate(0) translate(4 172)">
<title>components/renderable/src/Renderable.hpp</title>
<!-- Node1 -->
<g id="Node000001" class="node">
<title>Node1</title>
<g id="a_Node000001"><a xlink:title=" ">
<polygon fill="#999999" stroke="#666666" points="457,-168 339.75,-168 339.75,-136 457,-136 457,-168"/>
<text xml:space="preserve" text-anchor="start" x="347.75" y="-154.5" font-family="Helvetica,sans-Serif" font-size="10.00">components/renderable</text>
<text xml:space="preserve" text-anchor="middle" x="398.38" y="-142.5" font-family="Helvetica,sans-Serif" font-size="10.00">/src/Renderable.hpp</text>
</a>
</g>
</g>
<!-- Node2 -->
<g id="Node000002" class="node">
<title>Node2</title>
<g id="a_Node000002"><a xlink:href="FPInputHandler_8hpp.html" target="_top" xlink:title=" ">
<polygon fill="white" stroke="#666666" points="124.75,-100 0,-100 0,-68 124.75,-68 124.75,-100"/>
<text xml:space="preserve" text-anchor="start" x="8" y="-86.5" font-family="Helvetica,sans-Serif" font-size="10.00">systems/FPInputHandler</text>
<text xml:space="preserve" text-anchor="middle" x="62.38" y="-74.5" font-family="Helvetica,sans-Serif" font-size="10.00">/src/FPInputHandler.hpp</text>
</a>
</g>
</g>
<!-- Node1&#45;&gt;Node2 -->
<g id="edge1_Node000001_Node000002" class="edge">
<title>Node1&#45;&gt;Node2</title>
<g id="a_edge1_Node000001_Node000002"><a xlink:title=" ">
<path fill="none" stroke="#63b8ff" d="M328.33,-137.76C275.09,-127.62 200.07,-113.19 134.38,-100 131.37,-99.4 128.3,-98.77 125.19,-98.14"/>
<polygon fill="#63b8ff" stroke="#63b8ff" points="327.38,-141.14 337.86,-139.57 328.69,-134.26 327.38,-141.14"/>
</a>
</g>
</g>
<!-- Node4 -->
<g id="Node000004" class="node">
<title>Node4</title>
<g id="a_Node000004"><a xlink:href="FPMotion_8hpp.html" target="_top" xlink:title=" ">
<polygon fill="white" stroke="#666666" points="257.88,-100 142.88,-100 142.88,-68 257.88,-68 257.88,-100"/>
<text xml:space="preserve" text-anchor="start" x="150.88" y="-86.5" font-family="Helvetica,sans-Serif" font-size="10.00">systems/FPMotion/src</text>
<text xml:space="preserve" text-anchor="middle" x="200.38" y="-74.5" font-family="Helvetica,sans-Serif" font-size="10.00">/FPMotion.hpp</text>
</a>
</g>
</g>
<!-- Node1&#45;&gt;Node4 -->
<g id="edge3_Node000001_Node000004" class="edge">
<title>Node1&#45;&gt;Node4</title>
<g id="a_edge3_Node000001_Node000004"><a xlink:title=" ">
<path fill="none" stroke="#63b8ff" d="M341.23,-131.95C311.27,-121.97 275.06,-109.89 246.85,-100.49"/>
<polygon fill="#63b8ff" stroke="#63b8ff" points="339.92,-135.21 350.52,-135.05 342.14,-128.56 339.92,-135.21"/>
</a>
</g>
</g>
<!-- Node6 -->
<g id="Node000006" class="node">
<title>Node6</title>
<g id="a_Node000006"><a xlink:href="Animation_8hpp.html" target="_top" xlink:title=" ">
<polygon fill="white" stroke="#666666" points="390.88,-100 275.88,-100 275.88,-68 390.88,-68 390.88,-100"/>
<text xml:space="preserve" text-anchor="start" x="283.88" y="-86.5" font-family="Helvetica,sans-Serif" font-size="10.00">systems/animation/src</text>
<text xml:space="preserve" text-anchor="middle" x="333.38" y="-74.5" font-family="Helvetica,sans-Serif" font-size="10.00">/Animation.hpp</text>
</a>
</g>
</g>
<!-- Node1&#45;&gt;Node6 -->
<g id="edge5_Node000001_Node000006" class="edge">
<title>Node1&#45;&gt;Node6</title>
<g id="a_edge5_Node000001_Node000006"><a xlink:title=" ">
<path fill="none" stroke="#63b8ff" d="M375.44,-127.71C366.45,-118.59 356.39,-108.37 348.37,-100.22"/>
<polygon fill="#63b8ff" stroke="#63b8ff" points="372.73,-129.95 382.24,-134.61 377.71,-125.03 372.73,-129.95"/>
</a>
</g>
</g>
<!-- Node8 -->
<g id="Node000008" class="node">
<title>Node8</title>
<g id="a_Node000008"><a xlink:href="Collision_8hpp.html" target="_top" xlink:title=" ">
<polygon fill="white" stroke="#666666" points="517.5,-100 409.25,-100 409.25,-68 517.5,-68 517.5,-100"/>
<text xml:space="preserve" text-anchor="start" x="417.25" y="-86.5" font-family="Helvetica,sans-Serif" font-size="10.00">systems/collision/src</text>
<text xml:space="preserve" text-anchor="middle" x="463.38" y="-74.5" font-family="Helvetica,sans-Serif" font-size="10.00">/Collision.hpp</text>
</a>
</g>
</g>
<!-- Node1&#45;&gt;Node8 -->
<g id="edge7_Node000001_Node000008" class="edge">
<title>Node1&#45;&gt;Node8</title>
<g id="a_edge7_Node000001_Node000008"><a xlink:title=" ">
<path fill="none" stroke="#63b8ff" d="M421.31,-127.71C430.3,-118.59 440.36,-108.37 448.38,-100.22"/>
<polygon fill="#63b8ff" stroke="#63b8ff" points="419.04,-125.03 414.51,-134.61 424.02,-129.95 419.04,-125.03"/>
</a>
</g>
</g>
<!-- Node10 -->
<g id="Node000010" class="node">
<title>Node10</title>
<g id="a_Node000010"><a xlink:href="InputHandler_8hpp.html" target="_top" xlink:title=" ">
<polygon fill="white" stroke="#666666" points="647,-100 535.75,-100 535.75,-68 647,-68 647,-100"/>
<text xml:space="preserve" text-anchor="start" x="543.75" y="-86.5" font-family="Helvetica,sans-Serif" font-size="10.00">systems/inputHandler</text>
<text xml:space="preserve" text-anchor="middle" x="591.38" y="-74.5" font-family="Helvetica,sans-Serif" font-size="10.00">/src/InputHandler.hpp</text>
</a>
</g>
</g>
<!-- Node1&#45;&gt;Node10 -->
<g id="edge9_Node000001_Node000010" class="edge">
<title>Node1&#45;&gt;Node10</title>
<g id="a_edge9_Node000001_Node000010"><a xlink:title=" ">
<path fill="none" stroke="#63b8ff" d="M454.46,-131.82C483.59,-121.86 518.7,-109.85 546.07,-100.49"/>
<polygon fill="#63b8ff" stroke="#63b8ff" points="453.39,-128.49 445.06,-135.04 455.65,-135.11 453.39,-128.49"/>
</a>
</g>
</g>
<!-- Node12 -->
<g id="Node000012" class="node">
<title>Node12</title>
<g id="a_Node000012"><a xlink:href="Motion_8hpp.html" target="_top" xlink:title=" ">
<polygon fill="white" stroke="#666666" points="767.5,-100 665.25,-100 665.25,-68 767.5,-68 767.5,-100"/>
<text xml:space="preserve" text-anchor="start" x="673.25" y="-86.5" font-family="Helvetica,sans-Serif" font-size="10.00">systems/motion/src</text>
<text xml:space="preserve" text-anchor="middle" x="716.38" y="-74.5" font-family="Helvetica,sans-Serif" font-size="10.00">/Motion.hpp</text>
</a>
</g>
</g>
<!-- Node1&#45;&gt;Node12 -->
<g id="edge11_Node000001_Node000012" class="edge">
<title>Node1&#45;&gt;Node12</title>
<g id="a_edge11_Node000001_Node000012"><a xlink:title=" ">
<path fill="none" stroke="#63b8ff" d="M468.57,-138.1C520.57,-128.31 593.07,-114.16 656.38,-100 659.2,-99.37 662.1,-98.7 665.03,-98.02"/>
<polygon fill="#63b8ff" stroke="#63b8ff" points="468.14,-134.62 458.96,-139.91 469.43,-141.5 468.14,-134.62"/>
</a>
</g>
</g>
<!-- Node3 -->
<g id="Node000003" class="node">
<title>Node3</title>
<g id="a_Node000003"><a xlink:href="FPInputHandler_8cpp.html" target="_top" xlink:title=" ">
<polygon fill="white" stroke="#666666" points="124.75,-32 0,-32 0,0 124.75,0 124.75,-32"/>
<text xml:space="preserve" text-anchor="start" x="8" y="-18.5" font-family="Helvetica,sans-Serif" font-size="10.00">systems/FPInputHandler</text>
<text xml:space="preserve" text-anchor="middle" x="62.38" y="-6.5" font-family="Helvetica,sans-Serif" font-size="10.00">/src/FPInputHandler.cpp</text>
</a>
</g>
</g>
<!-- Node2&#45;&gt;Node3 -->
<g id="edge2_Node000002_Node000003" class="edge">
<title>Node2&#45;&gt;Node3</title>
<g id="a_edge2_Node000002_Node000003"><a xlink:title=" ">
<path fill="none" stroke="#63b8ff" d="M62.38,-56.31C62.38,-48.12 62.38,-39.38 62.38,-32.22"/>
<polygon fill="#63b8ff" stroke="#63b8ff" points="58.88,-56.18 62.38,-66.18 65.88,-56.18 58.88,-56.18"/>
</a>
</g>
</g>
<!-- Node5 -->
<g id="Node000005" class="node">
<title>Node5</title>
<g id="a_Node000005"><a xlink:href="FPMotion_8cpp.html" target="_top" xlink:title=" ">
<polygon fill="white" stroke="#666666" points="257.88,-32 142.88,-32 142.88,0 257.88,0 257.88,-32"/>
<text xml:space="preserve" text-anchor="start" x="150.88" y="-18.5" font-family="Helvetica,sans-Serif" font-size="10.00">systems/FPMotion/src</text>
<text xml:space="preserve" text-anchor="middle" x="200.38" y="-6.5" font-family="Helvetica,sans-Serif" font-size="10.00">/FPMotion.cpp</text>
</a>
</g>
</g>
<!-- Node4&#45;&gt;Node5 -->
<g id="edge4_Node000004_Node000005" class="edge">
<title>Node4&#45;&gt;Node5</title>
<g id="a_edge4_Node000004_Node000005"><a xlink:title=" ">
<path fill="none" stroke="#63b8ff" d="M200.38,-56.31C200.38,-48.12 200.38,-39.38 200.38,-32.22"/>
<polygon fill="#63b8ff" stroke="#63b8ff" points="196.88,-56.18 200.38,-66.18 203.88,-56.18 196.88,-56.18"/>
</a>
</g>
</g>
<!-- Node7 -->
<g id="Node000007" class="node">
<title>Node7</title>
<g id="a_Node000007"><a xlink:href="Animation_8cpp.html" target="_top" xlink:title=" ">
<polygon fill="white" stroke="#666666" points="390.88,-32 275.88,-32 275.88,0 390.88,0 390.88,-32"/>
<text xml:space="preserve" text-anchor="start" x="283.88" y="-18.5" font-family="Helvetica,sans-Serif" font-size="10.00">systems/animation/src</text>
<text xml:space="preserve" text-anchor="middle" x="333.38" y="-6.5" font-family="Helvetica,sans-Serif" font-size="10.00">/Animation.cpp</text>
</a>
</g>
</g>
<!-- Node6&#45;&gt;Node7 -->
<g id="edge6_Node000006_Node000007" class="edge">
<title>Node6&#45;&gt;Node7</title>
<g id="a_edge6_Node000006_Node000007"><a xlink:title=" ">
<path fill="none" stroke="#63b8ff" d="M333.38,-56.31C333.38,-48.12 333.38,-39.38 333.38,-32.22"/>
<polygon fill="#63b8ff" stroke="#63b8ff" points="329.88,-56.18 333.38,-66.18 336.88,-56.18 329.88,-56.18"/>
</a>
</g>
</g>
<!-- Node9 -->
<g id="Node000009" class="node">
<title>Node9</title>
<g id="a_Node000009"><a xlink:href="Collision_8cpp.html" target="_top" xlink:title=" ">
<polygon fill="white" stroke="#666666" points="517.5,-32 409.25,-32 409.25,0 517.5,0 517.5,-32"/>
<text xml:space="preserve" text-anchor="start" x="417.25" y="-18.5" font-family="Helvetica,sans-Serif" font-size="10.00">systems/collision/src</text>
<text xml:space="preserve" text-anchor="middle" x="463.38" y="-6.5" font-family="Helvetica,sans-Serif" font-size="10.00">/Collision.cpp</text>
</a>
</g>
</g>
<!-- Node8&#45;&gt;Node9 -->
<g id="edge8_Node000008_Node000009" class="edge">
<title>Node8&#45;&gt;Node9</title>
<g id="a_edge8_Node000008_Node000009"><a xlink:title=" ">
<path fill="none" stroke="#63b8ff" d="M463.38,-56.31C463.38,-48.12 463.38,-39.38 463.38,-32.22"/>
<polygon fill="#63b8ff" stroke="#63b8ff" points="459.88,-56.18 463.38,-66.18 466.88,-56.18 459.88,-56.18"/>
</a>
</g>
</g>
<!-- Node11 -->
<g id="Node000011" class="node">
<title>Node11</title>
<g id="a_Node000011"><a xlink:href="InputHandler_8cpp.html" target="_top" xlink:title=" ">
<polygon fill="white" stroke="#666666" points="647,-32 535.75,-32 535.75,0 647,0 647,-32"/>
<text xml:space="preserve" text-anchor="start" x="543.75" y="-18.5" font-family="Helvetica,sans-Serif" font-size="10.00">systems/inputHandler</text>
<text xml:space="preserve" text-anchor="middle" x="591.38" y="-6.5" font-family="Helvetica,sans-Serif" font-size="10.00">/src/InputHandler.cpp</text>
</a>
</g>
</g>
<!-- Node10&#45;&gt;Node11 -->
<g id="edge10_Node000010_Node000011" class="edge">
<title>Node10&#45;&gt;Node11</title>
<g id="a_edge10_Node000010_Node000011"><a xlink:title=" ">
<path fill="none" stroke="#63b8ff" d="M591.38,-56.31C591.38,-48.12 591.38,-39.38 591.38,-32.22"/>
<polygon fill="#63b8ff" stroke="#63b8ff" points="587.88,-56.18 591.38,-66.18 594.88,-56.18 587.88,-56.18"/>
</a>
</g>
</g>
<!-- Node13 -->
<g id="Node000013" class="node">
<title>Node13</title>
<g id="a_Node000013"><a xlink:href="Motion_8cpp.html" target="_top" xlink:title=" ">
<polygon fill="white" stroke="#666666" points="767.5,-32 665.25,-32 665.25,0 767.5,0 767.5,-32"/>
<text xml:space="preserve" text-anchor="start" x="673.25" y="-18.5" font-family="Helvetica,sans-Serif" font-size="10.00">systems/motion/src</text>
<text xml:space="preserve" text-anchor="middle" x="716.38" y="-6.5" font-family="Helvetica,sans-Serif" font-size="10.00">/Motion.cpp</text>
</a>
</g>
</g>
<!-- Node12&#45;&gt;Node13 -->
<g id="edge12_Node000012_Node000013" class="edge">
<title>Node12&#45;&gt;Node13</title>
<g id="a_edge12_Node000012_Node000013"><a xlink:title=" ">
<path fill="none" stroke="#63b8ff" d="M716.38,-56.31C716.38,-48.12 716.38,-39.38 716.38,-32.22"/>
<polygon fill="#63b8ff" stroke="#63b8ff" points="712.88,-56.18 716.38,-66.18 719.88,-56.18 712.88,-56.18"/>
</a>
</g>
</g>
</g>
</svg>
