<?xml version="1.0" encoding="UTF-8" standalone="no"?>
<!DOCTYPE svg PUBLIC "-//W3C//DTD SVG 1.1//EN"
 "http://www.w3.org/Graphics/SVG/1.1/DTD/svg11.dtd">
<!-- Generated by graphviz version 14.0.2 (0)
 -->
<!-- Title: components/renderable/src/Renderable.hpp Pages: 1 -->
<svg width="511pt" height="208pt"
 viewBox="0.00 0.00 511.00 208.00" xmlns="http://www.w3.org/2000/svg" xmlns:xlink="http://www.w3.org/1999/xlink">
<g id="graph0" class="graph" transform="scale(1 1) rotate(0) translate(4 204)">
<title>components/renderable/src/Renderable.hpp</title>
<!-- Node1 -->
<g id="Node000001" class="node">
<title>Node1</title>
<g id="a_Node000001"><a xlink:title=" ">
<polygon fill="#999999" stroke="#666666" points="244.75,-200 127.5,-200 127.5,-168 244.75,-168 244.75,-200"/>
<text xml:space="preserve" text-anchor="start" x="135.5" y="-186.5" font-family="Helvetica,sans-Serif" font-size="10.00">components/renderable</text>
<text xml:space="preserve" text-anchor="middle" x="186.12" y="-174.5" font-family="Helvetica,sans-Serif" font-size="10.00">/src/Renderable.hpp</text>
</a>
</g>
</g>
<!-- Node2 -->
<g id="Node000002" class="node">
<title>Node2</title>
<g id="a_Node000002"><a xlink:title=" ">
<polygon fill="#e0e0e0" stroke="#999999" points="48.25,-132 0,-132 0,-112 48.25,-112 48.25,-132"/>
<text xml:space="preserve" text-anchor="middle" x="24.12" y="-118.5" font-family="Helvetica,sans-Serif" font-size="10.00">cstddef</text>
</a>
</g>
</g>
<!-- Node1&#45;&gt;Node2 -->
<g id="edge1_Node000001_Node000002" class="edge">
<title>Node1&#45;&gt;Node2</title>
<g id="a_edge1_Node000001_Node000002"><a xlink:title=" ">
<path fill="none" stroke="#63b8ff" d="M144.41,-167.55C117.95,-157.75 84.11,-145.22 59.07,-135.94"/>
<polygon fill="#63b8ff" stroke="#63b8ff" points="60.59,-132.77 50,-132.58 58.16,-139.34 60.59,-132.77"/>
</a>
</g>
</g>
<!-- Node3 -->
<g id="Node000003" class="node">
<title>Node3</title>
<g id="a_Node000003"><a xlink:title=" ">
<polygon fill="#e0e0e0" stroke="#999999" points="119.88,-132 66.38,-132 66.38,-112 119.88,-112 119.88,-132"/>
<text xml:space="preserve" text-anchor="middle" x="93.12" y="-118.5" font-family="Helvetica,sans-Serif" font-size="10.00">iostream</text>
</a>
</g>
</g>
<!-- Node1&#45;&gt;Node3 -->
<g id="edge2_Node000001_Node000003" class="edge">
<title>Node1&#45;&gt;Node3</title>
<g id="a_edge2_Node000001_Node000003"><a xlink:title=" ">
<path fill="none" stroke="#63b8ff" d="M162.18,-167.55C148.32,-158.61 130.93,-147.39 117.07,-138.45"/>
<polygon fill="#63b8ff" stroke="#63b8ff" points="119.28,-135.71 108.98,-133.23 115.48,-141.59 119.28,-135.71"/>
</a>
</g>
</g>
<!-- Node4 -->
<g id="Node000004" class="node">
<title>Node4</title>
<g id="a_Node000004"><a xlink:title=" ">
<polygon fill="#e0e0e0" stroke="#999999" points="176.75,-132 137.5,-132 137.5,-112 176.75,-112 176.75,-132"/>
<text xml:space="preserve" text-anchor="middle" x="157.12" y="-118.5" font-family="Helvetica,sans-Serif" font-size="10.00">utility</text>
</a>
</g>
</g>
<!-- Node1&#45;&gt;Node4 -->
<g id="edge3_Node000001_Node000004" class="edge">
<title>Node1&#45;&gt;Node4</title>
<g id="a_edge3_Node000001_Node000004"><a xlink:title=" ">
<path fill="none" stroke="#63b8ff" d="M178.66,-167.55C175.01,-160 170.57,-150.82 166.68,-142.77"/>
<polygon fill="#63b8ff" stroke="#63b8ff" points="169.83,-141.25 162.33,-133.77 163.53,-144.3 169.83,-141.25"/>
</a>
</g>
</g>
<!-- Node5 -->
<g id="Node000005" class="node">
<title>Node5</title>
<g id="a_Node000005"><a xlink:title=" ">
<polygon fill="#e0e0e0" stroke="#999999" points="237.62,-132 194.62,-132 194.62,-112 237.62,-112 237.62,-132"/>
<text xml:space="preserve" text-anchor="middle" x="216.12" y="-118.5" font-family="Helvetica,sans-Serif" font-size="10.00">vector</text>
</a>
</g>
</g>
<!-- Node1&#45;&gt;Node5 -->
<g id="edge4_Node000001_Node000005" class="edge">
<title>Node1&#45;&gt;Node5</title>
<g id="a_edge4_Node000001_Node000005"><a xlink:title=" ">
<path fill="none" stroke="#63b8ff" d="M193.85,-167.55C197.67,-159.91 202.32,-150.61 206.38,-142.49"/>
<polygon fill="#63b8ff" stroke="#63b8ff" points="209.4,-144.27 210.74,-133.76 203.14,-141.14 209.4,-144.27"/>
</a>
</g>
</g>
<!-- Node6 -->
<g id="Node000006" class="node">
<title>Node6</title>
<g id="a_Node000006"><a xlink:href="Component_8hpp.html" target="_top" xlink:title=" ">
<polygon fill="white" stroke="#666666" points="386.5,-132 255.75,-132 255.75,-112 386.5,-112 386.5,-132"/>
<text xml:space="preserve" text-anchor="middle" x="321.12" y="-118.5" font-family="Helvetica,sans-Serif" font-size="10.00">../../../ecs/Component.hpp</text>
</a>
</g>
</g>
<!-- Node1&#45;&gt;Node6 -->
<g id="edge5_Node000001_Node000006" class="edge">
<title>Node1&#45;&gt;Node6</title>
<g id="a_edge5_Node000001_Node000006"><a xlink:title=" ">
<path fill="none" stroke="#63b8ff" d="M220.89,-167.55C242.08,-158.13 268.95,-146.19 289.54,-137.04"/>
<polygon fill="#63b8ff" stroke="#63b8ff" points="290.86,-140.28 298.57,-133.02 288.01,-133.89 290.86,-140.28"/>
</a>
</g>
</g>
<!-- Node12 -->
<g id="Node000012" class="node">
<title>Node12</title>
<g id="a_Node000012"><a xlink:href="utils_8hpp.html" target="_top" xlink:title=" ">
<polygon fill="white" stroke="#666666" points="503.38,-132 404.88,-132 404.88,-112 503.38,-112 503.38,-132"/>
<text xml:space="preserve" text-anchor="middle" x="454.12" y="-118.5" font-family="Helvetica,sans-Serif" font-size="10.00">../../../ecs/utils.hpp</text>
</a>
</g>
</g>
<!-- Node1&#45;&gt;Node12 -->
<g id="edge11_Node000001_Node000012" class="edge">
<title>Node1&#45;&gt;Node12</title>
<g id="a_edge11_Node000001_Node000012"><a xlink:title=" ">
<path fill="none" stroke="#63b8ff" d="M244.94,-169.83C291.53,-159.4 356.05,-144.96 401.07,-134.88"/>
<polygon fill="#63b8ff" stroke="#63b8ff" points="401.6,-138.35 410.6,-132.74 400.07,-131.51 401.6,-138.35"/>
</a>
</g>
</g>
<!-- Node7 -->
<g id="Node000007" class="node">
<title>Node7</title>
<g id="a_Node000007"><a xlink:title=" ">
<polygon fill="#e0e0e0" stroke="#999999" points="282.75,-76 231.5,-76 231.5,-56 282.75,-56 282.75,-76"/>
<text xml:space="preserve" text-anchor="middle" x="257.12" y="-62.5" font-family="Helvetica,sans-Serif" font-size="10.00">memory</text>
</a>
</g>
</g>
<!-- Node6&#45;&gt;Node7 -->
<g id="edge6_Node000006_Node000007" class="edge">
<title>Node6&#45;&gt;Node7</title>
<g id="a_edge6_Node000006_Node000007"><a xlink:title=" ">
<path fill="none" stroke="#63b8ff" d="M309.98,-111.59C300.8,-103.85 287.57,-92.69 276.64,-83.47"/>
<polygon fill="#63b8ff" stroke="#63b8ff" points="279.2,-81.05 269.3,-77.27 274.69,-86.4 279.2,-81.05"/>
</a>
</g>
</g>
<!-- Node8 -->
<g id="Node000008" class="node">
<title>Node8</title>
<g id="a_Node000008"><a xlink:title=" ">
<polygon fill="#e0e0e0" stroke="#999999" points="341.12,-76 301.12,-76 301.12,-56 341.12,-56 341.12,-76"/>
<text xml:space="preserve" text-anchor="middle" x="321.12" y="-62.5" font-family="Helvetica,sans-Serif" font-size="10.00">string</text>
</a>
</g>
</g>
<!-- Node6&#45;&gt;Node8 -->
<g id="edge7_Node000006_Node000008" class="edge">
<title>Node6&#45;&gt;Node8</title>
<g id="a_edge7_Node000006_Node000008"><a xlink:title=" ">
<path fill="none" stroke="#63b8ff" d="M321.12,-111.59C321.12,-105.01 321.12,-95.96 321.12,-87.73"/>
<polygon fill="#63b8ff" stroke="#63b8ff" points="324.63,-87.81 321.13,-77.81 317.63,-87.81 324.63,-87.81"/>
</a>
</g>
</g>
<!-- Node9 -->
<g id="Node000009" class="node">
<title>Node9</title>
<g id="a_Node000009"><a xlink:href="Types_8hpp.html" target="_top" xlink:title="Core type definitions used throughout the ECS (Entity Component System).">
<polygon fill="white" stroke="#666666" points="420.62,-76 359.62,-76 359.62,-56 420.62,-56 420.62,-76"/>
<text xml:space="preserve" text-anchor="middle" x="390.12" y="-62.5" font-family="Helvetica,sans-Serif" font-size="10.00">Types.hpp</text>
</a>
</g>
</g>
<!-- Node6&#45;&gt;Node9 -->
<g id="edge8_Node000006_Node000009" class="edge">
<title>Node6&#45;&gt;Node9</title>
<g id="a_edge8_Node000006_Node000009"><a xlink:title=" ">
<path fill="none" stroke="#63b8ff" d="M333.14,-111.59C343.14,-103.77 357.59,-92.46 369.43,-83.19"/>
<polygon fill="#63b8ff" stroke="#63b8ff" points="371.33,-86.15 377.05,-77.23 367.02,-80.64 371.33,-86.15"/>
</a>
</g>
</g>
<!-- Node10 -->
<g id="Node000010" class="node">
<title>Node10</title>
<g id="a_Node000010"><a xlink:title=" ">
<polygon fill="#e0e0e0" stroke="#999999" points="379.12,-20 339.12,-20 339.12,0 379.12,0 379.12,-20"/>
<text xml:space="preserve" text-anchor="middle" x="359.12" y="-6.5" font-family="Helvetica,sans-Serif" font-size="10.00">bitset</text>
</a>
</g>
</g>
<!-- Node9&#45;&gt;Node10 -->
<g id="edge9_Node000009_Node000010" class="edge">
<title>Node9&#45;&gt;Node10</title>
<g id="a_edge9_Node000009_Node000010"><a xlink:title=" ">
<path fill="none" stroke="#63b8ff" d="M384.73,-55.59C380.68,-48.55 375.01,-38.67 370.03,-30"/>
<polygon fill="#63b8ff" stroke="#63b8ff" points="373.23,-28.54 365.22,-21.61 367.16,-32.03 373.23,-28.54"/>
</a>
</g>
</g>
<!-- Node11 -->
<g id="Node000011" class="node">
<title>Node11</title>
<g id="a_Node000011"><a xlink:title=" ">
<polygon fill="#e0e0e0" stroke="#999999" points="442.75,-20 397.5,-20 397.5,0 442.75,0 442.75,-20"/>
<text xml:space="preserve" text-anchor="middle" x="420.12" y="-6.5" font-family="Helvetica,sans-Serif" font-size="10.00">cstdint</text>
</a>
</g>
</g>
<!-- Node9&#45;&gt;Node11 -->
<g id="edge10_Node000009_Node000011" class="edge">
<title>Node9&#45;&gt;Node11</title>
<g id="a_edge10_Node000009_Node000011"><a xlink:title=" ">
<path fill="none" stroke="#63b8ff" d="M395.35,-55.59C399.22,-48.63 404.63,-38.89 409.41,-30.29"/>
<polygon fill="#63b8ff" stroke="#63b8ff" points="412.43,-32.06 414.22,-21.62 406.31,-28.66 412.43,-32.06"/>
</a>
</g>
</g>
</g>
</svg>
