<?xml version="1.0" encoding="UTF-8" standalone="no"?>
<!DOCTYPE svg PUBLIC "-//W3C//DTD SVG 1.1//EN"
 "http://www.w3.org/Graphics/SVG/1.1/DTD/svg11.dtd">
<!-- Generated by graphviz version 14.0.2 (0)
 -->
<!-- Title: components/scoreValue/src/ScoreValue.hpp Pages: 1 -->
<svg width="219pt" height="208pt"
 viewBox="0.00 0.00 219.00 208.00" xmlns="http://www.w3.org/2000/svg" xmlns:xlink="http://www.w3.org/1999/xlink">
<g id="graph0" class="graph" transform="scale(1 1) rotate(0) translate(4 204)">
<title>components/scoreValue/src/ScoreValue.hpp</title>
<!-- Node1 -->
<g id="Node000001" class="node">
<title>Node1</title>
<g id="a_Node000001"><a xlink:title=" ">
<polygon fill="#999999" stroke="#666666" points="149.75,-200 29.5,-200 29.5,-168 149.75,-168 149.75,-200"/>
<text xml:space="preserve" text-anchor="start" x="37.5" y="-186.5" font-family="Helvetica,sans-Serif" font-size="10.00">components/scoreValue</text>
<text xml:space="preserve" text-anchor="middle" x="89.62" y="-174.5" font-family="Helvetica,sans-Serif" font-size="10.00">/src/ScoreValue.hpp</text>
</a>
</g>
</g>
<!-- Node2 -->
<g id="Node000002" class="node">
<title>Node2</title>
<g id="a_Node000002"><a xlink:href="Component_8hpp.html" target="_top" xlink:title=" ">
<polygon fill="white" stroke="#666666" points="155,-132 24.25,-132 24.25,-112 155,-112 155,-132"/>
<text xml:space="preserve" text-anchor="middle" x="89.62" y="-118.5" font-family="Helvetica,sans-Serif" font-size="10.00">../../../ecs/Component.hpp</text>
</a>
</g>
</g>
<!-- Node1&#45;&gt;Node2 -->
<g id="edge1_Node000001_Node000002" class="edge">
<title>Node1&#45;&gt;Node2</title>
<g id="a_edge1_Node000001_Node000002"><a xlink:title=" ">
<path fill="none" stroke="#63b8ff" d="M89.62,-167.55C89.62,-160.34 89.62,-151.66 89.62,-143.88"/>
<polygon fill="#63b8ff" stroke="#63b8ff" points="93.13,-143.92 89.63,-133.92 86.13,-143.92 93.13,-143.92"/>
</a>
</g>
</g>
<!-- Node3 -->
<g id="Node000003" class="node">
<title>Node3</title>
<g id="a_Node000003"><a xlink:title=" ">
<polygon fill="#e0e0e0" stroke="#999999" points="51.25,-76 0,-76 0,-56 51.25,-56 51.25,-76"/>
<text xml:space="preserve" text-anchor="middle" x="25.62" y="-62.5" font-family="Helvetica,sans-Serif" font-size="10.00">memory</text>
</a>
</g>
</g>
<!-- Node2&#45;&gt;Node3 -->
<g id="edge2_Node000002_Node000003" class="edge">
<title>Node2&#45;&gt;Node3</title>
<g id="a_edge2_Node000002_Node000003"><a xlink:title=" ">
<path fill="none" stroke="#63b8ff" d="M78.48,-111.59C69.3,-103.85 56.07,-92.69 45.14,-83.47"/>
<polygon fill="#63b8ff" stroke="#63b8ff" points="47.7,-81.05 37.8,-77.27 43.19,-86.4 47.7,-81.05"/>
</a>
</g>
</g>
<!-- Node4 -->
<g id="Node000004" class="node">
<title>Node4</title>
<g id="a_Node000004"><a xlink:title=" ">
<polygon fill="#e0e0e0" stroke="#999999" points="109.62,-76 69.62,-76 69.62,-56 109.62,-56 109.62,-76"/>
<text xml:space="preserve" text-anchor="middle" x="89.62" y="-62.5" font-family="Helvetica,sans-Serif" font-size="10.00">string</text>
</a>
</g>
</g>
<!-- Node2&#45;&gt;Node4 -->
<g id="edge3_Node000002_Node000004" class="edge">
<title>Node2&#45;&gt;Node4</title>
<g id="a_edge3_Node000002_Node000004"><a xlink:title=" ">
<path fill="none" stroke="#63b8ff" d="M89.62,-111.59C89.62,-105.01 89.62,-95.96 89.62,-87.73"/>
<polygon fill="#63b8ff" stroke="#63b8ff" points="93.13,-87.81 89.63,-77.81 86.13,-87.81 93.13,-87.81"/>
</a>
</g>
</g>
<!-- Node5 -->
<g id="Node000005" class="node">
<title>Node5</title>
<g id="a_Node000005"><a xlink:href="Types_8hpp.html" target="_top" xlink:title="Core type definitions used throughout the ECS (Entity Component System).">
<polygon fill="white" stroke="#666666" points="189.12,-76 128.12,-76 128.12,-56 189.12,-56 189.12,-76"/>
<text xml:space="preserve" text-anchor="middle" x="158.62" y="-62.5" font-family="Helvetica,sans-Serif" font-size="10.00">Types.hpp</text>
</a>
</g>
</g>
<!-- Node2&#45;&gt;Node5 -->
<g id="edge4_Node000002_Node000005" class="edge">
<title>Node2&#45;&gt;Node5</title>
<g id="a_edge4_Node000002_Node000005"><a xlink:title=" ">
<path fill="none" stroke="#63b8ff" d="M101.64,-111.59C111.64,-103.77 126.09,-92.46 137.93,-83.19"/>
<polygon fill="#63b8ff" stroke="#63b8ff" points="139.83,-86.15 145.55,-77.23 135.52,-80.64 139.83,-86.15"/>
</a>
</g>
</g>
<!-- Node6 -->
<g id="Node000006" class="node">
<title>Node6</title>
<g id="a_Node000006"><a xlink:title=" ">
<polygon fill="#e0e0e0" stroke="#999999" points="147.62,-20 107.62,-20 107.62,0 147.62,0 147.62,-20"/>
<text xml:space="preserve" text-anchor="middle" x="127.62" y="-6.5" font-family="Helvetica,sans-Serif" font-size="10.00">bitset</text>
</a>
</g>
</g>
<!-- Node5&#45;&gt;Node6 -->
<g id="edge5_Node000005_Node000006" class="edge">
<title>Node5&#45;&gt;Node6</title>
<g id="a_edge5_Node000005_Node000006"><a xlink:title=" ">
<path fill="none" stroke="#63b8ff" d="M153.23,-55.59C149.18,-48.55 143.51,-38.67 138.53,-30"/>
<polygon fill="#63b8ff" stroke="#63b8ff" points="141.73,-28.54 133.72,-21.61 135.66,-32.03 141.73,-28.54"/>
</a>
</g>
</g>
<!-- Node7 -->
<g id="Node000007" class="node">
<title>Node7</title>
<g id="a_Node000007"><a xlink:title=" ">
<polygon fill="#e0e0e0" stroke="#999999" points="211.25,-20 166,-20 166,0 211.25,0 211.25,-20"/>
<text xml:space="preserve" text-anchor="middle" x="188.62" y="-6.5" font-family="Helvetica,sans-Serif" font-size="10.00">cstdint</text>
</a>
</g>
</g>
<!-- Node5&#45;&gt;Node7 -->
<g id="edge6_Node000005_Node000007" class="edge">
<title>Node5&#45;&gt;Node7</title>
<g id="a_edge6_Node000005_Node000007"><a xlink:title=" ">
<path fill="none" stroke="#63b8ff" d="M163.85,-55.59C167.72,-48.63 173.13,-38.89 177.91,-30.29"/>
<polygon fill="#63b8ff" stroke="#63b8ff" points="180.93,-32.06 182.72,-21.62 174.81,-28.66 180.93,-32.06"/>
</a>
</g>
</g>
</g>
</svg>
