<?xml version="1.0" encoding="UTF-8" standalone="no"?>
<!DOCTYPE svg PUBLIC "-//W3C//DTD SVG 1.1//EN"
 "http://www.w3.org/Graphics/SVG/1.1/DTD/svg11.dtd">
<!-- Generated by graphviz version 14.0.2 (0)
 -->
<!-- Title: GameEngine::OnPickup Pages: 1 -->
<svg width="135pt" height="140pt"
 viewBox="0.00 0.00 135.00 140.00" xmlns="http://www.w3.org/2000/svg" xmlns:xlink="http://www.w3.org/1999/xlink">
<g id="graph0" class="graph" transform="scale(1 1) rotate(0) translate(4 136)">
<title>GameEngine::OnPickup</title>
<!-- Node1 -->
<g id="Node000001" class="node">
<title>Node1</title>
<g id="a_Node000001"><a xlink:title="Component defining power&#45;up effects applied when entity is collected.">
<polygon fill="#999999" stroke="#666666" points="124,-20 3,-20 3,0 124,0 124,-20"/>
<text xml:space="preserve" text-anchor="middle" x="63.5" y="-6.5" font-family="Helvetica,sans-Serif" font-size="10.00">GameEngine::OnPickup</text>
</a>
</g>
</g>
<!-- Node2 -->
<g id="Node000002" class="node">
<title>Node2</title>
<g id="a_Node000002"><a xlink:href="classComponent.html" target="_top" xlink:title=" ">
<polygon fill="white" stroke="#666666" points="127,-76 0,-76 0,-56 127,-56 127,-76"/>
<text xml:space="preserve" text-anchor="middle" x="63.5" y="-62.5" font-family="Helvetica,sans-Serif" font-size="10.00">Component&lt; OnPickup &gt;</text>
</a>
</g>
</g>
<!-- Node2&#45;&gt;Node1 -->
<g id="edge1_Node000001_Node000002" class="edge">
<title>Node2&#45;&gt;Node1</title>
<g id="a_edge1_Node000001_Node000002"><a xlink:title=" ">
<path fill="none" stroke="#63b8ff" d="M63.5,-44.13C63.5,-35.9 63.5,-26.85 63.5,-20.3"/>
<polygon fill="#63b8ff" stroke="#63b8ff" points="60,-44.08 63.5,-54.08 67,-44.08 60,-44.08"/>
</a>
</g>
</g>
<!-- Node3 -->
<g id="Node000003" class="node">
<title>Node3</title>
<g id="a_Node000003"><a xlink:href="classIComponent.html" target="_top" xlink:title="Interface de base pour tous les composants ECS.">
<polygon fill="white" stroke="#666666" points="98.12,-132 28.88,-132 28.88,-112 98.12,-112 98.12,-132"/>
<text xml:space="preserve" text-anchor="middle" x="63.5" y="-118.5" font-family="Helvetica,sans-Serif" font-size="10.00">IComponent</text>
</a>
</g>
</g>
<!-- Node3&#45;&gt;Node2 -->
<g id="edge2_Node000002_Node000003" class="edge">
<title>Node3&#45;&gt;Node2</title>
<g id="a_edge2_Node000002_Node000003"><a xlink:title=" ">
<path fill="none" stroke="#63b8ff" d="M63.5,-100.13C63.5,-91.9 63.5,-82.85 63.5,-76.3"/>
<polygon fill="#63b8ff" stroke="#63b8ff" points="60,-100.08 63.5,-110.08 67,-100.08 60,-100.08"/>
</a>
</g>
</g>
</g>
</svg>
