<?xml version="1.0" encoding="UTF-8" standalone="no"?>
<!DOCTYPE svg PUBLIC "-//W3C//DTD SVG 1.1//EN"
 "http://www.w3.org/Graphics/SVG/1.1/DTD/svg11.dtd">
<!-- Generated by graphviz version 14.0.2 (0)
 -->
<!-- Title: GameEngine::Weapon Pages: 1 -->
<svg width="128pt" height="140pt"
 viewBox="0.00 0.00 128.00 140.00" xmlns="http://www.w3.org/2000/svg" xmlns:xlink="http://www.w3.org/1999/xlink">
<g id="graph0" class="graph" transform="scale(1 1) rotate(0) translate(4 136)">
<title>GameEngine::Weapon</title>
<!-- Node1 -->
<g id="Node000001" class="node">
<title>Node1</title>
<g id="a_Node000001"><a xlink:title=" ">
<polygon fill="#999999" stroke="#666666" points="116.5,-20 3,-20 3,0 116.5,0 116.5,-20"/>
<text xml:space="preserve" text-anchor="middle" x="59.75" y="-6.5" font-family="Helvetica,sans-Serif" font-size="10.00">GameEngine::Weapon</text>
</a>
</g>
</g>
<!-- Node2 -->
<g id="Node000002" class="node">
<title>Node2</title>
<g id="a_Node000002"><a xlink:href="classComponent.html" target="_top" xlink:title=" ">
<polygon fill="white" stroke="#666666" points="119.5,-76 0,-76 0,-56 119.5,-56 119.5,-76"/>
<text xml:space="preserve" text-anchor="middle" x="59.75" y="-62.5" font-family="Helvetica,sans-Serif" font-size="10.00">Component&lt; Weapon &gt;</text>
</a>
</g>
</g>
<!-- Node2&#45;&gt;Node1 -->
<g id="edge1_Node000001_Node000002" class="edge">
<title>Node2&#45;&gt;Node1</title>
<g id="a_edge1_Node000001_Node000002"><a xlink:title=" ">
<path fill="none" stroke="#63b8ff" d="M59.75,-44.13C59.75,-35.9 59.75,-26.85 59.75,-20.3"/>
<polygon fill="#63b8ff" stroke="#63b8ff" points="56.25,-44.08 59.75,-54.08 63.25,-44.08 56.25,-44.08"/>
</a>
</g>
</g>
<!-- Node3 -->
<g id="Node000003" class="node">
<title>Node3</title>
<g id="a_Node000003"><a xlink:href="classIComponent.html" target="_top" xlink:title="Interface de base pour tous les composants ECS.">
<polygon fill="white" stroke="#666666" points="94.38,-132 25.12,-132 25.12,-112 94.38,-112 94.38,-132"/>
<text xml:space="preserve" text-anchor="middle" x="59.75" y="-118.5" font-family="Helvetica,sans-Serif" font-size="10.00">IComponent</text>
</a>
</g>
</g>
<!-- Node3&#45;&gt;Node2 -->
<g id="edge2_Node000002_Node000003" class="edge">
<title>Node3&#45;&gt;Node2</title>
<g id="a_edge2_Node000002_Node000003"><a xlink:title=" ">
<path fill="none" stroke="#63b8ff" d="M59.75,-100.13C59.75,-91.9 59.75,-82.85 59.75,-76.3"/>
<polygon fill="#63b8ff" stroke="#63b8ff" points="56.25,-100.08 59.75,-110.08 63.25,-100.08 56.25,-100.08"/>
</a>
</g>
</g>
</g>
</svg>
