<?xml version="1.0" encoding="UTF-8" standalone="no"?>
<!DOCTYPE svg PUBLIC "-//W3C//DTD SVG 1.1//EN"
 "http://www.w3.org/Graphics/SVG/1.1/DTD/svg11.dtd">
<!-- Generated by graphviz version 14.0.1 (0)
 -->
<!-- Title: vec2::vec2 Pages: 1 -->
<svg width="198pt" height="66pt"
 viewBox="0.00 0.00 198.00 66.00" xmlns="http://www.w3.org/2000/svg" xmlns:xlink="http://www.w3.org/1999/xlink">
<g id="graph0" class="graph" transform="scale(1 1) rotate(0) translate(4 62)">
<title>vec2::vec2</title>
<!-- Node1 -->
<g id="Node000001" class="node">
<title>Node1</title>
<g id="a_Node000001"><a xlink:title=" ">
<polygon fill="#999999" stroke="#666666" points="190.25,-39 126.25,-39 126.25,-19 190.25,-19 190.25,-39"/>
<text xml:space="preserve" text-anchor="middle" x="158.25" y="-25.5" font-family="Helvetica,sans-Serif" font-size="10.00">vec2::vec2</text>
</a>
</g>
</g>
<!-- Node2 -->
<g id="Node000002" class="node">
<title>Node2</title>
<g id="a_Node000002"><a xlink:href="structvec2.html#a1c57b3fe8179737266104a37f2699569" target="_top" xlink:title=" ">
<polygon fill="white" stroke="#666666" points="87.25,-58 3,-58 3,-38 87.25,-38 87.25,-58"/>
<text xml:space="preserve" text-anchor="middle" x="45.12" y="-44.5" font-family="Helvetica,sans-Serif" font-size="10.00">vec2::operator+</text>
</a>
</g>
</g>
<!-- Node1&#45;&gt;Node2 -->
<g id="edge1_Node000001_Node000002" class="edge">
<title>Node1&#45;&gt;Node2</title>
<g id="a_edge1_Node000001_Node000002"><a xlink:title=" ">
<path fill="none" stroke="#63b8ff" d="M114.95,-36.23C105.96,-37.77 96.47,-39.39 87.51,-40.92"/>
<polygon fill="#63b8ff" stroke="#63b8ff" points="115.24,-39.73 124.51,-34.6 114.06,-32.83 115.24,-39.73"/>
</a>
</g>
</g>
<!-- Node3 -->
<g id="Node000003" class="node">
<title>Node3</title>
<g id="a_Node000003"><a xlink:href="structvec2.html#a36fda2391f1f2c20e91aacd68242592b" target="_top" xlink:title=" ">
<polygon fill="white" stroke="#666666" points="90.25,-20 0,-20 0,0 90.25,0 90.25,-20"/>
<text xml:space="preserve" text-anchor="middle" x="45.12" y="-6.5" font-family="Helvetica,sans-Serif" font-size="10.00">vec2::operator+=</text>
</a>
</g>
</g>
<!-- Node1&#45;&gt;Node3 -->
<g id="edge2_Node000001_Node000003" class="edge">
<title>Node1&#45;&gt;Node3</title>
<g id="a_edge2_Node000001_Node000003"><a xlink:title=" ">
<path fill="none" stroke="#63b8ff" d="M114.7,-21.72C106.74,-20.36 98.41,-18.94 90.41,-17.57"/>
<polygon fill="#63b8ff" stroke="#63b8ff" points="114.06,-25.17 124.51,-23.4 115.24,-18.27 114.06,-25.17"/>
</a>
</g>
</g>
</g>
</svg>
