<?xml version="1.0" encoding="UTF-8" standalone="no"?>
<!DOCTYPE svg PUBLIC "-//W3C//DTD SVG 1.1//EN"
 "http://www.w3.org/Graphics/SVG/1.1/DTD/svg11.dtd">
<!-- Generated by graphviz version 14.0.2 (0)
 -->
<!-- Title: GameEngine::Position Pages: 1 -->
<svg width="197pt" height="159pt"
 viewBox="0.00 0.00 197.00 159.00" xmlns="http://www.w3.org/2000/svg" xmlns:xlink="http://www.w3.org/1999/xlink">
<g id="graph0" class="graph" transform="scale(1 1) rotate(0) translate(4 155)">
<title>GameEngine::Position</title>
<!-- Node1 -->
<g id="Node000001" class="node">
<title>Node1</title>
<g id="a_Node000001"><a xlink:title="Component representing an entity&#39;s 2D location in world space.">
<polygon fill="#999999" stroke="#666666" points="188.5,-20 75,-20 75,0 188.5,0 188.5,-20"/>
<text xml:space="preserve" text-anchor="middle" x="131.75" y="-6.5" font-family="Helvetica,sans-Serif" font-size="10.00">GameEngine::Position</text>
</a>
</g>
</g>
<!-- Node2 -->
<g id="Node000002" class="node">
<title>Node2</title>
<g id="a_Node000002"><a xlink:href="classComponent.html" target="_top" xlink:title=" ">
<polygon fill="white" stroke="#666666" points="119.5,-94 0,-94 0,-74 119.5,-74 119.5,-94"/>
<text xml:space="preserve" text-anchor="middle" x="59.75" y="-80.5" font-family="Helvetica,sans-Serif" font-size="10.00">Component&lt; Position &gt;</text>
</a>
</g>
</g>
<!-- Node2&#45;&gt;Node1 -->
<g id="edge1_Node000001_Node000002" class="edge">
<title>Node2&#45;&gt;Node1</title>
<g id="a_edge1_Node000001_Node000002"><a xlink:title=" ">
<path fill="none" stroke="#63b8ff" d="M77.25,-65.5C91.54,-51.21 111.18,-31.57 122.56,-20.19"/>
<polygon fill="#63b8ff" stroke="#63b8ff" points="74.83,-62.97 70.23,-72.52 79.78,-67.92 74.83,-62.97"/>
</a>
</g>
</g>
<!-- Node3 -->
<g id="Node000003" class="node">
<title>Node3</title>
<g id="a_Node000003"><a xlink:href="classIComponent.html" target="_top" xlink:title="Interface de base pour tous les composants ECS.">
<polygon fill="white" stroke="#666666" points="94.38,-151 25.12,-151 25.12,-131 94.38,-131 94.38,-151"/>
<text xml:space="preserve" text-anchor="middle" x="59.75" y="-137.5" font-family="Helvetica,sans-Serif" font-size="10.00">IComponent</text>
</a>
</g>
</g>
<!-- Node3&#45;&gt;Node2 -->
<g id="edge2_Node000002_Node000003" class="edge">
<title>Node3&#45;&gt;Node2</title>
<g id="a_edge2_Node000002_Node000003"><a xlink:title=" ">
<path fill="none" stroke="#63b8ff" d="M59.75,-119.69C59.75,-110.97 59.75,-101.22 59.75,-94.28"/>
<polygon fill="#63b8ff" stroke="#63b8ff" points="56.25,-119.4 59.75,-129.4 63.25,-119.4 56.25,-119.4"/>
</a>
</g>
</g>
<!-- Node4 -->
<g id="Node000004" class="node">
<title>Node4</title>
<g id="a_Node000004"><a xlink:href="structvec2.html" target="_top" xlink:title="2D vector structure for position, velocity, and directional calculations.">
<polygon fill="white" stroke="#666666" points="174.25,-94 137.25,-94 137.25,-74 174.25,-74 174.25,-94"/>
<text xml:space="preserve" text-anchor="middle" x="155.75" y="-80.5" font-family="Helvetica,sans-Serif" font-size="10.00">vec2</text>
</a>
</g>
</g>
<!-- Node4&#45;&gt;Node1 -->
<g id="edge3_Node000001_Node000004" class="edge">
<title>Node4&#45;&gt;Node1</title>
<g id="a_edge3_Node000001_Node000004"><a xlink:title=" ">
<path fill="none" stroke="#9a32cd" stroke-dasharray="5,2" d="M149.09,-63.02C144.42,-49.01 138.39,-30.93 134.81,-20.19"/>
<polygon fill="#9a32cd" stroke="#9a32cd" points="145.65,-63.77 152.13,-72.15 152.29,-61.56 145.65,-63.77"/>
</a>
</g>
<text xml:space="preserve" text-anchor="start" x="149.61" y="-43.5" font-family="Helvetica,sans-Serif" font-size="10.00" fill="grey">pos</text>
</g>
</g>
</svg>
