<?xml version="1.0" encoding="UTF-8" standalone="no"?>
<!DOCTYPE svg PUBLIC "-//W3C//DTD SVG 1.1//EN"
 "http://www.w3.org/Graphics/SVG/1.1/DTD/svg11.dtd">
<!-- Generated by graphviz version 14.0.2 (0)
 -->
<!-- Title: GameEngine::Renderable Pages: 1 -->
<svg width="244pt" height="175pt"
 viewBox="0.00 0.00 244.00 175.00" xmlns="http://www.w3.org/2000/svg" xmlns:xlink="http://www.w3.org/1999/xlink">
<g id="graph0" class="graph" transform="scale(1 1) rotate(0) translate(4 171)">
<title>GameEngine::Renderable</title>
<!-- Node1 -->
<g id="Node000001" class="node">
<title>Node1</title>
<g id="a_Node000001"><a xlink:title="Component containing all data necessary for sprite rendering and animation.">
<polygon fill="#999999" stroke="#666666" points="207.75,-20 80,-20 80,0 207.75,0 207.75,-20"/>
<text xml:space="preserve" text-anchor="middle" x="143.88" y="-6.5" font-family="Helvetica,sans-Serif" font-size="10.00">GameEngine::Renderable</text>
</a>
</g>
</g>
<!-- Node2 -->
<g id="Node000002" class="node">
<title>Node2</title>
<g id="a_Node000002"><a xlink:href="classComponent.html" target="_top" xlink:title=" ">
<polygon fill="white" stroke="#666666" points="133.75,-110 0,-110 0,-90 133.75,-90 133.75,-110"/>
<text xml:space="preserve" text-anchor="middle" x="66.88" y="-96.5" font-family="Helvetica,sans-Serif" font-size="10.00">Component&lt; Renderable &gt;</text>
</a>
</g>
</g>
<!-- Node2&#45;&gt;Node1 -->
<g id="edge1_Node000001_Node000002" class="edge">
<title>Node2&#45;&gt;Node1</title>
<g id="a_edge1_Node000001_Node000002"><a xlink:title=" ">
<path fill="none" stroke="#63b8ff" d="M82.68,-80.94C98.78,-62.54 123.11,-34.73 135.69,-20.35"/>
<polygon fill="#63b8ff" stroke="#63b8ff" points="80.06,-78.61 76.11,-88.44 85.33,-83.22 80.06,-78.61"/>
</a>
</g>
</g>
<!-- Node3 -->
<g id="Node000003" class="node">
<title>Node3</title>
<g id="a_Node000003"><a xlink:href="classIComponent.html" target="_top" xlink:title="Interface de base pour tous les composants ECS.">
<polygon fill="white" stroke="#666666" points="101.5,-167 32.25,-167 32.25,-147 101.5,-147 101.5,-167"/>
<text xml:space="preserve" text-anchor="middle" x="66.88" y="-153.5" font-family="Helvetica,sans-Serif" font-size="10.00">IComponent</text>
</a>
</g>
</g>
<!-- Node3&#45;&gt;Node2 -->
<g id="edge2_Node000002_Node000003" class="edge">
<title>Node3&#45;&gt;Node2</title>
<g id="a_edge2_Node000002_Node000003"><a xlink:title=" ">
<path fill="none" stroke="#63b8ff" d="M66.88,-135.69C66.88,-126.97 66.88,-117.22 66.88,-110.28"/>
<polygon fill="#63b8ff" stroke="#63b8ff" points="63.38,-135.4 66.88,-145.4 70.38,-135.4 63.38,-135.4"/>
</a>
</g>
</g>
<!-- Node4 -->
<g id="Node000004" class="node">
<title>Node4</title>
<g id="a_Node000004"><a xlink:href="structvec2.html" target="_top" xlink:title="2D vector structure for position, velocity, and directional calculations.">
<polygon fill="white" stroke="#666666" points="188.38,-110 151.38,-110 151.38,-90 188.38,-90 188.38,-110"/>
<text xml:space="preserve" text-anchor="middle" x="169.88" y="-96.5" font-family="Helvetica,sans-Serif" font-size="10.00">vec2</text>
</a>
</g>
</g>
<!-- Node4&#45;&gt;Node1 -->
<g id="edge3_Node000001_Node000004" class="edge">
<title>Node4&#45;&gt;Node1</title>
<g id="a_edge3_Node000001_Node000004"><a xlink:title=" ">
<path fill="none" stroke="#9a32cd" stroke-dasharray="5,2" d="M163.85,-78.61C158.43,-60.27 150.71,-34.14 146.64,-20.35"/>
<polygon fill="#9a32cd" stroke="#9a32cd" points="160.47,-79.53 166.66,-88.13 167.19,-77.55 160.47,-79.53"/>
</a>
</g>
<text xml:space="preserve" text-anchor="start" x="164.47" y="-59.5" font-family="Helvetica,sans-Serif" font-size="10.00" fill="grey">currentRectPos</text>
<text xml:space="preserve" text-anchor="start" x="164.47" y="-43.5" font-family="Helvetica,sans-Serif" font-size="10.00" fill="grey">rectSize</text>
</g>
</g>
</svg>
