<?xml version="1.0" encoding="UTF-8" standalone="no"?>
<!DOCTYPE svg PUBLIC "-//W3C//DTD SVG 1.1//EN"
 "http://www.w3.org/Graphics/SVG/1.1/DTD/svg11.dtd">
<!-- Generated by graphviz version 14.0.2 (0)
 -->
<!-- Title: GameEngine::Gravity Pages: 1 -->
<svg width="124pt" height="140pt"
 viewBox="0.00 0.00 124.00 140.00" xmlns="http://www.w3.org/2000/svg" xmlns:xlink="http://www.w3.org/1999/xlink">
<g id="graph0" class="graph" transform="scale(1 1) rotate(0) translate(4 136)">
<title>GameEngine::Gravity</title>
<!-- Node1 -->
<g id="Node000001" class="node">
<title>Node1</title>
<g id="a_Node000001"><a xlink:title="Component representing gravitational force applied to an entity.">
<polygon fill="#999999" stroke="#666666" points="112.75,-20 3,-20 3,0 112.75,0 112.75,-20"/>
<text xml:space="preserve" text-anchor="middle" x="57.88" y="-6.5" font-family="Helvetica,sans-Serif" font-size="10.00">GameEngine::Gravity</text>
</a>
</g>
</g>
<!-- Node2 -->
<g id="Node000002" class="node">
<title>Node2</title>
<g id="a_Node000002"><a xlink:href="classComponent.html" target="_top" xlink:title=" ">
<polygon fill="white" stroke="#666666" points="115.75,-76 0,-76 0,-56 115.75,-56 115.75,-76"/>
<text xml:space="preserve" text-anchor="middle" x="57.88" y="-62.5" font-family="Helvetica,sans-Serif" font-size="10.00">Component&lt; Gravity &gt;</text>
</a>
</g>
</g>
<!-- Node2&#45;&gt;Node1 -->
<g id="edge1_Node000001_Node000002" class="edge">
<title>Node2&#45;&gt;Node1</title>
<g id="a_edge1_Node000001_Node000002"><a xlink:title=" ">
<path fill="none" stroke="#63b8ff" d="M57.88,-44.13C57.88,-35.9 57.88,-26.85 57.88,-20.3"/>
<polygon fill="#63b8ff" stroke="#63b8ff" points="54.38,-44.08 57.88,-54.08 61.38,-44.08 54.38,-44.08"/>
</a>
</g>
</g>
<!-- Node3 -->
<g id="Node000003" class="node">
<title>Node3</title>
<g id="a_Node000003"><a xlink:href="classIComponent.html" target="_top" xlink:title="Interface de base pour tous les composants ECS.">
<polygon fill="white" stroke="#666666" points="92.5,-132 23.25,-132 23.25,-112 92.5,-112 92.5,-132"/>
<text xml:space="preserve" text-anchor="middle" x="57.88" y="-118.5" font-family="Helvetica,sans-Serif" font-size="10.00">IComponent</text>
</a>
</g>
</g>
<!-- Node3&#45;&gt;Node2 -->
<g id="edge2_Node000002_Node000003" class="edge">
<title>Node3&#45;&gt;Node2</title>
<g id="a_edge2_Node000002_Node000003"><a xlink:title=" ">
<path fill="none" stroke="#63b8ff" d="M57.88,-100.13C57.88,-91.9 57.88,-82.85 57.88,-76.3"/>
<polygon fill="#63b8ff" stroke="#63b8ff" points="54.38,-100.08 57.88,-110.08 61.38,-100.08 54.38,-100.08"/>
</a>
</g>
</g>
</g>
</svg>
