<?xml version="1.0" encoding="UTF-8" standalone="no"?>
<!DOCTYPE svg PUBLIC "-//W3C//DTD SVG 1.1//EN"
 "http://www.w3.org/Graphics/SVG/1.1/DTD/svg11.dtd">
<!-- Generated by graphviz version 14.0.2 (0)
 -->
<!-- Title: GameEngine::Collider Pages: 1 -->
<svg width="231pt" height="175pt"
 viewBox="0.00 0.00 231.00 175.00" xmlns="http://www.w3.org/2000/svg" xmlns:xlink="http://www.w3.org/1999/xlink">
<g id="graph0" class="graph" transform="scale(1 1) rotate(0) translate(4 171)">
<title>GameEngine::Collider</title>
<!-- Node1 -->
<g id="Node000001" class="node">
<title>Node1</title>
<g id="a_Node000001"><a xlink:title="Component defining collision boundaries and interaction rules.">
<polygon fill="#999999" stroke="#666666" points="185.25,-20 74,-20 74,0 185.25,0 185.25,-20"/>
<text xml:space="preserve" text-anchor="middle" x="129.62" y="-6.5" font-family="Helvetica,sans-Serif" font-size="10.00">GameEngine::Collider</text>
</a>
</g>
</g>
<!-- Node2 -->
<g id="Node000002" class="node">
<title>Node2</title>
<g id="a_Node000002"><a xlink:href="classComponent.html" target="_top" xlink:title=" ">
<polygon fill="white" stroke="#666666" points="117.25,-110 0,-110 0,-90 117.25,-90 117.25,-110"/>
<text xml:space="preserve" text-anchor="middle" x="58.62" y="-96.5" font-family="Helvetica,sans-Serif" font-size="10.00">Component&lt; Collider &gt;</text>
</a>
</g>
</g>
<!-- Node2&#45;&gt;Node1 -->
<g id="edge1_Node000001_Node000002" class="edge">
<title>Node2&#45;&gt;Node1</title>
<g id="a_edge1_Node000001_Node000002"><a xlink:title=" ">
<path fill="none" stroke="#63b8ff" d="M73.4,-80.69C88.25,-62.29 110.53,-34.67 122.08,-20.35"/>
<polygon fill="#63b8ff" stroke="#63b8ff" points="70.73,-78.42 67.17,-88.4 76.18,-82.82 70.73,-78.42"/>
</a>
</g>
</g>
<!-- Node3 -->
<g id="Node000003" class="node">
<title>Node3</title>
<g id="a_Node000003"><a xlink:href="classIComponent.html" target="_top" xlink:title="Interface de base pour tous les composants ECS.">
<polygon fill="white" stroke="#666666" points="93.25,-167 24,-167 24,-147 93.25,-147 93.25,-167"/>
<text xml:space="preserve" text-anchor="middle" x="58.62" y="-153.5" font-family="Helvetica,sans-Serif" font-size="10.00">IComponent</text>
</a>
</g>
</g>
<!-- Node3&#45;&gt;Node2 -->
<g id="edge2_Node000002_Node000003" class="edge">
<title>Node3&#45;&gt;Node2</title>
<g id="a_edge2_Node000002_Node000003"><a xlink:title=" ">
<path fill="none" stroke="#63b8ff" d="M58.62,-135.69C58.62,-126.97 58.62,-117.22 58.62,-110.28"/>
<polygon fill="#63b8ff" stroke="#63b8ff" points="55.13,-135.4 58.63,-145.4 62.13,-135.4 55.13,-135.4"/>
</a>
</g>
</g>
<!-- Node4 -->
<g id="Node000004" class="node">
<title>Node4</title>
<g id="a_Node000004"><a xlink:href="structvec2.html" target="_top" xlink:title="2D vector structure for position, velocity, and directional calculations.">
<polygon fill="white" stroke="#666666" points="172.12,-110 135.12,-110 135.12,-90 172.12,-90 172.12,-110"/>
<text xml:space="preserve" text-anchor="middle" x="153.62" y="-96.5" font-family="Helvetica,sans-Serif" font-size="10.00">vec2</text>
</a>
</g>
</g>
<!-- Node4&#45;&gt;Node1 -->
<g id="edge3_Node000001_Node000004" class="edge">
<title>Node4&#45;&gt;Node1</title>
<g id="a_edge3_Node000001_Node000004"><a xlink:title=" ">
<path fill="none" stroke="#9a32cd" stroke-dasharray="5,2" d="M148.07,-78.61C143.06,-60.27 135.94,-34.14 132.17,-20.35"/>
<polygon fill="#9a32cd" stroke="#9a32cd" points="144.65,-79.4 150.66,-88.12 151.4,-77.55 144.65,-79.4"/>
</a>
</g>
<text xml:space="preserve" text-anchor="start" x="148.86" y="-59.5" font-family="Helvetica,sans-Serif" font-size="10.00" fill="grey">originTranslation</text>
<text xml:space="preserve" text-anchor="start" x="148.86" y="-43.5" font-family="Helvetica,sans-Serif" font-size="10.00" fill="grey">size</text>
</g>
</g>
</svg>
