<?xml version="1.0" encoding="UTF-8" standalone="no"?>
<!DOCTYPE svg PUBLIC "-//W3C//DTD SVG 1.1//EN"
 "http://www.w3.org/Graphics/SVG/1.1/DTD/svg11.dtd">
<!-- Generated by graphviz version 14.0.2 (0)
 -->
<!-- Title: GameEngine::Health Pages: 1 -->
<svg width="121pt" height="140pt"
 viewBox="0.00 0.00 121.00 140.00" xmlns="http://www.w3.org/2000/svg" xmlns:xlink="http://www.w3.org/1999/xlink">
<g id="graph0" class="graph" transform="scale(1 1) rotate(0) translate(4 136)">
<title>GameEngine::Health</title>
<!-- Node1 -->
<g id="Node000001" class="node">
<title>Node1</title>
<g id="a_Node000001"><a xlink:title="Component representing an entity&#39;s health points and maximum capacity.">
<polygon fill="#999999" stroke="#666666" points="109.75,-20 3,-20 3,0 109.75,0 109.75,-20"/>
<text xml:space="preserve" text-anchor="middle" x="56.38" y="-6.5" font-family="Helvetica,sans-Serif" font-size="10.00">GameEngine::Health</text>
</a>
</g>
</g>
<!-- Node2 -->
<g id="Node000002" class="node">
<title>Node2</title>
<g id="a_Node000002"><a xlink:href="classComponent.html" target="_top" xlink:title=" ">
<polygon fill="white" stroke="#666666" points="112.75,-76 0,-76 0,-56 112.75,-56 112.75,-76"/>
<text xml:space="preserve" text-anchor="middle" x="56.38" y="-62.5" font-family="Helvetica,sans-Serif" font-size="10.00">Component&lt; Health &gt;</text>
</a>
</g>
</g>
<!-- Node2&#45;&gt;Node1 -->
<g id="edge1_Node000001_Node000002" class="edge">
<title>Node2&#45;&gt;Node1</title>
<g id="a_edge1_Node000001_Node000002"><a xlink:title=" ">
<path fill="none" stroke="#63b8ff" d="M56.38,-44.13C56.38,-35.9 56.38,-26.85 56.38,-20.3"/>
<polygon fill="#63b8ff" stroke="#63b8ff" points="52.88,-44.08 56.38,-54.08 59.88,-44.08 52.88,-44.08"/>
</a>
</g>
</g>
<!-- Node3 -->
<g id="Node000003" class="node">
<title>Node3</title>
<g id="a_Node000003"><a xlink:href="classIComponent.html" target="_top" xlink:title="Interface de base pour tous les composants ECS.">
<polygon fill="white" stroke="#666666" points="91,-132 21.75,-132 21.75,-112 91,-112 91,-132"/>
<text xml:space="preserve" text-anchor="middle" x="56.38" y="-118.5" font-family="Helvetica,sans-Serif" font-size="10.00">IComponent</text>
</a>
</g>
</g>
<!-- Node3&#45;&gt;Node2 -->
<g id="edge2_Node000002_Node000003" class="edge">
<title>Node3&#45;&gt;Node2</title>
<g id="a_edge2_Node000002_Node000003"><a xlink:title=" ">
<path fill="none" stroke="#63b8ff" d="M56.38,-100.13C56.38,-91.9 56.38,-82.85 56.38,-76.3"/>
<polygon fill="#63b8ff" stroke="#63b8ff" points="52.88,-100.08 56.38,-110.08 59.88,-100.08 52.88,-100.08"/>
</a>
</g>
</g>
</g>
</svg>
