<?xml version="1.0" encoding="UTF-8" standalone="no"?>
<!DOCTYPE svg PUBLIC "-//W3C//DTD SVG 1.1//EN"
 "http://www.w3.org/Graphics/SVG/1.1/DTD/svg11.dtd">
<!-- Generated by graphviz version 14.0.1 (0)
 -->
<!-- Title: ecs/System.hpp Pages: 1 -->
<svg width="669pt" height="152pt"
 viewBox="0.00 0.00 669.00 152.00" xmlns="http://www.w3.org/2000/svg" xmlns:xlink="http://www.w3.org/1999/xlink">
<g id="graph0" class="graph" transform="scale(1 1) rotate(0) translate(4 148)">
<title>ecs/System.hpp</title>
<!-- Node1 -->
<g id="Node000001" class="node">
<title>Node1</title>
<g id="a_Node000001"><a xlink:title=" ">
<polygon fill="#999999" stroke="#666666" points="380.75,-144 293.5,-144 293.5,-124 380.75,-124 380.75,-144"/>
<text xml:space="preserve" text-anchor="middle" x="337.12" y="-130.5" font-family="Helvetica,sans-Serif" font-size="10.00">ecs/System.hpp</text>
</a>
</g>
</g>
<!-- Node2 -->
<g id="Node000002" class="node">
<title>Node2</title>
<g id="a_Node000002"><a xlink:href="Registry_8hpp.html" target="_top" xlink:title=" ">
<polygon fill="white" stroke="#666666" points="345.88,-88 256.38,-88 256.38,-68 345.88,-68 345.88,-88"/>
<text xml:space="preserve" text-anchor="middle" x="301.12" y="-74.5" font-family="Helvetica,sans-Serif" font-size="10.00">ecs/Registry.hpp</text>
</a>
</g>
</g>
<!-- Node1&#45;&gt;Node2 -->
<g id="edge1_Node000001_Node000002" class="edge">
<title>Node1&#45;&gt;Node2</title>
<g id="a_edge1_Node000001_Node000002"><a xlink:title=" ">
<path fill="none" stroke="#63b8ff" d="M324.56,-114.15C318.73,-105.4 312.05,-95.39 307.32,-88.3"/>
<polygon fill="#63b8ff" stroke="#63b8ff" points="321.56,-115.96 330.01,-122.33 327.38,-112.07 321.56,-115.96"/>
</a>
</g>
</g>
<!-- Node3 -->
<g id="Node000003" class="node">
<title>Node3</title>
<g id="a_Node000003"><a xlink:href="Collision_8hpp.html" target="_top" xlink:title=" ">
<polygon fill="white" stroke="#666666" points="108.25,-32 0,-32 0,0 108.25,0 108.25,-32"/>
<text xml:space="preserve" text-anchor="start" x="8" y="-18.5" font-family="Helvetica,sans-Serif" font-size="10.00">systems/collision/src</text>
<text xml:space="preserve" text-anchor="middle" x="54.12" y="-6.5" font-family="Helvetica,sans-Serif" font-size="10.00">/Collision.hpp</text>
</a>
</g>
</g>
<!-- Node1&#45;&gt;Node3 -->
<g id="edge7_Node000001_Node000003" class="edge">
<title>Node1&#45;&gt;Node3</title>
<g id="a_edge7_Node000001_Node000003"><a xlink:title=" ">
<path fill="none" stroke="#63b8ff" d="M303.25,-119.33C281.25,-110.44 251.97,-98.57 226.12,-88 179.63,-68.98 126.16,-46.87 91.34,-32.44"/>
<polygon fill="#63b8ff" stroke="#63b8ff" points="301.73,-122.49 312.32,-122.99 304.36,-116 301.73,-122.49"/>
</a>
</g>
</g>
<!-- Node4 -->
<g id="Node000004" class="node">
<title>Node4</title>
<g id="a_Node000004"><a xlink:href="Death_8hpp.html" target="_top" xlink:title=" ">
<polygon fill="white" stroke="#666666" points="271.62,-26 126.62,-26 126.62,-6 271.62,-6 271.62,-26"/>
<text xml:space="preserve" text-anchor="middle" x="199.12" y="-12.5" font-family="Helvetica,sans-Serif" font-size="10.00">systems/death/src/Death.hpp</text>
</a>
</g>
</g>
<!-- Node1&#45;&gt;Node4 -->
<g id="edge8_Node000001_Node000004" class="edge">
<title>Node1&#45;&gt;Node4</title>
<g id="a_edge8_Node000001_Node000004"><a xlink:title=" ">
<path fill="none" stroke="#63b8ff" d="M299.46,-119.32C282.25,-111.84 262.35,-101.35 247.12,-88 226.54,-69.95 210.75,-41.17 203.5,-26.41"/>
<polygon fill="#63b8ff" stroke="#63b8ff" points="297.78,-122.42 308.36,-123.01 300.46,-115.95 297.78,-122.42"/>
</a>
</g>
</g>
<!-- Node5 -->
<g id="Node000005" class="node">
<title>Node5</title>
<g id="a_Node000005"><a xlink:href="DomainHandler_8hpp.html" target="_top" xlink:title=" ">
<polygon fill="white" stroke="#666666" points="411,-32 289.25,-32 289.25,0 411,0 411,-32"/>
<text xml:space="preserve" text-anchor="start" x="297.25" y="-18.5" font-family="Helvetica,sans-Serif" font-size="10.00">systems/domainHandler</text>
<text xml:space="preserve" text-anchor="middle" x="350.12" y="-6.5" font-family="Helvetica,sans-Serif" font-size="10.00">/src/DomainHandler.hpp</text>
</a>
</g>
</g>
<!-- Node1&#45;&gt;Node5 -->
<g id="edge9_Node000001_Node000005" class="edge">
<title>Node1&#45;&gt;Node5</title>
<g id="a_edge9_Node000001_Node000005"><a xlink:title=" ">
<path fill="none" stroke="#63b8ff" d="M346.92,-113.24C350.21,-105.56 353.48,-96.56 355.12,-88 358.77,-69.07 356.12,-46.85 353.49,-32.37"/>
<polygon fill="#63b8ff" stroke="#63b8ff" points="343.75,-111.75 342.72,-122.29 350.1,-114.69 343.75,-111.75"/>
</a>
</g>
</g>
<!-- Node6 -->
<g id="Node000006" class="node">
<title>Node6</title>
<g id="a_Node000006"><a xlink:href="InputHandler_8hpp.html" target="_top" xlink:title=" ">
<polygon fill="white" stroke="#666666" points="540.75,-32 429.5,-32 429.5,0 540.75,0 540.75,-32"/>
<text xml:space="preserve" text-anchor="start" x="437.5" y="-18.5" font-family="Helvetica,sans-Serif" font-size="10.00">systems/inputHandler</text>
<text xml:space="preserve" text-anchor="middle" x="485.12" y="-6.5" font-family="Helvetica,sans-Serif" font-size="10.00">/src/InputHandler.hpp</text>
</a>
</g>
</g>
<!-- Node1&#45;&gt;Node6 -->
<g id="edge10_Node000001_Node000006" class="edge">
<title>Node1&#45;&gt;Node6</title>
<g id="a_edge10_Node000001_Node000006"><a xlink:title=" ">
<path fill="none" stroke="#63b8ff" d="M358.01,-116.63C386.59,-94.23 437.53,-54.31 465.46,-32.41"/>
<polygon fill="#63b8ff" stroke="#63b8ff" points="356.14,-113.65 350.43,-122.57 360.46,-119.16 356.14,-113.65"/>
</a>
</g>
</g>
<!-- Node7 -->
<g id="Node000007" class="node">
<title>Node7</title>
<g id="a_Node000007"><a xlink:href="Motion_8hpp.html" target="_top" xlink:title=" ">
<polygon fill="white" stroke="#666666" points="661.25,-32 559,-32 559,0 661.25,0 661.25,-32"/>
<text xml:space="preserve" text-anchor="start" x="567" y="-18.5" font-family="Helvetica,sans-Serif" font-size="10.00">systems/motion/src</text>
<text xml:space="preserve" text-anchor="middle" x="610.12" y="-6.5" font-family="Helvetica,sans-Serif" font-size="10.00">/Motion.hpp</text>
</a>
</g>
</g>
<!-- Node1&#45;&gt;Node7 -->
<g id="edge11_Node000001_Node000007" class="edge">
<title>Node1&#45;&gt;Node7</title>
<g id="a_edge11_Node000001_Node000007"><a xlink:title=" ">
<path fill="none" stroke="#63b8ff" d="M369.97,-119.04C421.37,-97.21 520.42,-55.11 573.85,-32.41"/>
<polygon fill="#63b8ff" stroke="#63b8ff" points="368.69,-115.78 360.86,-122.92 371.43,-122.23 368.69,-115.78"/>
</a>
</g>
</g>
<!-- Node2&#45;&gt;Node3 -->
<g id="edge2_Node000002_Node000003" class="edge">
<title>Node2&#45;&gt;Node3</title>
<g id="a_edge2_Node000002_Node000003"><a xlink:title=" ">
<path fill="none" stroke="#63b8ff" d="M251.33,-64.9C209.89,-54.84 150.99,-40.53 108.36,-30.17"/>
<polygon fill="#63b8ff" stroke="#63b8ff" points="250.25,-68.24 260.79,-67.2 251.9,-61.44 250.25,-68.24"/>
</a>
</g>
</g>
<!-- Node2&#45;&gt;Node4 -->
<g id="edge3_Node000002_Node000004" class="edge">
<title>Node2&#45;&gt;Node4</title>
<g id="a_edge3_Node000002_Node000004"><a xlink:title=" ">
<path fill="none" stroke="#63b8ff" d="M275.37,-61.85C256.35,-50.66 231.08,-35.8 214.95,-26.31"/>
<polygon fill="#63b8ff" stroke="#63b8ff" points="273.49,-64.8 283.88,-66.86 277.04,-58.77 273.49,-64.8"/>
</a>
</g>
</g>
<!-- Node2&#45;&gt;Node5 -->
<g id="edge4_Node000002_Node000005" class="edge">
<title>Node2&#45;&gt;Node5</title>
<g id="a_edge4_Node000002_Node000005"><a xlink:title=" ">
<path fill="none" stroke="#63b8ff" d="M315.97,-58.83C322.93,-50.3 331.14,-40.25 337.76,-32.14"/>
<polygon fill="#63b8ff" stroke="#63b8ff" points="313.35,-56.49 309.74,-66.45 318.77,-60.92 313.35,-56.49"/>
</a>
</g>
</g>
<!-- Node2&#45;&gt;Node6 -->
<g id="edge5_Node000002_Node000006" class="edge">
<title>Node2&#45;&gt;Node6</title>
<g id="a_edge5_Node000002_Node000006"><a xlink:title=" ">
<path fill="none" stroke="#63b8ff" d="M340.62,-64.12C369.04,-54.85 407.52,-42.31 437.62,-32.49"/>
<polygon fill="#63b8ff" stroke="#63b8ff" points="339.74,-60.73 331.31,-67.16 341.91,-67.38 339.74,-60.73"/>
</a>
</g>
</g>
<!-- Node2&#45;&gt;Node7 -->
<g id="edge6_Node000002_Node000007" class="edge">
<title>Node2&#45;&gt;Node7</title>
<g id="a_edge6_Node000002_Node000007"><a xlink:title=" ">
<path fill="none" stroke="#63b8ff" d="M357.63,-67.89C408.23,-59.46 484.38,-46.14 550.12,-32 552.96,-31.39 555.86,-30.74 558.79,-30.07"/>
<polygon fill="#63b8ff" stroke="#63b8ff" points="357.07,-64.43 347.78,-69.52 358.21,-71.34 357.07,-64.43"/>
</a>
</g>
</g>
</g>
</svg>
