<?xml version="1.0" encoding="UTF-8" standalone="no"?>
<!DOCTYPE svg PUBLIC "-//W3C//DTD SVG 1.1//EN"
 "http://www.w3.org/Graphics/SVG/1.1/DTD/svg11.dtd">
<!-- Generated by graphviz version 14.0.2 (0)
 -->
<!-- Title: ecs/System.hpp Pages: 1 -->
<svg width="388pt" height="196pt"
 viewBox="0.00 0.00 388.00 196.00" xmlns="http://www.w3.org/2000/svg" xmlns:xlink="http://www.w3.org/1999/xlink">
<g id="graph0" class="graph" transform="scale(1 1) rotate(0) translate(4 192)">
<title>ecs/System.hpp</title>
<!-- Node1 -->
<g id="Node000001" class="node">
<title>Node1</title>
<g id="a_Node000001"><a xlink:title=" ">
<polygon fill="#999999" stroke="#666666" points="163.62,-188 76.38,-188 76.38,-168 163.62,-168 163.62,-188"/>
<text xml:space="preserve" text-anchor="middle" x="120" y="-174.5" font-family="Helvetica,sans-Serif" font-size="10.00">ecs/System.hpp</text>
</a>
</g>
</g>
<!-- Node2 -->
<g id="Node000002" class="node">
<title>Node2</title>
<g id="a_Node000002"><a xlink:title=" ">
<polygon fill="#e0e0e0" stroke="#999999" points="40,-76 0,-76 0,-56 40,-56 40,-76"/>
<text xml:space="preserve" text-anchor="middle" x="20" y="-62.5" font-family="Helvetica,sans-Serif" font-size="10.00">string</text>
</a>
</g>
</g>
<!-- Node1&#45;&gt;Node2 -->
<g id="edge1_Node000001_Node000002" class="edge">
<title>Node1&#45;&gt;Node2</title>
<g id="a_edge1_Node000001_Node000002"><a xlink:title=" ">
<path fill="none" stroke="#63b8ff" d="M111.47,-167.62C94.8,-149.27 57.61,-108.37 36.14,-84.75"/>
<polygon fill="#63b8ff" stroke="#63b8ff" points="38.84,-82.52 29.52,-77.47 33.66,-87.23 38.84,-82.52"/>
</a>
</g>
</g>
<!-- Node3 -->
<g id="Node000003" class="node">
<title>Node3</title>
<g id="a_Node000003"><a xlink:title=" ">
<polygon fill="#e0e0e0" stroke="#999999" points="101.5,-76 58.5,-76 58.5,-56 101.5,-56 101.5,-76"/>
<text xml:space="preserve" text-anchor="middle" x="80" y="-62.5" font-family="Helvetica,sans-Serif" font-size="10.00">vector</text>
</a>
</g>
</g>
<!-- Node1&#45;&gt;Node3 -->
<g id="edge2_Node000001_Node000003" class="edge">
<title>Node1&#45;&gt;Node3</title>
<g id="a_edge2_Node000001_Node000003"><a xlink:title=" ">
<path fill="none" stroke="#63b8ff" d="M114.14,-167.67C108.77,-158.79 100.94,-144.9 96,-132 90.46,-117.52 86.35,-100.49 83.68,-87.49"/>
<polygon fill="#63b8ff" stroke="#63b8ff" points="87.18,-87.13 81.85,-77.97 80.3,-88.45 87.18,-87.13"/>
</a>
</g>
</g>
<!-- Node4 -->
<g id="Node000004" class="node">
<title>Node4</title>
<g id="a_Node000004"><a xlink:href="ComponentRegistry_8hpp.html" target="_top" xlink:title=" ">
<polygon fill="white" stroke="#666666" points="225.5,-132 104.5,-132 104.5,-112 225.5,-112 225.5,-132"/>
<text xml:space="preserve" text-anchor="middle" x="165" y="-118.5" font-family="Helvetica,sans-Serif" font-size="10.00">ComponentRegistry.hpp</text>
</a>
</g>
</g>
<!-- Node1&#45;&gt;Node4 -->
<g id="edge3_Node000001_Node000004" class="edge">
<title>Node1&#45;&gt;Node4</title>
<g id="a_edge3_Node000001_Node000004"><a xlink:title=" ">
<path fill="none" stroke="#63b8ff" d="M127.84,-167.59C133.97,-160.24 142.67,-149.8 150.11,-140.87"/>
<polygon fill="#63b8ff" stroke="#63b8ff" points="152.57,-143.38 156.28,-133.46 147.19,-138.9 152.57,-143.38"/>
</a>
</g>
</g>
<!-- Node7 -->
<g id="Node000007" class="node">
<title>Node7</title>
<g id="a_Node000007"><a xlink:href="Types_8hpp.html" target="_top" xlink:title="Core type definitions used throughout the ECS (Entity Component System).">
<polygon fill="white" stroke="#666666" points="357.5,-76 296.5,-76 296.5,-56 357.5,-56 357.5,-76"/>
<text xml:space="preserve" text-anchor="middle" x="327" y="-62.5" font-family="Helvetica,sans-Serif" font-size="10.00">Types.hpp</text>
</a>
</g>
</g>
<!-- Node1&#45;&gt;Node7 -->
<g id="edge11_Node000001_Node000007" class="edge">
<title>Node1&#45;&gt;Node7</title>
<g id="a_edge11_Node000001_Node000007"><a xlink:title=" ">
<path fill="none" stroke="#63b8ff" d="M149.7,-167.6C173.45,-159.56 207.25,-146.94 235,-132 261.15,-117.92 288.65,-97.67 306.7,-83.52"/>
<polygon fill="#63b8ff" stroke="#63b8ff" points="308.85,-86.28 314.5,-77.31 304.5,-80.8 308.85,-86.28"/>
</a>
</g>
</g>
<!-- Node4&#45;&gt;Node2 -->
<g id="edge4_Node000004_Node000002" class="edge">
<title>Node4&#45;&gt;Node2</title>
<g id="a_edge4_Node000004_Node000002"><a xlink:title=" ">
<path fill="none" stroke="#63b8ff" d="M139.74,-111.59C115.04,-102.39 77.36,-88.36 50.89,-78.5"/>
<polygon fill="#63b8ff" stroke="#63b8ff" points="52.31,-75.3 41.71,-75.09 49.86,-81.86 52.31,-75.3"/>
</a>
</g>
</g>
<!-- Node4&#45;&gt;Node3 -->
<g id="edge7_Node000004_Node000003" class="edge">
<title>Node4&#45;&gt;Node3</title>
<g id="a_edge7_Node000004_Node000003"><a xlink:title=" ">
<path fill="none" stroke="#63b8ff" d="M150.19,-111.59C137.6,-103.59 119.25,-91.93 104.47,-82.54"/>
<polygon fill="#63b8ff" stroke="#63b8ff" points="106.52,-79.7 96.2,-77.29 102.76,-85.61 106.52,-79.7"/>
</a>
</g>
</g>
<!-- Node5 -->
<g id="Node000005" class="node">
<title>Node5</title>
<g id="a_Node000005"><a xlink:title=" ">
<polygon fill="#e0e0e0" stroke="#999999" points="278,-76 220,-76 220,-56 278,-56 278,-76"/>
<text xml:space="preserve" text-anchor="middle" x="249" y="-62.5" font-family="Helvetica,sans-Serif" font-size="10.00">typeindex</text>
</a>
</g>
</g>
<!-- Node4&#45;&gt;Node5 -->
<g id="edge5_Node000004_Node000005" class="edge">
<title>Node4&#45;&gt;Node5</title>
<g id="a_edge5_Node000004_Node000005"><a xlink:title=" ">
<path fill="none" stroke="#63b8ff" d="M179.63,-111.59C192.08,-103.59 210.22,-91.93 224.82,-82.54"/>
<polygon fill="#63b8ff" stroke="#63b8ff" points="226.46,-85.65 232.98,-77.3 222.68,-79.76 226.46,-85.65"/>
</a>
</g>
</g>
<!-- Node6 -->
<g id="Node000006" class="node">
<title>Node6</title>
<g id="a_Node000006"><a xlink:title=" ">
<polygon fill="#e0e0e0" stroke="#999999" points="202.38,-76 119.62,-76 119.62,-56 202.38,-56 202.38,-76"/>
<text xml:space="preserve" text-anchor="middle" x="161" y="-62.5" font-family="Helvetica,sans-Serif" font-size="10.00">unordered_map</text>
</a>
</g>
</g>
<!-- Node4&#45;&gt;Node6 -->
<g id="edge6_Node000004_Node000006" class="edge">
<title>Node4&#45;&gt;Node6</title>
<g id="a_edge6_Node000004_Node000006"><a xlink:title=" ">
<path fill="none" stroke="#63b8ff" d="M164.3,-111.59C163.82,-105.01 163.15,-95.96 162.54,-87.73"/>
<polygon fill="#63b8ff" stroke="#63b8ff" points="166.03,-87.52 161.8,-77.81 159.05,-88.04 166.03,-87.52"/>
</a>
</g>
</g>
<!-- Node4&#45;&gt;Node7 -->
<g id="edge8_Node000004_Node000007" class="edge">
<title>Node4&#45;&gt;Node7</title>
<g id="a_edge8_Node000004_Node000007"><a xlink:title=" ">
<path fill="none" stroke="#63b8ff" d="M193.22,-111.59C219.42,-102.86 258.68,-89.77 287.9,-80.03"/>
<polygon fill="#63b8ff" stroke="#63b8ff" points="288.75,-83.44 297.13,-76.96 286.53,-76.8 288.75,-83.44"/>
</a>
</g>
</g>
<!-- Node8 -->
<g id="Node000008" class="node">
<title>Node8</title>
<g id="a_Node000008"><a xlink:title=" ">
<polygon fill="#e0e0e0" stroke="#999999" points="316,-20 276,-20 276,0 316,0 316,-20"/>
<text xml:space="preserve" text-anchor="middle" x="296" y="-6.5" font-family="Helvetica,sans-Serif" font-size="10.00">bitset</text>
</a>
</g>
</g>
<!-- Node7&#45;&gt;Node8 -->
<g id="edge9_Node000007_Node000008" class="edge">
<title>Node7&#45;&gt;Node8</title>
<g id="a_edge9_Node000007_Node000008"><a xlink:title=" ">
<path fill="none" stroke="#63b8ff" d="M321.6,-55.59C317.56,-48.55 311.88,-38.67 306.91,-30"/>
<polygon fill="#63b8ff" stroke="#63b8ff" points="310.11,-28.54 302.09,-21.61 304.03,-32.03 310.11,-28.54"/>
</a>
</g>
</g>
<!-- Node9 -->
<g id="Node000009" class="node">
<title>Node9</title>
<g id="a_Node000009"><a xlink:title=" ">
<polygon fill="#e0e0e0" stroke="#999999" points="379.62,-20 334.38,-20 334.38,0 379.62,0 379.62,-20"/>
<text xml:space="preserve" text-anchor="middle" x="357" y="-6.5" font-family="Helvetica,sans-Serif" font-size="10.00">cstdint</text>
</a>
</g>
</g>
<!-- Node7&#45;&gt;Node9 -->
<g id="edge10_Node000007_Node000009" class="edge">
<title>Node7&#45;&gt;Node9</title>
<g id="a_edge10_Node000007_Node000009"><a xlink:title=" ">
<path fill="none" stroke="#63b8ff" d="M332.23,-55.59C336.1,-48.63 341.51,-38.89 346.28,-30.29"/>
<polygon fill="#63b8ff" stroke="#63b8ff" points="349.3,-32.06 351.1,-21.62 343.18,-28.66 349.3,-32.06"/>
</a>
</g>
</g>
</g>
</svg>
