<?xml version="1.0" encoding="UTF-8" standalone="no"?>
<!DOCTYPE svg PUBLIC "-//W3C//DTD SVG 1.1//EN"
 "http://www.w3.org/Graphics/SVG/1.1/DTD/svg11.dtd">
<!-- Generated by graphviz version 14.0.1 (0)
 -->
<!-- Title: systems/inputHandler/src/InputHandler.hpp Pages: 1 -->
<svg width="1335pt" height="356pt"
 viewBox="0.00 0.00 1335.00 356.00" xmlns="http://www.w3.org/2000/svg" xmlns:xlink="http://www.w3.org/1999/xlink">
<g id="graph0" class="graph" transform="scale(1 1) rotate(0) translate(4 352)">
<title>systems/inputHandler/src/InputHandler.hpp</title>
<!-- Node1 -->
<g id="Node000001" class="node">
<title>Node1</title>
<g id="a_Node000001"><a xlink:title=" ">
<polygon fill="#999999" stroke="#666666" points="711.75,-348 600.5,-348 600.5,-316 711.75,-316 711.75,-348"/>
<text xml:space="preserve" text-anchor="start" x="608.5" y="-334.5" font-family="Helvetica,sans-Serif" font-size="10.00">systems/inputHandler</text>
<text xml:space="preserve" text-anchor="middle" x="656.12" y="-322.5" font-family="Helvetica,sans-Serif" font-size="10.00">/src/InputHandler.hpp</text>
</a>
</g>
</g>
<!-- Node2 -->
<g id="Node000002" class="node">
<title>Node2</title>
<g id="a_Node000002"><a xlink:title=" ">
<polygon fill="#e0e0e0" stroke="#999999" points="139.75,-20 94.5,-20 94.5,0 139.75,0 139.75,-20"/>
<text xml:space="preserve" text-anchor="middle" x="117.12" y="-6.5" font-family="Helvetica,sans-Serif" font-size="10.00">cstdint</text>
</a>
</g>
</g>
<!-- Node1&#45;&gt;Node2 -->
<g id="edge1_Node000001_Node000002" class="edge">
<title>Node1&#45;&gt;Node2</title>
<g id="a_edge1_Node000001_Node000002"><a xlink:title=" ">
<path fill="none" stroke="#63b8ff" d="M600.11,-330.19C456.81,-326.6 88.12,-307.24 88.12,-203 88.12,-203 88.12,-203 88.12,-133 88.12,-96.12 100.82,-54.64 109.41,-30.78"/>
<polygon fill="#63b8ff" stroke="#63b8ff" points="112.57,-32.32 112.8,-21.73 106.02,-29.87 112.57,-32.32"/>
</a>
</g>
</g>
<!-- Node3 -->
<g id="Node000003" class="node">
<title>Node3</title>
<g id="a_Node000003"><a xlink:href="Registry_8hpp.html" target="_top" xlink:title=" ">
<polygon fill="white" stroke="#666666" points="464.38,-274 347.88,-274 347.88,-254 464.38,-254 464.38,-274"/>
<text xml:space="preserve" text-anchor="middle" x="406.12" y="-260.5" font-family="Helvetica,sans-Serif" font-size="10.00">../../../ecs/Registry.hpp</text>
</a>
</g>
</g>
<!-- Node1&#45;&gt;Node3 -->
<g id="edge2_Node000001_Node000003" class="edge">
<title>Node1&#45;&gt;Node3</title>
<g id="a_edge2_Node000001_Node000003"><a xlink:title=" ">
<path fill="none" stroke="#63b8ff" d="M600.02,-316.19C555.71,-304.49 494.61,-288.36 452.91,-277.35"/>
<polygon fill="#63b8ff" stroke="#63b8ff" points="453.99,-274.02 443.42,-274.85 452.2,-280.78 453.99,-274.02"/>
</a>
</g>
</g>
<!-- Node10 -->
<g id="Node000010" class="node">
<title>Node10</title>
<g id="a_Node000010"><a xlink:href="System_8hpp.html" target="_top" xlink:title=" ">
<polygon fill="white" stroke="#666666" points="668.38,-212 599.88,-212 599.88,-192 668.38,-192 668.38,-212"/>
<text xml:space="preserve" text-anchor="middle" x="634.12" y="-198.5" font-family="Helvetica,sans-Serif" font-size="10.00">System.hpp</text>
</a>
</g>
</g>
<!-- Node1&#45;&gt;Node10 -->
<g id="edge27_Node000001_Node000010" class="edge">
<title>Node1&#45;&gt;Node10</title>
<g id="a_edge27_Node000001_Node000010"><a xlink:title=" ">
<path fill="none" stroke="#63b8ff" d="M625.94,-315.57C612.67,-307.04 598.47,-295.09 591.12,-280 584.9,-267.21 585.83,-261.2 591.12,-248 595.5,-237.1 603.91,-227.34 612.14,-219.72"/>
<polygon fill="#63b8ff" stroke="#63b8ff" points="614.31,-222.47 619.65,-213.33 609.77,-217.15 614.31,-222.47"/>
</a>
</g>
</g>
<!-- Node17 -->
<g id="Node000017" class="node">
<title>Node17</title>
<g id="a_Node000017"><a xlink:href="Health_8hpp.html" target="_top" xlink:title=" ">
<polygon fill="white" stroke="#666666" points="712.12,-280 600.12,-280 600.12,-248 712.12,-248 712.12,-280"/>
<text xml:space="preserve" text-anchor="start" x="608.12" y="-266.5" font-family="Helvetica,sans-Serif" font-size="10.00">../../../components</text>
<text xml:space="preserve" text-anchor="middle" x="656.12" y="-254.5" font-family="Helvetica,sans-Serif" font-size="10.00">/health/src/Health.hpp</text>
</a>
</g>
</g>
<!-- Node1&#45;&gt;Node17 -->
<g id="edge28_Node000001_Node000017" class="edge">
<title>Node1&#45;&gt;Node17</title>
<g id="a_edge28_Node000001_Node000017"><a xlink:title=" ">
<path fill="none" stroke="#63b8ff" d="M656.12,-315.69C656.12,-308.53 656.12,-299.79 656.12,-291.59"/>
<polygon fill="#63b8ff" stroke="#63b8ff" points="659.63,-291.74 656.13,-281.74 652.63,-291.74 659.63,-291.74"/>
</a>
</g>
</g>
<!-- Node18 -->
<g id="Node000018" class="node">
<title>Node18</title>
<g id="a_Node000018"><a xlink:href="Damage_8hpp.html" target="_top" xlink:title=" ">
<polygon fill="white" stroke="#666666" points="858.38,-280 729.88,-280 729.88,-248 858.38,-248 858.38,-280"/>
<text xml:space="preserve" text-anchor="start" x="737.88" y="-266.5" font-family="Helvetica,sans-Serif" font-size="10.00">../../../components</text>
<text xml:space="preserve" text-anchor="middle" x="794.12" y="-254.5" font-family="Helvetica,sans-Serif" font-size="10.00">/damage/src/Damage.hpp</text>
</a>
</g>
</g>
<!-- Node1&#45;&gt;Node18 -->
<g id="edge29_Node000001_Node000018" class="edge">
<title>Node1&#45;&gt;Node18</title>
<g id="a_edge29_Node000001_Node000018"><a xlink:title=" ">
<path fill="none" stroke="#63b8ff" d="M688.48,-315.53C707.34,-306.51 731.34,-295.03 751.7,-285.29"/>
<polygon fill="#63b8ff" stroke="#63b8ff" points="753.1,-288.5 760.61,-281.03 750.08,-282.19 753.1,-288.5"/>
</a>
</g>
</g>
<!-- Node19 -->
<g id="Node000019" class="node">
<title>Node19</title>
<g id="a_Node000019"><a xlink:href="Position_8hpp.html" target="_top" xlink:title=" ">
<polygon fill="white" stroke="#666666" points="1002.25,-280 876,-280 876,-248 1002.25,-248 1002.25,-280"/>
<text xml:space="preserve" text-anchor="start" x="884" y="-266.5" font-family="Helvetica,sans-Serif" font-size="10.00">../../../components</text>
<text xml:space="preserve" text-anchor="middle" x="939.12" y="-254.5" font-family="Helvetica,sans-Serif" font-size="10.00">/position/src/Position.hpp</text>
</a>
</g>
</g>
<!-- Node1&#45;&gt;Node19 -->
<g id="edge30_Node000001_Node000019" class="edge">
<title>Node1&#45;&gt;Node19</title>
<g id="a_edge30_Node000001_Node000019"><a xlink:title=" ">
<path fill="none" stroke="#63b8ff" d="M712.04,-317.96C755.75,-307.77 816.92,-293.5 864.76,-282.34"/>
<polygon fill="#63b8ff" stroke="#63b8ff" points="865.26,-285.82 874.21,-280.14 863.67,-279 865.26,-285.82"/>
</a>
</g>
</g>
<!-- Node20 -->
<g id="Node000020" class="node">
<title>Node20</title>
<g id="a_Node000020"><a xlink:href="Velocity_8hpp.html" target="_top" xlink:title=" ">
<polygon fill="white" stroke="#666666" points="1145.5,-280 1020.75,-280 1020.75,-248 1145.5,-248 1145.5,-280"/>
<text xml:space="preserve" text-anchor="start" x="1028.75" y="-266.5" font-family="Helvetica,sans-Serif" font-size="10.00">../../../components</text>
<text xml:space="preserve" text-anchor="middle" x="1083.12" y="-254.5" font-family="Helvetica,sans-Serif" font-size="10.00">/velocity/src/Velocity.hpp</text>
</a>
</g>
</g>
<!-- Node1&#45;&gt;Node20 -->
<g id="edge31_Node000001_Node000020" class="edge">
<title>Node1&#45;&gt;Node20</title>
<g id="a_edge31_Node000001_Node000020"><a xlink:title=" ">
<path fill="none" stroke="#63b8ff" d="M712.25,-324.04C780.11,-315.38 898.04,-299.55 1009.26,-280.26"/>
<polygon fill="#63b8ff" stroke="#63b8ff" points="1009.6,-283.75 1018.85,-278.58 1008.4,-276.86 1009.6,-283.75"/>
</a>
</g>
</g>
<!-- Node21 -->
<g id="Node000021" class="node">
<title>Node21</title>
<g id="a_Node000021"><a xlink:href="Acceleration_8hpp.html" target="_top" xlink:title=" ">
<polygon fill="white" stroke="#666666" points="1327,-280 1163.25,-280 1163.25,-248 1327,-248 1327,-280"/>
<text xml:space="preserve" text-anchor="start" x="1171.25" y="-266.5" font-family="Helvetica,sans-Serif" font-size="10.00">../../../components</text>
<text xml:space="preserve" text-anchor="middle" x="1245.12" y="-254.5" font-family="Helvetica,sans-Serif" font-size="10.00">/acceleration/src/Acceleration.hpp</text>
</a>
</g>
</g>
<!-- Node1&#45;&gt;Node21 -->
<g id="edge32_Node000001_Node000021" class="edge">
<title>Node1&#45;&gt;Node21</title>
<g id="a_edge32_Node000001_Node000021"><a xlink:title=" ">
<path fill="none" stroke="#63b8ff" d="M711.9,-326.41C802.05,-318.75 985.62,-302.13 1151.42,-280.31"/>
<polygon fill="#63b8ff" stroke="#63b8ff" points="1151.87,-283.78 1161.32,-279 1150.95,-276.84 1151.87,-283.78"/>
</a>
</g>
</g>
<!-- Node22 -->
<g id="Node000022" class="node">
<title>Node22</title>
<g id="a_Node000022"><a xlink:href="InputControlled_8hpp.html" target="_top" xlink:title=" ">
<polygon fill="white" stroke="#666666" points="510,-156 406.25,-156 406.25,-112 510,-112 510,-156"/>
<text xml:space="preserve" text-anchor="start" x="414.25" y="-142.5" font-family="Helvetica,sans-Serif" font-size="10.00">../../../components</text>
<text xml:space="preserve" text-anchor="start" x="414.25" y="-130.5" font-family="Helvetica,sans-Serif" font-size="10.00">/inputControlled/src</text>
<text xml:space="preserve" text-anchor="middle" x="458.12" y="-118.5" font-family="Helvetica,sans-Serif" font-size="10.00">/InputControlled.hpp</text>
</a>
</g>
</g>
<!-- Node1&#45;&gt;Node22 -->
<g id="edge33_Node000001_Node000022" class="edge">
<title>Node1&#45;&gt;Node22</title>
<g id="a_edge33_Node000001_Node000022"><a xlink:title=" ">
<path fill="none" stroke="#63b8ff" d="M630.02,-315.52C615.42,-306.2 597.34,-293.55 583.12,-280 547.34,-245.9 547.78,-229.11 515.12,-192 506.93,-182.68 497.57,-172.98 488.84,-164.28"/>
<polygon fill="#63b8ff" stroke="#63b8ff" points="491.38,-161.87 481.8,-157.35 486.47,-166.86 491.38,-161.87"/>
</a>
</g>
</g>
<!-- Node4 -->
<g id="Node000004" class="node">
<title>Node4</title>
<g id="a_Node000004"><a xlink:href="Types_8hpp.html" target="_top" xlink:title="Core type definitions used throughout the ECS (Entity Component System).">
<polygon fill="white" stroke="#666666" points="730.62,-76 669.62,-76 669.62,-56 730.62,-56 730.62,-76"/>
<text xml:space="preserve" text-anchor="middle" x="700.12" y="-62.5" font-family="Helvetica,sans-Serif" font-size="10.00">Types.hpp</text>
</a>
</g>
</g>
<!-- Node3&#45;&gt;Node4 -->
<g id="edge3_Node000003_Node000004" class="edge">
<title>Node3&#45;&gt;Node4</title>
<g id="a_edge3_Node000003_Node000004"><a xlink:title=" ">
<path fill="none" stroke="#63b8ff" d="M464.77,-258.82C534.71,-252.69 646.08,-238.95 677.12,-212 712.64,-181.17 708.91,-119.46 704.05,-87.4"/>
<polygon fill="#63b8ff" stroke="#63b8ff" points="707.55,-87.09 702.41,-77.83 700.66,-88.28 707.55,-87.09"/>
</a>
</g>
</g>
<!-- Node6 -->
<g id="Node000006" class="node">
<title>Node6</title>
<g id="a_Node000006"><a xlink:href="ComponentRegistry_8hpp.html" target="_top" xlink:title=" ">
<polygon fill="white" stroke="#666666" points="648.62,-144 527.62,-144 527.62,-124 648.62,-124 648.62,-144"/>
<text xml:space="preserve" text-anchor="middle" x="588.12" y="-130.5" font-family="Helvetica,sans-Serif" font-size="10.00">ComponentRegistry.hpp</text>
</a>
</g>
</g>
<!-- Node3&#45;&gt;Node6 -->
<g id="edge6_Node000003_Node000006" class="edge">
<title>Node3&#45;&gt;Node6</title>
<g id="a_edge6_Node000003_Node000006"><a xlink:title=" ">
<path fill="none" stroke="#63b8ff" d="M433.18,-253.61C456.21,-244.88 489.54,-230.45 515.12,-212 538.48,-195.16 560.53,-170.17 574.16,-153.27"/>
<polygon fill="#63b8ff" stroke="#63b8ff" points="576.79,-155.59 580.23,-145.56 571.29,-151.26 576.79,-155.59"/>
</a>
</g>
</g>
<!-- Node7 -->
<g id="Node000007" class="node">
<title>Node7</title>
<g id="a_Node000007"><a xlink:title=" ">
<polygon fill="#e0e0e0" stroke="#999999" points="365.62,-76 322.62,-76 322.62,-56 365.62,-56 365.62,-76"/>
<text xml:space="preserve" text-anchor="middle" x="344.12" y="-62.5" font-family="Helvetica,sans-Serif" font-size="10.00">vector</text>
</a>
</g>
</g>
<!-- Node3&#45;&gt;Node7 -->
<g id="edge21_Node000003_Node000007" class="edge">
<title>Node3&#45;&gt;Node7</title>
<g id="a_edge21_Node000003_Node000007"><a xlink:title=" ">
<path fill="none" stroke="#63b8ff" d="M367.51,-253.56C342.64,-245.84 310.99,-232.74 289.12,-212 268.94,-192.85 267.52,-183.08 261.12,-156 256.63,-136.97 251.12,-128.8 261.12,-112 272.03,-93.69 293.26,-82.37 311.53,-75.66"/>
<polygon fill="#63b8ff" stroke="#63b8ff" points="312.56,-79.01 320.96,-72.54 310.36,-72.36 312.56,-79.01"/>
</a>
</g>
</g>
<!-- Node3&#45;&gt;Node10 -->
<g id="edge11_Node000003_Node000010" class="edge">
<title>Node3&#45;&gt;Node10</title>
<g id="a_edge11_Node000003_Node000010"><a xlink:title=" ">
<path fill="none" stroke="#63b8ff" d="M442,-253.56C481.6,-243.14 545.44,-226.34 588.55,-214.99"/>
<polygon fill="#63b8ff" stroke="#63b8ff" points="589.33,-218.41 598.11,-212.48 587.55,-211.64 589.33,-218.41"/>
</a>
</g>
</g>
<!-- Node11 -->
<g id="Node000011" class="node">
<title>Node11</title>
<g id="a_Node000011"><a xlink:href="EntityManager_8hpp.html" target="_top" xlink:title=" ">
<polygon fill="white" stroke="#666666" points="214,-144 116.25,-144 116.25,-124 214,-124 214,-144"/>
<text xml:space="preserve" text-anchor="middle" x="165.12" y="-130.5" font-family="Helvetica,sans-Serif" font-size="10.00">EntityManager.hpp</text>
</a>
</g>
</g>
<!-- Node3&#45;&gt;Node11 -->
<g id="edge16_Node000003_Node000011" class="edge">
<title>Node3&#45;&gt;Node11</title>
<g id="a_edge16_Node000003_Node000011"><a xlink:title=" ">
<path fill="none" stroke="#63b8ff" d="M347.48,-255.35C310.84,-248.45 263.97,-235.59 228.12,-212 205.54,-197.14 187.02,-171.67 176.04,-154.11"/>
<polygon fill="#63b8ff" stroke="#63b8ff" points="179.13,-152.45 170.99,-145.67 173.12,-156.05 179.13,-152.45"/>
</a>
</g>
</g>
<!-- Node12 -->
<g id="Node000012" class="node">
<title>Node12</title>
<g id="a_Node000012"><a xlink:href="SparseSet_8hpp.html" target="_top" xlink:title=" ">
<polygon fill="white" stroke="#666666" points="350.38,-144 269.88,-144 269.88,-124 350.38,-124 350.38,-144"/>
<text xml:space="preserve" text-anchor="middle" x="310.12" y="-130.5" font-family="Helvetica,sans-Serif" font-size="10.00">SparseSet.hpp</text>
</a>
</g>
</g>
<!-- Node3&#45;&gt;Node12 -->
<g id="edge19_Node000003_Node000012" class="edge">
<title>Node3&#45;&gt;Node12</title>
<g id="a_edge19_Node000003_Node000012"><a xlink:title=" ">
<path fill="none" stroke="#63b8ff" d="M360.98,-253.52C338.27,-246.22 312.74,-233.58 299.12,-212 288.23,-194.74 294.03,-171.03 300.62,-154.49"/>
<polygon fill="#63b8ff" stroke="#63b8ff" points="303.64,-156.3 304.49,-145.74 297.24,-153.47 303.64,-156.3"/>
</a>
</g>
</g>
<!-- Node13 -->
<g id="Node000013" class="node">
<title>Node13</title>
<g id="a_Node000013"><a xlink:title=" ">
<polygon fill="#e0e0e0" stroke="#999999" points="359.75,-212 308.5,-212 308.5,-192 359.75,-192 359.75,-212"/>
<text xml:space="preserve" text-anchor="middle" x="334.12" y="-198.5" font-family="Helvetica,sans-Serif" font-size="10.00">memory</text>
</a>
</g>
</g>
<!-- Node3&#45;&gt;Node13 -->
<g id="edge22_Node000003_Node000013" class="edge">
<title>Node3&#45;&gt;Node13</title>
<g id="a_edge22_Node000003_Node000013"><a xlink:title=" ">
<path fill="none" stroke="#63b8ff" d="M394.88,-253.62C383.93,-244.5 367.06,-230.45 353.87,-219.46"/>
<polygon fill="#63b8ff" stroke="#63b8ff" points="356.15,-216.79 346.22,-213.08 351.66,-222.17 356.15,-216.79"/>
</a>
</g>
</g>
<!-- Node14 -->
<g id="Node000014" class="node">
<title>Node14</title>
<g id="a_Node000014"><a xlink:title=" ">
<polygon fill="#e0e0e0" stroke="#999999" points="434,-212 378.25,-212 378.25,-192 434,-192 434,-212"/>
<text xml:space="preserve" text-anchor="middle" x="406.12" y="-198.5" font-family="Helvetica,sans-Serif" font-size="10.00">algorithm</text>
</a>
</g>
</g>
<!-- Node3&#45;&gt;Node14 -->
<g id="edge23_Node000003_Node000014" class="edge">
<title>Node3&#45;&gt;Node14</title>
<g id="a_edge23_Node000003_Node000014"><a xlink:title=" ">
<path fill="none" stroke="#63b8ff" d="M406.12,-253.62C406.12,-245.56 406.12,-233.65 406.12,-223.41"/>
<polygon fill="#63b8ff" stroke="#63b8ff" points="409.63,-223.63 406.13,-213.63 402.63,-223.63 409.63,-223.63"/>
</a>
</g>
</g>
<!-- Node15 -->
<g id="Node000015" class="node">
<title>Node15</title>
<g id="a_Node000015"><a xlink:title=" ">
<polygon fill="#e0e0e0" stroke="#999999" points="505.88,-212 452.38,-212 452.38,-192 505.88,-192 505.88,-212"/>
<text xml:space="preserve" text-anchor="middle" x="479.12" y="-198.5" font-family="Helvetica,sans-Serif" font-size="10.00">iostream</text>
</a>
</g>
</g>
<!-- Node3&#45;&gt;Node15 -->
<g id="edge24_Node000003_Node000015" class="edge">
<title>Node3&#45;&gt;Node15</title>
<g id="a_edge24_Node000003_Node000015"><a xlink:title=" ">
<path fill="none" stroke="#63b8ff" d="M417.53,-253.62C428.74,-244.41 446.07,-230.17 459.49,-219.14"/>
<polygon fill="#63b8ff" stroke="#63b8ff" points="461.37,-222.13 466.87,-213.07 456.92,-216.72 461.37,-222.13"/>
</a>
</g>
</g>
<!-- Node16 -->
<g id="Node000016" class="node">
<title>Node16</title>
<g id="a_Node000016"><a xlink:href="Clock_8hpp.html" target="_top" xlink:title=" ">
<polygon fill="white" stroke="#666666" points="60.25,-144 0,-144 0,-124 60.25,-124 60.25,-144"/>
<text xml:space="preserve" text-anchor="middle" x="30.12" y="-130.5" font-family="Helvetica,sans-Serif" font-size="10.00">Clock.hpp</text>
</a>
</g>
</g>
<!-- Node3&#45;&gt;Node16 -->
<g id="edge25_Node000003_Node000016" class="edge">
<title>Node3&#45;&gt;Node16</title>
<g id="a_edge25_Node000003_Node000016"><a xlink:title=" ">
<path fill="none" stroke="#63b8ff" d="M357.78,-253.53C315.78,-244.71 253.63,-230.19 201.12,-212 149.21,-194.02 91.44,-166.29 58.09,-149.47"/>
<polygon fill="#63b8ff" stroke="#63b8ff" points="60.01,-146.52 49.51,-145.11 56.84,-152.76 60.01,-146.52"/>
</a>
</g>
</g>
<!-- Node4&#45;&gt;Node2 -->
<g id="edge4_Node000004_Node000002" class="edge">
<title>Node4&#45;&gt;Node2</title>
<g id="a_edge4_Node000004_Node000002"><a xlink:title=" ">
<path fill="none" stroke="#63b8ff" d="M669.25,-60.69C657.34,-59.1 643.61,-57.36 631.12,-56 450.95,-36.37 234.5,-19.66 151.67,-13.52"/>
<polygon fill="#63b8ff" stroke="#63b8ff" points="151.95,-10.03 141.72,-12.78 151.44,-17.01 151.95,-10.03"/>
</a>
</g>
</g>
<!-- Node5 -->
<g id="Node000005" class="node">
<title>Node5</title>
<g id="a_Node000005"><a xlink:title=" ">
<polygon fill="#e0e0e0" stroke="#999999" points="720.12,-20 680.12,-20 680.12,0 720.12,0 720.12,-20"/>
<text xml:space="preserve" text-anchor="middle" x="700.12" y="-6.5" font-family="Helvetica,sans-Serif" font-size="10.00">bitset</text>
</a>
</g>
</g>
<!-- Node4&#45;&gt;Node5 -->
<g id="edge5_Node000004_Node000005" class="edge">
<title>Node4&#45;&gt;Node5</title>
<g id="a_edge5_Node000004_Node000005"><a xlink:title=" ">
<path fill="none" stroke="#63b8ff" d="M700.12,-55.59C700.12,-49.01 700.12,-39.96 700.12,-31.73"/>
<polygon fill="#63b8ff" stroke="#63b8ff" points="703.63,-31.81 700.13,-21.81 696.63,-31.81 703.63,-31.81"/>
</a>
</g>
</g>
<!-- Node6&#45;&gt;Node4 -->
<g id="edge7_Node000006_Node000004" class="edge">
<title>Node6&#45;&gt;Node4</title>
<g id="a_edge7_Node000006_Node000004"><a xlink:title=" ">
<path fill="none" stroke="#63b8ff" d="M604.17,-123.54C622.47,-112.76 652.64,-94.98 674.27,-82.24"/>
<polygon fill="#63b8ff" stroke="#63b8ff" points="675.97,-85.3 682.8,-77.21 672.41,-79.27 675.97,-85.3"/>
</a>
</g>
</g>
<!-- Node6&#45;&gt;Node7 -->
<g id="edge8_Node000006_Node000007" class="edge">
<title>Node6&#45;&gt;Node7</title>
<g id="a_edge8_Node000006_Node000007"><a xlink:title=" ">
<path fill="none" stroke="#63b8ff" d="M557.98,-123.51C545.93,-119.8 531.9,-115.59 519.12,-112 469.87,-98.18 412.36,-83.71 377.1,-75.02"/>
<polygon fill="#63b8ff" stroke="#63b8ff" points="378.05,-71.65 367.5,-72.67 376.38,-78.45 378.05,-71.65"/>
</a>
</g>
</g>
<!-- Node8 -->
<g id="Node000008" class="node">
<title>Node8</title>
<g id="a_Node000008"><a xlink:title=" ">
<polygon fill="#e0e0e0" stroke="#999999" points="564.12,-76 506.12,-76 506.12,-56 564.12,-56 564.12,-76"/>
<text xml:space="preserve" text-anchor="middle" x="535.12" y="-62.5" font-family="Helvetica,sans-Serif" font-size="10.00">typeindex</text>
</a>
</g>
</g>
<!-- Node6&#45;&gt;Node8 -->
<g id="edge9_Node000006_Node000008" class="edge">
<title>Node6&#45;&gt;Node8</title>
<g id="a_edge9_Node000006_Node000008"><a xlink:title=" ">
<path fill="none" stroke="#63b8ff" d="M580.53,-123.54C572.5,-113.55 559.64,-97.53 549.65,-85.09"/>
<polygon fill="#63b8ff" stroke="#63b8ff" points="552.64,-83.22 543.65,-77.62 547.18,-87.61 552.64,-83.22"/>
</a>
</g>
</g>
<!-- Node9 -->
<g id="Node000009" class="node">
<title>Node9</title>
<g id="a_Node000009"><a xlink:title=" ">
<polygon fill="#e0e0e0" stroke="#999999" points="622.12,-76 582.12,-76 582.12,-56 622.12,-56 622.12,-76"/>
<text xml:space="preserve" text-anchor="middle" x="602.12" y="-62.5" font-family="Helvetica,sans-Serif" font-size="10.00">string</text>
</a>
</g>
</g>
<!-- Node6&#45;&gt;Node9 -->
<g id="edge10_Node000006_Node000009" class="edge">
<title>Node6&#45;&gt;Node9</title>
<g id="a_edge10_Node000006_Node000009"><a xlink:title=" ">
<path fill="none" stroke="#63b8ff" d="M590.13,-123.54C592.13,-114.13 595.25,-99.39 597.81,-87.32"/>
<polygon fill="#63b8ff" stroke="#63b8ff" points="601.16,-88.43 599.81,-77.92 594.31,-86.98 601.16,-88.43"/>
</a>
</g>
</g>
<!-- Node10&#45;&gt;Node4 -->
<g id="edge12_Node000010_Node000004" class="edge">
<title>Node10&#45;&gt;Node4</title>
<g id="a_edge12_Node000010_Node000004"><a xlink:title=" ">
<path fill="none" stroke="#63b8ff" d="M644.76,-191.64C653.77,-183.16 666.43,-169.9 674.12,-156 686.16,-134.26 693.13,-106.37 696.77,-87.66"/>
<polygon fill="#63b8ff" stroke="#63b8ff" points="700.21,-88.31 698.52,-77.85 693.32,-87.08 700.21,-88.31"/>
</a>
</g>
</g>
<!-- Node10&#45;&gt;Node6 -->
<g id="edge13_Node000010_Node000006" class="edge">
<title>Node10&#45;&gt;Node6</title>
<g id="a_edge13_Node000010_Node000006"><a xlink:title=" ">
<path fill="none" stroke="#63b8ff" d="M627.53,-191.54C620.7,-181.74 609.84,-166.16 601.25,-153.83"/>
<polygon fill="#63b8ff" stroke="#63b8ff" points="604.16,-151.88 595.57,-145.68 598.42,-155.89 604.16,-151.88"/>
</a>
</g>
</g>
<!-- Node10&#45;&gt;Node7 -->
<g id="edge15_Node000010_Node000007" class="edge">
<title>Node10&#45;&gt;Node7</title>
<g id="a_edge15_Node000010_Node000007"><a xlink:title=" ">
<path fill="none" stroke="#63b8ff" d="M599.67,-197.94C542.08,-192.26 429.38,-178.57 397.12,-156 373.11,-139.19 358.19,-107.7 350.52,-87.05"/>
<polygon fill="#63b8ff" stroke="#63b8ff" points="353.88,-86.07 347.32,-77.76 347.27,-88.35 353.88,-86.07"/>
</a>
</g>
</g>
<!-- Node10&#45;&gt;Node9 -->
<g id="edge14_Node000010_Node000009" class="edge">
<title>Node10&#45;&gt;Node9</title>
<g id="a_edge14_Node000010_Node000009"><a xlink:title=" ">
<path fill="none" stroke="#63b8ff" d="M640.88,-191.51C651.89,-174.79 671.2,-139.28 658.12,-112 652.31,-99.86 641.44,-89.95 630.81,-82.56"/>
<polygon fill="#63b8ff" stroke="#63b8ff" points="632.86,-79.72 622.55,-77.3 629.1,-85.62 632.86,-79.72"/>
</a>
</g>
</g>
<!-- Node11&#45;&gt;Node2 -->
<g id="edge18_Node000011_Node000002" class="edge">
<title>Node11&#45;&gt;Node2</title>
<g id="a_edge18_Node000011_Node000002"><a xlink:title=" ">
<path fill="none" stroke="#63b8ff" d="M161.52,-123.83C153.77,-104.14 135.39,-57.42 124.87,-30.68"/>
<polygon fill="#63b8ff" stroke="#63b8ff" points="128.25,-29.71 121.33,-21.68 121.73,-32.27 128.25,-29.71"/>
</a>
</g>
</g>
<!-- Node11&#45;&gt;Node7 -->
<g id="edge17_Node000011_Node000007" class="edge">
<title>Node11&#45;&gt;Node7</title>
<g id="a_edge17_Node000011_Node000007"><a xlink:title=" ">
<path fill="none" stroke="#63b8ff" d="M190.77,-123.54C222.61,-111.8 276.94,-91.77 311.66,-78.97"/>
<polygon fill="#63b8ff" stroke="#63b8ff" points="312.59,-82.36 320.77,-75.61 310.17,-75.79 312.59,-82.36"/>
</a>
</g>
</g>
<!-- Node12&#45;&gt;Node7 -->
<g id="edge20_Node000012_Node000007" class="edge">
<title>Node12&#45;&gt;Node7</title>
<g id="a_edge20_Node000012_Node000007"><a xlink:title=" ">
<path fill="none" stroke="#63b8ff" d="M315,-123.54C319.94,-113.94 327.75,-98.78 334.04,-86.57"/>
<polygon fill="#63b8ff" stroke="#63b8ff" points="337.1,-88.28 338.57,-77.78 330.88,-85.07 337.1,-88.28"/>
</a>
</g>
</g>
<!-- Node16&#45;&gt;Node2 -->
<g id="edge26_Node000016_Node000002" class="edge">
<title>Node16&#45;&gt;Node2</title>
<g id="a_edge26_Node000016_Node000002"><a xlink:title=" ">
<path fill="none" stroke="#63b8ff" d="M34.59,-123.54C41.87,-108.55 57.19,-78.71 74.12,-56 81.43,-46.2 90.68,-36.28 98.72,-28.26"/>
<polygon fill="#63b8ff" stroke="#63b8ff" points="101,-30.92 105.74,-21.44 96.12,-25.89 101,-30.92"/>
</a>
</g>
</g>
<!-- Node22&#45;&gt;Node7 -->
<g id="edge35_Node000022_Node000007" class="edge">
<title>Node22&#45;&gt;Node7</title>
<g id="a_edge35_Node000022_Node000007"><a xlink:title=" ">
<path fill="none" stroke="#63b8ff" d="M421.11,-111.57C404.42,-101.91 385.11,-90.73 370,-81.98"/>
<polygon fill="#63b8ff" stroke="#63b8ff" points="372.02,-79.11 361.61,-77.12 368.51,-85.16 372.02,-79.11"/>
</a>
</g>
</g>
<!-- Node22&#45;&gt;Node9 -->
<g id="edge34_Node000022_Node000009" class="edge">
<title>Node22&#45;&gt;Node9</title>
<g id="a_edge34_Node000022_Node000009"><a xlink:title=" ">
<path fill="none" stroke="#63b8ff" d="M504.88,-111.57C526.67,-101.58 552,-89.97 571.34,-81.11"/>
<polygon fill="#63b8ff" stroke="#63b8ff" points="572.68,-84.34 580.32,-77 569.77,-77.98 572.68,-84.34"/>
</a>
</g>
</g>
</g>
</svg>
