<?xml version="1.0" encoding="UTF-8" standalone="no"?>
<!DOCTYPE svg PUBLIC "-//W3C//DTD SVG 1.1//EN"
 "http://www.w3.org/Graphics/SVG/1.1/DTD/svg11.dtd">
<!-- Generated by graphviz version 14.0.2 (0)
 -->
<!-- Title: ecs/System.hpp Pages: 1 -->
<svg width="1222pt" height="220pt"
 viewBox="0.00 0.00 1222.00 220.00" xmlns="http://www.w3.org/2000/svg" xmlns:xlink="http://www.w3.org/1999/xlink">
<g id="graph0" class="graph" transform="scale(1 1) rotate(0) translate(4 216)">
<title>ecs/System.hpp</title>
<!-- Node1 -->
<g id="Node000001" class="node">
<title>Node1</title>
<g id="a_Node000001"><a xlink:title=" ">
<polygon fill="#999999" stroke="#666666" points="671,-212 583.75,-212 583.75,-192 671,-192 671,-212"/>
<text xml:space="preserve" text-anchor="middle" x="627.38" y="-198.5" font-family="Helvetica,sans-Serif" font-size="10.00">ecs/System.hpp</text>
</a>
</g>
</g>
<!-- Node2 -->
<g id="Node000002" class="node">
<title>Node2</title>
<g id="a_Node000002"><a xlink:href="Registry_8hpp.html" target="_top" xlink:title=" ">
<polygon fill="white" stroke="#666666" points="636.12,-156 546.62,-156 546.62,-136 636.12,-136 636.12,-156"/>
<text xml:space="preserve" text-anchor="middle" x="591.38" y="-142.5" font-family="Helvetica,sans-Serif" font-size="10.00">ecs/Registry.hpp</text>
</a>
</g>
</g>
<!-- Node1&#45;&gt;Node2 -->
<g id="edge1_Node000001_Node000002" class="edge">
<title>Node1&#45;&gt;Node2</title>
<g id="a_edge1_Node000001_Node000002"><a xlink:title=" ">
<path fill="none" stroke="#63b8ff" d="M614.81,-182.15C608.98,-173.4 602.3,-163.39 597.57,-156.3"/>
<polygon fill="#63b8ff" stroke="#63b8ff" points="611.81,-183.96 620.26,-190.33 617.63,-180.07 611.81,-183.96"/>
</a>
</g>
</g>
<!-- Node3 -->
<g id="Node000003" class="node">
<title>Node3</title>
<g id="a_Node000003"><a xlink:href="FPApplyGravity_8hpp.html" target="_top" xlink:title=" ">
<polygon fill="white" stroke="#666666" points="124.75,-100 0,-100 0,-68 124.75,-68 124.75,-100"/>
<text xml:space="preserve" text-anchor="start" x="8" y="-86.5" font-family="Helvetica,sans-Serif" font-size="10.00">systems/FPApplyGravity</text>
<text xml:space="preserve" text-anchor="middle" x="62.38" y="-74.5" font-family="Helvetica,sans-Serif" font-size="10.00">/src/FPApplyGravity.hpp</text>
</a>
</g>
</g>
<!-- Node1&#45;&gt;Node3 -->
<g id="edge20_Node000001_Node000003" class="edge">
<title>Node1&#45;&gt;Node3</title>
<g id="a_edge20_Node000001_Node000003"><a xlink:title=" ">
<path fill="none" stroke="#63b8ff" d="M572.28,-191.15C523.57,-182.33 450.65,-168.84 387.38,-156 295.96,-137.45 190.54,-114.05 125.17,-99.3"/>
<polygon fill="#63b8ff" stroke="#63b8ff" points="571.55,-194.58 582.02,-192.91 572.8,-187.69 571.55,-194.58"/>
</a>
</g>
</g>
<!-- Node5 -->
<g id="Node000005" class="node">
<title>Node5</title>
<g id="a_Node000005"><a xlink:href="FPInputHandler_8hpp.html" target="_top" xlink:title=" ">
<polygon fill="white" stroke="#666666" points="267.75,-100 143,-100 143,-68 267.75,-68 267.75,-100"/>
<text xml:space="preserve" text-anchor="start" x="151" y="-86.5" font-family="Helvetica,sans-Serif" font-size="10.00">systems/FPInputHandler</text>
<text xml:space="preserve" text-anchor="middle" x="205.38" y="-74.5" font-family="Helvetica,sans-Serif" font-size="10.00">/src/FPInputHandler.hpp</text>
</a>
</g>
</g>
<!-- Node1&#45;&gt;Node5 -->
<g id="edge21_Node000001_Node000005" class="edge">
<title>Node1&#45;&gt;Node5</title>
<g id="a_edge21_Node000001_Node000005"><a xlink:title=" ">
<path fill="none" stroke="#63b8ff" d="M581.6,-188.67C548.25,-179.66 501.99,-167.14 461.38,-156 392.21,-137.03 312.61,-114.91 260.78,-100.47"/>
<polygon fill="#63b8ff" stroke="#63b8ff" points="580.36,-191.96 590.92,-191.18 582.18,-185.2 580.36,-191.96"/>
</a>
</g>
</g>
<!-- Node7 -->
<g id="Node000007" class="node">
<title>Node7</title>
<g id="a_Node000007"><a xlink:href="FPMotion_8hpp.html" target="_top" xlink:title=" ">
<polygon fill="white" stroke="#666666" points="400.88,-100 285.88,-100 285.88,-68 400.88,-68 400.88,-100"/>
<text xml:space="preserve" text-anchor="start" x="293.88" y="-86.5" font-family="Helvetica,sans-Serif" font-size="10.00">systems/FPMotion/src</text>
<text xml:space="preserve" text-anchor="middle" x="343.38" y="-74.5" font-family="Helvetica,sans-Serif" font-size="10.00">/FPMotion.hpp</text>
</a>
</g>
</g>
<!-- Node1&#45;&gt;Node7 -->
<g id="edge22_Node000001_Node000007" class="edge">
<title>Node1&#45;&gt;Node7</title>
<g id="a_edge22_Node000001_Node000007"><a xlink:title=" ">
<path fill="none" stroke="#63b8ff" d="M592.09,-187.45C569.29,-178.63 539.01,-166.8 512.38,-156 466.37,-137.34 413.68,-115.06 379.53,-100.49"/>
<polygon fill="#63b8ff" stroke="#63b8ff" points="590.63,-190.64 601.22,-190.98 593.15,-184.11 590.63,-190.64"/>
</a>
</g>
</g>
<!-- Node9 -->
<g id="Node000009" class="node">
<title>Node9</title>
<g id="a_Node000009"><a xlink:href="Animation_8hpp.html" target="_top" xlink:title=" ">
<polygon fill="white" stroke="#666666" points="533.88,-100 418.88,-100 418.88,-68 533.88,-68 533.88,-100"/>
<text xml:space="preserve" text-anchor="start" x="426.88" y="-86.5" font-family="Helvetica,sans-Serif" font-size="10.00">systems/animation/src</text>
<text xml:space="preserve" text-anchor="middle" x="476.38" y="-74.5" font-family="Helvetica,sans-Serif" font-size="10.00">/Animation.hpp</text>
</a>
</g>
</g>
<!-- Node1&#45;&gt;Node9 -->
<g id="edge23_Node000001_Node000009" class="edge">
<title>Node1&#45;&gt;Node9</title>
<g id="a_edge23_Node000001_Node000009"><a xlink:title=" ">
<path fill="none" stroke="#63b8ff" d="M591.83,-187.16C574.45,-179.45 553.8,-168.81 537.38,-156 516.74,-139.91 497.94,-115.98 486.82,-100.43"/>
<polygon fill="#63b8ff" stroke="#63b8ff" points="590.2,-190.27 600.77,-190.98 592.95,-183.83 590.2,-190.27"/>
</a>
</g>
</g>
<!-- Node11 -->
<g id="Node000011" class="node">
<title>Node11</title>
<g id="a_Node000011"><a xlink:href="Collision_8hpp.html" target="_top" xlink:title=" ">
<polygon fill="white" stroke="#666666" points="660.5,-100 552.25,-100 552.25,-68 660.5,-68 660.5,-100"/>
<text xml:space="preserve" text-anchor="start" x="560.25" y="-86.5" font-family="Helvetica,sans-Serif" font-size="10.00">systems/collision/src</text>
<text xml:space="preserve" text-anchor="middle" x="606.38" y="-74.5" font-family="Helvetica,sans-Serif" font-size="10.00">/Collision.hpp</text>
</a>
</g>
</g>
<!-- Node1&#45;&gt;Node11 -->
<g id="edge24_Node000001_Node000011" class="edge">
<title>Node1&#45;&gt;Node11</title>
<g id="a_edge24_Node000001_Node000011"><a xlink:title=" ">
<path fill="none" stroke="#63b8ff" d="M638.88,-181.52C645.07,-168.52 650.49,-151.1 645.38,-136 640.8,-122.49 631.05,-109.74 622.44,-100.36"/>
<polygon fill="#63b8ff" stroke="#63b8ff" points="635.81,-179.84 634.2,-190.31 641.99,-183.13 635.81,-179.84"/>
</a>
</g>
</g>
<!-- Node13 -->
<g id="Node000013" class="node">
<title>Node13</title>
<g id="a_Node000013"><a xlink:href="Death_8hpp.html" target="_top" xlink:title=" ">
<polygon fill="white" stroke="#666666" points="823.88,-94 678.88,-94 678.88,-74 823.88,-74 823.88,-94"/>
<text xml:space="preserve" text-anchor="middle" x="751.38" y="-80.5" font-family="Helvetica,sans-Serif" font-size="10.00">systems/death/src/Death.hpp</text>
</a>
</g>
</g>
<!-- Node1&#45;&gt;Node13 -->
<g id="edge25_Node000001_Node000013" class="edge">
<title>Node1&#45;&gt;Node13</title>
<g id="a_edge25_Node000001_Node000013"><a xlink:title=" ">
<path fill="none" stroke="#63b8ff" d="M645.62,-183.93C672.19,-159.07 720.62,-113.77 741.43,-94.3"/>
<polygon fill="#63b8ff" stroke="#63b8ff" points="643.54,-181.09 638.63,-190.47 648.32,-186.2 643.54,-181.09"/>
</a>
</g>
</g>
<!-- Node15 -->
<g id="Node000015" class="node">
<title>Node15</title>
<g id="a_Node000015"><a xlink:href="DomainHandler_8hpp.html" target="_top" xlink:title=" ">
<polygon fill="white" stroke="#666666" points="963.25,-100 841.5,-100 841.5,-68 963.25,-68 963.25,-100"/>
<text xml:space="preserve" text-anchor="start" x="849.5" y="-86.5" font-family="Helvetica,sans-Serif" font-size="10.00">systems/domainHandler</text>
<text xml:space="preserve" text-anchor="middle" x="902.38" y="-74.5" font-family="Helvetica,sans-Serif" font-size="10.00">/src/DomainHandler.hpp</text>
</a>
</g>
</g>
<!-- Node1&#45;&gt;Node15 -->
<g id="edge26_Node000001_Node000015" class="edge">
<title>Node1&#45;&gt;Node15</title>
<g id="a_edge26_Node000001_Node000015"><a xlink:title=" ">
<path fill="none" stroke="#63b8ff" d="M660.46,-187.04C712.23,-165.21 812.02,-123.11 865.83,-100.41"/>
<polygon fill="#63b8ff" stroke="#63b8ff" points="659.13,-183.81 651.27,-190.92 661.85,-190.26 659.13,-183.81"/>
</a>
</g>
</g>
<!-- Node17 -->
<g id="Node000017" class="node">
<title>Node17</title>
<g id="a_Node000017"><a xlink:href="InputHandler_8hpp.html" target="_top" xlink:title=" ">
<polygon fill="white" stroke="#666666" points="1093,-100 981.75,-100 981.75,-68 1093,-68 1093,-100"/>
<text xml:space="preserve" text-anchor="start" x="989.75" y="-86.5" font-family="Helvetica,sans-Serif" font-size="10.00">systems/inputHandler</text>
<text xml:space="preserve" text-anchor="middle" x="1037.38" y="-74.5" font-family="Helvetica,sans-Serif" font-size="10.00">/src/InputHandler.hpp</text>
</a>
</g>
</g>
<!-- Node1&#45;&gt;Node17 -->
<g id="edge27_Node000001_Node000017" class="edge">
<title>Node1&#45;&gt;Node17</title>
<g id="a_edge27_Node000001_Node000017"><a xlink:title=" ">
<path fill="none" stroke="#63b8ff" d="M671.95,-188.39C747.62,-166.98 900.98,-123.59 982.9,-100.41"/>
<polygon fill="#63b8ff" stroke="#63b8ff" points="671.05,-185 662.38,-191.1 672.96,-191.74 671.05,-185"/>
</a>
</g>
</g>
<!-- Node19 -->
<g id="Node000019" class="node">
<title>Node19</title>
<g id="a_Node000019"><a xlink:href="Motion_8hpp.html" target="_top" xlink:title=" ">
<polygon fill="white" stroke="#666666" points="1213.5,-100 1111.25,-100 1111.25,-68 1213.5,-68 1213.5,-100"/>
<text xml:space="preserve" text-anchor="start" x="1119.25" y="-86.5" font-family="Helvetica,sans-Serif" font-size="10.00">systems/motion/src</text>
<text xml:space="preserve" text-anchor="middle" x="1162.38" y="-74.5" font-family="Helvetica,sans-Serif" font-size="10.00">/Motion.hpp</text>
</a>
</g>
</g>
<!-- Node1&#45;&gt;Node19 -->
<g id="edge28_Node000001_Node000019" class="edge">
<title>Node1&#45;&gt;Node19</title>
<g id="a_edge28_Node000001_Node000019"><a xlink:title=" ">
<path fill="none" stroke="#63b8ff" d="M682.5,-189.96C771.17,-172.05 950.91,-135.11 1102.38,-100 1105.2,-99.35 1108.1,-98.66 1111.02,-97.96"/>
<polygon fill="#63b8ff" stroke="#63b8ff" points="681.96,-186.5 672.85,-191.91 683.35,-193.36 681.96,-186.5"/>
</a>
</g>
</g>
<!-- Node2&#45;&gt;Node3 -->
<g id="edge2_Node000002_Node000003" class="edge">
<title>Node2&#45;&gt;Node3</title>
<g id="a_edge2_Node000002_Node000003"><a xlink:title=" ">
<path fill="none" stroke="#63b8ff" d="M535.03,-141.41C448.52,-135.45 277.91,-121.95 134.38,-100 131.35,-99.54 128.25,-99.03 125.13,-98.49"/>
<polygon fill="#63b8ff" stroke="#63b8ff" points="534.69,-144.89 544.91,-142.08 535.17,-137.91 534.69,-144.89"/>
</a>
</g>
</g>
<!-- Node2&#45;&gt;Node5 -->
<g id="edge4_Node000002_Node000005" class="edge">
<title>Node2&#45;&gt;Node5</title>
<g id="a_edge4_Node000002_Node000005"><a xlink:title=" ">
<path fill="none" stroke="#63b8ff" d="M535.08,-138.1C471.92,-130.1 366.51,-115.94 276.38,-100 273.65,-99.52 270.86,-99.01 268.05,-98.48"/>
<polygon fill="#63b8ff" stroke="#63b8ff" points="534.5,-141.56 544.86,-139.33 535.38,-134.61 534.5,-141.56"/>
</a>
</g>
</g>
<!-- Node2&#45;&gt;Node7 -->
<g id="edge6_Node000002_Node000007" class="edge">
<title>Node2&#45;&gt;Node7</title>
<g id="a_edge6_Node000002_Node000007"><a xlink:title=" ">
<path fill="none" stroke="#63b8ff" d="M541.38,-132.9C500.81,-123.09 443.58,-109.24 401.08,-98.96"/>
<polygon fill="#63b8ff" stroke="#63b8ff" points="540.34,-136.25 550.88,-135.2 541.98,-129.45 540.34,-136.25"/>
</a>
</g>
</g>
<!-- Node2&#45;&gt;Node9 -->
<g id="edge8_Node000002_Node000009" class="edge">
<title>Node2&#45;&gt;Node9</title>
<g id="a_edge8_Node000002_Node000009"><a xlink:title=" ">
<path fill="none" stroke="#63b8ff" d="M563.28,-130.34C545.86,-121.25 523.51,-109.59 505.84,-100.37"/>
<polygon fill="#63b8ff" stroke="#63b8ff" points="561.58,-133.4 572.06,-134.92 564.82,-127.2 561.58,-133.4"/>
</a>
</g>
</g>
<!-- Node2&#45;&gt;Node11 -->
<g id="edge10_Node000002_Node000011" class="edge">
<title>Node2&#45;&gt;Node11</title>
<g id="a_edge10_Node000002_Node000011"><a xlink:title=" ">
<path fill="none" stroke="#63b8ff" d="M596.48,-124.59C598.48,-116.58 600.74,-107.55 602.59,-100.14"/>
<polygon fill="#63b8ff" stroke="#63b8ff" points="593.12,-123.61 594.09,-134.16 599.91,-125.3 593.12,-123.61"/>
</a>
</g>
</g>
<!-- Node2&#45;&gt;Node13 -->
<g id="edge12_Node000002_Node000013" class="edge">
<title>Node2&#45;&gt;Node13</title>
<g id="a_edge12_Node000002_Node000013"><a xlink:title=" ">
<path fill="none" stroke="#63b8ff" d="M626.87,-131.69C657.03,-120.38 699.56,-104.43 726.29,-94.41"/>
<polygon fill="#63b8ff" stroke="#63b8ff" points="625.93,-128.31 617.79,-135.09 628.38,-134.86 625.93,-128.31"/>
</a>
</g>
</g>
<!-- Node2&#45;&gt;Node15 -->
<g id="edge14_Node000002_Node000015" class="edge">
<title>Node2&#45;&gt;Node15</title>
<g id="a_edge14_Node000002_Node000015"><a xlink:title=" ">
<path fill="none" stroke="#63b8ff" d="M647.83,-135C696.94,-126.18 769.97,-112.78 833.38,-100 835.9,-99.49 838.47,-98.96 841.07,-98.43"/>
<polygon fill="#63b8ff" stroke="#63b8ff" points="647.22,-131.55 637.99,-136.76 648.45,-138.44 647.22,-131.55"/>
</a>
</g>
</g>
<!-- Node2&#45;&gt;Node17 -->
<g id="edge16_Node000002_Node000017" class="edge">
<title>Node2&#45;&gt;Node17</title>
<g id="a_edge16_Node000002_Node000017"><a xlink:title=" ">
<path fill="none" stroke="#63b8ff" d="M647.92,-140.27C722.57,-133.58 857.92,-119.9 972.38,-100 975.34,-99.48 978.38,-98.92 981.43,-98.32"/>
<polygon fill="#63b8ff" stroke="#63b8ff" points="647.63,-136.78 637.98,-141.15 648.25,-143.75 647.63,-136.78"/>
</a>
</g>
</g>
<!-- Node2&#45;&gt;Node19 -->
<g id="edge18_Node000002_Node000019" class="edge">
<title>Node2&#45;&gt;Node19</title>
<g id="a_edge18_Node000002_Node000019"><a xlink:title=" ">
<path fill="none" stroke="#63b8ff" d="M647.74,-142.93C742.29,-138.82 938.6,-127.51 1102.38,-100 1105.13,-99.54 1107.94,-99.01 1110.77,-98.45"/>
<polygon fill="#63b8ff" stroke="#63b8ff" points="647.8,-139.43 637.96,-143.35 648.1,-146.42 647.8,-139.43"/>
</a>
</g>
</g>
<!-- Node4 -->
<g id="Node000004" class="node">
<title>Node4</title>
<g id="a_Node000004"><a xlink:href="FPApplyGravity_8cpp.html" target="_top" xlink:title=" ">
<polygon fill="white" stroke="#666666" points="124.75,-32 0,-32 0,0 124.75,0 124.75,-32"/>
<text xml:space="preserve" text-anchor="start" x="8" y="-18.5" font-family="Helvetica,sans-Serif" font-size="10.00">systems/FPApplyGravity</text>
<text xml:space="preserve" text-anchor="middle" x="62.38" y="-6.5" font-family="Helvetica,sans-Serif" font-size="10.00">/src/FPApplyGravity.cpp</text>
</a>
</g>
</g>
<!-- Node3&#45;&gt;Node4 -->
<g id="edge3_Node000003_Node000004" class="edge">
<title>Node3&#45;&gt;Node4</title>
<g id="a_edge3_Node000003_Node000004"><a xlink:title=" ">
<path fill="none" stroke="#63b8ff" d="M62.38,-56.31C62.38,-48.12 62.38,-39.38 62.38,-32.22"/>
<polygon fill="#63b8ff" stroke="#63b8ff" points="58.88,-56.18 62.38,-66.18 65.88,-56.18 58.88,-56.18"/>
</a>
</g>
</g>
<!-- Node6 -->
<g id="Node000006" class="node">
<title>Node6</title>
<g id="a_Node000006"><a xlink:href="FPInputHandler_8cpp.html" target="_top" xlink:title=" ">
<polygon fill="white" stroke="#666666" points="267.75,-32 143,-32 143,0 267.75,0 267.75,-32"/>
<text xml:space="preserve" text-anchor="start" x="151" y="-18.5" font-family="Helvetica,sans-Serif" font-size="10.00">systems/FPInputHandler</text>
<text xml:space="preserve" text-anchor="middle" x="205.38" y="-6.5" font-family="Helvetica,sans-Serif" font-size="10.00">/src/FPInputHandler.cpp</text>
</a>
</g>
</g>
<!-- Node5&#45;&gt;Node6 -->
<g id="edge5_Node000005_Node000006" class="edge">
<title>Node5&#45;&gt;Node6</title>
<g id="a_edge5_Node000005_Node000006"><a xlink:title=" ">
<path fill="none" stroke="#63b8ff" d="M205.38,-56.31C205.38,-48.12 205.38,-39.38 205.38,-32.22"/>
<polygon fill="#63b8ff" stroke="#63b8ff" points="201.88,-56.18 205.38,-66.18 208.88,-56.18 201.88,-56.18"/>
</a>
</g>
</g>
<!-- Node8 -->
<g id="Node000008" class="node">
<title>Node8</title>
<g id="a_Node000008"><a xlink:href="FPMotion_8cpp.html" target="_top" xlink:title=" ">
<polygon fill="white" stroke="#666666" points="400.88,-32 285.88,-32 285.88,0 400.88,0 400.88,-32"/>
<text xml:space="preserve" text-anchor="start" x="293.88" y="-18.5" font-family="Helvetica,sans-Serif" font-size="10.00">systems/FPMotion/src</text>
<text xml:space="preserve" text-anchor="middle" x="343.38" y="-6.5" font-family="Helvetica,sans-Serif" font-size="10.00">/FPMotion.cpp</text>
</a>
</g>
</g>
<!-- Node7&#45;&gt;Node8 -->
<g id="edge7_Node000007_Node000008" class="edge">
<title>Node7&#45;&gt;Node8</title>
<g id="a_edge7_Node000007_Node000008"><a xlink:title=" ">
<path fill="none" stroke="#63b8ff" d="M343.38,-56.31C343.38,-48.12 343.38,-39.38 343.38,-32.22"/>
<polygon fill="#63b8ff" stroke="#63b8ff" points="339.88,-56.18 343.38,-66.18 346.88,-56.18 339.88,-56.18"/>
</a>
</g>
</g>
<!-- Node10 -->
<g id="Node000010" class="node">
<title>Node10</title>
<g id="a_Node000010"><a xlink:href="Animation_8cpp.html" target="_top" xlink:title=" ">
<polygon fill="white" stroke="#666666" points="533.88,-32 418.88,-32 418.88,0 533.88,0 533.88,-32"/>
<text xml:space="preserve" text-anchor="start" x="426.88" y="-18.5" font-family="Helvetica,sans-Serif" font-size="10.00">systems/animation/src</text>
<text xml:space="preserve" text-anchor="middle" x="476.38" y="-6.5" font-family="Helvetica,sans-Serif" font-size="10.00">/Animation.cpp</text>
</a>
</g>
</g>
<!-- Node9&#45;&gt;Node10 -->
<g id="edge9_Node000009_Node000010" class="edge">
<title>Node9&#45;&gt;Node10</title>
<g id="a_edge9_Node000009_Node000010"><a xlink:title=" ">
<path fill="none" stroke="#63b8ff" d="M476.38,-56.31C476.38,-48.12 476.38,-39.38 476.38,-32.22"/>
<polygon fill="#63b8ff" stroke="#63b8ff" points="472.88,-56.18 476.38,-66.18 479.88,-56.18 472.88,-56.18"/>
</a>
</g>
</g>
<!-- Node12 -->
<g id="Node000012" class="node">
<title>Node12</title>
<g id="a_Node000012"><a xlink:href="Collision_8cpp.html" target="_top" xlink:title=" ">
<polygon fill="white" stroke="#666666" points="660.5,-32 552.25,-32 552.25,0 660.5,0 660.5,-32"/>
<text xml:space="preserve" text-anchor="start" x="560.25" y="-18.5" font-family="Helvetica,sans-Serif" font-size="10.00">systems/collision/src</text>
<text xml:space="preserve" text-anchor="middle" x="606.38" y="-6.5" font-family="Helvetica,sans-Serif" font-size="10.00">/Collision.cpp</text>
</a>
</g>
</g>
<!-- Node11&#45;&gt;Node12 -->
<g id="edge11_Node000011_Node000012" class="edge">
<title>Node11&#45;&gt;Node12</title>
<g id="a_edge11_Node000011_Node000012"><a xlink:title=" ">
<path fill="none" stroke="#63b8ff" d="M606.38,-56.31C606.38,-48.12 606.38,-39.38 606.38,-32.22"/>
<polygon fill="#63b8ff" stroke="#63b8ff" points="602.88,-56.18 606.38,-66.18 609.88,-56.18 602.88,-56.18"/>
</a>
</g>
</g>
<!-- Node14 -->
<g id="Node000014" class="node">
<title>Node14</title>
<g id="a_Node000014"><a xlink:href="Death_8cpp.html" target="_top" xlink:title=" ">
<polygon fill="white" stroke="#666666" points="823.88,-26 678.88,-26 678.88,-6 823.88,-6 823.88,-26"/>
<text xml:space="preserve" text-anchor="middle" x="751.38" y="-12.5" font-family="Helvetica,sans-Serif" font-size="10.00">systems/death/src/Death.cpp</text>
</a>
</g>
</g>
<!-- Node13&#45;&gt;Node14 -->
<g id="edge13_Node000013_Node000014" class="edge">
<title>Node13&#45;&gt;Node14</title>
<g id="a_edge13_Node000013_Node000014"><a xlink:title=" ">
<path fill="none" stroke="#63b8ff" d="M751.38,-62.28C751.38,-50.27 751.38,-35.74 751.38,-26.44"/>
<polygon fill="#63b8ff" stroke="#63b8ff" points="747.88,-62.03 751.38,-72.03 754.88,-62.03 747.88,-62.03"/>
</a>
</g>
</g>
<!-- Node16 -->
<g id="Node000016" class="node">
<title>Node16</title>
<g id="a_Node000016"><a xlink:href="DomainHandler_8cpp.html" target="_top" xlink:title=" ">
<polygon fill="white" stroke="#666666" points="963.25,-32 841.5,-32 841.5,0 963.25,0 963.25,-32"/>
<text xml:space="preserve" text-anchor="start" x="849.5" y="-18.5" font-family="Helvetica,sans-Serif" font-size="10.00">systems/domainHandler</text>
<text xml:space="preserve" text-anchor="middle" x="902.38" y="-6.5" font-family="Helvetica,sans-Serif" font-size="10.00">/src/DomainHandler.cpp</text>
</a>
</g>
</g>
<!-- Node15&#45;&gt;Node16 -->
<g id="edge15_Node000015_Node000016" class="edge">
<title>Node15&#45;&gt;Node16</title>
<g id="a_edge15_Node000015_Node000016"><a xlink:title=" ">
<path fill="none" stroke="#63b8ff" d="M902.38,-56.31C902.38,-48.12 902.38,-39.38 902.38,-32.22"/>
<polygon fill="#63b8ff" stroke="#63b8ff" points="898.88,-56.18 902.38,-66.18 905.88,-56.18 898.88,-56.18"/>
</a>
</g>
</g>
<!-- Node18 -->
<g id="Node000018" class="node">
<title>Node18</title>
<g id="a_Node000018"><a xlink:href="InputHandler_8cpp.html" target="_top" xlink:title=" ">
<polygon fill="white" stroke="#666666" points="1093,-32 981.75,-32 981.75,0 1093,0 1093,-32"/>
<text xml:space="preserve" text-anchor="start" x="989.75" y="-18.5" font-family="Helvetica,sans-Serif" font-size="10.00">systems/inputHandler</text>
<text xml:space="preserve" text-anchor="middle" x="1037.38" y="-6.5" font-family="Helvetica,sans-Serif" font-size="10.00">/src/InputHandler.cpp</text>
</a>
</g>
</g>
<!-- Node17&#45;&gt;Node18 -->
<g id="edge17_Node000017_Node000018" class="edge">
<title>Node17&#45;&gt;Node18</title>
<g id="a_edge17_Node000017_Node000018"><a xlink:title=" ">
<path fill="none" stroke="#63b8ff" d="M1037.38,-56.31C1037.38,-48.12 1037.38,-39.38 1037.38,-32.22"/>
<polygon fill="#63b8ff" stroke="#63b8ff" points="1033.88,-56.18 1037.38,-66.18 1040.88,-56.18 1033.88,-56.18"/>
</a>
</g>
</g>
<!-- Node20 -->
<g id="Node000020" class="node">
<title>Node20</title>
<g id="a_Node000020"><a xlink:href="Motion_8cpp.html" target="_top" xlink:title=" ">
<polygon fill="white" stroke="#666666" points="1213.5,-32 1111.25,-32 1111.25,0 1213.5,0 1213.5,-32"/>
<text xml:space="preserve" text-anchor="start" x="1119.25" y="-18.5" font-family="Helvetica,sans-Serif" font-size="10.00">systems/motion/src</text>
<text xml:space="preserve" text-anchor="middle" x="1162.38" y="-6.5" font-family="Helvetica,sans-Serif" font-size="10.00">/Motion.cpp</text>
</a>
</g>
</g>
<!-- Node19&#45;&gt;Node20 -->
<g id="edge19_Node000019_Node000020" class="edge">
<title>Node19&#45;&gt;Node20</title>
<g id="a_edge19_Node000019_Node000020"><a xlink:title=" ">
<path fill="none" stroke="#63b8ff" d="M1162.38,-56.31C1162.38,-48.12 1162.38,-39.38 1162.38,-32.22"/>
<polygon fill="#63b8ff" stroke="#63b8ff" points="1158.88,-56.18 1162.38,-66.18 1165.88,-56.18 1158.88,-56.18"/>
</a>
</g>
</g>
</g>
</svg>
