<?xml version="1.0" encoding="UTF-8" standalone="no"?>
<!DOCTYPE svg PUBLIC "-//W3C//DTD SVG 1.1//EN"
 "http://www.w3.org/Graphics/SVG/1.1/DTD/svg11.dtd">
<!-- Generated by graphviz version 14.0.1 (0)
 -->
<!-- Title: ecs/System.hpp Pages: 1 -->
<svg width="292pt" height="196pt"
 viewBox="0.00 0.00 292.00 196.00" xmlns="http://www.w3.org/2000/svg" xmlns:xlink="http://www.w3.org/1999/xlink">
<g id="graph0" class="graph" transform="scale(1 1) rotate(0) translate(4 192)">
<title>ecs/System.hpp</title>
<!-- Node1 -->
<g id="Node000001" class="node">
<title>Node1</title>
<g id="a_Node000001"><a xlink:title=" ">
<polygon fill="#999999" stroke="#666666" points="178.25,-188 91,-188 91,-168 178.25,-168 178.25,-188"/>
<text xml:space="preserve" text-anchor="middle" x="134.62" y="-174.5" font-family="Helvetica,sans-Serif" font-size="10.00">ecs/System.hpp</text>
</a>
</g>
</g>
<!-- Node2 -->
<g id="Node000002" class="node">
<title>Node2</title>
<g id="a_Node000002"><a xlink:href="Types_8hpp.html" target="_top" xlink:title="Core type definitions used throughout the ECS (Entity Component System).">
<polygon fill="white" stroke="#666666" points="83.12,-76 22.12,-76 22.12,-56 83.12,-56 83.12,-76"/>
<text xml:space="preserve" text-anchor="middle" x="52.62" y="-62.5" font-family="Helvetica,sans-Serif" font-size="10.00">Types.hpp</text>
</a>
</g>
</g>
<!-- Node1&#45;&gt;Node2 -->
<g id="edge1_Node000001_Node000002" class="edge">
<title>Node1&#45;&gt;Node2</title>
<g id="a_edge1_Node000001_Node000002"><a xlink:title=" ">
<path fill="none" stroke="#63b8ff" d="M127.63,-167.62C114.08,-149.44 84,-109.09 66.33,-85.38"/>
<polygon fill="#63b8ff" stroke="#63b8ff" points="69.29,-83.49 60.5,-77.57 63.67,-87.68 69.29,-83.49"/>
</a>
</g>
</g>
<!-- Node5 -->
<g id="Node000005" class="node">
<title>Node5</title>
<g id="a_Node000005"><a xlink:href="ComponentRegistry_8hpp.html" target="_top" xlink:title=" ">
<polygon fill="white" stroke="#666666" points="240.12,-132 119.12,-132 119.12,-112 240.12,-112 240.12,-132"/>
<text xml:space="preserve" text-anchor="middle" x="179.62" y="-118.5" font-family="Helvetica,sans-Serif" font-size="10.00">ComponentRegistry.hpp</text>
</a>
</g>
</g>
<!-- Node1&#45;&gt;Node5 -->
<g id="edge4_Node000001_Node000005" class="edge">
<title>Node1&#45;&gt;Node5</title>
<g id="a_edge4_Node000001_Node000005"><a xlink:title=" ">
<path fill="none" stroke="#63b8ff" d="M142.46,-167.59C148.59,-160.24 157.3,-149.8 164.74,-140.87"/>
<polygon fill="#63b8ff" stroke="#63b8ff" points="167.19,-143.38 170.91,-133.46 161.82,-138.9 167.19,-143.38"/>
</a>
</g>
</g>
<!-- Node6 -->
<g id="Node000006" class="node">
<title>Node6</title>
<g id="a_Node000006"><a xlink:title=" ">
<polygon fill="#e0e0e0" stroke="#999999" points="144.12,-76 101.12,-76 101.12,-56 144.12,-56 144.12,-76"/>
<text xml:space="preserve" text-anchor="middle" x="122.62" y="-62.5" font-family="Helvetica,sans-Serif" font-size="10.00">vector</text>
</a>
</g>
</g>
<!-- Node1&#45;&gt;Node6 -->
<g id="edge10_Node000001_Node000006" class="edge">
<title>Node1&#45;&gt;Node6</title>
<g id="a_edge10_Node000001_Node000006"><a xlink:title=" ">
<path fill="none" stroke="#63b8ff" d="M127.81,-167.56C121.95,-158.83 113.93,-145.23 110.62,-132 106.87,-117 110.4,-99.78 114.58,-86.84"/>
<polygon fill="#63b8ff" stroke="#63b8ff" points="117.75,-88.35 117.89,-77.76 111.17,-85.95 117.75,-88.35"/>
</a>
</g>
</g>
<!-- Node8 -->
<g id="Node000008" class="node">
<title>Node8</title>
<g id="a_Node000008"><a xlink:title=" ">
<polygon fill="#e0e0e0" stroke="#999999" points="283.62,-76 243.62,-76 243.62,-56 283.62,-56 283.62,-76"/>
<text xml:space="preserve" text-anchor="middle" x="263.62" y="-62.5" font-family="Helvetica,sans-Serif" font-size="10.00">string</text>
</a>
</g>
</g>
<!-- Node1&#45;&gt;Node8 -->
<g id="edge9_Node000001_Node000008" class="edge">
<title>Node1&#45;&gt;Node8</title>
<g id="a_edge9_Node000001_Node000008"><a xlink:title=" ">
<path fill="none" stroke="#63b8ff" d="M178.5,-170.25C202.87,-164.24 231.77,-152.98 249.62,-132 260.05,-119.75 263.27,-101.58 264.05,-87.56"/>
<polygon fill="#63b8ff" stroke="#63b8ff" points="267.54,-87.7 264.18,-77.66 260.55,-87.61 267.54,-87.7"/>
</a>
</g>
</g>
<!-- Node3 -->
<g id="Node000003" class="node">
<title>Node3</title>
<g id="a_Node000003"><a xlink:title=" ">
<polygon fill="#e0e0e0" stroke="#999999" points="45.25,-20 0,-20 0,0 45.25,0 45.25,-20"/>
<text xml:space="preserve" text-anchor="middle" x="22.62" y="-6.5" font-family="Helvetica,sans-Serif" font-size="10.00">cstdint</text>
</a>
</g>
</g>
<!-- Node2&#45;&gt;Node3 -->
<g id="edge2_Node000002_Node000003" class="edge">
<title>Node2&#45;&gt;Node3</title>
<g id="a_edge2_Node000002_Node000003"><a xlink:title=" ">
<path fill="none" stroke="#63b8ff" d="M47.4,-55.59C43.53,-48.63 38.12,-38.89 33.34,-30.29"/>
<polygon fill="#63b8ff" stroke="#63b8ff" points="36.44,-28.66 28.53,-21.62 30.32,-32.06 36.44,-28.66"/>
</a>
</g>
</g>
<!-- Node4 -->
<g id="Node000004" class="node">
<title>Node4</title>
<g id="a_Node000004"><a xlink:title=" ">
<polygon fill="#e0e0e0" stroke="#999999" points="103.62,-20 63.62,-20 63.62,0 103.62,0 103.62,-20"/>
<text xml:space="preserve" text-anchor="middle" x="83.62" y="-6.5" font-family="Helvetica,sans-Serif" font-size="10.00">bitset</text>
</a>
</g>
</g>
<!-- Node2&#45;&gt;Node4 -->
<g id="edge3_Node000002_Node000004" class="edge">
<title>Node2&#45;&gt;Node4</title>
<g id="a_edge3_Node000002_Node000004"><a xlink:title=" ">
<path fill="none" stroke="#63b8ff" d="M58.02,-55.59C62.07,-48.55 67.74,-38.67 72.72,-30"/>
<polygon fill="#63b8ff" stroke="#63b8ff" points="75.59,-32.03 77.53,-21.61 69.52,-28.54 75.59,-32.03"/>
</a>
</g>
</g>
<!-- Node5&#45;&gt;Node2 -->
<g id="edge5_Node000005_Node000002" class="edge">
<title>Node5&#45;&gt;Node2</title>
<g id="a_edge5_Node000005_Node000002"><a xlink:title=" ">
<path fill="none" stroke="#63b8ff" d="M157.5,-111.59C137.59,-103.13 108.07,-90.58 85.42,-80.94"/>
<polygon fill="#63b8ff" stroke="#63b8ff" points="86.88,-77.76 76.31,-77.07 84.15,-84.21 86.88,-77.76"/>
</a>
</g>
</g>
<!-- Node5&#45;&gt;Node6 -->
<g id="edge6_Node000005_Node000006" class="edge">
<title>Node5&#45;&gt;Node6</title>
<g id="a_edge6_Node000005_Node000006"><a xlink:title=" ">
<path fill="none" stroke="#63b8ff" d="M169.7,-111.59C161.69,-104.01 150.21,-93.13 140.59,-84.02"/>
<polygon fill="#63b8ff" stroke="#63b8ff" points="143.21,-81.68 133.54,-77.34 138.39,-86.76 143.21,-81.68"/>
</a>
</g>
</g>
<!-- Node7 -->
<g id="Node000007" class="node">
<title>Node7</title>
<g id="a_Node000007"><a xlink:title=" ">
<polygon fill="#e0e0e0" stroke="#999999" points="220.62,-76 162.62,-76 162.62,-56 220.62,-56 220.62,-76"/>
<text xml:space="preserve" text-anchor="middle" x="191.62" y="-62.5" font-family="Helvetica,sans-Serif" font-size="10.00">typeindex</text>
</a>
</g>
</g>
<!-- Node5&#45;&gt;Node7 -->
<g id="edge7_Node000005_Node000007" class="edge">
<title>Node5&#45;&gt;Node7</title>
<g id="a_edge7_Node000005_Node000007"><a xlink:title=" ">
<path fill="none" stroke="#63b8ff" d="M181.72,-111.59C183.2,-104.93 185.24,-95.75 187.08,-87.44"/>
<polygon fill="#63b8ff" stroke="#63b8ff" points="190.48,-88.3 189.23,-77.78 183.64,-86.78 190.48,-88.3"/>
</a>
</g>
</g>
<!-- Node5&#45;&gt;Node8 -->
<g id="edge8_Node000005_Node000008" class="edge">
<title>Node5&#45;&gt;Node8</title>
<g id="a_edge8_Node000005_Node000008"><a xlink:title=" ">
<path fill="none" stroke="#63b8ff" d="M194.26,-111.59C206.71,-103.59 224.84,-91.93 239.45,-82.54"/>
<polygon fill="#63b8ff" stroke="#63b8ff" points="241.09,-85.65 247.61,-77.3 237.3,-79.76 241.09,-85.65"/>
</a>
</g>
</g>
</g>
</svg>
