<?xml version="1.0" encoding="UTF-8" standalone="no"?>
<!DOCTYPE svg PUBLIC "-//W3C//DTD SVG 1.1//EN"
 "http://www.w3.org/Graphics/SVG/1.1/DTD/svg11.dtd">
<!-- Generated by graphviz version 14.0.1 (0)
 -->
<!-- Title: components/text/src/Text.hpp Pages: 1 -->
<svg width="146pt" height="96pt"
 viewBox="0.00 0.00 146.00 96.00" xmlns="http://www.w3.org/2000/svg" xmlns:xlink="http://www.w3.org/1999/xlink">
<g id="graph0" class="graph" transform="scale(1 1) rotate(0) translate(4 92)">
<title>components/text/src/Text.hpp</title>
<!-- Node1 -->
<g id="Node000001" class="node">
<title>Node1</title>
<g id="a_Node000001"><a xlink:title=" ">
<polygon fill="#999999" stroke="#666666" points="111.62,-88 6.38,-88 6.38,-56 111.62,-56 111.62,-88"/>
<text xml:space="preserve" text-anchor="start" x="14.38" y="-74.5" font-family="Helvetica,sans-Serif" font-size="10.00">components/text/src</text>
<text xml:space="preserve" text-anchor="middle" x="59" y="-62.5" font-family="Helvetica,sans-Serif" font-size="10.00">/Text.hpp</text>
</a>
</g>
</g>
<!-- Node2 -->
<g id="Node000002" class="node">
<title>Node2</title>
<g id="a_Node000002"><a xlink:title=" ">
<polygon fill="#e0e0e0" stroke="#999999" points="40,-20 0,-20 0,0 40,0 40,-20"/>
<text xml:space="preserve" text-anchor="middle" x="20" y="-6.5" font-family="Helvetica,sans-Serif" font-size="10.00">string</text>
</a>
</g>
</g>
<!-- Node1&#45;&gt;Node2 -->
<g id="edge1_Node000001_Node000002" class="edge">
<title>Node1&#45;&gt;Node2</title>
<g id="a_edge1_Node000001_Node000002"><a xlink:title=" ">
<path fill="none" stroke="#63b8ff" d="M48.96,-55.55C43.88,-47.74 37.67,-38.19 32.31,-29.94"/>
<polygon fill="#63b8ff" stroke="#63b8ff" points="35.32,-28.15 26.94,-21.68 29.46,-31.97 35.32,-28.15"/>
</a>
</g>
</g>
<!-- Node3 -->
<g id="Node000003" class="node">
<title>Node3</title>
<g id="a_Node000003"><a xlink:title=" ">
<polygon fill="#e0e0e0" stroke="#999999" points="137.88,-20 58.12,-20 58.12,0 137.88,0 137.88,-20"/>
<text xml:space="preserve" text-anchor="middle" x="98" y="-6.5" font-family="Helvetica,sans-Serif" font-size="10.00">../../../utils.hpp</text>
</a>
</g>
</g>
<!-- Node1&#45;&gt;Node3 -->
<g id="edge2_Node000001_Node000003" class="edge">
<title>Node1&#45;&gt;Node3</title>
<g id="a_edge2_Node000001_Node000003"><a xlink:title=" ">
<path fill="none" stroke="#63b8ff" d="M69.04,-55.55C74.12,-47.74 80.33,-38.19 85.69,-29.94"/>
<polygon fill="#63b8ff" stroke="#63b8ff" points="88.54,-31.97 91.06,-21.68 82.68,-28.15 88.54,-31.97"/>
</a>
</g>
</g>
</g>
</svg>
