<?xml version="1.0" encoding="UTF-8" standalone="no"?>
<!DOCTYPE svg PUBLIC "-//W3C//DTD SVG 1.1//EN"
 "http://www.w3.org/Graphics/SVG/1.1/DTD/svg11.dtd">
<!-- Generated by graphviz version 14.0.2 (0)
 -->
<!-- Title: components/text/src/Text.hpp Pages: 1 -->
<svg width="289pt" height="208pt"
 viewBox="0.00 0.00 289.00 208.00" xmlns="http://www.w3.org/2000/svg" xmlns:xlink="http://www.w3.org/1999/xlink">
<g id="graph0" class="graph" transform="scale(1 1) rotate(0) translate(4 204)">
<title>components/text/src/Text.hpp</title>
<!-- Node1 -->
<g id="Node000001" class="node">
<title>Node1</title>
<g id="a_Node000001"><a xlink:title=" ">
<polygon fill="#999999" stroke="#666666" points="151.62,-200 46.38,-200 46.38,-168 151.62,-168 151.62,-200"/>
<text xml:space="preserve" text-anchor="start" x="54.38" y="-186.5" font-family="Helvetica,sans-Serif" font-size="10.00">components/text/src</text>
<text xml:space="preserve" text-anchor="middle" x="99" y="-174.5" font-family="Helvetica,sans-Serif" font-size="10.00">/Text.hpp</text>
</a>
</g>
</g>
<!-- Node2 -->
<g id="Node000002" class="node">
<title>Node2</title>
<g id="a_Node000002"><a xlink:title=" ">
<polygon fill="#e0e0e0" stroke="#999999" points="40,-76 0,-76 0,-56 40,-56 40,-76"/>
<text xml:space="preserve" text-anchor="middle" x="20" y="-62.5" font-family="Helvetica,sans-Serif" font-size="10.00">string</text>
</a>
</g>
</g>
<!-- Node1&#45;&gt;Node2 -->
<g id="edge1_Node000001_Node000002" class="edge">
<title>Node1&#45;&gt;Node2</title>
<g id="a_edge1_Node000001_Node000002"><a xlink:title=" ">
<path fill="none" stroke="#63b8ff" d="M64.14,-167.56C49.51,-159.22 33.87,-147.42 25,-132 17.3,-118.62 16.39,-101.04 17.21,-87.54"/>
<polygon fill="#63b8ff" stroke="#63b8ff" points="20.69,-87.92 18.22,-77.62 13.73,-87.22 20.69,-87.92"/>
</a>
</g>
</g>
<!-- Node3 -->
<g id="Node000003" class="node">
<title>Node3</title>
<g id="a_Node000003"><a xlink:href="Component_8hpp.html" target="_top" xlink:title=" ">
<polygon fill="white" stroke="#666666" points="164.38,-132 33.62,-132 33.62,-112 164.38,-112 164.38,-132"/>
<text xml:space="preserve" text-anchor="middle" x="99" y="-118.5" font-family="Helvetica,sans-Serif" font-size="10.00">../../../ecs/Component.hpp</text>
</a>
</g>
</g>
<!-- Node1&#45;&gt;Node3 -->
<g id="edge2_Node000001_Node000003" class="edge">
<title>Node1&#45;&gt;Node3</title>
<g id="a_edge2_Node000001_Node000003"><a xlink:title=" ">
<path fill="none" stroke="#63b8ff" d="M99,-167.55C99,-160.34 99,-151.66 99,-143.88"/>
<polygon fill="#63b8ff" stroke="#63b8ff" points="102.5,-143.92 99,-133.92 95.5,-143.92 102.5,-143.92"/>
</a>
</g>
</g>
<!-- Node8 -->
<g id="Node000008" class="node">
<title>Node8</title>
<g id="a_Node000008"><a xlink:href="utils_8hpp.html" target="_top" xlink:title=" ">
<polygon fill="white" stroke="#666666" points="281.25,-132 182.75,-132 182.75,-112 281.25,-112 281.25,-132"/>
<text xml:space="preserve" text-anchor="middle" x="232" y="-118.5" font-family="Helvetica,sans-Serif" font-size="10.00">../../../ecs/utils.hpp</text>
</a>
</g>
</g>
<!-- Node1&#45;&gt;Node8 -->
<g id="edge8_Node000001_Node000008" class="edge">
<title>Node1&#45;&gt;Node8</title>
<g id="a_edge8_Node000001_Node000008"><a xlink:title=" ">
<path fill="none" stroke="#63b8ff" d="M133.25,-167.55C154.13,-158.13 180.6,-146.19 200.88,-137.04"/>
<polygon fill="#63b8ff" stroke="#63b8ff" points="202.09,-140.33 209.77,-133.03 199.21,-133.95 202.09,-140.33"/>
</a>
</g>
</g>
<!-- Node3&#45;&gt;Node2 -->
<g id="edge4_Node000003_Node000002" class="edge">
<title>Node3&#45;&gt;Node2</title>
<g id="a_edge4_Node000003_Node000002"><a xlink:title=" ">
<path fill="none" stroke="#63b8ff" d="M85.24,-111.59C73.64,-103.67 56.8,-92.16 43.14,-82.82"/>
<polygon fill="#63b8ff" stroke="#63b8ff" points="45.35,-80.09 35.12,-77.33 41.4,-85.87 45.35,-80.09"/>
</a>
</g>
</g>
<!-- Node4 -->
<g id="Node000004" class="node">
<title>Node4</title>
<g id="a_Node000004"><a xlink:title=" ">
<polygon fill="#e0e0e0" stroke="#999999" points="116.62,-76 65.38,-76 65.38,-56 116.62,-56 116.62,-76"/>
<text xml:space="preserve" text-anchor="middle" x="91" y="-62.5" font-family="Helvetica,sans-Serif" font-size="10.00">memory</text>
</a>
</g>
</g>
<!-- Node3&#45;&gt;Node4 -->
<g id="edge3_Node000003_Node000004" class="edge">
<title>Node3&#45;&gt;Node4</title>
<g id="a_edge3_Node000003_Node000004"><a xlink:title=" ">
<path fill="none" stroke="#63b8ff" d="M97.61,-111.59C96.62,-104.93 95.26,-95.75 94.03,-87.44"/>
<polygon fill="#63b8ff" stroke="#63b8ff" points="97.53,-87.17 92.6,-77.8 90.6,-88.2 97.53,-87.17"/>
</a>
</g>
</g>
<!-- Node5 -->
<g id="Node000005" class="node">
<title>Node5</title>
<g id="a_Node000005"><a xlink:href="Types_8hpp.html" target="_top" xlink:title="Core type definitions used throughout the ECS (Entity Component System).">
<polygon fill="white" stroke="#666666" points="195.5,-76 134.5,-76 134.5,-56 195.5,-56 195.5,-76"/>
<text xml:space="preserve" text-anchor="middle" x="165" y="-62.5" font-family="Helvetica,sans-Serif" font-size="10.00">Types.hpp</text>
</a>
</g>
</g>
<!-- Node3&#45;&gt;Node5 -->
<g id="edge5_Node000003_Node000005" class="edge">
<title>Node3&#45;&gt;Node5</title>
<g id="a_edge5_Node000003_Node000005"><a xlink:title=" ">
<path fill="none" stroke="#63b8ff" d="M110.5,-111.59C119.96,-103.85 133.6,-92.69 144.87,-83.47"/>
<polygon fill="#63b8ff" stroke="#63b8ff" points="146.94,-86.3 152.46,-77.26 142.51,-80.88 146.94,-86.3"/>
</a>
</g>
</g>
<!-- Node6 -->
<g id="Node000006" class="node">
<title>Node6</title>
<g id="a_Node000006"><a xlink:title=" ">
<polygon fill="#e0e0e0" stroke="#999999" points="154,-20 114,-20 114,0 154,0 154,-20"/>
<text xml:space="preserve" text-anchor="middle" x="134" y="-6.5" font-family="Helvetica,sans-Serif" font-size="10.00">bitset</text>
</a>
</g>
</g>
<!-- Node5&#45;&gt;Node6 -->
<g id="edge6_Node000005_Node000006" class="edge">
<title>Node5&#45;&gt;Node6</title>
<g id="a_edge6_Node000005_Node000006"><a xlink:title=" ">
<path fill="none" stroke="#63b8ff" d="M159.6,-55.59C155.56,-48.55 149.88,-38.67 144.91,-30"/>
<polygon fill="#63b8ff" stroke="#63b8ff" points="148.11,-28.54 140.09,-21.61 142.03,-32.03 148.11,-28.54"/>
</a>
</g>
</g>
<!-- Node7 -->
<g id="Node000007" class="node">
<title>Node7</title>
<g id="a_Node000007"><a xlink:title=" ">
<polygon fill="#e0e0e0" stroke="#999999" points="217.62,-20 172.38,-20 172.38,0 217.62,0 217.62,-20"/>
<text xml:space="preserve" text-anchor="middle" x="195" y="-6.5" font-family="Helvetica,sans-Serif" font-size="10.00">cstdint</text>
</a>
</g>
</g>
<!-- Node5&#45;&gt;Node7 -->
<g id="edge7_Node000005_Node000007" class="edge">
<title>Node5&#45;&gt;Node7</title>
<g id="a_edge7_Node000005_Node000007"><a xlink:title=" ">
<path fill="none" stroke="#63b8ff" d="M170.23,-55.59C174.1,-48.63 179.51,-38.89 184.28,-30.29"/>
<polygon fill="#63b8ff" stroke="#63b8ff" points="187.3,-32.06 189.1,-21.62 181.18,-28.66 187.3,-32.06"/>
</a>
</g>
</g>
</g>
</svg>
