<?xml version="1.0" encoding="UTF-8" standalone="no"?>
<!DOCTYPE svg PUBLIC "-//W3C//DTD SVG 1.1//EN"
 "http://www.w3.org/Graphics/SVG/1.1/DTD/svg11.dtd">
<!-- Generated by graphviz version 14.0.1 (0)
 -->
<!-- Title: ecs/Types.hpp Pages: 1 -->
<svg width="669pt" height="264pt"
 viewBox="0.00 0.00 669.00 264.00" xmlns="http://www.w3.org/2000/svg" xmlns:xlink="http://www.w3.org/1999/xlink">
<g id="graph0" class="graph" transform="scale(1 1) rotate(0) translate(4 260)">
<title>ecs/Types.hpp</title>
<!-- Node1 -->
<g id="Node000001" class="node">
<title>Node1</title>
<g id="a_Node000001"><a xlink:title="Core type definitions used throughout the ECS (Entity Component System).">
<polygon fill="#999999" stroke="#666666" points="289.5,-256 209.75,-256 209.75,-236 289.5,-236 289.5,-256"/>
<text xml:space="preserve" text-anchor="middle" x="249.62" y="-242.5" font-family="Helvetica,sans-Serif" font-size="10.00">ecs/Types.hpp</text>
</a>
</g>
</g>
<!-- Node2 -->
<g id="Node000002" class="node">
<title>Node2</title>
<g id="a_Node000002"><a xlink:href="ComponentRegistry_8hpp.html" target="_top" xlink:title=" ">
<polygon fill="white" stroke="#666666" points="319.5,-200 179.75,-200 179.75,-180 319.5,-180 319.5,-200"/>
<text xml:space="preserve" text-anchor="middle" x="249.62" y="-186.5" font-family="Helvetica,sans-Serif" font-size="10.00">ecs/ComponentRegistry.hpp</text>
</a>
</g>
</g>
<!-- Node1&#45;&gt;Node2 -->
<g id="edge1_Node000001_Node000002" class="edge">
<title>Node1&#45;&gt;Node2</title>
<g id="a_edge1_Node000001_Node000002"><a xlink:title=" ">
<path fill="none" stroke="#63b8ff" d="M249.62,-224.13C249.62,-215.9 249.62,-206.85 249.62,-200.3"/>
<polygon fill="#63b8ff" stroke="#63b8ff" points="246.13,-224.08 249.63,-234.08 253.13,-224.08 246.13,-224.08"/>
</a>
</g>
</g>
<!-- Node3 -->
<g id="Node000003" class="node">
<title>Node3</title>
<g id="a_Node000003"><a xlink:href="Registry_8hpp.html" target="_top" xlink:title=" ">
<polygon fill="white" stroke="#666666" points="264.38,-88 174.88,-88 174.88,-68 264.38,-68 264.38,-88"/>
<text xml:space="preserve" text-anchor="middle" x="219.62" y="-74.5" font-family="Helvetica,sans-Serif" font-size="10.00">ecs/Registry.hpp</text>
</a>
</g>
</g>
<!-- Node1&#45;&gt;Node3 -->
<g id="edge15_Node000001_Node000003" class="edge">
<title>Node1&#45;&gt;Node3</title>
<g id="a_edge15_Node000001_Node000003"><a xlink:title=" ">
<path fill="none" stroke="#63b8ff" d="M207.45,-231.05C193.18,-224.09 178.79,-214.06 170.62,-200 147.85,-160.81 190.57,-109 210.35,-88.21"/>
<polygon fill="#63b8ff" stroke="#63b8ff" points="205.79,-234.15 216.36,-234.99 208.62,-227.74 205.79,-234.15"/>
</a>
</g>
</g>
<!-- Node9 -->
<g id="Node000009" class="node">
<title>Node9</title>
<g id="a_Node000009"><a xlink:href="System_8hpp.html" target="_top" xlink:title=" ">
<polygon fill="white" stroke="#666666" points="355.25,-144 268,-144 268,-124 355.25,-124 355.25,-144"/>
<text xml:space="preserve" text-anchor="middle" x="311.62" y="-130.5" font-family="Helvetica,sans-Serif" font-size="10.00">ecs/System.hpp</text>
</a>
</g>
</g>
<!-- Node1&#45;&gt;Node9 -->
<g id="edge16_Node000001_Node000009" class="edge">
<title>Node1&#45;&gt;Node9</title>
<g id="a_edge16_Node000001_Node000009"><a xlink:title=" ">
<path fill="none" stroke="#63b8ff" d="M291.8,-231.05C306.07,-224.09 320.46,-214.06 328.62,-200 339.06,-182.05 326.76,-157.64 318.3,-144.43"/>
<polygon fill="#63b8ff" stroke="#63b8ff" points="290.63,-227.74 282.89,-234.99 293.46,-234.15 290.63,-227.74"/>
</a>
</g>
</g>
<!-- Node2&#45;&gt;Node3 -->
<g id="edge2_Node000002_Node000003" class="edge">
<title>Node2&#45;&gt;Node3</title>
<g id="a_edge2_Node000002_Node000003"><a xlink:title=" ">
<path fill="none" stroke="#63b8ff" d="M244.07,-168.64C237.55,-144.72 227,-106.03 222.18,-88.35"/>
<polygon fill="#63b8ff" stroke="#63b8ff" points="240.66,-169.43 246.67,-178.16 247.41,-167.59 240.66,-169.43"/>
</a>
</g>
</g>
<!-- Node2&#45;&gt;Node9 -->
<g id="edge8_Node000002_Node000009" class="edge">
<title>Node2&#45;&gt;Node9</title>
<g id="a_edge8_Node000002_Node000009"><a xlink:title=" ">
<path fill="none" stroke="#63b8ff" d="M269,-172.13C279.54,-162.94 292.18,-151.93 300.95,-144.3"/>
<polygon fill="#63b8ff" stroke="#63b8ff" points="266.81,-169.39 261.57,-178.6 271.41,-174.67 266.81,-169.39"/>
</a>
</g>
</g>
<!-- Node4 -->
<g id="Node000004" class="node">
<title>Node4</title>
<g id="a_Node000004"><a xlink:href="Collision_8hpp.html" target="_top" xlink:title=" ">
<polygon fill="white" stroke="#666666" points="357.75,-32 249.5,-32 249.5,0 357.75,0 357.75,-32"/>
<text xml:space="preserve" text-anchor="start" x="257.5" y="-18.5" font-family="Helvetica,sans-Serif" font-size="10.00">systems/collision/src</text>
<text xml:space="preserve" text-anchor="middle" x="303.62" y="-6.5" font-family="Helvetica,sans-Serif" font-size="10.00">/Collision.hpp</text>
</a>
</g>
</g>
<!-- Node3&#45;&gt;Node4 -->
<g id="edge3_Node000003_Node000004" class="edge">
<title>Node3&#45;&gt;Node4</title>
<g id="a_edge3_Node000003_Node000004"><a xlink:title=" ">
<path fill="none" stroke="#63b8ff" d="M241.97,-61.04C254.4,-52.16 269.8,-41.16 282.1,-32.37"/>
<polygon fill="#63b8ff" stroke="#63b8ff" points="240.08,-58.08 233.98,-66.75 244.15,-63.78 240.08,-58.08"/>
</a>
</g>
</g>
<!-- Node5 -->
<g id="Node000005" class="node">
<title>Node5</title>
<g id="a_Node000005"><a xlink:href="Death_8hpp.html" target="_top" xlink:title=" ">
<polygon fill="white" stroke="#666666" points="521.12,-26 376.12,-26 376.12,-6 521.12,-6 521.12,-26"/>
<text xml:space="preserve" text-anchor="middle" x="448.62" y="-12.5" font-family="Helvetica,sans-Serif" font-size="10.00">systems/death/src/Death.hpp</text>
</a>
</g>
</g>
<!-- Node3&#45;&gt;Node5 -->
<g id="edge4_Node000003_Node000005" class="edge">
<title>Node3&#45;&gt;Node5</title>
<g id="a_edge4_Node000003_Node000005"><a xlink:title=" ">
<path fill="none" stroke="#63b8ff" d="M266.74,-64.66C309.95,-53.33 373.04,-36.8 412.42,-26.48"/>
<polygon fill="#63b8ff" stroke="#63b8ff" points="265.91,-61.26 257.12,-67.18 267.68,-68.03 265.91,-61.26"/>
</a>
</g>
</g>
<!-- Node6 -->
<g id="Node000006" class="node">
<title>Node6</title>
<g id="a_Node000006"><a xlink:href="DomainHandler_8hpp.html" target="_top" xlink:title=" ">
<polygon fill="white" stroke="#666666" points="660.5,-32 538.75,-32 538.75,0 660.5,0 660.5,-32"/>
<text xml:space="preserve" text-anchor="start" x="546.75" y="-18.5" font-family="Helvetica,sans-Serif" font-size="10.00">systems/domainHandler</text>
<text xml:space="preserve" text-anchor="middle" x="599.62" y="-6.5" font-family="Helvetica,sans-Serif" font-size="10.00">/src/DomainHandler.hpp</text>
</a>
</g>
</g>
<!-- Node3&#45;&gt;Node6 -->
<g id="edge5_Node000003_Node000006" class="edge">
<title>Node3&#45;&gt;Node6</title>
<g id="a_edge5_Node000003_Node000006"><a xlink:title=" ">
<path fill="none" stroke="#63b8ff" d="M276.02,-70.05C338.48,-62.08 442.05,-48.01 530.62,-32 533.16,-31.54 535.74,-31.06 538.35,-30.56"/>
<polygon fill="#63b8ff" stroke="#63b8ff" points="275.83,-66.55 266.35,-71.28 276.71,-73.49 275.83,-66.55"/>
</a>
</g>
</g>
<!-- Node7 -->
<g id="Node000007" class="node">
<title>Node7</title>
<g id="a_Node000007"><a xlink:href="InputHandler_8hpp.html" target="_top" xlink:title=" ">
<polygon fill="white" stroke="#666666" points="111.25,-32 0,-32 0,0 111.25,0 111.25,-32"/>
<text xml:space="preserve" text-anchor="start" x="8" y="-18.5" font-family="Helvetica,sans-Serif" font-size="10.00">systems/inputHandler</text>
<text xml:space="preserve" text-anchor="middle" x="55.62" y="-6.5" font-family="Helvetica,sans-Serif" font-size="10.00">/src/InputHandler.hpp</text>
</a>
</g>
</g>
<!-- Node3&#45;&gt;Node7 -->
<g id="edge6_Node000003_Node000007" class="edge">
<title>Node3&#45;&gt;Node7</title>
<g id="a_edge6_Node000003_Node000007"><a xlink:title=" ">
<path fill="none" stroke="#63b8ff" d="M183.41,-63.75C158.18,-54.52 124.44,-42.18 97.97,-32.49"/>
<polygon fill="#63b8ff" stroke="#63b8ff" points="181.98,-66.96 192.58,-67.1 184.39,-60.38 181.98,-66.96"/>
</a>
</g>
</g>
<!-- Node8 -->
<g id="Node000008" class="node">
<title>Node8</title>
<g id="a_Node000008"><a xlink:href="Motion_8hpp.html" target="_top" xlink:title=" ">
<polygon fill="white" stroke="#666666" points="231.75,-32 129.5,-32 129.5,0 231.75,0 231.75,-32"/>
<text xml:space="preserve" text-anchor="start" x="137.5" y="-18.5" font-family="Helvetica,sans-Serif" font-size="10.00">systems/motion/src</text>
<text xml:space="preserve" text-anchor="middle" x="180.62" y="-6.5" font-family="Helvetica,sans-Serif" font-size="10.00">/Motion.hpp</text>
</a>
</g>
</g>
<!-- Node3&#45;&gt;Node8 -->
<g id="edge7_Node000003_Node000008" class="edge">
<title>Node3&#45;&gt;Node8</title>
<g id="a_edge7_Node000003_Node000008"><a xlink:title=" ">
<path fill="none" stroke="#63b8ff" d="M207.27,-58C201.85,-49.65 195.57,-39.99 190.47,-32.14"/>
<polygon fill="#63b8ff" stroke="#63b8ff" points="204.32,-59.88 212.71,-66.36 210.19,-56.06 204.32,-59.88"/>
</a>
</g>
</g>
<!-- Node9&#45;&gt;Node3 -->
<g id="edge9_Node000009_Node000003" class="edge">
<title>Node9&#45;&gt;Node3</title>
<g id="a_edge9_Node000009_Node000003"><a xlink:title=" ">
<path fill="none" stroke="#63b8ff" d="M285.75,-117.81C269.7,-108.39 249.58,-96.58 235.78,-88.48"/>
<polygon fill="#63b8ff" stroke="#63b8ff" points="283.9,-120.78 294.29,-122.83 287.44,-114.75 283.9,-120.78"/>
</a>
</g>
</g>
<!-- Node9&#45;&gt;Node4 -->
<g id="edge10_Node000009_Node000004" class="edge">
<title>Node9&#45;&gt;Node4</title>
<g id="a_edge10_Node000009_Node000004"><a xlink:title=" ">
<path fill="none" stroke="#63b8ff" d="M310.18,-112.04C308.6,-89.1 306.1,-52.88 304.69,-32.41"/>
<polygon fill="#63b8ff" stroke="#63b8ff" points="306.69,-112.26 310.87,-122 313.67,-111.78 306.69,-112.26"/>
</a>
</g>
</g>
<!-- Node9&#45;&gt;Node5 -->
<g id="edge11_Node000009_Node000005" class="edge">
<title>Node9&#45;&gt;Node5</title>
<g id="a_edge11_Node000009_Node000005"><a xlink:title=" ">
<path fill="none" stroke="#63b8ff" d="M331.4,-116.25C360.68,-91.47 414.55,-45.86 437.64,-26.3"/>
<polygon fill="#63b8ff" stroke="#63b8ff" points="329.36,-113.4 323.99,-122.53 333.88,-118.74 329.36,-113.4"/>
</a>
</g>
</g>
<!-- Node9&#45;&gt;Node6 -->
<g id="edge12_Node000009_Node000006" class="edge">
<title>Node9&#45;&gt;Node6</title>
<g id="a_edge12_Node000009_Node000006"><a xlink:title=" ">
<path fill="none" stroke="#63b8ff" d="M345.6,-119.32C399.62,-97.56 504.76,-55.21 561.36,-32.41"/>
<polygon fill="#63b8ff" stroke="#63b8ff" points="344.57,-115.96 336.6,-122.94 347.18,-122.45 344.57,-115.96"/>
</a>
</g>
</g>
<!-- Node9&#45;&gt;Node7 -->
<g id="edge13_Node000009_Node000007" class="edge">
<title>Node9&#45;&gt;Node7</title>
<g id="a_edge13_Node000009_Node000007"><a xlink:title=" ">
<path fill="none" stroke="#63b8ff" d="M259.61,-120.7C231.14,-113.05 195.66,-101.99 165.62,-88 132.25,-72.45 97.06,-48.15 75.73,-32.4"/>
<polygon fill="#63b8ff" stroke="#63b8ff" points="258.52,-124.03 269.08,-123.18 260.3,-117.26 258.52,-124.03"/>
</a>
</g>
</g>
<!-- Node9&#45;&gt;Node8 -->
<g id="edge14_Node000009_Node000008" class="edge">
<title>Node9&#45;&gt;Node8</title>
<g id="a_edge14_Node000009_Node000008"><a xlink:title=" ">
<path fill="none" stroke="#63b8ff" d="M303.46,-113.1C296.97,-99.17 286.8,-80.82 273.62,-68 258.18,-52.98 237.43,-41.03 219.45,-32.49"/>
<polygon fill="#63b8ff" stroke="#63b8ff" points="300.2,-114.41 307.42,-122.17 306.62,-111.6 300.2,-114.41"/>
</a>
</g>
</g>
</g>
</svg>
