<?xml version="1.0" encoding="UTF-8" standalone="no"?>
<!DOCTYPE svg PUBLIC "-//W3C//DTD SVG 1.1//EN"
 "http://www.w3.org/Graphics/SVG/1.1/DTD/svg11.dtd">
<!-- Generated by graphviz version 14.0.1 (0)
 -->
<!-- Title: ecs/Types.hpp Pages: 1 -->
<svg width="799pt" height="264pt"
 viewBox="0.00 0.00 799.00 264.00" xmlns="http://www.w3.org/2000/svg" xmlns:xlink="http://www.w3.org/1999/xlink">
<g id="graph0" class="graph" transform="scale(1 1) rotate(0) translate(4 260)">
<title>ecs/Types.hpp</title>
<!-- Node1 -->
<g id="Node000001" class="node">
<title>Node1</title>
<g id="a_Node000001"><a xlink:title="Core type definitions used throughout the ECS (Entity Component System).">
<polygon fill="#999999" stroke="#666666" points="419.38,-256 339.62,-256 339.62,-236 419.38,-236 419.38,-256"/>
<text xml:space="preserve" text-anchor="middle" x="379.5" y="-242.5" font-family="Helvetica,sans-Serif" font-size="10.00">ecs/Types.hpp</text>
</a>
</g>
</g>
<!-- Node2 -->
<g id="Node000002" class="node">
<title>Node2</title>
<g id="a_Node000002"><a xlink:href="ComponentRegistry_8hpp.html" target="_top" xlink:title=" ">
<polygon fill="white" stroke="#666666" points="449.38,-200 309.62,-200 309.62,-180 449.38,-180 449.38,-200"/>
<text xml:space="preserve" text-anchor="middle" x="379.5" y="-186.5" font-family="Helvetica,sans-Serif" font-size="10.00">ecs/ComponentRegistry.hpp</text>
</a>
</g>
</g>
<!-- Node1&#45;&gt;Node2 -->
<g id="edge1_Node000001_Node000002" class="edge">
<title>Node1&#45;&gt;Node2</title>
<g id="a_edge1_Node000001_Node000002"><a xlink:title=" ">
<path fill="none" stroke="#63b8ff" d="M379.5,-224.13C379.5,-215.9 379.5,-206.85 379.5,-200.3"/>
<polygon fill="#63b8ff" stroke="#63b8ff" points="376,-224.08 379.5,-234.08 383,-224.08 376,-224.08"/>
</a>
</g>
</g>
<!-- Node3 -->
<g id="Node000003" class="node">
<title>Node3</title>
<g id="a_Node000003"><a xlink:href="Registry_8hpp.html" target="_top" xlink:title=" ">
<polygon fill="white" stroke="#666666" points="394.25,-88 304.75,-88 304.75,-68 394.25,-68 394.25,-88"/>
<text xml:space="preserve" text-anchor="middle" x="349.5" y="-74.5" font-family="Helvetica,sans-Serif" font-size="10.00">ecs/Registry.hpp</text>
</a>
</g>
</g>
<!-- Node1&#45;&gt;Node3 -->
<g id="edge17_Node000001_Node000003" class="edge">
<title>Node1&#45;&gt;Node3</title>
<g id="a_edge17_Node000001_Node000003"><a xlink:title=" ">
<path fill="none" stroke="#63b8ff" d="M337.33,-231.05C323.05,-224.09 308.67,-214.06 300.5,-200 277.72,-160.81 320.44,-109 340.22,-88.21"/>
<polygon fill="#63b8ff" stroke="#63b8ff" points="335.67,-234.15 346.23,-234.99 338.5,-227.74 335.67,-234.15"/>
</a>
</g>
</g>
<!-- Node10 -->
<g id="Node000010" class="node">
<title>Node10</title>
<g id="a_Node000010"><a xlink:href="System_8hpp.html" target="_top" xlink:title=" ">
<polygon fill="white" stroke="#666666" points="466.12,-144 378.88,-144 378.88,-124 466.12,-124 466.12,-144"/>
<text xml:space="preserve" text-anchor="middle" x="422.5" y="-130.5" font-family="Helvetica,sans-Serif" font-size="10.00">ecs/System.hpp</text>
</a>
</g>
</g>
<!-- Node1&#45;&gt;Node10 -->
<g id="edge18_Node000001_Node000010" class="edge">
<title>Node1&#45;&gt;Node10</title>
<g id="a_edge18_Node000001_Node000010"><a xlink:title=" ">
<path fill="none" stroke="#63b8ff" d="M421.67,-231.05C435.95,-224.09 450.33,-214.06 458.5,-200 469.91,-180.37 448.62,-157.01 434.19,-144.33"/>
<polygon fill="#63b8ff" stroke="#63b8ff" points="420.5,-227.74 412.77,-234.99 423.33,-234.15 420.5,-227.74"/>
</a>
</g>
</g>
<!-- Node2&#45;&gt;Node3 -->
<g id="edge2_Node000002_Node000003" class="edge">
<title>Node2&#45;&gt;Node3</title>
<g id="a_edge2_Node000002_Node000003"><a xlink:title=" ">
<path fill="none" stroke="#63b8ff" d="M373.95,-168.64C367.42,-144.72 356.87,-106.03 352.05,-88.35"/>
<polygon fill="#63b8ff" stroke="#63b8ff" points="370.54,-169.43 376.54,-178.16 377.29,-167.59 370.54,-169.43"/>
</a>
</g>
</g>
<!-- Node2&#45;&gt;Node10 -->
<g id="edge9_Node000002_Node000010" class="edge">
<title>Node2&#45;&gt;Node10</title>
<g id="a_edge9_Node000002_Node000010"><a xlink:title=" ">
<path fill="none" stroke="#63b8ff" d="M394.06,-170.72C401.13,-161.84 409.32,-151.55 415.1,-144.3"/>
<polygon fill="#63b8ff" stroke="#63b8ff" points="391.42,-168.41 387.93,-178.41 396.9,-172.77 391.42,-168.41"/>
</a>
</g>
</g>
<!-- Node4 -->
<g id="Node000004" class="node">
<title>Node4</title>
<g id="a_Node000004"><a xlink:href="ecs_2systems_2inputHandler_2src_2InputHandler_8hpp.html" target="_top" xlink:title=" ">
<polygon fill="white" stroke="#666666" points="542.5,-32 412.5,-32 412.5,0 542.5,0 542.5,-32"/>
<text xml:space="preserve" text-anchor="start" x="420.5" y="-18.5" font-family="Helvetica,sans-Serif" font-size="10.00">ecs/systems/inputHandler</text>
<text xml:space="preserve" text-anchor="middle" x="477.5" y="-6.5" font-family="Helvetica,sans-Serif" font-size="10.00">/src/InputHandler.hpp</text>
</a>
</g>
</g>
<!-- Node3&#45;&gt;Node4 -->
<g id="edge3_Node000003_Node000004" class="edge">
<title>Node3&#45;&gt;Node4</title>
<g id="a_edge3_Node000003_Node000004"><a xlink:title=" ">
<path fill="none" stroke="#63b8ff" d="M379.68,-62.85C399.22,-53.69 424.66,-41.77 444.7,-32.37"/>
<polygon fill="#63b8ff" stroke="#63b8ff" points="378.44,-59.57 370.87,-66.98 381.41,-65.91 378.44,-59.57"/>
</a>
</g>
</g>
<!-- Node5 -->
<g id="Node000005" class="node">
<title>Node5</title>
<g id="a_Node000005"><a xlink:href="ecs_2systems_2motion_2src_2Motion_8hpp.html" target="_top" xlink:title=" ">
<polygon fill="white" stroke="#666666" points="664.75,-32 560.25,-32 560.25,0 664.75,0 664.75,-32"/>
<text xml:space="preserve" text-anchor="start" x="568.25" y="-18.5" font-family="Helvetica,sans-Serif" font-size="10.00">ecs/systems/motion</text>
<text xml:space="preserve" text-anchor="middle" x="612.5" y="-6.5" font-family="Helvetica,sans-Serif" font-size="10.00">/src/Motion.hpp</text>
</a>
</g>
</g>
<!-- Node3&#45;&gt;Node5 -->
<g id="edge4_Node000003_Node000005" class="edge">
<title>Node3&#45;&gt;Node5</title>
<g id="a_edge4_Node000003_Node000005"><a xlink:title=" ">
<path fill="none" stroke="#63b8ff" d="M404.33,-65.13C445,-56.24 501.78,-43.65 551.5,-32 554.26,-31.35 557.09,-30.68 559.95,-30"/>
<polygon fill="#63b8ff" stroke="#63b8ff" points="403.8,-61.66 394.78,-67.21 405.3,-68.5 403.8,-61.66"/>
</a>
</g>
</g>
<!-- Node6 -->
<g id="Node000006" class="node">
<title>Node6</title>
<g id="a_Node000006"><a xlink:href="Collision_8hpp.html" target="_top" xlink:title=" ">
<polygon fill="white" stroke="#666666" points="790.62,-32 682.38,-32 682.38,0 790.62,0 790.62,-32"/>
<text xml:space="preserve" text-anchor="start" x="690.38" y="-18.5" font-family="Helvetica,sans-Serif" font-size="10.00">systems/collision/src</text>
<text xml:space="preserve" text-anchor="middle" x="736.5" y="-6.5" font-family="Helvetica,sans-Serif" font-size="10.00">/Collision.hpp</text>
</a>
</g>
</g>
<!-- Node3&#45;&gt;Node6 -->
<g id="edge5_Node000003_Node000006" class="edge">
<title>Node3&#45;&gt;Node6</title>
<g id="a_edge5_Node000003_Node000006"><a xlink:title=" ">
<path fill="none" stroke="#63b8ff" d="M405.71,-70.85C470.54,-63.37 580.18,-49.55 673.5,-32 676.26,-31.48 679.09,-30.92 681.93,-30.33"/>
<polygon fill="#63b8ff" stroke="#63b8ff" points="405.57,-67.34 396.04,-71.95 406.37,-74.3 405.57,-67.34"/>
</a>
</g>
</g>
<!-- Node7 -->
<g id="Node000007" class="node">
<title>Node7</title>
<g id="a_Node000007"><a xlink:href="Death_8hpp.html" target="_top" xlink:title=" ">
<polygon fill="white" stroke="#666666" points="145,-26 0,-26 0,-6 145,-6 145,-26"/>
<text xml:space="preserve" text-anchor="middle" x="72.5" y="-12.5" font-family="Helvetica,sans-Serif" font-size="10.00">systems/death/src/Death.hpp</text>
</a>
</g>
</g>
<!-- Node3&#45;&gt;Node7 -->
<g id="edge6_Node000003_Node000007" class="edge">
<title>Node3&#45;&gt;Node7</title>
<g id="a_edge6_Node000003_Node000007"><a xlink:title=" ">
<path fill="none" stroke="#63b8ff" d="M294.83,-65.16C242.52,-53.83 164.63,-36.96 116.29,-26.48"/>
<polygon fill="#63b8ff" stroke="#63b8ff" points="293.92,-68.54 304.43,-67.24 295.4,-61.7 293.92,-68.54"/>
</a>
</g>
</g>
<!-- Node8 -->
<g id="Node000008" class="node">
<title>Node8</title>
<g id="a_Node000008"><a xlink:href="systems_2inputHandler_2src_2InputHandler_8hpp.html" target="_top" xlink:title=" ">
<polygon fill="white" stroke="#666666" points="274.12,-32 162.88,-32 162.88,0 274.12,0 274.12,-32"/>
<text xml:space="preserve" text-anchor="start" x="170.88" y="-18.5" font-family="Helvetica,sans-Serif" font-size="10.00">systems/inputHandler</text>
<text xml:space="preserve" text-anchor="middle" x="218.5" y="-6.5" font-family="Helvetica,sans-Serif" font-size="10.00">/src/InputHandler.hpp</text>
</a>
</g>
</g>
<!-- Node3&#45;&gt;Node8 -->
<g id="edge7_Node000003_Node000008" class="edge">
<title>Node3&#45;&gt;Node8</title>
<g id="a_edge7_Node000003_Node000008"><a xlink:title=" ">
<path fill="none" stroke="#63b8ff" d="M318.65,-62.87C298.73,-53.75 272.8,-41.87 252.32,-32.49"/>
<polygon fill="#63b8ff" stroke="#63b8ff" points="317.11,-66.01 327.66,-66.99 320.02,-59.65 317.11,-66.01"/>
</a>
</g>
</g>
<!-- Node9 -->
<g id="Node000009" class="node">
<title>Node9</title>
<g id="a_Node000009"><a xlink:href="systems_2motion_2src_2Motion_8hpp.html" target="_top" xlink:title=" ">
<polygon fill="white" stroke="#666666" points="394.62,-32 292.38,-32 292.38,0 394.62,0 394.62,-32"/>
<text xml:space="preserve" text-anchor="start" x="300.38" y="-18.5" font-family="Helvetica,sans-Serif" font-size="10.00">systems/motion/src</text>
<text xml:space="preserve" text-anchor="middle" x="343.5" y="-6.5" font-family="Helvetica,sans-Serif" font-size="10.00">/Motion.hpp</text>
</a>
</g>
</g>
<!-- Node3&#45;&gt;Node9 -->
<g id="edge8_Node000003_Node000009" class="edge">
<title>Node3&#45;&gt;Node9</title>
<g id="a_edge8_Node000003_Node000009"><a xlink:title=" ">
<path fill="none" stroke="#63b8ff" d="M347.43,-56.31C346.64,-48.37 345.75,-39.46 345.01,-32.14"/>
<polygon fill="#63b8ff" stroke="#63b8ff" points="343.93,-56.52 348.41,-66.12 350.9,-55.82 343.93,-56.52"/>
</a>
</g>
</g>
<!-- Node10&#45;&gt;Node3 -->
<g id="edge10_Node000010_Node000003" class="edge">
<title>Node10&#45;&gt;Node3</title>
<g id="a_edge10_Node000010_Node000003"><a xlink:title=" ">
<path fill="none" stroke="#63b8ff" d="M400.81,-116.95C388.18,-107.61 372.7,-96.16 362.07,-88.3"/>
<polygon fill="#63b8ff" stroke="#63b8ff" points="398.45,-119.56 408.57,-122.69 402.61,-113.93 398.45,-119.56"/>
</a>
</g>
</g>
<!-- Node10&#45;&gt;Node4 -->
<g id="edge11_Node000010_Node000004" class="edge">
<title>Node10&#45;&gt;Node4</title>
<g id="a_edge11_Node000010_Node000004"><a xlink:title=" ">
<path fill="none" stroke="#63b8ff" d="M431.84,-113.3C442.67,-90.45 460.31,-53.26 470.19,-32.41"/>
<polygon fill="#63b8ff" stroke="#63b8ff" points="428.77,-111.6 427.65,-122.14 435.1,-114.6 428.77,-111.6"/>
</a>
</g>
</g>
<!-- Node10&#45;&gt;Node5 -->
<g id="edge12_Node000010_Node000005" class="edge">
<title>Node10&#45;&gt;Node5</title>
<g id="a_edge12_Node000010_Node000005"><a xlink:title=" ">
<path fill="none" stroke="#63b8ff" d="M447.42,-117.79C483.72,-95.62 550.77,-54.69 587.25,-32.41"/>
<polygon fill="#63b8ff" stroke="#63b8ff" points="446.05,-114.52 439.34,-122.72 449.7,-120.49 446.05,-114.52"/>
</a>
</g>
</g>
<!-- Node10&#45;&gt;Node6 -->
<g id="edge13_Node000010_Node000006" class="edge">
<title>Node10&#45;&gt;Node6</title>
<g id="a_edge13_Node000010_Node000006"><a xlink:title=" ">
<path fill="none" stroke="#63b8ff" d="M458.8,-119.59C517.48,-97.91 632.81,-55.31 694.78,-32.41"/>
<polygon fill="#63b8ff" stroke="#63b8ff" points="457.78,-116.23 449.62,-122.98 460.21,-122.8 457.78,-116.23"/>
</a>
</g>
</g>
<!-- Node10&#45;&gt;Node7 -->
<g id="edge14_Node000010_Node000007" class="edge">
<title>Node10&#45;&gt;Node7</title>
<g id="a_edge14_Node000010_Node000007"><a xlink:title=" ">
<path fill="none" stroke="#63b8ff" d="M375.7,-120.55C344.34,-111.98 302.23,-100 265.5,-88 203.91,-67.87 132.64,-40.6 96.37,-26.43"/>
<polygon fill="#63b8ff" stroke="#63b8ff" points="374.7,-123.91 385.27,-123.15 376.54,-117.15 374.7,-123.91"/>
</a>
</g>
</g>
<!-- Node10&#45;&gt;Node8 -->
<g id="edge15_Node000010_Node000008" class="edge">
<title>Node10&#45;&gt;Node8</title>
<g id="a_edge15_Node000010_Node000008"><a xlink:title=" ">
<path fill="none" stroke="#63b8ff" d="M372.41,-120.37C348.15,-113 319.21,-102.3 295.5,-88 270.12,-72.69 245.84,-48.09 231.55,-32.24"/>
<polygon fill="#63b8ff" stroke="#63b8ff" points="371.16,-123.65 381.74,-123.09 373.12,-116.93 371.16,-123.65"/>
</a>
</g>
</g>
<!-- Node10&#45;&gt;Node9 -->
<g id="edge16_Node000010_Node000009" class="edge">
<title>Node10&#45;&gt;Node9</title>
<g id="a_edge16_Node000010_Node000009"><a xlink:title=" ">
<path fill="none" stroke="#63b8ff" d="M419.73,-112.92C417.15,-99.39 412.32,-81.59 403.5,-68 394.28,-53.78 379.91,-41.37 367.55,-32.35"/>
<polygon fill="#63b8ff" stroke="#63b8ff" points="416.21,-113.11 421.27,-122.42 423.12,-111.98 416.21,-113.11"/>
</a>
</g>
</g>
</g>
</svg>
