<?xml version="1.0" encoding="UTF-8" standalone="no"?>
<!DOCTYPE svg PUBLIC "-//W3C//DTD SVG 1.1//EN"
 "http://www.w3.org/Graphics/SVG/1.1/DTD/svg11.dtd">
<!-- Generated by graphviz version 14.0.2 (0)
 -->
<!-- Title: ecs/utils.hpp Pages: 1 -->
<svg width="915pt" height="232pt"
 viewBox="0.00 0.00 915.00 232.00" xmlns="http://www.w3.org/2000/svg" xmlns:xlink="http://www.w3.org/1999/xlink">
<g id="graph0" class="graph" transform="scale(1 1) rotate(0) translate(4 228)">
<title>ecs/utils.hpp</title>
<!-- Node1 -->
<g id="Node000001" class="node">
<title>Node1</title>
<g id="a_Node000001"><a xlink:title=" ">
<polygon fill="#999999" stroke="#666666" points="409.88,-224 338.38,-224 338.38,-204 409.88,-204 409.88,-224"/>
<text xml:space="preserve" text-anchor="middle" x="374.12" y="-210.5" font-family="Helvetica,sans-Serif" font-size="10.00">ecs/utils.hpp</text>
</a>
</g>
</g>
<!-- Node2 -->
<g id="Node000002" class="node">
<title>Node2</title>
<g id="a_Node000002"><a xlink:href="Collider_8hpp.html" target="_top" xlink:title=" ">
<polygon fill="white" stroke="#666666" points="232.62,-168 129.62,-168 129.62,-136 232.62,-136 232.62,-168"/>
<text xml:space="preserve" text-anchor="start" x="137.62" y="-154.5" font-family="Helvetica,sans-Serif" font-size="10.00">components/collider</text>
<text xml:space="preserve" text-anchor="middle" x="181.12" y="-142.5" font-family="Helvetica,sans-Serif" font-size="10.00">/src/Collider.hpp</text>
</a>
</g>
</g>
<!-- Node1&#45;&gt;Node2 -->
<g id="edge1_Node000001_Node000002" class="edge">
<title>Node1&#45;&gt;Node2</title>
<g id="a_edge1_Node000001_Node000002"><a xlink:title=" ">
<path fill="none" stroke="#63b8ff" d="M333.09,-200.24C303.24,-190.96 262.67,-178.35 230.95,-168.49"/>
<polygon fill="#63b8ff" stroke="#63b8ff" points="331.94,-203.55 342.52,-203.18 334.01,-196.86 331.94,-203.55"/>
</a>
</g>
</g>
<!-- Node11 -->
<g id="Node000011" class="node">
<title>Node11</title>
<g id="a_Node000011"><a xlink:href="Position_8hpp.html" target="_top" xlink:title=" ">
<polygon fill="white" stroke="#666666" points="492.12,-168 386.12,-168 386.12,-136 492.12,-136 492.12,-168"/>
<text xml:space="preserve" text-anchor="start" x="394.12" y="-154.5" font-family="Helvetica,sans-Serif" font-size="10.00">components/position</text>
<text xml:space="preserve" text-anchor="middle" x="439.12" y="-142.5" font-family="Helvetica,sans-Serif" font-size="10.00">/src/Position.hpp</text>
</a>
</g>
</g>
<!-- Node1&#45;&gt;Node11 -->
<g id="edge10_Node000001_Node000011" class="edge">
<title>Node1&#45;&gt;Node11</title>
<g id="a_edge10_Node000001_Node000011"><a xlink:title=" ">
<path fill="none" stroke="#63b8ff" d="M392.57,-195.98C401.98,-187.29 413.33,-176.81 422.47,-168.37"/>
<polygon fill="#63b8ff" stroke="#63b8ff" points="390.37,-193.24 385.39,-202.6 395.12,-198.39 390.37,-193.24"/>
</a>
</g>
</g>
<!-- Node16 -->
<g id="Node000016" class="node">
<title>Node16</title>
<g id="a_Node000016"><a xlink:href="Renderable_8hpp.html" target="_top" xlink:title=" ">
<polygon fill="white" stroke="#666666" points="367.75,-168 250.5,-168 250.5,-136 367.75,-136 367.75,-168"/>
<text xml:space="preserve" text-anchor="start" x="258.5" y="-154.5" font-family="Helvetica,sans-Serif" font-size="10.00">components/renderable</text>
<text xml:space="preserve" text-anchor="middle" x="309.12" y="-142.5" font-family="Helvetica,sans-Serif" font-size="10.00">/src/Renderable.hpp</text>
</a>
</g>
</g>
<!-- Node1&#45;&gt;Node16 -->
<g id="edge19_Node000001_Node000016" class="edge">
<title>Node1&#45;&gt;Node16</title>
<g id="a_edge19_Node000001_Node000016"><a xlink:title=" ">
<path fill="none" stroke="#63b8ff" d="M355.68,-195.98C346.27,-187.29 334.92,-176.81 325.78,-168.37"/>
<polygon fill="#63b8ff" stroke="#63b8ff" points="353.13,-198.39 362.86,-202.6 357.88,-193.24 353.13,-198.39"/>
</a>
</g>
</g>
<!-- Node19 -->
<g id="Node000019" class="node">
<title>Node19</title>
<g id="a_Node000019"><a xlink:href="Text_8hpp.html" target="_top" xlink:title=" ">
<polygon fill="white" stroke="#666666" points="615.75,-168 510.5,-168 510.5,-136 615.75,-136 615.75,-168"/>
<text xml:space="preserve" text-anchor="start" x="518.5" y="-154.5" font-family="Helvetica,sans-Serif" font-size="10.00">components/text/src</text>
<text xml:space="preserve" text-anchor="middle" x="563.12" y="-142.5" font-family="Helvetica,sans-Serif" font-size="10.00">/Text.hpp</text>
</a>
</g>
</g>
<!-- Node1&#45;&gt;Node19 -->
<g id="edge27_Node000001_Node000019" class="edge">
<title>Node1&#45;&gt;Node19</title>
<g id="a_edge27_Node000001_Node000019"><a xlink:title=" ">
<path fill="none" stroke="#63b8ff" d="M414.31,-200.24C443.54,-190.96 483.27,-178.35 514.33,-168.49"/>
<polygon fill="#63b8ff" stroke="#63b8ff" points="413.57,-196.81 405.1,-203.17 415.69,-203.48 413.57,-196.81"/>
</a>
</g>
</g>
<!-- Node3 -->
<g id="Node000003" class="node">
<title>Node3</title>
<g id="a_Node000003"><a xlink:href="FPInputHandler_8hpp.html" target="_top" xlink:title=" ">
<polygon fill="white" stroke="#666666" points="501.5,-100 376.75,-100 376.75,-68 501.5,-68 501.5,-100"/>
<text xml:space="preserve" text-anchor="start" x="384.75" y="-86.5" font-family="Helvetica,sans-Serif" font-size="10.00">systems/FPInputHandler</text>
<text xml:space="preserve" text-anchor="middle" x="439.12" y="-74.5" font-family="Helvetica,sans-Serif" font-size="10.00">/src/FPInputHandler.hpp</text>
</a>
</g>
</g>
<!-- Node2&#45;&gt;Node3 -->
<g id="edge2_Node000002_Node000003" class="edge">
<title>Node2&#45;&gt;Node3</title>
<g id="a_edge2_Node000002_Node000003"><a xlink:title=" ">
<path fill="none" stroke="#63b8ff" d="M243.97,-134.92C284.98,-124.43 338.2,-110.82 378.71,-100.46"/>
<polygon fill="#63b8ff" stroke="#63b8ff" points="243.31,-131.48 234.49,-137.35 245.05,-138.26 243.31,-131.48"/>
</a>
</g>
</g>
<!-- Node5 -->
<g id="Node000005" class="node">
<title>Node5</title>
<g id="a_Node000005"><a xlink:href="Collision_8hpp.html" target="_top" xlink:title=" ">
<polygon fill="white" stroke="#666666" points="108.25,-100 0,-100 0,-68 108.25,-68 108.25,-100"/>
<text xml:space="preserve" text-anchor="start" x="8" y="-86.5" font-family="Helvetica,sans-Serif" font-size="10.00">systems/collision/src</text>
<text xml:space="preserve" text-anchor="middle" x="54.12" y="-74.5" font-family="Helvetica,sans-Serif" font-size="10.00">/Collision.hpp</text>
</a>
</g>
</g>
<!-- Node2&#45;&gt;Node5 -->
<g id="edge4_Node000002_Node000005" class="edge">
<title>Node2&#45;&gt;Node5</title>
<g id="a_edge4_Node000002_Node000005"><a xlink:title=" ">
<path fill="none" stroke="#63b8ff" d="M141.37,-130.34C122.72,-120.65 100.88,-109.3 83.71,-100.38"/>
<polygon fill="#63b8ff" stroke="#63b8ff" points="139.52,-133.32 150.01,-134.83 142.75,-127.11 139.52,-133.32"/>
</a>
</g>
</g>
<!-- Node7 -->
<g id="Node000007" class="node">
<title>Node7</title>
<g id="a_Node000007"><a xlink:href="InputHandler_8hpp.html" target="_top" xlink:title=" ">
<polygon fill="white" stroke="#666666" points="237.75,-100 126.5,-100 126.5,-68 237.75,-68 237.75,-100"/>
<text xml:space="preserve" text-anchor="start" x="134.5" y="-86.5" font-family="Helvetica,sans-Serif" font-size="10.00">systems/inputHandler</text>
<text xml:space="preserve" text-anchor="middle" x="182.12" y="-74.5" font-family="Helvetica,sans-Serif" font-size="10.00">/src/InputHandler.hpp</text>
</a>
</g>
</g>
<!-- Node2&#45;&gt;Node7 -->
<g id="edge6_Node000002_Node000007" class="edge">
<title>Node2&#45;&gt;Node7</title>
<g id="a_edge6_Node000002_Node000007"><a xlink:title=" ">
<path fill="none" stroke="#63b8ff" d="M181.53,-124.31C181.65,-116.12 181.79,-107.38 181.89,-100.22"/>
<polygon fill="#63b8ff" stroke="#63b8ff" points="178.03,-124.13 181.38,-134.18 185.03,-124.23 178.03,-124.13"/>
</a>
</g>
</g>
<!-- Node9 -->
<g id="Node000009" class="node">
<title>Node9</title>
<g id="a_Node000009"><a xlink:href="Motion_8hpp.html" target="_top" xlink:title=" ">
<polygon fill="white" stroke="#666666" points="358.25,-100 256,-100 256,-68 358.25,-68 358.25,-100"/>
<text xml:space="preserve" text-anchor="start" x="264" y="-86.5" font-family="Helvetica,sans-Serif" font-size="10.00">systems/motion/src</text>
<text xml:space="preserve" text-anchor="middle" x="307.12" y="-74.5" font-family="Helvetica,sans-Serif" font-size="10.00">/Motion.hpp</text>
</a>
</g>
</g>
<!-- Node2&#45;&gt;Node9 -->
<g id="edge8_Node000002_Node000009" class="edge">
<title>Node2&#45;&gt;Node9</title>
<g id="a_edge8_Node000002_Node000009"><a xlink:title=" ">
<path fill="none" stroke="#63b8ff" d="M220.83,-130.2C239.27,-120.54 260.82,-109.26 277.77,-100.38"/>
<polygon fill="#63b8ff" stroke="#63b8ff" points="219.24,-127.08 212.01,-134.82 222.49,-133.28 219.24,-127.08"/>
</a>
</g>
</g>
<!-- Node4 -->
<g id="Node000004" class="node">
<title>Node4</title>
<g id="a_Node000004"><a xlink:href="FPInputHandler_8cpp.html" target="_top" xlink:title=" ">
<polygon fill="white" stroke="#666666" points="501.5,-32 376.75,-32 376.75,0 501.5,0 501.5,-32"/>
<text xml:space="preserve" text-anchor="start" x="384.75" y="-18.5" font-family="Helvetica,sans-Serif" font-size="10.00">systems/FPInputHandler</text>
<text xml:space="preserve" text-anchor="middle" x="439.12" y="-6.5" font-family="Helvetica,sans-Serif" font-size="10.00">/src/FPInputHandler.cpp</text>
</a>
</g>
</g>
<!-- Node3&#45;&gt;Node4 -->
<g id="edge3_Node000003_Node000004" class="edge">
<title>Node3&#45;&gt;Node4</title>
<g id="a_edge3_Node000003_Node000004"><a xlink:title=" ">
<path fill="none" stroke="#63b8ff" d="M439.12,-56.31C439.12,-48.12 439.12,-39.38 439.12,-32.22"/>
<polygon fill="#63b8ff" stroke="#63b8ff" points="435.63,-56.18 439.13,-66.18 442.63,-56.18 435.63,-56.18"/>
</a>
</g>
</g>
<!-- Node6 -->
<g id="Node000006" class="node">
<title>Node6</title>
<g id="a_Node000006"><a xlink:href="Collision_8cpp.html" target="_top" xlink:title=" ">
<polygon fill="white" stroke="#666666" points="108.25,-32 0,-32 0,0 108.25,0 108.25,-32"/>
<text xml:space="preserve" text-anchor="start" x="8" y="-18.5" font-family="Helvetica,sans-Serif" font-size="10.00">systems/collision/src</text>
<text xml:space="preserve" text-anchor="middle" x="54.12" y="-6.5" font-family="Helvetica,sans-Serif" font-size="10.00">/Collision.cpp</text>
</a>
</g>
</g>
<!-- Node5&#45;&gt;Node6 -->
<g id="edge5_Node000005_Node000006" class="edge">
<title>Node5&#45;&gt;Node6</title>
<g id="a_edge5_Node000005_Node000006"><a xlink:title=" ">
<path fill="none" stroke="#63b8ff" d="M54.12,-56.31C54.12,-48.12 54.12,-39.38 54.12,-32.22"/>
<polygon fill="#63b8ff" stroke="#63b8ff" points="50.63,-56.18 54.13,-66.18 57.63,-56.18 50.63,-56.18"/>
</a>
</g>
</g>
<!-- Node8 -->
<g id="Node000008" class="node">
<title>Node8</title>
<g id="a_Node000008"><a xlink:href="InputHandler_8cpp.html" target="_top" xlink:title=" ">
<polygon fill="white" stroke="#666666" points="237.75,-32 126.5,-32 126.5,0 237.75,0 237.75,-32"/>
<text xml:space="preserve" text-anchor="start" x="134.5" y="-18.5" font-family="Helvetica,sans-Serif" font-size="10.00">systems/inputHandler</text>
<text xml:space="preserve" text-anchor="middle" x="182.12" y="-6.5" font-family="Helvetica,sans-Serif" font-size="10.00">/src/InputHandler.cpp</text>
</a>
</g>
</g>
<!-- Node7&#45;&gt;Node8 -->
<g id="edge7_Node000007_Node000008" class="edge">
<title>Node7&#45;&gt;Node8</title>
<g id="a_edge7_Node000007_Node000008"><a xlink:title=" ">
<path fill="none" stroke="#63b8ff" d="M182.12,-56.31C182.12,-48.12 182.12,-39.38 182.12,-32.22"/>
<polygon fill="#63b8ff" stroke="#63b8ff" points="178.63,-56.18 182.13,-66.18 185.63,-56.18 178.63,-56.18"/>
</a>
</g>
</g>
<!-- Node10 -->
<g id="Node000010" class="node">
<title>Node10</title>
<g id="a_Node000010"><a xlink:href="Motion_8cpp.html" target="_top" xlink:title=" ">
<polygon fill="white" stroke="#666666" points="358.25,-32 256,-32 256,0 358.25,0 358.25,-32"/>
<text xml:space="preserve" text-anchor="start" x="264" y="-18.5" font-family="Helvetica,sans-Serif" font-size="10.00">systems/motion/src</text>
<text xml:space="preserve" text-anchor="middle" x="307.12" y="-6.5" font-family="Helvetica,sans-Serif" font-size="10.00">/Motion.cpp</text>
</a>
</g>
</g>
<!-- Node9&#45;&gt;Node10 -->
<g id="edge9_Node000009_Node000010" class="edge">
<title>Node9&#45;&gt;Node10</title>
<g id="a_edge9_Node000009_Node000010"><a xlink:title=" ">
<path fill="none" stroke="#63b8ff" d="M307.12,-56.31C307.12,-48.12 307.12,-39.38 307.12,-32.22"/>
<polygon fill="#63b8ff" stroke="#63b8ff" points="303.63,-56.18 307.13,-66.18 310.63,-56.18 303.63,-56.18"/>
</a>
</g>
</g>
<!-- Node11&#45;&gt;Node3 -->
<g id="edge11_Node000011_Node000003" class="edge">
<title>Node11&#45;&gt;Node3</title>
<g id="a_edge11_Node000011_Node000003"><a xlink:title=" ">
<path fill="none" stroke="#63b8ff" d="M439.12,-124.31C439.12,-116.12 439.12,-107.38 439.12,-100.22"/>
<polygon fill="#63b8ff" stroke="#63b8ff" points="435.63,-124.18 439.13,-134.18 442.63,-124.18 435.63,-124.18"/>
</a>
</g>
</g>
<!-- Node11&#45;&gt;Node5 -->
<g id="edge14_Node000011_Node000005" class="edge">
<title>Node11&#45;&gt;Node5</title>
<g id="a_edge14_Node000011_Node000005"><a xlink:title=" ">
<path fill="none" stroke="#63b8ff" d="M374.47,-135.62C260.51,-114.68 228.2,-120.86 117.12,-100 114.36,-99.48 111.54,-98.92 108.69,-98.33"/>
<polygon fill="#63b8ff" stroke="#63b8ff" points="373.8,-139.05 384.28,-137.45 375.09,-132.17 373.8,-139.05"/>
</a>
</g>
</g>
<!-- Node11&#45;&gt;Node7 -->
<g id="edge17_Node000011_Node000007" class="edge">
<title>Node11&#45;&gt;Node7</title>
<g id="a_edge17_Node000011_Node000007"><a xlink:title=" ">
<path fill="none" stroke="#63b8ff" d="M374.9,-134.51C332.79,-123.69 278.28,-109.69 237.97,-99.34"/>
<polygon fill="#63b8ff" stroke="#63b8ff" points="373.85,-137.85 384.41,-136.95 375.59,-131.07 373.85,-137.85"/>
</a>
</g>
</g>
<!-- Node11&#45;&gt;Node9 -->
<g id="edge18_Node000011_Node000009" class="edge">
<title>Node11&#45;&gt;Node9</title>
<g id="a_edge18_Node000011_Node000009"><a xlink:title=" ">
<path fill="none" stroke="#63b8ff" d="M398.07,-130.47C378.63,-120.75 355.8,-109.34 337.88,-100.38"/>
<polygon fill="#63b8ff" stroke="#63b8ff" points="396.31,-133.51 406.82,-134.85 399.44,-127.25 396.31,-133.51"/>
</a>
</g>
</g>
<!-- Node12 -->
<g id="Node000012" class="node">
<title>Node12</title>
<g id="a_Node000012"><a xlink:href="FPMotion_8hpp.html" target="_top" xlink:title=" ">
<polygon fill="white" stroke="#666666" points="767.62,-100 652.62,-100 652.62,-68 767.62,-68 767.62,-100"/>
<text xml:space="preserve" text-anchor="start" x="660.62" y="-86.5" font-family="Helvetica,sans-Serif" font-size="10.00">systems/FPMotion/src</text>
<text xml:space="preserve" text-anchor="middle" x="710.12" y="-74.5" font-family="Helvetica,sans-Serif" font-size="10.00">/FPMotion.hpp</text>
</a>
</g>
</g>
<!-- Node11&#45;&gt;Node12 -->
<g id="edge12_Node000011_Node000012" class="edge">
<title>Node11&#45;&gt;Node12</title>
<g id="a_edge12_Node000011_Node000012"><a xlink:title=" ">
<path fill="none" stroke="#63b8ff" d="M503.5,-135.32C548.71,-124.31 608.66,-109.71 652.34,-99.07"/>
<polygon fill="#63b8ff" stroke="#63b8ff" points="502.7,-131.91 493.81,-137.68 504.36,-138.72 502.7,-131.91"/>
</a>
</g>
</g>
<!-- Node14 -->
<g id="Node000014" class="node">
<title>Node14</title>
<g id="a_Node000014"><a xlink:href="DomainHandler_8hpp.html" target="_top" xlink:title=" ">
<polygon fill="white" stroke="#666666" points="907,-100 785.25,-100 785.25,-68 907,-68 907,-100"/>
<text xml:space="preserve" text-anchor="start" x="793.25" y="-86.5" font-family="Helvetica,sans-Serif" font-size="10.00">systems/domainHandler</text>
<text xml:space="preserve" text-anchor="middle" x="846.12" y="-74.5" font-family="Helvetica,sans-Serif" font-size="10.00">/src/DomainHandler.hpp</text>
</a>
</g>
</g>
<!-- Node11&#45;&gt;Node14 -->
<g id="edge15_Node000011_Node000014" class="edge">
<title>Node11&#45;&gt;Node14</title>
<g id="a_edge15_Node000011_Node000014"><a xlink:title=" ">
<path fill="none" stroke="#63b8ff" d="M503.68,-135.65C624.73,-113.85 658.81,-120.54 777.12,-100 779.66,-99.56 782.25,-99.09 784.85,-98.6"/>
<polygon fill="#63b8ff" stroke="#63b8ff" points="503.17,-132.19 493.97,-137.43 504.44,-139.07 503.17,-132.19"/>
</a>
</g>
</g>
<!-- Node13 -->
<g id="Node000013" class="node">
<title>Node13</title>
<g id="a_Node000013"><a xlink:href="FPMotion_8cpp.html" target="_top" xlink:title=" ">
<polygon fill="white" stroke="#666666" points="767.62,-32 652.62,-32 652.62,0 767.62,0 767.62,-32"/>
<text xml:space="preserve" text-anchor="start" x="660.62" y="-18.5" font-family="Helvetica,sans-Serif" font-size="10.00">systems/FPMotion/src</text>
<text xml:space="preserve" text-anchor="middle" x="710.12" y="-6.5" font-family="Helvetica,sans-Serif" font-size="10.00">/FPMotion.cpp</text>
</a>
</g>
</g>
<!-- Node12&#45;&gt;Node13 -->
<g id="edge13_Node000012_Node000013" class="edge">
<title>Node12&#45;&gt;Node13</title>
<g id="a_edge13_Node000012_Node000013"><a xlink:title=" ">
<path fill="none" stroke="#63b8ff" d="M710.12,-56.31C710.12,-48.12 710.12,-39.38 710.12,-32.22"/>
<polygon fill="#63b8ff" stroke="#63b8ff" points="706.63,-56.18 710.13,-66.18 713.63,-56.18 706.63,-56.18"/>
</a>
</g>
</g>
<!-- Node15 -->
<g id="Node000015" class="node">
<title>Node15</title>
<g id="a_Node000015"><a xlink:href="DomainHandler_8cpp.html" target="_top" xlink:title=" ">
<polygon fill="white" stroke="#666666" points="907,-32 785.25,-32 785.25,0 907,0 907,-32"/>
<text xml:space="preserve" text-anchor="start" x="793.25" y="-18.5" font-family="Helvetica,sans-Serif" font-size="10.00">systems/domainHandler</text>
<text xml:space="preserve" text-anchor="middle" x="846.12" y="-6.5" font-family="Helvetica,sans-Serif" font-size="10.00">/src/DomainHandler.cpp</text>
</a>
</g>
</g>
<!-- Node14&#45;&gt;Node15 -->
<g id="edge16_Node000014_Node000015" class="edge">
<title>Node14&#45;&gt;Node15</title>
<g id="a_edge16_Node000014_Node000015"><a xlink:title=" ">
<path fill="none" stroke="#63b8ff" d="M846.12,-56.31C846.12,-48.12 846.12,-39.38 846.12,-32.22"/>
<polygon fill="#63b8ff" stroke="#63b8ff" points="842.63,-56.18 846.13,-66.18 849.63,-56.18 842.63,-56.18"/>
</a>
</g>
</g>
<!-- Node16&#45;&gt;Node3 -->
<g id="edge20_Node000016_Node000003" class="edge">
<title>Node16&#45;&gt;Node3</title>
<g id="a_edge20_Node000016_Node000003"><a xlink:title=" ">
<path fill="none" stroke="#63b8ff" d="M349.82,-130.34C368.91,-120.65 391.27,-109.3 408.84,-100.38"/>
<polygon fill="#63b8ff" stroke="#63b8ff" points="348.29,-127.19 340.95,-134.84 351.45,-133.43 348.29,-127.19"/>
</a>
</g>
</g>
<!-- Node16&#45;&gt;Node5 -->
<g id="edge24_Node000016_Node000005" class="edge">
<title>Node16&#45;&gt;Node5</title>
<g id="a_edge24_Node000016_Node000005"><a xlink:title=" ">
<path fill="none" stroke="#63b8ff" d="M239.26,-132.92C198.14,-122.27 146.88,-109.01 108.73,-99.13"/>
<polygon fill="#63b8ff" stroke="#63b8ff" points="238.28,-136.28 248.84,-135.4 240.03,-129.5 238.28,-136.28"/>
</a>
</g>
</g>
<!-- Node16&#45;&gt;Node7 -->
<g id="edge25_Node000016_Node000007" class="edge">
<title>Node16&#45;&gt;Node7</title>
<g id="a_edge25_Node000016_Node000007"><a xlink:title=" ">
<path fill="none" stroke="#63b8ff" d="M269.37,-130.34C250.72,-120.65 228.88,-109.3 211.71,-100.38"/>
<polygon fill="#63b8ff" stroke="#63b8ff" points="267.52,-133.32 278.01,-134.83 270.75,-127.11 267.52,-133.32"/>
</a>
</g>
</g>
<!-- Node16&#45;&gt;Node9 -->
<g id="edge26_Node000016_Node000009" class="edge">
<title>Node16&#45;&gt;Node9</title>
<g id="a_edge26_Node000016_Node000009"><a xlink:title=" ">
<path fill="none" stroke="#63b8ff" d="M308.32,-124.31C308.07,-116.12 307.8,-107.38 307.59,-100.22"/>
<polygon fill="#63b8ff" stroke="#63b8ff" points="304.81,-124.29 308.62,-134.18 311.81,-124.08 304.81,-124.29"/>
</a>
</g>
</g>
<!-- Node16&#45;&gt;Node12 -->
<g id="edge21_Node000016_Node000012" class="edge">
<title>Node16&#45;&gt;Node12</title>
<g id="a_edge21_Node000016_Node000012"><a xlink:title=" ">
<path fill="none" stroke="#63b8ff" d="M379.31,-135.72C497,-115.44 529.86,-120.65 644.12,-100 646.78,-99.52 649.5,-99 652.24,-98.46"/>
<polygon fill="#63b8ff" stroke="#63b8ff" points="378.77,-132.26 369.53,-137.43 379.98,-139.15 378.77,-132.26"/>
</a>
</g>
</g>
<!-- Node17 -->
<g id="Node000017" class="node">
<title>Node17</title>
<g id="a_Node000017"><a xlink:href="Animation_8hpp.html" target="_top" xlink:title=" ">
<polygon fill="white" stroke="#666666" points="634.62,-100 519.62,-100 519.62,-68 634.62,-68 634.62,-100"/>
<text xml:space="preserve" text-anchor="start" x="527.62" y="-86.5" font-family="Helvetica,sans-Serif" font-size="10.00">systems/animation/src</text>
<text xml:space="preserve" text-anchor="middle" x="577.12" y="-74.5" font-family="Helvetica,sans-Serif" font-size="10.00">/Animation.hpp</text>
</a>
</g>
</g>
<!-- Node16&#45;&gt;Node17 -->
<g id="edge22_Node000016_Node000017" class="edge">
<title>Node16&#45;&gt;Node17</title>
<g id="a_edge22_Node000016_Node000017"><a xlink:title=" ">
<path fill="none" stroke="#63b8ff" d="M379.05,-133.78C422.71,-123.03 478.22,-109.36 519.37,-99.22"/>
<polygon fill="#63b8ff" stroke="#63b8ff" points="378.28,-130.36 369.41,-136.15 379.96,-137.16 378.28,-130.36"/>
</a>
</g>
</g>
<!-- Node18 -->
<g id="Node000018" class="node">
<title>Node18</title>
<g id="a_Node000018"><a xlink:href="Animation_8cpp.html" target="_top" xlink:title=" ">
<polygon fill="white" stroke="#666666" points="634.62,-32 519.62,-32 519.62,0 634.62,0 634.62,-32"/>
<text xml:space="preserve" text-anchor="start" x="527.62" y="-18.5" font-family="Helvetica,sans-Serif" font-size="10.00">systems/animation/src</text>
<text xml:space="preserve" text-anchor="middle" x="577.12" y="-6.5" font-family="Helvetica,sans-Serif" font-size="10.00">/Animation.cpp</text>
</a>
</g>
</g>
<!-- Node17&#45;&gt;Node18 -->
<g id="edge23_Node000017_Node000018" class="edge">
<title>Node17&#45;&gt;Node18</title>
<g id="a_edge23_Node000017_Node000018"><a xlink:title=" ">
<path fill="none" stroke="#63b8ff" d="M577.12,-56.31C577.12,-48.12 577.12,-39.38 577.12,-32.22"/>
<polygon fill="#63b8ff" stroke="#63b8ff" points="573.63,-56.18 577.13,-66.18 580.63,-56.18 573.63,-56.18"/>
</a>
</g>
</g>
</g>
</svg>
