<?xml version="1.0" encoding="UTF-8" standalone="no"?>
<!DOCTYPE svg PUBLIC "-//W3C//DTD SVG 1.1//EN"
 "http://www.w3.org/Graphics/SVG/1.1/DTD/svg11.dtd">
<!-- Generated by graphviz version 14.0.1 (0)
 -->
<!-- Title: ecs/utils.hpp Pages: 1 -->
<svg width="372pt" height="164pt"
 viewBox="0.00 0.00 372.00 164.00" xmlns="http://www.w3.org/2000/svg" xmlns:xlink="http://www.w3.org/1999/xlink">
<g id="graph0" class="graph" transform="scale(1 1) rotate(0) translate(4 160)">
<title>ecs/utils.hpp</title>
<!-- Node1 -->
<g id="Node000001" class="node">
<title>Node1</title>
<g id="a_Node000001"><a xlink:title=" ">
<polygon fill="#999999" stroke="#666666" points="216.38,-156 144.88,-156 144.88,-136 216.38,-136 216.38,-156"/>
<text xml:space="preserve" text-anchor="middle" x="180.62" y="-142.5" font-family="Helvetica,sans-Serif" font-size="10.00">ecs/utils.hpp</text>
</a>
</g>
</g>
<!-- Node2 -->
<g id="Node000002" class="node">
<title>Node2</title>
<g id="a_Node000002"><a xlink:href="Collider_8hpp.html" target="_top" xlink:title=" ">
<polygon fill="white" stroke="#666666" points="104.12,-100 1.12,-100 1.12,-68 104.12,-68 104.12,-100"/>
<text xml:space="preserve" text-anchor="start" x="9.12" y="-86.5" font-family="Helvetica,sans-Serif" font-size="10.00">components/collider</text>
<text xml:space="preserve" text-anchor="middle" x="52.62" y="-74.5" font-family="Helvetica,sans-Serif" font-size="10.00">/src/Collider.hpp</text>
</a>
</g>
</g>
<!-- Node1&#45;&gt;Node2 -->
<g id="edge1_Node000001_Node000002" class="edge">
<title>Node1&#45;&gt;Node2</title>
<g id="a_edge1_Node000001_Node000002"><a xlink:title=" ">
<path fill="none" stroke="#63b8ff" d="M150.45,-130.85C130.91,-121.69 105.46,-109.77 85.42,-100.37"/>
<polygon fill="#63b8ff" stroke="#63b8ff" points="148.71,-133.91 159.25,-134.98 151.69,-127.57 148.71,-133.91"/>
</a>
</g>
</g>
<!-- Node5 -->
<g id="Node000005" class="node">
<title>Node5</title>
<g id="a_Node000005"><a xlink:href="Position_8hpp.html" target="_top" xlink:title=" ">
<polygon fill="white" stroke="#666666" points="363.62,-100 257.62,-100 257.62,-68 363.62,-68 363.62,-100"/>
<text xml:space="preserve" text-anchor="start" x="265.62" y="-86.5" font-family="Helvetica,sans-Serif" font-size="10.00">components/position</text>
<text xml:space="preserve" text-anchor="middle" x="310.62" y="-74.5" font-family="Helvetica,sans-Serif" font-size="10.00">/src/Position.hpp</text>
</a>
</g>
</g>
<!-- Node1&#45;&gt;Node5 -->
<g id="edge4_Node000001_Node000005" class="edge">
<title>Node1&#45;&gt;Node5</title>
<g id="a_edge4_Node000001_Node000005"><a xlink:title=" ">
<path fill="none" stroke="#63b8ff" d="M211.24,-130.87C231,-121.75 256.74,-109.87 277.06,-100.49"/>
<polygon fill="#63b8ff" stroke="#63b8ff" points="209.92,-127.62 202.31,-134.99 212.86,-133.98 209.92,-127.62"/>
</a>
</g>
</g>
<!-- Node7 -->
<g id="Node000007" class="node">
<title>Node7</title>
<g id="a_Node000007"><a xlink:href="Renderable_8hpp.html" target="_top" xlink:title=" ">
<polygon fill="white" stroke="#666666" points="239.25,-100 122,-100 122,-68 239.25,-68 239.25,-100"/>
<text xml:space="preserve" text-anchor="start" x="130" y="-86.5" font-family="Helvetica,sans-Serif" font-size="10.00">components/renderable</text>
<text xml:space="preserve" text-anchor="middle" x="180.62" y="-74.5" font-family="Helvetica,sans-Serif" font-size="10.00">/src/Renderable.hpp</text>
</a>
</g>
</g>
<!-- Node1&#45;&gt;Node7 -->
<g id="edge8_Node000001_Node000007" class="edge">
<title>Node1&#45;&gt;Node7</title>
<g id="a_edge8_Node000001_Node000007"><a xlink:title=" ">
<path fill="none" stroke="#63b8ff" d="M180.62,-124.31C180.62,-116.37 180.62,-107.46 180.62,-100.14"/>
<polygon fill="#63b8ff" stroke="#63b8ff" points="177.13,-124.11 180.63,-134.11 184.13,-124.11 177.13,-124.11"/>
</a>
</g>
</g>
<!-- Node3 -->
<g id="Node000003" class="node">
<title>Node3</title>
<g id="a_Node000003"><a xlink:href="Collision_8hpp.html" target="_top" xlink:title=" ">
<polygon fill="white" stroke="#666666" points="237.75,-32 129.5,-32 129.5,0 237.75,0 237.75,-32"/>
<text xml:space="preserve" text-anchor="start" x="137.5" y="-18.5" font-family="Helvetica,sans-Serif" font-size="10.00">systems/collision/src</text>
<text xml:space="preserve" text-anchor="middle" x="183.62" y="-6.5" font-family="Helvetica,sans-Serif" font-size="10.00">/Collision.hpp</text>
</a>
</g>
</g>
<!-- Node2&#45;&gt;Node3 -->
<g id="edge2_Node000002_Node000003" class="edge">
<title>Node2&#45;&gt;Node3</title>
<g id="a_edge2_Node000002_Node000003"><a xlink:title=" ">
<path fill="none" stroke="#63b8ff" d="M93.37,-62.47C112.66,-52.75 135.32,-41.34 153.1,-32.38"/>
<polygon fill="#63b8ff" stroke="#63b8ff" points="92.05,-59.22 84.69,-66.84 95.2,-65.47 92.05,-59.22"/>
</a>
</g>
</g>
<!-- Node4 -->
<g id="Node000004" class="node">
<title>Node4</title>
<g id="a_Node000004"><a xlink:href="InputHandler_8hpp.html" target="_top" xlink:title=" ">
<polygon fill="white" stroke="#666666" points="111.25,-32 0,-32 0,0 111.25,0 111.25,-32"/>
<text xml:space="preserve" text-anchor="start" x="8" y="-18.5" font-family="Helvetica,sans-Serif" font-size="10.00">systems/inputHandler</text>
<text xml:space="preserve" text-anchor="middle" x="55.62" y="-6.5" font-family="Helvetica,sans-Serif" font-size="10.00">/src/InputHandler.hpp</text>
</a>
</g>
</g>
<!-- Node2&#45;&gt;Node4 -->
<g id="edge3_Node000002_Node000004" class="edge">
<title>Node2&#45;&gt;Node4</title>
<g id="a_edge3_Node000002_Node000004"><a xlink:title=" ">
<path fill="none" stroke="#63b8ff" d="M53.84,-56.31C54.21,-48.12 54.61,-39.38 54.93,-32.22"/>
<polygon fill="#63b8ff" stroke="#63b8ff" points="50.35,-56.03 53.39,-66.18 57.34,-56.35 50.35,-56.03"/>
</a>
</g>
</g>
<!-- Node5&#45;&gt;Node3 -->
<g id="edge5_Node000005_Node000003" class="edge">
<title>Node5&#45;&gt;Node3</title>
<g id="a_edge5_Node000005_Node000003"><a xlink:title=" ">
<path fill="none" stroke="#63b8ff" d="M270.87,-62.34C252.22,-52.65 230.38,-41.3 213.21,-32.38"/>
<polygon fill="#63b8ff" stroke="#63b8ff" points="269.02,-65.32 279.51,-66.83 272.25,-59.11 269.02,-65.32"/>
</a>
</g>
</g>
<!-- Node5&#45;&gt;Node4 -->
<g id="edge6_Node000005_Node000004" class="edge">
<title>Node5&#45;&gt;Node4</title>
<g id="a_edge6_Node000005_Node000004"><a xlink:title=" ">
<path fill="none" stroke="#63b8ff" d="M246.09,-66.3C204.63,-55.57 151.33,-41.77 111.66,-31.5"/>
<polygon fill="#63b8ff" stroke="#63b8ff" points="245.15,-69.67 255.7,-68.78 246.9,-62.89 245.15,-69.67"/>
</a>
</g>
</g>
<!-- Node6 -->
<g id="Node000006" class="node">
<title>Node6</title>
<g id="a_Node000006"><a xlink:href="Motion_8hpp.html" target="_top" xlink:title=" ">
<polygon fill="white" stroke="#666666" points="359.75,-32 257.5,-32 257.5,0 359.75,0 359.75,-32"/>
<text xml:space="preserve" text-anchor="start" x="265.5" y="-18.5" font-family="Helvetica,sans-Serif" font-size="10.00">systems/motion/src</text>
<text xml:space="preserve" text-anchor="middle" x="308.62" y="-6.5" font-family="Helvetica,sans-Serif" font-size="10.00">/Motion.hpp</text>
</a>
</g>
</g>
<!-- Node5&#45;&gt;Node6 -->
<g id="edge7_Node000005_Node000006" class="edge">
<title>Node5&#45;&gt;Node6</title>
<g id="a_edge7_Node000005_Node000006"><a xlink:title=" ">
<path fill="none" stroke="#63b8ff" d="M309.82,-56.31C309.57,-48.12 309.3,-39.38 309.09,-32.22"/>
<polygon fill="#63b8ff" stroke="#63b8ff" points="306.31,-56.29 310.12,-66.18 313.31,-56.08 306.31,-56.29"/>
</a>
</g>
</g>
<!-- Node7&#45;&gt;Node3 -->
<g id="edge9_Node000007_Node000003" class="edge">
<title>Node7&#45;&gt;Node3</title>
<g id="a_edge9_Node000007_Node000003"><a xlink:title=" ">
<path fill="none" stroke="#63b8ff" d="M181.84,-56.31C182.21,-48.12 182.61,-39.38 182.93,-32.22"/>
<polygon fill="#63b8ff" stroke="#63b8ff" points="178.35,-56.03 181.39,-66.18 185.34,-56.35 178.35,-56.03"/>
</a>
</g>
</g>
<!-- Node7&#45;&gt;Node4 -->
<g id="edge10_Node000007_Node000004" class="edge">
<title>Node7&#45;&gt;Node4</title>
<g id="a_edge10_Node000007_Node000004"><a xlink:title=" ">
<path fill="none" stroke="#63b8ff" d="M141.24,-62.2C122.94,-52.54 101.56,-41.26 84.75,-32.38"/>
<polygon fill="#63b8ff" stroke="#63b8ff" points="139.5,-65.25 149.98,-66.82 142.77,-59.05 139.5,-65.25"/>
</a>
</g>
</g>
<!-- Node7&#45;&gt;Node6 -->
<g id="edge11_Node000007_Node000006" class="edge">
<title>Node7&#45;&gt;Node6</title>
<g id="a_edge11_Node000007_Node000006"><a xlink:title=" ">
<path fill="none" stroke="#63b8ff" d="M220.7,-62.34C239.49,-52.65 261.5,-41.3 278.8,-32.38"/>
<polygon fill="#63b8ff" stroke="#63b8ff" points="219.26,-59.14 211.98,-66.83 222.47,-65.36 219.26,-59.14"/>
</a>
</g>
</g>
</g>
</svg>
