<?xml version="1.0" encoding="UTF-8" standalone="no"?>
<!DOCTYPE svg PUBLIC "-//W3C//DTD SVG 1.1//EN"
 "http://www.w3.org/Graphics/SVG/1.1/DTD/svg11.dtd">
<!-- Generated by graphviz version 14.0.2 (0)
 -->
<!-- Title: ecs/utils.hpp Pages: 1 -->
<svg width="914pt" height="232pt"
 viewBox="0.00 0.00 914.00 232.00" xmlns="http://www.w3.org/2000/svg" xmlns:xlink="http://www.w3.org/1999/xlink">
<g id="graph0" class="graph" transform="scale(1 1) rotate(0) translate(4 228)">
<title>ecs/utils.hpp</title>
<!-- Node1 -->
<g id="Node000001" class="node">
<title>Node1</title>
<g id="a_Node000001"><a xlink:title=" ">
<polygon fill="#999999" stroke="#666666" points="553.25,-224 481.75,-224 481.75,-204 553.25,-204 553.25,-224"/>
<text xml:space="preserve" text-anchor="middle" x="517.5" y="-210.5" font-family="Helvetica,sans-Serif" font-size="10.00">ecs/utils.hpp</text>
</a>
</g>
</g>
<!-- Node2 -->
<g id="Node000002" class="node">
<title>Node2</title>
<g id="a_Node000002"><a xlink:href="Collider_8hpp.html" target="_top" xlink:title=" ">
<polygon fill="white" stroke="#666666" points="376,-168 273,-168 273,-136 376,-136 376,-168"/>
<text xml:space="preserve" text-anchor="start" x="281" y="-154.5" font-family="Helvetica,sans-Serif" font-size="10.00">components/collider</text>
<text xml:space="preserve" text-anchor="middle" x="324.5" y="-142.5" font-family="Helvetica,sans-Serif" font-size="10.00">/src/Collider.hpp</text>
</a>
</g>
</g>
<!-- Node1&#45;&gt;Node2 -->
<g id="edge1_Node000001_Node000002" class="edge">
<title>Node1&#45;&gt;Node2</title>
<g id="a_edge1_Node000001_Node000002"><a xlink:title=" ">
<path fill="none" stroke="#63b8ff" d="M476.47,-200.24C446.62,-190.96 406.04,-178.35 374.33,-168.49"/>
<polygon fill="#63b8ff" stroke="#63b8ff" points="475.31,-203.55 485.9,-203.18 477.39,-196.86 475.31,-203.55"/>
</a>
</g>
</g>
<!-- Node9 -->
<g id="Node000009" class="node">
<title>Node9</title>
<g id="a_Node000009"><a xlink:href="Position_8hpp.html" target="_top" xlink:title=" ">
<polygon fill="white" stroke="#666666" points="635.5,-168 529.5,-168 529.5,-136 635.5,-136 635.5,-168"/>
<text xml:space="preserve" text-anchor="start" x="537.5" y="-154.5" font-family="Helvetica,sans-Serif" font-size="10.00">components/position</text>
<text xml:space="preserve" text-anchor="middle" x="582.5" y="-142.5" font-family="Helvetica,sans-Serif" font-size="10.00">/src/Position.hpp</text>
</a>
</g>
</g>
<!-- Node1&#45;&gt;Node9 -->
<g id="edge8_Node000001_Node000009" class="edge">
<title>Node1&#45;&gt;Node9</title>
<g id="a_edge8_Node000001_Node000009"><a xlink:title=" ">
<path fill="none" stroke="#63b8ff" d="M535.94,-195.98C545.35,-187.29 556.71,-176.81 565.85,-168.37"/>
<polygon fill="#63b8ff" stroke="#63b8ff" points="533.74,-193.24 528.77,-202.6 538.49,-198.39 533.74,-193.24"/>
</a>
</g>
</g>
<!-- Node16 -->
<g id="Node000016" class="node">
<title>Node16</title>
<g id="a_Node000016"><a xlink:href="Renderable_8hpp.html" target="_top" xlink:title=" ">
<polygon fill="white" stroke="#666666" points="511.12,-168 393.88,-168 393.88,-136 511.12,-136 511.12,-168"/>
<text xml:space="preserve" text-anchor="start" x="401.88" y="-154.5" font-family="Helvetica,sans-Serif" font-size="10.00">components/renderable</text>
<text xml:space="preserve" text-anchor="middle" x="452.5" y="-142.5" font-family="Helvetica,sans-Serif" font-size="10.00">/src/Renderable.hpp</text>
</a>
</g>
</g>
<!-- Node1&#45;&gt;Node16 -->
<g id="edge18_Node000001_Node000016" class="edge">
<title>Node1&#45;&gt;Node16</title>
<g id="a_edge18_Node000001_Node000016"><a xlink:title=" ">
<path fill="none" stroke="#63b8ff" d="M499.06,-195.98C489.65,-187.29 478.29,-176.81 469.15,-168.37"/>
<polygon fill="#63b8ff" stroke="#63b8ff" points="496.51,-198.39 506.23,-202.6 501.26,-193.24 496.51,-198.39"/>
</a>
</g>
</g>
<!-- Node19 -->
<g id="Node000019" class="node">
<title>Node19</title>
<g id="a_Node000019"><a xlink:href="Text_8hpp.html" target="_top" xlink:title=" ">
<polygon fill="white" stroke="#666666" points="759.12,-168 653.88,-168 653.88,-136 759.12,-136 759.12,-168"/>
<text xml:space="preserve" text-anchor="start" x="661.88" y="-154.5" font-family="Helvetica,sans-Serif" font-size="10.00">components/text/src</text>
<text xml:space="preserve" text-anchor="middle" x="706.5" y="-142.5" font-family="Helvetica,sans-Serif" font-size="10.00">/Text.hpp</text>
</a>
</g>
</g>
<!-- Node1&#45;&gt;Node19 -->
<g id="edge26_Node000001_Node000019" class="edge">
<title>Node1&#45;&gt;Node19</title>
<g id="a_edge26_Node000001_Node000019"><a xlink:title=" ">
<path fill="none" stroke="#63b8ff" d="M557.68,-200.24C586.91,-190.96 626.65,-178.35 657.7,-168.49"/>
<polygon fill="#63b8ff" stroke="#63b8ff" points="556.95,-196.81 548.47,-203.17 559.06,-203.48 556.95,-196.81"/>
</a>
</g>
</g>
<!-- Node3 -->
<g id="Node000003" class="node">
<title>Node3</title>
<g id="a_Node000003"><a xlink:href="FPInputHandler_8hpp.html" target="_top" xlink:title=" ">
<polygon fill="white" stroke="#666666" points="386.88,-100 262.12,-100 262.12,-68 386.88,-68 386.88,-100"/>
<text xml:space="preserve" text-anchor="start" x="270.12" y="-86.5" font-family="Helvetica,sans-Serif" font-size="10.00">systems/FPInputHandler</text>
<text xml:space="preserve" text-anchor="middle" x="324.5" y="-74.5" font-family="Helvetica,sans-Serif" font-size="10.00">/src/FPInputHandler.hpp</text>
</a>
</g>
</g>
<!-- Node2&#45;&gt;Node3 -->
<g id="edge2_Node000002_Node000003" class="edge">
<title>Node2&#45;&gt;Node3</title>
<g id="a_edge2_Node000002_Node000003"><a xlink:title=" ">
<path fill="none" stroke="#63b8ff" d="M324.5,-124.31C324.5,-116.12 324.5,-107.38 324.5,-100.22"/>
<polygon fill="#63b8ff" stroke="#63b8ff" points="321,-124.18 324.5,-134.18 328,-124.18 321,-124.18"/>
</a>
</g>
</g>
<!-- Node5 -->
<g id="Node000005" class="node">
<title>Node5</title>
<g id="a_Node000005"><a xlink:href="Collision_8hpp.html" target="_top" xlink:title=" ">
<polygon fill="white" stroke="#666666" points="513.62,-100 405.38,-100 405.38,-68 513.62,-68 513.62,-100"/>
<text xml:space="preserve" text-anchor="start" x="413.38" y="-86.5" font-family="Helvetica,sans-Serif" font-size="10.00">systems/collision/src</text>
<text xml:space="preserve" text-anchor="middle" x="459.5" y="-74.5" font-family="Helvetica,sans-Serif" font-size="10.00">/Collision.hpp</text>
</a>
</g>
</g>
<!-- Node2&#45;&gt;Node5 -->
<g id="edge4_Node000002_Node000005" class="edge">
<title>Node2&#45;&gt;Node5</title>
<g id="a_edge4_Node000002_Node000005"><a xlink:title=" ">
<path fill="none" stroke="#63b8ff" d="M366.49,-130.47C386.37,-120.75 409.72,-109.34 428.05,-100.38"/>
<polygon fill="#63b8ff" stroke="#63b8ff" points="364.96,-127.32 357.51,-134.86 368.03,-133.61 364.96,-127.32"/>
</a>
</g>
</g>
<!-- Node7 -->
<g id="Node000007" class="node">
<title>Node7</title>
<g id="a_Node000007"><a xlink:href="InputHandler_8hpp.html" target="_top" xlink:title=" ">
<polygon fill="white" stroke="#666666" points="244.12,-100 132.88,-100 132.88,-68 244.12,-68 244.12,-100"/>
<text xml:space="preserve" text-anchor="start" x="140.88" y="-86.5" font-family="Helvetica,sans-Serif" font-size="10.00">systems/inputHandler</text>
<text xml:space="preserve" text-anchor="middle" x="188.5" y="-74.5" font-family="Helvetica,sans-Serif" font-size="10.00">/src/InputHandler.hpp</text>
</a>
</g>
</g>
<!-- Node2&#45;&gt;Node7 -->
<g id="edge6_Node000002_Node000007" class="edge">
<title>Node2&#45;&gt;Node7</title>
<g id="a_edge6_Node000002_Node000007"><a xlink:title=" ">
<path fill="none" stroke="#63b8ff" d="M282.48,-130.61C262.39,-120.86 238.74,-109.38 220.19,-100.38"/>
<polygon fill="#63b8ff" stroke="#63b8ff" points="280.73,-133.65 291.25,-134.87 283.78,-127.35 280.73,-133.65"/>
</a>
</g>
</g>
<!-- Node4 -->
<g id="Node000004" class="node">
<title>Node4</title>
<g id="a_Node000004"><a xlink:href="FPInputHandler_8cpp.html" target="_top" xlink:title=" ">
<polygon fill="white" stroke="#666666" points="386.88,-32 262.12,-32 262.12,0 386.88,0 386.88,-32"/>
<text xml:space="preserve" text-anchor="start" x="270.12" y="-18.5" font-family="Helvetica,sans-Serif" font-size="10.00">systems/FPInputHandler</text>
<text xml:space="preserve" text-anchor="middle" x="324.5" y="-6.5" font-family="Helvetica,sans-Serif" font-size="10.00">/src/FPInputHandler.cpp</text>
</a>
</g>
</g>
<!-- Node3&#45;&gt;Node4 -->
<g id="edge3_Node000003_Node000004" class="edge">
<title>Node3&#45;&gt;Node4</title>
<g id="a_edge3_Node000003_Node000004"><a xlink:title=" ">
<path fill="none" stroke="#63b8ff" d="M324.5,-56.31C324.5,-48.12 324.5,-39.38 324.5,-32.22"/>
<polygon fill="#63b8ff" stroke="#63b8ff" points="321,-56.18 324.5,-66.18 328,-56.18 321,-56.18"/>
</a>
</g>
</g>
<!-- Node6 -->
<g id="Node000006" class="node">
<title>Node6</title>
<g id="a_Node000006"><a xlink:href="Collision_8cpp.html" target="_top" xlink:title=" ">
<polygon fill="white" stroke="#666666" points="513.62,-32 405.38,-32 405.38,0 513.62,0 513.62,-32"/>
<text xml:space="preserve" text-anchor="start" x="413.38" y="-18.5" font-family="Helvetica,sans-Serif" font-size="10.00">systems/collision/src</text>
<text xml:space="preserve" text-anchor="middle" x="459.5" y="-6.5" font-family="Helvetica,sans-Serif" font-size="10.00">/Collision.cpp</text>
</a>
</g>
</g>
<!-- Node5&#45;&gt;Node6 -->
<g id="edge5_Node000005_Node000006" class="edge">
<title>Node5&#45;&gt;Node6</title>
<g id="a_edge5_Node000005_Node000006"><a xlink:title=" ">
<path fill="none" stroke="#63b8ff" d="M459.5,-56.31C459.5,-48.12 459.5,-39.38 459.5,-32.22"/>
<polygon fill="#63b8ff" stroke="#63b8ff" points="456,-56.18 459.5,-66.18 463,-56.18 456,-56.18"/>
</a>
</g>
</g>
<!-- Node8 -->
<g id="Node000008" class="node">
<title>Node8</title>
<g id="a_Node000008"><a xlink:href="InputHandler_8cpp.html" target="_top" xlink:title=" ">
<polygon fill="white" stroke="#666666" points="244.12,-32 132.88,-32 132.88,0 244.12,0 244.12,-32"/>
<text xml:space="preserve" text-anchor="start" x="140.88" y="-18.5" font-family="Helvetica,sans-Serif" font-size="10.00">systems/inputHandler</text>
<text xml:space="preserve" text-anchor="middle" x="188.5" y="-6.5" font-family="Helvetica,sans-Serif" font-size="10.00">/src/InputHandler.cpp</text>
</a>
</g>
</g>
<!-- Node7&#45;&gt;Node8 -->
<g id="edge7_Node000007_Node000008" class="edge">
<title>Node7&#45;&gt;Node8</title>
<g id="a_edge7_Node000007_Node000008"><a xlink:title=" ">
<path fill="none" stroke="#63b8ff" d="M188.5,-56.31C188.5,-48.12 188.5,-39.38 188.5,-32.22"/>
<polygon fill="#63b8ff" stroke="#63b8ff" points="185,-56.18 188.5,-66.18 192,-56.18 185,-56.18"/>
</a>
</g>
</g>
<!-- Node9&#45;&gt;Node3 -->
<g id="edge9_Node000009_Node000003" class="edge">
<title>Node9&#45;&gt;Node3</title>
<g id="a_edge9_Node000009_Node000003"><a xlink:title=" ">
<path fill="none" stroke="#63b8ff" d="M518.11,-134.53C477.24,-124.07 424.69,-110.63 384.66,-100.39"/>
<polygon fill="#63b8ff" stroke="#63b8ff" points="517.02,-137.86 527.58,-136.95 518.76,-131.08 517.02,-137.86"/>
</a>
</g>
</g>
<!-- Node9&#45;&gt;Node5 -->
<g id="edge12_Node000009_Node000005" class="edge">
<title>Node9&#45;&gt;Node5</title>
<g id="a_edge12_Node000009_Node000005"><a xlink:title=" ">
<path fill="none" stroke="#63b8ff" d="M543.74,-130.2C525.74,-120.54 504.7,-109.26 488.16,-100.38"/>
<polygon fill="#63b8ff" stroke="#63b8ff" points="541.86,-133.17 552.33,-134.81 545.17,-127 541.86,-133.17"/>
</a>
</g>
</g>
<!-- Node9&#45;&gt;Node7 -->
<g id="edge15_Node000009_Node000007" class="edge">
<title>Node9&#45;&gt;Node7</title>
<g id="a_edge15_Node000009_Node000007"><a xlink:title=" ">
<path fill="none" stroke="#63b8ff" d="M517.92,-135.64C400.83,-114.33 367.73,-120.84 253.5,-100 250.54,-99.46 247.51,-98.87 244.45,-98.26"/>
<polygon fill="#63b8ff" stroke="#63b8ff" points="517.18,-139.06 527.65,-137.44 518.46,-132.18 517.18,-139.06"/>
</a>
</g>
</g>
<!-- Node10 -->
<g id="Node000010" class="node">
<title>Node10</title>
<g id="a_Node000010"><a xlink:href="FPMotion_8hpp.html" target="_top" xlink:title=" ">
<polygon fill="white" stroke="#666666" points="767,-100 652,-100 652,-68 767,-68 767,-100"/>
<text xml:space="preserve" text-anchor="start" x="660" y="-86.5" font-family="Helvetica,sans-Serif" font-size="10.00">systems/FPMotion/src</text>
<text xml:space="preserve" text-anchor="middle" x="709.5" y="-74.5" font-family="Helvetica,sans-Serif" font-size="10.00">/FPMotion.hpp</text>
</a>
</g>
</g>
<!-- Node9&#45;&gt;Node10 -->
<g id="edge10_Node000009_Node000010" class="edge">
<title>Node9&#45;&gt;Node10</title>
<g id="a_edge10_Node000009_Node000010"><a xlink:title=" ">
<path fill="none" stroke="#63b8ff" d="M622.26,-130.34C640.91,-120.65 662.75,-109.3 679.91,-100.38"/>
<polygon fill="#63b8ff" stroke="#63b8ff" points="620.88,-127.11 613.62,-134.83 624.11,-133.32 620.88,-127.11"/>
</a>
</g>
</g>
<!-- Node12 -->
<g id="Node000012" class="node">
<title>Node12</title>
<g id="a_Node000012"><a xlink:href="DomainHandler_8hpp.html" target="_top" xlink:title=" ">
<polygon fill="white" stroke="#666666" points="906.38,-100 784.62,-100 784.62,-68 906.38,-68 906.38,-100"/>
<text xml:space="preserve" text-anchor="start" x="792.62" y="-86.5" font-family="Helvetica,sans-Serif" font-size="10.00">systems/domainHandler</text>
<text xml:space="preserve" text-anchor="middle" x="845.5" y="-74.5" font-family="Helvetica,sans-Serif" font-size="10.00">/src/DomainHandler.hpp</text>
</a>
</g>
</g>
<!-- Node9&#45;&gt;Node12 -->
<g id="edge13_Node000009_Node000012" class="edge">
<title>Node9&#45;&gt;Node12</title>
<g id="a_edge13_Node000009_Node000012"><a xlink:title=" ">
<path fill="none" stroke="#63b8ff" d="M646.66,-134.9C688.65,-124.36 743.19,-110.67 784.53,-100.3"/>
<polygon fill="#63b8ff" stroke="#63b8ff" points="646.04,-131.45 637.19,-137.28 647.74,-138.24 646.04,-131.45"/>
</a>
</g>
</g>
<!-- Node14 -->
<g id="Node000014" class="node">
<title>Node14</title>
<g id="a_Node000014"><a xlink:href="Motion_8hpp.html" target="_top" xlink:title=" ">
<polygon fill="white" stroke="#666666" points="633.62,-100 531.38,-100 531.38,-68 633.62,-68 633.62,-100"/>
<text xml:space="preserve" text-anchor="start" x="539.38" y="-86.5" font-family="Helvetica,sans-Serif" font-size="10.00">systems/motion/src</text>
<text xml:space="preserve" text-anchor="middle" x="582.5" y="-74.5" font-family="Helvetica,sans-Serif" font-size="10.00">/Motion.hpp</text>
</a>
</g>
</g>
<!-- Node9&#45;&gt;Node14 -->
<g id="edge16_Node000009_Node000014" class="edge">
<title>Node9&#45;&gt;Node14</title>
<g id="a_edge16_Node000009_Node000014"><a xlink:title=" ">
<path fill="none" stroke="#63b8ff" d="M582.5,-124.31C582.5,-116.12 582.5,-107.38 582.5,-100.22"/>
<polygon fill="#63b8ff" stroke="#63b8ff" points="579,-124.18 582.5,-134.18 586,-124.18 579,-124.18"/>
</a>
</g>
</g>
<!-- Node11 -->
<g id="Node000011" class="node">
<title>Node11</title>
<g id="a_Node000011"><a xlink:href="FPMotion_8cpp.html" target="_top" xlink:title=" ">
<polygon fill="white" stroke="#666666" points="767,-32 652,-32 652,0 767,0 767,-32"/>
<text xml:space="preserve" text-anchor="start" x="660" y="-18.5" font-family="Helvetica,sans-Serif" font-size="10.00">systems/FPMotion/src</text>
<text xml:space="preserve" text-anchor="middle" x="709.5" y="-6.5" font-family="Helvetica,sans-Serif" font-size="10.00">/FPMotion.cpp</text>
</a>
</g>
</g>
<!-- Node10&#45;&gt;Node11 -->
<g id="edge11_Node000010_Node000011" class="edge">
<title>Node10&#45;&gt;Node11</title>
<g id="a_edge11_Node000010_Node000011"><a xlink:title=" ">
<path fill="none" stroke="#63b8ff" d="M709.5,-56.31C709.5,-48.12 709.5,-39.38 709.5,-32.22"/>
<polygon fill="#63b8ff" stroke="#63b8ff" points="706,-56.18 709.5,-66.18 713,-56.18 706,-56.18"/>
</a>
</g>
</g>
<!-- Node13 -->
<g id="Node000013" class="node">
<title>Node13</title>
<g id="a_Node000013"><a xlink:href="DomainHandler_8cpp.html" target="_top" xlink:title=" ">
<polygon fill="white" stroke="#666666" points="906.38,-32 784.62,-32 784.62,0 906.38,0 906.38,-32"/>
<text xml:space="preserve" text-anchor="start" x="792.62" y="-18.5" font-family="Helvetica,sans-Serif" font-size="10.00">systems/domainHandler</text>
<text xml:space="preserve" text-anchor="middle" x="845.5" y="-6.5" font-family="Helvetica,sans-Serif" font-size="10.00">/src/DomainHandler.cpp</text>
</a>
</g>
</g>
<!-- Node12&#45;&gt;Node13 -->
<g id="edge14_Node000012_Node000013" class="edge">
<title>Node12&#45;&gt;Node13</title>
<g id="a_edge14_Node000012_Node000013"><a xlink:title=" ">
<path fill="none" stroke="#63b8ff" d="M845.5,-56.31C845.5,-48.12 845.5,-39.38 845.5,-32.22"/>
<polygon fill="#63b8ff" stroke="#63b8ff" points="842,-56.18 845.5,-66.18 849,-56.18 842,-56.18"/>
</a>
</g>
</g>
<!-- Node15 -->
<g id="Node000015" class="node">
<title>Node15</title>
<g id="a_Node000015"><a xlink:href="Motion_8cpp.html" target="_top" xlink:title=" ">
<polygon fill="white" stroke="#666666" points="633.62,-32 531.38,-32 531.38,0 633.62,0 633.62,-32"/>
<text xml:space="preserve" text-anchor="start" x="539.38" y="-18.5" font-family="Helvetica,sans-Serif" font-size="10.00">systems/motion/src</text>
<text xml:space="preserve" text-anchor="middle" x="582.5" y="-6.5" font-family="Helvetica,sans-Serif" font-size="10.00">/Motion.cpp</text>
</a>
</g>
</g>
<!-- Node14&#45;&gt;Node15 -->
<g id="edge17_Node000014_Node000015" class="edge">
<title>Node14&#45;&gt;Node15</title>
<g id="a_edge17_Node000014_Node000015"><a xlink:title=" ">
<path fill="none" stroke="#63b8ff" d="M582.5,-56.31C582.5,-48.12 582.5,-39.38 582.5,-32.22"/>
<polygon fill="#63b8ff" stroke="#63b8ff" points="579,-56.18 582.5,-66.18 586,-56.18 579,-56.18"/>
</a>
</g>
</g>
<!-- Node16&#45;&gt;Node3 -->
<g id="edge19_Node000016_Node000003" class="edge">
<title>Node16&#45;&gt;Node3</title>
<g id="a_edge19_Node000016_Node000003"><a xlink:title=" ">
<path fill="none" stroke="#63b8ff" d="M412.43,-130.34C393.63,-120.65 371.62,-109.3 354.32,-100.38"/>
<polygon fill="#63b8ff" stroke="#63b8ff" points="410.65,-133.36 421.14,-134.83 413.86,-127.14 410.65,-133.36"/>
</a>
</g>
</g>
<!-- Node16&#45;&gt;Node5 -->
<g id="edge23_Node000016_Node000005" class="edge">
<title>Node16&#45;&gt;Node5</title>
<g id="a_edge23_Node000016_Node000005"><a xlink:title=" ">
<path fill="none" stroke="#63b8ff" d="M455.33,-124.31C456.2,-116.12 457.13,-107.38 457.89,-100.22"/>
<polygon fill="#63b8ff" stroke="#63b8ff" points="451.86,-123.87 454.28,-134.19 458.82,-124.61 451.86,-123.87"/>
</a>
</g>
</g>
<!-- Node16&#45;&gt;Node7 -->
<g id="edge24_Node000016_Node000007" class="edge">
<title>Node16&#45;&gt;Node7</title>
<g id="a_edge24_Node000016_Node000007"><a xlink:title=" ">
<path fill="none" stroke="#63b8ff" d="M382.59,-133.52C339.44,-122.73 284.82,-109.08 244.53,-99.01"/>
<polygon fill="#63b8ff" stroke="#63b8ff" points="381.56,-136.87 392.11,-135.9 383.26,-130.08 381.56,-136.87"/>
</a>
</g>
</g>
<!-- Node16&#45;&gt;Node10 -->
<g id="edge20_Node000016_Node000010" class="edge">
<title>Node16&#45;&gt;Node10</title>
<g id="a_edge20_Node000016_Node000010"><a xlink:title=" ">
<path fill="none" stroke="#63b8ff" d="M522.61,-133C563.12,-122.59 613.47,-109.66 651.7,-99.84"/>
<polygon fill="#63b8ff" stroke="#63b8ff" points="521.74,-129.6 512.93,-135.48 523.48,-136.38 521.74,-129.6"/>
</a>
</g>
</g>
<!-- Node16&#45;&gt;Node14 -->
<g id="edge25_Node000016_Node000014" class="edge">
<title>Node16&#45;&gt;Node14</title>
<g id="a_edge25_Node000016_Node000014"><a xlink:title=" ">
<path fill="none" stroke="#63b8ff" d="M493.2,-130.34C512.29,-120.65 534.64,-109.3 552.21,-100.38"/>
<polygon fill="#63b8ff" stroke="#63b8ff" points="491.66,-127.19 484.33,-134.84 494.83,-133.43 491.66,-127.19"/>
</a>
</g>
</g>
<!-- Node17 -->
<g id="Node000017" class="node">
<title>Node17</title>
<g id="a_Node000017"><a xlink:href="Animation_8hpp.html" target="_top" xlink:title=" ">
<polygon fill="white" stroke="#666666" points="115,-100 0,-100 0,-68 115,-68 115,-100"/>
<text xml:space="preserve" text-anchor="start" x="8" y="-86.5" font-family="Helvetica,sans-Serif" font-size="10.00">systems/animation/src</text>
<text xml:space="preserve" text-anchor="middle" x="57.5" y="-74.5" font-family="Helvetica,sans-Serif" font-size="10.00">/Animation.hpp</text>
</a>
</g>
</g>
<!-- Node16&#45;&gt;Node17 -->
<g id="edge21_Node000016_Node000017" class="edge">
<title>Node16&#45;&gt;Node17</title>
<g id="a_edge21_Node000016_Node000017"><a xlink:title=" ">
<path fill="none" stroke="#63b8ff" d="M382.73,-135.59C267.89,-115.47 235.64,-120.41 123.5,-100 120.84,-99.52 118.13,-99 115.39,-98.46"/>
<polygon fill="#63b8ff" stroke="#63b8ff" points="381.78,-138.98 392.24,-137.29 383.01,-132.09 381.78,-138.98"/>
</a>
</g>
</g>
<!-- Node18 -->
<g id="Node000018" class="node">
<title>Node18</title>
<g id="a_Node000018"><a xlink:href="Animation_8cpp.html" target="_top" xlink:title=" ">
<polygon fill="white" stroke="#666666" points="115,-32 0,-32 0,0 115,0 115,-32"/>
<text xml:space="preserve" text-anchor="start" x="8" y="-18.5" font-family="Helvetica,sans-Serif" font-size="10.00">systems/animation/src</text>
<text xml:space="preserve" text-anchor="middle" x="57.5" y="-6.5" font-family="Helvetica,sans-Serif" font-size="10.00">/Animation.cpp</text>
</a>
</g>
</g>
<!-- Node17&#45;&gt;Node18 -->
<g id="edge22_Node000017_Node000018" class="edge">
<title>Node17&#45;&gt;Node18</title>
<g id="a_edge22_Node000017_Node000018"><a xlink:title=" ">
<path fill="none" stroke="#63b8ff" d="M57.5,-56.31C57.5,-48.12 57.5,-39.38 57.5,-32.22"/>
<polygon fill="#63b8ff" stroke="#63b8ff" points="54,-56.18 57.5,-66.18 61,-56.18 54,-56.18"/>
</a>
</g>
</g>
</g>
</svg>
