<?xml version="1.0" encoding="UTF-8" standalone="no"?>
<!DOCTYPE svg PUBLIC "-//W3C//DTD SVG 1.1//EN"
 "http://www.w3.org/Graphics/SVG/1.1/DTD/svg11.dtd">
<!-- Generated by graphviz version 13.1.2 (20250808.2320)
 -->
<!-- Title: rtype::NetworkServer::NetworkServer Pages: 1 -->
<svg width="597pt" height="94pt"
 viewBox="0.00 0.00 597.00 94.00" xmlns="http://www.w3.org/2000/svg" xmlns:xlink="http://www.w3.org/1999/xlink">
<g id="graph0" class="graph" transform="scale(1 1) rotate(0) translate(4 89.5)">
<title>rtype::NetworkServer::NetworkServer</title>
<!-- Node1 -->
<g id="Node000001" class="node">
<title>Node1</title>
<g id="a_Node000001"><a xlink:title="Creates a player entity in the ECS with appropriate components.">
<polygon fill="#999999" stroke="#666666" points="120.25,-59.5 0,-59.5 0,-26 120.25,-26 120.25,-59.5"/>
<text xml:space="preserve" text-anchor="start" x="8" y="-46" font-family="Helvetica,sans-Serif" font-size="10.00">rtype::NetworkServer</text>
<text xml:space="preserve" text-anchor="middle" x="60.12" y="-33.25" font-family="Helvetica,sans-Serif" font-size="10.00">::NetworkServer</text>
</a>
</g>
</g>
<!-- Node2 -->
<g id="Node000002" class="node">
<title>Node2</title>
<g id="a_Node000002"><a xlink:href="classrtype_1_1NetworkServer.html#a78ebccaf1d807b0af1347128966fdc15" target="_top" xlink:title="Initializes the ECS with appropriate systems.">
<polygon fill="white" stroke="#666666" points="276.5,-59.5 156.25,-59.5 156.25,-26 276.5,-26 276.5,-59.5"/>
<text xml:space="preserve" text-anchor="start" x="164.25" y="-46" font-family="Helvetica,sans-Serif" font-size="10.00">rtype::NetworkServer</text>
<text xml:space="preserve" text-anchor="middle" x="216.38" y="-33.25" font-family="Helvetica,sans-Serif" font-size="10.00">::initECS</text>
</a>
</g>
</g>
<!-- Node1&#45;&gt;Node2 -->
<g id="edge1_Node000001_Node000002" class="edge">
<title>Node1&#45;&gt;Node2</title>
<g id="a_edge1_Node000001_Node000002"><a xlink:title=" ">
<path fill="none" stroke="#63b8ff" d="M120.32,-42.75C128.23,-42.75 136.41,-42.75 144.5,-42.75"/>
<polygon fill="#63b8ff" stroke="#63b8ff" points="144.31,-46.25 154.31,-42.75 144.31,-39.25 144.31,-46.25"/>
</a>
</g>
</g>
<!-- Node3 -->
<g id="Node000003" class="node">
<title>Node3</title>
<g id="a_Node000003"><a xlink:href="classrtype_1_1NetworkServer.html#a67e01372a7b84c0c252394916329f700" target="_top" xlink:title=" ">
<polygon fill="white" stroke="#666666" points="432.75,-59.5 312.5,-59.5 312.5,-26 432.75,-26 432.75,-59.5"/>
<text xml:space="preserve" text-anchor="start" x="320.5" y="-46" font-family="Helvetica,sans-Serif" font-size="10.00">rtype::NetworkServer</text>
<text xml:space="preserve" text-anchor="middle" x="372.62" y="-33.25" font-family="Helvetica,sans-Serif" font-size="10.00">::handlePlayerDeath</text>
</a>
</g>
</g>
<!-- Node2&#45;&gt;Node3 -->
<g id="edge2_Node000002_Node000003" class="edge">
<title>Node2&#45;&gt;Node3</title>
<g id="a_edge2_Node000002_Node000003"><a xlink:title=" ">
<path fill="none" stroke="#63b8ff" d="M276.57,-42.75C284.48,-42.75 292.66,-42.75 300.75,-42.75"/>
<polygon fill="#63b8ff" stroke="#63b8ff" points="300.56,-46.25 310.56,-42.75 300.56,-39.25 300.56,-46.25"/>
</a>
</g>
</g>
<!-- Node4 -->
<g id="Node000004" class="node">
<title>Node4</title>
<g id="a_Node000004"><a xlink:href="classrtype_1_1NetworkServer.html#a307236d78543decaa97773b3dcc87f60" target="_top" xlink:title="Broadcasts a message to all connected clients.">
<polygon fill="white" stroke="#666666" points="589,-85.5 468.75,-85.5 468.75,-52 589,-52 589,-85.5"/>
<text xml:space="preserve" text-anchor="start" x="476.75" y="-72" font-family="Helvetica,sans-Serif" font-size="10.00">rtype::NetworkServer</text>
<text xml:space="preserve" text-anchor="middle" x="528.88" y="-59.25" font-family="Helvetica,sans-Serif" font-size="10.00">::broadcast</text>
</a>
</g>
</g>
<!-- Node3&#45;&gt;Node4 -->
<g id="edge3_Node000003_Node000004" class="edge">
<title>Node3&#45;&gt;Node4</title>
<g id="a_edge3_Node000003_Node000004"><a xlink:title=" ">
<path fill="none" stroke="#63b8ff" d="M432.82,-52.73C440.73,-54.06 448.91,-55.44 457,-56.8"/>
<polygon fill="#63b8ff" stroke="#63b8ff" points="456.39,-60.25 466.84,-58.46 457.56,-53.35 456.39,-60.25"/>
</a>
</g>
</g>
<!-- Node5 -->
<g id="Node000005" class="node">
<title>Node5</title>
<g id="a_Node000005"><a xlink:href="classrtype_1_1NetworkServer.html#a0b8fd52383e5b2fd3a529162fd2ea46a" target="_top" xlink:title="Converts a value of type T to a vector of bytes.">
<polygon fill="white" stroke="#666666" points="589,-33.5 468.75,-33.5 468.75,0 589,0 589,-33.5"/>
<text xml:space="preserve" text-anchor="start" x="476.75" y="-20" font-family="Helvetica,sans-Serif" font-size="10.00">rtype::NetworkServer</text>
<text xml:space="preserve" text-anchor="middle" x="528.88" y="-7.25" font-family="Helvetica,sans-Serif" font-size="10.00">::toBytes</text>
</a>
</g>
</g>
<!-- Node3&#45;&gt;Node5 -->
<g id="edge4_Node000003_Node000005" class="edge">
<title>Node3&#45;&gt;Node5</title>
<g id="a_edge4_Node000003_Node000005"><a xlink:title=" ">
<path fill="none" stroke="#63b8ff" d="M432.82,-32.77C440.73,-31.44 448.91,-30.06 457,-28.7"/>
<polygon fill="#63b8ff" stroke="#63b8ff" points="457.56,-32.15 466.84,-27.04 456.39,-25.25 457.56,-32.15"/>
</a>
</g>
</g>
</g>
</svg>
