<?xml version="1.0" encoding="UTF-8" standalone="no"?>
<!DOCTYPE svg PUBLIC "-//W3C//DTD SVG 1.1//EN"
 "http://www.w3.org/Graphics/SVG/1.1/DTD/svg11.dtd">
<!-- Generated by graphviz version 13.1.2 (20250808.2320)
 -->
<!-- Title: rtype::NetworkServer::fromBytes Pages: 1 -->
<svg width="539pt" height="60pt"
 viewBox="0.00 0.00 539.00 60.00" xmlns="http://www.w3.org/2000/svg" xmlns:xlink="http://www.w3.org/1999/xlink">
<g id="graph0" class="graph" transform="scale(1 1) rotate(0) translate(4 55.5)">
<title>rtype::NetworkServer::fromBytes</title>
<!-- Node1 -->
<g id="Node000001" class="node">
<title>Node1</title>
<g id="a_Node000001"><a xlink:title="Converts a byte array to a value of type T.">
<polygon fill="#999999" stroke="#666666" points="531.25,-33.5 411,-33.5 411,0 531.25,0 531.25,-33.5"/>
<text xml:space="preserve" text-anchor="start" x="419" y="-20" font-family="Helvetica,sans-Serif" font-size="10.00">rtype::NetworkServer</text>
<text xml:space="preserve" text-anchor="middle" x="471.12" y="-7.25" font-family="Helvetica,sans-Serif" font-size="10.00">::fromBytes</text>
</a>
</g>
</g>
<!-- Node2 -->
<g id="Node000002" class="node">
<title>Node2</title>
<g id="a_Node000002"><a xlink:href="classrtype_1_1NetworkServer.html#ab476dc987640c09387071e1d3a30ba2f" target="_top" xlink:title="Asynchronously receives incoming UDP packets.">
<polygon fill="white" stroke="#666666" points="375,-33.5 254.75,-33.5 254.75,0 375,0 375,-33.5"/>
<text xml:space="preserve" text-anchor="start" x="262.75" y="-20" font-family="Helvetica,sans-Serif" font-size="10.00">rtype::NetworkServer</text>
<text xml:space="preserve" text-anchor="middle" x="314.88" y="-7.25" font-family="Helvetica,sans-Serif" font-size="10.00">::doReceive</text>
</a>
</g>
</g>
<!-- Node1&#45;&gt;Node2 -->
<g id="edge1_Node000001_Node000002" class="edge">
<title>Node1&#45;&gt;Node2</title>
<g id="a_edge1_Node000001_Node000002"><a xlink:title=" ">
<path fill="none" stroke="#63b8ff" d="M399.6,-16.75C391.52,-16.75 383.34,-16.75 375.42,-16.75"/>
<polygon fill="#63b8ff" stroke="#63b8ff" points="399.42,-20.25 409.42,-16.75 399.42,-13.25 399.42,-20.25"/>
</a>
</g>
</g>
<!-- Node2&#45;&gt;Node2 -->
<g id="edge2_Node000002_Node000002" class="edge">
<title>Node2&#45;&gt;Node2</title>
<g id="a_edge2_Node000002_Node000002"><a xlink:title=" ">
<path fill="none" stroke="#63b8ff" d="M341.11,-44.89C336.84,-48.85 328.09,-51.5 314.88,-51.5 291.38,-51.5 282.01,-43.12 286.79,-33.91"/>
<polygon fill="#63b8ff" stroke="#63b8ff" points="344.5,-45.85 342.71,-35.41 337.6,-44.68 344.5,-45.85"/>
</a>
</g>
</g>
<!-- Node3 -->
<g id="Node000003" class="node">
<title>Node3</title>
<g id="a_Node000003"><a xlink:href="classrtype_1_1NetworkServer.html#a707e4bd01554bc358fa8315c6552e468" target="_top" xlink:title="Runs the network server.">
<polygon fill="white" stroke="#666666" points="218.75,-27.12 76.75,-27.12 76.75,-6.38 218.75,-6.38 218.75,-27.12"/>
<text xml:space="preserve" text-anchor="middle" x="147.75" y="-13.62" font-family="Helvetica,sans-Serif" font-size="10.00">rtype::NetworkServer::run</text>
</a>
</g>
</g>
<!-- Node2&#45;&gt;Node3 -->
<g id="edge3_Node000002_Node000003" class="edge">
<title>Node2&#45;&gt;Node3</title>
<g id="a_edge3_Node000002_Node000003"><a xlink:title=" ">
<path fill="none" stroke="#63b8ff" d="M242.91,-16.75C235.06,-16.75 227.08,-16.75 219.24,-16.75"/>
<polygon fill="#63b8ff" stroke="#63b8ff" points="242.75,-20.25 252.75,-16.75 242.75,-13.25 242.75,-20.25"/>
</a>
</g>
</g>
<!-- Node4 -->
<g id="Node000004" class="node">
<title>Node4</title>
<g id="a_Node000004"><a xlink:href="main_8cpp.html#a3c04138a5bfe5d72780bb7e82a18e627" target="_top" xlink:title=" ">
<polygon fill="white" stroke="#666666" points="40.75,-27.12 0,-27.12 0,-6.38 40.75,-6.38 40.75,-27.12"/>
<text xml:space="preserve" text-anchor="middle" x="20.38" y="-13.62" font-family="Helvetica,sans-Serif" font-size="10.00">main</text>
</a>
</g>
</g>
<!-- Node3&#45;&gt;Node4 -->
<g id="edge4_Node000003_Node000004" class="edge">
<title>Node3&#45;&gt;Node4</title>
<g id="a_edge4_Node000003_Node000004"><a xlink:title=" ">
<path fill="none" stroke="#63b8ff" d="M65.01,-16.75C56.23,-16.75 48,-16.75 41.11,-16.75"/>
<polygon fill="#63b8ff" stroke="#63b8ff" points="64.85,-20.25 74.85,-16.75 64.85,-13.25 64.85,-20.25"/>
</a>
</g>
</g>
</g>
</svg>
