<?xml version="1.0" encoding="UTF-8" standalone="no"?>
<!DOCTYPE svg PUBLIC "-//W3C//DTD SVG 1.1//EN"
 "http://www.w3.org/Graphics/SVG/1.1/DTD/svg11.dtd">
<!-- Generated by graphviz version 13.1.2 (20250808.2320)
 -->
<!-- Title: rtype::NetworkServer::loadEnemiesFromJson Pages: 1 -->
<svg width="348pt" height="107pt"
 viewBox="0.00 0.00 348.00 107.00" xmlns="http://www.w3.org/2000/svg" xmlns:xlink="http://www.w3.org/1999/xlink">
<g id="graph0" class="graph" transform="scale(1 1) rotate(0) translate(4 102.75)">
<title>rtype::NetworkServer::loadEnemiesFromJson</title>
<!-- Node1 -->
<g id="Node000001" class="node">
<title>Node1</title>
<g id="a_Node000001"><a xlink:title="Loads enemy spawn data from a JSON file.">
<polygon fill="#999999" stroke="#666666" points="130,-66.12 0,-66.12 0,-32.62 130,-32.62 130,-66.12"/>
<text xml:space="preserve" text-anchor="start" x="8" y="-52.62" font-family="Helvetica,sans-Serif" font-size="10.00">rtype::NetworkServer</text>
<text xml:space="preserve" text-anchor="middle" x="65" y="-39.88" font-family="Helvetica,sans-Serif" font-size="10.00">::loadEnemiesFromJson</text>
</a>
</g>
</g>
<!-- Node2 -->
<g id="Node000002" class="node">
<title>Node2</title>
<g id="a_Node000002"><a xlink:href="loadEnemies_8cpp.html#af086c67c4e25270ea66832413ed49dc1" target="_top" xlink:title="Extracts a JSON value for a given key within a specified range.">
<polygon fill="white" stroke="#666666" points="267.5,-98.75 166,-98.75 166,-78 267.5,-78 267.5,-98.75"/>
<text xml:space="preserve" text-anchor="middle" x="216.75" y="-85.25" font-family="Helvetica,sans-Serif" font-size="10.00">extractJSONValue</text>
</a>
</g>
</g>
<!-- Node1&#45;&gt;Node2 -->
<g id="edge1_Node000001_Node000002" class="edge">
<title>Node1&#45;&gt;Node2</title>
<g id="a_edge1_Node000001_Node000002"><a xlink:title=" ">
<path fill="none" stroke="#63b8ff" d="M130.38,-66.14C141.44,-69.02 152.81,-71.98 163.5,-74.77"/>
<polygon fill="#63b8ff" stroke="#63b8ff" points="162.34,-78.08 172.89,-77.21 164.1,-71.31 162.34,-78.08"/>
</a>
</g>
</g>
<!-- Node4 -->
<g id="Node000004" class="node">
<title>Node4</title>
<g id="a_Node000004"><a xlink:href="loadEnemies_8cpp.html#a73babc3876953ebe4dbeae87f10b1ca4" target="_top" xlink:title="Parses a JSON array of floats for a given key.">
<polygon fill="white" stroke="#666666" points="263.38,-59.75 170.12,-59.75 170.12,-39 263.38,-39 263.38,-59.75"/>
<text xml:space="preserve" text-anchor="middle" x="216.75" y="-46.25" font-family="Helvetica,sans-Serif" font-size="10.00">parseJSONArray</text>
</a>
</g>
</g>
<!-- Node1&#45;&gt;Node4 -->
<g id="edge3_Node000001_Node000004" class="edge">
<title>Node1&#45;&gt;Node4</title>
<g id="a_edge3_Node000001_Node000004"><a xlink:title=" ">
<path fill="none" stroke="#63b8ff" d="M130.38,-49.38C139.74,-49.38 149.33,-49.38 158.54,-49.38"/>
<polygon fill="#63b8ff" stroke="#63b8ff" points="158.44,-52.88 168.44,-49.38 158.44,-45.88 158.44,-52.88"/>
</a>
</g>
</g>
<!-- Node5 -->
<g id="Node000005" class="node">
<title>Node5</title>
<g id="a_Node000005"><a xlink:href="loadEnemies_8cpp.html#ad31cfd72f9d6657fe345f610e3ff2a59" target="_top" xlink:title="Parses a JSON string value for a given key.">
<polygon fill="white" stroke="#666666" points="264.5,-20.75 169,-20.75 169,0 264.5,0 264.5,-20.75"/>
<text xml:space="preserve" text-anchor="middle" x="216.75" y="-7.25" font-family="Helvetica,sans-Serif" font-size="10.00">parseJSONString</text>
</a>
</g>
</g>
<!-- Node1&#45;&gt;Node5 -->
<g id="edge5_Node000001_Node000005" class="edge">
<title>Node1&#45;&gt;Node5</title>
<g id="a_edge5_Node000001_Node000005"><a xlink:title=" ">
<path fill="none" stroke="#63b8ff" d="M130.38,-32.61C141.44,-29.73 152.81,-26.77 163.5,-23.98"/>
<polygon fill="#63b8ff" stroke="#63b8ff" points="164.1,-27.44 172.89,-21.54 162.34,-20.67 164.1,-27.44"/>
</a>
</g>
</g>
<!-- Node3 -->
<g id="Node000003" class="node">
<title>Node3</title>
<g id="a_Node000003"><a xlink:href="loadEnemies_8cpp.html#a3c3dcfc7f0222d5de8ca7c6f7dd5f978" target="_top" xlink:title="Trims whitespace from the beginning and end of a string.">
<polygon fill="white" stroke="#666666" points="339.75,-78.75 303.5,-78.75 303.5,-58 339.75,-58 339.75,-78.75"/>
<text xml:space="preserve" text-anchor="middle" x="321.62" y="-65.25" font-family="Helvetica,sans-Serif" font-size="10.00">trim</text>
</a>
</g>
</g>
<!-- Node2&#45;&gt;Node3 -->
<g id="edge2_Node000002_Node000003" class="edge">
<title>Node2&#45;&gt;Node3</title>
<g id="a_edge2_Node000002_Node000003"><a xlink:title=" ">
<path fill="none" stroke="#63b8ff" d="M267.98,-78.61C276.18,-77.01 284.43,-75.41 291.88,-73.96"/>
<polygon fill="#63b8ff" stroke="#63b8ff" points="292.53,-77.4 301.67,-72.06 291.19,-70.53 292.53,-77.4"/>
</a>
</g>
</g>
<!-- Node4&#45;&gt;Node3 -->
<g id="edge4_Node000004_Node000003" class="edge">
<title>Node4&#45;&gt;Node3</title>
<g id="a_edge4_Node000004_Node000003"><a xlink:title=" ">
<path fill="none" stroke="#63b8ff" d="M263.77,-57.87C273.48,-59.67 283.45,-61.51 292.28,-63.14"/>
<polygon fill="#63b8ff" stroke="#63b8ff" points="291.51,-66.56 301.98,-64.93 292.78,-59.67 291.51,-66.56"/>
</a>
</g>
</g>
</g>
</svg>
