<?xml version="1.0" encoding="UTF-8" standalone="no"?>
<!DOCTYPE svg PUBLIC "-//W3C//DTD SVG 1.1//EN"
 "http://www.w3.org/Graphics/SVG/1.1/DTD/svg11.dtd">
<!-- Generated by graphviz version 13.1.2 (20250808.2320)
 -->
<!-- Title: rtype::NetworkServer::broadcast Pages: 1 -->
<svg width="622pt" height="146pt"
 viewBox="0.00 0.00 622.00 146.00" xmlns="http://www.w3.org/2000/svg" xmlns:xlink="http://www.w3.org/1999/xlink">
<g id="graph0" class="graph" transform="scale(1 1) rotate(0) translate(4 141.5)">
<title>rtype::NetworkServer::broadcast</title>
<!-- Node1 -->
<g id="Node000001" class="node">
<title>Node1</title>
<g id="a_Node000001"><a xlink:title="Broadcasts a message to all connected clients.">
<polygon fill="#999999" stroke="#666666" points="613.75,-85.5 493.5,-85.5 493.5,-52 613.75,-52 613.75,-85.5"/>
<text xml:space="preserve" text-anchor="start" x="501.5" y="-72" font-family="Helvetica,sans-Serif" font-size="10.00">rtype::NetworkServer</text>
<text xml:space="preserve" text-anchor="middle" x="553.62" y="-59.25" font-family="Helvetica,sans-Serif" font-size="10.00">::broadcast</text>
</a>
</g>
</g>
<!-- Node2 -->
<g id="Node000002" class="node">
<title>Node2</title>
<g id="a_Node000002"><a xlink:href="classrtype_1_1NetworkServer.html#afaf4a49cd03af637e4516c6db4b25884" target="_top" xlink:title="Cleans up inactive players who have timed out.">
<polygon fill="white" stroke="#666666" points="457.5,-137.5 334.25,-137.5 334.25,-104 457.5,-104 457.5,-137.5"/>
<text xml:space="preserve" text-anchor="start" x="342.25" y="-124" font-family="Helvetica,sans-Serif" font-size="10.00">rtype::NetworkServer</text>
<text xml:space="preserve" text-anchor="middle" x="395.88" y="-111.25" font-family="Helvetica,sans-Serif" font-size="10.00">::cleanInactivePlayers</text>
</a>
</g>
</g>
<!-- Node1&#45;&gt;Node2 -->
<g id="edge1_Node000001_Node000002" class="edge">
<title>Node1&#45;&gt;Node2</title>
<g id="a_edge1_Node000001_Node000002"><a xlink:title=" ">
<path fill="none" stroke="#63b8ff" d="M490.68,-89.43C476.71,-94.1 462.02,-99 448.52,-103.51"/>
<polygon fill="#63b8ff" stroke="#63b8ff" points="491.38,-92.89 499.76,-86.4 489.17,-86.25 491.38,-92.89"/>
</a>
</g>
</g>
<!-- Node5 -->
<g id="Node000005" class="node">
<title>Node5</title>
<g id="a_Node000005"><a xlink:href="classrtype_1_1NetworkServer.html#a60adcbb519d14188291f412cfe1fc3ad" target="_top" xlink:title="Destroys a player entity and broadcasts the death event.">
<polygon fill="white" stroke="#666666" points="456,-85.5 335.75,-85.5 335.75,-52 456,-52 456,-85.5"/>
<text xml:space="preserve" text-anchor="start" x="343.75" y="-72" font-family="Helvetica,sans-Serif" font-size="10.00">rtype::NetworkServer</text>
<text xml:space="preserve" text-anchor="middle" x="395.88" y="-59.25" font-family="Helvetica,sans-Serif" font-size="10.00">::destroyPlayerEntity</text>
</a>
</g>
</g>
<!-- Node1&#45;&gt;Node5 -->
<g id="edge4_Node000001_Node000005" class="edge">
<title>Node1&#45;&gt;Node5</title>
<g id="a_edge4_Node000001_Node000005"><a xlink:title=" ">
<path fill="none" stroke="#63b8ff" d="M481.79,-68.75C473.27,-68.75 464.63,-68.75 456.29,-68.75"/>
<polygon fill="#63b8ff" stroke="#63b8ff" points="481.78,-72.25 491.78,-68.75 481.78,-65.25 481.78,-72.25"/>
</a>
</g>
</g>
<!-- Node7 -->
<g id="Node000007" class="node">
<title>Node7</title>
<g id="a_Node000007"><a xlink:href="classrtype_1_1NetworkServer.html#a67e01372a7b84c0c252394916329f700" target="_top" xlink:title=" ">
<polygon fill="white" stroke="#666666" points="456,-33.5 335.75,-33.5 335.75,0 456,0 456,-33.5"/>
<text xml:space="preserve" text-anchor="start" x="343.75" y="-20" font-family="Helvetica,sans-Serif" font-size="10.00">rtype::NetworkServer</text>
<text xml:space="preserve" text-anchor="middle" x="395.88" y="-7.25" font-family="Helvetica,sans-Serif" font-size="10.00">::handlePlayerDeath</text>
</a>
</g>
</g>
<!-- Node1&#45;&gt;Node7 -->
<g id="edge6_Node000001_Node000007" class="edge">
<title>Node1&#45;&gt;Node7</title>
<g id="a_edge6_Node000001_Node000007"><a xlink:title=" ">
<path fill="none" stroke="#63b8ff" d="M490.68,-48.07C476.71,-43.4 462.02,-38.5 448.52,-33.99"/>
<polygon fill="#63b8ff" stroke="#63b8ff" points="489.17,-51.25 499.76,-51.1 491.38,-44.61 489.17,-51.25"/>
</a>
</g>
</g>
<!-- Node3 -->
<g id="Node000003" class="node">
<title>Node3</title>
<g id="a_Node000003"><a xlink:href="classrtype_1_1NetworkServer.html#a707e4bd01554bc358fa8315c6552e468" target="_top" xlink:title="Runs the network server.">
<polygon fill="white" stroke="#666666" points="298.25,-131.12 156.25,-131.12 156.25,-110.38 298.25,-110.38 298.25,-131.12"/>
<text xml:space="preserve" text-anchor="middle" x="227.25" y="-117.62" font-family="Helvetica,sans-Serif" font-size="10.00">rtype::NetworkServer::run</text>
</a>
</g>
</g>
<!-- Node2&#45;&gt;Node3 -->
<g id="edge2_Node000002_Node000003" class="edge">
<title>Node2&#45;&gt;Node3</title>
<g id="a_edge2_Node000002_Node000003"><a xlink:title=" ">
<path fill="none" stroke="#63b8ff" d="M322.37,-120.75C314.5,-120.75 306.49,-120.75 298.65,-120.75"/>
<polygon fill="#63b8ff" stroke="#63b8ff" points="322.26,-124.25 332.26,-120.75 322.26,-117.25 322.26,-124.25"/>
</a>
</g>
</g>
<!-- Node4 -->
<g id="Node000004" class="node">
<title>Node4</title>
<g id="a_Node000004"><a xlink:href="main_8cpp.html#a3c04138a5bfe5d72780bb7e82a18e627" target="_top" xlink:title=" ">
<polygon fill="white" stroke="#666666" points="80.5,-131.12 39.75,-131.12 39.75,-110.38 80.5,-110.38 80.5,-131.12"/>
<text xml:space="preserve" text-anchor="middle" x="60.12" y="-117.62" font-family="Helvetica,sans-Serif" font-size="10.00">main</text>
</a>
</g>
</g>
<!-- Node3&#45;&gt;Node4 -->
<g id="edge3_Node000003_Node000004" class="edge">
<title>Node3&#45;&gt;Node4</title>
<g id="a_edge3_Node000003_Node000004"><a xlink:title=" ">
<path fill="none" stroke="#63b8ff" d="M144.9,-120.75C120.98,-120.75 96.92,-120.75 80.77,-120.75"/>
<polygon fill="#63b8ff" stroke="#63b8ff" points="144.71,-124.25 154.71,-120.75 144.71,-117.25 144.71,-124.25"/>
</a>
</g>
</g>
<!-- Node6 -->
<g id="Node000006" class="node">
<title>Node6</title>
<g id="a_Node000006"><a xlink:href="classrtype_1_1NetworkServer.html#a98b2eb4af22d02f26e1711db1722d14c" target="_top" xlink:title="Destructor for NetworkServer.">
<polygon fill="white" stroke="#666666" points="287.38,-85.5 167.12,-85.5 167.12,-52 287.38,-52 287.38,-85.5"/>
<text xml:space="preserve" text-anchor="start" x="175.12" y="-72" font-family="Helvetica,sans-Serif" font-size="10.00">rtype::NetworkServer</text>
<text xml:space="preserve" text-anchor="middle" x="227.25" y="-59.25" font-family="Helvetica,sans-Serif" font-size="10.00">::~NetworkServer</text>
</a>
</g>
</g>
<!-- Node5&#45;&gt;Node6 -->
<g id="edge5_Node000005_Node000006" class="edge">
<title>Node5&#45;&gt;Node6</title>
<g id="a_edge5_Node000005_Node000006"><a xlink:title=" ">
<path fill="none" stroke="#63b8ff" d="M324.2,-68.75C312.09,-68.75 299.62,-68.75 287.84,-68.75"/>
<polygon fill="#63b8ff" stroke="#63b8ff" points="324.15,-72.25 334.15,-68.75 324.15,-65.25 324.15,-72.25"/>
</a>
</g>
</g>
<!-- Node8 -->
<g id="Node000008" class="node">
<title>Node8</title>
<g id="a_Node000008"><a xlink:href="classrtype_1_1NetworkServer.html#a78ebccaf1d807b0af1347128966fdc15" target="_top" xlink:title="Initializes the ECS with appropriate systems.">
<polygon fill="white" stroke="#666666" points="287.38,-33.5 167.12,-33.5 167.12,0 287.38,0 287.38,-33.5"/>
<text xml:space="preserve" text-anchor="start" x="175.12" y="-20" font-family="Helvetica,sans-Serif" font-size="10.00">rtype::NetworkServer</text>
<text xml:space="preserve" text-anchor="middle" x="227.25" y="-7.25" font-family="Helvetica,sans-Serif" font-size="10.00">::initECS</text>
</a>
</g>
</g>
<!-- Node7&#45;&gt;Node8 -->
<g id="edge7_Node000007_Node000008" class="edge">
<title>Node7&#45;&gt;Node8</title>
<g id="a_edge7_Node000007_Node000008"><a xlink:title=" ">
<path fill="none" stroke="#63b8ff" d="M324.2,-16.75C312.09,-16.75 299.62,-16.75 287.84,-16.75"/>
<polygon fill="#63b8ff" stroke="#63b8ff" points="324.15,-20.25 334.15,-16.75 324.15,-13.25 324.15,-20.25"/>
</a>
</g>
</g>
<!-- Node9 -->
<g id="Node000009" class="node">
<title>Node9</title>
<g id="a_Node000009"><a xlink:href="classrtype_1_1NetworkServer.html#ad9cd895e5b840765222850a48ac7d564" target="_top" xlink:title="Creates a player entity in the ECS with appropriate components.">
<polygon fill="white" stroke="#666666" points="120.25,-33.5 0,-33.5 0,0 120.25,0 120.25,-33.5"/>
<text xml:space="preserve" text-anchor="start" x="8" y="-20" font-family="Helvetica,sans-Serif" font-size="10.00">rtype::NetworkServer</text>
<text xml:space="preserve" text-anchor="middle" x="60.12" y="-7.25" font-family="Helvetica,sans-Serif" font-size="10.00">::NetworkServer</text>
</a>
</g>
</g>
<!-- Node8&#45;&gt;Node9 -->
<g id="edge8_Node000008_Node000009" class="edge">
<title>Node8&#45;&gt;Node9</title>
<g id="a_edge8_Node000008_Node000009"><a xlink:title=" ">
<path fill="none" stroke="#63b8ff" d="M155.24,-16.75C143.71,-16.75 131.87,-16.75 120.65,-16.75"/>
<polygon fill="#63b8ff" stroke="#63b8ff" points="155.12,-20.25 165.12,-16.75 155.12,-13.25 155.12,-20.25"/>
</a>
</g>
</g>
</g>
</svg>
