<?xml version="1.0" encoding="UTF-8" standalone="no"?>
<!DOCTYPE svg PUBLIC "-//W3C//DTD SVG 1.1//EN"
 "http://www.w3.org/Graphics/SVG/1.1/DTD/svg11.dtd">
<!-- Generated by graphviz version 13.1.2 (20250808.2320)
 -->
<!-- Title: rtype::NetworkServer::findPlayerIdByEndpoint Pages: 1 -->
<svg width="867pt" height="82pt"
 viewBox="0.00 0.00 867.00 82.00" xmlns="http://www.w3.org/2000/svg" xmlns:xlink="http://www.w3.org/1999/xlink">
<g id="graph0" class="graph" transform="scale(1 1) rotate(0) translate(4 77.5)">
<title>rtype::NetworkServer::findPlayerIdByEndpoint</title>
<!-- Node1 -->
<g id="Node000001" class="node">
<title>Node1</title>
<g id="a_Node000001"><a xlink:title="Finds the player ID associated with a given endpoint.">
<polygon fill="#999999" stroke="#666666" points="858.75,-55.5 723.5,-55.5 723.5,-22 858.75,-22 858.75,-55.5"/>
<text xml:space="preserve" text-anchor="start" x="731.5" y="-42" font-family="Helvetica,sans-Serif" font-size="10.00">rtype::NetworkServer</text>
<text xml:space="preserve" text-anchor="middle" x="791.12" y="-29.25" font-family="Helvetica,sans-Serif" font-size="10.00">::findPlayerIdByEndpoint</text>
</a>
</g>
</g>
<!-- Node2 -->
<g id="Node000002" class="node">
<title>Node2</title>
<g id="a_Node000002"><a xlink:href="classrtype_1_1NetworkServer.html#a05ad82c757407236bb242cdad5a741ba" target="_top" xlink:title="Dispatches incoming client packets to appropriate handlers.">
<polygon fill="white" stroke="#666666" points="531.25,-55.5 411,-55.5 411,-22 531.25,-22 531.25,-55.5"/>
<text xml:space="preserve" text-anchor="start" x="419" y="-42" font-family="Helvetica,sans-Serif" font-size="10.00">rtype::NetworkServer</text>
<text xml:space="preserve" text-anchor="middle" x="471.12" y="-29.25" font-family="Helvetica,sans-Serif" font-size="10.00">::handleClientPacket</text>
</a>
</g>
</g>
<!-- Node1&#45;&gt;Node2 -->
<g id="edge1_Node000001_Node000002" class="edge">
<title>Node1&#45;&gt;Node2</title>
<g id="a_edge1_Node000001_Node000002"><a xlink:title=" ">
<path fill="none" stroke="#63b8ff" d="M711.6,-42.12C703.46,-42.38 695.32,-42.6 687.5,-42.75 634.07,-43.79 620.68,-43.87 567.25,-42.75 555.76,-42.51 543.5,-42.1 531.74,-41.64"/>
<polygon fill="#63b8ff" stroke="#63b8ff" points="711.67,-45.62 721.55,-41.79 711.44,-38.63 711.67,-45.62"/>
</a>
</g>
</g>
<!-- Node6 -->
<g id="Node000006" class="node">
<title>Node6</title>
<g id="a_Node000006"><a xlink:href="classrtype_1_1NetworkServer.html#a60a048fa593944bfd90a6727d8909c6a" target="_top" xlink:title="Handles an INPUT packet from a client.">
<polygon fill="white" stroke="#666666" points="687.5,-33.5 567.25,-33.5 567.25,0 687.5,0 687.5,-33.5"/>
<text xml:space="preserve" text-anchor="start" x="575.25" y="-20" font-family="Helvetica,sans-Serif" font-size="10.00">rtype::NetworkServer</text>
<text xml:space="preserve" text-anchor="middle" x="627.38" y="-7.25" font-family="Helvetica,sans-Serif" font-size="10.00">::handleInputPacket</text>
</a>
</g>
</g>
<!-- Node1&#45;&gt;Node6 -->
<g id="edge6_Node000001_Node000006" class="edge">
<title>Node1&#45;&gt;Node6</title>
<g id="a_edge6_Node000001_Node000006"><a xlink:title=" ">
<path fill="none" stroke="#63b8ff" d="M712.02,-28.13C703.93,-27.03 695.8,-25.92 687.96,-24.85"/>
<polygon fill="#63b8ff" stroke="#63b8ff" points="711.52,-31.59 721.9,-29.47 712.46,-24.65 711.52,-31.59"/>
</a>
</g>
</g>
<!-- Node3 -->
<g id="Node000003" class="node">
<title>Node3</title>
<g id="a_Node000003"><a xlink:href="classrtype_1_1NetworkServer.html#ab476dc987640c09387071e1d3a30ba2f" target="_top" xlink:title="Asynchronously receives incoming UDP packets.">
<polygon fill="white" stroke="#666666" points="375,-55.5 254.75,-55.5 254.75,-22 375,-22 375,-55.5"/>
<text xml:space="preserve" text-anchor="start" x="262.75" y="-42" font-family="Helvetica,sans-Serif" font-size="10.00">rtype::NetworkServer</text>
<text xml:space="preserve" text-anchor="middle" x="314.88" y="-29.25" font-family="Helvetica,sans-Serif" font-size="10.00">::doReceive</text>
</a>
</g>
</g>
<!-- Node2&#45;&gt;Node3 -->
<g id="edge2_Node000002_Node000003" class="edge">
<title>Node2&#45;&gt;Node3</title>
<g id="a_edge2_Node000002_Node000003"><a xlink:title=" ">
<path fill="none" stroke="#63b8ff" d="M399.6,-38.75C391.52,-38.75 383.34,-38.75 375.42,-38.75"/>
<polygon fill="#63b8ff" stroke="#63b8ff" points="399.42,-42.25 409.42,-38.75 399.42,-35.25 399.42,-42.25"/>
</a>
</g>
</g>
<!-- Node3&#45;&gt;Node3 -->
<g id="edge3_Node000003_Node000003" class="edge">
<title>Node3&#45;&gt;Node3</title>
<g id="a_edge3_Node000003_Node000003"><a xlink:title=" ">
<path fill="none" stroke="#63b8ff" d="M341.11,-66.89C336.84,-70.85 328.09,-73.5 314.88,-73.5 291.38,-73.5 282.01,-65.12 286.79,-55.91"/>
<polygon fill="#63b8ff" stroke="#63b8ff" points="344.5,-67.85 342.71,-57.41 337.6,-66.68 344.5,-67.85"/>
</a>
</g>
</g>
<!-- Node4 -->
<g id="Node000004" class="node">
<title>Node4</title>
<g id="a_Node000004"><a xlink:href="classrtype_1_1NetworkServer.html#a707e4bd01554bc358fa8315c6552e468" target="_top" xlink:title="Runs the network server.">
<polygon fill="white" stroke="#666666" points="218.75,-49.12 76.75,-49.12 76.75,-28.38 218.75,-28.38 218.75,-49.12"/>
<text xml:space="preserve" text-anchor="middle" x="147.75" y="-35.62" font-family="Helvetica,sans-Serif" font-size="10.00">rtype::NetworkServer::run</text>
</a>
</g>
</g>
<!-- Node3&#45;&gt;Node4 -->
<g id="edge4_Node000003_Node000004" class="edge">
<title>Node3&#45;&gt;Node4</title>
<g id="a_edge4_Node000003_Node000004"><a xlink:title=" ">
<path fill="none" stroke="#63b8ff" d="M242.91,-38.75C235.06,-38.75 227.08,-38.75 219.24,-38.75"/>
<polygon fill="#63b8ff" stroke="#63b8ff" points="242.75,-42.25 252.75,-38.75 242.75,-35.25 242.75,-42.25"/>
</a>
</g>
</g>
<!-- Node5 -->
<g id="Node000005" class="node">
<title>Node5</title>
<g id="a_Node000005"><a xlink:href="main_8cpp.html#a3c04138a5bfe5d72780bb7e82a18e627" target="_top" xlink:title=" ">
<polygon fill="white" stroke="#666666" points="40.75,-49.12 0,-49.12 0,-28.38 40.75,-28.38 40.75,-49.12"/>
<text xml:space="preserve" text-anchor="middle" x="20.38" y="-35.62" font-family="Helvetica,sans-Serif" font-size="10.00">main</text>
</a>
</g>
</g>
<!-- Node4&#45;&gt;Node5 -->
<g id="edge5_Node000004_Node000005" class="edge">
<title>Node4&#45;&gt;Node5</title>
<g id="a_edge5_Node000004_Node000005"><a xlink:title=" ">
<path fill="none" stroke="#63b8ff" d="M65.01,-38.75C56.23,-38.75 48,-38.75 41.11,-38.75"/>
<polygon fill="#63b8ff" stroke="#63b8ff" points="64.85,-42.25 74.85,-38.75 64.85,-35.25 64.85,-42.25"/>
</a>
</g>
</g>
<!-- Node6&#45;&gt;Node2 -->
<g id="edge7_Node000006_Node000002" class="edge">
<title>Node6&#45;&gt;Node2</title>
<g id="a_edge7_Node000006_Node000002"><a xlink:title=" ">
<path fill="none" stroke="#63b8ff" d="M555.85,-26.81C547.77,-27.96 539.59,-29.13 531.67,-30.26"/>
<polygon fill="#63b8ff" stroke="#63b8ff" points="556.28,-30.28 565.68,-25.41 555.29,-23.35 556.28,-30.28"/>
</a>
</g>
</g>
</g>
</svg>
