<?xml version="1.0" encoding="UTF-8" standalone="no"?>
<!DOCTYPE svg PUBLIC "-//W3C//DTD SVG 1.1//EN"
 "http://www.w3.org/Graphics/SVG/1.1/DTD/svg11.dtd">
<!-- Generated by graphviz version 13.1.2 (20250808.2320)
 -->
<!-- Title: rtype::NetworkServer::handleJoinPacket Pages: 1 -->
<svg width="463pt" height="146pt"
 viewBox="0.00 0.00 463.00 146.00" xmlns="http://www.w3.org/2000/svg" xmlns:xlink="http://www.w3.org/1999/xlink">
<g id="graph0" class="graph" transform="scale(1 1) rotate(0) translate(4 141.5)">
<title>rtype::NetworkServer::handleJoinPacket</title>
<!-- Node1 -->
<g id="Node000001" class="node">
<title>Node1</title>
<g id="a_Node000001"><a xlink:title="Handles a JOIN packet from a client.">
<polygon fill="#999999" stroke="#666666" points="120.25,-85.5 0,-85.5 0,-52 120.25,-52 120.25,-85.5"/>
<text xml:space="preserve" text-anchor="start" x="8" y="-72" font-family="Helvetica,sans-Serif" font-size="10.00">rtype::NetworkServer</text>
<text xml:space="preserve" text-anchor="middle" x="60.12" y="-59.25" font-family="Helvetica,sans-Serif" font-size="10.00">::handleJoinPacket</text>
</a>
</g>
</g>
<!-- Node2 -->
<g id="Node000002" class="node">
<title>Node2</title>
<g id="a_Node000002"><a xlink:href="classrtype_1_1NetworkServer.html#ad358010634e573e4e1d553570b10f2b8" target="_top" xlink:title="Counts the number of active players connected to the server.">
<polygon fill="white" stroke="#666666" points="287.75,-137.5 167.5,-137.5 167.5,-104 287.75,-104 287.75,-137.5"/>
<text xml:space="preserve" text-anchor="start" x="175.5" y="-124" font-family="Helvetica,sans-Serif" font-size="10.00">rtype::NetworkServer</text>
<text xml:space="preserve" text-anchor="middle" x="227.62" y="-111.25" font-family="Helvetica,sans-Serif" font-size="10.00">::countActivePlayers</text>
</a>
</g>
</g>
<!-- Node1&#45;&gt;Node2 -->
<g id="edge1_Node000001_Node000002" class="edge">
<title>Node1&#45;&gt;Node2</title>
<g id="a_edge1_Node000001_Node000002"><a xlink:title=" ">
<path fill="none" stroke="#63b8ff" d="M115.77,-85.92C130.25,-90.47 146.02,-95.42 161.01,-100.13"/>
<polygon fill="#63b8ff" stroke="#63b8ff" points="159.72,-103.4 170.31,-103.05 161.82,-96.72 159.72,-103.4"/>
</a>
</g>
</g>
<!-- Node3 -->
<g id="Node000003" class="node">
<title>Node3</title>
<g id="a_Node000003"><a xlink:href="classrtype_1_1NetworkServer.html#a6ebc16823bcf312a4e57cdd862cfebc2" target="_top" xlink:title="Creates a player entity in the ECS with appropriate components.">
<polygon fill="white" stroke="#666666" points="287.75,-85.5 167.5,-85.5 167.5,-52 287.75,-52 287.75,-85.5"/>
<text xml:space="preserve" text-anchor="start" x="175.5" y="-72" font-family="Helvetica,sans-Serif" font-size="10.00">rtype::NetworkServer</text>
<text xml:space="preserve" text-anchor="middle" x="227.62" y="-59.25" font-family="Helvetica,sans-Serif" font-size="10.00">::createPlayerEntity</text>
</a>
</g>
</g>
<!-- Node1&#45;&gt;Node3 -->
<g id="edge2_Node000001_Node000003" class="edge">
<title>Node1&#45;&gt;Node3</title>
<g id="a_edge2_Node000001_Node000003"><a xlink:title=" ">
<path fill="none" stroke="#63b8ff" d="M120.41,-68.75C131.93,-68.75 144.12,-68.75 155.97,-68.75"/>
<polygon fill="#63b8ff" stroke="#63b8ff" points="155.69,-72.25 165.69,-68.75 155.69,-65.25 155.69,-72.25"/>
</a>
</g>
</g>
<!-- Node4 -->
<g id="Node000004" class="node">
<title>Node4</title>
<g id="a_Node000004"><a xlink:href="classrtype_1_1NetworkServer.html#a023fe1b710c0f504eb9142f707fea4f7" target="_top" xlink:title="Sends a PLAYER_ID_ASSIGNMENT packet to a client.">
<polygon fill="white" stroke="#666666" points="299,-33.5 156.25,-33.5 156.25,0 299,0 299,-33.5"/>
<text xml:space="preserve" text-anchor="start" x="164.25" y="-20" font-family="Helvetica,sans-Serif" font-size="10.00">rtype::NetworkServer</text>
<text xml:space="preserve" text-anchor="middle" x="227.62" y="-7.25" font-family="Helvetica,sans-Serif" font-size="10.00">::sendPlayerIdAssignment</text>
</a>
</g>
</g>
<!-- Node1&#45;&gt;Node4 -->
<g id="edge3_Node000001_Node000004" class="edge">
<title>Node1&#45;&gt;Node4</title>
<g id="a_edge3_Node000001_Node000004"><a xlink:title=" ">
<path fill="none" stroke="#63b8ff" d="M115.77,-51.58C130.25,-47.03 146.02,-42.08 161.01,-37.37"/>
<polygon fill="#63b8ff" stroke="#63b8ff" points="161.82,-40.78 170.31,-34.45 159.72,-34.1 161.82,-40.78"/>
</a>
</g>
</g>
<!-- Node5 -->
<g id="Node000005" class="node">
<title>Node5</title>
<g id="a_Node000005"><a xlink:href="classrtype_1_1NetworkServer.html#a0b8fd52383e5b2fd3a529162fd2ea46a" target="_top" xlink:title="Converts a value of type T to a vector of bytes.">
<polygon fill="white" stroke="#666666" points="455.25,-33.5 335,-33.5 335,0 455.25,0 455.25,-33.5"/>
<text xml:space="preserve" text-anchor="start" x="343" y="-20" font-family="Helvetica,sans-Serif" font-size="10.00">rtype::NetworkServer</text>
<text xml:space="preserve" text-anchor="middle" x="395.12" y="-7.25" font-family="Helvetica,sans-Serif" font-size="10.00">::toBytes</text>
</a>
</g>
</g>
<!-- Node4&#45;&gt;Node5 -->
<g id="edge4_Node000004_Node000005" class="edge">
<title>Node4&#45;&gt;Node5</title>
<g id="a_edge4_Node000004_Node000005"><a xlink:title=" ">
<path fill="none" stroke="#63b8ff" d="M299.29,-16.75C307.2,-16.75 315.26,-16.75 323.18,-16.75"/>
<polygon fill="#63b8ff" stroke="#63b8ff" points="323.12,-20.25 333.12,-16.75 323.12,-13.25 323.12,-20.25"/>
</a>
</g>
</g>
</g>
</svg>
