<?xml version="1.0" encoding="UTF-8" standalone="no"?>
<!DOCTYPE svg PUBLIC "-//W3C//DTD SVG 1.1//EN"
 "http://www.w3.org/Graphics/SVG/1.1/DTD/svg11.dtd">
<!-- Generated by graphviz version 13.1.2 (20250808.2320)
 -->
<!-- Title: rtype::NetworkServer::handleClientPacket Pages: 1 -->
<svg width="620pt" height="250pt"
 viewBox="0.00 0.00 620.00 250.00" xmlns="http://www.w3.org/2000/svg" xmlns:xlink="http://www.w3.org/1999/xlink">
<g id="graph0" class="graph" transform="scale(1 1) rotate(0) translate(4 245.5)">
<title>rtype::NetworkServer::handleClientPacket</title>
<!-- Node1 -->
<g id="Node000001" class="node">
<title>Node1</title>
<g id="a_Node000001"><a xlink:title="Dispatches incoming client packets to appropriate handlers.">
<polygon fill="#999999" stroke="#666666" points="120.25,-163.5 0,-163.5 0,-130 120.25,-130 120.25,-163.5"/>
<text xml:space="preserve" text-anchor="start" x="8" y="-150" font-family="Helvetica,sans-Serif" font-size="10.00">rtype::NetworkServer</text>
<text xml:space="preserve" text-anchor="middle" x="60.12" y="-137.25" font-family="Helvetica,sans-Serif" font-size="10.00">::handleClientPacket</text>
</a>
</g>
</g>
<!-- Node2 -->
<g id="Node000002" class="node">
<title>Node2</title>
<g id="a_Node000002"><a xlink:href="classrtype_1_1NetworkServer.html#a112083bc3f0a7ea93435653fcd59b086" target="_top" xlink:title="Finds the player ID associated with a given endpoint.">
<polygon fill="white" stroke="#666666" points="451.5,-241.5 316.25,-241.5 316.25,-208 451.5,-208 451.5,-241.5"/>
<text xml:space="preserve" text-anchor="start" x="324.25" y="-228" font-family="Helvetica,sans-Serif" font-size="10.00">rtype::NetworkServer</text>
<text xml:space="preserve" text-anchor="middle" x="383.88" y="-215.25" font-family="Helvetica,sans-Serif" font-size="10.00">::findPlayerIdByEndpoint</text>
</a>
</g>
</g>
<!-- Node1&#45;&gt;Node2 -->
<g id="edge1_Node000001_Node000002" class="edge">
<title>Node1&#45;&gt;Node2</title>
<g id="a_edge1_Node000001_Node000002"><a xlink:title=" ">
<path fill="none" stroke="#63b8ff" d="M86.15,-163.94C104.67,-175.76 130.95,-190.72 156.25,-198.75 204.08,-213.93 260.09,-220.45 304.46,-223.17"/>
<polygon fill="#63b8ff" stroke="#63b8ff" points="304.08,-226.65 314.26,-223.71 304.47,-219.66 304.08,-226.65"/>
</a>
</g>
</g>
<!-- Node3 -->
<g id="Node000003" class="node">
<title>Node3</title>
<g id="a_Node000003"><a xlink:href="classrtype_1_1NetworkServer.html#a60a048fa593944bfd90a6727d8909c6a" target="_top" xlink:title="Handles an INPUT packet from a client.">
<polygon fill="white" stroke="#666666" points="276.5,-189.5 156.25,-189.5 156.25,-156 276.5,-156 276.5,-189.5"/>
<text xml:space="preserve" text-anchor="start" x="164.25" y="-176" font-family="Helvetica,sans-Serif" font-size="10.00">rtype::NetworkServer</text>
<text xml:space="preserve" text-anchor="middle" x="216.38" y="-163.25" font-family="Helvetica,sans-Serif" font-size="10.00">::handleInputPacket</text>
</a>
</g>
</g>
<!-- Node1&#45;&gt;Node3 -->
<g id="edge2_Node000001_Node000003" class="edge">
<title>Node1&#45;&gt;Node3</title>
<g id="a_edge2_Node000001_Node000003"><a xlink:title=" ">
<path fill="none" stroke="#63b8ff" d="M120.32,-156.73C128.23,-158.06 136.41,-159.44 144.5,-160.8"/>
<polygon fill="#63b8ff" stroke="#63b8ff" points="143.89,-164.25 154.34,-162.46 145.06,-157.35 143.89,-164.25"/>
</a>
</g>
</g>
<!-- Node5 -->
<g id="Node000005" class="node">
<title>Node5</title>
<g id="a_Node000005"><a xlink:href="classrtype_1_1NetworkServer.html#a612253ba0d3caeeac99f4fe52a5a2b4a" target="_top" xlink:title="Handles a JOIN packet from a client.">
<polygon fill="white" stroke="#666666" points="276.5,-137.5 156.25,-137.5 156.25,-104 276.5,-104 276.5,-137.5"/>
<text xml:space="preserve" text-anchor="start" x="164.25" y="-124" font-family="Helvetica,sans-Serif" font-size="10.00">rtype::NetworkServer</text>
<text xml:space="preserve" text-anchor="middle" x="216.38" y="-111.25" font-family="Helvetica,sans-Serif" font-size="10.00">::handleJoinPacket</text>
</a>
</g>
</g>
<!-- Node1&#45;&gt;Node5 -->
<g id="edge5_Node000001_Node000005" class="edge">
<title>Node1&#45;&gt;Node5</title>
<g id="a_edge5_Node000001_Node000005"><a xlink:title=" ">
<path fill="none" stroke="#63b8ff" d="M120.32,-136.77C128.23,-135.44 136.41,-134.06 144.5,-132.7"/>
<polygon fill="#63b8ff" stroke="#63b8ff" points="145.06,-136.15 154.34,-131.04 143.89,-129.25 145.06,-136.15"/>
</a>
</g>
</g>
<!-- Node10 -->
<g id="Node000010" class="node">
<title>Node10</title>
<g id="a_Node000010"><a xlink:href="classrtype_1_1NetworkServer.html#a022c5d221a022804160b187fbb8fe036" target="_top" xlink:title="Converts a PacketType enum to its string representation.">
<polygon fill="white" stroke="#666666" points="276.5,-85.5 156.25,-85.5 156.25,-52 276.5,-52 276.5,-85.5"/>
<text xml:space="preserve" text-anchor="start" x="164.25" y="-72" font-family="Helvetica,sans-Serif" font-size="10.00">rtype::NetworkServer</text>
<text xml:space="preserve" text-anchor="middle" x="216.38" y="-59.25" font-family="Helvetica,sans-Serif" font-size="10.00">::packetTypeToString</text>
</a>
</g>
</g>
<!-- Node1&#45;&gt;Node10 -->
<g id="edge10_Node000001_Node000010" class="edge">
<title>Node1&#45;&gt;Node10</title>
<g id="a_edge10_Node000001_Node000010"><a xlink:title=" ">
<path fill="none" stroke="#63b8ff" d="M90.77,-129.69C109.36,-119.2 133.96,-105.72 156.25,-94.75 158.99,-93.4 161.81,-92.05 164.66,-90.71"/>
<polygon fill="#63b8ff" stroke="#63b8ff" points="166.09,-93.9 173.71,-86.54 163.16,-87.54 166.09,-93.9"/>
</a>
</g>
</g>
<!-- Node3&#45;&gt;Node2 -->
<g id="edge4_Node000003_Node000002" class="edge">
<title>Node3&#45;&gt;Node2</title>
<g id="a_edge4_Node000003_Node000002"><a xlink:title=" ">
<path fill="none" stroke="#63b8ff" d="M272.02,-189.92C286.5,-194.47 302.27,-199.42 317.26,-204.13"/>
<polygon fill="#63b8ff" stroke="#63b8ff" points="315.97,-207.4 326.56,-207.05 318.07,-200.72 315.97,-207.4"/>
</a>
</g>
</g>
<!-- Node4 -->
<g id="Node000004" class="node">
<title>Node4</title>
<g id="a_Node000004"><a xlink:href="classrtype_1_1NetworkServer.html#a6624176a236d4b97711c1ebb90a86918" target="_top" xlink:title="Applies input actions to a player&#39;s entity.">
<polygon fill="white" stroke="#666666" points="444,-189.5 323.75,-189.5 323.75,-156 444,-156 444,-189.5"/>
<text xml:space="preserve" text-anchor="start" x="331.75" y="-176" font-family="Helvetica,sans-Serif" font-size="10.00">rtype::NetworkServer</text>
<text xml:space="preserve" text-anchor="middle" x="383.88" y="-163.25" font-family="Helvetica,sans-Serif" font-size="10.00">::applyInputToEntity</text>
</a>
</g>
</g>
<!-- Node3&#45;&gt;Node4 -->
<g id="edge3_Node000003_Node000004" class="edge">
<title>Node3&#45;&gt;Node4</title>
<g id="a_edge3_Node000003_Node000004"><a xlink:title=" ">
<path fill="none" stroke="#63b8ff" d="M276.66,-172.75C288.18,-172.75 300.37,-172.75 312.22,-172.75"/>
<polygon fill="#63b8ff" stroke="#63b8ff" points="311.94,-176.25 321.94,-172.75 311.94,-169.25 311.94,-176.25"/>
</a>
</g>
</g>
<!-- Node6 -->
<g id="Node000006" class="node">
<title>Node6</title>
<g id="a_Node000006"><a xlink:href="classrtype_1_1NetworkServer.html#ad358010634e573e4e1d553570b10f2b8" target="_top" xlink:title="Counts the number of active players connected to the server.">
<polygon fill="white" stroke="#666666" points="444,-137.5 323.75,-137.5 323.75,-104 444,-104 444,-137.5"/>
<text xml:space="preserve" text-anchor="start" x="331.75" y="-124" font-family="Helvetica,sans-Serif" font-size="10.00">rtype::NetworkServer</text>
<text xml:space="preserve" text-anchor="middle" x="383.88" y="-111.25" font-family="Helvetica,sans-Serif" font-size="10.00">::countActivePlayers</text>
</a>
</g>
</g>
<!-- Node5&#45;&gt;Node6 -->
<g id="edge6_Node000005_Node000006" class="edge">
<title>Node5&#45;&gt;Node6</title>
<g id="a_edge6_Node000005_Node000006"><a xlink:title=" ">
<path fill="none" stroke="#63b8ff" d="M276.66,-120.75C288.18,-120.75 300.37,-120.75 312.22,-120.75"/>
<polygon fill="#63b8ff" stroke="#63b8ff" points="311.94,-124.25 321.94,-120.75 311.94,-117.25 311.94,-124.25"/>
</a>
</g>
</g>
<!-- Node7 -->
<g id="Node000007" class="node">
<title>Node7</title>
<g id="a_Node000007"><a xlink:href="classrtype_1_1NetworkServer.html#a6ebc16823bcf312a4e57cdd862cfebc2" target="_top" xlink:title="Creates a player entity in the ECS with appropriate components.">
<polygon fill="white" stroke="#666666" points="444,-85.5 323.75,-85.5 323.75,-52 444,-52 444,-85.5"/>
<text xml:space="preserve" text-anchor="start" x="331.75" y="-72" font-family="Helvetica,sans-Serif" font-size="10.00">rtype::NetworkServer</text>
<text xml:space="preserve" text-anchor="middle" x="383.88" y="-59.25" font-family="Helvetica,sans-Serif" font-size="10.00">::createPlayerEntity</text>
</a>
</g>
</g>
<!-- Node5&#45;&gt;Node7 -->
<g id="edge7_Node000005_Node000007" class="edge">
<title>Node5&#45;&gt;Node7</title>
<g id="a_edge7_Node000005_Node000007"><a xlink:title=" ">
<path fill="none" stroke="#63b8ff" d="M272.02,-103.58C286.5,-99.03 302.27,-94.08 317.26,-89.37"/>
<polygon fill="#63b8ff" stroke="#63b8ff" points="318.07,-92.78 326.56,-86.45 315.97,-86.1 318.07,-92.78"/>
</a>
</g>
</g>
<!-- Node8 -->
<g id="Node000008" class="node">
<title>Node8</title>
<g id="a_Node000008"><a xlink:href="classrtype_1_1NetworkServer.html#a023fe1b710c0f504eb9142f707fea4f7" target="_top" xlink:title="Sends a PLAYER_ID_ASSIGNMENT packet to a client.">
<polygon fill="white" stroke="#666666" points="455.25,-33.5 312.5,-33.5 312.5,0 455.25,0 455.25,-33.5"/>
<text xml:space="preserve" text-anchor="start" x="320.5" y="-20" font-family="Helvetica,sans-Serif" font-size="10.00">rtype::NetworkServer</text>
<text xml:space="preserve" text-anchor="middle" x="383.88" y="-7.25" font-family="Helvetica,sans-Serif" font-size="10.00">::sendPlayerIdAssignment</text>
</a>
</g>
</g>
<!-- Node5&#45;&gt;Node8 -->
<g id="edge8_Node000005_Node000008" class="edge">
<title>Node5&#45;&gt;Node8</title>
<g id="a_edge8_Node000005_Node000008"><a xlink:title=" ">
<path fill="none" stroke="#63b8ff" d="M263.43,-103.59C268.06,-100.97 272.52,-98.03 276.5,-94.75 298.18,-76.86 290.29,-59.97 312.5,-42.75 313.99,-41.6 315.53,-40.49 317.12,-39.43"/>
<polygon fill="#63b8ff" stroke="#63b8ff" points="318.47,-42.7 325.32,-34.62 314.92,-36.66 318.47,-42.7"/>
</a>
</g>
</g>
<!-- Node9 -->
<g id="Node000009" class="node">
<title>Node9</title>
<g id="a_Node000009"><a xlink:href="classrtype_1_1NetworkServer.html#a0b8fd52383e5b2fd3a529162fd2ea46a" target="_top" xlink:title="Converts a value of type T to a vector of bytes.">
<polygon fill="white" stroke="#666666" points="611.5,-33.5 491.25,-33.5 491.25,0 611.5,0 611.5,-33.5"/>
<text xml:space="preserve" text-anchor="start" x="499.25" y="-20" font-family="Helvetica,sans-Serif" font-size="10.00">rtype::NetworkServer</text>
<text xml:space="preserve" text-anchor="middle" x="551.38" y="-7.25" font-family="Helvetica,sans-Serif" font-size="10.00">::toBytes</text>
</a>
</g>
</g>
<!-- Node8&#45;&gt;Node9 -->
<g id="edge9_Node000008_Node000009" class="edge">
<title>Node8&#45;&gt;Node9</title>
<g id="a_edge9_Node000008_Node000009"><a xlink:title=" ">
<path fill="none" stroke="#63b8ff" d="M455.54,-16.75C463.45,-16.75 471.51,-16.75 479.43,-16.75"/>
<polygon fill="#63b8ff" stroke="#63b8ff" points="479.37,-20.25 489.37,-16.75 479.37,-13.25 479.37,-20.25"/>
</a>
</g>
</g>
</g>
</svg>
