<?xml version="1.0" encoding="UTF-8" standalone="no"?>
<!DOCTYPE svg PUBLIC "-//W3C//DTD SVG 1.1//EN"
 "http://www.w3.org/Graphics/SVG/1.1/DTD/svg11.dtd">
<!-- Generated by graphviz version 13.1.2 (20250808.2320)
 -->
<!-- Title: rtype::NetworkServer::broadcastSnapshot Pages: 1 -->
<svg width="441pt" height="80pt"
 viewBox="0.00 0.00 441.00 80.00" xmlns="http://www.w3.org/2000/svg" xmlns:xlink="http://www.w3.org/1999/xlink">
<g id="graph0" class="graph" transform="scale(1 1) rotate(0) translate(4 76.12)">
<title>rtype::NetworkServer::broadcastSnapshot</title>
<!-- Node1 -->
<g id="Node000001" class="node">
<title>Node1</title>
<g id="a_Node000001"><a xlink:title="Broadcasts the current ECS snapshot to all connected clients.">
<polygon fill="#999999" stroke="#666666" points="120.25,-55.5 0,-55.5 0,-22 120.25,-22 120.25,-55.5"/>
<text xml:space="preserve" text-anchor="start" x="8" y="-42" font-family="Helvetica,sans-Serif" font-size="10.00">rtype::NetworkServer</text>
<text xml:space="preserve" text-anchor="middle" x="60.12" y="-29.25" font-family="Helvetica,sans-Serif" font-size="10.00">::broadcastSnapshot</text>
</a>
</g>
</g>
<!-- Node2 -->
<g id="Node000002" class="node">
<title>Node2</title>
<g id="a_Node000002"><a xlink:href="classrtype_1_1NetworkServer.html#adf29c7e182238848447d6b05884105ae" target="_top" xlink:title="Serializes the current ECS state into a snapshot packet.">
<polygon fill="white" stroke="#666666" points="276.5,-55.5 156.25,-55.5 156.25,-22 276.5,-22 276.5,-55.5"/>
<text xml:space="preserve" text-anchor="start" x="164.25" y="-42" font-family="Helvetica,sans-Serif" font-size="10.00">rtype::NetworkServer</text>
<text xml:space="preserve" text-anchor="middle" x="216.38" y="-29.25" font-family="Helvetica,sans-Serif" font-size="10.00">::serializeSnapshot</text>
</a>
</g>
</g>
<!-- Node1&#45;&gt;Node2 -->
<g id="edge1_Node000001_Node000002" class="edge">
<title>Node1&#45;&gt;Node2</title>
<g id="a_edge1_Node000001_Node000002"><a xlink:title=" ">
<path fill="none" stroke="#63b8ff" d="M120.32,-38.75C128.23,-38.75 136.41,-38.75 144.5,-38.75"/>
<polygon fill="#63b8ff" stroke="#63b8ff" points="144.31,-42.25 154.31,-38.75 144.31,-35.25 144.31,-42.25"/>
</a>
</g>
</g>
<!-- Node3 -->
<g id="Node000003" class="node">
<title>Node3</title>
<g id="a_Node000003"><a xlink:href="NetworkServer_8cpp.html#a053b64d0725ca7fc6decff0d6d24f231" target="_top" xlink:title="Converts a float to a vector of 4 bytes.">
<polygon fill="white" stroke="#666666" points="410.62,-72.12 334.62,-72.12 334.62,-51.38 410.62,-51.38 410.62,-72.12"/>
<text xml:space="preserve" text-anchor="middle" x="372.62" y="-58.62" font-family="Helvetica,sans-Serif" font-size="10.00">floatToBytes</text>
</a>
</g>
</g>
<!-- Node2&#45;&gt;Node3 -->
<g id="edge2_Node000002_Node000003" class="edge">
<title>Node2&#45;&gt;Node3</title>
<g id="a_edge2_Node000002_Node000003"><a xlink:title=" ">
<path fill="none" stroke="#63b8ff" d="M276.57,-47.58C292.01,-49.88 308.46,-52.33 323.26,-54.54"/>
<polygon fill="#63b8ff" stroke="#63b8ff" points="322.31,-57.93 332.71,-55.95 323.34,-51.01 322.31,-57.93"/>
</a>
</g>
</g>
<!-- Node4 -->
<g id="Node000004" class="node">
<title>Node4</title>
<g id="a_Node000004"><a xlink:href="classrtype_1_1NetworkServer.html#a0b8fd52383e5b2fd3a529162fd2ea46a" target="_top" xlink:title="Converts a value of type T to a vector of bytes.">
<polygon fill="white" stroke="#666666" points="432.75,-33.5 312.5,-33.5 312.5,0 432.75,0 432.75,-33.5"/>
<text xml:space="preserve" text-anchor="start" x="320.5" y="-20" font-family="Helvetica,sans-Serif" font-size="10.00">rtype::NetworkServer</text>
<text xml:space="preserve" text-anchor="middle" x="372.62" y="-7.25" font-family="Helvetica,sans-Serif" font-size="10.00">::toBytes</text>
</a>
</g>
</g>
<!-- Node2&#45;&gt;Node4 -->
<g id="edge3_Node000002_Node000004" class="edge">
<title>Node2&#45;&gt;Node4</title>
<g id="a_edge3_Node000002_Node000004"><a xlink:title=" ">
<path fill="none" stroke="#63b8ff" d="M276.57,-30.31C284.48,-29.18 292.66,-28.01 300.75,-26.86"/>
<polygon fill="#63b8ff" stroke="#63b8ff" points="301.17,-30.33 310.58,-25.46 300.19,-23.4 301.17,-30.33"/>
</a>
</g>
</g>
</g>
</svg>
