<?xml version="1.0" encoding="UTF-8" standalone="no"?>
<!DOCTYPE svg PUBLIC "-//W3C//DTD SVG 1.1//EN"
 "http://www.w3.org/Graphics/SVG/1.1/DTD/svg11.dtd">
<!-- Generated by graphviz version 13.1.2 (20250808.2320)
 -->
<!-- Title: rtype::NetworkServer::serializeSnapshot Pages: 1 -->
<svg width="285pt" height="80pt"
 viewBox="0.00 0.00 285.00 80.00" xmlns="http://www.w3.org/2000/svg" xmlns:xlink="http://www.w3.org/1999/xlink">
<g id="graph0" class="graph" transform="scale(1 1) rotate(0) translate(4 76.12)">
<title>rtype::NetworkServer::serializeSnapshot</title>
<!-- Node1 -->
<g id="Node000001" class="node">
<title>Node1</title>
<g id="a_Node000001"><a xlink:title="Serializes the current ECS state into a snapshot packet.">
<polygon fill="#999999" stroke="#666666" points="120.25,-55.5 0,-55.5 0,-22 120.25,-22 120.25,-55.5"/>
<text xml:space="preserve" text-anchor="start" x="8" y="-42" font-family="Helvetica,sans-Serif" font-size="10.00">rtype::NetworkServer</text>
<text xml:space="preserve" text-anchor="middle" x="60.12" y="-29.25" font-family="Helvetica,sans-Serif" font-size="10.00">::serializeSnapshot</text>
</a>
</g>
</g>
<!-- Node2 -->
<g id="Node000002" class="node">
<title>Node2</title>
<g id="a_Node000002"><a xlink:href="NetworkServer_8cpp.html#a053b64d0725ca7fc6decff0d6d24f231" target="_top" xlink:title="Converts a float to a vector of 4 bytes.">
<polygon fill="white" stroke="#666666" points="254.38,-72.12 178.38,-72.12 178.38,-51.38 254.38,-51.38 254.38,-72.12"/>
<text xml:space="preserve" text-anchor="middle" x="216.38" y="-58.62" font-family="Helvetica,sans-Serif" font-size="10.00">floatToBytes</text>
</a>
</g>
</g>
<!-- Node1&#45;&gt;Node2 -->
<g id="edge1_Node000001_Node000002" class="edge">
<title>Node1&#45;&gt;Node2</title>
<g id="a_edge1_Node000001_Node000002"><a xlink:title=" ">
<path fill="none" stroke="#63b8ff" d="M120.32,-47.58C135.76,-49.88 152.21,-52.33 167.01,-54.54"/>
<polygon fill="#63b8ff" stroke="#63b8ff" points="166.06,-57.93 176.46,-55.95 167.09,-51.01 166.06,-57.93"/>
</a>
</g>
</g>
<!-- Node3 -->
<g id="Node000003" class="node">
<title>Node3</title>
<g id="a_Node000003"><a xlink:href="classrtype_1_1NetworkServer.html#a0b8fd52383e5b2fd3a529162fd2ea46a" target="_top" xlink:title="Converts a value of type T to a vector of bytes.">
<polygon fill="white" stroke="#666666" points="276.5,-33.5 156.25,-33.5 156.25,0 276.5,0 276.5,-33.5"/>
<text xml:space="preserve" text-anchor="start" x="164.25" y="-20" font-family="Helvetica,sans-Serif" font-size="10.00">rtype::NetworkServer</text>
<text xml:space="preserve" text-anchor="middle" x="216.38" y="-7.25" font-family="Helvetica,sans-Serif" font-size="10.00">::toBytes</text>
</a>
</g>
</g>
<!-- Node1&#45;&gt;Node3 -->
<g id="edge2_Node000001_Node000003" class="edge">
<title>Node1&#45;&gt;Node3</title>
<g id="a_edge2_Node000001_Node000003"><a xlink:title=" ">
<path fill="none" stroke="#63b8ff" d="M120.32,-30.31C128.23,-29.18 136.41,-28.01 144.5,-26.86"/>
<polygon fill="#63b8ff" stroke="#63b8ff" points="144.92,-30.33 154.33,-25.46 143.94,-23.4 144.92,-30.33"/>
</a>
</g>
</g>
</g>
</svg>
