<?xml version="1.0" encoding="UTF-8" standalone="no"?>
<!DOCTYPE svg PUBLIC "-//W3C//DTD SVG 1.1//EN"
 "http://www.w3.org/Graphics/SVG/1.1/DTD/svg11.dtd">
<!-- Generated by graphviz version 13.1.2 (20250808.2320)
 -->
<!-- Title: rtype::NetworkServer::doReceive Pages: 1 -->
<svg width="776pt" height="250pt"
 viewBox="0.00 0.00 776.00 250.00" xmlns="http://www.w3.org/2000/svg" xmlns:xlink="http://www.w3.org/1999/xlink">
<g id="graph0" class="graph" transform="scale(1 1) rotate(0) translate(4 245.5)">
<title>rtype::NetworkServer::doReceive</title>
<!-- Node1 -->
<g id="Node000001" class="node">
<title>Node1</title>
<g id="a_Node000001"><a xlink:title="Asynchronously receives incoming UDP packets.">
<polygon fill="#999999" stroke="#666666" points="120.25,-189.5 0,-189.5 0,-156 120.25,-156 120.25,-189.5"/>
<text xml:space="preserve" text-anchor="start" x="8" y="-176" font-family="Helvetica,sans-Serif" font-size="10.00">rtype::NetworkServer</text>
<text xml:space="preserve" text-anchor="middle" x="60.12" y="-163.25" font-family="Helvetica,sans-Serif" font-size="10.00">::doReceive</text>
</a>
</g>
</g>
<!-- Node1&#45;&gt;Node1 -->
<g id="edge1_Node000001_Node000001" class="edge">
<title>Node1&#45;&gt;Node1</title>
<g id="a_edge1_Node000001_Node000001"><a xlink:title=" ">
<path fill="none" stroke="#63b8ff" d="M32.04,-189.91C27.26,-199.12 36.63,-207.5 60.12,-207.5 73.34,-207.5 82.09,-204.85 86.36,-200.89"/>
<polygon fill="#63b8ff" stroke="#63b8ff" points="89.75,-201.85 87.96,-191.41 82.85,-200.68 89.75,-201.85"/>
</a>
</g>
</g>
<!-- Node2 -->
<g id="Node000002" class="node">
<title>Node2</title>
<g id="a_Node000002"><a xlink:href="classrtype_1_1NetworkServer.html#a5d5a2e16ab81f96da8ec2d795ff77070" target="_top" xlink:title="Converts a byte array to a value of type T.">
<polygon fill="white" stroke="#666666" points="276.5,-215.5 156.25,-215.5 156.25,-182 276.5,-182 276.5,-215.5"/>
<text xml:space="preserve" text-anchor="start" x="164.25" y="-202" font-family="Helvetica,sans-Serif" font-size="10.00">rtype::NetworkServer</text>
<text xml:space="preserve" text-anchor="middle" x="216.38" y="-189.25" font-family="Helvetica,sans-Serif" font-size="10.00">::fromBytes</text>
</a>
</g>
</g>
<!-- Node1&#45;&gt;Node2 -->
<g id="edge2_Node000001_Node000002" class="edge">
<title>Node1&#45;&gt;Node2</title>
<g id="a_edge2_Node000001_Node000002"><a xlink:title=" ">
<path fill="none" stroke="#63b8ff" d="M120.32,-182.73C128.23,-184.06 136.41,-185.44 144.5,-186.8"/>
<polygon fill="#63b8ff" stroke="#63b8ff" points="143.89,-190.25 154.34,-188.46 145.06,-183.35 143.89,-190.25"/>
</a>
</g>
</g>
<!-- Node3 -->
<g id="Node000003" class="node">
<title>Node3</title>
<g id="a_Node000003"><a xlink:href="classrtype_1_1NetworkServer.html#a05ad82c757407236bb242cdad5a741ba" target="_top" xlink:title="Dispatches incoming client packets to appropriate handlers.">
<polygon fill="white" stroke="#666666" points="276.5,-163.5 156.25,-163.5 156.25,-130 276.5,-130 276.5,-163.5"/>
<text xml:space="preserve" text-anchor="start" x="164.25" y="-150" font-family="Helvetica,sans-Serif" font-size="10.00">rtype::NetworkServer</text>
<text xml:space="preserve" text-anchor="middle" x="216.38" y="-137.25" font-family="Helvetica,sans-Serif" font-size="10.00">::handleClientPacket</text>
</a>
</g>
</g>
<!-- Node1&#45;&gt;Node3 -->
<g id="edge3_Node000001_Node000003" class="edge">
<title>Node1&#45;&gt;Node3</title>
<g id="a_edge3_Node000001_Node000003"><a xlink:title=" ">
<path fill="none" stroke="#63b8ff" d="M120.32,-162.77C128.23,-161.44 136.41,-160.06 144.5,-158.7"/>
<polygon fill="#63b8ff" stroke="#63b8ff" points="145.06,-162.15 154.34,-157.04 143.89,-155.25 145.06,-162.15"/>
</a>
</g>
</g>
<!-- Node4 -->
<g id="Node000004" class="node">
<title>Node4</title>
<g id="a_Node000004"><a xlink:href="classrtype_1_1NetworkServer.html#a112083bc3f0a7ea93435653fcd59b086" target="_top" xlink:title="Finds the player ID associated with a given endpoint.">
<polygon fill="white" stroke="#666666" points="607.75,-241.5 472.5,-241.5 472.5,-208 607.75,-208 607.75,-241.5"/>
<text xml:space="preserve" text-anchor="start" x="480.5" y="-228" font-family="Helvetica,sans-Serif" font-size="10.00">rtype::NetworkServer</text>
<text xml:space="preserve" text-anchor="middle" x="540.12" y="-215.25" font-family="Helvetica,sans-Serif" font-size="10.00">::findPlayerIdByEndpoint</text>
</a>
</g>
</g>
<!-- Node3&#45;&gt;Node4 -->
<g id="edge4_Node000003_Node000004" class="edge">
<title>Node3&#45;&gt;Node4</title>
<g id="a_edge4_Node000003_Node000004"><a xlink:title=" ">
<path fill="none" stroke="#63b8ff" d="M259.59,-164C265.37,-166.74 271.15,-169.69 276.5,-172.75 293.63,-182.55 294.1,-191.62 312.5,-198.75 359.55,-216.99 415.9,-223.51 460.64,-225.47"/>
<polygon fill="#63b8ff" stroke="#63b8ff" points="460.41,-228.96 470.53,-225.82 460.66,-221.96 460.41,-228.96"/>
</a>
</g>
</g>
<!-- Node5 -->
<g id="Node000005" class="node">
<title>Node5</title>
<g id="a_Node000005"><a xlink:href="classrtype_1_1NetworkServer.html#a60a048fa593944bfd90a6727d8909c6a" target="_top" xlink:title="Handles an INPUT packet from a client.">
<polygon fill="white" stroke="#666666" points="432.75,-189.5 312.5,-189.5 312.5,-156 432.75,-156 432.75,-189.5"/>
<text xml:space="preserve" text-anchor="start" x="320.5" y="-176" font-family="Helvetica,sans-Serif" font-size="10.00">rtype::NetworkServer</text>
<text xml:space="preserve" text-anchor="middle" x="372.62" y="-163.25" font-family="Helvetica,sans-Serif" font-size="10.00">::handleInputPacket</text>
</a>
</g>
</g>
<!-- Node3&#45;&gt;Node5 -->
<g id="edge5_Node000003_Node000005" class="edge">
<title>Node3&#45;&gt;Node5</title>
<g id="a_edge5_Node000003_Node000005"><a xlink:title=" ">
<path fill="none" stroke="#63b8ff" d="M276.57,-156.73C284.48,-158.06 292.66,-159.44 300.75,-160.8"/>
<polygon fill="#63b8ff" stroke="#63b8ff" points="300.14,-164.25 310.59,-162.46 301.31,-157.35 300.14,-164.25"/>
</a>
</g>
</g>
<!-- Node7 -->
<g id="Node000007" class="node">
<title>Node7</title>
<g id="a_Node000007"><a xlink:href="classrtype_1_1NetworkServer.html#a612253ba0d3caeeac99f4fe52a5a2b4a" target="_top" xlink:title="Handles a JOIN packet from a client.">
<polygon fill="white" stroke="#666666" points="432.75,-137.5 312.5,-137.5 312.5,-104 432.75,-104 432.75,-137.5"/>
<text xml:space="preserve" text-anchor="start" x="320.5" y="-124" font-family="Helvetica,sans-Serif" font-size="10.00">rtype::NetworkServer</text>
<text xml:space="preserve" text-anchor="middle" x="372.62" y="-111.25" font-family="Helvetica,sans-Serif" font-size="10.00">::handleJoinPacket</text>
</a>
</g>
</g>
<!-- Node3&#45;&gt;Node7 -->
<g id="edge8_Node000003_Node000007" class="edge">
<title>Node3&#45;&gt;Node7</title>
<g id="a_edge8_Node000003_Node000007"><a xlink:title=" ">
<path fill="none" stroke="#63b8ff" d="M276.57,-136.77C284.48,-135.44 292.66,-134.06 300.75,-132.7"/>
<polygon fill="#63b8ff" stroke="#63b8ff" points="301.31,-136.15 310.59,-131.04 300.14,-129.25 301.31,-136.15"/>
</a>
</g>
</g>
<!-- Node12 -->
<g id="Node000012" class="node">
<title>Node12</title>
<g id="a_Node000012"><a xlink:href="classrtype_1_1NetworkServer.html#a022c5d221a022804160b187fbb8fe036" target="_top" xlink:title="Converts a PacketType enum to its string representation.">
<polygon fill="white" stroke="#666666" points="432.75,-85.5 312.5,-85.5 312.5,-52 432.75,-52 432.75,-85.5"/>
<text xml:space="preserve" text-anchor="start" x="320.5" y="-72" font-family="Helvetica,sans-Serif" font-size="10.00">rtype::NetworkServer</text>
<text xml:space="preserve" text-anchor="middle" x="372.62" y="-59.25" font-family="Helvetica,sans-Serif" font-size="10.00">::packetTypeToString</text>
</a>
</g>
</g>
<!-- Node3&#45;&gt;Node12 -->
<g id="edge13_Node000003_Node000012" class="edge">
<title>Node3&#45;&gt;Node12</title>
<g id="a_edge13_Node000003_Node000012"><a xlink:title=" ">
<path fill="none" stroke="#63b8ff" d="M247.02,-129.69C265.61,-119.2 290.21,-105.72 312.5,-94.75 315.24,-93.4 318.06,-92.05 320.91,-90.71"/>
<polygon fill="#63b8ff" stroke="#63b8ff" points="322.34,-93.9 329.96,-86.54 319.41,-87.54 322.34,-93.9"/>
</a>
</g>
</g>
<!-- Node5&#45;&gt;Node4 -->
<g id="edge7_Node000005_Node000004" class="edge">
<title>Node5&#45;&gt;Node4</title>
<g id="a_edge7_Node000005_Node000004"><a xlink:title=" ">
<path fill="none" stroke="#63b8ff" d="M428.27,-189.92C442.75,-194.47 458.52,-199.42 473.51,-204.13"/>
<polygon fill="#63b8ff" stroke="#63b8ff" points="472.22,-207.4 482.81,-207.05 474.32,-200.72 472.22,-207.4"/>
</a>
</g>
</g>
<!-- Node6 -->
<g id="Node000006" class="node">
<title>Node6</title>
<g id="a_Node000006"><a xlink:href="classrtype_1_1NetworkServer.html#a6624176a236d4b97711c1ebb90a86918" target="_top" xlink:title="Applies input actions to a player&#39;s entity.">
<polygon fill="white" stroke="#666666" points="600.25,-189.5 480,-189.5 480,-156 600.25,-156 600.25,-189.5"/>
<text xml:space="preserve" text-anchor="start" x="488" y="-176" font-family="Helvetica,sans-Serif" font-size="10.00">rtype::NetworkServer</text>
<text xml:space="preserve" text-anchor="middle" x="540.12" y="-163.25" font-family="Helvetica,sans-Serif" font-size="10.00">::applyInputToEntity</text>
</a>
</g>
</g>
<!-- Node5&#45;&gt;Node6 -->
<g id="edge6_Node000005_Node000006" class="edge">
<title>Node5&#45;&gt;Node6</title>
<g id="a_edge6_Node000005_Node000006"><a xlink:title=" ">
<path fill="none" stroke="#63b8ff" d="M432.91,-172.75C444.43,-172.75 456.62,-172.75 468.47,-172.75"/>
<polygon fill="#63b8ff" stroke="#63b8ff" points="468.19,-176.25 478.19,-172.75 468.19,-169.25 468.19,-176.25"/>
</a>
</g>
</g>
<!-- Node8 -->
<g id="Node000008" class="node">
<title>Node8</title>
<g id="a_Node000008"><a xlink:href="classrtype_1_1NetworkServer.html#ad358010634e573e4e1d553570b10f2b8" target="_top" xlink:title="Counts the number of active players connected to the server.">
<polygon fill="white" stroke="#666666" points="600.25,-137.5 480,-137.5 480,-104 600.25,-104 600.25,-137.5"/>
<text xml:space="preserve" text-anchor="start" x="488" y="-124" font-family="Helvetica,sans-Serif" font-size="10.00">rtype::NetworkServer</text>
<text xml:space="preserve" text-anchor="middle" x="540.12" y="-111.25" font-family="Helvetica,sans-Serif" font-size="10.00">::countActivePlayers</text>
</a>
</g>
</g>
<!-- Node7&#45;&gt;Node8 -->
<g id="edge9_Node000007_Node000008" class="edge">
<title>Node7&#45;&gt;Node8</title>
<g id="a_edge9_Node000007_Node000008"><a xlink:title=" ">
<path fill="none" stroke="#63b8ff" d="M432.91,-120.75C444.43,-120.75 456.62,-120.75 468.47,-120.75"/>
<polygon fill="#63b8ff" stroke="#63b8ff" points="468.19,-124.25 478.19,-120.75 468.19,-117.25 468.19,-124.25"/>
</a>
</g>
</g>
<!-- Node9 -->
<g id="Node000009" class="node">
<title>Node9</title>
<g id="a_Node000009"><a xlink:href="classrtype_1_1NetworkServer.html#a6ebc16823bcf312a4e57cdd862cfebc2" target="_top" xlink:title="Creates a player entity in the ECS with appropriate components.">
<polygon fill="white" stroke="#666666" points="600.25,-85.5 480,-85.5 480,-52 600.25,-52 600.25,-85.5"/>
<text xml:space="preserve" text-anchor="start" x="488" y="-72" font-family="Helvetica,sans-Serif" font-size="10.00">rtype::NetworkServer</text>
<text xml:space="preserve" text-anchor="middle" x="540.12" y="-59.25" font-family="Helvetica,sans-Serif" font-size="10.00">::createPlayerEntity</text>
</a>
</g>
</g>
<!-- Node7&#45;&gt;Node9 -->
<g id="edge10_Node000007_Node000009" class="edge">
<title>Node7&#45;&gt;Node9</title>
<g id="a_edge10_Node000007_Node000009"><a xlink:title=" ">
<path fill="none" stroke="#63b8ff" d="M428.27,-103.58C442.75,-99.03 458.52,-94.08 473.51,-89.37"/>
<polygon fill="#63b8ff" stroke="#63b8ff" points="474.32,-92.78 482.81,-86.45 472.22,-86.1 474.32,-92.78"/>
</a>
</g>
</g>
<!-- Node10 -->
<g id="Node000010" class="node">
<title>Node10</title>
<g id="a_Node000010"><a xlink:href="classrtype_1_1NetworkServer.html#a023fe1b710c0f504eb9142f707fea4f7" target="_top" xlink:title="Sends a PLAYER_ID_ASSIGNMENT packet to a client.">
<polygon fill="white" stroke="#666666" points="611.5,-33.5 468.75,-33.5 468.75,0 611.5,0 611.5,-33.5"/>
<text xml:space="preserve" text-anchor="start" x="476.75" y="-20" font-family="Helvetica,sans-Serif" font-size="10.00">rtype::NetworkServer</text>
<text xml:space="preserve" text-anchor="middle" x="540.12" y="-7.25" font-family="Helvetica,sans-Serif" font-size="10.00">::sendPlayerIdAssignment</text>
</a>
</g>
</g>
<!-- Node7&#45;&gt;Node10 -->
<g id="edge11_Node000007_Node000010" class="edge">
<title>Node7&#45;&gt;Node10</title>
<g id="a_edge11_Node000007_Node000010"><a xlink:title=" ">
<path fill="none" stroke="#63b8ff" d="M419.68,-103.59C424.31,-100.97 428.77,-98.03 432.75,-94.75 454.43,-76.86 446.54,-59.97 468.75,-42.75 470.24,-41.6 471.78,-40.49 473.37,-39.43"/>
<polygon fill="#63b8ff" stroke="#63b8ff" points="474.72,-42.7 481.57,-34.62 471.17,-36.66 474.72,-42.7"/>
</a>
</g>
</g>
<!-- Node11 -->
<g id="Node000011" class="node">
<title>Node11</title>
<g id="a_Node000011"><a xlink:href="classrtype_1_1NetworkServer.html#a0b8fd52383e5b2fd3a529162fd2ea46a" target="_top" xlink:title="Converts a value of type T to a vector of bytes.">
<polygon fill="white" stroke="#666666" points="767.75,-33.5 647.5,-33.5 647.5,0 767.75,0 767.75,-33.5"/>
<text xml:space="preserve" text-anchor="start" x="655.5" y="-20" font-family="Helvetica,sans-Serif" font-size="10.00">rtype::NetworkServer</text>
<text xml:space="preserve" text-anchor="middle" x="707.62" y="-7.25" font-family="Helvetica,sans-Serif" font-size="10.00">::toBytes</text>
</a>
</g>
</g>
<!-- Node10&#45;&gt;Node11 -->
<g id="edge12_Node000010_Node000011" class="edge">
<title>Node10&#45;&gt;Node11</title>
<g id="a_edge12_Node000010_Node000011"><a xlink:title=" ">
<path fill="none" stroke="#63b8ff" d="M611.79,-16.75C619.7,-16.75 627.76,-16.75 635.68,-16.75"/>
<polygon fill="#63b8ff" stroke="#63b8ff" points="635.62,-20.25 645.62,-16.75 635.62,-13.25 635.62,-20.25"/>
</a>
</g>
</g>
</g>
</svg>
