<?xml version="1.0" encoding="UTF-8" standalone="no"?>
<!DOCTYPE svg PUBLIC "-//W3C//DTD SVG 1.1//EN"
 "http://www.w3.org/Graphics/SVG/1.1/DTD/svg11.dtd">
<!-- Generated by graphviz version 13.1.2 (20250808.2320)
 -->
<!-- Title: rtype::NetworkServer::handlePlayerDeath Pages: 1 -->
<svg width="285pt" height="94pt"
 viewBox="0.00 0.00 285.00 94.00" xmlns="http://www.w3.org/2000/svg" xmlns:xlink="http://www.w3.org/1999/xlink">
<g id="graph0" class="graph" transform="scale(1 1) rotate(0) translate(4 89.5)">
<title>rtype::NetworkServer::handlePlayerDeath</title>
<!-- Node1 -->
<g id="Node000001" class="node">
<title>Node1</title>
<g id="a_Node000001"><a xlink:title=" ">
<polygon fill="#999999" stroke="#666666" points="120.25,-59.5 0,-59.5 0,-26 120.25,-26 120.25,-59.5"/>
<text xml:space="preserve" text-anchor="start" x="8" y="-46" font-family="Helvetica,sans-Serif" font-size="10.00">rtype::NetworkServer</text>
<text xml:space="preserve" text-anchor="middle" x="60.12" y="-33.25" font-family="Helvetica,sans-Serif" font-size="10.00">::handlePlayerDeath</text>
</a>
</g>
</g>
<!-- Node2 -->
<g id="Node000002" class="node">
<title>Node2</title>
<g id="a_Node000002"><a xlink:href="classrtype_1_1NetworkServer.html#a307236d78543decaa97773b3dcc87f60" target="_top" xlink:title="Broadcasts a message to all connected clients.">
<polygon fill="white" stroke="#666666" points="276.5,-85.5 156.25,-85.5 156.25,-52 276.5,-52 276.5,-85.5"/>
<text xml:space="preserve" text-anchor="start" x="164.25" y="-72" font-family="Helvetica,sans-Serif" font-size="10.00">rtype::NetworkServer</text>
<text xml:space="preserve" text-anchor="middle" x="216.38" y="-59.25" font-family="Helvetica,sans-Serif" font-size="10.00">::broadcast</text>
</a>
</g>
</g>
<!-- Node1&#45;&gt;Node2 -->
<g id="edge1_Node000001_Node000002" class="edge">
<title>Node1&#45;&gt;Node2</title>
<g id="a_edge1_Node000001_Node000002"><a xlink:title=" ">
<path fill="none" stroke="#63b8ff" d="M120.32,-52.73C128.23,-54.06 136.41,-55.44 144.5,-56.8"/>
<polygon fill="#63b8ff" stroke="#63b8ff" points="143.89,-60.25 154.34,-58.46 145.06,-53.35 143.89,-60.25"/>
</a>
</g>
</g>
<!-- Node3 -->
<g id="Node000003" class="node">
<title>Node3</title>
<g id="a_Node000003"><a xlink:href="classrtype_1_1NetworkServer.html#a0b8fd52383e5b2fd3a529162fd2ea46a" target="_top" xlink:title="Converts a value of type T to a vector of bytes.">
<polygon fill="white" stroke="#666666" points="276.5,-33.5 156.25,-33.5 156.25,0 276.5,0 276.5,-33.5"/>
<text xml:space="preserve" text-anchor="start" x="164.25" y="-20" font-family="Helvetica,sans-Serif" font-size="10.00">rtype::NetworkServer</text>
<text xml:space="preserve" text-anchor="middle" x="216.38" y="-7.25" font-family="Helvetica,sans-Serif" font-size="10.00">::toBytes</text>
</a>
</g>
</g>
<!-- Node1&#45;&gt;Node3 -->
<g id="edge2_Node000001_Node000003" class="edge">
<title>Node1&#45;&gt;Node3</title>
<g id="a_edge2_Node000001_Node000003"><a xlink:title=" ">
<path fill="none" stroke="#63b8ff" d="M120.32,-32.77C128.23,-31.44 136.41,-30.06 144.5,-28.7"/>
<polygon fill="#63b8ff" stroke="#63b8ff" points="145.06,-32.15 154.34,-27.04 143.89,-25.25 145.06,-32.15"/>
</a>
</g>
</g>
</g>
</svg>
