<?xml version="1.0" encoding="UTF-8" standalone="no"?>
<!DOCTYPE svg PUBLIC "-//W3C//DTD SVG 1.1//EN"
 "http://www.w3.org/Graphics/SVG/1.1/DTD/svg11.dtd">
<!-- Generated by graphviz version 13.1.2 (20250808.2320)
 -->
<!-- Title: rtype::NetworkServer::toBytes Pages: 1 -->
<svg width="1034pt" height="239pt"
 viewBox="0.00 0.00 1034.00 239.00" xmlns="http://www.w3.org/2000/svg" xmlns:xlink="http://www.w3.org/1999/xlink">
<g id="graph0" class="graph" transform="scale(1 1) rotate(0) translate(4 234.89)">
<title>rtype::NetworkServer::toBytes</title>
<!-- Node1 -->
<g id="Node000001" class="node">
<title>Node1</title>
<g id="a_Node000001"><a xlink:title="Converts a value of type T to a vector of bytes.">
<polygon fill="#999999" stroke="#666666" points="1025.5,-137.5 905.25,-137.5 905.25,-104 1025.5,-104 1025.5,-137.5"/>
<text xml:space="preserve" text-anchor="start" x="913.25" y="-124" font-family="Helvetica,sans-Serif" font-size="10.00">rtype::NetworkServer</text>
<text xml:space="preserve" text-anchor="middle" x="965.38" y="-111.25" font-family="Helvetica,sans-Serif" font-size="10.00">::toBytes</text>
</a>
</g>
</g>
<!-- Node2 -->
<g id="Node000002" class="node">
<title>Node2</title>
<g id="a_Node000002"><a xlink:href="classrtype_1_1NetworkServer.html#afaf4a49cd03af637e4516c6db4b25884" target="_top" xlink:title="Cleans up inactive players who have timed out.">
<polygon fill="white" stroke="#666666" points="378,-194.5 254.75,-194.5 254.75,-161 378,-161 378,-194.5"/>
<text xml:space="preserve" text-anchor="start" x="262.75" y="-181" font-family="Helvetica,sans-Serif" font-size="10.00">rtype::NetworkServer</text>
<text xml:space="preserve" text-anchor="middle" x="316.38" y="-168.25" font-family="Helvetica,sans-Serif" font-size="10.00">::cleanInactivePlayers</text>
</a>
</g>
</g>
<!-- Node1&#45;&gt;Node2 -->
<g id="edge1_Node000001_Node000002" class="edge">
<title>Node1&#45;&gt;Node2</title>
<g id="a_edge1_Node000001_Node000002"><a xlink:title=" ">
<path fill="none" stroke="#63b8ff" d="M942.69,-146.13C925.07,-164.67 898.42,-188.32 869.25,-198.75 699.97,-259.28 482.61,-219.88 378.41,-194.46"/>
<polygon fill="#63b8ff" stroke="#63b8ff" points="945.15,-148.63 949.33,-138.9 939.99,-143.9 945.15,-148.63"/>
</a>
</g>
</g>
<!-- Node5 -->
<g id="Node000005" class="node">
<title>Node5</title>
<g id="a_Node000005"><a xlink:href="classrtype_1_1NetworkServer.html#a60adcbb519d14188291f412cfe1fc3ad" target="_top" xlink:title="Destroys a player entity and broadcasts the death event.">
<polygon fill="white" stroke="#666666" points="858,-189.5 737.75,-189.5 737.75,-156 858,-156 858,-189.5"/>
<text xml:space="preserve" text-anchor="start" x="745.75" y="-176" font-family="Helvetica,sans-Serif" font-size="10.00">rtype::NetworkServer</text>
<text xml:space="preserve" text-anchor="middle" x="797.88" y="-163.25" font-family="Helvetica,sans-Serif" font-size="10.00">::destroyPlayerEntity</text>
</a>
</g>
</g>
<!-- Node1&#45;&gt;Node5 -->
<g id="edge4_Node000001_Node000005" class="edge">
<title>Node1&#45;&gt;Node5</title>
<g id="a_edge4_Node000001_Node000005"><a xlink:title=" ">
<path fill="none" stroke="#63b8ff" d="M898.99,-141.29C884.01,-146 868.23,-150.96 853.75,-155.51"/>
<polygon fill="#63b8ff" stroke="#63b8ff" points="899.79,-144.71 908.28,-138.37 897.69,-138.03 899.79,-144.71"/>
</a>
</g>
</g>
<!-- Node7 -->
<g id="Node000007" class="node">
<title>Node7</title>
<g id="a_Node000007"><a xlink:href="classrtype_1_1NetworkServer.html#a67e01372a7b84c0c252394916329f700" target="_top" xlink:title=" ">
<polygon fill="white" stroke="#666666" points="858,-137.5 737.75,-137.5 737.75,-104 858,-104 858,-137.5"/>
<text xml:space="preserve" text-anchor="start" x="745.75" y="-124" font-family="Helvetica,sans-Serif" font-size="10.00">rtype::NetworkServer</text>
<text xml:space="preserve" text-anchor="middle" x="797.88" y="-111.25" font-family="Helvetica,sans-Serif" font-size="10.00">::handlePlayerDeath</text>
</a>
</g>
</g>
<!-- Node1&#45;&gt;Node7 -->
<g id="edge6_Node000001_Node000007" class="edge">
<title>Node1&#45;&gt;Node7</title>
<g id="a_edge6_Node000001_Node000007"><a xlink:title=" ">
<path fill="none" stroke="#63b8ff" d="M893.87,-120.75C882.02,-120.75 869.83,-120.75 858.3,-120.75"/>
<polygon fill="#63b8ff" stroke="#63b8ff" points="893.58,-124.25 903.58,-120.75 893.58,-117.25 893.58,-124.25"/>
</a>
</g>
</g>
<!-- Node10 -->
<g id="Node000010" class="node">
<title>Node10</title>
<g id="a_Node000010"><a xlink:href="classrtype_1_1NetworkServer.html#a023fe1b710c0f504eb9142f707fea4f7" target="_top" xlink:title="Sends a PLAYER_ID_ASSIGNMENT packet to a client.">
<polygon fill="white" stroke="#666666" points="869.25,-85.5 726.5,-85.5 726.5,-52 869.25,-52 869.25,-85.5"/>
<text xml:space="preserve" text-anchor="start" x="734.5" y="-72" font-family="Helvetica,sans-Serif" font-size="10.00">rtype::NetworkServer</text>
<text xml:space="preserve" text-anchor="middle" x="797.88" y="-59.25" font-family="Helvetica,sans-Serif" font-size="10.00">::sendPlayerIdAssignment</text>
</a>
</g>
</g>
<!-- Node1&#45;&gt;Node10 -->
<g id="edge9_Node000001_Node000010" class="edge">
<title>Node1&#45;&gt;Node10</title>
<g id="a_edge9_Node000001_Node000010"><a xlink:title=" ">
<path fill="none" stroke="#63b8ff" d="M898.99,-100.21C884.01,-95.5 868.23,-90.54 853.75,-85.99"/>
<polygon fill="#63b8ff" stroke="#63b8ff" points="897.69,-103.47 908.28,-103.13 899.79,-96.79 897.69,-103.47"/>
</a>
</g>
</g>
<!-- Node14 -->
<g id="Node000014" class="node">
<title>Node14</title>
<g id="a_Node000014"><a xlink:href="classrtype_1_1NetworkServer.html#adf29c7e182238848447d6b05884105ae" target="_top" xlink:title="Serializes the current ECS state into a snapshot packet.">
<polygon fill="white" stroke="#666666" points="858,-33.5 737.75,-33.5 737.75,0 858,0 858,-33.5"/>
<text xml:space="preserve" text-anchor="start" x="745.75" y="-20" font-family="Helvetica,sans-Serif" font-size="10.00">rtype::NetworkServer</text>
<text xml:space="preserve" text-anchor="middle" x="797.88" y="-7.25" font-family="Helvetica,sans-Serif" font-size="10.00">::serializeSnapshot</text>
</a>
</g>
</g>
<!-- Node1&#45;&gt;Node14 -->
<g id="edge15_Node000001_Node000014" class="edge">
<title>Node1&#45;&gt;Node14</title>
<g id="a_edge15_Node000001_Node000014"><a xlink:title=" ">
<path fill="none" stroke="#63b8ff" d="M938.82,-95.78C920.6,-79.04 894.89,-57.44 869.25,-42.75 863.6,-39.51 857.47,-36.55 851.27,-33.87"/>
<polygon fill="#63b8ff" stroke="#63b8ff" points="936.33,-98.25 946.02,-102.53 941.11,-93.14 936.33,-98.25"/>
</a>
</g>
</g>
<!-- Node3 -->
<g id="Node000003" class="node">
<title>Node3</title>
<g id="a_Node000003"><a xlink:href="classrtype_1_1NetworkServer.html#a707e4bd01554bc358fa8315c6552e468" target="_top" xlink:title="Runs the network server.">
<polygon fill="white" stroke="#666666" points="218.75,-79.12 76.75,-79.12 76.75,-58.38 218.75,-58.38 218.75,-79.12"/>
<text xml:space="preserve" text-anchor="middle" x="147.75" y="-65.62" font-family="Helvetica,sans-Serif" font-size="10.00">rtype::NetworkServer::run</text>
</a>
</g>
</g>
<!-- Node2&#45;&gt;Node3 -->
<g id="edge2_Node000002_Node000003" class="edge">
<title>Node2&#45;&gt;Node3</title>
<g id="a_edge2_Node000002_Node000003"><a xlink:title=" ">
<path fill="none" stroke="#63b8ff" d="M279.84,-154.5C244.38,-131.31 191.48,-96.7 165.03,-79.4"/>
<polygon fill="#63b8ff" stroke="#63b8ff" points="277.79,-157.34 288.07,-159.89 281.62,-151.49 277.79,-157.34"/>
</a>
</g>
</g>
<!-- Node4 -->
<g id="Node000004" class="node">
<title>Node4</title>
<g id="a_Node000004"><a xlink:href="main_8cpp.html#a3c04138a5bfe5d72780bb7e82a18e627" target="_top" xlink:title=" ">
<polygon fill="white" stroke="#666666" points="40.75,-79.12 0,-79.12 0,-58.38 40.75,-58.38 40.75,-79.12"/>
<text xml:space="preserve" text-anchor="middle" x="20.38" y="-65.62" font-family="Helvetica,sans-Serif" font-size="10.00">main</text>
</a>
</g>
</g>
<!-- Node3&#45;&gt;Node4 -->
<g id="edge3_Node000003_Node000004" class="edge">
<title>Node3&#45;&gt;Node4</title>
<g id="a_edge3_Node000003_Node000004"><a xlink:title=" ">
<path fill="none" stroke="#63b8ff" d="M65.01,-68.75C56.23,-68.75 48,-68.75 41.11,-68.75"/>
<polygon fill="#63b8ff" stroke="#63b8ff" points="64.85,-72.25 74.85,-68.75 64.85,-65.25 64.85,-72.25"/>
</a>
</g>
</g>
<!-- Node6 -->
<g id="Node000006" class="node">
<title>Node6</title>
<g id="a_Node000006"><a xlink:href="classrtype_1_1NetworkServer.html#a98b2eb4af22d02f26e1711db1722d14c" target="_top" xlink:title="Destructor for NetworkServer.">
<polygon fill="white" stroke="#666666" points="690.5,-189.5 570.25,-189.5 570.25,-156 690.5,-156 690.5,-189.5"/>
<text xml:space="preserve" text-anchor="start" x="578.25" y="-176" font-family="Helvetica,sans-Serif" font-size="10.00">rtype::NetworkServer</text>
<text xml:space="preserve" text-anchor="middle" x="630.38" y="-163.25" font-family="Helvetica,sans-Serif" font-size="10.00">::~NetworkServer</text>
</a>
</g>
</g>
<!-- Node5&#45;&gt;Node6 -->
<g id="edge5_Node000005_Node000006" class="edge">
<title>Node5&#45;&gt;Node6</title>
<g id="a_edge5_Node000005_Node000006"><a xlink:title=" ">
<path fill="none" stroke="#63b8ff" d="M726.37,-172.75C714.52,-172.75 702.33,-172.75 690.8,-172.75"/>
<polygon fill="#63b8ff" stroke="#63b8ff" points="726.08,-176.25 736.08,-172.75 726.08,-169.25 726.08,-176.25"/>
</a>
</g>
</g>
<!-- Node8 -->
<g id="Node000008" class="node">
<title>Node8</title>
<g id="a_Node000008"><a xlink:href="classrtype_1_1NetworkServer.html#a78ebccaf1d807b0af1347128966fdc15" target="_top" xlink:title="Initializes the ECS with appropriate systems.">
<polygon fill="white" stroke="#666666" points="690.5,-137.5 570.25,-137.5 570.25,-104 690.5,-104 690.5,-137.5"/>
<text xml:space="preserve" text-anchor="start" x="578.25" y="-124" font-family="Helvetica,sans-Serif" font-size="10.00">rtype::NetworkServer</text>
<text xml:space="preserve" text-anchor="middle" x="630.38" y="-111.25" font-family="Helvetica,sans-Serif" font-size="10.00">::initECS</text>
</a>
</g>
</g>
<!-- Node7&#45;&gt;Node8 -->
<g id="edge7_Node000007_Node000008" class="edge">
<title>Node7&#45;&gt;Node8</title>
<g id="a_edge7_Node000007_Node000008"><a xlink:title=" ">
<path fill="none" stroke="#63b8ff" d="M726.37,-120.75C714.52,-120.75 702.33,-120.75 690.8,-120.75"/>
<polygon fill="#63b8ff" stroke="#63b8ff" points="726.08,-124.25 736.08,-120.75 726.08,-117.25 726.08,-124.25"/>
</a>
</g>
</g>
<!-- Node9 -->
<g id="Node000009" class="node">
<title>Node9</title>
<g id="a_Node000009"><a xlink:href="classrtype_1_1NetworkServer.html#ad9cd895e5b840765222850a48ac7d564" target="_top" xlink:title="Creates a player entity in the ECS with appropriate components.">
<polygon fill="white" stroke="#666666" points="534.25,-137.5 414,-137.5 414,-104 534.25,-104 534.25,-137.5"/>
<text xml:space="preserve" text-anchor="start" x="422" y="-124" font-family="Helvetica,sans-Serif" font-size="10.00">rtype::NetworkServer</text>
<text xml:space="preserve" text-anchor="middle" x="474.12" y="-111.25" font-family="Helvetica,sans-Serif" font-size="10.00">::NetworkServer</text>
</a>
</g>
</g>
<!-- Node8&#45;&gt;Node9 -->
<g id="edge8_Node000008_Node000009" class="edge">
<title>Node8&#45;&gt;Node9</title>
<g id="a_edge8_Node000008_Node000009"><a xlink:title=" ">
<path fill="none" stroke="#63b8ff" d="M558.85,-120.75C550.77,-120.75 542.59,-120.75 534.67,-120.75"/>
<polygon fill="#63b8ff" stroke="#63b8ff" points="558.67,-124.25 568.67,-120.75 558.67,-117.25 558.67,-124.25"/>
</a>
</g>
</g>
<!-- Node11 -->
<g id="Node000011" class="node">
<title>Node11</title>
<g id="a_Node000011"><a xlink:href="classrtype_1_1NetworkServer.html#a612253ba0d3caeeac99f4fe52a5a2b4a" target="_top" xlink:title="Handles a JOIN packet from a client.">
<polygon fill="white" stroke="#666666" points="690.5,-85.5 570.25,-85.5 570.25,-52 690.5,-52 690.5,-85.5"/>
<text xml:space="preserve" text-anchor="start" x="578.25" y="-72" font-family="Helvetica,sans-Serif" font-size="10.00">rtype::NetworkServer</text>
<text xml:space="preserve" text-anchor="middle" x="630.38" y="-59.25" font-family="Helvetica,sans-Serif" font-size="10.00">::handleJoinPacket</text>
</a>
</g>
</g>
<!-- Node10&#45;&gt;Node11 -->
<g id="edge10_Node000010_Node000011" class="edge">
<title>Node10&#45;&gt;Node11</title>
<g id="a_edge10_Node000010_Node000011"><a xlink:title=" ">
<path fill="none" stroke="#63b8ff" d="M714.82,-68.75C706.75,-68.75 698.66,-68.75 690.87,-68.75"/>
<polygon fill="#63b8ff" stroke="#63b8ff" points="714.69,-72.25 724.69,-68.75 714.69,-65.25 714.69,-72.25"/>
</a>
</g>
</g>
<!-- Node12 -->
<g id="Node000012" class="node">
<title>Node12</title>
<g id="a_Node000012"><a xlink:href="classrtype_1_1NetworkServer.html#a05ad82c757407236bb242cdad5a741ba" target="_top" xlink:title="Dispatches incoming client packets to appropriate handlers.">
<polygon fill="white" stroke="#666666" points="534.25,-85.5 414,-85.5 414,-52 534.25,-52 534.25,-85.5"/>
<text xml:space="preserve" text-anchor="start" x="422" y="-72" font-family="Helvetica,sans-Serif" font-size="10.00">rtype::NetworkServer</text>
<text xml:space="preserve" text-anchor="middle" x="474.12" y="-59.25" font-family="Helvetica,sans-Serif" font-size="10.00">::handleClientPacket</text>
</a>
</g>
</g>
<!-- Node11&#45;&gt;Node12 -->
<g id="edge11_Node000011_Node000012" class="edge">
<title>Node11&#45;&gt;Node12</title>
<g id="a_edge11_Node000011_Node000012"><a xlink:title=" ">
<path fill="none" stroke="#63b8ff" d="M558.85,-68.75C550.77,-68.75 542.59,-68.75 534.67,-68.75"/>
<polygon fill="#63b8ff" stroke="#63b8ff" points="558.67,-72.25 568.67,-68.75 558.67,-65.25 558.67,-72.25"/>
</a>
</g>
</g>
<!-- Node13 -->
<g id="Node000013" class="node">
<title>Node13</title>
<g id="a_Node000013"><a xlink:href="classrtype_1_1NetworkServer.html#ab476dc987640c09387071e1d3a30ba2f" target="_top" xlink:title="Asynchronously receives incoming UDP packets.">
<polygon fill="white" stroke="#666666" points="376.5,-85.5 256.25,-85.5 256.25,-52 376.5,-52 376.5,-85.5"/>
<text xml:space="preserve" text-anchor="start" x="264.25" y="-72" font-family="Helvetica,sans-Serif" font-size="10.00">rtype::NetworkServer</text>
<text xml:space="preserve" text-anchor="middle" x="316.38" y="-59.25" font-family="Helvetica,sans-Serif" font-size="10.00">::doReceive</text>
</a>
</g>
</g>
<!-- Node12&#45;&gt;Node13 -->
<g id="edge12_Node000012_Node000013" class="edge">
<title>Node12&#45;&gt;Node13</title>
<g id="a_edge12_Node000012_Node000013"><a xlink:title=" ">
<path fill="none" stroke="#63b8ff" d="M402.29,-68.75C393.77,-68.75 385.13,-68.75 376.79,-68.75"/>
<polygon fill="#63b8ff" stroke="#63b8ff" points="402.28,-72.25 412.28,-68.75 402.28,-65.25 402.28,-72.25"/>
</a>
</g>
</g>
<!-- Node13&#45;&gt;Node3 -->
<g id="edge14_Node000013_Node000003" class="edge">
<title>Node13&#45;&gt;Node3</title>
<g id="a_edge14_Node000013_Node000003"><a xlink:title=" ">
<path fill="none" stroke="#63b8ff" d="M244.76,-68.75C236.29,-68.75 227.64,-68.75 219.17,-68.75"/>
<polygon fill="#63b8ff" stroke="#63b8ff" points="244.65,-72.25 254.65,-68.75 244.65,-65.25 244.65,-72.25"/>
</a>
</g>
</g>
<!-- Node13&#45;&gt;Node13 -->
<g id="edge13_Node000013_Node000013" class="edge">
<title>Node13&#45;&gt;Node13</title>
<g id="a_edge13_Node000013_Node000013"><a xlink:title=" ">
<path fill="none" stroke="#63b8ff" d="M342.86,-96.89C338.55,-100.85 329.72,-103.5 316.38,-103.5 292.65,-103.5 283.2,-95.12 288.02,-85.91"/>
<polygon fill="#63b8ff" stroke="#63b8ff" points="346.25,-97.85 344.48,-87.41 339.35,-96.68 346.25,-97.85"/>
</a>
</g>
</g>
<!-- Node15 -->
<g id="Node000015" class="node">
<title>Node15</title>
<g id="a_Node000015"><a xlink:href="classrtype_1_1NetworkServer.html#a7c2e4bf84b33f7dc8849831ddff8e089" target="_top" xlink:title="Broadcasts the current ECS snapshot to all connected clients.">
<polygon fill="white" stroke="#666666" points="534.25,-33.5 414,-33.5 414,0 534.25,0 534.25,-33.5"/>
<text xml:space="preserve" text-anchor="start" x="422" y="-20" font-family="Helvetica,sans-Serif" font-size="10.00">rtype::NetworkServer</text>
<text xml:space="preserve" text-anchor="middle" x="474.12" y="-7.25" font-family="Helvetica,sans-Serif" font-size="10.00">::broadcastSnapshot</text>
</a>
</g>
</g>
<!-- Node14&#45;&gt;Node15 -->
<g id="edge16_Node000014_Node000015" class="edge">
<title>Node14&#45;&gt;Node15</title>
<g id="a_edge16_Node000014_Node000015"><a xlink:title=" ">
<path fill="none" stroke="#63b8ff" d="M726.33,-16.75C668.96,-16.75 588.91,-16.75 534.71,-16.75"/>
<polygon fill="#63b8ff" stroke="#63b8ff" points="725.97,-20.25 735.97,-16.75 725.97,-13.25 725.97,-20.25"/>
</a>
</g>
</g>
<!-- Node15&#45;&gt;Node3 -->
<g id="edge17_Node000015_Node000003" class="edge">
<title>Node15&#45;&gt;Node3</title>
<g id="a_edge17_Node000015_Node000003"><a xlink:title=" ">
<path fill="none" stroke="#63b8ff" d="M402.06,-23C359.2,-27.31 303.61,-33.88 254.75,-42.75 232.47,-46.79 207.89,-52.73 188.02,-57.91"/>
<polygon fill="#63b8ff" stroke="#63b8ff" points="402.4,-26.48 412.01,-22.02 401.71,-19.51 402.4,-26.48"/>
</a>
</g>
</g>
</g>
</svg>
