<?xml version="1.0" encoding="UTF-8" standalone="no"?>
<!DOCTYPE svg PUBLIC "-//W3C//DTD SVG 1.1//EN"
 "http://www.w3.org/Graphics/SVG/1.1/DTD/svg11.dtd">
<!-- Generated by graphviz version 13.1.2 (20250808.2320)
 -->
<!-- Title: rtype::NetworkServer::run Pages: 1 -->
<svg width="991pt" height="412pt"
 viewBox="0.00 0.00 991.00 412.00" xmlns="http://www.w3.org/2000/svg" xmlns:xlink="http://www.w3.org/1999/xlink">
<g id="graph0" class="graph" transform="scale(1 1) rotate(0) translate(4 408.12)">
<title>rtype::NetworkServer::run</title>
<!-- Node1 -->
<g id="Node000001" class="node">
<title>Node1</title>
<g id="a_Node000001"><a xlink:title="Runs the network server.">
<polygon fill="#999999" stroke="#666666" points="142,-223.75 0,-223.75 0,-203 142,-203 142,-223.75"/>
<text xml:space="preserve" text-anchor="middle" x="71" y="-210.25" font-family="Helvetica,sans-Serif" font-size="10.00">rtype::NetworkServer::run</text>
</a>
</g>
</g>
<!-- Node2 -->
<g id="Node000002" class="node">
<title>Node2</title>
<g id="a_Node000002"><a xlink:href="classrtype_1_1NetworkServer.html#a7c2e4bf84b33f7dc8849831ddff8e089" target="_top" xlink:title="Broadcasts the current ECS snapshot to all connected clients.">
<polygon fill="white" stroke="#666666" points="309.88,-401.12 189.62,-401.12 189.62,-367.62 309.88,-367.62 309.88,-401.12"/>
<text xml:space="preserve" text-anchor="start" x="197.62" y="-387.62" font-family="Helvetica,sans-Serif" font-size="10.00">rtype::NetworkServer</text>
<text xml:space="preserve" text-anchor="middle" x="249.75" y="-374.88" font-family="Helvetica,sans-Serif" font-size="10.00">::broadcastSnapshot</text>
</a>
</g>
</g>
<!-- Node1&#45;&gt;Node2 -->
<g id="edge1_Node000001_Node000002" class="edge">
<title>Node1&#45;&gt;Node2</title>
<g id="a_edge1_Node000001_Node000002"><a xlink:title=" ">
<path fill="none" stroke="#63b8ff" d="M77.5,-223.96C91.23,-249.47 129.41,-315.05 178,-353.38 181.9,-356.45 186.14,-359.28 190.56,-361.88"/>
<polygon fill="#63b8ff" stroke="#63b8ff" points="188.63,-364.81 199.09,-366.47 191.95,-358.65 188.63,-364.81"/>
</a>
</g>
</g>
<!-- Node6 -->
<g id="Node000006" class="node">
<title>Node6</title>
<g id="a_Node000006"><a xlink:href="classrtype_1_1NetworkServer.html#aa771fec7c08fc4c27d84b0cd6b380f80" target="_top" xlink:title="Checks game time and spawns enemies when their spawn time is reached.">
<polygon fill="white" stroke="#666666" points="321.5,-344.12 178,-344.12 178,-310.62 321.5,-310.62 321.5,-344.12"/>
<text xml:space="preserve" text-anchor="start" x="186" y="-330.62" font-family="Helvetica,sans-Serif" font-size="10.00">rtype::NetworkServer</text>
<text xml:space="preserve" text-anchor="middle" x="249.75" y="-317.88" font-family="Helvetica,sans-Serif" font-size="10.00">::checkAndSpawnEnemies</text>
</a>
</g>
</g>
<!-- Node1&#45;&gt;Node6 -->
<g id="edge5_Node000001_Node000006" class="edge">
<title>Node1&#45;&gt;Node6</title>
<g id="a_edge5_Node000001_Node000006"><a xlink:title=" ">
<path fill="none" stroke="#63b8ff" d="M85.22,-224.21C104.81,-240 142.99,-269.79 178,-291.38 185.59,-296.05 193.86,-300.67 201.98,-304.95"/>
<polygon fill="#63b8ff" stroke="#63b8ff" points="200.29,-308.02 210.79,-309.48 203.5,-301.79 200.29,-308.02"/>
</a>
</g>
</g>
<!-- Node8 -->
<g id="Node000008" class="node">
<title>Node8</title>
<g id="a_Node000008"><a xlink:href="classrtype_1_1NetworkServer.html#afaf4a49cd03af637e4516c6db4b25884" target="_top" xlink:title="Cleans up inactive players who have timed out.">
<polygon fill="white" stroke="#666666" points="311.38,-282.12 188.12,-282.12 188.12,-248.62 311.38,-248.62 311.38,-282.12"/>
<text xml:space="preserve" text-anchor="start" x="196.12" y="-268.62" font-family="Helvetica,sans-Serif" font-size="10.00">rtype::NetworkServer</text>
<text xml:space="preserve" text-anchor="middle" x="249.75" y="-255.88" font-family="Helvetica,sans-Serif" font-size="10.00">::cleanInactivePlayers</text>
</a>
</g>
</g>
<!-- Node1&#45;&gt;Node8 -->
<g id="edge7_Node000001_Node000008" class="edge">
<title>Node1&#45;&gt;Node8</title>
<g id="a_edge7_Node000001_Node000008"><a xlink:title=" ">
<path fill="none" stroke="#63b8ff" d="M108.62,-224.15C129.05,-230.16 155.18,-237.85 179.33,-244.95"/>
<polygon fill="#63b8ff" stroke="#63b8ff" points="178.22,-248.27 188.81,-247.74 180.2,-241.56 178.22,-248.27"/>
</a>
</g>
</g>
<!-- Node10 -->
<g id="Node000010" class="node">
<title>Node10</title>
<g id="a_Node000010"><a xlink:href="classrtype_1_1NetworkServer.html#a6892c00dc78a4467c0cac203214d65db" target="_top" xlink:title="Creates enemy entities with random positioning.">
<polygon fill="white" stroke="#666666" points="309.88,-230.12 189.62,-230.12 189.62,-196.62 309.88,-196.62 309.88,-230.12"/>
<text xml:space="preserve" text-anchor="start" x="197.62" y="-216.62" font-family="Helvetica,sans-Serif" font-size="10.00">rtype::NetworkServer</text>
<text xml:space="preserve" text-anchor="middle" x="249.75" y="-203.88" font-family="Helvetica,sans-Serif" font-size="10.00">::createEnemyEntity</text>
</a>
</g>
</g>
<!-- Node1&#45;&gt;Node10 -->
<g id="edge10_Node000001_Node000010" class="edge">
<title>Node1&#45;&gt;Node10</title>
<g id="a_edge10_Node000001_Node000010"><a xlink:title=" ">
<path fill="none" stroke="#63b8ff" d="M142.36,-213.38C153.99,-213.38 166.05,-213.38 177.69,-213.38"/>
<polygon fill="#63b8ff" stroke="#63b8ff" points="177.65,-216.88 187.65,-213.38 177.65,-209.88 177.65,-216.88"/>
</a>
</g>
</g>
<!-- Node11 -->
<g id="Node000011" class="node">
<title>Node11</title>
<g id="a_Node000011"><a xlink:href="classrtype_1_1NetworkServer.html#ab476dc987640c09387071e1d3a30ba2f" target="_top" xlink:title="Asynchronously receives incoming UDP packets.">
<polygon fill="white" stroke="#666666" points="309.88,-160.12 189.62,-160.12 189.62,-126.62 309.88,-126.62 309.88,-160.12"/>
<text xml:space="preserve" text-anchor="start" x="197.62" y="-146.62" font-family="Helvetica,sans-Serif" font-size="10.00">rtype::NetworkServer</text>
<text xml:space="preserve" text-anchor="middle" x="249.75" y="-133.88" font-family="Helvetica,sans-Serif" font-size="10.00">::doReceive</text>
</a>
</g>
</g>
<!-- Node1&#45;&gt;Node11 -->
<g id="edge11_Node000001_Node000011" class="edge">
<title>Node1&#45;&gt;Node11</title>
<g id="a_edge11_Node000001_Node000011"><a xlink:title=" ">
<path fill="none" stroke="#63b8ff" d="M99.23,-202.59C124.63,-192.53 163.26,-177.23 194.89,-164.71"/>
<polygon fill="#63b8ff" stroke="#63b8ff" points="195.9,-168.07 203.91,-161.13 193.32,-161.56 195.9,-168.07"/>
</a>
</g>
</g>
<!-- Node22 -->
<g id="Node000022" class="node">
<title>Node22</title>
<g id="a_Node000022"><a xlink:href="classrtype_1_1NetworkServer.html#ac5da2ddce90cd6e55994fd128037de96" target="_top" xlink:title="Loads enemy spawn data from a JSON file.">
<polygon fill="white" stroke="#666666" points="314.75,-105.12 184.75,-105.12 184.75,-71.62 314.75,-71.62 314.75,-105.12"/>
<text xml:space="preserve" text-anchor="start" x="192.75" y="-91.62" font-family="Helvetica,sans-Serif" font-size="10.00">rtype::NetworkServer</text>
<text xml:space="preserve" text-anchor="middle" x="249.75" y="-78.88" font-family="Helvetica,sans-Serif" font-size="10.00">::loadEnemiesFromJson</text>
</a>
</g>
</g>
<!-- Node1&#45;&gt;Node22 -->
<g id="edge25_Node000001_Node000022" class="edge">
<title>Node1&#45;&gt;Node22</title>
<g id="a_edge25_Node000001_Node000022"><a xlink:title=" ">
<path fill="none" stroke="#63b8ff" d="M81.55,-202.54C99.03,-183.23 138.09,-142.53 178,-117.38 181.92,-114.91 186.08,-112.57 190.35,-110.38"/>
<polygon fill="#63b8ff" stroke="#63b8ff" points="191.57,-113.68 199.07,-106.19 188.54,-107.37 191.57,-113.68"/>
</a>
</g>
</g>
<!-- Node27 -->
<g id="Node000027" class="node">
<title>Node27</title>
<g id="a_Node000027"><a xlink:href="classrtype_1_1NetworkServer.html#a531be2837a794a277af86694339ec113" target="_top" xlink:title="Updates the ECS with a given delta time.">
<polygon fill="white" stroke="#666666" points="309.88,-53.12 189.62,-53.12 189.62,-19.62 309.88,-19.62 309.88,-53.12"/>
<text xml:space="preserve" text-anchor="start" x="197.62" y="-39.62" font-family="Helvetica,sans-Serif" font-size="10.00">rtype::NetworkServer</text>
<text xml:space="preserve" text-anchor="middle" x="249.75" y="-26.88" font-family="Helvetica,sans-Serif" font-size="10.00">::updateECS</text>
</a>
</g>
</g>
<!-- Node1&#45;&gt;Node27 -->
<g id="edge31_Node000001_Node000027" class="edge">
<title>Node1&#45;&gt;Node27</title>
<g id="a_edge31_Node000001_Node000027"><a xlink:title=" ">
<path fill="none" stroke="#63b8ff" d="M76.75,-202.55C89.29,-175.15 125.95,-102.4 178,-62.38 179.5,-61.22 181.05,-60.12 182.65,-59.06"/>
<polygon fill="#63b8ff" stroke="#63b8ff" points="184.04,-62.3 190.91,-54.24 180.51,-56.26 184.04,-62.3"/>
</a>
</g>
</g>
<!-- Node3 -->
<g id="Node000003" class="node">
<title>Node3</title>
<g id="a_Node000003"><a xlink:href="classrtype_1_1NetworkServer.html#adf29c7e182238848447d6b05884105ae" target="_top" xlink:title="Serializes the current ECS state into a snapshot packet.">
<polygon fill="white" stroke="#666666" points="484.88,-404.12 364.62,-404.12 364.62,-370.62 484.88,-370.62 484.88,-404.12"/>
<text xml:space="preserve" text-anchor="start" x="372.62" y="-390.62" font-family="Helvetica,sans-Serif" font-size="10.00">rtype::NetworkServer</text>
<text xml:space="preserve" text-anchor="middle" x="424.75" y="-377.88" font-family="Helvetica,sans-Serif" font-size="10.00">::serializeSnapshot</text>
</a>
</g>
</g>
<!-- Node2&#45;&gt;Node3 -->
<g id="edge2_Node000002_Node000003" class="edge">
<title>Node2&#45;&gt;Node3</title>
<g id="a_edge2_Node000002_Node000003"><a xlink:title=" ">
<path fill="none" stroke="#63b8ff" d="M310.29,-385.41C324.09,-385.65 338.91,-385.9 353.14,-386.15"/>
<polygon fill="#63b8ff" stroke="#63b8ff" points="352.82,-389.65 362.88,-386.32 352.95,-382.65 352.82,-389.65"/>
</a>
</g>
</g>
<!-- Node4 -->
<g id="Node000004" class="node">
<title>Node4</title>
<g id="a_Node000004"><a xlink:href="NetworkServer_8cpp.html#a053b64d0725ca7fc6decff0d6d24f231" target="_top" xlink:title="Converts a float to a vector of 4 bytes.">
<polygon fill="white" stroke="#666666" points="626.12,-397.75 550.12,-397.75 550.12,-377 626.12,-377 626.12,-397.75"/>
<text xml:space="preserve" text-anchor="middle" x="588.12" y="-384.25" font-family="Helvetica,sans-Serif" font-size="10.00">floatToBytes</text>
</a>
</g>
</g>
<!-- Node3&#45;&gt;Node4 -->
<g id="edge3_Node000003_Node000004" class="edge">
<title>Node3&#45;&gt;Node4</title>
<g id="a_edge3_Node000003_Node000004"><a xlink:title=" ">
<path fill="none" stroke="#63b8ff" d="M484.92,-387.38C502.61,-387.38 521.79,-387.38 538.7,-387.38"/>
<polygon fill="#63b8ff" stroke="#63b8ff" points="538.48,-390.88 548.48,-387.38 538.48,-383.88 538.48,-390.88"/>
</a>
</g>
</g>
<!-- Node5 -->
<g id="Node000005" class="node">
<title>Node5</title>
<g id="a_Node000005"><a xlink:href="classrtype_1_1NetworkServer.html#a0b8fd52383e5b2fd3a529162fd2ea46a" target="_top" xlink:title="Converts a value of type T to a vector of bytes.">
<polygon fill="white" stroke="#666666" points="983.25,-307.12 863,-307.12 863,-273.62 983.25,-273.62 983.25,-307.12"/>
<text xml:space="preserve" text-anchor="start" x="871" y="-293.62" font-family="Helvetica,sans-Serif" font-size="10.00">rtype::NetworkServer</text>
<text xml:space="preserve" text-anchor="middle" x="923.12" y="-280.88" font-family="Helvetica,sans-Serif" font-size="10.00">::toBytes</text>
</a>
</g>
</g>
<!-- Node3&#45;&gt;Node5 -->
<g id="edge4_Node000003_Node000005" class="edge">
<title>Node3&#45;&gt;Node5</title>
<g id="a_edge4_Node000003_Node000005"><a xlink:title=" ">
<path fill="none" stroke="#63b8ff" d="M485.13,-375.77C576.97,-357.82 753.08,-323.41 851.38,-304.2"/>
<polygon fill="#63b8ff" stroke="#63b8ff" points="852.05,-307.64 861.19,-302.28 850.7,-300.77 852.05,-307.64"/>
</a>
</g>
</g>
<!-- Node7 -->
<g id="Node000007" class="node">
<title>Node7</title>
<g id="a_Node000007"><a xlink:href="classrtype_1_1NetworkServer.html#aa43fc0754b58048eabf6c97fd6800287" target="_top" xlink:title="Creates an enemy entity from spawn data.">
<polygon fill="white" stroke="#666666" points="492,-352.12 357.5,-352.12 357.5,-318.62 492,-318.62 492,-352.12"/>
<text xml:space="preserve" text-anchor="start" x="365.5" y="-338.62" font-family="Helvetica,sans-Serif" font-size="10.00">rtype::NetworkServer</text>
<text xml:space="preserve" text-anchor="middle" x="424.75" y="-325.88" font-family="Helvetica,sans-Serif" font-size="10.00">::createEnemyFromData</text>
</a>
</g>
</g>
<!-- Node6&#45;&gt;Node7 -->
<g id="edge6_Node000006_Node000007" class="edge">
<title>Node6&#45;&gt;Node7</title>
<g id="a_edge6_Node000006_Node000007"><a xlink:title=" ">
<path fill="none" stroke="#63b8ff" d="M321.61,-330.65C329.61,-331.02 337.78,-331.4 345.86,-331.77"/>
<polygon fill="#63b8ff" stroke="#63b8ff" points="345.51,-335.26 355.66,-332.23 345.84,-328.27 345.51,-335.26"/>
</a>
</g>
</g>
<!-- Node8&#45;&gt;Node5 -->
<g id="edge9_Node000008_Node000005" class="edge">
<title>Node8&#45;&gt;Node5</title>
<g id="a_edge9_Node000008_Node000005"><a xlink:title=" ">
<path fill="none" stroke="#63b8ff" d="M311.71,-269.04C326.68,-269.87 342.67,-270.71 357.5,-271.38 535.23,-279.36 744.57,-285.57 851.49,-288.51"/>
<polygon fill="#63b8ff" stroke="#63b8ff" points="851.16,-292 861.25,-288.78 851.35,-285 851.16,-292"/>
</a>
</g>
</g>
<!-- Node9 -->
<g id="Node000009" class="node">
<title>Node9</title>
<g id="a_Node000009"><a xlink:href="classrtype_1_1NetworkServer.html#a307236d78543decaa97773b3dcc87f60" target="_top" xlink:title="Broadcasts a message to all connected clients.">
<polygon fill="white" stroke="#666666" points="484.88,-262.12 364.62,-262.12 364.62,-228.62 484.88,-228.62 484.88,-262.12"/>
<text xml:space="preserve" text-anchor="start" x="372.62" y="-248.62" font-family="Helvetica,sans-Serif" font-size="10.00">rtype::NetworkServer</text>
<text xml:space="preserve" text-anchor="middle" x="424.75" y="-235.88" font-family="Helvetica,sans-Serif" font-size="10.00">::broadcast</text>
</a>
</g>
</g>
<!-- Node8&#45;&gt;Node9 -->
<g id="edge8_Node000008_Node000009" class="edge">
<title>Node8&#45;&gt;Node9</title>
<g id="a_edge8_Node000008_Node000009"><a xlink:title=" ">
<path fill="none" stroke="#63b8ff" d="M311.74,-258.32C325.04,-256.79 339.23,-255.15 352.87,-253.57"/>
<polygon fill="#63b8ff" stroke="#63b8ff" points="353.14,-257.06 362.68,-252.44 352.34,-250.11 353.14,-257.06"/>
</a>
</g>
</g>
<!-- Node11&#45;&gt;Node11 -->
<g id="edge12_Node000011_Node000011" class="edge">
<title>Node11&#45;&gt;Node11</title>
<g id="a_edge12_Node000011_Node000011"><a xlink:title=" ">
<path fill="none" stroke="#63b8ff" d="M218.29,-160.54C212.95,-169.74 223.43,-178.12 249.75,-178.12 264.55,-178.12 274.35,-175.47 279.13,-171.51"/>
<polygon fill="#63b8ff" stroke="#63b8ff" points="282.51,-172.5 280.93,-162.03 275.63,-171.2 282.51,-172.5"/>
</a>
</g>
</g>
<!-- Node12 -->
<g id="Node000012" class="node">
<title>Node12</title>
<g id="a_Node000012"><a xlink:href="classrtype_1_1NetworkServer.html#a5d5a2e16ab81f96da8ec2d795ff77070" target="_top" xlink:title="Converts a byte array to a value of type T.">
<polygon fill="white" stroke="#666666" points="484.88,-210.12 364.62,-210.12 364.62,-176.62 484.88,-176.62 484.88,-210.12"/>
<text xml:space="preserve" text-anchor="start" x="372.62" y="-196.62" font-family="Helvetica,sans-Serif" font-size="10.00">rtype::NetworkServer</text>
<text xml:space="preserve" text-anchor="middle" x="424.75" y="-183.88" font-family="Helvetica,sans-Serif" font-size="10.00">::fromBytes</text>
</a>
</g>
</g>
<!-- Node11&#45;&gt;Node12 -->
<g id="edge13_Node000011_Node000012" class="edge">
<title>Node11&#45;&gt;Node12</title>
<g id="a_edge13_Node000011_Node000012"><a xlink:title=" ">
<path fill="none" stroke="#63b8ff" d="M310.29,-160.58C324.23,-164.61 339.21,-168.94 353.57,-173.09"/>
<polygon fill="#63b8ff" stroke="#63b8ff" points="352.36,-176.39 362.94,-175.8 354.31,-169.66 352.36,-176.39"/>
</a>
</g>
</g>
<!-- Node13 -->
<g id="Node000013" class="node">
<title>Node13</title>
<g id="a_Node000013"><a xlink:href="classrtype_1_1NetworkServer.html#a05ad82c757407236bb242cdad5a741ba" target="_top" xlink:title="Dispatches incoming client packets to appropriate handlers.">
<polygon fill="white" stroke="#666666" points="484.88,-158.12 364.62,-158.12 364.62,-124.62 484.88,-124.62 484.88,-158.12"/>
<text xml:space="preserve" text-anchor="start" x="372.62" y="-144.62" font-family="Helvetica,sans-Serif" font-size="10.00">rtype::NetworkServer</text>
<text xml:space="preserve" text-anchor="middle" x="424.75" y="-131.88" font-family="Helvetica,sans-Serif" font-size="10.00">::handleClientPacket</text>
</a>
</g>
</g>
<!-- Node11&#45;&gt;Node13 -->
<g id="edge14_Node000011_Node000013" class="edge">
<title>Node11&#45;&gt;Node13</title>
<g id="a_edge14_Node000011_Node000013"><a xlink:title=" ">
<path fill="none" stroke="#63b8ff" d="M310.29,-142.69C324.09,-142.53 338.91,-142.36 353.14,-142.19"/>
<polygon fill="#63b8ff" stroke="#63b8ff" points="352.92,-145.69 362.88,-142.08 352.84,-138.69 352.92,-145.69"/>
</a>
</g>
</g>
<!-- Node14 -->
<g id="Node000014" class="node">
<title>Node14</title>
<g id="a_Node000014"><a xlink:href="classrtype_1_1NetworkServer.html#a112083bc3f0a7ea93435653fcd59b086" target="_top" xlink:title="Finds the player ID associated with a given endpoint.">
<polygon fill="white" stroke="#666666" points="823.25,-262.12 688,-262.12 688,-228.62 823.25,-228.62 823.25,-262.12"/>
<text xml:space="preserve" text-anchor="start" x="696" y="-248.62" font-family="Helvetica,sans-Serif" font-size="10.00">rtype::NetworkServer</text>
<text xml:space="preserve" text-anchor="middle" x="755.62" y="-235.88" font-family="Helvetica,sans-Serif" font-size="10.00">::findPlayerIdByEndpoint</text>
</a>
</g>
</g>
<!-- Node13&#45;&gt;Node14 -->
<g id="edge15_Node000013_Node000014" class="edge">
<title>Node13&#45;&gt;Node14</title>
<g id="a_edge15_Node000013_Node000014"><a xlink:title=" ">
<path fill="none" stroke="#63b8ff" d="M478.37,-158.57C483.2,-161.15 487.83,-164.08 492,-167.38 514.04,-184.82 503.89,-204.93 528,-219.38 572.16,-245.83 629.9,-252.12 676.05,-251.91"/>
<polygon fill="#63b8ff" stroke="#63b8ff" points="676.06,-255.41 686,-251.75 675.95,-248.41 676.06,-255.41"/>
</a>
</g>
</g>
<!-- Node15 -->
<g id="Node000015" class="node">
<title>Node15</title>
<g id="a_Node000015"><a xlink:href="classrtype_1_1NetworkServer.html#a60a048fa593944bfd90a6727d8909c6a" target="_top" xlink:title="Handles an INPUT packet from a client.">
<polygon fill="white" stroke="#666666" points="648.25,-210.12 528,-210.12 528,-176.62 648.25,-176.62 648.25,-210.12"/>
<text xml:space="preserve" text-anchor="start" x="536" y="-196.62" font-family="Helvetica,sans-Serif" font-size="10.00">rtype::NetworkServer</text>
<text xml:space="preserve" text-anchor="middle" x="588.12" y="-183.88" font-family="Helvetica,sans-Serif" font-size="10.00">::handleInputPacket</text>
</a>
</g>
</g>
<!-- Node13&#45;&gt;Node15 -->
<g id="edge16_Node000013_Node000015" class="edge">
<title>Node13&#45;&gt;Node15</title>
<g id="a_edge16_Node000013_Node000015"><a xlink:title=" ">
<path fill="none" stroke="#63b8ff" d="M479.04,-158.55C493.01,-163.05 508.23,-167.95 522.71,-172.62"/>
<polygon fill="#63b8ff" stroke="#63b8ff" points="521.59,-175.93 532.18,-175.67 523.73,-169.27 521.59,-175.93"/>
</a>
</g>
</g>
<!-- Node17 -->
<g id="Node000017" class="node">
<title>Node17</title>
<g id="a_Node000017"><a xlink:href="classrtype_1_1NetworkServer.html#a612253ba0d3caeeac99f4fe52a5a2b4a" target="_top" xlink:title="Handles a JOIN packet from a client.">
<polygon fill="white" stroke="#666666" points="648.25,-158.12 528,-158.12 528,-124.62 648.25,-124.62 648.25,-158.12"/>
<text xml:space="preserve" text-anchor="start" x="536" y="-144.62" font-family="Helvetica,sans-Serif" font-size="10.00">rtype::NetworkServer</text>
<text xml:space="preserve" text-anchor="middle" x="588.12" y="-131.88" font-family="Helvetica,sans-Serif" font-size="10.00">::handleJoinPacket</text>
</a>
</g>
</g>
<!-- Node13&#45;&gt;Node17 -->
<g id="edge19_Node000013_Node000017" class="edge">
<title>Node13&#45;&gt;Node17</title>
<g id="a_edge19_Node000013_Node000017"><a xlink:title=" ">
<path fill="none" stroke="#63b8ff" d="M484.92,-141.38C495.16,-141.38 505.9,-141.38 516.41,-141.38"/>
<polygon fill="#63b8ff" stroke="#63b8ff" points="516.17,-144.88 526.17,-141.38 516.17,-137.88 516.17,-144.88"/>
</a>
</g>
</g>
<!-- Node21 -->
<g id="Node000021" class="node">
<title>Node21</title>
<g id="a_Node000021"><a xlink:href="classrtype_1_1NetworkServer.html#a022c5d221a022804160b187fbb8fe036" target="_top" xlink:title="Converts a PacketType enum to its string representation.">
<polygon fill="white" stroke="#666666" points="648.25,-106.12 528,-106.12 528,-72.62 648.25,-72.62 648.25,-106.12"/>
<text xml:space="preserve" text-anchor="start" x="536" y="-92.62" font-family="Helvetica,sans-Serif" font-size="10.00">rtype::NetworkServer</text>
<text xml:space="preserve" text-anchor="middle" x="588.12" y="-79.88" font-family="Helvetica,sans-Serif" font-size="10.00">::packetTypeToString</text>
</a>
</g>
</g>
<!-- Node13&#45;&gt;Node21 -->
<g id="edge24_Node000013_Node000021" class="edge">
<title>Node13&#45;&gt;Node21</title>
<g id="a_edge24_Node000013_Node000021"><a xlink:title=" ">
<path fill="none" stroke="#63b8ff" d="M479.04,-124.2C493.01,-119.7 508.23,-114.8 522.71,-110.13"/>
<polygon fill="#63b8ff" stroke="#63b8ff" points="523.73,-113.48 532.18,-107.08 521.59,-106.82 523.73,-113.48"/>
</a>
</g>
</g>
<!-- Node15&#45;&gt;Node14 -->
<g id="edge18_Node000015_Node000014" class="edge">
<title>Node15&#45;&gt;Node14</title>
<g id="a_edge18_Node000015_Node000014"><a xlink:title=" ">
<path fill="none" stroke="#63b8ff" d="M643.77,-210.55C658.25,-215.09 674.02,-220.05 689.01,-224.76"/>
<polygon fill="#63b8ff" stroke="#63b8ff" points="687.72,-228.02 698.31,-227.68 689.82,-221.34 687.72,-228.02"/>
</a>
</g>
</g>
<!-- Node16 -->
<g id="Node000016" class="node">
<title>Node16</title>
<g id="a_Node000016"><a xlink:href="classrtype_1_1NetworkServer.html#a6624176a236d4b97711c1ebb90a86918" target="_top" xlink:title="Applies input actions to a player&#39;s entity.">
<polygon fill="white" stroke="#666666" points="815.75,-210.12 695.5,-210.12 695.5,-176.62 815.75,-176.62 815.75,-210.12"/>
<text xml:space="preserve" text-anchor="start" x="703.5" y="-196.62" font-family="Helvetica,sans-Serif" font-size="10.00">rtype::NetworkServer</text>
<text xml:space="preserve" text-anchor="middle" x="755.62" y="-183.88" font-family="Helvetica,sans-Serif" font-size="10.00">::applyInputToEntity</text>
</a>
</g>
</g>
<!-- Node15&#45;&gt;Node16 -->
<g id="edge17_Node000015_Node000016" class="edge">
<title>Node15&#45;&gt;Node16</title>
<g id="a_edge17_Node000015_Node000016"><a xlink:title=" ">
<path fill="none" stroke="#63b8ff" d="M648.41,-193.38C659.93,-193.38 672.12,-193.38 683.97,-193.38"/>
<polygon fill="#63b8ff" stroke="#63b8ff" points="683.69,-196.88 693.69,-193.38 683.69,-189.88 683.69,-196.88"/>
</a>
</g>
</g>
<!-- Node18 -->
<g id="Node000018" class="node">
<title>Node18</title>
<g id="a_Node000018"><a xlink:href="classrtype_1_1NetworkServer.html#ad358010634e573e4e1d553570b10f2b8" target="_top" xlink:title="Counts the number of active players connected to the server.">
<polygon fill="white" stroke="#666666" points="815.75,-158.12 695.5,-158.12 695.5,-124.62 815.75,-124.62 815.75,-158.12"/>
<text xml:space="preserve" text-anchor="start" x="703.5" y="-144.62" font-family="Helvetica,sans-Serif" font-size="10.00">rtype::NetworkServer</text>
<text xml:space="preserve" text-anchor="middle" x="755.62" y="-131.88" font-family="Helvetica,sans-Serif" font-size="10.00">::countActivePlayers</text>
</a>
</g>
</g>
<!-- Node17&#45;&gt;Node18 -->
<g id="edge20_Node000017_Node000018" class="edge">
<title>Node17&#45;&gt;Node18</title>
<g id="a_edge20_Node000017_Node000018"><a xlink:title=" ">
<path fill="none" stroke="#63b8ff" d="M648.41,-141.38C659.93,-141.38 672.12,-141.38 683.97,-141.38"/>
<polygon fill="#63b8ff" stroke="#63b8ff" points="683.69,-144.88 693.69,-141.38 683.69,-137.88 683.69,-144.88"/>
</a>
</g>
</g>
<!-- Node19 -->
<g id="Node000019" class="node">
<title>Node19</title>
<g id="a_Node000019"><a xlink:href="classrtype_1_1NetworkServer.html#a6ebc16823bcf312a4e57cdd862cfebc2" target="_top" xlink:title="Creates a player entity in the ECS with appropriate components.">
<polygon fill="white" stroke="#666666" points="815.75,-106.12 695.5,-106.12 695.5,-72.62 815.75,-72.62 815.75,-106.12"/>
<text xml:space="preserve" text-anchor="start" x="703.5" y="-92.62" font-family="Helvetica,sans-Serif" font-size="10.00">rtype::NetworkServer</text>
<text xml:space="preserve" text-anchor="middle" x="755.62" y="-79.88" font-family="Helvetica,sans-Serif" font-size="10.00">::createPlayerEntity</text>
</a>
</g>
</g>
<!-- Node17&#45;&gt;Node19 -->
<g id="edge21_Node000017_Node000019" class="edge">
<title>Node17&#45;&gt;Node19</title>
<g id="a_edge21_Node000017_Node000019"><a xlink:title=" ">
<path fill="none" stroke="#63b8ff" d="M643.77,-124.2C658.25,-119.66 674.02,-114.7 689.01,-109.99"/>
<polygon fill="#63b8ff" stroke="#63b8ff" points="689.82,-113.41 698.31,-107.07 687.72,-106.73 689.82,-113.41"/>
</a>
</g>
</g>
<!-- Node20 -->
<g id="Node000020" class="node">
<title>Node20</title>
<g id="a_Node000020"><a xlink:href="classrtype_1_1NetworkServer.html#a023fe1b710c0f504eb9142f707fea4f7" target="_top" xlink:title="Sends a PLAYER_ID_ASSIGNMENT packet to a client.">
<polygon fill="white" stroke="#666666" points="827,-54.12 684.25,-54.12 684.25,-20.62 827,-20.62 827,-54.12"/>
<text xml:space="preserve" text-anchor="start" x="692.25" y="-40.62" font-family="Helvetica,sans-Serif" font-size="10.00">rtype::NetworkServer</text>
<text xml:space="preserve" text-anchor="middle" x="755.62" y="-27.88" font-family="Helvetica,sans-Serif" font-size="10.00">::sendPlayerIdAssignment</text>
</a>
</g>
</g>
<!-- Node17&#45;&gt;Node20 -->
<g id="edge22_Node000017_Node000020" class="edge">
<title>Node17&#45;&gt;Node20</title>
<g id="a_edge22_Node000017_Node000020"><a xlink:title=" ">
<path fill="none" stroke="#63b8ff" d="M635.18,-124.22C639.81,-121.6 644.27,-118.66 648.25,-115.38 669.93,-97.49 662.04,-80.6 684.25,-63.38 685.74,-62.22 687.28,-61.12 688.87,-60.06"/>
<polygon fill="#63b8ff" stroke="#63b8ff" points="690.22,-63.32 697.07,-55.24 686.67,-57.29 690.22,-63.32"/>
</a>
</g>
</g>
<!-- Node20&#45;&gt;Node5 -->
<g id="edge23_Node000020_Node000005" class="edge">
<title>Node20&#45;&gt;Node5</title>
<g id="a_edge23_Node000020_Node000005"><a xlink:title=" ">
<path fill="none" stroke="#63b8ff" d="M815.37,-54.58C819.58,-57.13 823.52,-60.04 827,-63.38 884.76,-118.71 908.91,-214.5 917.72,-261.99"/>
<polygon fill="#63b8ff" stroke="#63b8ff" points="914.26,-262.5 919.43,-271.75 921.15,-261.3 914.26,-262.5"/>
</a>
</g>
</g>
<!-- Node23 -->
<g id="Node000023" class="node">
<title>Node23</title>
<g id="a_Node000023"><a xlink:href="loadEnemies_8cpp.html#af086c67c4e25270ea66832413ed49dc1" target="_top" xlink:title="Extracts a JSON value for a given key within a specified range.">
<polygon fill="white" stroke="#666666" points="475.5,-98.75 374,-98.75 374,-78 475.5,-78 475.5,-98.75"/>
<text xml:space="preserve" text-anchor="middle" x="424.75" y="-85.25" font-family="Helvetica,sans-Serif" font-size="10.00">extractJSONValue</text>
</a>
</g>
</g>
<!-- Node22&#45;&gt;Node23 -->
<g id="edge26_Node000022_Node000023" class="edge">
<title>Node22&#45;&gt;Node23</title>
<g id="a_edge26_Node000022_Node000023"><a xlink:title=" ">
<path fill="none" stroke="#63b8ff" d="M315.17,-88.38C330.56,-88.38 346.94,-88.38 362.2,-88.38"/>
<polygon fill="#63b8ff" stroke="#63b8ff" points="362.09,-91.88 372.09,-88.38 362.09,-84.88 362.09,-91.88"/>
</a>
</g>
</g>
<!-- Node25 -->
<g id="Node000025" class="node">
<title>Node25</title>
<g id="a_Node000025"><a xlink:href="loadEnemies_8cpp.html#a73babc3876953ebe4dbeae87f10b1ca4" target="_top" xlink:title="Parses a JSON array of floats for a given key.">
<polygon fill="white" stroke="#666666" points="471.38,-59.75 378.12,-59.75 378.12,-39 471.38,-39 471.38,-59.75"/>
<text xml:space="preserve" text-anchor="middle" x="424.75" y="-46.25" font-family="Helvetica,sans-Serif" font-size="10.00">parseJSONArray</text>
</a>
</g>
</g>
<!-- Node22&#45;&gt;Node25 -->
<g id="edge28_Node000022_Node000025" class="edge">
<title>Node22&#45;&gt;Node25</title>
<g id="a_edge28_Node000022_Node000025"><a xlink:title=" ">
<path fill="none" stroke="#63b8ff" d="M315.17,-73.85C332.03,-70.05 350.09,-65.98 366.54,-62.27"/>
<polygon fill="#63b8ff" stroke="#63b8ff" points="367.18,-65.72 376.17,-60.1 365.64,-58.89 367.18,-65.72"/>
</a>
</g>
</g>
<!-- Node26 -->
<g id="Node000026" class="node">
<title>Node26</title>
<g id="a_Node000026"><a xlink:href="loadEnemies_8cpp.html#ad31cfd72f9d6657fe345f610e3ff2a59" target="_top" xlink:title="Parses a JSON string value for a given key.">
<polygon fill="white" stroke="#666666" points="472.5,-20.75 377,-20.75 377,0 472.5,0 472.5,-20.75"/>
<text xml:space="preserve" text-anchor="middle" x="424.75" y="-7.25" font-family="Helvetica,sans-Serif" font-size="10.00">parseJSONString</text>
</a>
</g>
</g>
<!-- Node22&#45;&gt;Node26 -->
<g id="edge30_Node000022_Node000026" class="edge">
<title>Node22&#45;&gt;Node26</title>
<g id="a_edge30_Node000022_Node000026"><a xlink:title=" ">
<path fill="none" stroke="#63b8ff" d="M304.3,-71.16C310.25,-68.53 316.11,-65.6 321.5,-62.38 339.87,-51.38 338.82,-40.82 357.5,-30.38 360.85,-28.5 364.4,-26.78 368.04,-25.21"/>
<polygon fill="#63b8ff" stroke="#63b8ff" points="369.01,-28.59 377.07,-21.71 366.48,-22.06 369.01,-28.59"/>
</a>
</g>
</g>
<!-- Node24 -->
<g id="Node000024" class="node">
<title>Node24</title>
<g id="a_Node000024"><a xlink:href="loadEnemies_8cpp.html#a3c3dcfc7f0222d5de8ca7c6f7dd5f978" target="_top" xlink:title="Trims whitespace from the beginning and end of a string.">
<polygon fill="white" stroke="#666666" points="606.25,-54.75 570,-54.75 570,-34 606.25,-34 606.25,-54.75"/>
<text xml:space="preserve" text-anchor="middle" x="588.12" y="-41.25" font-family="Helvetica,sans-Serif" font-size="10.00">trim</text>
</a>
</g>
</g>
<!-- Node23&#45;&gt;Node24 -->
<g id="edge27_Node000023_Node000024" class="edge">
<title>Node23&#45;&gt;Node24</title>
<g id="a_edge27_Node000023_Node000024"><a xlink:title=" ">
<path fill="none" stroke="#63b8ff" d="M465.23,-77.61C494.2,-69.71 532.85,-59.17 558.8,-52.1"/>
<polygon fill="#63b8ff" stroke="#63b8ff" points="559.55,-55.52 568.28,-49.51 557.71,-48.77 559.55,-55.52"/>
</a>
</g>
</g>
<!-- Node25&#45;&gt;Node24 -->
<g id="edge29_Node000025_Node000024" class="edge">
<title>Node25&#45;&gt;Node24</title>
<g id="a_edge29_Node000025_Node000024"><a xlink:title=" ">
<path fill="none" stroke="#63b8ff" d="M471.56,-47.96C499.46,-47.09 534.25,-46.01 558.33,-45.27"/>
<polygon fill="#63b8ff" stroke="#63b8ff" points="558.13,-48.78 568.02,-44.97 557.92,-41.78 558.13,-48.78"/>
</a>
</g>
</g>
</g>
</svg>
