<?xml version="1.0" encoding="UTF-8" standalone="no"?>
<!DOCTYPE svg PUBLIC "-//W3C//DTD SVG 1.1//EN"
 "http://www.w3.org/Graphics/SVG/1.1/DTD/svg11.dtd">
<!-- Generated by graphviz version 13.1.2 (20250808.2320)
 -->
<!-- Title: trim Pages: 1 -->
<svg width="603pt" height="68pt"
 viewBox="0.00 0.00 603.00 68.00" xmlns="http://www.w3.org/2000/svg" xmlns:xlink="http://www.w3.org/1999/xlink">
<g id="graph0" class="graph" transform="scale(1 1) rotate(0) translate(4 63.75)">
<title>trim</title>
<!-- Node1 -->
<g id="Node000001" class="node">
<title>Node1</title>
<g id="a_Node000001"><a xlink:title="Trims whitespace from the beginning and end of a string.">
<polygon fill="#999999" stroke="#666666" points="594.5,-39.75 558.25,-39.75 558.25,-19 594.5,-19 594.5,-39.75"/>
<text xml:space="preserve" text-anchor="middle" x="576.38" y="-26.25" font-family="Helvetica,sans-Serif" font-size="10.00">trim</text>
</a>
</g>
</g>
<!-- Node2 -->
<g id="Node000002" class="node">
<title>Node2</title>
<g id="a_Node000002"><a xlink:href="loadEnemies_8cpp.html#af086c67c4e25270ea66832413ed49dc1" target="_top" xlink:title="Extracts a JSON value for a given key within a specified range.">
<polygon fill="white" stroke="#666666" points="522.25,-59.75 420.75,-59.75 420.75,-39 522.25,-39 522.25,-59.75"/>
<text xml:space="preserve" text-anchor="middle" x="471.5" y="-46.25" font-family="Helvetica,sans-Serif" font-size="10.00">extractJSONValue</text>
</a>
</g>
</g>
<!-- Node1&#45;&gt;Node2 -->
<g id="edge1_Node000001_Node000002" class="edge">
<title>Node1&#45;&gt;Node2</title>
<g id="a_edge1_Node000001_Node000002"><a xlink:title=" ">
<path fill="none" stroke="#63b8ff" d="M546.81,-34.93C539.23,-36.4 530.8,-38.04 522.44,-39.67"/>
<polygon fill="#63b8ff" stroke="#63b8ff" points="547.29,-38.4 556.44,-33.06 545.95,-31.53 547.29,-38.4"/>
</a>
</g>
</g>
<!-- Node6 -->
<g id="Node000006" class="node">
<title>Node6</title>
<g id="a_Node000006"><a xlink:href="loadEnemies_8cpp.html#a73babc3876953ebe4dbeae87f10b1ca4" target="_top" xlink:title="Parses a JSON array of floats for a given key.">
<polygon fill="white" stroke="#666666" points="518.12,-20.75 424.88,-20.75 424.88,0 518.12,0 518.12,-20.75"/>
<text xml:space="preserve" text-anchor="middle" x="471.5" y="-7.25" font-family="Helvetica,sans-Serif" font-size="10.00">parseJSONArray</text>
</a>
</g>
</g>
<!-- Node1&#45;&gt;Node6 -->
<g id="edge5_Node000001_Node000006" class="edge">
<title>Node1&#45;&gt;Node6</title>
<g id="a_edge5_Node000001_Node000006"><a xlink:title=" ">
<path fill="none" stroke="#63b8ff" d="M546.76,-24.09C537.98,-22.47 528.08,-20.64 518.44,-18.86"/>
<polygon fill="#63b8ff" stroke="#63b8ff" points="545.97,-27.5 556.44,-25.88 547.24,-20.62 545.97,-27.5"/>
</a>
</g>
</g>
<!-- Node3 -->
<g id="Node000003" class="node">
<title>Node3</title>
<g id="a_Node000003"><a xlink:href="classrtype_1_1NetworkServer.html#ac5da2ddce90cd6e55994fd128037de96" target="_top" xlink:title="Loads enemy spawn data from a JSON file.">
<polygon fill="white" stroke="#666666" points="384.75,-46.12 254.75,-46.12 254.75,-12.62 384.75,-12.62 384.75,-46.12"/>
<text xml:space="preserve" text-anchor="start" x="262.75" y="-32.62" font-family="Helvetica,sans-Serif" font-size="10.00">rtype::NetworkServer</text>
<text xml:space="preserve" text-anchor="middle" x="319.75" y="-19.88" font-family="Helvetica,sans-Serif" font-size="10.00">::loadEnemiesFromJson</text>
</a>
</g>
</g>
<!-- Node2&#45;&gt;Node3 -->
<g id="edge2_Node000002_Node000003" class="edge">
<title>Node2&#45;&gt;Node3</title>
<g id="a_edge2_Node000002_Node000003"><a xlink:title=" ">
<path fill="none" stroke="#63b8ff" d="M409.45,-41.22C401.41,-40.15 393.14,-39.04 385.05,-37.96"/>
<polygon fill="#63b8ff" stroke="#63b8ff" points="408.76,-44.66 419.14,-42.51 409.69,-37.72 408.76,-44.66"/>
</a>
</g>
</g>
<!-- Node4 -->
<g id="Node000004" class="node">
<title>Node4</title>
<g id="a_Node000004"><a xlink:href="classrtype_1_1NetworkServer.html#a707e4bd01554bc358fa8315c6552e468" target="_top" xlink:title="Runs the network server.">
<polygon fill="white" stroke="#666666" points="218.75,-39.75 76.75,-39.75 76.75,-19 218.75,-19 218.75,-39.75"/>
<text xml:space="preserve" text-anchor="middle" x="147.75" y="-26.25" font-family="Helvetica,sans-Serif" font-size="10.00">rtype::NetworkServer::run</text>
</a>
</g>
</g>
<!-- Node3&#45;&gt;Node4 -->
<g id="edge3_Node000003_Node000004" class="edge">
<title>Node3&#45;&gt;Node4</title>
<g id="a_edge3_Node000003_Node000004"><a xlink:title=" ">
<path fill="none" stroke="#63b8ff" d="M243.23,-29.38C235.2,-29.38 227.05,-29.38 219.08,-29.38"/>
<polygon fill="#63b8ff" stroke="#63b8ff" points="242.97,-32.88 252.97,-29.38 242.97,-25.88 242.97,-32.88"/>
</a>
</g>
</g>
<!-- Node5 -->
<g id="Node000005" class="node">
<title>Node5</title>
<g id="a_Node000005"><a xlink:href="main_8cpp.html#a3c04138a5bfe5d72780bb7e82a18e627" target="_top" xlink:title=" ">
<polygon fill="white" stroke="#666666" points="40.75,-39.75 0,-39.75 0,-19 40.75,-19 40.75,-39.75"/>
<text xml:space="preserve" text-anchor="middle" x="20.38" y="-26.25" font-family="Helvetica,sans-Serif" font-size="10.00">main</text>
</a>
</g>
</g>
<!-- Node4&#45;&gt;Node5 -->
<g id="edge4_Node000004_Node000005" class="edge">
<title>Node4&#45;&gt;Node5</title>
<g id="a_edge4_Node000004_Node000005"><a xlink:title=" ">
<path fill="none" stroke="#63b8ff" d="M65.01,-29.38C56.23,-29.38 48,-29.38 41.11,-29.38"/>
<polygon fill="#63b8ff" stroke="#63b8ff" points="64.85,-32.88 74.85,-29.38 64.85,-25.88 64.85,-32.88"/>
</a>
</g>
</g>
<!-- Node6&#45;&gt;Node3 -->
<g id="edge6_Node000006_Node000003" class="edge">
<title>Node6&#45;&gt;Node3</title>
<g id="a_edge6_Node000006_Node000003"><a xlink:title=" ">
<path fill="none" stroke="#63b8ff" d="M413.36,-17.63C404.16,-18.79 394.59,-20.01 385.23,-21.19"/>
<polygon fill="#63b8ff" stroke="#63b8ff" points="413.77,-21.1 423.25,-16.37 412.89,-14.16 413.77,-21.1"/>
</a>
</g>
</g>
</g>
</svg>
