<?xml version="1.0" encoding="UTF-8" standalone="no"?>
<!DOCTYPE svg PUBLIC "-//W3C//DTD SVG 1.1//EN"
 "http://www.w3.org/Graphics/SVG/1.1/DTD/svg11.dtd">
<!-- Generated by graphviz version 13.1.2 (20250808.2320)
 -->
<!-- Title: src/network/loadEnemies.cpp Pages: 1 -->
<svg width="3082pt" height="168pt"
 viewBox="0.00 0.00 3082.00 168.00" xmlns="http://www.w3.org/2000/svg" xmlns:xlink="http://www.w3.org/1999/xlink">
<g id="graph0" class="graph" transform="scale(1 1) rotate(0) translate(4 163.75)">
<title>src/network/loadEnemies.cpp</title>
<!-- Node1 -->
<g id="Node000001" class="node">
<title>Node1</title>
<g id="a_Node000001"><a xlink:title=" ">
<polygon fill="#999999" stroke="#666666" points="1270.25,-159.75 1111,-159.75 1111,-139 1270.25,-139 1270.25,-159.75"/>
<text xml:space="preserve" text-anchor="middle" x="1190.62" y="-146.25" font-family="Helvetica,sans-Serif" font-size="10.00">src/network/loadEnemies.cpp</text>
</a>
</g>
</g>
<!-- Node2 -->
<g id="Node000002" class="node">
<title>Node2</title>
<g id="a_Node000002"><a xlink:title=" ">
<polygon fill="#e0e0e0" stroke="#999999" points="1109.25,-103 1046,-103 1046,-82.25 1109.25,-82.25 1109.25,-103"/>
<text xml:space="preserve" text-anchor="middle" x="1077.62" y="-89.5" font-family="Helvetica,sans-Serif" font-size="10.00">algorithm</text>
</a>
</g>
</g>
<!-- Node1&#45;&gt;Node2 -->
<g id="edge1_Node000001_Node000002" class="edge">
<title>Node1&#45;&gt;Node2</title>
<g id="a_edge1_Node000001_Node000002"><a xlink:title=" ">
<path fill="none" stroke="#63b8ff" d="M1170.42,-138.59C1153.07,-130.18 1127.79,-117.93 1108,-108.34"/>
<polygon fill="#63b8ff" stroke="#63b8ff" points="1109.54,-105.2 1099.01,-103.99 1106.49,-111.5 1109.54,-105.2"/>
</a>
</g>
</g>
<!-- Node3 -->
<g id="Node000003" class="node">
<title>Node3</title>
<g id="a_Node000003"><a xlink:title=" ">
<polygon fill="#e0e0e0" stroke="#999999" points="1181.75,-103 1127.5,-103 1127.5,-82.25 1181.75,-82.25 1181.75,-103"/>
<text xml:space="preserve" text-anchor="middle" x="1154.62" y="-89.5" font-family="Helvetica,sans-Serif" font-size="10.00">fstream</text>
</a>
</g>
</g>
<!-- Node1&#45;&gt;Node3 -->
<g id="edge2_Node000001_Node000003" class="edge">
<title>Node1&#45;&gt;Node3</title>
<g id="a_edge2_Node000001_Node000003"><a xlink:title=" ">
<path fill="none" stroke="#63b8ff" d="M1184.19,-138.59C1179.48,-131.42 1172.94,-121.48 1167.21,-112.76"/>
<polygon fill="#63b8ff" stroke="#63b8ff" points="1170.26,-111.03 1161.84,-104.59 1164.41,-114.87 1170.26,-111.03"/>
</a>
</g>
</g>
<!-- Node4 -->
<g id="Node000004" class="node">
<title>Node4</title>
<g id="a_Node000004"><a xlink:title=" ">
<polygon fill="#e0e0e0" stroke="#999999" points="1255.5,-103 1199.75,-103 1199.75,-82.25 1255.5,-82.25 1255.5,-103"/>
<text xml:space="preserve" text-anchor="middle" x="1227.62" y="-89.5" font-family="Helvetica,sans-Serif" font-size="10.00">sstream</text>
</a>
</g>
</g>
<!-- Node1&#45;&gt;Node4 -->
<g id="edge3_Node000001_Node000004" class="edge">
<title>Node1&#45;&gt;Node4</title>
<g id="a_edge3_Node000001_Node000004"><a xlink:title=" ">
<path fill="none" stroke="#63b8ff" d="M1197.24,-138.59C1202.08,-131.42 1208.8,-121.48 1214.7,-112.76"/>
<polygon fill="#63b8ff" stroke="#63b8ff" points="1217.52,-114.83 1220.22,-104.58 1211.72,-110.91 1217.52,-114.83"/>
</a>
</g>
</g>
<!-- Node5 -->
<g id="Node000005" class="node">
<title>Node5</title>
<g id="a_Node000005"><a xlink:href="NetworkServer_8hpp.html" target="_top" xlink:title=" ">
<polygon fill="white" stroke="#666666" points="1382.12,-103 1273.12,-103 1273.12,-82.25 1382.12,-82.25 1382.12,-103"/>
<text xml:space="preserve" text-anchor="middle" x="1327.62" y="-89.5" font-family="Helvetica,sans-Serif" font-size="10.00">NetworkServer.hpp</text>
</a>
</g>
</g>
<!-- Node1&#45;&gt;Node5 -->
<g id="edge4_Node000001_Node000005" class="edge">
<title>Node1&#45;&gt;Node5</title>
<g id="a_edge4_Node000001_Node000005"><a xlink:title=" ">
<path fill="none" stroke="#63b8ff" d="M1215.12,-138.59C1236.74,-129.94 1268.51,-117.25 1292.78,-107.55"/>
<polygon fill="#63b8ff" stroke="#63b8ff" points="1293.95,-110.85 1301.94,-103.89 1291.35,-104.35 1293.95,-110.85"/>
</a>
</g>
</g>
<!-- Node6 -->
<g id="Node000006" class="node">
<title>Node6</title>
<g id="a_Node000006"><a xlink:title=" ">
<polygon fill="#e0e0e0" stroke="#999999" points="57.25,-33.5 0,-33.5 0,-12.75 57.25,-12.75 57.25,-33.5"/>
<text xml:space="preserve" text-anchor="middle" x="28.62" y="-20" font-family="Helvetica,sans-Serif" font-size="10.00">asio.hpp</text>
</a>
</g>
</g>
<!-- Node5&#45;&gt;Node6 -->
<g id="edge5_Node000005_Node000006" class="edge">
<title>Node5&#45;&gt;Node6</title>
<g id="a_edge5_Node000005_Node000006"><a xlink:title=" ">
<path fill="none" stroke="#63b8ff" d="M1272.7,-83.06C1269.97,-82.76 1267.27,-82.49 1264.62,-82.25 1131.98,-70.43 194.66,-82.88 66.62,-46.25 61.45,-44.77 56.24,-42.42 51.41,-39.81"/>
<polygon fill="#63b8ff" stroke="#63b8ff" points="53.26,-36.83 42.89,-34.64 49.63,-42.82 53.26,-36.83"/>
</a>
</g>
</g>
<!-- Node7 -->
<g id="Node000007" class="node">
<title>Node7</title>
<g id="a_Node000007"><a xlink:title=" ">
<polygon fill="#e0e0e0" stroke="#999999" points="113.5,-33.5 75.75,-33.5 75.75,-12.75 113.5,-12.75 113.5,-33.5"/>
<text xml:space="preserve" text-anchor="middle" x="94.62" y="-20" font-family="Helvetica,sans-Serif" font-size="10.00">map</text>
</a>
</g>
</g>
<!-- Node5&#45;&gt;Node7 -->
<g id="edge6_Node000005_Node000007" class="edge">
<title>Node5&#45;&gt;Node7</title>
<g id="a_edge6_Node000005_Node000007"><a xlink:title=" ">
<path fill="none" stroke="#63b8ff" d="M1272.69,-83.07C1269.97,-82.76 1267.27,-82.49 1264.62,-82.25 1138.18,-70.89 241.88,-89.8 122.62,-46.25 119.02,-44.93 115.51,-42.96 112.28,-40.72"/>
<polygon fill="#63b8ff" stroke="#63b8ff" points="114.67,-38.15 104.7,-34.56 110.25,-43.58 114.67,-38.15"/>
</a>
</g>
</g>
<!-- Node8 -->
<g id="Node000008" class="node">
<title>Node8</title>
<g id="a_Node000008"><a xlink:title=" ">
<polygon fill="#e0e0e0" stroke="#999999" points="189.25,-33.5 132,-33.5 132,-12.75 189.25,-12.75 189.25,-33.5"/>
<text xml:space="preserve" text-anchor="middle" x="160.62" y="-20" font-family="Helvetica,sans-Serif" font-size="10.00">memory</text>
</a>
</g>
</g>
<!-- Node5&#45;&gt;Node8 -->
<g id="edge7_Node000005_Node000008" class="edge">
<title>Node5&#45;&gt;Node8</title>
<g id="a_edge7_Node000005_Node000008"><a xlink:title=" ">
<path fill="none" stroke="#63b8ff" d="M1272.69,-83.07C1269.97,-82.77 1267.27,-82.49 1264.62,-82.25 1028.35,-60.76 425.21,-113.26 197.62,-46.25 192.56,-44.76 187.48,-42.41 182.77,-39.79"/>
<polygon fill="#63b8ff" stroke="#63b8ff" points="184.85,-36.96 174.51,-34.64 181.15,-42.9 184.85,-36.96"/>
</a>
</g>
</g>
<!-- Node9 -->
<g id="Node000009" class="node">
<title>Node9</title>
<g id="a_Node000009"><a xlink:title=" ">
<polygon fill="#e0e0e0" stroke="#999999" points="254.38,-33.5 206.88,-33.5 206.88,-12.75 254.38,-12.75 254.38,-33.5"/>
<text xml:space="preserve" text-anchor="middle" x="230.62" y="-20" font-family="Helvetica,sans-Serif" font-size="10.00">mutex</text>
</a>
</g>
</g>
<!-- Node5&#45;&gt;Node9 -->
<g id="edge8_Node000005_Node000009" class="edge">
<title>Node5&#45;&gt;Node9</title>
<g id="a_edge8_Node000005_Node000009"><a xlink:title=" ">
<path fill="none" stroke="#63b8ff" d="M1272.69,-83.08C1269.97,-82.77 1267.27,-82.49 1264.62,-82.25 1153.8,-72.04 369.5,-80.55 263.62,-46.25 259.25,-44.83 254.91,-42.65 250.89,-40.2"/>
<polygon fill="#63b8ff" stroke="#63b8ff" points="253.16,-37.52 242.95,-34.7 249.17,-43.27 253.16,-37.52"/>
</a>
</g>
</g>
<!-- Node10 -->
<g id="Node000010" class="node">
<title>Node10</title>
<g id="a_Node000010"><a xlink:title=" ">
<polygon fill="#e0e0e0" stroke="#999999" points="316.5,-33.5 272.75,-33.5 272.75,-12.75 316.5,-12.75 316.5,-33.5"/>
<text xml:space="preserve" text-anchor="middle" x="294.62" y="-20" font-family="Helvetica,sans-Serif" font-size="10.00">string</text>
</a>
</g>
</g>
<!-- Node5&#45;&gt;Node10 -->
<g id="edge9_Node000005_Node000010" class="edge">
<title>Node5&#45;&gt;Node10</title>
<g id="a_edge9_Node000005_Node000010"><a xlink:title=" ">
<path fill="none" stroke="#63b8ff" d="M1272.69,-83.09C1269.97,-82.78 1267.27,-82.5 1264.62,-82.25 1160.67,-72.55 424.43,-79.99 325.62,-46.25 321.69,-44.91 317.82,-42.89 314.21,-40.6"/>
<polygon fill="#63b8ff" stroke="#63b8ff" points="316.3,-37.79 306.16,-34.72 312.17,-43.44 316.3,-37.79"/>
</a>
</g>
</g>
<!-- Node11 -->
<g id="Node000011" class="node">
<title>Node11</title>
<g id="a_Node000011"><a xlink:title=" ">
<polygon fill="#e0e0e0" stroke="#999999" points="381,-33.5 334.25,-33.5 334.25,-12.75 381,-12.75 381,-33.5"/>
<text xml:space="preserve" text-anchor="middle" x="357.62" y="-20" font-family="Helvetica,sans-Serif" font-size="10.00">vector</text>
</a>
</g>
</g>
<!-- Node5&#45;&gt;Node11 -->
<g id="edge10_Node000005_Node000011" class="edge">
<title>Node5&#45;&gt;Node11</title>
<g id="a_edge10_Node000005_Node000011"><a xlink:title=" ">
<path fill="none" stroke="#63b8ff" d="M1272.69,-83.1C1269.97,-82.79 1267.27,-82.5 1264.62,-82.25 1070.88,-63.9 574.17,-108.03 389.62,-46.25 385.47,-44.86 381.37,-42.76 377.56,-40.39"/>
<polygon fill="#63b8ff" stroke="#63b8ff" points="379.74,-37.64 369.56,-34.69 375.68,-43.34 379.74,-37.64"/>
</a>
</g>
</g>
<!-- Node12 -->
<g id="Node000012" class="node">
<title>Node12</title>
<g id="a_Node000012"><a xlink:title=" ">
<polygon fill="#e0e0e0" stroke="#999999" points="540.62,-46.25 398.62,-46.25 398.62,0 540.62,0 540.62,-46.25"/>
<text xml:space="preserve" text-anchor="start" x="406.62" y="-32.75" font-family="Helvetica,sans-Serif" font-size="10.00">../../../gameEngine</text>
<text xml:space="preserve" text-anchor="start" x="406.62" y="-20" font-family="Helvetica,sans-Serif" font-size="10.00">/components/AIControlled</text>
<text xml:space="preserve" text-anchor="middle" x="469.62" y="-7.25" font-family="Helvetica,sans-Serif" font-size="10.00">/src/AIControlled.hpp</text>
</a>
</g>
</g>
<!-- Node5&#45;&gt;Node12 -->
<g id="edge11_Node000005_Node000012" class="edge">
<title>Node5&#45;&gt;Node12</title>
<g id="a_edge11_Node000005_Node000012"><a xlink:title=" ">
<path fill="none" stroke="#63b8ff" d="M1272.69,-83.13C1269.97,-82.81 1267.27,-82.51 1264.62,-82.25 951.71,-51.17 865.74,-95.89 552.23,-46.49"/>
<polygon fill="#63b8ff" stroke="#63b8ff" points="552.9,-43.06 542.48,-44.93 551.8,-49.97 552.9,-43.06"/>
</a>
</g>
</g>
<!-- Node13 -->
<g id="Node000013" class="node">
<title>Node13</title>
<g id="a_Node000013"><a xlink:title=" ">
<polygon fill="#e0e0e0" stroke="#999999" points="700.62,-46.25 558.62,-46.25 558.62,0 700.62,0 700.62,-46.25"/>
<text xml:space="preserve" text-anchor="start" x="566.62" y="-32.75" font-family="Helvetica,sans-Serif" font-size="10.00">../../../gameEngine</text>
<text xml:space="preserve" text-anchor="start" x="566.62" y="-20" font-family="Helvetica,sans-Serif" font-size="10.00">/components/acceleration</text>
<text xml:space="preserve" text-anchor="middle" x="629.62" y="-7.25" font-family="Helvetica,sans-Serif" font-size="10.00">/src/Acceleration.hpp</text>
</a>
</g>
</g>
<!-- Node5&#45;&gt;Node13 -->
<g id="edge12_Node000005_Node000013" class="edge">
<title>Node5&#45;&gt;Node13</title>
<g id="a_edge12_Node000005_Node000013"><a xlink:title=" ">
<path fill="none" stroke="#63b8ff" d="M1272.68,-83.18C1269.96,-82.84 1267.26,-82.53 1264.62,-82.25 1022.55,-56.43 955.38,-86.47 712.32,-46.53"/>
<polygon fill="#63b8ff" stroke="#63b8ff" points="712.92,-43.09 702.48,-44.89 711.77,-49.99 712.92,-43.09"/>
</a>
</g>
</g>
<!-- Node14 -->
<g id="Node000014" class="node">
<title>Node14</title>
<g id="a_Node000014"><a xlink:title=" ">
<polygon fill="#e0e0e0" stroke="#999999" points="854.62,-46.25 718.62,-46.25 718.62,0 854.62,0 854.62,-46.25"/>
<text xml:space="preserve" text-anchor="start" x="726.62" y="-32.75" font-family="Helvetica,sans-Serif" font-size="10.00">../../../gameEngine</text>
<text xml:space="preserve" text-anchor="start" x="726.62" y="-20" font-family="Helvetica,sans-Serif" font-size="10.00">/components/domain/src</text>
<text xml:space="preserve" text-anchor="middle" x="786.62" y="-7.25" font-family="Helvetica,sans-Serif" font-size="10.00">/Domain.hpp</text>
</a>
</g>
</g>
<!-- Node5&#45;&gt;Node14 -->
<g id="edge13_Node000005_Node000014" class="edge">
<title>Node5&#45;&gt;Node14</title>
<g id="a_edge13_Node000005_Node000014"><a xlink:title=" ">
<path fill="none" stroke="#63b8ff" d="M1272.68,-83.26C1269.96,-82.9 1267.26,-82.56 1264.62,-82.25 1090.59,-61.51 1041.52,-78.38 866.09,-46.54"/>
<polygon fill="#63b8ff" stroke="#63b8ff" points="866.85,-43.12 856.39,-44.75 865.58,-50 866.85,-43.12"/>
</a>
</g>
</g>
<!-- Node15 -->
<g id="Node000015" class="node">
<title>Node15</title>
<g id="a_Node000015"><a xlink:title=" ">
<polygon fill="#e0e0e0" stroke="#999999" points="1030.12,-46.25 873.12,-46.25 873.12,0 1030.12,0 1030.12,-46.25"/>
<text xml:space="preserve" text-anchor="start" x="881.12" y="-32.75" font-family="Helvetica,sans-Serif" font-size="10.00">../../../gameEngine</text>
<text xml:space="preserve" text-anchor="start" x="881.12" y="-20" font-family="Helvetica,sans-Serif" font-size="10.00">/components/inputControlled</text>
<text xml:space="preserve" text-anchor="middle" x="951.62" y="-7.25" font-family="Helvetica,sans-Serif" font-size="10.00">/src/InputControlled.hpp</text>
</a>
</g>
</g>
<!-- Node5&#45;&gt;Node15 -->
<g id="edge14_Node000005_Node000015" class="edge">
<title>Node5&#45;&gt;Node15</title>
<g id="a_edge14_Node000005_Node000015"><a xlink:title=" ">
<path fill="none" stroke="#63b8ff" d="M1272.9,-83.31C1202.79,-72.63 1085.79,-54.65 1041.53,-46.63"/>
<polygon fill="#63b8ff" stroke="#63b8ff" points="1042.24,-43.2 1031.76,-44.76 1040.92,-50.07 1042.24,-43.2"/>
</a>
</g>
</g>
<!-- Node16 -->
<g id="Node000016" class="node">
<title>Node16</title>
<g id="a_Node000016"><a xlink:title=" ">
<polygon fill="#e0e0e0" stroke="#999999" points="1169.12,-46.25 1048.12,-46.25 1048.12,0 1169.12,0 1169.12,-46.25"/>
<text xml:space="preserve" text-anchor="start" x="1056.12" y="-32.75" font-family="Helvetica,sans-Serif" font-size="10.00">../../../gameEngine</text>
<text xml:space="preserve" text-anchor="start" x="1056.12" y="-20" font-family="Helvetica,sans-Serif" font-size="10.00">/components/position</text>
<text xml:space="preserve" text-anchor="middle" x="1108.62" y="-7.25" font-family="Helvetica,sans-Serif" font-size="10.00">/src/Position.hpp</text>
</a>
</g>
</g>
<!-- Node5&#45;&gt;Node16 -->
<g id="edge15_Node000005_Node000016" class="edge">
<title>Node5&#45;&gt;Node16</title>
<g id="a_edge15_Node000005_Node000016"><a xlink:title=" ">
<path fill="none" stroke="#63b8ff" d="M1295.04,-81.81C1267.08,-73.36 1225.42,-60.72 1180.25,-46.74"/>
<polygon fill="#63b8ff" stroke="#63b8ff" points="1181.35,-43.42 1170.76,-43.8 1179.28,-50.1 1181.35,-43.42"/>
</a>
</g>
</g>
<!-- Node17 -->
<g id="Node000017" class="node">
<title>Node17</title>
<g id="a_Node000017"><a xlink:title=" ">
<polygon fill="#e0e0e0" stroke="#999999" points="1321.88,-46.25 1187.38,-46.25 1187.38,0 1321.88,0 1321.88,-46.25"/>
<text xml:space="preserve" text-anchor="start" x="1195.38" y="-32.75" font-family="Helvetica,sans-Serif" font-size="10.00">../../../gameEngine</text>
<text xml:space="preserve" text-anchor="start" x="1195.38" y="-20" font-family="Helvetica,sans-Serif" font-size="10.00">/components/renderable</text>
<text xml:space="preserve" text-anchor="middle" x="1254.62" y="-7.25" font-family="Helvetica,sans-Serif" font-size="10.00">/src/Renderable.hpp</text>
</a>
</g>
</g>
<!-- Node5&#45;&gt;Node17 -->
<g id="edge16_Node000005_Node000017" class="edge">
<title>Node5&#45;&gt;Node17</title>
<g id="a_edge16_Node000005_Node000017"><a xlink:title=" ">
<path fill="none" stroke="#63b8ff" d="M1317.17,-81.95C1309.25,-74.63 1297.92,-64.16 1287.08,-54.13"/>
<polygon fill="#63b8ff" stroke="#63b8ff" points="1289.77,-51.86 1280.05,-47.64 1285.02,-57 1289.77,-51.86"/>
</a>
</g>
</g>
<!-- Node18 -->
<g id="Node000018" class="node">
<title>Node18</title>
<g id="a_Node000018"><a xlink:title=" ">
<polygon fill="#e0e0e0" stroke="#999999" points="1461.12,-46.25 1340.12,-46.25 1340.12,0 1461.12,0 1461.12,-46.25"/>
<text xml:space="preserve" text-anchor="start" x="1348.12" y="-32.75" font-family="Helvetica,sans-Serif" font-size="10.00">../../../gameEngine</text>
<text xml:space="preserve" text-anchor="start" x="1348.12" y="-20" font-family="Helvetica,sans-Serif" font-size="10.00">/components/velocity</text>
<text xml:space="preserve" text-anchor="middle" x="1400.62" y="-7.25" font-family="Helvetica,sans-Serif" font-size="10.00">/src/Velocity.hpp</text>
</a>
</g>
</g>
<!-- Node5&#45;&gt;Node18 -->
<g id="edge17_Node000005_Node000018" class="edge">
<title>Node5&#45;&gt;Node18</title>
<g id="a_edge17_Node000005_Node000018"><a xlink:title=" ">
<path fill="none" stroke="#63b8ff" d="M1338.08,-81.95C1346,-74.63 1357.33,-64.16 1368.17,-54.13"/>
<polygon fill="#63b8ff" stroke="#63b8ff" points="1370.23,-57 1375.2,-47.64 1365.48,-51.86 1370.23,-57"/>
</a>
</g>
</g>
<!-- Node19 -->
<g id="Node000019" class="node">
<title>Node19</title>
<g id="a_Node000019"><a xlink:title=" ">
<polygon fill="#e0e0e0" stroke="#999999" points="1582.5,-39.88 1478.75,-39.88 1478.75,-6.38 1582.5,-6.38 1582.5,-39.88"/>
<text xml:space="preserve" text-anchor="start" x="1486.75" y="-26.38" font-family="Helvetica,sans-Serif" font-size="10.00">../../../gameEngine</text>
<text xml:space="preserve" text-anchor="middle" x="1530.62" y="-13.62" font-family="Helvetica,sans-Serif" font-size="10.00">/ecs/Registry.hpp</text>
</a>
</g>
</g>
<!-- Node5&#45;&gt;Node19 -->
<g id="edge18_Node000005_Node000019" class="edge">
<title>Node5&#45;&gt;Node19</title>
<g id="a_edge18_Node000005_Node000019"><a xlink:title=" ">
<path fill="none" stroke="#63b8ff" d="M1360.14,-81.78C1389.21,-72.86 1432.93,-59.17 1470.62,-46.25 1472.67,-45.55 1474.76,-44.82 1476.86,-44.09"/>
<polygon fill="#63b8ff" stroke="#63b8ff" points="1477.78,-47.48 1486.02,-40.82 1475.43,-40.88 1477.78,-47.48"/>
</a>
</g>
</g>
<!-- Node20 -->
<g id="Node000020" class="node">
<title>Node20</title>
<g id="a_Node000020"><a xlink:title=" ">
<polygon fill="#e0e0e0" stroke="#999999" points="1738.75,-46.25 1600.5,-46.25 1600.5,0 1738.75,0 1738.75,-46.25"/>
<text xml:space="preserve" text-anchor="start" x="1608.5" y="-32.75" font-family="Helvetica,sans-Serif" font-size="10.00">../../../gameEngine</text>
<text xml:space="preserve" text-anchor="start" x="1608.5" y="-20" font-family="Helvetica,sans-Serif" font-size="10.00">/systems/FPApplyGravity</text>
<text xml:space="preserve" text-anchor="middle" x="1669.62" y="-7.25" font-family="Helvetica,sans-Serif" font-size="10.00">/src/FPApplyGravity.hpp</text>
</a>
</g>
</g>
<!-- Node5&#45;&gt;Node20 -->
<g id="edge19_Node000005_Node000020" class="edge">
<title>Node5&#45;&gt;Node20</title>
<g id="a_edge19_Node000005_Node000020"><a xlink:title=" ">
<path fill="none" stroke="#63b8ff" d="M1382.57,-83.92C1433.79,-76.35 1512.51,-63.72 1589.54,-46.62"/>
<polygon fill="#63b8ff" stroke="#63b8ff" points="1589.94,-50.12 1598.92,-44.51 1588.4,-43.29 1589.94,-50.12"/>
</a>
</g>
</g>
<!-- Node21 -->
<g id="Node000021" class="node">
<title>Node21</title>
<g id="a_Node000021"><a xlink:title=" ">
<polygon fill="#e0e0e0" stroke="#999999" points="1894.75,-46.25 1756.5,-46.25 1756.5,0 1894.75,0 1894.75,-46.25"/>
<text xml:space="preserve" text-anchor="start" x="1764.5" y="-32.75" font-family="Helvetica,sans-Serif" font-size="10.00">../../../gameEngine</text>
<text xml:space="preserve" text-anchor="start" x="1764.5" y="-20" font-family="Helvetica,sans-Serif" font-size="10.00">/systems/FPInputHandler</text>
<text xml:space="preserve" text-anchor="middle" x="1825.62" y="-7.25" font-family="Helvetica,sans-Serif" font-size="10.00">/src/FPInputHandler.hpp</text>
</a>
</g>
</g>
<!-- Node5&#45;&gt;Node21 -->
<g id="edge20_Node000005_Node000021" class="edge">
<title>Node5&#45;&gt;Node21</title>
<g id="a_edge20_Node000005_Node000021"><a xlink:title=" ">
<path fill="none" stroke="#63b8ff" d="M1382.43,-88.66C1460.92,-83.77 1609.92,-72.08 1745.08,-46.6"/>
<polygon fill="#63b8ff" stroke="#63b8ff" points="1745.38,-50.1 1754.54,-44.78 1744.06,-43.23 1745.38,-50.1"/>
</a>
</g>
</g>
<!-- Node22 -->
<g id="Node000022" class="node">
<title>Node22</title>
<g id="a_Node000022"><a xlink:title=" ">
<polygon fill="#e0e0e0" stroke="#999999" points="2038.75,-46.25 1912.5,-46.25 1912.5,0 2038.75,0 2038.75,-46.25"/>
<text xml:space="preserve" text-anchor="start" x="1920.5" y="-32.75" font-family="Helvetica,sans-Serif" font-size="10.00">../../../gameEngine</text>
<text xml:space="preserve" text-anchor="start" x="1920.5" y="-20" font-family="Helvetica,sans-Serif" font-size="10.00">/systems/FPMotion/src</text>
<text xml:space="preserve" text-anchor="middle" x="1975.62" y="-7.25" font-family="Helvetica,sans-Serif" font-size="10.00">/FPMotion.hpp</text>
</a>
</g>
</g>
<!-- Node5&#45;&gt;Node22 -->
<g id="edge21_Node000005_Node000022" class="edge">
<title>Node5&#45;&gt;Node22</title>
<g id="a_edge21_Node000005_Node000022"><a xlink:title=" ">
<path fill="none" stroke="#63b8ff" d="M1382.55,-91.29C1483.72,-89.81 1706.23,-82.55 1901.19,-46.51"/>
<polygon fill="#63b8ff" stroke="#63b8ff" points="1901.54,-50.01 1910.72,-44.72 1900.25,-43.13 1901.54,-50.01"/>
</a>
</g>
</g>
<!-- Node23 -->
<g id="Node000023" class="node">
<title>Node23</title>
<g id="a_Node000023"><a xlink:title=" ">
<polygon fill="#e0e0e0" stroke="#999999" points="2186.62,-46.25 2056.62,-46.25 2056.62,0 2186.62,0 2186.62,-46.25"/>
<text xml:space="preserve" text-anchor="start" x="2064.62" y="-32.75" font-family="Helvetica,sans-Serif" font-size="10.00">../../../gameEngine</text>
<text xml:space="preserve" text-anchor="start" x="2064.62" y="-20" font-family="Helvetica,sans-Serif" font-size="10.00">/systems/animation/src</text>
<text xml:space="preserve" text-anchor="middle" x="2121.62" y="-7.25" font-family="Helvetica,sans-Serif" font-size="10.00">/Animation.hpp</text>
</a>
</g>
</g>
<!-- Node5&#45;&gt;Node23 -->
<g id="edge22_Node000005_Node000023" class="edge">
<title>Node5&#45;&gt;Node23</title>
<g id="a_edge22_Node000005_Node000023"><a xlink:title=" ">
<path fill="none" stroke="#63b8ff" d="M1382.32,-92.4C1501.52,-93.17 1793.54,-90.16 2045.25,-46.46"/>
<polygon fill="#63b8ff" stroke="#63b8ff" points="2045.72,-49.94 2054.96,-44.75 2044.5,-43.04 2045.72,-49.94"/>
</a>
</g>
</g>
<!-- Node24 -->
<g id="Node000024" class="node">
<title>Node24</title>
<g id="a_Node000024"><a xlink:title=" ">
<polygon fill="#e0e0e0" stroke="#999999" points="2322.25,-46.25 2205,-46.25 2205,0 2322.25,0 2322.25,-46.25"/>
<text xml:space="preserve" text-anchor="start" x="2213" y="-32.75" font-family="Helvetica,sans-Serif" font-size="10.00">../../../gameEngine</text>
<text xml:space="preserve" text-anchor="start" x="2213" y="-20" font-family="Helvetica,sans-Serif" font-size="10.00">/systems/applyScore</text>
<text xml:space="preserve" text-anchor="middle" x="2263.62" y="-7.25" font-family="Helvetica,sans-Serif" font-size="10.00">/src/ApplyScore.hpp</text>
</a>
</g>
</g>
<!-- Node5&#45;&gt;Node24 -->
<g id="edge23_Node000005_Node000024" class="edge">
<title>Node5&#45;&gt;Node24</title>
<g id="a_edge23_Node000005_Node000024"><a xlink:title=" ">
<path fill="none" stroke="#63b8ff" d="M1382.38,-90.64C1543.91,-87.44 2017.59,-75.9 2193.38,-46.34"/>
<polygon fill="#63b8ff" stroke="#63b8ff" points="2193.8,-49.82 2203.03,-44.63 2192.58,-42.93 2193.8,-49.82"/>
</a>
</g>
</g>
<!-- Node25 -->
<g id="Node000025" class="node">
<title>Node25</title>
<g id="a_Node000025"><a xlink:title=" ">
<polygon fill="#e0e0e0" stroke="#999999" points="2461.12,-46.25 2340.12,-46.25 2340.12,0 2461.12,0 2461.12,-46.25"/>
<text xml:space="preserve" text-anchor="start" x="2348.12" y="-32.75" font-family="Helvetica,sans-Serif" font-size="10.00">../../../gameEngine</text>
<text xml:space="preserve" text-anchor="start" x="2348.12" y="-20" font-family="Helvetica,sans-Serif" font-size="10.00">/systems/collision/src</text>
<text xml:space="preserve" text-anchor="middle" x="2400.62" y="-7.25" font-family="Helvetica,sans-Serif" font-size="10.00">/Collision.hpp</text>
</a>
</g>
</g>
<!-- Node5&#45;&gt;Node25 -->
<g id="edge24_Node000005_Node000025" class="edge">
<title>Node5&#45;&gt;Node25</title>
<g id="a_edge24_Node000005_Node000025"><a xlink:title=" ">
<path fill="none" stroke="#63b8ff" d="M1382.43,-91.06C1560.96,-88.92 2125.53,-79.76 2328.76,-46.48"/>
<polygon fill="#63b8ff" stroke="#63b8ff" points="2329.14,-49.96 2338.4,-44.82 2327.95,-43.06 2329.14,-49.96"/>
</a>
</g>
</g>
<!-- Node26 -->
<g id="Node000026" class="node">
<title>Node26</title>
<g id="a_Node000026"><a xlink:title=" ">
<polygon fill="#e0e0e0" stroke="#999999" points="2640.38,-39.88 2478.88,-39.88 2478.88,-6.38 2640.38,-6.38 2640.38,-39.88"/>
<text xml:space="preserve" text-anchor="start" x="2486.88" y="-26.38" font-family="Helvetica,sans-Serif" font-size="10.00">../../../gameEngine</text>
<text xml:space="preserve" text-anchor="middle" x="2559.62" y="-13.62" font-family="Helvetica,sans-Serif" font-size="10.00">/systems/death/src/Death.hpp</text>
</a>
</g>
</g>
<!-- Node5&#45;&gt;Node26 -->
<g id="edge25_Node000005_Node000026" class="edge">
<title>Node5&#45;&gt;Node26</title>
<g id="a_edge25_Node000005_Node000026"><a xlink:title=" ">
<path fill="none" stroke="#63b8ff" d="M1382.56,-90.93C1580.48,-88.19 2256.69,-76.76 2470.62,-46.25 2477.09,-45.33 2483.76,-44.13 2490.42,-42.78"/>
<polygon fill="#63b8ff" stroke="#63b8ff" points="2491.04,-46.22 2500.08,-40.69 2489.56,-39.38 2491.04,-46.22"/>
</a>
</g>
</g>
<!-- Node27 -->
<g id="Node000027" class="node">
<title>Node27</title>
<g id="a_Node000027"><a xlink:title=" ">
<polygon fill="#e0e0e0" stroke="#999999" points="2796.75,-46.25 2658.5,-46.25 2658.5,0 2796.75,0 2796.75,-46.25"/>
<text xml:space="preserve" text-anchor="start" x="2666.5" y="-32.75" font-family="Helvetica,sans-Serif" font-size="10.00">../../../gameEngine</text>
<text xml:space="preserve" text-anchor="start" x="2666.5" y="-20" font-family="Helvetica,sans-Serif" font-size="10.00">/systems/domainHandler</text>
<text xml:space="preserve" text-anchor="middle" x="2727.62" y="-7.25" font-family="Helvetica,sans-Serif" font-size="10.00">/src/DomainHandler.hpp</text>
</a>
</g>
</g>
<!-- Node5&#45;&gt;Node27 -->
<g id="edge26_Node000005_Node000027" class="edge">
<title>Node5&#45;&gt;Node27</title>
<g id="a_edge26_Node000005_Node000027"><a xlink:title=" ">
<path fill="none" stroke="#63b8ff" d="M1382.41,-91.51C1596.4,-90.79 2376.95,-85.58 2646.76,-46.46"/>
<polygon fill="#63b8ff" stroke="#63b8ff" points="2647.21,-49.93 2656.57,-44.98 2646.16,-43.01 2647.21,-49.93"/>
</a>
</g>
</g>
<!-- Node28 -->
<g id="Node000028" class="node">
<title>Node28</title>
<g id="a_Node000028"><a xlink:title=" ">
<polygon fill="#e0e0e0" stroke="#999999" points="2940.75,-46.25 2814.5,-46.25 2814.5,0 2940.75,0 2940.75,-46.25"/>
<text xml:space="preserve" text-anchor="start" x="2822.5" y="-32.75" font-family="Helvetica,sans-Serif" font-size="10.00">../../../gameEngine</text>
<text xml:space="preserve" text-anchor="start" x="2822.5" y="-20" font-family="Helvetica,sans-Serif" font-size="10.00">/systems/inputHandler</text>
<text xml:space="preserve" text-anchor="middle" x="2877.62" y="-7.25" font-family="Helvetica,sans-Serif" font-size="10.00">/src/InputHandler.hpp</text>
</a>
</g>
</g>
<!-- Node5&#45;&gt;Node28 -->
<g id="edge27_Node000005_Node000028" class="edge">
<title>Node5&#45;&gt;Node28</title>
<g id="a_edge27_Node000005_Node000028"><a xlink:title=" ">
<path fill="none" stroke="#63b8ff" d="M1382.46,-91.9C1612.44,-92.75 2500.92,-92.99 2802.89,-46.43"/>
<polygon fill="#63b8ff" stroke="#63b8ff" points="2803.43,-49.89 2812.75,-44.85 2802.32,-42.97 2803.43,-49.89"/>
</a>
</g>
</g>
<!-- Node29 -->
<g id="Node000029" class="node">
<title>Node29</title>
<g id="a_Node000029"><a xlink:title=" ">
<polygon fill="#e0e0e0" stroke="#999999" points="3074.12,-46.25 2959.12,-46.25 2959.12,0 3074.12,0 3074.12,-46.25"/>
<text xml:space="preserve" text-anchor="start" x="2967.12" y="-32.75" font-family="Helvetica,sans-Serif" font-size="10.00">../../../gameEngine</text>
<text xml:space="preserve" text-anchor="start" x="2967.12" y="-20" font-family="Helvetica,sans-Serif" font-size="10.00">/systems/motion/src</text>
<text xml:space="preserve" text-anchor="middle" x="3016.62" y="-7.25" font-family="Helvetica,sans-Serif" font-size="10.00">/Motion.hpp</text>
</a>
</g>
</g>
<!-- Node5&#45;&gt;Node29 -->
<g id="edge28_Node000005_Node000029" class="edge">
<title>Node5&#45;&gt;Node29</title>
<g id="a_edge28_Node000005_Node000029"><a xlink:title=" ">
<path fill="none" stroke="#63b8ff" d="M1382.33,-91.04C1642.19,-88.13 2747.26,-74.3 2947.65,-46.11"/>
<polygon fill="#63b8ff" stroke="#63b8ff" points="2947.95,-49.61 2957.29,-44.6 2946.87,-42.69 2947.95,-49.61"/>
</a>
</g>
</g>
</g>
</svg>
