<?xml version="1.0" encoding="UTF-8" standalone="no"?>
<!DOCTYPE svg PUBLIC "-//W3C//DTD SVG 1.1//EN"
 "http://www.w3.org/Graphics/SVG/1.1/DTD/svg11.dtd">
<!-- Generated by graphviz version 13.1.2 (20250808.2320)
 -->
<!-- Title: src/main.cpp Pages: 1 -->
<svg width="3082pt" height="168pt"
 viewBox="0.00 0.00 3082.00 168.00" xmlns="http://www.w3.org/2000/svg" xmlns:xlink="http://www.w3.org/1999/xlink">
<g id="graph0" class="graph" transform="scale(1 1) rotate(0) translate(4 163.75)">
<title>src/main.cpp</title>
<!-- Node1 -->
<g id="Node000001" class="node">
<title>Node1</title>
<g id="a_Node000001"><a xlink:title=" ">
<polygon fill="#999999" stroke="#666666" points="597,-159.75 518.75,-159.75 518.75,-139 597,-139 597,-159.75"/>
<text xml:space="preserve" text-anchor="middle" x="557.88" y="-146.25" font-family="Helvetica,sans-Serif" font-size="10.00">src/main.cpp</text>
</a>
</g>
</g>
<!-- Node2 -->
<g id="Node000002" class="node">
<title>Node2</title>
<g id="a_Node000002"><a xlink:title=" ">
<polygon fill="#e0e0e0" stroke="#999999" points="481.38,-103 432.38,-103 432.38,-82.25 481.38,-82.25 481.38,-103"/>
<text xml:space="preserve" text-anchor="middle" x="456.88" y="-89.5" font-family="Helvetica,sans-Serif" font-size="10.00">cstring</text>
</a>
</g>
</g>
<!-- Node1&#45;&gt;Node2 -->
<g id="edge1_Node000001_Node000002" class="edge">
<title>Node1&#45;&gt;Node2</title>
<g id="a_edge1_Node000001_Node000002"><a xlink:title=" ">
<path fill="none" stroke="#63b8ff" d="M539.82,-138.59C524.45,-130.26 502.13,-118.16 484.52,-108.61"/>
<polygon fill="#63b8ff" stroke="#63b8ff" points="486.57,-105.74 476.11,-104.05 483.23,-111.89 486.57,-105.74"/>
</a>
</g>
</g>
<!-- Node3 -->
<g id="Node000003" class="node">
<title>Node3</title>
<g id="a_Node000003"><a xlink:title=" ">
<polygon fill="#e0e0e0" stroke="#999999" points="558.62,-103 499.12,-103 499.12,-82.25 558.62,-82.25 558.62,-103"/>
<text xml:space="preserve" text-anchor="middle" x="528.88" y="-89.5" font-family="Helvetica,sans-Serif" font-size="10.00">iostream</text>
</a>
</g>
</g>
<!-- Node1&#45;&gt;Node3 -->
<g id="edge2_Node000001_Node000003" class="edge">
<title>Node1&#45;&gt;Node3</title>
<g id="a_edge2_Node000001_Node000003"><a xlink:title=" ">
<path fill="none" stroke="#63b8ff" d="M552.69,-138.59C548.98,-131.58 543.86,-121.91 539.31,-113.33"/>
<polygon fill="#63b8ff" stroke="#63b8ff" points="542.5,-111.86 534.72,-104.67 536.31,-115.14 542.5,-111.86"/>
</a>
</g>
</g>
<!-- Node4 -->
<g id="Node000004" class="node">
<title>Node4</title>
<g id="a_Node000004"><a xlink:title=" ">
<polygon fill="#e0e0e0" stroke="#999999" points="43.75,-33.5 0,-33.5 0,-12.75 43.75,-12.75 43.75,-33.5"/>
<text xml:space="preserve" text-anchor="middle" x="21.88" y="-20" font-family="Helvetica,sans-Serif" font-size="10.00">string</text>
</a>
</g>
</g>
<!-- Node1&#45;&gt;Node4 -->
<g id="edge3_Node000001_Node000004" class="edge">
<title>Node1&#45;&gt;Node4</title>
<g id="a_edge3_Node000001_Node000004"><a xlink:title=" ">
<path fill="none" stroke="#63b8ff" d="M563.51,-138.87C571.15,-124.61 582.29,-97.7 567.88,-82.25 528.75,-40.3 106.86,-65.64 52.88,-46.25 49.02,-44.87 45.22,-42.86 41.68,-40.61"/>
<polygon fill="#63b8ff" stroke="#63b8ff" points="43.88,-37.88 33.73,-34.84 39.76,-43.55 43.88,-37.88"/>
</a>
</g>
</g>
<!-- Node5 -->
<g id="Node000005" class="node">
<title>Node5</title>
<g id="a_Node000005"><a xlink:href="NetworkServer_8hpp.html" target="_top" xlink:title=" ">
<polygon fill="white" stroke="#666666" points="1330.75,-103 1179,-103 1179,-82.25 1330.75,-82.25 1330.75,-103"/>
<text xml:space="preserve" text-anchor="middle" x="1254.88" y="-89.5" font-family="Helvetica,sans-Serif" font-size="10.00">network/NetworkServer.hpp</text>
</a>
</g>
</g>
<!-- Node1&#45;&gt;Node5 -->
<g id="edge4_Node000001_Node000005" class="edge">
<title>Node1&#45;&gt;Node5</title>
<g id="a_edge4_Node000001_Node000005"><a xlink:title=" ">
<path fill="none" stroke="#63b8ff" d="M597.35,-145.27C706.64,-136.69 1015.16,-112.45 1167.52,-100.49"/>
<polygon fill="#63b8ff" stroke="#63b8ff" points="1167.46,-104 1177.15,-99.73 1166.91,-97.02 1167.46,-104"/>
</a>
</g>
</g>
<!-- Node5&#45;&gt;Node4 -->
<g id="edge9_Node000005_Node000004" class="edge">
<title>Node5&#45;&gt;Node4</title>
<g id="a_edge9_Node000005_Node000004"><a xlink:title=" ">
<path fill="none" stroke="#63b8ff" d="M1178.59,-89.95C922.43,-84.17 106.15,-64.43 52.88,-46.25 48.94,-44.91 45.06,-42.89 41.46,-40.61"/>
<polygon fill="#63b8ff" stroke="#63b8ff" points="43.55,-37.8 33.41,-34.72 39.41,-43.45 43.55,-37.8"/>
</a>
</g>
</g>
<!-- Node6 -->
<g id="Node000006" class="node">
<title>Node6</title>
<g id="a_Node000006"><a xlink:title=" ">
<polygon fill="#e0e0e0" stroke="#999999" points="119.5,-33.5 62.25,-33.5 62.25,-12.75 119.5,-12.75 119.5,-33.5"/>
<text xml:space="preserve" text-anchor="middle" x="90.88" y="-20" font-family="Helvetica,sans-Serif" font-size="10.00">asio.hpp</text>
</a>
</g>
</g>
<!-- Node5&#45;&gt;Node6 -->
<g id="edge5_Node000005_Node000006" class="edge">
<title>Node5&#45;&gt;Node6</title>
<g id="a_edge5_Node000005_Node000006"><a xlink:title=" ">
<path fill="none" stroke="#63b8ff" d="M1178.71,-90.68C941.98,-87.46 228.89,-75.42 128.88,-46.25 123.71,-44.74 118.5,-42.39 113.67,-39.76"/>
<polygon fill="#63b8ff" stroke="#63b8ff" points="115.52,-36.79 105.16,-34.61 111.9,-42.78 115.52,-36.79"/>
</a>
</g>
</g>
<!-- Node7 -->
<g id="Node000007" class="node">
<title>Node7</title>
<g id="a_Node000007"><a xlink:title=" ">
<polygon fill="#e0e0e0" stroke="#999999" points="175.75,-33.5 138,-33.5 138,-12.75 175.75,-12.75 175.75,-33.5"/>
<text xml:space="preserve" text-anchor="middle" x="156.88" y="-20" font-family="Helvetica,sans-Serif" font-size="10.00">map</text>
</a>
</g>
</g>
<!-- Node5&#45;&gt;Node7 -->
<g id="edge6_Node000005_Node000007" class="edge">
<title>Node5&#45;&gt;Node7</title>
<g id="a_edge6_Node000005_Node000007"><a xlink:title=" ">
<path fill="none" stroke="#63b8ff" d="M1178.7,-91.1C949.63,-89.15 277.2,-80.53 184.88,-46.25 181.27,-44.91 177.77,-42.93 174.54,-40.68"/>
<polygon fill="#63b8ff" stroke="#63b8ff" points="176.93,-38.11 166.96,-34.53 172.52,-43.55 176.93,-38.11"/>
</a>
</g>
</g>
<!-- Node8 -->
<g id="Node000008" class="node">
<title>Node8</title>
<g id="a_Node000008"><a xlink:title=" ">
<polygon fill="#e0e0e0" stroke="#999999" points="251.5,-33.5 194.25,-33.5 194.25,-12.75 251.5,-12.75 251.5,-33.5"/>
<text xml:space="preserve" text-anchor="middle" x="222.88" y="-20" font-family="Helvetica,sans-Serif" font-size="10.00">memory</text>
</a>
</g>
</g>
<!-- Node5&#45;&gt;Node8 -->
<g id="edge7_Node000005_Node000008" class="edge">
<title>Node5&#45;&gt;Node8</title>
<g id="a_edge7_Node000005_Node000008"><a xlink:title=" ">
<path fill="none" stroke="#63b8ff" d="M1178.85,-90.3C961.4,-86.2 346.86,-72.42 259.88,-46.25 254.82,-44.73 249.74,-42.37 245.04,-39.74"/>
<polygon fill="#63b8ff" stroke="#63b8ff" points="247.11,-36.91 236.77,-34.6 243.42,-42.86 247.11,-36.91"/>
</a>
</g>
</g>
<!-- Node9 -->
<g id="Node000009" class="node">
<title>Node9</title>
<g id="a_Node000009"><a xlink:title=" ">
<polygon fill="#e0e0e0" stroke="#999999" points="316.62,-33.5 269.12,-33.5 269.12,-12.75 316.62,-12.75 316.62,-33.5"/>
<text xml:space="preserve" text-anchor="middle" x="292.88" y="-20" font-family="Helvetica,sans-Serif" font-size="10.00">mutex</text>
</a>
</g>
</g>
<!-- Node5&#45;&gt;Node9 -->
<g id="edge8_Node000005_Node000009" class="edge">
<title>Node5&#45;&gt;Node9</title>
<g id="a_edge8_Node000005_Node000009"><a xlink:title=" ">
<path fill="none" stroke="#63b8ff" d="M1178.67,-90.24C971.09,-86.15 405.73,-72.69 325.88,-46.25 321.51,-44.8 317.17,-42.61 313.15,-40.15"/>
<polygon fill="#63b8ff" stroke="#63b8ff" points="315.43,-37.47 305.21,-34.65 311.44,-43.22 315.43,-37.47"/>
</a>
</g>
</g>
<!-- Node10 -->
<g id="Node000010" class="node">
<title>Node10</title>
<g id="a_Node000010"><a xlink:title=" ">
<polygon fill="#e0e0e0" stroke="#999999" points="381.25,-33.5 334.5,-33.5 334.5,-12.75 381.25,-12.75 381.25,-33.5"/>
<text xml:space="preserve" text-anchor="middle" x="357.88" y="-20" font-family="Helvetica,sans-Serif" font-size="10.00">vector</text>
</a>
</g>
</g>
<!-- Node5&#45;&gt;Node10 -->
<g id="edge10_Node000005_Node000010" class="edge">
<title>Node5&#45;&gt;Node10</title>
<g id="a_edge10_Node000005_Node000010"><a xlink:title=" ">
<path fill="none" stroke="#63b8ff" d="M1178.6,-90C981.12,-85.46 463.35,-71.31 389.88,-46.25 385.73,-44.84 381.64,-42.72 377.83,-40.35"/>
<polygon fill="#63b8ff" stroke="#63b8ff" points="380,-37.6 369.82,-34.66 375.94,-43.3 380,-37.6"/>
</a>
</g>
</g>
<!-- Node11 -->
<g id="Node000011" class="node">
<title>Node11</title>
<g id="a_Node000011"><a xlink:title=" ">
<polygon fill="#e0e0e0" stroke="#999999" points="540.88,-46.25 398.88,-46.25 398.88,0 540.88,0 540.88,-46.25"/>
<text xml:space="preserve" text-anchor="start" x="406.88" y="-32.75" font-family="Helvetica,sans-Serif" font-size="10.00">../../../gameEngine</text>
<text xml:space="preserve" text-anchor="start" x="406.88" y="-20" font-family="Helvetica,sans-Serif" font-size="10.00">/components/AIControlled</text>
<text xml:space="preserve" text-anchor="middle" x="469.88" y="-7.25" font-family="Helvetica,sans-Serif" font-size="10.00">/src/AIControlled.hpp</text>
</a>
</g>
</g>
<!-- Node5&#45;&gt;Node11 -->
<g id="edge11_Node000005_Node000011" class="edge">
<title>Node5&#45;&gt;Node11</title>
<g id="a_edge11_Node000005_Node000011"><a xlink:title=" ">
<path fill="none" stroke="#63b8ff" d="M1178.65,-91.83C1050.72,-91.05 784.81,-84.64 552.29,-46.49"/>
<polygon fill="#63b8ff" stroke="#63b8ff" points="553.17,-43.08 542.73,-44.89 552.02,-49.99 553.17,-43.08"/>
</a>
</g>
</g>
<!-- Node12 -->
<g id="Node000012" class="node">
<title>Node12</title>
<g id="a_Node000012"><a xlink:title=" ">
<polygon fill="#e0e0e0" stroke="#999999" points="700.88,-46.25 558.88,-46.25 558.88,0 700.88,0 700.88,-46.25"/>
<text xml:space="preserve" text-anchor="start" x="566.88" y="-32.75" font-family="Helvetica,sans-Serif" font-size="10.00">../../../gameEngine</text>
<text xml:space="preserve" text-anchor="start" x="566.88" y="-20" font-family="Helvetica,sans-Serif" font-size="10.00">/components/acceleration</text>
<text xml:space="preserve" text-anchor="middle" x="629.88" y="-7.25" font-family="Helvetica,sans-Serif" font-size="10.00">/src/Acceleration.hpp</text>
</a>
</g>
</g>
<!-- Node5&#45;&gt;Node12 -->
<g id="edge12_Node000005_Node000012" class="edge">
<title>Node5&#45;&gt;Node12</title>
<g id="a_edge12_Node000005_Node000012"><a xlink:title=" ">
<path fill="none" stroke="#63b8ff" d="M1178.92,-89.77C1075.35,-86.25 884,-76.23 712.52,-46.56"/>
<polygon fill="#63b8ff" stroke="#63b8ff" points="713.2,-43.13 702.74,-44.84 711.98,-50.02 713.2,-43.13"/>
</a>
</g>
</g>
<!-- Node13 -->
<g id="Node000013" class="node">
<title>Node13</title>
<g id="a_Node000013"><a xlink:title=" ">
<polygon fill="#e0e0e0" stroke="#999999" points="854.88,-46.25 718.88,-46.25 718.88,0 854.88,0 854.88,-46.25"/>
<text xml:space="preserve" text-anchor="start" x="726.88" y="-32.75" font-family="Helvetica,sans-Serif" font-size="10.00">../../../gameEngine</text>
<text xml:space="preserve" text-anchor="start" x="726.88" y="-20" font-family="Helvetica,sans-Serif" font-size="10.00">/components/domain/src</text>
<text xml:space="preserve" text-anchor="middle" x="786.88" y="-7.25" font-family="Helvetica,sans-Serif" font-size="10.00">/Domain.hpp</text>
</a>
</g>
</g>
<!-- Node5&#45;&gt;Node13 -->
<g id="edge13_Node000005_Node000013" class="edge">
<title>Node5&#45;&gt;Node13</title>
<g id="a_edge13_Node000005_Node000013"><a xlink:title=" ">
<path fill="none" stroke="#63b8ff" d="M1178.61,-86.5C1101.86,-80.5 980,-68.69 866.16,-46.55"/>
<polygon fill="#63b8ff" stroke="#63b8ff" points="867.14,-43.18 856.65,-44.67 865.78,-50.05 867.14,-43.18"/>
</a>
</g>
</g>
<!-- Node14 -->
<g id="Node000014" class="node">
<title>Node14</title>
<g id="a_Node000014"><a xlink:title=" ">
<polygon fill="#e0e0e0" stroke="#999999" points="1030.38,-46.25 873.38,-46.25 873.38,0 1030.38,0 1030.38,-46.25"/>
<text xml:space="preserve" text-anchor="start" x="881.38" y="-32.75" font-family="Helvetica,sans-Serif" font-size="10.00">../../../gameEngine</text>
<text xml:space="preserve" text-anchor="start" x="881.38" y="-20" font-family="Helvetica,sans-Serif" font-size="10.00">/components/inputControlled</text>
<text xml:space="preserve" text-anchor="middle" x="951.88" y="-7.25" font-family="Helvetica,sans-Serif" font-size="10.00">/src/InputControlled.hpp</text>
</a>
</g>
</g>
<!-- Node5&#45;&gt;Node14 -->
<g id="edge14_Node000005_Node000014" class="edge">
<title>Node5&#45;&gt;Node14</title>
<g id="a_edge14_Node000005_Node000014"><a xlink:title=" ">
<path fill="none" stroke="#63b8ff" d="M1204.99,-81.76C1163.61,-73.44 1102.96,-60.93 1041.61,-46.85"/>
<polygon fill="#63b8ff" stroke="#63b8ff" points="1042.57,-43.47 1032.03,-44.63 1040.99,-50.29 1042.57,-43.47"/>
</a>
</g>
</g>
<!-- Node15 -->
<g id="Node000015" class="node">
<title>Node15</title>
<g id="a_Node000015"><a xlink:title=" ">
<polygon fill="#e0e0e0" stroke="#999999" points="1169.38,-46.25 1048.38,-46.25 1048.38,0 1169.38,0 1169.38,-46.25"/>
<text xml:space="preserve" text-anchor="start" x="1056.38" y="-32.75" font-family="Helvetica,sans-Serif" font-size="10.00">../../../gameEngine</text>
<text xml:space="preserve" text-anchor="start" x="1056.38" y="-20" font-family="Helvetica,sans-Serif" font-size="10.00">/components/position</text>
<text xml:space="preserve" text-anchor="middle" x="1108.88" y="-7.25" font-family="Helvetica,sans-Serif" font-size="10.00">/src/Position.hpp</text>
</a>
</g>
</g>
<!-- Node5&#45;&gt;Node15 -->
<g id="edge15_Node000005_Node000015" class="edge">
<title>Node5&#45;&gt;Node15</title>
<g id="a_edge15_Node000005_Node000015"><a xlink:title=" ">
<path fill="none" stroke="#63b8ff" d="M1233.65,-81.81C1216.35,-73.82 1191.08,-62.13 1167.79,-51.36"/>
<polygon fill="#63b8ff" stroke="#63b8ff" points="1169.53,-48.31 1158.99,-47.29 1166.59,-54.67 1169.53,-48.31"/>
</a>
</g>
</g>
<!-- Node16 -->
<g id="Node000016" class="node">
<title>Node16</title>
<g id="a_Node000016"><a xlink:title=" ">
<polygon fill="#e0e0e0" stroke="#999999" points="1322.12,-46.25 1187.62,-46.25 1187.62,0 1322.12,0 1322.12,-46.25"/>
<text xml:space="preserve" text-anchor="start" x="1195.62" y="-32.75" font-family="Helvetica,sans-Serif" font-size="10.00">../../../gameEngine</text>
<text xml:space="preserve" text-anchor="start" x="1195.62" y="-20" font-family="Helvetica,sans-Serif" font-size="10.00">/components/renderable</text>
<text xml:space="preserve" text-anchor="middle" x="1254.88" y="-7.25" font-family="Helvetica,sans-Serif" font-size="10.00">/src/Renderable.hpp</text>
</a>
</g>
</g>
<!-- Node5&#45;&gt;Node16 -->
<g id="edge16_Node000005_Node000016" class="edge">
<title>Node5&#45;&gt;Node16</title>
<g id="a_edge16_Node000005_Node000016"><a xlink:title=" ">
<path fill="none" stroke="#63b8ff" d="M1254.88,-81.95C1254.88,-75.57 1254.88,-66.78 1254.88,-57.98"/>
<polygon fill="#63b8ff" stroke="#63b8ff" points="1258.38,-58.12 1254.88,-48.12 1251.38,-58.12 1258.38,-58.12"/>
</a>
</g>
</g>
<!-- Node17 -->
<g id="Node000017" class="node">
<title>Node17</title>
<g id="a_Node000017"><a xlink:title=" ">
<polygon fill="#e0e0e0" stroke="#999999" points="1461.38,-46.25 1340.38,-46.25 1340.38,0 1461.38,0 1461.38,-46.25"/>
<text xml:space="preserve" text-anchor="start" x="1348.38" y="-32.75" font-family="Helvetica,sans-Serif" font-size="10.00">../../../gameEngine</text>
<text xml:space="preserve" text-anchor="start" x="1348.38" y="-20" font-family="Helvetica,sans-Serif" font-size="10.00">/components/velocity</text>
<text xml:space="preserve" text-anchor="middle" x="1400.88" y="-7.25" font-family="Helvetica,sans-Serif" font-size="10.00">/src/Velocity.hpp</text>
</a>
</g>
</g>
<!-- Node5&#45;&gt;Node17 -->
<g id="edge17_Node000005_Node000017" class="edge">
<title>Node5&#45;&gt;Node17</title>
<g id="a_edge17_Node000005_Node000017"><a xlink:title=" ">
<path fill="none" stroke="#63b8ff" d="M1276.1,-81.81C1293.4,-73.82 1318.67,-62.13 1341.96,-51.36"/>
<polygon fill="#63b8ff" stroke="#63b8ff" points="1343.16,-54.67 1350.76,-47.29 1340.22,-48.31 1343.16,-54.67"/>
</a>
</g>
</g>
<!-- Node18 -->
<g id="Node000018" class="node">
<title>Node18</title>
<g id="a_Node000018"><a xlink:title=" ">
<polygon fill="#e0e0e0" stroke="#999999" points="1582.75,-39.88 1479,-39.88 1479,-6.38 1582.75,-6.38 1582.75,-39.88"/>
<text xml:space="preserve" text-anchor="start" x="1487" y="-26.38" font-family="Helvetica,sans-Serif" font-size="10.00">../../../gameEngine</text>
<text xml:space="preserve" text-anchor="middle" x="1530.88" y="-13.62" font-family="Helvetica,sans-Serif" font-size="10.00">/ecs/Registry.hpp</text>
</a>
</g>
</g>
<!-- Node5&#45;&gt;Node18 -->
<g id="edge18_Node000005_Node000018" class="edge">
<title>Node5&#45;&gt;Node18</title>
<g id="a_edge18_Node000005_Node000018"><a xlink:title=" ">
<path fill="none" stroke="#63b8ff" d="M1313.2,-81.76C1356.99,-73.78 1418.22,-61.4 1470.88,-46.25 1473.44,-45.51 1476.05,-44.72 1478.68,-43.88"/>
<polygon fill="#63b8ff" stroke="#63b8ff" points="1479.68,-47.24 1488.06,-40.75 1477.47,-40.6 1479.68,-47.24"/>
</a>
</g>
</g>
<!-- Node19 -->
<g id="Node000019" class="node">
<title>Node19</title>
<g id="a_Node000019"><a xlink:title=" ">
<polygon fill="#e0e0e0" stroke="#999999" points="1739,-46.25 1600.75,-46.25 1600.75,0 1739,0 1739,-46.25"/>
<text xml:space="preserve" text-anchor="start" x="1608.75" y="-32.75" font-family="Helvetica,sans-Serif" font-size="10.00">../../../gameEngine</text>
<text xml:space="preserve" text-anchor="start" x="1608.75" y="-20" font-family="Helvetica,sans-Serif" font-size="10.00">/systems/FPApplyGravity</text>
<text xml:space="preserve" text-anchor="middle" x="1669.88" y="-7.25" font-family="Helvetica,sans-Serif" font-size="10.00">/src/FPApplyGravity.hpp</text>
</a>
</g>
</g>
<!-- Node5&#45;&gt;Node19 -->
<g id="edge19_Node000005_Node000019" class="edge">
<title>Node5&#45;&gt;Node19</title>
<g id="a_edge19_Node000005_Node000019"><a xlink:title=" ">
<path fill="none" stroke="#63b8ff" d="M1331.02,-84.5C1397.05,-77.62 1495.32,-65.66 1589.14,-46.69"/>
<polygon fill="#63b8ff" stroke="#63b8ff" points="1589.68,-50.15 1598.77,-44.71 1588.27,-43.29 1589.68,-50.15"/>
</a>
</g>
</g>
<!-- Node20 -->
<g id="Node000020" class="node">
<title>Node20</title>
<g id="a_Node000020"><a xlink:title=" ">
<polygon fill="#e0e0e0" stroke="#999999" points="1895,-46.25 1756.75,-46.25 1756.75,0 1895,0 1895,-46.25"/>
<text xml:space="preserve" text-anchor="start" x="1764.75" y="-32.75" font-family="Helvetica,sans-Serif" font-size="10.00">../../../gameEngine</text>
<text xml:space="preserve" text-anchor="start" x="1764.75" y="-20" font-family="Helvetica,sans-Serif" font-size="10.00">/systems/FPInputHandler</text>
<text xml:space="preserve" text-anchor="middle" x="1825.88" y="-7.25" font-family="Helvetica,sans-Serif" font-size="10.00">/src/FPInputHandler.hpp</text>
</a>
</g>
</g>
<!-- Node5&#45;&gt;Node20 -->
<g id="edge20_Node000005_Node000020" class="edge">
<title>Node5&#45;&gt;Node20</title>
<g id="a_edge20_Node000005_Node000020"><a xlink:title=" ">
<path fill="none" stroke="#63b8ff" d="M1331.06,-88.97C1426.16,-84.69 1593.81,-73.95 1745.4,-46.55"/>
<polygon fill="#63b8ff" stroke="#63b8ff" points="1745.59,-50.08 1754.8,-44.83 1744.33,-43.19 1745.59,-50.08"/>
</a>
</g>
</g>
<!-- Node21 -->
<g id="Node000021" class="node">
<title>Node21</title>
<g id="a_Node000021"><a xlink:title=" ">
<polygon fill="#e0e0e0" stroke="#999999" points="2039,-46.25 1912.75,-46.25 1912.75,0 2039,0 2039,-46.25"/>
<text xml:space="preserve" text-anchor="start" x="1920.75" y="-32.75" font-family="Helvetica,sans-Serif" font-size="10.00">../../../gameEngine</text>
<text xml:space="preserve" text-anchor="start" x="1920.75" y="-20" font-family="Helvetica,sans-Serif" font-size="10.00">/systems/FPMotion/src</text>
<text xml:space="preserve" text-anchor="middle" x="1975.88" y="-7.25" font-family="Helvetica,sans-Serif" font-size="10.00">/FPMotion.hpp</text>
</a>
</g>
</g>
<!-- Node5&#45;&gt;Node21 -->
<g id="edge21_Node000005_Node000021" class="edge">
<title>Node5&#45;&gt;Node21</title>
<g id="a_edge21_Node000005_Node000021"><a xlink:title=" ">
<path fill="none" stroke="#63b8ff" d="M1331.03,-91.9C1450.86,-91.11 1690.66,-84.56 1901.2,-46.54"/>
<polygon fill="#63b8ff" stroke="#63b8ff" points="1901.78,-49.99 1910.98,-44.74 1900.51,-43.11 1901.78,-49.99"/>
</a>
</g>
</g>
<!-- Node22 -->
<g id="Node000022" class="node">
<title>Node22</title>
<g id="a_Node000022"><a xlink:title=" ">
<polygon fill="#e0e0e0" stroke="#999999" points="2186.88,-46.25 2056.88,-46.25 2056.88,0 2186.88,0 2186.88,-46.25"/>
<text xml:space="preserve" text-anchor="start" x="2064.88" y="-32.75" font-family="Helvetica,sans-Serif" font-size="10.00">../../../gameEngine</text>
<text xml:space="preserve" text-anchor="start" x="2064.88" y="-20" font-family="Helvetica,sans-Serif" font-size="10.00">/systems/animation/src</text>
<text xml:space="preserve" text-anchor="middle" x="2121.88" y="-7.25" font-family="Helvetica,sans-Serif" font-size="10.00">/Animation.hpp</text>
</a>
</g>
</g>
<!-- Node5&#45;&gt;Node22 -->
<g id="edge22_Node000005_Node000022" class="edge">
<title>Node5&#45;&gt;Node22</title>
<g id="a_edge22_Node000005_Node000022"><a xlink:title=" ">
<path fill="none" stroke="#63b8ff" d="M1331.01,-89.53C1497.72,-84.59 1891.77,-70.87 2045.61,-46.37"/>
<polygon fill="#63b8ff" stroke="#63b8ff" points="2045.93,-49.86 2055.21,-44.76 2044.77,-42.96 2045.93,-49.86"/>
</a>
</g>
</g>
<!-- Node23 -->
<g id="Node000023" class="node">
<title>Node23</title>
<g id="a_Node000023"><a xlink:title=" ">
<polygon fill="#e0e0e0" stroke="#999999" points="2322.5,-46.25 2205.25,-46.25 2205.25,0 2322.5,0 2322.5,-46.25"/>
<text xml:space="preserve" text-anchor="start" x="2213.25" y="-32.75" font-family="Helvetica,sans-Serif" font-size="10.00">../../../gameEngine</text>
<text xml:space="preserve" text-anchor="start" x="2213.25" y="-20" font-family="Helvetica,sans-Serif" font-size="10.00">/systems/applyScore</text>
<text xml:space="preserve" text-anchor="middle" x="2263.88" y="-7.25" font-family="Helvetica,sans-Serif" font-size="10.00">/src/ApplyScore.hpp</text>
</a>
</g>
</g>
<!-- Node5&#45;&gt;Node23 -->
<g id="edge23_Node000005_Node000023" class="edge">
<title>Node5&#45;&gt;Node23</title>
<g id="a_edge23_Node000005_Node000023"><a xlink:title=" ">
<path fill="none" stroke="#63b8ff" d="M1330.98,-90.56C1520.33,-87.51 2009.94,-77.01 2193.65,-46.33"/>
<polygon fill="#63b8ff" stroke="#63b8ff" points="2194.04,-49.82 2203.29,-44.64 2192.83,-42.92 2194.04,-49.82"/>
</a>
</g>
</g>
<!-- Node24 -->
<g id="Node000024" class="node">
<title>Node24</title>
<g id="a_Node000024"><a xlink:title=" ">
<polygon fill="#e0e0e0" stroke="#999999" points="2461.38,-46.25 2340.38,-46.25 2340.38,0 2461.38,0 2461.38,-46.25"/>
<text xml:space="preserve" text-anchor="start" x="2348.38" y="-32.75" font-family="Helvetica,sans-Serif" font-size="10.00">../../../gameEngine</text>
<text xml:space="preserve" text-anchor="start" x="2348.38" y="-20" font-family="Helvetica,sans-Serif" font-size="10.00">/systems/collision/src</text>
<text xml:space="preserve" text-anchor="middle" x="2400.88" y="-7.25" font-family="Helvetica,sans-Serif" font-size="10.00">/Collision.hpp</text>
</a>
</g>
</g>
<!-- Node5&#45;&gt;Node24 -->
<g id="edge24_Node000005_Node000024" class="edge">
<title>Node5&#45;&gt;Node24</title>
<g id="a_edge24_Node000005_Node000024"><a xlink:title=" ">
<path fill="none" stroke="#63b8ff" d="M1330.98,-91.06C1539.5,-89.12 2117.93,-80.84 2328.88,-46.49"/>
<polygon fill="#63b8ff" stroke="#63b8ff" points="2329.38,-49.96 2338.65,-44.83 2328.21,-43.06 2329.38,-49.96"/>
</a>
</g>
</g>
<!-- Node25 -->
<g id="Node000025" class="node">
<title>Node25</title>
<g id="a_Node000025"><a xlink:title=" ">
<polygon fill="#e0e0e0" stroke="#999999" points="2640.62,-39.88 2479.12,-39.88 2479.12,-6.38 2640.62,-6.38 2640.62,-39.88"/>
<text xml:space="preserve" text-anchor="start" x="2487.12" y="-26.38" font-family="Helvetica,sans-Serif" font-size="10.00">../../../gameEngine</text>
<text xml:space="preserve" text-anchor="middle" x="2559.88" y="-13.62" font-family="Helvetica,sans-Serif" font-size="10.00">/systems/death/src/Death.hpp</text>
</a>
</g>
</g>
<!-- Node5&#45;&gt;Node25 -->
<g id="edge25_Node000005_Node000025" class="edge">
<title>Node5&#45;&gt;Node25</title>
<g id="a_edge25_Node000005_Node000025"><a xlink:title=" ">
<path fill="none" stroke="#63b8ff" d="M1331.05,-90.84C1561.55,-88.13 2249.28,-77.59 2470.88,-46.25 2477.6,-45.3 2484.55,-44.05 2491.48,-42.63"/>
<polygon fill="#63b8ff" stroke="#63b8ff" points="2491.78,-46.15 2500.81,-40.6 2490.29,-39.31 2491.78,-46.15"/>
</a>
</g>
</g>
<!-- Node26 -->
<g id="Node000026" class="node">
<title>Node26</title>
<g id="a_Node000026"><a xlink:title=" ">
<polygon fill="#e0e0e0" stroke="#999999" points="2797,-46.25 2658.75,-46.25 2658.75,0 2797,0 2797,-46.25"/>
<text xml:space="preserve" text-anchor="start" x="2666.75" y="-32.75" font-family="Helvetica,sans-Serif" font-size="10.00">../../../gameEngine</text>
<text xml:space="preserve" text-anchor="start" x="2666.75" y="-20" font-family="Helvetica,sans-Serif" font-size="10.00">/systems/domainHandler</text>
<text xml:space="preserve" text-anchor="middle" x="2727.88" y="-7.25" font-family="Helvetica,sans-Serif" font-size="10.00">/src/DomainHandler.hpp</text>
</a>
</g>
</g>
<!-- Node5&#45;&gt;Node26 -->
<g id="edge26_Node000005_Node000026" class="edge">
<title>Node5&#45;&gt;Node26</title>
<g id="a_edge26_Node000005_Node000026"><a xlink:title=" ">
<path fill="none" stroke="#63b8ff" d="M1330.95,-91.59C1580.03,-91.1 2370.47,-86.45 2647.12,-46.45"/>
<polygon fill="#63b8ff" stroke="#63b8ff" points="2647.46,-49.93 2656.82,-44.99 2646.41,-43.01 2647.46,-49.93"/>
</a>
</g>
</g>
<!-- Node27 -->
<g id="Node000027" class="node">
<title>Node27</title>
<g id="a_Node000027"><a xlink:title=" ">
<polygon fill="#e0e0e0" stroke="#999999" points="2941,-46.25 2814.75,-46.25 2814.75,0 2941,0 2941,-46.25"/>
<text xml:space="preserve" text-anchor="start" x="2822.75" y="-32.75" font-family="Helvetica,sans-Serif" font-size="10.00">../../../gameEngine</text>
<text xml:space="preserve" text-anchor="start" x="2822.75" y="-20" font-family="Helvetica,sans-Serif" font-size="10.00">/systems/inputHandler</text>
<text xml:space="preserve" text-anchor="middle" x="2877.88" y="-7.25" font-family="Helvetica,sans-Serif" font-size="10.00">/src/InputHandler.hpp</text>
</a>
</g>
</g>
<!-- Node5&#45;&gt;Node27 -->
<g id="edge27_Node000005_Node000027" class="edge">
<title>Node5&#45;&gt;Node27</title>
<g id="a_edge27_Node000005_Node000027"><a xlink:title=" ">
<path fill="none" stroke="#63b8ff" d="M1330.88,-92.1C1598.17,-93.35 2494.91,-93.92 2803.33,-46.4"/>
<polygon fill="#63b8ff" stroke="#63b8ff" points="2803.68,-49.89 2813,-44.85 2802.57,-42.97 2803.68,-49.89"/>
</a>
</g>
</g>
<!-- Node28 -->
<g id="Node000028" class="node">
<title>Node28</title>
<g id="a_Node000028"><a xlink:title=" ">
<polygon fill="#e0e0e0" stroke="#999999" points="3074.38,-46.25 2959.38,-46.25 2959.38,0 3074.38,0 3074.38,-46.25"/>
<text xml:space="preserve" text-anchor="start" x="2967.38" y="-32.75" font-family="Helvetica,sans-Serif" font-size="10.00">../../../gameEngine</text>
<text xml:space="preserve" text-anchor="start" x="2967.38" y="-20" font-family="Helvetica,sans-Serif" font-size="10.00">/systems/motion/src</text>
<text xml:space="preserve" text-anchor="middle" x="3016.88" y="-7.25" font-family="Helvetica,sans-Serif" font-size="10.00">/Motion.hpp</text>
</a>
</g>
</g>
<!-- Node5&#45;&gt;Node28 -->
<g id="edge28_Node000005_Node000028" class="edge">
<title>Node5&#45;&gt;Node28</title>
<g id="a_edge28_Node000005_Node000028"><a xlink:title=" ">
<path fill="none" stroke="#63b8ff" d="M1331.23,-90.89C1634.08,-87.81 2743.8,-74.79 2947.69,-46.15"/>
<polygon fill="#63b8ff" stroke="#63b8ff" points="2948.2,-49.61 2957.54,-44.61 2947.12,-42.69 2948.2,-49.61"/>
</a>
</g>
</g>
</g>
</svg>
