<?xml version="1.0" encoding="UTF-8" standalone="no"?>
<!DOCTYPE svg PUBLIC "-//W3C//DTD SVG 1.1//EN"
 "http://www.w3.org/Graphics/SVG/1.1/DTD/svg11.dtd">
<!-- Generated by graphviz version 13.1.2 (20250808.2320)
 -->
<!-- Title: main Pages: 1 -->
<svg width="1068pt" height="433pt"
 viewBox="0.00 0.00 1068.00 433.00" xmlns="http://www.w3.org/2000/svg" xmlns:xlink="http://www.w3.org/1999/xlink">
<g id="graph0" class="graph" transform="scale(1 1) rotate(0) translate(4 428.75)">
<title>main</title>
<!-- Node1 -->
<g id="Node000001" class="node">
<title>Node1</title>
<g id="a_Node000001"><a xlink:title=" ">
<polygon fill="#999999" stroke="#666666" points="40.75,-268.75 0,-268.75 0,-248 40.75,-248 40.75,-268.75"/>
<text xml:space="preserve" text-anchor="middle" x="20.38" y="-255.25" font-family="Helvetica,sans-Serif" font-size="10.00">main</text>
</a>
</g>
</g>
<!-- Node2 -->
<g id="Node000002" class="node">
<title>Node2</title>
<g id="a_Node000002"><a xlink:href="main_8cpp.html#a917af95aefa41eff8bec228ee96ea129" target="_top" xlink:title=" ">
<polygon fill="white" stroke="#666666" points="183.12,-356.75 112.38,-356.75 112.38,-336 183.12,-336 183.12,-356.75"/>
<text xml:space="preserve" text-anchor="middle" x="147.75" y="-343.25" font-family="Helvetica,sans-Serif" font-size="10.00">check_args</text>
</a>
</g>
</g>
<!-- Node1&#45;&gt;Node2 -->
<g id="edge1_Node000001_Node000002" class="edge">
<title>Node1&#45;&gt;Node2</title>
<g id="a_edge1_Node000001_Node000002"><a xlink:title=" ">
<path fill="none" stroke="#63b8ff" d="M36.75,-269.17C58.11,-284.16 96.98,-311.44 122.33,-329.24"/>
<polygon fill="#63b8ff" stroke="#63b8ff" points="120.21,-332.02 130.4,-334.9 124.23,-326.29 120.21,-332.02"/>
</a>
</g>
</g>
<!-- Node4 -->
<g id="Node000004" class="node">
<title>Node4</title>
<g id="a_Node000004"><a xlink:href="classrtype_1_1NetworkServer.html#a707e4bd01554bc358fa8315c6552e468" target="_top" xlink:title="Runs the network server.">
<polygon fill="white" stroke="#666666" points="218.75,-249.75 76.75,-249.75 76.75,-229 218.75,-229 218.75,-249.75"/>
<text xml:space="preserve" text-anchor="middle" x="147.75" y="-236.25" font-family="Helvetica,sans-Serif" font-size="10.00">rtype::NetworkServer::run</text>
</a>
</g>
</g>
<!-- Node1&#45;&gt;Node4 -->
<g id="edge3_Node000001_Node000004" class="edge">
<title>Node1&#45;&gt;Node4</title>
<g id="a_edge3_Node000001_Node000004"><a xlink:title=" ">
<path fill="none" stroke="#63b8ff" d="M41.24,-255.36C48.14,-254.32 56.35,-253.07 65.12,-251.75"/>
<polygon fill="#63b8ff" stroke="#63b8ff" points="65.59,-255.21 74.95,-250.26 64.54,-248.29 65.59,-255.21"/>
</a>
</g>
</g>
<!-- Node3 -->
<g id="Node000003" class="node">
<title>Node3</title>
<g id="a_Node000003"><a xlink:href="main_8cpp.html#af7d9ba58ac07e31036b34c5a0aebb60e" target="_top" xlink:title=" ">
<polygon fill="white" stroke="#666666" points="365.25,-424.75 287.75,-424.75 287.75,-404 365.25,-404 365.25,-424.75"/>
<text xml:space="preserve" text-anchor="middle" x="326.5" y="-411.25" font-family="Helvetica,sans-Serif" font-size="10.00">display_help</text>
</a>
</g>
</g>
<!-- Node2&#45;&gt;Node3 -->
<g id="edge2_Node000002_Node000003" class="edge">
<title>Node2&#45;&gt;Node3</title>
<g id="a_edge2_Node000002_Node000003"><a xlink:title=" ">
<path fill="none" stroke="#63b8ff" d="M169.42,-357.22C190.47,-367.95 224.25,-384.32 254.75,-395.38 261.66,-397.88 269.05,-400.22 276.36,-402.34"/>
<polygon fill="#63b8ff" stroke="#63b8ff" points="275.28,-405.68 285.85,-404.99 277.16,-398.93 275.28,-405.68"/>
</a>
</g>
</g>
<!-- Node5 -->
<g id="Node000005" class="node">
<title>Node5</title>
<g id="a_Node000005"><a xlink:href="classrtype_1_1NetworkServer.html#a7c2e4bf84b33f7dc8849831ddff8e089" target="_top" xlink:title="Broadcasts the current ECS snapshot to all connected clients.">
<polygon fill="white" stroke="#666666" points="386.62,-386.12 266.38,-386.12 266.38,-352.62 386.62,-352.62 386.62,-386.12"/>
<text xml:space="preserve" text-anchor="start" x="274.38" y="-372.62" font-family="Helvetica,sans-Serif" font-size="10.00">rtype::NetworkServer</text>
<text xml:space="preserve" text-anchor="middle" x="326.5" y="-359.88" font-family="Helvetica,sans-Serif" font-size="10.00">::broadcastSnapshot</text>
</a>
</g>
</g>
<!-- Node4&#45;&gt;Node5 -->
<g id="edge4_Node000004_Node000005" class="edge">
<title>Node4&#45;&gt;Node5</title>
<g id="a_edge4_Node000004_Node000005"><a xlink:title=" ">
<path fill="none" stroke="#63b8ff" d="M156.95,-250.02C173.4,-270.7 212.48,-316.64 254.75,-343.38 256.86,-344.71 259.05,-345.99 261.3,-347.22"/>
<polygon fill="#63b8ff" stroke="#63b8ff" points="259.55,-350.26 270.07,-351.58 262.67,-343.99 259.55,-350.26"/>
</a>
</g>
</g>
<!-- Node9 -->
<g id="Node000009" class="node">
<title>Node9</title>
<g id="a_Node000009"><a xlink:href="classrtype_1_1NetworkServer.html#aa771fec7c08fc4c27d84b0cd6b380f80" target="_top" xlink:title="Checks game time and spawns enemies when their spawn time is reached.">
<polygon fill="white" stroke="#666666" points="398.25,-334.12 254.75,-334.12 254.75,-300.62 398.25,-300.62 398.25,-334.12"/>
<text xml:space="preserve" text-anchor="start" x="262.75" y="-320.62" font-family="Helvetica,sans-Serif" font-size="10.00">rtype::NetworkServer</text>
<text xml:space="preserve" text-anchor="middle" x="326.5" y="-307.88" font-family="Helvetica,sans-Serif" font-size="10.00">::checkAndSpawnEnemies</text>
</a>
</g>
</g>
<!-- Node4&#45;&gt;Node9 -->
<g id="edge8_Node000004_Node000009" class="edge">
<title>Node4&#45;&gt;Node9</title>
<g id="a_edge8_Node000004_Node000009"><a xlink:title=" ">
<path fill="none" stroke="#63b8ff" d="M169.17,-250.18C190.3,-261.18 224.41,-278.4 254.75,-291.38 258.35,-292.91 262.07,-294.45 265.84,-295.96"/>
<polygon fill="#63b8ff" stroke="#63b8ff" points="264.53,-299.2 275.11,-299.58 267.07,-292.68 264.53,-299.2"/>
</a>
</g>
</g>
<!-- Node11 -->
<g id="Node000011" class="node">
<title>Node11</title>
<g id="a_Node000011"><a xlink:href="classrtype_1_1NetworkServer.html#afaf4a49cd03af637e4516c6db4b25884" target="_top" xlink:title="Cleans up inactive players who have timed out.">
<polygon fill="white" stroke="#666666" points="388.12,-282.12 264.88,-282.12 264.88,-248.62 388.12,-248.62 388.12,-282.12"/>
<text xml:space="preserve" text-anchor="start" x="272.88" y="-268.62" font-family="Helvetica,sans-Serif" font-size="10.00">rtype::NetworkServer</text>
<text xml:space="preserve" text-anchor="middle" x="326.5" y="-255.88" font-family="Helvetica,sans-Serif" font-size="10.00">::cleanInactivePlayers</text>
</a>
</g>
</g>
<!-- Node4&#45;&gt;Node11 -->
<g id="edge10_Node000004_Node000011" class="edge">
<title>Node4&#45;&gt;Node11</title>
<g id="a_edge10_Node000004_Node000011"><a xlink:title=" ">
<path fill="none" stroke="#63b8ff" d="M219.11,-249.73C230.38,-251.38 242.05,-253.1 253.35,-254.76"/>
<polygon fill="#63b8ff" stroke="#63b8ff" points="252.61,-258.19 263.01,-256.18 253.62,-251.26 252.61,-258.19"/>
</a>
</g>
</g>
<!-- Node13 -->
<g id="Node000013" class="node">
<title>Node13</title>
<g id="a_Node000013"><a xlink:href="classrtype_1_1NetworkServer.html#a6892c00dc78a4467c0cac203214d65db" target="_top" xlink:title="Creates enemy entities with random positioning.">
<polygon fill="white" stroke="#666666" points="386.62,-230.12 266.38,-230.12 266.38,-196.62 386.62,-196.62 386.62,-230.12"/>
<text xml:space="preserve" text-anchor="start" x="274.38" y="-216.62" font-family="Helvetica,sans-Serif" font-size="10.00">rtype::NetworkServer</text>
<text xml:space="preserve" text-anchor="middle" x="326.5" y="-203.88" font-family="Helvetica,sans-Serif" font-size="10.00">::createEnemyEntity</text>
</a>
</g>
</g>
<!-- Node4&#45;&gt;Node13 -->
<g id="edge13_Node000004_Node000013" class="edge">
<title>Node4&#45;&gt;Node13</title>
<g id="a_edge13_Node000004_Node000013"><a xlink:title=" ">
<path fill="none" stroke="#63b8ff" d="M219.11,-229.02C230.86,-227.3 243.05,-225.5 254.8,-223.77"/>
<polygon fill="#63b8ff" stroke="#63b8ff" points="255.03,-227.28 264.41,-222.36 254.01,-220.35 255.03,-227.28"/>
</a>
</g>
</g>
<!-- Node14 -->
<g id="Node000014" class="node">
<title>Node14</title>
<g id="a_Node000014"><a xlink:href="classrtype_1_1NetworkServer.html#ab476dc987640c09387071e1d3a30ba2f" target="_top" xlink:title="Asynchronously receives incoming UDP packets.">
<polygon fill="white" stroke="#666666" points="386.62,-160.12 266.38,-160.12 266.38,-126.62 386.62,-126.62 386.62,-160.12"/>
<text xml:space="preserve" text-anchor="start" x="274.38" y="-146.62" font-family="Helvetica,sans-Serif" font-size="10.00">rtype::NetworkServer</text>
<text xml:space="preserve" text-anchor="middle" x="326.5" y="-133.88" font-family="Helvetica,sans-Serif" font-size="10.00">::doReceive</text>
</a>
</g>
</g>
<!-- Node4&#45;&gt;Node14 -->
<g id="edge14_Node000004_Node000014" class="edge">
<title>Node4&#45;&gt;Node14</title>
<g id="a_edge14_Node000004_Node000014"><a xlink:title=" ">
<path fill="none" stroke="#63b8ff" d="M168.68,-228.55C196.57,-213.4 247.91,-185.52 284.23,-165.79"/>
<polygon fill="#63b8ff" stroke="#63b8ff" points="285.6,-169.03 292.72,-161.18 282.26,-162.88 285.6,-169.03"/>
</a>
</g>
</g>
<!-- Node25 -->
<g id="Node000025" class="node">
<title>Node25</title>
<g id="a_Node000025"><a xlink:href="classrtype_1_1NetworkServer.html#ac5da2ddce90cd6e55994fd128037de96" target="_top" xlink:title="Loads enemy spawn data from a JSON file.">
<polygon fill="white" stroke="#666666" points="391.5,-105.12 261.5,-105.12 261.5,-71.62 391.5,-71.62 391.5,-105.12"/>
<text xml:space="preserve" text-anchor="start" x="269.5" y="-91.62" font-family="Helvetica,sans-Serif" font-size="10.00">rtype::NetworkServer</text>
<text xml:space="preserve" text-anchor="middle" x="326.5" y="-78.88" font-family="Helvetica,sans-Serif" font-size="10.00">::loadEnemiesFromJson</text>
</a>
</g>
</g>
<!-- Node4&#45;&gt;Node25 -->
<g id="edge28_Node000004_Node000025" class="edge">
<title>Node4&#45;&gt;Node25</title>
<g id="a_edge28_Node000004_Node000025"><a xlink:title=" ">
<path fill="none" stroke="#63b8ff" d="M155.43,-228.76C170.49,-205.59 209.38,-149.92 254.75,-117.38 258.07,-114.99 261.62,-112.76 265.29,-110.68"/>
<polygon fill="#63b8ff" stroke="#63b8ff" points="266.62,-113.94 273.88,-106.23 263.39,-107.72 266.62,-113.94"/>
</a>
</g>
</g>
<!-- Node30 -->
<g id="Node000030" class="node">
<title>Node30</title>
<g id="a_Node000030"><a xlink:href="classrtype_1_1NetworkServer.html#a531be2837a794a277af86694339ec113" target="_top" xlink:title="Updates the ECS with a given delta time.">
<polygon fill="white" stroke="#666666" points="386.62,-53.12 266.38,-53.12 266.38,-19.62 386.62,-19.62 386.62,-53.12"/>
<text xml:space="preserve" text-anchor="start" x="274.38" y="-39.62" font-family="Helvetica,sans-Serif" font-size="10.00">rtype::NetworkServer</text>
<text xml:space="preserve" text-anchor="middle" x="326.5" y="-26.88" font-family="Helvetica,sans-Serif" font-size="10.00">::updateECS</text>
</a>
</g>
</g>
<!-- Node4&#45;&gt;Node30 -->
<g id="edge34_Node000004_Node000030" class="edge">
<title>Node4&#45;&gt;Node30</title>
<g id="a_edge34_Node000004_Node000030"><a xlink:title=" ">
<path fill="none" stroke="#63b8ff" d="M152.18,-228.93C162.6,-198.72 196.82,-110.35 254.75,-62.38 255.88,-61.44 257.05,-60.53 258.26,-59.65"/>
<polygon fill="#63b8ff" stroke="#63b8ff" points="260.11,-62.62 266.72,-54.34 256.39,-56.69 260.11,-62.62"/>
</a>
</g>
</g>
<!-- Node6 -->
<g id="Node000006" class="node">
<title>Node6</title>
<g id="a_Node000006"><a xlink:href="classrtype_1_1NetworkServer.html#adf29c7e182238848447d6b05884105ae" target="_top" xlink:title="Serializes the current ECS state into a snapshot packet.">
<polygon fill="white" stroke="#666666" points="561.62,-401.12 441.38,-401.12 441.38,-367.62 561.62,-367.62 561.62,-401.12"/>
<text xml:space="preserve" text-anchor="start" x="449.38" y="-387.62" font-family="Helvetica,sans-Serif" font-size="10.00">rtype::NetworkServer</text>
<text xml:space="preserve" text-anchor="middle" x="501.5" y="-374.88" font-family="Helvetica,sans-Serif" font-size="10.00">::serializeSnapshot</text>
</a>
</g>
</g>
<!-- Node5&#45;&gt;Node6 -->
<g id="edge5_Node000005_Node000006" class="edge">
<title>Node5&#45;&gt;Node6</title>
<g id="a_edge5_Node000005_Node000006"><a xlink:title=" ">
<path fill="none" stroke="#63b8ff" d="M387.04,-374.54C400.84,-375.73 415.66,-377.02 429.89,-378.25"/>
<polygon fill="#63b8ff" stroke="#63b8ff" points="429.37,-381.72 439.64,-379.1 429.98,-374.75 429.37,-381.72"/>
</a>
</g>
</g>
<!-- Node7 -->
<g id="Node000007" class="node">
<title>Node7</title>
<g id="a_Node000007"><a xlink:href="NetworkServer_8cpp.html#a053b64d0725ca7fc6decff0d6d24f231" target="_top" xlink:title="Converts a float to a vector of 4 bytes.">
<polygon fill="white" stroke="#666666" points="702.88,-394.75 626.88,-394.75 626.88,-374 702.88,-374 702.88,-394.75"/>
<text xml:space="preserve" text-anchor="middle" x="664.88" y="-381.25" font-family="Helvetica,sans-Serif" font-size="10.00">floatToBytes</text>
</a>
</g>
</g>
<!-- Node6&#45;&gt;Node7 -->
<g id="edge6_Node000006_Node000007" class="edge">
<title>Node6&#45;&gt;Node7</title>
<g id="a_edge6_Node000006_Node000007"><a xlink:title=" ">
<path fill="none" stroke="#63b8ff" d="M561.67,-384.38C579.36,-384.38 598.54,-384.38 615.45,-384.38"/>
<polygon fill="#63b8ff" stroke="#63b8ff" points="615.23,-387.88 625.23,-384.38 615.23,-380.88 615.23,-387.88"/>
</a>
</g>
</g>
<!-- Node8 -->
<g id="Node000008" class="node">
<title>Node8</title>
<g id="a_Node000008"><a xlink:href="classrtype_1_1NetworkServer.html#a0b8fd52383e5b2fd3a529162fd2ea46a" target="_top" xlink:title="Converts a value of type T to a vector of bytes.">
<polygon fill="white" stroke="#666666" points="1060,-304.12 939.75,-304.12 939.75,-270.62 1060,-270.62 1060,-304.12"/>
<text xml:space="preserve" text-anchor="start" x="947.75" y="-290.62" font-family="Helvetica,sans-Serif" font-size="10.00">rtype::NetworkServer</text>
<text xml:space="preserve" text-anchor="middle" x="999.88" y="-277.88" font-family="Helvetica,sans-Serif" font-size="10.00">::toBytes</text>
</a>
</g>
</g>
<!-- Node6&#45;&gt;Node8 -->
<g id="edge7_Node000006_Node000008" class="edge">
<title>Node6&#45;&gt;Node8</title>
<g id="a_edge7_Node000006_Node000008"><a xlink:title=" ">
<path fill="none" stroke="#63b8ff" d="M561.88,-372.77C653.72,-354.82 829.83,-320.41 928.13,-301.2"/>
<polygon fill="#63b8ff" stroke="#63b8ff" points="928.8,-304.64 937.94,-299.28 927.45,-297.77 928.8,-304.64"/>
</a>
</g>
</g>
<!-- Node10 -->
<g id="Node000010" class="node">
<title>Node10</title>
<g id="a_Node000010"><a xlink:href="classrtype_1_1NetworkServer.html#aa43fc0754b58048eabf6c97fd6800287" target="_top" xlink:title="Creates an enemy entity from spawn data.">
<polygon fill="white" stroke="#666666" points="568.75,-349.12 434.25,-349.12 434.25,-315.62 568.75,-315.62 568.75,-349.12"/>
<text xml:space="preserve" text-anchor="start" x="442.25" y="-335.62" font-family="Helvetica,sans-Serif" font-size="10.00">rtype::NetworkServer</text>
<text xml:space="preserve" text-anchor="middle" x="501.5" y="-322.88" font-family="Helvetica,sans-Serif" font-size="10.00">::createEnemyFromData</text>
</a>
</g>
</g>
<!-- Node9&#45;&gt;Node10 -->
<g id="edge9_Node000009_Node000010" class="edge">
<title>Node9&#45;&gt;Node10</title>
<g id="a_edge9_Node000009_Node000010"><a xlink:title=" ">
<path fill="none" stroke="#63b8ff" d="M398.36,-323.52C406.36,-324.21 414.53,-324.92 422.61,-325.62"/>
<polygon fill="#63b8ff" stroke="#63b8ff" points="422.15,-329.09 432.42,-326.47 422.76,-322.12 422.15,-329.09"/>
</a>
</g>
</g>
<!-- Node11&#45;&gt;Node8 -->
<g id="edge12_Node000011_Node000008" class="edge">
<title>Node11&#45;&gt;Node8</title>
<g id="a_edge12_Node000011_Node000008"><a xlink:title=" ">
<path fill="none" stroke="#63b8ff" d="M388.56,-267.38C513.1,-271.46 795.79,-280.72 928.1,-285.06"/>
<polygon fill="#63b8ff" stroke="#63b8ff" points="927.66,-288.54 937.77,-285.37 927.89,-281.55 927.66,-288.54"/>
</a>
</g>
</g>
<!-- Node12 -->
<g id="Node000012" class="node">
<title>Node12</title>
<g id="a_Node000012"><a xlink:href="classrtype_1_1NetworkServer.html#a307236d78543decaa97773b3dcc87f60" target="_top" xlink:title="Broadcasts a message to all connected clients.">
<polygon fill="white" stroke="#666666" points="561.62,-259.12 441.38,-259.12 441.38,-225.62 561.62,-225.62 561.62,-259.12"/>
<text xml:space="preserve" text-anchor="start" x="449.38" y="-245.62" font-family="Helvetica,sans-Serif" font-size="10.00">rtype::NetworkServer</text>
<text xml:space="preserve" text-anchor="middle" x="501.5" y="-232.88" font-family="Helvetica,sans-Serif" font-size="10.00">::broadcast</text>
</a>
</g>
</g>
<!-- Node11&#45;&gt;Node12 -->
<g id="edge11_Node000011_Node000012" class="edge">
<title>Node11&#45;&gt;Node12</title>
<g id="a_edge11_Node000011_Node000012"><a xlink:title=" ">
<path fill="none" stroke="#63b8ff" d="M388.49,-257.27C401.79,-255.5 415.98,-253.61 429.62,-251.8"/>
<polygon fill="#63b8ff" stroke="#63b8ff" points="429.98,-255.28 439.43,-250.49 429.06,-248.34 429.98,-255.28"/>
</a>
</g>
</g>
<!-- Node14&#45;&gt;Node14 -->
<g id="edge15_Node000014_Node000014" class="edge">
<title>Node14&#45;&gt;Node14</title>
<g id="a_edge15_Node000014_Node000014"><a xlink:title=" ">
<path fill="none" stroke="#63b8ff" d="M295.04,-160.54C289.7,-169.74 300.18,-178.12 326.5,-178.12 341.3,-178.12 351.1,-175.47 355.88,-171.51"/>
<polygon fill="#63b8ff" stroke="#63b8ff" points="359.26,-172.5 357.68,-162.03 352.38,-171.2 359.26,-172.5"/>
</a>
</g>
</g>
<!-- Node15 -->
<g id="Node000015" class="node">
<title>Node15</title>
<g id="a_Node000015"><a xlink:href="classrtype_1_1NetworkServer.html#a5d5a2e16ab81f96da8ec2d795ff77070" target="_top" xlink:title="Converts a byte array to a value of type T.">
<polygon fill="white" stroke="#666666" points="561.62,-207.12 441.38,-207.12 441.38,-173.62 561.62,-173.62 561.62,-207.12"/>
<text xml:space="preserve" text-anchor="start" x="449.38" y="-193.62" font-family="Helvetica,sans-Serif" font-size="10.00">rtype::NetworkServer</text>
<text xml:space="preserve" text-anchor="middle" x="501.5" y="-180.88" font-family="Helvetica,sans-Serif" font-size="10.00">::fromBytes</text>
</a>
</g>
</g>
<!-- Node14&#45;&gt;Node15 -->
<g id="edge16_Node000014_Node000015" class="edge">
<title>Node14&#45;&gt;Node15</title>
<g id="a_edge16_Node000014_Node000015"><a xlink:title=" ">
<path fill="none" stroke="#63b8ff" d="M387.04,-159.55C400.98,-163.34 415.96,-167.41 430.32,-171.31"/>
<polygon fill="#63b8ff" stroke="#63b8ff" points="429.12,-174.61 439.69,-173.85 430.95,-167.85 429.12,-174.61"/>
</a>
</g>
</g>
<!-- Node16 -->
<g id="Node000016" class="node">
<title>Node16</title>
<g id="a_Node000016"><a xlink:href="classrtype_1_1NetworkServer.html#a05ad82c757407236bb242cdad5a741ba" target="_top" xlink:title="Dispatches incoming client packets to appropriate handlers.">
<polygon fill="white" stroke="#666666" points="561.62,-155.12 441.38,-155.12 441.38,-121.62 561.62,-121.62 561.62,-155.12"/>
<text xml:space="preserve" text-anchor="start" x="449.38" y="-141.62" font-family="Helvetica,sans-Serif" font-size="10.00">rtype::NetworkServer</text>
<text xml:space="preserve" text-anchor="middle" x="501.5" y="-128.88" font-family="Helvetica,sans-Serif" font-size="10.00">::handleClientPacket</text>
</a>
</g>
</g>
<!-- Node14&#45;&gt;Node16 -->
<g id="edge17_Node000014_Node000016" class="edge">
<title>Node14&#45;&gt;Node16</title>
<g id="a_edge17_Node000014_Node000016"><a xlink:title=" ">
<path fill="none" stroke="#63b8ff" d="M387.04,-141.65C400.84,-141.26 415.66,-140.83 429.89,-140.42"/>
<polygon fill="#63b8ff" stroke="#63b8ff" points="429.74,-143.92 439.63,-140.13 429.54,-136.92 429.74,-143.92"/>
</a>
</g>
</g>
<!-- Node17 -->
<g id="Node000017" class="node">
<title>Node17</title>
<g id="a_Node000017"><a xlink:href="classrtype_1_1NetworkServer.html#a112083bc3f0a7ea93435653fcd59b086" target="_top" xlink:title="Finds the player ID associated with a given endpoint.">
<polygon fill="white" stroke="#666666" points="900,-259.12 764.75,-259.12 764.75,-225.62 900,-225.62 900,-259.12"/>
<text xml:space="preserve" text-anchor="start" x="772.75" y="-245.62" font-family="Helvetica,sans-Serif" font-size="10.00">rtype::NetworkServer</text>
<text xml:space="preserve" text-anchor="middle" x="832.38" y="-232.88" font-family="Helvetica,sans-Serif" font-size="10.00">::findPlayerIdByEndpoint</text>
</a>
</g>
</g>
<!-- Node16&#45;&gt;Node17 -->
<g id="edge18_Node000016_Node000017" class="edge">
<title>Node16&#45;&gt;Node17</title>
<g id="a_edge18_Node000016_Node000017"><a xlink:title=" ">
<path fill="none" stroke="#63b8ff" d="M555.12,-155.57C559.95,-158.15 564.58,-161.08 568.75,-164.38 590.79,-181.82 580.64,-201.93 604.75,-216.38 648.91,-242.83 706.65,-249.12 752.8,-248.91"/>
<polygon fill="#63b8ff" stroke="#63b8ff" points="752.81,-252.41 762.75,-248.75 752.7,-245.41 752.81,-252.41"/>
</a>
</g>
</g>
<!-- Node18 -->
<g id="Node000018" class="node">
<title>Node18</title>
<g id="a_Node000018"><a xlink:href="classrtype_1_1NetworkServer.html#a60a048fa593944bfd90a6727d8909c6a" target="_top" xlink:title="Handles an INPUT packet from a client.">
<polygon fill="white" stroke="#666666" points="725,-207.12 604.75,-207.12 604.75,-173.62 725,-173.62 725,-207.12"/>
<text xml:space="preserve" text-anchor="start" x="612.75" y="-193.62" font-family="Helvetica,sans-Serif" font-size="10.00">rtype::NetworkServer</text>
<text xml:space="preserve" text-anchor="middle" x="664.88" y="-180.88" font-family="Helvetica,sans-Serif" font-size="10.00">::handleInputPacket</text>
</a>
</g>
</g>
<!-- Node16&#45;&gt;Node18 -->
<g id="edge19_Node000016_Node000018" class="edge">
<title>Node16&#45;&gt;Node18</title>
<g id="a_edge19_Node000016_Node000018"><a xlink:title=" ">
<path fill="none" stroke="#63b8ff" d="M555.79,-155.55C569.76,-160.05 584.98,-164.95 599.46,-169.62"/>
<polygon fill="#63b8ff" stroke="#63b8ff" points="598.34,-172.93 608.93,-172.67 600.48,-166.27 598.34,-172.93"/>
</a>
</g>
</g>
<!-- Node20 -->
<g id="Node000020" class="node">
<title>Node20</title>
<g id="a_Node000020"><a xlink:href="classrtype_1_1NetworkServer.html#a612253ba0d3caeeac99f4fe52a5a2b4a" target="_top" xlink:title="Handles a JOIN packet from a client.">
<polygon fill="white" stroke="#666666" points="725,-155.12 604.75,-155.12 604.75,-121.62 725,-121.62 725,-155.12"/>
<text xml:space="preserve" text-anchor="start" x="612.75" y="-141.62" font-family="Helvetica,sans-Serif" font-size="10.00">rtype::NetworkServer</text>
<text xml:space="preserve" text-anchor="middle" x="664.88" y="-128.88" font-family="Helvetica,sans-Serif" font-size="10.00">::handleJoinPacket</text>
</a>
</g>
</g>
<!-- Node16&#45;&gt;Node20 -->
<g id="edge22_Node000016_Node000020" class="edge">
<title>Node16&#45;&gt;Node20</title>
<g id="a_edge22_Node000016_Node000020"><a xlink:title=" ">
<path fill="none" stroke="#63b8ff" d="M561.67,-138.38C571.91,-138.38 582.65,-138.38 593.16,-138.38"/>
<polygon fill="#63b8ff" stroke="#63b8ff" points="592.92,-141.88 602.92,-138.38 592.92,-134.88 592.92,-141.88"/>
</a>
</g>
</g>
<!-- Node24 -->
<g id="Node000024" class="node">
<title>Node24</title>
<g id="a_Node000024"><a xlink:href="classrtype_1_1NetworkServer.html#a022c5d221a022804160b187fbb8fe036" target="_top" xlink:title="Converts a PacketType enum to its string representation.">
<polygon fill="white" stroke="#666666" points="725,-103.12 604.75,-103.12 604.75,-69.62 725,-69.62 725,-103.12"/>
<text xml:space="preserve" text-anchor="start" x="612.75" y="-89.62" font-family="Helvetica,sans-Serif" font-size="10.00">rtype::NetworkServer</text>
<text xml:space="preserve" text-anchor="middle" x="664.88" y="-76.88" font-family="Helvetica,sans-Serif" font-size="10.00">::packetTypeToString</text>
</a>
</g>
</g>
<!-- Node16&#45;&gt;Node24 -->
<g id="edge27_Node000016_Node000024" class="edge">
<title>Node16&#45;&gt;Node24</title>
<g id="a_edge27_Node000016_Node000024"><a xlink:title=" ">
<path fill="none" stroke="#63b8ff" d="M555.79,-121.2C569.76,-116.7 584.98,-111.8 599.46,-107.13"/>
<polygon fill="#63b8ff" stroke="#63b8ff" points="600.48,-110.48 608.93,-104.08 598.34,-103.82 600.48,-110.48"/>
</a>
</g>
</g>
<!-- Node18&#45;&gt;Node17 -->
<g id="edge21_Node000018_Node000017" class="edge">
<title>Node18&#45;&gt;Node17</title>
<g id="a_edge21_Node000018_Node000017"><a xlink:title=" ">
<path fill="none" stroke="#63b8ff" d="M720.52,-207.55C735,-212.09 750.77,-217.05 765.76,-221.76"/>
<polygon fill="#63b8ff" stroke="#63b8ff" points="764.47,-225.02 775.06,-224.68 766.57,-218.34 764.47,-225.02"/>
</a>
</g>
</g>
<!-- Node19 -->
<g id="Node000019" class="node">
<title>Node19</title>
<g id="a_Node000019"><a xlink:href="classrtype_1_1NetworkServer.html#a6624176a236d4b97711c1ebb90a86918" target="_top" xlink:title="Applies input actions to a player&#39;s entity.">
<polygon fill="white" stroke="#666666" points="892.5,-207.12 772.25,-207.12 772.25,-173.62 892.5,-173.62 892.5,-207.12"/>
<text xml:space="preserve" text-anchor="start" x="780.25" y="-193.62" font-family="Helvetica,sans-Serif" font-size="10.00">rtype::NetworkServer</text>
<text xml:space="preserve" text-anchor="middle" x="832.38" y="-180.88" font-family="Helvetica,sans-Serif" font-size="10.00">::applyInputToEntity</text>
</a>
</g>
</g>
<!-- Node18&#45;&gt;Node19 -->
<g id="edge20_Node000018_Node000019" class="edge">
<title>Node18&#45;&gt;Node19</title>
<g id="a_edge20_Node000018_Node000019"><a xlink:title=" ">
<path fill="none" stroke="#63b8ff" d="M725.16,-190.38C736.68,-190.38 748.87,-190.38 760.72,-190.38"/>
<polygon fill="#63b8ff" stroke="#63b8ff" points="760.44,-193.88 770.44,-190.38 760.44,-186.88 760.44,-193.88"/>
</a>
</g>
</g>
<!-- Node21 -->
<g id="Node000021" class="node">
<title>Node21</title>
<g id="a_Node000021"><a xlink:href="classrtype_1_1NetworkServer.html#ad358010634e573e4e1d553570b10f2b8" target="_top" xlink:title="Counts the number of active players connected to the server.">
<polygon fill="white" stroke="#666666" points="892.5,-155.12 772.25,-155.12 772.25,-121.62 892.5,-121.62 892.5,-155.12"/>
<text xml:space="preserve" text-anchor="start" x="780.25" y="-141.62" font-family="Helvetica,sans-Serif" font-size="10.00">rtype::NetworkServer</text>
<text xml:space="preserve" text-anchor="middle" x="832.38" y="-128.88" font-family="Helvetica,sans-Serif" font-size="10.00">::countActivePlayers</text>
</a>
</g>
</g>
<!-- Node20&#45;&gt;Node21 -->
<g id="edge23_Node000020_Node000021" class="edge">
<title>Node20&#45;&gt;Node21</title>
<g id="a_edge23_Node000020_Node000021"><a xlink:title=" ">
<path fill="none" stroke="#63b8ff" d="M725.16,-138.38C736.68,-138.38 748.87,-138.38 760.72,-138.38"/>
<polygon fill="#63b8ff" stroke="#63b8ff" points="760.44,-141.88 770.44,-138.38 760.44,-134.88 760.44,-141.88"/>
</a>
</g>
</g>
<!-- Node22 -->
<g id="Node000022" class="node">
<title>Node22</title>
<g id="a_Node000022"><a xlink:href="classrtype_1_1NetworkServer.html#a6ebc16823bcf312a4e57cdd862cfebc2" target="_top" xlink:title="Creates a player entity in the ECS with appropriate components.">
<polygon fill="white" stroke="#666666" points="892.5,-103.12 772.25,-103.12 772.25,-69.62 892.5,-69.62 892.5,-103.12"/>
<text xml:space="preserve" text-anchor="start" x="780.25" y="-89.62" font-family="Helvetica,sans-Serif" font-size="10.00">rtype::NetworkServer</text>
<text xml:space="preserve" text-anchor="middle" x="832.38" y="-76.88" font-family="Helvetica,sans-Serif" font-size="10.00">::createPlayerEntity</text>
</a>
</g>
</g>
<!-- Node20&#45;&gt;Node22 -->
<g id="edge24_Node000020_Node000022" class="edge">
<title>Node20&#45;&gt;Node22</title>
<g id="a_edge24_Node000020_Node000022"><a xlink:title=" ">
<path fill="none" stroke="#63b8ff" d="M720.52,-121.2C735,-116.66 750.77,-111.7 765.76,-106.99"/>
<polygon fill="#63b8ff" stroke="#63b8ff" points="766.57,-110.41 775.06,-104.07 764.47,-103.73 766.57,-110.41"/>
</a>
</g>
</g>
<!-- Node23 -->
<g id="Node000023" class="node">
<title>Node23</title>
<g id="a_Node000023"><a xlink:href="classrtype_1_1NetworkServer.html#a023fe1b710c0f504eb9142f707fea4f7" target="_top" xlink:title="Sends a PLAYER_ID_ASSIGNMENT packet to a client.">
<polygon fill="white" stroke="#666666" points="903.75,-51.12 761,-51.12 761,-17.62 903.75,-17.62 903.75,-51.12"/>
<text xml:space="preserve" text-anchor="start" x="769" y="-37.62" font-family="Helvetica,sans-Serif" font-size="10.00">rtype::NetworkServer</text>
<text xml:space="preserve" text-anchor="middle" x="832.38" y="-24.88" font-family="Helvetica,sans-Serif" font-size="10.00">::sendPlayerIdAssignment</text>
</a>
</g>
</g>
<!-- Node20&#45;&gt;Node23 -->
<g id="edge25_Node000020_Node000023" class="edge">
<title>Node20&#45;&gt;Node23</title>
<g id="a_edge25_Node000020_Node000023"><a xlink:title=" ">
<path fill="none" stroke="#63b8ff" d="M711.93,-121.22C716.56,-118.6 721.02,-115.66 725,-112.38 746.68,-94.49 738.79,-77.6 761,-60.38 762.49,-59.22 764.03,-58.12 765.62,-57.06"/>
<polygon fill="#63b8ff" stroke="#63b8ff" points="766.97,-60.32 773.82,-52.24 763.42,-54.29 766.97,-60.32"/>
</a>
</g>
</g>
<!-- Node23&#45;&gt;Node8 -->
<g id="edge26_Node000023_Node000008" class="edge">
<title>Node23&#45;&gt;Node8</title>
<g id="a_edge26_Node000023_Node000008"><a xlink:title=" ">
<path fill="none" stroke="#63b8ff" d="M892.12,-51.58C896.33,-54.13 900.27,-57.04 903.75,-60.38 961.51,-115.71 985.66,-211.5 994.47,-258.99"/>
<polygon fill="#63b8ff" stroke="#63b8ff" points="991.01,-259.5 996.18,-268.75 997.9,-258.3 991.01,-259.5"/>
</a>
</g>
</g>
<!-- Node26 -->
<g id="Node000026" class="node">
<title>Node26</title>
<g id="a_Node000026"><a xlink:href="loadEnemies_8cpp.html#af086c67c4e25270ea66832413ed49dc1" target="_top" xlink:title="Extracts a JSON value for a given key within a specified range.">
<polygon fill="white" stroke="#666666" points="552.25,-98.75 450.75,-98.75 450.75,-78 552.25,-78 552.25,-98.75"/>
<text xml:space="preserve" text-anchor="middle" x="501.5" y="-85.25" font-family="Helvetica,sans-Serif" font-size="10.00">extractJSONValue</text>
</a>
</g>
</g>
<!-- Node25&#45;&gt;Node26 -->
<g id="edge29_Node000025_Node000026" class="edge">
<title>Node25&#45;&gt;Node26</title>
<g id="a_edge29_Node000025_Node000026"><a xlink:title=" ">
<path fill="none" stroke="#63b8ff" d="M391.92,-88.38C407.31,-88.38 423.69,-88.38 438.95,-88.38"/>
<polygon fill="#63b8ff" stroke="#63b8ff" points="438.84,-91.88 448.84,-88.38 438.84,-84.88 438.84,-91.88"/>
</a>
</g>
</g>
<!-- Node28 -->
<g id="Node000028" class="node">
<title>Node28</title>
<g id="a_Node000028"><a xlink:href="loadEnemies_8cpp.html#a73babc3876953ebe4dbeae87f10b1ca4" target="_top" xlink:title="Parses a JSON array of floats for a given key.">
<polygon fill="white" stroke="#666666" points="548.12,-59.75 454.88,-59.75 454.88,-39 548.12,-39 548.12,-59.75"/>
<text xml:space="preserve" text-anchor="middle" x="501.5" y="-46.25" font-family="Helvetica,sans-Serif" font-size="10.00">parseJSONArray</text>
</a>
</g>
</g>
<!-- Node25&#45;&gt;Node28 -->
<g id="edge31_Node000025_Node000028" class="edge">
<title>Node25&#45;&gt;Node28</title>
<g id="a_edge31_Node000025_Node000028"><a xlink:title=" ">
<path fill="none" stroke="#63b8ff" d="M391.92,-73.85C408.78,-70.05 426.84,-65.98 443.29,-62.27"/>
<polygon fill="#63b8ff" stroke="#63b8ff" points="443.93,-65.72 452.92,-60.1 442.39,-58.89 443.93,-65.72"/>
</a>
</g>
</g>
<!-- Node29 -->
<g id="Node000029" class="node">
<title>Node29</title>
<g id="a_Node000029"><a xlink:href="loadEnemies_8cpp.html#ad31cfd72f9d6657fe345f610e3ff2a59" target="_top" xlink:title="Parses a JSON string value for a given key.">
<polygon fill="white" stroke="#666666" points="549.25,-20.75 453.75,-20.75 453.75,0 549.25,0 549.25,-20.75"/>
<text xml:space="preserve" text-anchor="middle" x="501.5" y="-7.25" font-family="Helvetica,sans-Serif" font-size="10.00">parseJSONString</text>
</a>
</g>
</g>
<!-- Node25&#45;&gt;Node29 -->
<g id="edge33_Node000025_Node000029" class="edge">
<title>Node25&#45;&gt;Node29</title>
<g id="a_edge33_Node000025_Node000029"><a xlink:title=" ">
<path fill="none" stroke="#63b8ff" d="M381.05,-71.16C387,-68.53 392.86,-65.6 398.25,-62.38 416.62,-51.38 415.57,-40.82 434.25,-30.38 437.6,-28.5 441.15,-26.78 444.79,-25.21"/>
<polygon fill="#63b8ff" stroke="#63b8ff" points="445.76,-28.59 453.82,-21.71 443.23,-22.06 445.76,-28.59"/>
</a>
</g>
</g>
<!-- Node27 -->
<g id="Node000027" class="node">
<title>Node27</title>
<g id="a_Node000027"><a xlink:href="loadEnemies_8cpp.html#a3c3dcfc7f0222d5de8ca7c6f7dd5f978" target="_top" xlink:title="Trims whitespace from the beginning and end of a string.">
<polygon fill="white" stroke="#666666" points="683,-51.75 646.75,-51.75 646.75,-31 683,-31 683,-51.75"/>
<text xml:space="preserve" text-anchor="middle" x="664.88" y="-38.25" font-family="Helvetica,sans-Serif" font-size="10.00">trim</text>
</a>
</g>
</g>
<!-- Node26&#45;&gt;Node27 -->
<g id="edge30_Node000026_Node000027" class="edge">
<title>Node26&#45;&gt;Node27</title>
<g id="a_edge30_Node000026_Node000027"><a xlink:title=" ">
<path fill="none" stroke="#63b8ff" d="M539.52,-77.59C568.7,-69.09 608.79,-57.42 635.47,-49.65"/>
<polygon fill="#63b8ff" stroke="#63b8ff" points="636.28,-53.06 644.91,-46.9 634.33,-46.34 636.28,-53.06"/>
</a>
</g>
</g>
<!-- Node28&#45;&gt;Node27 -->
<g id="edge32_Node000028_Node000027" class="edge">
<title>Node28&#45;&gt;Node27</title>
<g id="a_edge32_Node000028_Node000027"><a xlink:title=" ">
<path fill="none" stroke="#63b8ff" d="M548.31,-47.1C576.21,-45.72 611,-44 635.08,-42.8"/>
<polygon fill="#63b8ff" stroke="#63b8ff" points="634.96,-46.31 644.77,-42.32 634.61,-39.32 634.96,-46.31"/>
</a>
</g>
</g>
</g>
</svg>
