<?xml version="1.0" encoding="UTF-8" standalone="no"?>
<!DOCTYPE svg PUBLIC "-//W3C//DTD SVG 1.1//EN"
 "http://www.w3.org/Graphics/SVG/1.1/DTD/svg11.dtd">
<!-- Generated by graphviz version 13.1.2 (20250808.2320)
 -->
<!-- Title: display_help Pages: 1 -->
<svg width="269pt" height="29pt"
 viewBox="0.00 0.00 269.00 29.00" xmlns="http://www.w3.org/2000/svg" xmlns:xlink="http://www.w3.org/1999/xlink">
<g id="graph0" class="graph" transform="scale(1 1) rotate(0) translate(4 24.75)">
<title>display_help</title>
<!-- Node1 -->
<g id="Node000001" class="node">
<title>Node1</title>
<g id="a_Node000001"><a xlink:title=" ">
<polygon fill="#999999" stroke="#666666" points="261,-20.75 183.5,-20.75 183.5,0 261,0 261,-20.75"/>
<text xml:space="preserve" text-anchor="middle" x="222.25" y="-7.25" font-family="Helvetica,sans-Serif" font-size="10.00">display_help</text>
</a>
</g>
</g>
<!-- Node2 -->
<g id="Node000002" class="node">
<title>Node2</title>
<g id="a_Node000002"><a xlink:href="main_8cpp.html#a917af95aefa41eff8bec228ee96ea129" target="_top" xlink:title=" ">
<polygon fill="white" stroke="#666666" points="147.5,-20.75 76.75,-20.75 76.75,0 147.5,0 147.5,-20.75"/>
<text xml:space="preserve" text-anchor="middle" x="112.12" y="-7.25" font-family="Helvetica,sans-Serif" font-size="10.00">check_args</text>
</a>
</g>
</g>
<!-- Node1&#45;&gt;Node2 -->
<g id="edge1_Node000001_Node000002" class="edge">
<title>Node1&#45;&gt;Node2</title>
<g id="a_edge1_Node000001_Node000002"><a xlink:title=" ">
<path fill="none" stroke="#63b8ff" d="M171.78,-10.38C163.63,-10.38 155.34,-10.38 147.66,-10.38"/>
<polygon fill="#63b8ff" stroke="#63b8ff" points="171.62,-13.88 181.62,-10.38 171.62,-6.88 171.62,-13.88"/>
</a>
</g>
</g>
<!-- Node3 -->
<g id="Node000003" class="node">
<title>Node3</title>
<g id="a_Node000003"><a xlink:href="main_8cpp.html#a3c04138a5bfe5d72780bb7e82a18e627" target="_top" xlink:title=" ">
<polygon fill="white" stroke="#666666" points="40.75,-20.75 0,-20.75 0,0 40.75,0 40.75,-20.75"/>
<text xml:space="preserve" text-anchor="middle" x="20.38" y="-7.25" font-family="Helvetica,sans-Serif" font-size="10.00">main</text>
</a>
</g>
</g>
<!-- Node2&#45;&gt;Node3 -->
<g id="edge2_Node000002_Node000003" class="edge">
<title>Node2&#45;&gt;Node3</title>
<g id="a_edge2_Node000002_Node000003"><a xlink:title=" ">
<path fill="none" stroke="#63b8ff" d="M65.05,-10.38C56.65,-10.38 48.31,-10.38 41.2,-10.38"/>
<polygon fill="#63b8ff" stroke="#63b8ff" points="64.91,-13.88 74.91,-10.38 64.91,-6.88 64.91,-13.88"/>
</a>
</g>
</g>
</g>
</svg>
