<?xml version="1.0" encoding="UTF-8" standalone="no"?>
<!DOCTYPE svg PUBLIC "-//W3C//DTD SVG 1.1//EN"
 "http://www.w3.org/Graphics/SVG/1.1/DTD/svg11.dtd">
<!-- Generated by graphviz version 13.1.2 (20250808.2320)
 -->
<!-- Title: src/network/manageEntities.cpp Pages: 1 -->
<svg width="3083pt" height="168pt"
 viewBox="0.00 0.00 3083.00 168.00" xmlns="http://www.w3.org/2000/svg" xmlns:xlink="http://www.w3.org/1999/xlink">
<g id="graph0" class="graph" transform="scale(1 1) rotate(0) translate(4 163.75)">
<title>src/network/manageEntities.cpp</title>
<!-- Node1 -->
<g id="Node000001" class="node">
<title>Node1</title>
<g id="a_Node000001"><a xlink:title=" ">
<polygon fill="#999999" stroke="#666666" points="554.75,-159.75 382,-159.75 382,-139 554.75,-139 554.75,-159.75"/>
<text xml:space="preserve" text-anchor="middle" x="468.38" y="-146.25" font-family="Helvetica,sans-Serif" font-size="10.00">src/network/manageEntities.cpp</text>
</a>
</g>
</g>
<!-- Node2 -->
<g id="Node000002" class="node">
<title>Node2</title>
<g id="a_Node000002"><a xlink:title=" ">
<polygon fill="#e0e0e0" stroke="#999999" points="292,-103 228.75,-103 228.75,-82.25 292,-82.25 292,-103"/>
<text xml:space="preserve" text-anchor="middle" x="260.38" y="-89.5" font-family="Helvetica,sans-Serif" font-size="10.00">algorithm</text>
</a>
</g>
</g>
<!-- Node1&#45;&gt;Node2 -->
<g id="edge1_Node000001_Node000002" class="edge">
<title>Node1&#45;&gt;Node2</title>
<g id="a_edge1_Node000001_Node000002"><a xlink:title=" ">
<path fill="none" stroke="#63b8ff" d="M431.19,-138.59C395.4,-129.17 341.29,-114.92 303.6,-105"/>
<polygon fill="#63b8ff" stroke="#63b8ff" points="304.49,-101.62 293.93,-102.46 302.71,-108.39 304.49,-101.62"/>
</a>
</g>
</g>
<!-- Node3 -->
<g id="Node000003" class="node">
<title>Node3</title>
<g id="a_Node000003"><a xlink:title=" ">
<polygon fill="#e0e0e0" stroke="#999999" points="354.25,-103 310.5,-103 310.5,-82.25 354.25,-82.25 354.25,-103"/>
<text xml:space="preserve" text-anchor="middle" x="332.38" y="-89.5" font-family="Helvetica,sans-Serif" font-size="10.00">bitset</text>
</a>
</g>
</g>
<!-- Node1&#45;&gt;Node3 -->
<g id="edge2_Node000001_Node000003" class="edge">
<title>Node1&#45;&gt;Node3</title>
<g id="a_edge2_Node000001_Node000003"><a xlink:title=" ">
<path fill="none" stroke="#63b8ff" d="M444.06,-138.59C422.06,-129.73 389.49,-116.62 365.19,-106.84"/>
<polygon fill="#63b8ff" stroke="#63b8ff" points="366.66,-103.66 356.08,-103.17 364.05,-110.15 366.66,-103.66"/>
</a>
</g>
</g>
<!-- Node4 -->
<g id="Node000004" class="node">
<title>Node4</title>
<g id="a_Node000004"><a xlink:title=" ">
<polygon fill="#e0e0e0" stroke="#999999" points="420.88,-103 371.88,-103 371.88,-82.25 420.88,-82.25 420.88,-103"/>
<text xml:space="preserve" text-anchor="middle" x="396.38" y="-89.5" font-family="Helvetica,sans-Serif" font-size="10.00">cstdint</text>
</a>
</g>
</g>
<!-- Node1&#45;&gt;Node4 -->
<g id="edge3_Node000001_Node000004" class="edge">
<title>Node1&#45;&gt;Node4</title>
<g id="a_edge3_Node000001_Node000004"><a xlink:title=" ">
<path fill="none" stroke="#63b8ff" d="M455.5,-138.59C445.16,-130.72 430.41,-119.5 418.22,-110.24"/>
<polygon fill="#63b8ff" stroke="#63b8ff" points="420.42,-107.51 410.34,-104.24 416.18,-113.08 420.42,-107.51"/>
</a>
</g>
</g>
<!-- Node5 -->
<g id="Node000005" class="node">
<title>Node5</title>
<g id="a_Node000005"><a xlink:title=" ">
<polygon fill="#e0e0e0" stroke="#999999" points="498.12,-103 438.62,-103 438.62,-82.25 498.12,-82.25 498.12,-103"/>
<text xml:space="preserve" text-anchor="middle" x="468.38" y="-89.5" font-family="Helvetica,sans-Serif" font-size="10.00">iostream</text>
</a>
</g>
</g>
<!-- Node1&#45;&gt;Node5 -->
<g id="edge4_Node000001_Node000005" class="edge">
<title>Node1&#45;&gt;Node5</title>
<g id="a_edge4_Node000001_Node000005"><a xlink:title=" ">
<path fill="none" stroke="#63b8ff" d="M468.38,-138.59C468.38,-131.97 468.38,-122.97 468.38,-114.77"/>
<polygon fill="#63b8ff" stroke="#63b8ff" points="471.88,-114.84 468.38,-104.84 464.88,-114.84 471.88,-114.84"/>
</a>
</g>
</g>
<!-- Node6 -->
<g id="Node000006" class="node">
<title>Node6</title>
<g id="a_Node000006"><a xlink:title=" ">
<polygon fill="#e0e0e0" stroke="#999999" points="570.12,-103 516.62,-103 516.62,-82.25 570.12,-82.25 570.12,-103"/>
<text xml:space="preserve" text-anchor="middle" x="543.38" y="-89.5" font-family="Helvetica,sans-Serif" font-size="10.00">random</text>
</a>
</g>
</g>
<!-- Node1&#45;&gt;Node6 -->
<g id="edge5_Node000001_Node000006" class="edge">
<title>Node1&#45;&gt;Node6</title>
<g id="a_edge5_Node000001_Node000006"><a xlink:title=" ">
<path fill="none" stroke="#63b8ff" d="M481.78,-138.59C492.66,-130.65 508.23,-119.28 520.99,-109.96"/>
<polygon fill="#63b8ff" stroke="#63b8ff" points="522.85,-112.94 528.86,-104.22 518.72,-107.29 522.85,-112.94"/>
</a>
</g>
</g>
<!-- Node7 -->
<g id="Node000007" class="node">
<title>Node7</title>
<g id="a_Node000007"><a xlink:title=" ">
<polygon fill="#e0e0e0" stroke="#999999" points="46.75,-33.5 0,-33.5 0,-12.75 46.75,-12.75 46.75,-33.5"/>
<text xml:space="preserve" text-anchor="middle" x="23.38" y="-20" font-family="Helvetica,sans-Serif" font-size="10.00">vector</text>
</a>
</g>
</g>
<!-- Node1&#45;&gt;Node7 -->
<g id="edge6_Node000001_Node000007" class="edge">
<title>Node1&#45;&gt;Node7</title>
<g id="a_edge6_Node000001_Node000007"><a xlink:title=" ">
<path fill="none" stroke="#63b8ff" d="M513.83,-138.52C554.39,-127.76 603.87,-108.48 579.38,-82.25 539.55,-39.59 110.46,-65.53 55.38,-46.25 51.31,-44.83 47.29,-42.74 43.53,-40.41"/>
<polygon fill="#63b8ff" stroke="#63b8ff" points="45.82,-37.74 35.63,-34.83 41.78,-43.46 45.82,-37.74"/>
</a>
</g>
</g>
<!-- Node8 -->
<g id="Node000008" class="node">
<title>Node8</title>
<g id="a_Node000008"><a xlink:href="NetworkServer_8hpp.html" target="_top" xlink:title=" ">
<polygon fill="white" stroke="#666666" points="1309.88,-103 1200.88,-103 1200.88,-82.25 1309.88,-82.25 1309.88,-103"/>
<text xml:space="preserve" text-anchor="middle" x="1255.38" y="-89.5" font-family="Helvetica,sans-Serif" font-size="10.00">NetworkServer.hpp</text>
</a>
</g>
</g>
<!-- Node1&#45;&gt;Node8 -->
<g id="edge7_Node000001_Node000008" class="edge">
<title>Node1&#45;&gt;Node8</title>
<g id="a_edge7_Node000001_Node000008"><a xlink:title=" ">
<path fill="none" stroke="#63b8ff" d="M555.23,-142.33C714.03,-131.29 1047.88,-108.06 1189.55,-98.2"/>
<polygon fill="#63b8ff" stroke="#63b8ff" points="1189.39,-101.72 1199.13,-97.54 1188.91,-94.74 1189.39,-101.72"/>
</a>
</g>
</g>
<!-- Node8&#45;&gt;Node7 -->
<g id="edge13_Node000008_Node000007" class="edge">
<title>Node8&#45;&gt;Node7</title>
<g id="a_edge13_Node000008_Node000007"><a xlink:title=" ">
<path fill="none" stroke="#63b8ff" d="M1200.4,-90.4C972.37,-85.23 110.27,-64.52 55.38,-46.25 51.22,-44.87 47.12,-42.77 43.31,-40.4"/>
<polygon fill="#63b8ff" stroke="#63b8ff" points="45.48,-37.65 35.31,-34.7 41.42,-43.35 45.48,-37.65"/>
</a>
</g>
</g>
<!-- Node9 -->
<g id="Node000009" class="node">
<title>Node9</title>
<g id="a_Node000009"><a xlink:title=" ">
<polygon fill="#e0e0e0" stroke="#999999" points="122,-33.5 64.75,-33.5 64.75,-12.75 122,-12.75 122,-33.5"/>
<text xml:space="preserve" text-anchor="middle" x="93.38" y="-20" font-family="Helvetica,sans-Serif" font-size="10.00">asio.hpp</text>
</a>
</g>
</g>
<!-- Node8&#45;&gt;Node9 -->
<g id="edge8_Node000008_Node000009" class="edge">
<title>Node8&#45;&gt;Node9</title>
<g id="a_edge8_Node000008_Node000009"><a xlink:title=" ">
<path fill="none" stroke="#63b8ff" d="M1200.7,-90.97C989.62,-88.21 234.43,-76.31 131.38,-46.25 126.21,-44.74 121,-42.39 116.17,-39.76"/>
<polygon fill="#63b8ff" stroke="#63b8ff" points="118.02,-36.79 107.66,-34.61 114.4,-42.78 118.02,-36.79"/>
</a>
</g>
</g>
<!-- Node10 -->
<g id="Node000010" class="node">
<title>Node10</title>
<g id="a_Node000010"><a xlink:title=" ">
<polygon fill="#e0e0e0" stroke="#999999" points="178.25,-33.5 140.5,-33.5 140.5,-12.75 178.25,-12.75 178.25,-33.5"/>
<text xml:space="preserve" text-anchor="middle" x="159.38" y="-20" font-family="Helvetica,sans-Serif" font-size="10.00">map</text>
</a>
</g>
</g>
<!-- Node8&#45;&gt;Node10 -->
<g id="edge9_Node000008_Node000010" class="edge">
<title>Node8&#45;&gt;Node10</title>
<g id="a_edge9_Node000008_Node000010"><a xlink:title=" ">
<path fill="none" stroke="#63b8ff" d="M1200.51,-91.27C995.68,-89.67 282.57,-81.6 187.38,-46.25 183.77,-44.91 180.28,-42.93 177.04,-40.68"/>
<polygon fill="#63b8ff" stroke="#63b8ff" points="179.43,-38.11 169.46,-34.53 175.02,-43.55 179.43,-38.11"/>
</a>
</g>
</g>
<!-- Node11 -->
<g id="Node000011" class="node">
<title>Node11</title>
<g id="a_Node000011"><a xlink:title=" ">
<polygon fill="#e0e0e0" stroke="#999999" points="254,-33.5 196.75,-33.5 196.75,-12.75 254,-12.75 254,-33.5"/>
<text xml:space="preserve" text-anchor="middle" x="225.38" y="-20" font-family="Helvetica,sans-Serif" font-size="10.00">memory</text>
</a>
</g>
</g>
<!-- Node8&#45;&gt;Node11 -->
<g id="edge10_Node000008_Node000011" class="edge">
<title>Node8&#45;&gt;Node11</title>
<g id="a_edge10_Node000008_Node000011"><a xlink:title=" ">
<path fill="none" stroke="#63b8ff" d="M1200.51,-90.68C1005.43,-87.12 352.18,-73.27 262.38,-46.25 257.32,-44.73 252.24,-42.37 247.54,-39.74"/>
<polygon fill="#63b8ff" stroke="#63b8ff" points="249.61,-36.91 239.27,-34.6 245.92,-42.86 249.61,-36.91"/>
</a>
</g>
</g>
<!-- Node12 -->
<g id="Node000012" class="node">
<title>Node12</title>
<g id="a_Node000012"><a xlink:title=" ">
<polygon fill="#e0e0e0" stroke="#999999" points="319.12,-33.5 271.62,-33.5 271.62,-12.75 319.12,-12.75 319.12,-33.5"/>
<text xml:space="preserve" text-anchor="middle" x="295.38" y="-20" font-family="Helvetica,sans-Serif" font-size="10.00">mutex</text>
</a>
</g>
</g>
<!-- Node8&#45;&gt;Node12 -->
<g id="edge11_Node000008_Node000012" class="edge">
<title>Node8&#45;&gt;Node12</title>
<g id="a_edge11_Node000008_Node000012"><a xlink:title=" ">
<path fill="none" stroke="#63b8ff" d="M1200.6,-90.65C1014.13,-87.1 410.97,-73.6 328.38,-46.25 324.01,-44.8 319.67,-42.61 315.65,-40.15"/>
<polygon fill="#63b8ff" stroke="#63b8ff" points="317.93,-37.47 307.71,-34.65 313.94,-43.22 317.93,-37.47"/>
</a>
</g>
</g>
<!-- Node13 -->
<g id="Node000013" class="node">
<title>Node13</title>
<g id="a_Node000013"><a xlink:title=" ">
<polygon fill="#e0e0e0" stroke="#999999" points="381.25,-33.5 337.5,-33.5 337.5,-12.75 381.25,-12.75 381.25,-33.5"/>
<text xml:space="preserve" text-anchor="middle" x="359.38" y="-20" font-family="Helvetica,sans-Serif" font-size="10.00">string</text>
</a>
</g>
</g>
<!-- Node8&#45;&gt;Node13 -->
<g id="edge12_Node000008_Node000013" class="edge">
<title>Node8&#45;&gt;Node13</title>
<g id="a_edge12_Node000008_Node000013"><a xlink:title=" ">
<path fill="none" stroke="#63b8ff" d="M1200.55,-90.53C1022.34,-86.73 466.5,-72.85 390.38,-46.25 386.45,-44.88 382.58,-42.84 378.98,-40.56"/>
<polygon fill="#63b8ff" stroke="#63b8ff" points="381.06,-37.75 370.93,-34.67 376.93,-43.4 381.06,-37.75"/>
</a>
</g>
</g>
<!-- Node14 -->
<g id="Node000014" class="node">
<title>Node14</title>
<g id="a_Node000014"><a xlink:title=" ">
<polygon fill="#e0e0e0" stroke="#999999" points="541.38,-46.25 399.38,-46.25 399.38,0 541.38,0 541.38,-46.25"/>
<text xml:space="preserve" text-anchor="start" x="407.38" y="-32.75" font-family="Helvetica,sans-Serif" font-size="10.00">../../../gameEngine</text>
<text xml:space="preserve" text-anchor="start" x="407.38" y="-20" font-family="Helvetica,sans-Serif" font-size="10.00">/components/AIControlled</text>
<text xml:space="preserve" text-anchor="middle" x="470.38" y="-7.25" font-family="Helvetica,sans-Serif" font-size="10.00">/src/AIControlled.hpp</text>
</a>
</g>
</g>
<!-- Node8&#45;&gt;Node14 -->
<g id="edge14_Node000008_Node000014" class="edge">
<title>Node8&#45;&gt;Node14</title>
<g id="a_edge14_Node000008_Node000014"><a xlink:title=" ">
<path fill="none" stroke="#63b8ff" d="M1200.54,-91.91C1083.16,-91.71 798.92,-86.83 553.05,-46.53"/>
<polygon fill="#63b8ff" stroke="#63b8ff" points="553.67,-43.08 543.23,-44.89 552.52,-49.99 553.67,-43.08"/>
</a>
</g>
</g>
<!-- Node15 -->
<g id="Node000015" class="node">
<title>Node15</title>
<g id="a_Node000015"><a xlink:title=" ">
<polygon fill="#e0e0e0" stroke="#999999" points="701.38,-46.25 559.38,-46.25 559.38,0 701.38,0 701.38,-46.25"/>
<text xml:space="preserve" text-anchor="start" x="567.38" y="-32.75" font-family="Helvetica,sans-Serif" font-size="10.00">../../../gameEngine</text>
<text xml:space="preserve" text-anchor="start" x="567.38" y="-20" font-family="Helvetica,sans-Serif" font-size="10.00">/components/acceleration</text>
<text xml:space="preserve" text-anchor="middle" x="630.38" y="-7.25" font-family="Helvetica,sans-Serif" font-size="10.00">/src/Acceleration.hpp</text>
</a>
</g>
</g>
<!-- Node8&#45;&gt;Node15 -->
<g id="edge15_Node000008_Node000015" class="edge">
<title>Node8&#45;&gt;Node15</title>
<g id="a_edge15_Node000008_Node000015"><a xlink:title=" ">
<path fill="none" stroke="#63b8ff" d="M1200.4,-90.43C1103.57,-87.6 896.25,-78.26 712.95,-46.55"/>
<polygon fill="#63b8ff" stroke="#63b8ff" points="713.7,-43.12 703.24,-44.84 712.49,-50.02 713.7,-43.12"/>
</a>
</g>
</g>
<!-- Node16 -->
<g id="Node000016" class="node">
<title>Node16</title>
<g id="a_Node000016"><a xlink:title=" ">
<polygon fill="#e0e0e0" stroke="#999999" points="855.38,-46.25 719.38,-46.25 719.38,0 855.38,0 855.38,-46.25"/>
<text xml:space="preserve" text-anchor="start" x="727.38" y="-32.75" font-family="Helvetica,sans-Serif" font-size="10.00">../../../gameEngine</text>
<text xml:space="preserve" text-anchor="start" x="727.38" y="-20" font-family="Helvetica,sans-Serif" font-size="10.00">/components/domain/src</text>
<text xml:space="preserve" text-anchor="middle" x="787.38" y="-7.25" font-family="Helvetica,sans-Serif" font-size="10.00">/Domain.hpp</text>
</a>
</g>
</g>
<!-- Node8&#45;&gt;Node16 -->
<g id="edge16_Node000008_Node000016" class="edge">
<title>Node8&#45;&gt;Node16</title>
<g id="a_edge16_Node000008_Node000016"><a xlink:title=" ">
<path fill="none" stroke="#63b8ff" d="M1200.69,-88.05C1127.07,-82.61 991.93,-70.5 866.99,-46.39"/>
<polygon fill="#63b8ff" stroke="#63b8ff" points="867.68,-42.96 857.19,-44.47 866.33,-49.83 867.68,-42.96"/>
</a>
</g>
</g>
<!-- Node17 -->
<g id="Node000017" class="node">
<title>Node17</title>
<g id="a_Node000017"><a xlink:title=" ">
<polygon fill="#e0e0e0" stroke="#999999" points="1030.88,-46.25 873.88,-46.25 873.88,0 1030.88,0 1030.88,-46.25"/>
<text xml:space="preserve" text-anchor="start" x="881.88" y="-32.75" font-family="Helvetica,sans-Serif" font-size="10.00">../../../gameEngine</text>
<text xml:space="preserve" text-anchor="start" x="881.88" y="-20" font-family="Helvetica,sans-Serif" font-size="10.00">/components/inputControlled</text>
<text xml:space="preserve" text-anchor="middle" x="952.38" y="-7.25" font-family="Helvetica,sans-Serif" font-size="10.00">/src/InputControlled.hpp</text>
</a>
</g>
</g>
<!-- Node8&#45;&gt;Node17 -->
<g id="edge17_Node000008_Node000017" class="edge">
<title>Node8&#45;&gt;Node17</title>
<g id="a_edge17_Node000008_Node000017"><a xlink:title=" ">
<path fill="none" stroke="#63b8ff" d="M1206.16,-81.8C1164.98,-73.45 1104.4,-60.88 1042.23,-46.64"/>
<polygon fill="#63b8ff" stroke="#63b8ff" points="1043.03,-43.23 1032.5,-44.4 1041.46,-50.05 1043.03,-43.23"/>
</a>
</g>
</g>
<!-- Node18 -->
<g id="Node000018" class="node">
<title>Node18</title>
<g id="a_Node000018"><a xlink:title=" ">
<polygon fill="#e0e0e0" stroke="#999999" points="1169.88,-46.25 1048.88,-46.25 1048.88,0 1169.88,0 1169.88,-46.25"/>
<text xml:space="preserve" text-anchor="start" x="1056.88" y="-32.75" font-family="Helvetica,sans-Serif" font-size="10.00">../../../gameEngine</text>
<text xml:space="preserve" text-anchor="start" x="1056.88" y="-20" font-family="Helvetica,sans-Serif" font-size="10.00">/components/position</text>
<text xml:space="preserve" text-anchor="middle" x="1109.38" y="-7.25" font-family="Helvetica,sans-Serif" font-size="10.00">/src/Position.hpp</text>
</a>
</g>
</g>
<!-- Node8&#45;&gt;Node18 -->
<g id="edge18_Node000008_Node000018" class="edge">
<title>Node8&#45;&gt;Node18</title>
<g id="a_edge18_Node000008_Node000018"><a xlink:title=" ">
<path fill="none" stroke="#63b8ff" d="M1234.15,-81.81C1216.85,-73.82 1191.58,-62.13 1168.29,-51.36"/>
<polygon fill="#63b8ff" stroke="#63b8ff" points="1170.03,-48.31 1159.49,-47.29 1167.09,-54.67 1170.03,-48.31"/>
</a>
</g>
</g>
<!-- Node19 -->
<g id="Node000019" class="node">
<title>Node19</title>
<g id="a_Node000019"><a xlink:title=" ">
<polygon fill="#e0e0e0" stroke="#999999" points="1322.62,-46.25 1188.12,-46.25 1188.12,0 1322.62,0 1322.62,-46.25"/>
<text xml:space="preserve" text-anchor="start" x="1196.12" y="-32.75" font-family="Helvetica,sans-Serif" font-size="10.00">../../../gameEngine</text>
<text xml:space="preserve" text-anchor="start" x="1196.12" y="-20" font-family="Helvetica,sans-Serif" font-size="10.00">/components/renderable</text>
<text xml:space="preserve" text-anchor="middle" x="1255.38" y="-7.25" font-family="Helvetica,sans-Serif" font-size="10.00">/src/Renderable.hpp</text>
</a>
</g>
</g>
<!-- Node8&#45;&gt;Node19 -->
<g id="edge19_Node000008_Node000019" class="edge">
<title>Node8&#45;&gt;Node19</title>
<g id="a_edge19_Node000008_Node000019"><a xlink:title=" ">
<path fill="none" stroke="#63b8ff" d="M1255.38,-81.95C1255.38,-75.57 1255.38,-66.78 1255.38,-57.98"/>
<polygon fill="#63b8ff" stroke="#63b8ff" points="1258.88,-58.12 1255.38,-48.12 1251.88,-58.12 1258.88,-58.12"/>
</a>
</g>
</g>
<!-- Node20 -->
<g id="Node000020" class="node">
<title>Node20</title>
<g id="a_Node000020"><a xlink:title=" ">
<polygon fill="#e0e0e0" stroke="#999999" points="1461.88,-46.25 1340.88,-46.25 1340.88,0 1461.88,0 1461.88,-46.25"/>
<text xml:space="preserve" text-anchor="start" x="1348.88" y="-32.75" font-family="Helvetica,sans-Serif" font-size="10.00">../../../gameEngine</text>
<text xml:space="preserve" text-anchor="start" x="1348.88" y="-20" font-family="Helvetica,sans-Serif" font-size="10.00">/components/velocity</text>
<text xml:space="preserve" text-anchor="middle" x="1401.38" y="-7.25" font-family="Helvetica,sans-Serif" font-size="10.00">/src/Velocity.hpp</text>
</a>
</g>
</g>
<!-- Node8&#45;&gt;Node20 -->
<g id="edge20_Node000008_Node000020" class="edge">
<title>Node8&#45;&gt;Node20</title>
<g id="a_edge20_Node000008_Node000020"><a xlink:title=" ">
<path fill="none" stroke="#63b8ff" d="M1276.6,-81.81C1293.9,-73.82 1319.17,-62.13 1342.46,-51.36"/>
<polygon fill="#63b8ff" stroke="#63b8ff" points="1343.66,-54.67 1351.26,-47.29 1340.72,-48.31 1343.66,-54.67"/>
</a>
</g>
</g>
<!-- Node21 -->
<g id="Node000021" class="node">
<title>Node21</title>
<g id="a_Node000021"><a xlink:title=" ">
<polygon fill="#e0e0e0" stroke="#999999" points="1583.25,-39.88 1479.5,-39.88 1479.5,-6.38 1583.25,-6.38 1583.25,-39.88"/>
<text xml:space="preserve" text-anchor="start" x="1487.5" y="-26.38" font-family="Helvetica,sans-Serif" font-size="10.00">../../../gameEngine</text>
<text xml:space="preserve" text-anchor="middle" x="1531.38" y="-13.62" font-family="Helvetica,sans-Serif" font-size="10.00">/ecs/Registry.hpp</text>
</a>
</g>
</g>
<!-- Node8&#45;&gt;Node21 -->
<g id="edge21_Node000008_Node000021" class="edge">
<title>Node8&#45;&gt;Node21</title>
<g id="a_edge21_Node000008_Node000021"><a xlink:title=" ">
<path fill="none" stroke="#63b8ff" d="M1310.06,-82.42C1354.06,-74.48 1417.24,-61.83 1471.38,-46.25 1473.94,-45.51 1476.55,-44.72 1479.18,-43.88"/>
<polygon fill="#63b8ff" stroke="#63b8ff" points="1480.18,-47.24 1488.56,-40.75 1477.97,-40.6 1480.18,-47.24"/>
</a>
</g>
</g>
<!-- Node22 -->
<g id="Node000022" class="node">
<title>Node22</title>
<g id="a_Node000022"><a xlink:title=" ">
<polygon fill="#e0e0e0" stroke="#999999" points="1739.5,-46.25 1601.25,-46.25 1601.25,0 1739.5,0 1739.5,-46.25"/>
<text xml:space="preserve" text-anchor="start" x="1609.25" y="-32.75" font-family="Helvetica,sans-Serif" font-size="10.00">../../../gameEngine</text>
<text xml:space="preserve" text-anchor="start" x="1609.25" y="-20" font-family="Helvetica,sans-Serif" font-size="10.00">/systems/FPApplyGravity</text>
<text xml:space="preserve" text-anchor="middle" x="1670.38" y="-7.25" font-family="Helvetica,sans-Serif" font-size="10.00">/src/FPApplyGravity.hpp</text>
</a>
</g>
</g>
<!-- Node8&#45;&gt;Node22 -->
<g id="edge22_Node000008_Node000022" class="edge">
<title>Node8&#45;&gt;Node22</title>
<g id="a_edge22_Node000008_Node000022"><a xlink:title=" ">
<path fill="none" stroke="#63b8ff" d="M1310.36,-86.65C1375.12,-80.26 1486.06,-67.62 1589.77,-46.66"/>
<polygon fill="#63b8ff" stroke="#63b8ff" points="1590.18,-50.15 1599.27,-44.71 1588.77,-43.29 1590.18,-50.15"/>
</a>
</g>
</g>
<!-- Node23 -->
<g id="Node000023" class="node">
<title>Node23</title>
<g id="a_Node000023"><a xlink:title=" ">
<polygon fill="#e0e0e0" stroke="#999999" points="1895.5,-46.25 1757.25,-46.25 1757.25,0 1895.5,0 1895.5,-46.25"/>
<text xml:space="preserve" text-anchor="start" x="1765.25" y="-32.75" font-family="Helvetica,sans-Serif" font-size="10.00">../../../gameEngine</text>
<text xml:space="preserve" text-anchor="start" x="1765.25" y="-20" font-family="Helvetica,sans-Serif" font-size="10.00">/systems/FPInputHandler</text>
<text xml:space="preserve" text-anchor="middle" x="1826.38" y="-7.25" font-family="Helvetica,sans-Serif" font-size="10.00">/src/FPInputHandler.hpp</text>
</a>
</g>
</g>
<!-- Node8&#45;&gt;Node23 -->
<g id="edge23_Node000008_Node000023" class="edge">
<title>Node8&#45;&gt;Node23</title>
<g id="a_edge23_Node000008_Node000023"><a xlink:title=" ">
<path fill="none" stroke="#63b8ff" d="M1310.18,-89.88C1399.61,-86.32 1582.54,-76.03 1745.58,-46.61"/>
<polygon fill="#63b8ff" stroke="#63b8ff" points="1746.09,-50.07 1755.3,-44.83 1744.83,-43.19 1746.09,-50.07"/>
</a>
</g>
</g>
<!-- Node24 -->
<g id="Node000024" class="node">
<title>Node24</title>
<g id="a_Node000024"><a xlink:title=" ">
<polygon fill="#e0e0e0" stroke="#999999" points="2039.5,-46.25 1913.25,-46.25 1913.25,0 2039.5,0 2039.5,-46.25"/>
<text xml:space="preserve" text-anchor="start" x="1921.25" y="-32.75" font-family="Helvetica,sans-Serif" font-size="10.00">../../../gameEngine</text>
<text xml:space="preserve" text-anchor="start" x="1921.25" y="-20" font-family="Helvetica,sans-Serif" font-size="10.00">/systems/FPMotion/src</text>
<text xml:space="preserve" text-anchor="middle" x="1976.38" y="-7.25" font-family="Helvetica,sans-Serif" font-size="10.00">/FPMotion.hpp</text>
</a>
</g>
</g>
<!-- Node8&#45;&gt;Node24 -->
<g id="edge24_Node000008_Node000024" class="edge">
<title>Node8&#45;&gt;Node24</title>
<g id="a_edge24_Node000008_Node000024"><a xlink:title=" ">
<path fill="none" stroke="#63b8ff" d="M1310.18,-91.99C1420.73,-91.82 1678.27,-86.86 1901.68,-46.54"/>
<polygon fill="#63b8ff" stroke="#63b8ff" points="1902.28,-49.99 1911.48,-44.74 1901.01,-43.11 1902.28,-49.99"/>
</a>
</g>
</g>
<!-- Node25 -->
<g id="Node000025" class="node">
<title>Node25</title>
<g id="a_Node000025"><a xlink:title=" ">
<polygon fill="#e0e0e0" stroke="#999999" points="2187.38,-46.25 2057.38,-46.25 2057.38,0 2187.38,0 2187.38,-46.25"/>
<text xml:space="preserve" text-anchor="start" x="2065.38" y="-32.75" font-family="Helvetica,sans-Serif" font-size="10.00">../../../gameEngine</text>
<text xml:space="preserve" text-anchor="start" x="2065.38" y="-20" font-family="Helvetica,sans-Serif" font-size="10.00">/systems/animation/src</text>
<text xml:space="preserve" text-anchor="middle" x="2122.38" y="-7.25" font-family="Helvetica,sans-Serif" font-size="10.00">/Animation.hpp</text>
</a>
</g>
</g>
<!-- Node8&#45;&gt;Node25 -->
<g id="edge25_Node000008_Node000025" class="edge">
<title>Node8&#45;&gt;Node25</title>
<g id="a_edge25_Node000008_Node000025"><a xlink:title=" ">
<path fill="none" stroke="#63b8ff" d="M1310.28,-90.15C1461.97,-85.82 1885.61,-71.91 2046.11,-46.37"/>
<polygon fill="#63b8ff" stroke="#63b8ff" points="2046.43,-49.86 2055.71,-44.76 2045.27,-42.96 2046.43,-49.86"/>
</a>
</g>
</g>
<!-- Node26 -->
<g id="Node000026" class="node">
<title>Node26</title>
<g id="a_Node000026"><a xlink:title=" ">
<polygon fill="#e0e0e0" stroke="#999999" points="2323,-46.25 2205.75,-46.25 2205.75,0 2323,0 2323,-46.25"/>
<text xml:space="preserve" text-anchor="start" x="2213.75" y="-32.75" font-family="Helvetica,sans-Serif" font-size="10.00">../../../gameEngine</text>
<text xml:space="preserve" text-anchor="start" x="2213.75" y="-20" font-family="Helvetica,sans-Serif" font-size="10.00">/systems/applyScore</text>
<text xml:space="preserve" text-anchor="middle" x="2264.38" y="-7.25" font-family="Helvetica,sans-Serif" font-size="10.00">/src/ApplyScore.hpp</text>
</a>
</g>
</g>
<!-- Node8&#45;&gt;Node26 -->
<g id="edge26_Node000008_Node000026" class="edge">
<title>Node8&#45;&gt;Node26</title>
<g id="a_edge26_Node000008_Node000026"><a xlink:title=" ">
<path fill="none" stroke="#63b8ff" d="M1310.37,-90.89C1481.37,-88.32 2003.18,-78.16 2194,-46.36"/>
<polygon fill="#63b8ff" stroke="#63b8ff" points="2194.54,-49.81 2203.79,-44.64 2193.33,-42.92 2194.54,-49.81"/>
</a>
</g>
</g>
<!-- Node27 -->
<g id="Node000027" class="node">
<title>Node27</title>
<g id="a_Node000027"><a xlink:title=" ">
<polygon fill="#e0e0e0" stroke="#999999" points="2461.88,-46.25 2340.88,-46.25 2340.88,0 2461.88,0 2461.88,-46.25"/>
<text xml:space="preserve" text-anchor="start" x="2348.88" y="-32.75" font-family="Helvetica,sans-Serif" font-size="10.00">../../../gameEngine</text>
<text xml:space="preserve" text-anchor="start" x="2348.88" y="-20" font-family="Helvetica,sans-Serif" font-size="10.00">/systems/collision/src</text>
<text xml:space="preserve" text-anchor="middle" x="2401.38" y="-7.25" font-family="Helvetica,sans-Serif" font-size="10.00">/Collision.hpp</text>
</a>
</g>
</g>
<!-- Node8&#45;&gt;Node27 -->
<g id="edge27_Node000008_Node000027" class="edge">
<title>Node8&#45;&gt;Node27</title>
<g id="a_edge27_Node000008_Node000027"><a xlink:title=" ">
<path fill="none" stroke="#63b8ff" d="M1310.14,-91.25C1497.19,-89.69 2110.83,-82.04 2329.3,-46.51"/>
<polygon fill="#63b8ff" stroke="#63b8ff" points="2329.88,-49.96 2339.15,-44.83 2328.71,-43.06 2329.88,-49.96"/>
</a>
</g>
</g>
<!-- Node28 -->
<g id="Node000028" class="node">
<title>Node28</title>
<g id="a_Node000028"><a xlink:title=" ">
<polygon fill="#e0e0e0" stroke="#999999" points="2641.12,-39.88 2479.62,-39.88 2479.62,-6.38 2641.12,-6.38 2641.12,-39.88"/>
<text xml:space="preserve" text-anchor="start" x="2487.62" y="-26.38" font-family="Helvetica,sans-Serif" font-size="10.00">../../../gameEngine</text>
<text xml:space="preserve" text-anchor="middle" x="2560.38" y="-13.62" font-family="Helvetica,sans-Serif" font-size="10.00">/systems/death/src/Death.hpp</text>
</a>
</g>
</g>
<!-- Node8&#45;&gt;Node28 -->
<g id="edge28_Node000008_Node000028" class="edge">
<title>Node8&#45;&gt;Node28</title>
<g id="a_edge28_Node000008_Node000028"><a xlink:title=" ">
<path fill="none" stroke="#63b8ff" d="M1310.23,-91.08C1516.09,-88.81 2242.46,-78.62 2471.38,-46.25 2478.1,-45.3 2485.05,-44.05 2491.98,-42.63"/>
<polygon fill="#63b8ff" stroke="#63b8ff" points="2492.28,-46.15 2501.31,-40.6 2490.79,-39.31 2492.28,-46.15"/>
</a>
</g>
</g>
<!-- Node29 -->
<g id="Node000029" class="node">
<title>Node29</title>
<g id="a_Node000029"><a xlink:title=" ">
<polygon fill="#e0e0e0" stroke="#999999" points="2797.5,-46.25 2659.25,-46.25 2659.25,0 2797.5,0 2797.5,-46.25"/>
<text xml:space="preserve" text-anchor="start" x="2667.25" y="-32.75" font-family="Helvetica,sans-Serif" font-size="10.00">../../../gameEngine</text>
<text xml:space="preserve" text-anchor="start" x="2667.25" y="-20" font-family="Helvetica,sans-Serif" font-size="10.00">/systems/domainHandler</text>
<text xml:space="preserve" text-anchor="middle" x="2728.38" y="-7.25" font-family="Helvetica,sans-Serif" font-size="10.00">/src/DomainHandler.hpp</text>
</a>
</g>
</g>
<!-- Node8&#45;&gt;Node29 -->
<g id="edge29_Node000008_Node000029" class="edge">
<title>Node8&#45;&gt;Node29</title>
<g id="a_edge29_Node000008_Node000029"><a xlink:title=" ">
<path fill="none" stroke="#63b8ff" d="M1310.11,-91.62C1531.6,-91.35 2362.89,-87.64 2647.7,-46.43"/>
<polygon fill="#63b8ff" stroke="#63b8ff" points="2647.96,-49.93 2657.32,-44.99 2646.91,-43.01 2647.96,-49.93"/>
</a>
</g>
</g>
<!-- Node30 -->
<g id="Node000030" class="node">
<title>Node30</title>
<g id="a_Node000030"><a xlink:title=" ">
<polygon fill="#e0e0e0" stroke="#999999" points="2941.5,-46.25 2815.25,-46.25 2815.25,0 2941.5,0 2941.5,-46.25"/>
<text xml:space="preserve" text-anchor="start" x="2823.25" y="-32.75" font-family="Helvetica,sans-Serif" font-size="10.00">../../../gameEngine</text>
<text xml:space="preserve" text-anchor="start" x="2823.25" y="-20" font-family="Helvetica,sans-Serif" font-size="10.00">/systems/inputHandler</text>
<text xml:space="preserve" text-anchor="middle" x="2878.38" y="-7.25" font-family="Helvetica,sans-Serif" font-size="10.00">/src/InputHandler.hpp</text>
</a>
</g>
</g>
<!-- Node8&#45;&gt;Node30 -->
<g id="edge30_Node000008_Node000030" class="edge">
<title>Node8&#45;&gt;Node30</title>
<g id="a_edge30_Node000008_Node000030"><a xlink:title=" ">
<path fill="none" stroke="#63b8ff" d="M1310.06,-91.99C1547.04,-93.28 2487.13,-95.23 2803.99,-46.37"/>
<polygon fill="#63b8ff" stroke="#63b8ff" points="2804.18,-49.89 2813.5,-44.85 2803.07,-42.97 2804.18,-49.89"/>
</a>
</g>
</g>
<!-- Node31 -->
<g id="Node000031" class="node">
<title>Node31</title>
<g id="a_Node000031"><a xlink:title=" ">
<polygon fill="#e0e0e0" stroke="#999999" points="3074.88,-46.25 2959.88,-46.25 2959.88,0 3074.88,0 3074.88,-46.25"/>
<text xml:space="preserve" text-anchor="start" x="2967.88" y="-32.75" font-family="Helvetica,sans-Serif" font-size="10.00">../../../gameEngine</text>
<text xml:space="preserve" text-anchor="start" x="2967.88" y="-20" font-family="Helvetica,sans-Serif" font-size="10.00">/systems/motion/src</text>
<text xml:space="preserve" text-anchor="middle" x="3017.38" y="-7.25" font-family="Helvetica,sans-Serif" font-size="10.00">/Motion.hpp</text>
</a>
</g>
</g>
<!-- Node8&#45;&gt;Node31 -->
<g id="edge31_Node000008_Node000031" class="edge">
<title>Node8&#45;&gt;Node31</title>
<g id="a_edge31_Node000008_Node000031"><a xlink:title=" ">
<path fill="none" stroke="#63b8ff" d="M1310.26,-91.11C1577.69,-88.46 2739.35,-75.47 2948.2,-46.14"/>
<polygon fill="#63b8ff" stroke="#63b8ff" points="2948.7,-49.61 2958.04,-44.61 2947.62,-42.69 2948.7,-49.61"/>
</a>
</g>
</g>
</g>
</svg>
