<?xml version="1.0" encoding="UTF-8" standalone="no"?>
<!DOCTYPE svg PUBLIC "-//W3C//DTD SVG 1.1//EN"
 "http://www.w3.org/Graphics/SVG/1.1/DTD/svg11.dtd">
<!-- Generated by graphviz version 13.1.2 (20250808.2320)
 -->
<!-- Title: src/network/NetworkServer.hpp Pages: 1 -->
<svg width="817pt" height="86pt"
 viewBox="0.00 0.00 817.00 86.00" xmlns="http://www.w3.org/2000/svg" xmlns:xlink="http://www.w3.org/1999/xlink">
<g id="graph0" class="graph" transform="scale(1 1) rotate(0) translate(4 81.5)">
<title>src/network/NetworkServer.hpp</title>
<!-- Node1 -->
<g id="Node000001" class="node">
<title>Node1</title>
<g id="a_Node000001"><a xlink:title=" ">
<polygon fill="#999999" stroke="#666666" points="445.62,-77.5 276.62,-77.5 276.62,-56.75 445.62,-56.75 445.62,-77.5"/>
<text xml:space="preserve" text-anchor="middle" x="361.12" y="-64" font-family="Helvetica,sans-Serif" font-size="10.00">src/network/NetworkServer.hpp</text>
</a>
</g>
</g>
<!-- Node2 -->
<g id="Node000002" class="node">
<title>Node2</title>
<g id="a_Node000002"><a xlink:href="main_8cpp.html" target="_top" xlink:title=" ">
<polygon fill="white" stroke="#666666" points="78.25,-20.75 0,-20.75 0,0 78.25,0 78.25,-20.75"/>
<text xml:space="preserve" text-anchor="middle" x="39.12" y="-7.25" font-family="Helvetica,sans-Serif" font-size="10.00">src/main.cpp</text>
</a>
</g>
</g>
<!-- Node1&#45;&gt;Node2 -->
<g id="edge1_Node000001_Node000002" class="edge">
<title>Node1&#45;&gt;Node2</title>
<g id="a_edge1_Node000001_Node000002"><a xlink:title=" ">
<path fill="none" stroke="#63b8ff" d="M287.38,-54.5C232.17,-45.66 154.82,-32.96 87.12,-20.75 84.37,-20.25 81.52,-19.73 78.66,-19.19"/>
<polygon fill="#63b8ff" stroke="#63b8ff" points="286.54,-57.91 296.97,-56.03 287.65,-51 286.54,-57.91"/>
</a>
</g>
</g>
<!-- Node3 -->
<g id="Node000003" class="node">
<title>Node3</title>
<g id="a_Node000003"><a xlink:href="NetworkServer_8cpp.html" target="_top" xlink:title=" ">
<polygon fill="white" stroke="#666666" points="264.25,-20.75 96,-20.75 96,0 264.25,0 264.25,-20.75"/>
<text xml:space="preserve" text-anchor="middle" x="180.12" y="-7.25" font-family="Helvetica,sans-Serif" font-size="10.00">src/network/NetworkServer.cpp</text>
</a>
</g>
</g>
<!-- Node1&#45;&gt;Node3 -->
<g id="edge2_Node000001_Node000003" class="edge">
<title>Node1&#45;&gt;Node3</title>
<g id="a_edge2_Node000001_Node000003"><a xlink:title=" ">
<path fill="none" stroke="#63b8ff" d="M317.82,-53.03C285.45,-43.24 241.9,-30.06 212.51,-21.17"/>
<polygon fill="#63b8ff" stroke="#63b8ff" points="316.73,-56.35 327.32,-55.9 318.76,-49.65 316.73,-56.35"/>
</a>
</g>
</g>
<!-- Node4 -->
<g id="Node000004" class="node">
<title>Node4</title>
<g id="a_Node000004"><a xlink:href="handleClient_8cpp.html" target="_top" xlink:title=" ">
<polygon fill="white" stroke="#666666" points="440,-20.75 282.25,-20.75 282.25,0 440,0 440,-20.75"/>
<text xml:space="preserve" text-anchor="middle" x="361.12" y="-7.25" font-family="Helvetica,sans-Serif" font-size="10.00">src/network/handleClient.cpp</text>
</a>
</g>
</g>
<!-- Node1&#45;&gt;Node4 -->
<g id="edge3_Node000001_Node000004" class="edge">
<title>Node1&#45;&gt;Node4</title>
<g id="a_edge3_Node000001_Node000004"><a xlink:title=" ">
<path fill="none" stroke="#63b8ff" d="M361.12,-44.88C361.12,-36.66 361.12,-27.68 361.12,-21.08"/>
<polygon fill="#63b8ff" stroke="#63b8ff" points="357.63,-44.82 361.13,-54.82 364.63,-44.82 357.63,-44.82"/>
</a>
</g>
</g>
<!-- Node5 -->
<g id="Node000005" class="node">
<title>Node5</title>
<g id="a_Node000005"><a xlink:href="loadEnemies_8cpp.html" target="_top" xlink:title=" ">
<polygon fill="white" stroke="#666666" points="617.75,-20.75 458.5,-20.75 458.5,0 617.75,0 617.75,-20.75"/>
<text xml:space="preserve" text-anchor="middle" x="538.12" y="-7.25" font-family="Helvetica,sans-Serif" font-size="10.00">src/network/loadEnemies.cpp</text>
</a>
</g>
</g>
<!-- Node1&#45;&gt;Node5 -->
<g id="edge4_Node000001_Node000005" class="edge">
<title>Node1&#45;&gt;Node5</title>
<g id="a_edge4_Node000001_Node000005"><a xlink:title=" ">
<path fill="none" stroke="#63b8ff" d="M403.47,-53.03C435.12,-43.24 477.72,-30.06 506.46,-21.17"/>
<polygon fill="#63b8ff" stroke="#63b8ff" points="402.73,-49.59 394.22,-55.89 404.8,-56.28 402.73,-49.59"/>
</a>
</g>
</g>
<!-- Node6 -->
<g id="Node000006" class="node">
<title>Node6</title>
<g id="a_Node000006"><a xlink:href="manageEntities_8cpp.html" target="_top" xlink:title=" ">
<polygon fill="white" stroke="#666666" points="808.5,-20.75 635.75,-20.75 635.75,0 808.5,0 808.5,-20.75"/>
<text xml:space="preserve" text-anchor="middle" x="722.12" y="-7.25" font-family="Helvetica,sans-Serif" font-size="10.00">src/network/manageEntities.cpp</text>
</a>
</g>
</g>
<!-- Node1&#45;&gt;Node6 -->
<g id="edge5_Node000001_Node000006" class="edge">
<title>Node1&#45;&gt;Node6</title>
<g id="a_edge5_Node000001_Node000006"><a xlink:title=" ">
<path fill="none" stroke="#63b8ff" d="M437.11,-54.6C502.31,-44.71 595.26,-30.62 657.08,-21.24"/>
<polygon fill="#63b8ff" stroke="#63b8ff" points="436.94,-51.09 427.58,-56.05 437.99,-58.01 436.94,-51.09"/>
</a>
</g>
</g>
</g>
</svg>
