<?xml version="1.0" encoding="UTF-8" standalone="no"?>
<!DOCTYPE svg PUBLIC "-//W3C//DTD SVG 1.1//EN"
 "http://www.w3.org/Graphics/SVG/1.1/DTD/svg11.dtd">
<!-- Generated by graphviz version 13.1.2 (20250808.2320)
 -->
<!-- Title: src/network/NetworkServer.hpp Pages: 1 -->
<svg width="3082pt" height="111pt"
 viewBox="0.00 0.00 3082.00 111.00" xmlns="http://www.w3.org/2000/svg" xmlns:xlink="http://www.w3.org/1999/xlink">
<g id="graph0" class="graph" transform="scale(1 1) rotate(0) translate(4 107)">
<title>src/network/NetworkServer.hpp</title>
<!-- Node1 -->
<g id="Node000001" class="node">
<title>Node1</title>
<g id="a_Node000001"><a xlink:title=" ">
<polygon fill="#999999" stroke="#666666" points="1412.12,-103 1243.12,-103 1243.12,-82.25 1412.12,-82.25 1412.12,-103"/>
<text xml:space="preserve" text-anchor="middle" x="1327.62" y="-89.5" font-family="Helvetica,sans-Serif" font-size="10.00">src/network/NetworkServer.hpp</text>
</a>
</g>
</g>
<!-- Node2 -->
<g id="Node000002" class="node">
<title>Node2</title>
<g id="a_Node000002"><a xlink:title=" ">
<polygon fill="#e0e0e0" stroke="#999999" points="57.25,-33.5 0,-33.5 0,-12.75 57.25,-12.75 57.25,-33.5"/>
<text xml:space="preserve" text-anchor="middle" x="28.62" y="-20" font-family="Helvetica,sans-Serif" font-size="10.00">asio.hpp</text>
</a>
</g>
</g>
<!-- Node1&#45;&gt;Node2 -->
<g id="edge1_Node000001_Node000002" class="edge">
<title>Node1&#45;&gt;Node2</title>
<g id="a_edge1_Node000001_Node000002"><a xlink:title=" ">
<path fill="none" stroke="#63b8ff" d="M1242.8,-90.96C978.17,-88.56 178.75,-78.69 66.62,-46.25 61.45,-44.75 56.25,-42.4 51.42,-39.78"/>
<polygon fill="#63b8ff" stroke="#63b8ff" points="53.27,-36.81 42.9,-34.62 49.64,-42.8 53.27,-36.81"/>
</a>
</g>
</g>
<!-- Node3 -->
<g id="Node000003" class="node">
<title>Node3</title>
<g id="a_Node000003"><a xlink:title=" ">
<polygon fill="#e0e0e0" stroke="#999999" points="113.5,-33.5 75.75,-33.5 75.75,-12.75 113.5,-12.75 113.5,-33.5"/>
<text xml:space="preserve" text-anchor="middle" x="94.62" y="-20" font-family="Helvetica,sans-Serif" font-size="10.00">map</text>
</a>
</g>
</g>
<!-- Node1&#45;&gt;Node3 -->
<g id="edge2_Node000001_Node000003" class="edge">
<title>Node1&#45;&gt;Node3</title>
<g id="a_edge2_Node000001_Node000003"><a xlink:title=" ">
<path fill="none" stroke="#63b8ff" d="M1242.75,-91.47C985.68,-90.57 226.79,-84.65 122.62,-46.25 119.02,-44.92 115.52,-42.94 112.28,-40.7"/>
<polygon fill="#63b8ff" stroke="#63b8ff" points="114.68,-38.13 104.71,-34.54 110.26,-43.56 114.68,-38.13"/>
</a>
</g>
</g>
<!-- Node4 -->
<g id="Node000004" class="node">
<title>Node4</title>
<g id="a_Node000004"><a xlink:title=" ">
<polygon fill="#e0e0e0" stroke="#999999" points="189.25,-33.5 132,-33.5 132,-12.75 189.25,-12.75 189.25,-33.5"/>
<text xml:space="preserve" text-anchor="middle" x="160.62" y="-20" font-family="Helvetica,sans-Serif" font-size="10.00">memory</text>
</a>
</g>
</g>
<!-- Node1&#45;&gt;Node4 -->
<g id="edge3_Node000001_Node000004" class="edge">
<title>Node1&#45;&gt;Node4</title>
<g id="a_edge3_Node000001_Node000004"><a xlink:title=" ">
<path fill="none" stroke="#63b8ff" d="M1243.05,-90.64C997.67,-87.43 296.71,-75.77 197.62,-46.25 192.57,-44.74 187.49,-42.39 182.78,-39.76"/>
<polygon fill="#63b8ff" stroke="#63b8ff" points="184.86,-36.93 174.52,-34.62 181.16,-42.88 184.86,-36.93"/>
</a>
</g>
</g>
<!-- Node5 -->
<g id="Node000005" class="node">
<title>Node5</title>
<g id="a_Node000005"><a xlink:title=" ">
<polygon fill="#e0e0e0" stroke="#999999" points="254.38,-33.5 206.88,-33.5 206.88,-12.75 254.38,-12.75 254.38,-33.5"/>
<text xml:space="preserve" text-anchor="middle" x="230.62" y="-20" font-family="Helvetica,sans-Serif" font-size="10.00">mutex</text>
</a>
</g>
</g>
<!-- Node1&#45;&gt;Node5 -->
<g id="edge4_Node000001_Node000005" class="edge">
<title>Node1&#45;&gt;Node5</title>
<g id="a_edge4_Node000001_Node000005"><a xlink:title=" ">
<path fill="none" stroke="#63b8ff" d="M1242.91,-90.65C1007.29,-87.55 355.48,-76.35 263.62,-46.25 259.25,-44.82 254.92,-42.63 250.9,-40.17"/>
<polygon fill="#63b8ff" stroke="#63b8ff" points="253.17,-37.49 242.96,-34.67 249.18,-43.25 253.17,-37.49"/>
</a>
</g>
</g>
<!-- Node6 -->
<g id="Node000006" class="node">
<title>Node6</title>
<g id="a_Node000006"><a xlink:title=" ">
<polygon fill="#e0e0e0" stroke="#999999" points="316.5,-33.5 272.75,-33.5 272.75,-12.75 316.5,-12.75 316.5,-33.5"/>
<text xml:space="preserve" text-anchor="middle" x="294.62" y="-20" font-family="Helvetica,sans-Serif" font-size="10.00">string</text>
</a>
</g>
</g>
<!-- Node1&#45;&gt;Node6 -->
<g id="edge5_Node000001_Node000006" class="edge">
<title>Node1&#45;&gt;Node6</title>
<g id="a_edge5_Node000001_Node000006"><a xlink:title=" ">
<path fill="none" stroke="#63b8ff" d="M1242.96,-90.54C1017.01,-87.25 411.06,-75.76 325.62,-46.25 321.69,-44.89 317.82,-42.87 314.22,-40.58"/>
<polygon fill="#63b8ff" stroke="#63b8ff" points="316.31,-37.77 306.17,-34.69 312.17,-43.42 316.31,-37.77"/>
</a>
</g>
</g>
<!-- Node7 -->
<g id="Node000007" class="node">
<title>Node7</title>
<g id="a_Node000007"><a xlink:title=" ">
<polygon fill="#e0e0e0" stroke="#999999" points="381,-33.5 334.25,-33.5 334.25,-12.75 381,-12.75 381,-33.5"/>
<text xml:space="preserve" text-anchor="middle" x="357.62" y="-20" font-family="Helvetica,sans-Serif" font-size="10.00">vector</text>
</a>
</g>
</g>
<!-- Node1&#45;&gt;Node7 -->
<g id="edge6_Node000001_Node000007" class="edge">
<title>Node1&#45;&gt;Node7</title>
<g id="a_edge6_Node000001_Node000007"><a xlink:title=" ">
<path fill="none" stroke="#63b8ff" d="M1242.97,-90.18C1027.39,-86.14 469.1,-73.17 389.62,-46.25 385.48,-44.85 381.38,-42.73 377.57,-40.36"/>
<polygon fill="#63b8ff" stroke="#63b8ff" points="379.75,-37.61 369.57,-34.67 375.69,-43.32 379.75,-37.61"/>
</a>
</g>
</g>
<!-- Node8 -->
<g id="Node000008" class="node">
<title>Node8</title>
<g id="a_Node000008"><a xlink:title=" ">
<polygon fill="#e0e0e0" stroke="#999999" points="540.62,-46.25 398.62,-46.25 398.62,0 540.62,0 540.62,-46.25"/>
<text xml:space="preserve" text-anchor="start" x="406.62" y="-32.75" font-family="Helvetica,sans-Serif" font-size="10.00">../../../gameEngine</text>
<text xml:space="preserve" text-anchor="start" x="406.62" y="-20" font-family="Helvetica,sans-Serif" font-size="10.00">/components/AIControlled</text>
<text xml:space="preserve" text-anchor="middle" x="469.62" y="-7.25" font-family="Helvetica,sans-Serif" font-size="10.00">/src/AIControlled.hpp</text>
</a>
</g>
</g>
<!-- Node1&#45;&gt;Node8 -->
<g id="edge7_Node000001_Node000008" class="edge">
<title>Node1&#45;&gt;Node8</title>
<g id="a_edge7_Node000001_Node000008"><a xlink:title=" ">
<path fill="none" stroke="#63b8ff" d="M1242.65,-92.52C1100.94,-92.72 807.53,-87.69 551.98,-46.46"/>
<polygon fill="#63b8ff" stroke="#63b8ff" points="552.91,-43.07 542.48,-44.91 551.78,-49.98 552.91,-43.07"/>
</a>
</g>
</g>
<!-- Node9 -->
<g id="Node000009" class="node">
<title>Node9</title>
<g id="a_Node000009"><a xlink:title=" ">
<polygon fill="#e0e0e0" stroke="#999999" points="700.62,-46.25 558.62,-46.25 558.62,0 700.62,0 700.62,-46.25"/>
<text xml:space="preserve" text-anchor="start" x="566.62" y="-32.75" font-family="Helvetica,sans-Serif" font-size="10.00">../../../gameEngine</text>
<text xml:space="preserve" text-anchor="start" x="566.62" y="-20" font-family="Helvetica,sans-Serif" font-size="10.00">/components/acceleration</text>
<text xml:space="preserve" text-anchor="middle" x="629.62" y="-7.25" font-family="Helvetica,sans-Serif" font-size="10.00">/src/Acceleration.hpp</text>
</a>
</g>
</g>
<!-- Node1&#45;&gt;Node9 -->
<g id="edge8_Node000001_Node000009" class="edge">
<title>Node1&#45;&gt;Node9</title>
<g id="a_edge8_Node000001_Node000009"><a xlink:title=" ">
<path fill="none" stroke="#63b8ff" d="M1242.77,-90.65C1125.34,-88.14 906.7,-79.26 712.29,-46.54"/>
<polygon fill="#63b8ff" stroke="#63b8ff" points="712.94,-43.1 702.49,-44.87 711.75,-50 712.94,-43.1"/>
</a>
</g>
</g>
<!-- Node10 -->
<g id="Node000010" class="node">
<title>Node10</title>
<g id="a_Node000010"><a xlink:title=" ">
<polygon fill="#e0e0e0" stroke="#999999" points="854.62,-46.25 718.62,-46.25 718.62,0 854.62,0 854.62,-46.25"/>
<text xml:space="preserve" text-anchor="start" x="726.62" y="-32.75" font-family="Helvetica,sans-Serif" font-size="10.00">../../../gameEngine</text>
<text xml:space="preserve" text-anchor="start" x="726.62" y="-20" font-family="Helvetica,sans-Serif" font-size="10.00">/components/domain/src</text>
<text xml:space="preserve" text-anchor="middle" x="786.62" y="-7.25" font-family="Helvetica,sans-Serif" font-size="10.00">/Domain.hpp</text>
</a>
</g>
</g>
<!-- Node1&#45;&gt;Node10 -->
<g id="edge9_Node000001_Node000010" class="edge">
<title>Node1&#45;&gt;Node10</title>
<g id="a_edge9_Node000001_Node000010"><a xlink:title=" ">
<path fill="none" stroke="#63b8ff" d="M1242.72,-87.97C1151.64,-83 1002.72,-71.86 865.98,-46.53"/>
<polygon fill="#63b8ff" stroke="#63b8ff" points="866.87,-43.14 856.39,-44.72 865.57,-50.02 866.87,-43.14"/>
</a>
</g>
</g>
<!-- Node11 -->
<g id="Node000011" class="node">
<title>Node11</title>
<g id="a_Node000011"><a xlink:title=" ">
<polygon fill="#e0e0e0" stroke="#999999" points="1030.12,-46.25 873.12,-46.25 873.12,0 1030.12,0 1030.12,-46.25"/>
<text xml:space="preserve" text-anchor="start" x="881.12" y="-32.75" font-family="Helvetica,sans-Serif" font-size="10.00">../../../gameEngine</text>
<text xml:space="preserve" text-anchor="start" x="881.12" y="-20" font-family="Helvetica,sans-Serif" font-size="10.00">/components/inputControlled</text>
<text xml:space="preserve" text-anchor="middle" x="951.62" y="-7.25" font-family="Helvetica,sans-Serif" font-size="10.00">/src/InputControlled.hpp</text>
</a>
</g>
</g>
<!-- Node1&#45;&gt;Node11 -->
<g id="edge10_Node000001_Node000011" class="edge">
<title>Node1&#45;&gt;Node11</title>
<g id="a_edge10_Node000001_Node000011"><a xlink:title=" ">
<path fill="none" stroke="#63b8ff" d="M1252.43,-81.78C1196.53,-74.01 1118.18,-62.17 1041.13,-46.69"/>
<polygon fill="#63b8ff" stroke="#63b8ff" points="1042.25,-43.34 1031.75,-44.78 1040.85,-50.2 1042.25,-43.34"/>
</a>
</g>
</g>
<!-- Node12 -->
<g id="Node000012" class="node">
<title>Node12</title>
<g id="a_Node000012"><a xlink:title=" ">
<polygon fill="#e0e0e0" stroke="#999999" points="1169.12,-46.25 1048.12,-46.25 1048.12,0 1169.12,0 1169.12,-46.25"/>
<text xml:space="preserve" text-anchor="start" x="1056.12" y="-32.75" font-family="Helvetica,sans-Serif" font-size="10.00">../../../gameEngine</text>
<text xml:space="preserve" text-anchor="start" x="1056.12" y="-20" font-family="Helvetica,sans-Serif" font-size="10.00">/components/position</text>
<text xml:space="preserve" text-anchor="middle" x="1108.62" y="-7.25" font-family="Helvetica,sans-Serif" font-size="10.00">/src/Position.hpp</text>
</a>
</g>
</g>
<!-- Node1&#45;&gt;Node12 -->
<g id="edge11_Node000001_Node000012" class="edge">
<title>Node1&#45;&gt;Node12</title>
<g id="a_edge11_Node000001_Node000012"><a xlink:title=" ">
<path fill="none" stroke="#63b8ff" d="M1295.04,-81.81C1267.08,-73.36 1225.42,-60.72 1180.25,-46.74"/>
<polygon fill="#63b8ff" stroke="#63b8ff" points="1181.35,-43.42 1170.76,-43.8 1179.28,-50.1 1181.35,-43.42"/>
</a>
</g>
</g>
<!-- Node13 -->
<g id="Node000013" class="node">
<title>Node13</title>
<g id="a_Node000013"><a xlink:title=" ">
<polygon fill="#e0e0e0" stroke="#999999" points="1321.88,-46.25 1187.38,-46.25 1187.38,0 1321.88,0 1321.88,-46.25"/>
<text xml:space="preserve" text-anchor="start" x="1195.38" y="-32.75" font-family="Helvetica,sans-Serif" font-size="10.00">../../../gameEngine</text>
<text xml:space="preserve" text-anchor="start" x="1195.38" y="-20" font-family="Helvetica,sans-Serif" font-size="10.00">/components/renderable</text>
<text xml:space="preserve" text-anchor="middle" x="1254.62" y="-7.25" font-family="Helvetica,sans-Serif" font-size="10.00">/src/Renderable.hpp</text>
</a>
</g>
</g>
<!-- Node1&#45;&gt;Node13 -->
<g id="edge12_Node000001_Node000013" class="edge">
<title>Node1&#45;&gt;Node13</title>
<g id="a_edge12_Node000001_Node000013"><a xlink:title=" ">
<path fill="none" stroke="#63b8ff" d="M1317.17,-81.95C1309.25,-74.63 1297.92,-64.16 1287.08,-54.13"/>
<polygon fill="#63b8ff" stroke="#63b8ff" points="1289.77,-51.86 1280.05,-47.64 1285.02,-57 1289.77,-51.86"/>
</a>
</g>
</g>
<!-- Node14 -->
<g id="Node000014" class="node">
<title>Node14</title>
<g id="a_Node000014"><a xlink:title=" ">
<polygon fill="#e0e0e0" stroke="#999999" points="1461.12,-46.25 1340.12,-46.25 1340.12,0 1461.12,0 1461.12,-46.25"/>
<text xml:space="preserve" text-anchor="start" x="1348.12" y="-32.75" font-family="Helvetica,sans-Serif" font-size="10.00">../../../gameEngine</text>
<text xml:space="preserve" text-anchor="start" x="1348.12" y="-20" font-family="Helvetica,sans-Serif" font-size="10.00">/components/velocity</text>
<text xml:space="preserve" text-anchor="middle" x="1400.62" y="-7.25" font-family="Helvetica,sans-Serif" font-size="10.00">/src/Velocity.hpp</text>
</a>
</g>
</g>
<!-- Node1&#45;&gt;Node14 -->
<g id="edge13_Node000001_Node000014" class="edge">
<title>Node1&#45;&gt;Node14</title>
<g id="a_edge13_Node000001_Node000014"><a xlink:title=" ">
<path fill="none" stroke="#63b8ff" d="M1338.08,-81.95C1346,-74.63 1357.33,-64.16 1368.17,-54.13"/>
<polygon fill="#63b8ff" stroke="#63b8ff" points="1370.23,-57 1375.2,-47.64 1365.48,-51.86 1370.23,-57"/>
</a>
</g>
</g>
<!-- Node15 -->
<g id="Node000015" class="node">
<title>Node15</title>
<g id="a_Node000015"><a xlink:title=" ">
<polygon fill="#e0e0e0" stroke="#999999" points="1582.5,-39.88 1478.75,-39.88 1478.75,-6.38 1582.5,-6.38 1582.5,-39.88"/>
<text xml:space="preserve" text-anchor="start" x="1486.75" y="-26.38" font-family="Helvetica,sans-Serif" font-size="10.00">../../../gameEngine</text>
<text xml:space="preserve" text-anchor="middle" x="1530.62" y="-13.62" font-family="Helvetica,sans-Serif" font-size="10.00">/ecs/Registry.hpp</text>
</a>
</g>
</g>
<!-- Node1&#45;&gt;Node15 -->
<g id="edge14_Node000001_Node000015" class="edge">
<title>Node1&#45;&gt;Node15</title>
<g id="a_edge14_Node000001_Node000015"><a xlink:title=" ">
<path fill="none" stroke="#63b8ff" d="M1360.14,-81.78C1389.21,-72.86 1432.93,-59.17 1470.62,-46.25 1472.67,-45.55 1474.76,-44.82 1476.86,-44.09"/>
<polygon fill="#63b8ff" stroke="#63b8ff" points="1477.78,-47.48 1486.02,-40.82 1475.43,-40.88 1477.78,-47.48"/>
</a>
</g>
</g>
<!-- Node16 -->
<g id="Node000016" class="node">
<title>Node16</title>
<g id="a_Node000016"><a xlink:title=" ">
<polygon fill="#e0e0e0" stroke="#999999" points="1738.75,-46.25 1600.5,-46.25 1600.5,0 1738.75,0 1738.75,-46.25"/>
<text xml:space="preserve" text-anchor="start" x="1608.5" y="-32.75" font-family="Helvetica,sans-Serif" font-size="10.00">../../../gameEngine</text>
<text xml:space="preserve" text-anchor="start" x="1608.5" y="-20" font-family="Helvetica,sans-Serif" font-size="10.00">/systems/FPApplyGravity</text>
<text xml:space="preserve" text-anchor="middle" x="1669.62" y="-7.25" font-family="Helvetica,sans-Serif" font-size="10.00">/src/FPApplyGravity.hpp</text>
</a>
</g>
</g>
<!-- Node1&#45;&gt;Node16 -->
<g id="edge15_Node000001_Node000016" class="edge">
<title>Node1&#45;&gt;Node16</title>
<g id="a_edge15_Node000001_Node000016"><a xlink:title=" ">
<path fill="none" stroke="#63b8ff" d="M1396.95,-81.77C1447.82,-74.07 1518.76,-62.35 1589.51,-46.63"/>
<polygon fill="#63b8ff" stroke="#63b8ff" points="1589.94,-50.12 1598.92,-44.51 1588.4,-43.29 1589.94,-50.12"/>
</a>
</g>
</g>
<!-- Node17 -->
<g id="Node000017" class="node">
<title>Node17</title>
<g id="a_Node000017"><a xlink:title=" ">
<polygon fill="#e0e0e0" stroke="#999999" points="1894.75,-46.25 1756.5,-46.25 1756.5,0 1894.75,0 1894.75,-46.25"/>
<text xml:space="preserve" text-anchor="start" x="1764.5" y="-32.75" font-family="Helvetica,sans-Serif" font-size="10.00">../../../gameEngine</text>
<text xml:space="preserve" text-anchor="start" x="1764.5" y="-20" font-family="Helvetica,sans-Serif" font-size="10.00">/systems/FPInputHandler</text>
<text xml:space="preserve" text-anchor="middle" x="1825.62" y="-7.25" font-family="Helvetica,sans-Serif" font-size="10.00">/src/FPInputHandler.hpp</text>
</a>
</g>
</g>
<!-- Node1&#45;&gt;Node17 -->
<g id="edge16_Node000001_Node000017" class="edge">
<title>Node1&#45;&gt;Node17</title>
<g id="a_edge16_Node000001_Node000017"><a xlink:title=" ">
<path fill="none" stroke="#63b8ff" d="M1412.32,-86.69C1495.01,-80.91 1624.49,-69.34 1744.79,-46.65"/>
<polygon fill="#63b8ff" stroke="#63b8ff" points="1745.38,-50.1 1754.54,-44.78 1744.06,-43.23 1745.38,-50.1"/>
</a>
</g>
</g>
<!-- Node18 -->
<g id="Node000018" class="node">
<title>Node18</title>
<g id="a_Node000018"><a xlink:title=" ">
<polygon fill="#e0e0e0" stroke="#999999" points="2038.75,-46.25 1912.5,-46.25 1912.5,0 2038.75,0 2038.75,-46.25"/>
<text xml:space="preserve" text-anchor="start" x="1920.5" y="-32.75" font-family="Helvetica,sans-Serif" font-size="10.00">../../../gameEngine</text>
<text xml:space="preserve" text-anchor="start" x="1920.5" y="-20" font-family="Helvetica,sans-Serif" font-size="10.00">/systems/FPMotion/src</text>
<text xml:space="preserve" text-anchor="middle" x="1975.62" y="-7.25" font-family="Helvetica,sans-Serif" font-size="10.00">/FPMotion.hpp</text>
</a>
</g>
</g>
<!-- Node1&#45;&gt;Node18 -->
<g id="edge17_Node000001_Node000018" class="edge">
<title>Node1&#45;&gt;Node18</title>
<g id="a_edge17_Node000001_Node000018"><a xlink:title=" ">
<path fill="none" stroke="#63b8ff" d="M1412.34,-90.74C1523.02,-88.31 1722.78,-79.49 1901.04,-46.54"/>
<polygon fill="#63b8ff" stroke="#63b8ff" points="1901.54,-50.01 1910.72,-44.72 1900.25,-43.13 1901.54,-50.01"/>
</a>
</g>
</g>
<!-- Node19 -->
<g id="Node000019" class="node">
<title>Node19</title>
<g id="a_Node000019"><a xlink:title=" ">
<polygon fill="#e0e0e0" stroke="#999999" points="2186.62,-46.25 2056.62,-46.25 2056.62,0 2186.62,0 2186.62,-46.25"/>
<text xml:space="preserve" text-anchor="start" x="2064.62" y="-32.75" font-family="Helvetica,sans-Serif" font-size="10.00">../../../gameEngine</text>
<text xml:space="preserve" text-anchor="start" x="2064.62" y="-20" font-family="Helvetica,sans-Serif" font-size="10.00">/systems/animation/src</text>
<text xml:space="preserve" text-anchor="middle" x="2121.62" y="-7.25" font-family="Helvetica,sans-Serif" font-size="10.00">/Animation.hpp</text>
</a>
</g>
</g>
<!-- Node1&#45;&gt;Node19 -->
<g id="edge18_Node000001_Node000019" class="edge">
<title>Node1&#45;&gt;Node19</title>
<g id="a_edge18_Node000001_Node000019"><a xlink:title=" ">
<path fill="none" stroke="#63b8ff" d="M1412.61,-92.49C1545.94,-92.48 1812.27,-86.94 2045.38,-46.44"/>
<polygon fill="#63b8ff" stroke="#63b8ff" points="2045.72,-49.94 2054.96,-44.75 2044.5,-43.04 2045.72,-49.94"/>
</a>
</g>
</g>
<!-- Node20 -->
<g id="Node000020" class="node">
<title>Node20</title>
<g id="a_Node000020"><a xlink:title=" ">
<polygon fill="#e0e0e0" stroke="#999999" points="2322.25,-46.25 2205,-46.25 2205,0 2322.25,0 2322.25,-46.25"/>
<text xml:space="preserve" text-anchor="start" x="2213" y="-32.75" font-family="Helvetica,sans-Serif" font-size="10.00">../../../gameEngine</text>
<text xml:space="preserve" text-anchor="start" x="2213" y="-20" font-family="Helvetica,sans-Serif" font-size="10.00">/systems/applyScore</text>
<text xml:space="preserve" text-anchor="middle" x="2263.62" y="-7.25" font-family="Helvetica,sans-Serif" font-size="10.00">/src/ApplyScore.hpp</text>
</a>
</g>
</g>
<!-- Node1&#45;&gt;Node20 -->
<g id="edge19_Node000001_Node000020" class="edge">
<title>Node1&#45;&gt;Node20</title>
<g id="a_edge19_Node000001_Node000020"><a xlink:title=" ">
<path fill="none" stroke="#63b8ff" d="M1412.41,-90.02C1596.15,-86.09 2027.22,-74.33 2193.49,-46.32"/>
<polygon fill="#63b8ff" stroke="#63b8ff" points="2193.8,-49.82 2203.03,-44.63 2192.58,-42.93 2193.8,-49.82"/>
</a>
</g>
</g>
<!-- Node21 -->
<g id="Node000021" class="node">
<title>Node21</title>
<g id="a_Node000021"><a xlink:title=" ">
<polygon fill="#e0e0e0" stroke="#999999" points="2461.12,-46.25 2340.12,-46.25 2340.12,0 2461.12,0 2461.12,-46.25"/>
<text xml:space="preserve" text-anchor="start" x="2348.12" y="-32.75" font-family="Helvetica,sans-Serif" font-size="10.00">../../../gameEngine</text>
<text xml:space="preserve" text-anchor="start" x="2348.12" y="-20" font-family="Helvetica,sans-Serif" font-size="10.00">/systems/collision/src</text>
<text xml:space="preserve" text-anchor="middle" x="2400.62" y="-7.25" font-family="Helvetica,sans-Serif" font-size="10.00">/Collision.hpp</text>
</a>
</g>
</g>
<!-- Node1&#45;&gt;Node21 -->
<g id="edge20_Node000001_Node000021" class="edge">
<title>Node1&#45;&gt;Node21</title>
<g id="a_edge20_Node000001_Node000021"><a xlink:title=" ">
<path fill="none" stroke="#63b8ff" d="M1412.62,-90.67C1617.52,-87.93 2135.48,-78.15 2328.74,-46.48"/>
<polygon fill="#63b8ff" stroke="#63b8ff" points="2329.14,-49.96 2338.4,-44.82 2327.95,-43.06 2329.14,-49.96"/>
</a>
</g>
</g>
<!-- Node22 -->
<g id="Node000022" class="node">
<title>Node22</title>
<g id="a_Node000022"><a xlink:title=" ">
<polygon fill="#e0e0e0" stroke="#999999" points="2640.38,-39.88 2478.88,-39.88 2478.88,-6.38 2640.38,-6.38 2640.38,-39.88"/>
<text xml:space="preserve" text-anchor="start" x="2486.88" y="-26.38" font-family="Helvetica,sans-Serif" font-size="10.00">../../../gameEngine</text>
<text xml:space="preserve" text-anchor="middle" x="2559.62" y="-13.62" font-family="Helvetica,sans-Serif" font-size="10.00">/systems/death/src/Death.hpp</text>
</a>
</g>
</g>
<!-- Node1&#45;&gt;Node22 -->
<g id="edge21_Node000001_Node000022" class="edge">
<title>Node1&#45;&gt;Node22</title>
<g id="a_edge21_Node000001_Node000022"><a xlink:title=" ">
<path fill="none" stroke="#63b8ff" d="M1412.37,-90.5C1640.9,-87.11 2266.4,-75.38 2470.62,-46.25 2477.09,-45.33 2483.76,-44.13 2490.42,-42.78"/>
<polygon fill="#63b8ff" stroke="#63b8ff" points="2491.04,-46.22 2500.08,-40.69 2489.56,-39.38 2491.04,-46.22"/>
</a>
</g>
</g>
<!-- Node23 -->
<g id="Node000023" class="node">
<title>Node23</title>
<g id="a_Node000023"><a xlink:title=" ">
<polygon fill="#e0e0e0" stroke="#999999" points="2796.75,-46.25 2658.5,-46.25 2658.5,0 2796.75,0 2796.75,-46.25"/>
<text xml:space="preserve" text-anchor="start" x="2666.5" y="-32.75" font-family="Helvetica,sans-Serif" font-size="10.00">../../../gameEngine</text>
<text xml:space="preserve" text-anchor="start" x="2666.5" y="-20" font-family="Helvetica,sans-Serif" font-size="10.00">/systems/domainHandler</text>
<text xml:space="preserve" text-anchor="middle" x="2727.62" y="-7.25" font-family="Helvetica,sans-Serif" font-size="10.00">/src/DomainHandler.hpp</text>
</a>
</g>
</g>
<!-- Node1&#45;&gt;Node23 -->
<g id="edge22_Node000001_Node000023" class="edge">
<title>Node1&#45;&gt;Node23</title>
<g id="a_edge22_Node000001_Node000023"><a xlink:title=" ">
<path fill="none" stroke="#63b8ff" d="M1412.27,-91.39C1661.05,-90.29 2388.11,-83.99 2646.84,-46.45"/>
<polygon fill="#63b8ff" stroke="#63b8ff" points="2647.21,-49.94 2656.57,-44.98 2646.16,-43.01 2647.21,-49.94"/>
</a>
</g>
</g>
<!-- Node24 -->
<g id="Node000024" class="node">
<title>Node24</title>
<g id="a_Node000024"><a xlink:title=" ">
<polygon fill="#e0e0e0" stroke="#999999" points="2940.75,-46.25 2814.5,-46.25 2814.5,0 2940.75,0 2940.75,-46.25"/>
<text xml:space="preserve" text-anchor="start" x="2822.5" y="-32.75" font-family="Helvetica,sans-Serif" font-size="10.00">../../../gameEngine</text>
<text xml:space="preserve" text-anchor="start" x="2822.5" y="-20" font-family="Helvetica,sans-Serif" font-size="10.00">/systems/inputHandler</text>
<text xml:space="preserve" text-anchor="middle" x="2877.62" y="-7.25" font-family="Helvetica,sans-Serif" font-size="10.00">/src/InputHandler.hpp</text>
</a>
</g>
</g>
<!-- Node1&#45;&gt;Node24 -->
<g id="edge23_Node000001_Node000024" class="edge">
<title>Node1&#45;&gt;Node24</title>
<g id="a_edge23_Node000001_Node000024"><a xlink:title=" ">
<path fill="none" stroke="#63b8ff" d="M1412.51,-91.99C1681.3,-92.7 2512.49,-91.22 2802.9,-46.43"/>
<polygon fill="#63b8ff" stroke="#63b8ff" points="2803.43,-49.89 2812.75,-44.85 2802.32,-42.97 2803.43,-49.89"/>
</a>
</g>
</g>
<!-- Node25 -->
<g id="Node000025" class="node">
<title>Node25</title>
<g id="a_Node000025"><a xlink:title=" ">
<polygon fill="#e0e0e0" stroke="#999999" points="3074.12,-46.25 2959.12,-46.25 2959.12,0 3074.12,0 3074.12,-46.25"/>
<text xml:space="preserve" text-anchor="start" x="2967.12" y="-32.75" font-family="Helvetica,sans-Serif" font-size="10.00">../../../gameEngine</text>
<text xml:space="preserve" text-anchor="start" x="2967.12" y="-20" font-family="Helvetica,sans-Serif" font-size="10.00">/systems/motion/src</text>
<text xml:space="preserve" text-anchor="middle" x="3016.62" y="-7.25" font-family="Helvetica,sans-Serif" font-size="10.00">/Motion.hpp</text>
</a>
</g>
</g>
<!-- Node1&#45;&gt;Node25 -->
<g id="edge24_Node000001_Node000025" class="edge">
<title>Node1&#45;&gt;Node25</title>
<g id="a_edge24_Node000001_Node000025"><a xlink:title=" ">
<path fill="none" stroke="#63b8ff" d="M1412.62,-90.69C1718.28,-87.15 2753.4,-73.39 2947.47,-46.14"/>
<polygon fill="#63b8ff" stroke="#63b8ff" points="2947.95,-49.61 2957.29,-44.6 2946.87,-42.69 2947.95,-49.61"/>
</a>
</g>
</g>
</g>
</svg>
